<svg id="グループ_217" data-name="グループ 217" xmlns="http://www.w3.org/2000/svg" xmlns:xlink="http://www.w3.org/1999/xlink" width="173.507" height="103.167" viewBox="0 0 173.507 103.167">
  <defs>
    <clipPath id="clip-path">
      <rect id="長方形_281" data-name="長方形 281" width="173.507" height="103.167" fill="none"/>
    </clipPath>
    <clipPath id="clip-path-3">
      <rect id="長方形_278" data-name="長方形 278" width="159.446" height="94.477" fill="none"/>
    </clipPath>
  </defs>
  <g id="グループ_215" data-name="グループ 215" clip-path="url(#clip-path)">
    <g id="グループ_214" data-name="グループ 214">
      <g id="グループ_213" data-name="グループ 213" clip-path="url(#clip-path)">
        <g id="グループ_209" data-name="グループ 209" opacity="0.7">
          <g id="グループ_208" data-name="グループ 208">
            <g id="グループ_207" data-name="グループ 207" clip-path="url(#clip-path-3)">
              <path id="パス_506" data-name="パス 506" d="M155.142,52.286A12.988,12.988,0,0,0,139.3,31.794a16.536,16.536,0,0,0-22.242-14.67A9.449,9.449,0,0,0,98.54,18.182c-.028.2-.046.4-.061.6a12.985,12.985,0,0,0-21.174-.945,20.08,20.08,0,0,0-39.847-.487c-.09.654-.145,1.3-.171,1.951A12.993,12.993,0,0,0,19.035,35.254a18.9,18.9,0,1,0,3.7,37.4,9.449,9.449,0,0,0,17.477,5.724,16.536,16.536,0,0,0,27,5.077,12.993,12.993,0,0,0,23.917,2.758,16.532,16.532,0,0,0,30.695-6.024c.024-.18.041-.36.06-.54a12.99,12.99,0,0,0,22.7-11.7,9.448,9.448,0,1,0,10.562-15.666" transform="translate(0 0)" fill="#fff"/>
            </g>
          </g>
        </g>
        <g id="グループ_212" data-name="グループ 212" style="mix-blend-mode: multiply;isolation: isolate">
          <g id="グループ_211" data-name="グループ 211">
            <g id="グループ_210" data-name="グループ 210" clip-path="url(#clip-path-3)">
              <path id="パス_507" data-name="パス 507" d="M155.142,52.286A12.988,12.988,0,0,0,139.3,31.794a16.536,16.536,0,0,0-22.242-14.67A9.449,9.449,0,0,0,98.54,18.182c-.028.2-.046.4-.061.6a12.985,12.985,0,0,0-21.174-.945,20.08,20.08,0,0,0-39.847-.487c-.09.654-.145,1.3-.171,1.951A12.993,12.993,0,0,0,19.035,35.254a18.9,18.9,0,1,0,3.7,37.4,9.449,9.449,0,0,0,17.477,5.724,16.536,16.536,0,0,0,27,5.077,12.993,12.993,0,0,0,23.917,2.758,16.532,16.532,0,0,0,30.695-6.024c.024-.18.041-.36.06-.54a12.99,12.99,0,0,0,22.7-11.7,9.448,9.448,0,1,0,10.562-15.666" transform="translate(0 0)" fill="#ffec00"/>
            </g>
          </g>
        </g>
        <path id="パス_508" data-name="パス 508" d="M224.014,111.03a38.206,38.206,0,0,0,5.381-1.116c5.183-1.314,6.969-1.562,8.605-1.562,7.935,0,9.2,6.051,9.2,8.307,0,1.439-.446,5.852-6.076,8.432a24.867,24.867,0,0,1-9.374,1.885,24.575,24.575,0,0,0-1.587-4.786,17.168,17.168,0,0,0,2.033.124c4.439,0,10.267-1.19,10.267-5.679,0-2.207-1.463-4.092-4.836-4.092a19.557,19.557,0,0,0-6.448,1.364c-.4.149-2.628.918-5.58,2.207Zm18.549-6.2a12.647,12.647,0,0,1,1.984,2.579,19.031,19.031,0,0,0-2.034,1.265,17.177,17.177,0,0,0-1.835-2.53Zm3.323-.248a13.6,13.6,0,0,1,1.835,2.53c-1.24.843-1.389.918-1.835,1.265a13.88,13.88,0,0,0-1.81-2.6Z" transform="translate(-134.298 -62.698)" fill="#20992a"/>
        <path id="パス_509" data-name="パス 509" d="M304.758,108.214a.548.548,0,0,1,.248.422.318.318,0,0,1-.347.322,1.571,1.571,0,0,1-.521-.1c-1.14,1.016-8.481,7.043-8.729,7.266-.2.149-.446.372-.446.571,0,.248.1.3.893.793.4.248,6.447,4.389,9.5,7.961a26.932,26.932,0,0,0-3.5,3.6,55.129,55.129,0,0,0-10.738-9.622c-1.612-1.116-2.107-1.513-2.107-2.5,0-.918.347-1.29,3.124-3.546,1.19-.942,6.423-5.332,8.63-8.233Z" transform="translate(-173.264 -63.032)" fill="#20992a"/>
        <path id="パス_510" data-name="パス 510" d="M346.335,107.852c.322.074.545.149.545.422,0,.248-.3.421-.5.521a18.612,18.612,0,0,0-1.116,6.944,9.845,9.845,0,0,0,.124,1.661c.149-.273.893-1.86,1.339-2.8a14.188,14.188,0,0,0,2.479,2.034,17.541,17.541,0,0,0-2.7,6.274l-4.017.323a26.217,26.217,0,0,1-1.413-8.754,29.193,29.193,0,0,1,.744-6.423c.124-.645.149-.819.2-1.166Zm11.209-.843c.248,0,.545.025.545.347,0,.248-.149.372-.4.521.273,2.827.446,5.679.446,8.506,0,2.876,0,9.026-7.836,13.416a16.36,16.36,0,0,0-3.571-3.2c6.819-3.026,6.819-8.208,6.819-10.911a43.828,43.828,0,0,0-.967-8.878Z" transform="translate(-204.479 -64.033)" fill="#20992a"/>
        <path id="パス_511" data-name="パス 511" d="M235.372,169.75a6.254,6.254,0,0,0,.868-.075l1.459,1.182a2.339,2.339,0,0,0-.415.667c-1.258,3.069-1.521,3.685-2.44,4.917a13.293,13.293,0,0,1-4.653,3.748,7.6,7.6,0,0,0-1.56-1.534c2.855-1.371,4.792-2.654,6.364-7.043h-7.647V169.75Z" transform="translate(-136.297 -101.721)" fill="#20992a"/>
        <path id="パス_512" data-name="パス 512" d="M262.317,181.684h3.421v1.7h-8.577v-1.7h3.32v-4h-2.4v-1.761H264.8v1.761h-2.478Z" transform="translate(-154.17 -105.468)" fill="#20992a"/>
        <path id="パス_513" data-name="パス 513" d="M293.339,170.007a2.067,2.067,0,0,0,.7-.113l1.4,1.283c-.126.176-.163.239-.453.654a28.663,28.663,0,0,1-3.383,4.15,6.3,6.3,0,0,0-1.447-1.383,13.477,13.477,0,0,0,2.352-2.692h-8.414v-1.9ZM290.3,172.4c.088,0,.226.013.226.151s-.163.189-.226.214a12.358,12.358,0,0,1-.654,3.76,7.878,7.878,0,0,1-3.157,3.723,10.462,10.462,0,0,0-1.76-1.333c1.76-1.006,3.66-2.377,3.433-6.641Z" transform="translate(-170.317 -101.853)" fill="#20992a"/>
        <path id="パス_514" data-name="パス 514" d="M224.294,52.1c-58.938-17.022-98.5-.109-98.5-.109l5.8,13.978s35.7-14.8,86.927,0Z" transform="translate(-75.416 -26.68)" fill="#fff"/>
        <path id="パス_515" data-name="パス 515" d="M125.888,52.314s40.432-16.759,98.462,0" transform="translate(-75.471 -26.897)" fill="none" stroke="#20992a" stroke-width="1.405"/>
        <path id="パス_516" data-name="パス 516" d="M140.289,88.25s35.7-14.8,86.927,0" transform="translate(-84.104 -48.964)" fill="none" stroke="#20992a" stroke-width="1.405"/>
        <path id="パス_517" data-name="パス 517" d="M141.786,93.042s35.2-14.592,85.728,0" transform="translate(-85.002 -51.891)" fill="none" stroke="#20992a" stroke-width="1.405"/>
        <path id="パス_518" data-name="パス 518" d="M148.713,67.51l-.2-.936,3.347-.73-.322-1.476,1.045-.159c.089-.012.153,0,.164.048.014.066-.058.12-.117.164l.261,1.2,1.594-.348.2.936-1.594.348.68,3.113c.158.723-.159,1.061-1.463,1.33a2.885,2.885,0,0,0-.6-.973,3.3,3.3,0,0,0,.646-.057c.38-.083.346-.236.26-.631l-.354-1.622a7.94,7.94,0,0,1-2.3,2.984,2.882,2.882,0,0,0-.839-.652,6.749,6.749,0,0,0,2.471-3.165Z" transform="translate(-89.032 -38.491)" fill="#20992a"/>
        <path id="パス_519" data-name="パス 519" d="M172.252,61.807a8.234,8.234,0,0,1,2.134.972,6.877,6.877,0,0,0-.481.953,7.5,7.5,0,0,0-2.139-.957Zm.278,5.279a8.852,8.852,0,0,0,4.932-4.873,4.461,4.461,0,0,0,.777.766,10.182,10.182,0,0,1-4.729,4.917c0,.076,0,.167-.1.182-.052.008-.105-.044-.153-.1Z" transform="translate(-102.975 -37.054)" fill="#20992a"/>
        <path id="パス_520" data-name="パス 520" d="M200.1,59.486a2.207,2.207,0,0,0,.626-.128l.668.379c-.1.25-.531,1.358-.63,1.578a5.815,5.815,0,0,1-3.055,3.155,4.129,4.129,0,0,0-.771-.752,4.782,4.782,0,0,0,3.049-3.29l-4.675.449-.089-.923Zm.182-1.783.087.908-4.3.413-.087-.908Z" transform="translate(-117.036 -34.593)" fill="#20992a"/>
        <path id="パス_521" data-name="パス 521" d="M222.007,62.1l-1.076.044-.145-3.55a13.134,13.134,0,0,1-2.24,1.237,3.336,3.336,0,0,0-.8-.865,10.443,10.443,0,0,0,5.044-3.7l.925.651c.046.036.07.064.071.1,0,.067-.07.1-.131.1a.415.415,0,0,1-.135-.017,12.114,12.114,0,0,1-1.69,1.7Z" transform="translate(-130.541 -33.129)" fill="#20992a"/>
        <path id="パス_522" data-name="パス 522" d="M242.748,55.957a8.236,8.236,0,0,1,1.945,1.309,6.917,6.917,0,0,0-.63.86,7.516,7.516,0,0,0-1.953-1.294Zm-.591,5.252a8.852,8.852,0,0,0,5.664-4,4.431,4.431,0,0,0,.641.883,10.181,10.181,0,0,1-5.47,4.074c-.016.075-.024.164-.129.163-.052,0-.1-.061-.133-.129Z" transform="translate(-145.147 -33.547)" fill="#20992a"/>
        <path id="パス_523" data-name="パス 523" d="M271.586,58.17c-1.867-.124-3.62,1.3-3.7,2.67-.054.874.522,1.479,2.1,1.7a5.565,5.565,0,0,0-.541,1.1c-1.119-.324-2.669-1.073-2.564-2.768a3.366,3.366,0,0,1,1.732-2.531,32.3,32.3,0,0,0-3.435.259l-.067-1.211a4.432,4.432,0,0,0,.484.052,29.342,29.342,0,0,0,5.869-.347Zm-1.322,1.125c.1.126.443.582.6.847a5.522,5.522,0,0,0-.527.4,6.667,6.667,0,0,0-.584-.869Zm.751-.508a5.228,5.228,0,0,1,.63.834,3.75,3.75,0,0,0-.511.4,6.009,6.009,0,0,0-.6-.885Z" transform="translate(-158.932 -34.226)" fill="#20992a"/>
        <path id="パス_524" data-name="パス 524" d="M289.36,60.04l.093-.832,1.9.214.167-1.486.886.153c.052.006.147.032.137.121,0,.044-.054.076-.165.132l-.133,1.181,1.969.222-.093.832-1.687-.19a9.936,9.936,0,0,0,1.68,2.785,3.544,3.544,0,0,0-.71.627,8.732,8.732,0,0,1-1.344-2.634l-.19,1.687.862.1-.095.84-.862-.1-.131,1.167-.892-.1.132-1.167-.847-.1.095-.84.847.1.18-1.6a8.754,8.754,0,0,1-1.934,2.138,2.462,2.462,0,0,0-.523-.563l-.2,1.769-.906-.1.4-3.552a4.671,4.671,0,0,1-.482.473,2.092,2.092,0,0,0-.573-.727,8.353,8.353,0,0,0,2.109-2.953l.858.4a.161.161,0,0,1,.1.147c-.012.111-.183.092-.22.081-.045.062-.083.134-.413.721-.1.178-.2.346-.331.535.135.076.183.111.177.163-.008.074-.039.078-.194.121l-.312,2.764a9.354,9.354,0,0,0,2.31-2.336Z" transform="translate(-172.024 -34.553)" fill="#20992a"/>
        <path id="パス_525" data-name="パス 525" d="M310.5,65.145c.058.017.147.032.136.1s-.095.068-.127.078a8.817,8.817,0,0,1-.331,1.424,4.346,4.346,0,0,0-.565-.161,7.135,7.135,0,0,0,.413-1.554Zm2.716-2.808-.052.318a3.527,3.527,0,0,0,1.921-1.415l.715.26c.079.028.125.074.116.125s-.081.078-.173.085A3.916,3.916,0,0,0,317.3,63.2a2.19,2.19,0,0,0-.62.642,3.349,3.349,0,0,1-.329-.258l-.066.406-.813-.133-.054.332,1.381.225-.308,1.89-1.24-.2a3.615,3.615,0,0,0,1.274,1.617,2.471,2.471,0,0,0-.638.616,4.256,4.256,0,0,1-1.213-1.668,3.878,3.878,0,0,1-1.9,1.229,2.5,2.5,0,0,0-.451-.771,2.536,2.536,0,0,0,1.855-1.2l-1.159-.189.308-1.89,1.292.211.054-.332-.864-.141.05-.3c-.149.074-.247.119-.368.167a2.219,2.219,0,0,0-.359-.589l-.016.1-.664-.109-.069.421.664.108-.1.628-.665-.108-.073.45.886.145a6.511,6.511,0,0,1-1,2.815c-.264.275-.562.242-1.121.189a3.821,3.821,0,0,0-.174-.839c.116.034.332.1.443.118.192.031.45.073.742-.788a1.471,1.471,0,0,0-.265.048,4.682,4.682,0,0,0-.043-.856l.356-.04c.019.162.045.371.051.524a4.777,4.777,0,0,0,.143-.644l-1.277-.208-.032.2-.739-.121.667-4.09,2.849.465-.116.709-.96-.157-.067.414Zm-2.159,2.831a11.79,11.79,0,0,1-.1,1.242c-.077.01-.37.038-.465.06a8.707,8.707,0,0,0,.162-1.315Zm.463-.933.073-.45-.465-.076-.073.45Zm-.008.931a5.033,5.033,0,0,1,.04.962,1.191,1.191,0,0,0-.361.032,4.532,4.532,0,0,0-.015-.98Zm.183-2.008.069-.421-.465-.076-.069.421Zm.17-1.041.068-.413-.465-.076-.068.413Zm2.55,3.137a.343.343,0,0,0,.022-.087l.071-.436-.531-.087-.085.524Zm1.573-2.024a5.155,5.155,0,0,1-.759-.965,5.357,5.357,0,0,1-.857.7Zm-.683,1.632-.086.524.591.1.086-.524Z" transform="translate(-185.616 -36.449)" fill="#20992a"/>
        <path id="パス_526" data-name="パス 526" d="M340.131,71.29l-.242,1.149-1.113-.234.242-1.149Zm.935-4.627-.376,1.786-.674,2.113-.593-.125.227-2.208.376-1.786Z" transform="translate(-203.099 -39.834)" fill="#20992a"/>
        <path id="パス_527" data-name="パス 527" d="M153.894,136.614c8.284-1.3,10.727-7.177,10.727-11.262,0-1.145,0-7.826-7.979-8.818-.573,11.376-5.917,23.9-11.033,23.9-3.207,0-8.895-4.7-8.895-12.56,0-8.78,7.406-17.561,18.63-17.561,9.124,0,16.148,5.764,16.148,14.965,0,2.9-.458,7.788-5.764,12.942a19.188,19.188,0,0,1-7.979,4.5,47.222,47.222,0,0,0-3.856-6.108m-10.88-8.742c0,2.711,1.3,4.772,2.1,4.772,1.374,0,4.314-7.673,4.7-15.156-2.94,1.069-6.8,5.841-6.8,10.384" transform="translate(-81.962 -66.132)" fill="#20992a"/>
        <path id="パス_528" data-name="パス 528" d="M60.187,73.737a48.924,48.924,0,0,0,5.174,1.7c.2-.553.988-2.843,1.185-3.317A30.522,30.522,0,0,1,60.7,70.341L62.122,63.9a44.982,44.982,0,0,0,6.635,2.212c.829-2.093,2.014-5.1,2.409-6.28l7.227,2.488c.356.118.711.276.711.632,0,.474-.4.593-1.343.869A28.433,28.433,0,0,0,75.827,67.3c1.185.079,2.251.158,3.673.158a22.6,22.6,0,0,0,2.765-.158,34.147,34.147,0,0,0-1.7,6.517,50.266,50.266,0,0,1-7.148-.513c-.4.987-.869,2.212-1.3,3.357a62.767,62.767,0,0,0,6.833.514c.711,0,1.185-.04,1.659-.079a53.791,53.791,0,0,0-1.7,6.517,68.231,68.231,0,0,1-8.729-.751,15.064,15.064,0,0,0-.356,2.923c0,3.95,4.384,4.147,6.122,4.147,1.9,0,7.583-.237,7.583-5.293,0-1.974-1.067-3.87-2.291-5.845A44.3,44.3,0,0,0,87.6,76.5c1.264,2.014,3.041,5.1,3.041,8.847,0,7.623-7.03,10.98-14.416,10.98-11.889,0-13.152-7.267-13.152-9.953a22.549,22.549,0,0,1,.592-4.74,32.673,32.673,0,0,1-5.095-1.5Z" transform="translate(-35.112 -35.871)" fill="#20992a"/>
        <path id="パス_529" data-name="パス 529" d="M21.607,110.253h2.1v1.765H21.848a7.647,7.647,0,0,0,1.855,1.508,5.906,5.906,0,0,0-1.207,1.568,7.1,7.1,0,0,1-.889-.89v2.564H19.631v-2.519A7.738,7.738,0,0,1,18.289,116a6.539,6.539,0,0,0-1.554-1.1,11.541,11.541,0,0,0,2.187-2.881H17.188v-1.765h2.443v-.935H17.1v-1.765h1.161a7.266,7.266,0,0,0-.286-1.222l1.191-.3H17.188V104.28h2.4v-1.463l2.262.166a.2.2,0,0,1,.181.2c0,.2-.211.241-.362.286v.815H23.7v1.749H22.255l.859.181c.106.015.241.076.241.2,0,.166-.226.181-.317.181-.045.226-.121.5-.256.965h.98v1.765H21.908a.165.165,0,0,1,.03.091c0,.121-.2.166-.332.181Zm-1.78-4.223a7.816,7.816,0,0,1,.347,1.523H20.9a15.342,15.342,0,0,0,.392-1.523Zm4.238,5.912V103.27h6.3v8.672H28.755v2.745c0,.12,0,.316.272.316.392,0,.467-.316.528-1.327a7.408,7.408,0,0,0,1.689.875c-.151,1-.347,2.217-1.433,2.217H28c-.483,0-1.267-.166-1.267-1.086v-2.926a.928.928,0,0,1-.241.06,7.423,7.423,0,0,1-2.986,4.117,8.145,8.145,0,0,0-1.795-1.358,4.348,4.348,0,0,0,2.911-3.634Zm2.669.452v-.452H25.317Zm1.554-7.375H26.116v.664h2.172Zm-2.171,2.851h2.172v-.648H26.116Zm0,2.232h2.172v-.694H26.116Z" transform="translate(-10.033 -61.64)" fill="#20992a"/>
        <path id="パス_530" data-name="パス 530" d="M47.075,146.916v2.051h-5.7v4.163c0,.965-.091,2.111-3.665,2.021a4.663,4.663,0,0,0-.724-2.292c.483.03.769.06,1.055.06,1.026,0,1.026-.121,1.026-.98v-2.971H33.139v-2.051h5.927v-2.232l1.161.121a5.8,5.8,0,0,0,1.237-1.086H34.647v-2.006h9.879l1.086,1.116a16.465,16.465,0,0,1-4.238,3.876v.211Z" transform="translate(-19.867 -84.958)" fill="#20992a"/>
        <path id="パス_531" data-name="パス 531" d="M293.459,192.431a4.61,4.61,0,0,1,5.624-7.273,5.869,5.869,0,0,1,7.894-5.207,3.354,3.354,0,0,1,6.571.376c.01.071.016.143.022.213a4.609,4.609,0,0,1,7.515-.335,7.127,7.127,0,0,1,14.143-.173c.032.232.051.463.06.692a4.611,4.611,0,0,1,6.478,5.661,6.706,6.706,0,1,1-1.312,13.274,3.354,3.354,0,0,1-6.2,2.032,5.869,5.869,0,0,1-9.584,1.8,4.611,4.611,0,0,1-8.488.979,5.868,5.868,0,0,1-10.894-2.138c-.009-.064-.015-.128-.022-.192a4.61,4.61,0,0,1-8.056-4.151,3.354,3.354,0,1,1-3.749-5.56" transform="translate(-175.015 -104.238)" fill="#fff"/>
        <path id="パス_532" data-name="パス 532" d="M315.513,207.851h-2.347v-1.868h2.347Zm0,8.013h-2.347v-7.2h2.347Z" transform="translate(-187.745 -123.488)" fill="#ed6b00"/>
        <path id="パス_533" data-name="パス 533" d="M325.425,212.268l.049.835A2.739,2.739,0,0,1,327.883,212a2.414,2.414,0,0,1,2.728,2.618v4.854h-2.187v-4.252a1.336,1.336,0,0,0-1.462-1.475,1.435,1.435,0,0,0-1.487,1.512v4.215h-2.2v-7.2Z" transform="translate(-193.806 -127.094)" fill="#ed6b00"/>
        <path id="パス_534" data-name="パス 534" d="M360.543,204.8c.1,0,.209.037.209.16,0,.147-.16.221-.32.283-.024.184-.036.233-.074.455H363.2v1.61h-1.745a5.647,5.647,0,0,0,1.745,1.069,6.946,6.946,0,0,0-.873.983h1.167v1.659h-.676v3.453c0,.873-.061,1.7-2.679,1.586a3.868,3.868,0,0,0-.295-1.425H358.11v.749h-1.733v-3.932h3.871V214.2c.566.012.578-.111.578-.614v-2.569h-5.112v-1.659h1.413a6.068,6.068,0,0,0-.885-.737v.5h-1.118v2.556c.332-.135.627-.246.959-.418-.061.6-.061,1.119-.061,1.229a2.947,2.947,0,0,0,.049.676c-.86.418-2.666,1.119-3.343,1.364-.061.258-.086.356-.221.356a.218.218,0,0,1-.184-.2l-.381-1.979c.43-.1.725-.184,1.143-.32v-3.269h-.91v-1.831h.91v-2.458l2.052.111c.233.012.307.037.307.16s-.147.209-.32.283v1.9h.811v-1.6h2.384a5.611,5.611,0,0,0,.061-1.032Zm-4.3,3.552a4.2,4.2,0,0,0,1.463-1.044h-1.463Zm4.916,1.008a6.241,6.241,0,0,1-1.561-1.6,5.246,5.246,0,0,1-1.573,1.6Zm-3.048,3.933h.614v-.652h-.614Z" transform="translate(-210.991 -122.697)" fill="#ed6b00"/>
        <path id="パス_535" data-name="パス 535" d="M390.4,209.523h3.294v1.954h-1.069a11.235,11.235,0,0,1,1.6,1.966c-.16.111-1.094.787-1.143.835h1.868v1.966H383.614v-1.966h4.572v-2.8h-3.293v-1.954h3.293v-2.089h-4.1v-1.942h10.434v1.942H390.4Zm1.45,1.954H390.4v2.8h1.794a10.178,10.178,0,0,0-1.511-1.954Z" transform="translate(-229.979 -123.194)" fill="#ed6b00"/>
      </g>
    </g>
  </g>
</svg>
