<svg id="グループ_216" data-name="グループ 216" xmlns="http://www.w3.org/2000/svg" xmlns:xlink="http://www.w3.org/1999/xlink" width="549.635" height="326.812" viewBox="0 0 549.635 326.812">
  <defs>
    <clipPath id="clip-path">
      <rect id="長方形_281" data-name="長方形 281" width="549.635" height="326.812" fill="none"/>
    </clipPath>
    <clipPath id="clip-path-3">
      <rect id="長方形_278" data-name="長方形 278" width="505.091" height="299.283" fill="none"/>
    </clipPath>
  </defs>
  <g id="グループ_215" data-name="グループ 215" clip-path="url(#clip-path)">
    <g id="グループ_214" data-name="グループ 214">
      <g id="グループ_213" data-name="グループ 213" clip-path="url(#clip-path)">
        <g id="グループ_209" data-name="グループ 209" opacity="0.7">
          <g id="グループ_208" data-name="グループ 208">
            <g id="グループ_207" data-name="グループ 207" clip-path="url(#clip-path-3)">
              <path id="パス_506" data-name="パス 506" d="M491.458,165.628a41.144,41.144,0,0,0-50.2-64.914A52.382,52.382,0,0,0,370.8,54.241a29.932,29.932,0,0,0-58.65,3.354c-.088.638-.147,1.274-.194,1.907a41.135,41.135,0,0,0-67.074-2.993,63.608,63.608,0,0,0-126.227-1.543c-.284,2.072-.458,4.133-.54,6.18A41.161,41.161,0,0,0,60.3,111.675a59.857,59.857,0,1,0,11.709,118.47,29.932,29.932,0,0,0,55.363,18.133,52.384,52.384,0,0,0,85.542,16.084,41.16,41.16,0,0,0,75.764,8.736,52.37,52.37,0,0,0,97.235-19.082c.077-.571.131-1.141.19-1.71A41.149,41.149,0,0,0,458,215.255a29.93,29.93,0,1,0,33.458-49.627" transform="translate(0 0)" fill="#fff"/>
            </g>
          </g>
        </g>
        <g id="グループ_212" data-name="グループ 212" style="mix-blend-mode: multiply;isolation: isolate">
          <g id="グループ_211" data-name="グループ 211">
            <g id="グループ_210" data-name="グループ 210" clip-path="url(#clip-path-3)">
              <path id="パス_507" data-name="パス 507" d="M491.458,165.628a41.144,41.144,0,0,0-50.2-64.914A52.382,52.382,0,0,0,370.8,54.241a29.932,29.932,0,0,0-58.65,3.354c-.088.638-.147,1.274-.194,1.907a41.135,41.135,0,0,0-67.074-2.993,63.608,63.608,0,0,0-126.227-1.543c-.284,2.072-.458,4.133-.54,6.18A41.161,41.161,0,0,0,60.3,111.675a59.857,59.857,0,1,0,11.709,118.47,29.932,29.932,0,0,0,55.363,18.133,52.384,52.384,0,0,0,85.542,16.084,41.16,41.16,0,0,0,75.764,8.736,52.37,52.37,0,0,0,97.235-19.082c.077-.571.131-1.141.19-1.71A41.149,41.149,0,0,0,458,215.255a29.93,29.93,0,1,0,33.458-49.627" transform="translate(0 0)" fill="#ffec00"/>
            </g>
          </g>
        </g>
        <path id="パス_508" data-name="パス 508" d="M224.014,125.006c5.577-.785,6.677-.943,17.046-3.535,16.419-4.164,22.075-4.949,27.26-4.949,25.138,0,29.144,19.168,29.144,26.316,0,4.557-1.413,18.539-19.247,26.709-7.62,3.457-20.189,6.128-29.693,5.97a77.851,77.851,0,0,0-5.028-15.162,54.4,54.4,0,0,0,6.441.393c14.062,0,32.523-3.771,32.523-17.99,0-6.992-4.635-12.962-15.318-12.962-2.435,0-8.092.157-20.424,4.321-1.257.471-8.326,2.907-17.675,6.992Zm58.76-19.639a40.058,40.058,0,0,1,6.285,8.17,60.287,60.287,0,0,0-6.442,4.007,54.406,54.406,0,0,0-5.813-8.013Zm10.526-.785a43.062,43.062,0,0,1,5.814,8.013c-3.929,2.671-4.4,2.907-5.814,4.006a43.969,43.969,0,0,0-5.734-8.249Z" transform="translate(60.188 28.099)" fill="#20992a"/>
        <path id="パス_509" data-name="パス 509" d="M338.894,114.88a1.736,1.736,0,0,1,.785,1.336,1.009,1.009,0,0,1-1.1,1.02,4.975,4.975,0,0,1-1.651-.313c-3.612,3.22-26.866,22.31-27.652,23.016-.628.472-1.413,1.179-1.413,1.808,0,.785.315.943,2.829,2.513,1.256.785,20.423,13.9,30.085,25.218a85.314,85.314,0,0,0-11.076,11.39c-6.756-8.877-22.075-22.31-34.016-30.48-5.105-3.535-6.676-4.792-6.676-7.934,0-2.907,1.1-4.085,9.9-11.234,3.77-2.985,20.347-16.89,27.337-26.08Z" transform="translate(77.651 28.249)" fill="#20992a"/>
        <path id="パス_510" data-name="パス 510" d="M357.732,110.11c1.02.236,1.728.472,1.728,1.336,0,.785-.943,1.335-1.571,1.649-2.436,5.813-3.535,13.59-3.535,22a31.168,31.168,0,0,0,.392,5.262c.471-.864,2.828-5.892,4.242-8.877a44.944,44.944,0,0,0,7.854,6.442c-3.927,6.285-7.62,13.354-8.562,19.874l-12.726,1.023a83.05,83.05,0,0,1-4.477-27.731c0-6.992.628-11.548,2.356-20.346.393-2.043.472-2.593.628-3.693Zm35.508-2.671c.785,0,1.728.079,1.728,1.1,0,.785-.472,1.177-1.257,1.649.865,8.956,1.413,17.99,1.413,26.945,0,9.112,0,28.593-24.823,42.5A51.827,51.827,0,0,0,358.989,169.5c21.6-9.585,21.6-26,21.6-34.565,0-6.834-.943-19.56-3.064-28.124Z" transform="translate(91.64 28.698)" fill="#20992a"/>
        <path id="パス_511" data-name="パス 511" d="M252.766,169.914a19.814,19.814,0,0,0,2.749-.239l4.622,3.744a7.408,7.408,0,0,0-1.316,2.112c-3.984,9.721-4.82,11.673-7.729,15.577-3.386,4.5-7.33,7.769-14.741,11.872a24.063,24.063,0,0,0-4.94-4.86c9.044-4.343,15.18-8.406,20.159-22.311H227.348v-5.9Z" transform="translate(61.084 45.588)" fill="#20992a"/>
        <path id="パス_512" data-name="パス 512" d="M273.5,194.17h10.836v5.379h-27.17V194.17h10.517V181.5h-7.61v-5.577h21.276V181.5H273.5Z" transform="translate(69.094 47.267)" fill="#20992a"/>
        <path id="パス_513" data-name="パス 513" d="M313.377,170.253a6.548,6.548,0,0,0,2.23-.359l4.423,4.064c-.4.558-.518.757-1.435,2.072a90.8,90.8,0,0,1-10.717,13.147,19.951,19.951,0,0,0-4.582-4.382,42.689,42.689,0,0,0,7.451-8.527H284.095v-6.015Zm-9.642,7.569c.279,0,.717.041.717.478,0,.4-.518.6-.717.677a39.142,39.142,0,0,1-2.072,11.912,24.955,24.955,0,0,1-10,11.792,33.135,33.135,0,0,0-5.577-4.222c5.577-3.188,11.593-7.53,10.875-21.036Z" transform="translate(76.33 45.647)" fill="#20992a"/>
        <path id="パス_514" data-name="パス 514" d="M437.819,68.558c-186.7-53.921-312.023-.345-312.023-.345l18.386,44.279s113.076-46.871,275.367,0Z" transform="translate(33.799 11.957)" fill="#fff"/>
        <path id="パス_515" data-name="パス 515" d="M125.888,68.461s128.081-53.09,311.907,0" transform="translate(33.823 12.054)" fill="none" stroke="#20992a" stroke-width="1.405"/>
        <path id="パス_516" data-name="パス 516" d="M140.289,102.506s113.076-46.871,275.367,0" transform="translate(37.693 21.944)" fill="none" stroke="#20992a" stroke-width="1.405"/>
        <path id="パス_517" data-name="パス 517" d="M141.786,107.1s111.516-46.224,271.567,0" transform="translate(38.095 23.256)" fill="none" stroke="#20992a" stroke-width="1.405"/>
        <path id="パス_518" data-name="パス 518" d="M149.156,74.677l-.647-2.964,10.6-2.314-1.02-4.676,3.31-.5c.283-.037.483-.008.519.154.046.209-.184.381-.372.519l.827,3.8,5.048-1.1.647,2.964-5.048,1.1,2.153,9.863c.5,2.291-.5,3.359-4.634,4.213a9.136,9.136,0,0,0-1.887-3.082,10.437,10.437,0,0,0,2.048-.18c1.2-.263,1.1-.749.825-2l-1.122-5.139a25.15,25.15,0,0,1-7.3,9.452,9.129,9.129,0,0,0-2.658-2.064,21.38,21.38,0,0,0,7.829-10.028Z" transform="translate(39.901 17.25)" fill="#20992a"/>
        <path id="パス_519" data-name="パス 519" d="M173.306,61.807a26.083,26.083,0,0,1,6.76,3.08,21.784,21.784,0,0,0-1.524,3.018,23.75,23.75,0,0,0-6.776-3.031Zm.882,16.724a28.043,28.043,0,0,0,15.625-15.437,14.132,14.132,0,0,0,2.461,2.426c-1.16,2.577-4.539,9.887-14.979,15.577-.011.242.009.528-.318.577-.165.025-.334-.14-.483-.332Z" transform="translate(46.15 16.606)" fill="#20992a"/>
        <path id="パス_520" data-name="パス 520" d="M210.665,63.35a6.991,6.991,0,0,0,1.983-.4l2.115,1.2c-.327.793-1.681,4.3-1.994,5-2.347,5.293-5.185,7.708-9.676,9.995a13.082,13.082,0,0,0-2.442-2.381c3.5-1.5,7.857-3.92,9.66-10.423L195.5,67.757l-.28-2.923Zm.576-5.647.277,2.876-13.628,1.309-.277-2.876Z" transform="translate(52.452 15.504)" fill="#20992a"/>
        <path id="パス_521" data-name="パス 521" d="M231.243,76.918l-3.409.14-.459-11.246a41.608,41.608,0,0,1-7.1,3.918,10.569,10.569,0,0,0-2.531-2.742A33.082,33.082,0,0,0,233.726,55.26l2.931,2.062c.146.113.221.2.226.322.009.213-.223.318-.414.325a1.314,1.314,0,0,1-.429-.053,38.372,38.372,0,0,1-5.353,5.389Z" transform="translate(58.504 14.847)" fill="#20992a"/>
        <path id="パス_522" data-name="パス 522" d="M244.132,55.957a26.088,26.088,0,0,1,6.161,4.147,21.912,21.912,0,0,0-2,2.725,23.807,23.807,0,0,0-6.186-4.1ZM242.26,72.6A28.042,28.042,0,0,0,260.2,59.933a14.036,14.036,0,0,0,2.03,2.8c-1.567,2.351-6.1,9.006-17.329,12.906-.049.237-.077.52-.409.516-.166,0-.306-.193-.421-.407Z" transform="translate(65.05 15.034)" fill="#20992a"/>
        <path id="パス_523" data-name="パス 523" d="M285.635,60.512c-5.913-.392-11.466,4.131-11.735,8.46-.173,2.768,1.654,4.687,6.647,5.378a17.627,17.627,0,0,0-1.713,3.479c-3.545-1.028-8.456-3.4-8.122-8.769.2-3.17,2.164-5.779,5.486-8.018a102.309,102.309,0,0,0-10.88.82l-.212-3.836a14.047,14.047,0,0,0,1.533.166c1.61.1,11.5.311,18.591-1.1Zm-4.188,3.562c.307.4,1.4,1.845,1.9,2.683a17.478,17.478,0,0,0-1.67,1.274,21.125,21.125,0,0,0-1.848-2.752Zm2.38-1.609a16.559,16.559,0,0,1,2,2.641,11.88,11.88,0,0,0-1.62,1.252,19.031,19.031,0,0,0-1.916-2.8Z" transform="translate(71.228 15.339)" fill="#20992a"/>
        <path id="パス_524" data-name="パス 524" d="M294.6,65.255l.3-2.636,6.026.679.53-4.708,2.806.483c.165.019.466.1.434.383-.015.141-.17.242-.523.417l-.422,3.743,6.238.7-.3,2.636-5.344-.6a31.474,31.474,0,0,0,5.322,8.824,11.227,11.227,0,0,0-2.249,1.987,27.661,27.661,0,0,1-4.258-8.345l-.6,5.344,2.731.307-.3,2.66-2.73-.308-.416,3.7-2.825-.318.417-3.7-2.685-.3.3-2.66,2.683.3.571-5.062a27.73,27.73,0,0,1-6.128,6.772,7.8,7.8,0,0,0-1.658-1.785l-.632,5.6-2.871-.322L290.286,67.8a14.784,14.784,0,0,1-1.527,1.5,6.625,6.625,0,0,0-1.815-2.3,26.461,26.461,0,0,0,6.68-9.355l2.719,1.26a.51.51,0,0,1,.33.467c-.039.353-.581.292-.7.255-.142.2-.263.424-1.307,2.284-.3.563-.648,1.1-1.048,1.694.426.24.58.353.561.518-.027.235-.124.247-.615.383l-.987,8.756a29.63,29.63,0,0,0,7.319-7.4Z" transform="translate(77.095 15.485)" fill="#20992a"/>
        <path id="パス_525" data-name="パス 525" d="M312.423,74.568c.184.055.464.1.43.311-.032.186-.3.214-.4.246a27.938,27.938,0,0,1-1.048,4.511,13.767,13.767,0,0,0-1.789-.509,22.6,22.6,0,0,0,1.307-4.924Zm8.6-8.9-.164,1.006a11.174,11.174,0,0,0,6.085-4.481l2.266.825c.25.09.395.233.368.4s-.256.246-.548.27c.549,1.338,2.508,3.314,4.921,4.716a6.936,6.936,0,0,0-1.964,2.032,10.611,10.611,0,0,1-1.043-.818l-.209,1.286-2.574-.42-.171,1.053,4.373.713-.977,5.987-3.928-.641a11.452,11.452,0,0,0,4.037,5.123,7.827,7.827,0,0,0-2.022,1.951,13.483,13.483,0,0,1-3.843-5.284,12.285,12.285,0,0,1-6.012,3.892,7.916,7.916,0,0,0-1.427-2.441,8.034,8.034,0,0,0,5.878-3.795l-3.673-.6.977-5.987,4.091.667.173-1.053-2.737-.445.157-.959c-.471.236-.782.377-1.167.53a7.023,7.023,0,0,0-1.137-1.866l-.049.3-2.1-.344-.217,1.333,2.1.343-.322,1.988-2.106-.343-.232,1.426,2.806.458c-.49,2.56-1.369,7.074-3.16,8.919-.837.872-1.78.766-3.552.6a12.1,12.1,0,0,0-.552-2.659c.367.108,1.053.316,1.4.373.608.1,1.426.232,2.351-2.5a4.662,4.662,0,0,0-.84.151,14.833,14.833,0,0,0-.136-2.711l1.127-.128c.06.514.143,1.176.161,1.659a15.15,15.15,0,0,0,.453-2.04l-4.046-.66-.1.632-2.339-.382L313.516,60.8l9.027,1.473-.367,2.246-3.04-.5-.213,1.311Zm-6.838,8.968a37.362,37.362,0,0,1-.307,3.935c-.245.032-1.171.121-1.472.192a27.581,27.581,0,0,0,.513-4.166Zm1.465-2.955.232-1.426-1.474-.24-.231,1.426Zm-.025,2.95a15.946,15.946,0,0,1,.128,3.046,3.774,3.774,0,0,0-1.144.1,14.351,14.351,0,0,0-.047-3.106Zm.581-6.362.218-1.333-1.473-.241-.218,1.333Zm.538-3.3.214-1.309-1.473-.24-.214,1.309Zm8.079,9.936a1.089,1.089,0,0,0,.07-.277l.225-1.38-1.684-.274-.27,1.661ZM329.81,68.5A16.339,16.339,0,0,1,327.4,65.44a16.962,16.962,0,0,1-2.716,2.223Zm-2.163,5.169-.271,1.661,1.871.3.272-1.659Z" transform="translate(83.187 16.335)" fill="#20992a"/>
        <path id="パス_526" data-name="パス 526" d="M343.068,81.8l-.765,3.641-3.526-.742.766-3.641Zm2.962-14.658-1.19,5.658L342.7,79.49l-1.879-.395.721-6.993,1.19-5.658Z" transform="translate(91.022 17.852)" fill="#20992a"/>
        <path id="パス_527" data-name="パス 527" d="M191.135,193.634c26.243-4.113,33.982-22.736,33.982-35.677,0-3.627,0-24.791-25.275-27.935-1.814,36.038-18.745,75.7-34.95,75.7-10.158,0-28.177-14.875-28.177-39.787,0-27.815,23.46-55.629,59.015-55.629,28.9,0,51.153,18.26,51.153,47.405,0,9.19-1.45,24.669-18.26,41-8.949,8.829-18.986,12.214-25.275,14.27a149.594,149.594,0,0,0-12.214-19.349M156.669,165.94c0,8.586,4.112,15.116,6.652,15.116,4.353,0,13.665-24.308,14.874-48.011-9.312,3.386-21.526,18.5-21.526,32.894" transform="translate(36.732 29.638)" fill="#20992a"/>
        <path id="パス_528" data-name="パス 528" d="M63.7,103.875a154.981,154.981,0,0,0,16.389,5.379c.627-1.751,3.129-9.008,3.754-10.508-10.634-2.378-15.263-4.254-18.516-5.63l4.5-20.394a142.5,142.5,0,0,0,21.019,7.007c2.627-6.631,6.38-16.14,7.632-19.893l22.895,7.882c1.127.374,2.253.874,2.253,2,0,1.5-1.252,1.878-4.254,2.753-1.252,1.876-2.253,3.378-6.132,11.01,3.754.251,7.131.5,11.636.5a71.578,71.578,0,0,0,8.758-.5c-2.126,5.131-4.379,14.262-5.38,20.644a159.235,159.235,0,0,1-22.645-1.626c-1.252,3.127-2.753,7.006-4.13,10.634a198.827,198.827,0,0,0,21.645,1.628c2.252,0,3.754-.126,5.255-.251A170.392,170.392,0,0,0,123,135.153a216.136,216.136,0,0,1-27.651-2.378,47.718,47.718,0,0,0-1.127,9.259c0,12.512,13.888,13.137,19.393,13.137,6.006,0,24.022-.751,24.022-16.766,0-6.255-3.378-12.261-7.257-18.516a140.329,140.329,0,0,0,20.143-7.257c4,6.381,9.634,16.14,9.634,28.025,0,24.147-22.27,34.782-45.666,34.782-37.661,0-41.663-23.02-41.663-31.528A71.432,71.432,0,0,1,74.707,128.9c-10.009-2.376-12.886-3.5-16.139-4.754Z" transform="translate(15.736 16.076)" fill="#20992a"/>
        <path id="パス_529" data-name="パス 529" d="M32.167,126.371h6.64v5.59H32.931a24.223,24.223,0,0,0,5.877,4.778,18.709,18.709,0,0,0-3.823,4.968,22.49,22.49,0,0,1-2.818-2.818v8.121h-6.26v-7.979c-2.436,3.823-3.391,4.73-4.251,5.543a20.713,20.713,0,0,0-4.921-3.488,36.559,36.559,0,0,0,6.927-9.126H18.169v-5.59h7.739v-2.962H17.881v-5.59H21.56a23.018,23.018,0,0,0-.907-3.871l3.774-.955H18.169v-5.542h7.6v-4.634l7.167.525a.626.626,0,0,1,.573.622c0,.622-.669.764-1.147.907v2.58h6.45v5.542H34.221l2.723.573c.335.048.765.24.765.622,0,.525-.717.573-1,.573-.143.716-.382,1.576-.812,3.058H39v5.59H33.123a.521.521,0,0,1,.1.287c0,.382-.62.525-1.05.573Zm-5.638-13.378a24.758,24.758,0,0,1,1.1,4.826h2.294a48.6,48.6,0,0,0,1.242-4.826Zm13.425,18.73V104.251h19.97v27.472H54.813v8.7c0,.381,0,1,.86,1,1.242,0,1.481-1,1.672-4.2a23.469,23.469,0,0,0,5.351,2.771c-.478,3.154-1.1,7.023-4.539,7.023H52.424c-1.529,0-4.014-.525-4.014-3.439V134.3a2.938,2.938,0,0,1-.764.192c-.287.955-2.771,9.221-9.461,13.043a25.8,25.8,0,0,0-5.685-4.3c6.068-1.862,8.409-7.119,9.221-11.513Zm8.456,1.432v-1.432H43.92Zm4.921-23.363h-6.88v2.1h6.88Zm-6.879,9.03h6.88v-2.054h-6.88Zm0,7.07h6.88v-2.2h-6.88Z" transform="translate(4.496 27.625)" fill="#20992a"/>
        <path id="パス_530" data-name="パス 530" d="M77.284,158.2v6.5H59.224V177.88c0,3.058-.287,6.688-11.61,6.4-.525-4.491-1.577-6.163-2.292-7.262,1.529.1,2.436.19,3.343.19,3.249,0,3.249-.382,3.249-3.1v-9.412H33.139v-6.5H51.914v-7.07l3.679.382a18.375,18.375,0,0,0,3.918-3.439h-21.6v-6.355H69.21l3.439,3.535a52.159,52.159,0,0,1-13.425,12.28v.669Z" transform="translate(8.904 38.075)" fill="#20992a"/>
        <path id="パス_531" data-name="パス 531" d="M296.77,232.658a14.6,14.6,0,0,1,17.816-23.039,18.591,18.591,0,0,1,25.007-16.494,10.623,10.623,0,0,1,20.816,1.19c.03.226.052.452.068.676a14.6,14.6,0,0,1,23.806-1.062,22.577,22.577,0,0,1,44.8-.547c.1.735.162,1.467.192,2.192A14.608,14.608,0,0,1,449.8,213.509a21.245,21.245,0,1,1-4.155,42.048,10.624,10.624,0,0,1-19.651,6.436,18.592,18.592,0,0,1-30.361,5.709,14.608,14.608,0,0,1-26.89,3.1,18.587,18.587,0,0,1-34.511-6.772c-.028-.2-.047-.406-.069-.608a14.6,14.6,0,0,1-25.518-13.15,10.623,10.623,0,1,1-11.875-17.614" transform="translate(78.436 46.716)" fill="#fff"/>
        <path id="パス_532" data-name="パス 532" d="M320.6,211.9h-7.436v-5.917H320.6Zm0,25.382h-7.436V214.469H320.6Z" transform="translate(84.141 55.343)" fill="#ed6b00"/>
        <path id="パス_533" data-name="パス 533" d="M330.087,212.854l.156,2.646c1.129-1.363,2.921-3.5,7.631-3.5,5.8,0,8.641,3.192,8.641,8.292v15.378h-6.93V222.2c0-3-1.711-4.671-4.632-4.671a4.546,4.546,0,0,0-4.711,4.789v13.353h-6.968V212.854Z" transform="translate(86.857 56.959)" fill="#ed6b00"/>
        <path id="パス_534" data-name="パス 534" d="M379.192,205.092c.311,0,.661.117.661.506,0,.467-.506.7-1.012.9-.077.584-.115.74-.233,1.44H387.6v5.1h-5.529a17.89,17.89,0,0,0,5.529,3.386,21.993,21.993,0,0,0-2.764,3.115h3.7v5.256h-2.142v10.939c0,2.764-.194,5.374-8.486,5.023a12.255,12.255,0,0,0-.934-4.515h-5.49v2.374h-5.49V226.153h12.263v8.721c1.791.038,1.829-.351,1.829-1.946v-8.137H363.892v-5.256h4.476a19.222,19.222,0,0,0-2.8-2.336v1.6h-3.542v8.1c1.052-.429,1.986-.779,3.037-1.324-.194,1.908-.194,3.543-.194,3.894a9.336,9.336,0,0,0,.155,2.142c-2.725,1.324-8.447,3.543-10.59,4.321-.194.817-.273,1.128-.7,1.128a.691.691,0,0,1-.584-.622l-1.208-6.269c1.363-.311,2.3-.584,3.622-1.012V218.795H352.68v-5.8h2.882v-7.786l6.5.35c.74.039.973.117.973.506,0,.429-.467.662-1.012.9v6.034h2.57v-5.061h7.551a17.777,17.777,0,0,0,.194-3.271Zm-13.627,11.251a13.313,13.313,0,0,0,4.633-3.309h-4.633Zm15.573,3.192a19.766,19.766,0,0,1-4.945-5.061,16.62,16.62,0,0,1-4.982,5.061Zm-9.655,12.458h1.946v-2.064h-1.946Z" transform="translate(94.559 54.989)" fill="#ed6b00"/>
        <path id="パス_535" data-name="パス 535" d="M405.1,218.261h10.434v6.19H412.15a35.591,35.591,0,0,1,5.061,6.229c-.506.351-3.465,2.492-3.621,2.646h5.917v6.229H383.614v-6.229H398.1v-8.876H387.664v-6.19H398.1v-6.619h-13v-6.151h33.052v6.151H405.1Zm4.594,6.19H405.1v8.876h5.684a32.243,32.243,0,0,0-4.788-6.19Z" transform="translate(103.069 55.211)" fill="#ed6b00"/>
      </g>
    </g>
  </g>
</svg>
