<svg id="グループ_226" data-name="グループ 226" xmlns="http://www.w3.org/2000/svg" xmlns:xlink="http://www.w3.org/1999/xlink" width="228.229" height="135.705" viewBox="0 0 228.229 135.705">
  <defs>
    <clipPath id="clip-path">
      <rect id="長方形_281" data-name="長方形 281" width="228.229" height="135.705" fill="none"/>
    </clipPath>
    <clipPath id="clip-path-3">
      <rect id="長方形_278" data-name="長方形 278" width="209.733" height="124.274" fill="none"/>
    </clipPath>
  </defs>
  <g id="グループ_215" data-name="グループ 215" clip-path="url(#clip-path)">
    <g id="グループ_214" data-name="グループ 214">
      <g id="グループ_213" data-name="グループ 213" clip-path="url(#clip-path)">
        <g id="グループ_209" data-name="グループ 209" opacity="0.7">
          <g id="グループ_208" data-name="グループ 208">
            <g id="グループ_207" data-name="グループ 207" clip-path="url(#clip-path-3)">
              <path id="パス_506" data-name="パス 506" d="M204.073,68.776a17.085,17.085,0,0,0-20.844-26.955,21.751,21.751,0,0,0-29.257-19.3,12.429,12.429,0,0,0-24.354,1.393c-.036.265-.061.529-.081.792a17.081,17.081,0,0,0-27.852-1.243,26.413,26.413,0,0,0-52.414-.641c-.118.86-.19,1.716-.224,2.566A17.091,17.091,0,0,0,25.039,46.372,24.855,24.855,0,1,0,29.9,95.566a12.429,12.429,0,0,0,22.989,7.53,21.752,21.752,0,0,0,35.52,6.679,17.091,17.091,0,0,0,31.46,3.628,21.746,21.746,0,0,0,40.376-7.924c.032-.237.054-.474.079-.71A17.087,17.087,0,0,0,190.18,89.383a12.428,12.428,0,1,0,13.893-20.607" transform="translate(0 0)" fill="#fff"/>
            </g>
          </g>
        </g>
        <g id="グループ_212" data-name="グループ 212" style="mix-blend-mode: multiply;isolation: isolate">
          <g id="グループ_211" data-name="グループ 211">
            <g id="グループ_210" data-name="グループ 210" clip-path="url(#clip-path-3)">
              <path id="パス_507" data-name="パス 507" d="M204.073,68.776a17.085,17.085,0,0,0-20.844-26.955,21.751,21.751,0,0,0-29.257-19.3,12.429,12.429,0,0,0-24.354,1.393c-.036.265-.061.529-.081.792a17.081,17.081,0,0,0-27.852-1.243,26.413,26.413,0,0,0-52.414-.641c-.118.86-.19,1.716-.224,2.566A17.091,17.091,0,0,0,25.039,46.372,24.855,24.855,0,1,0,29.9,95.566a12.429,12.429,0,0,0,22.989,7.53,21.752,21.752,0,0,0,35.52,6.679,17.091,17.091,0,0,0,31.46,3.628,21.746,21.746,0,0,0,40.376-7.924c.032-.237.054-.474.079-.71A17.087,17.087,0,0,0,190.18,89.383a12.428,12.428,0,1,0,13.893-20.607" transform="translate(0 0)" fill="#ffec00"/>
            </g>
          </g>
        </g>
        <path id="パス_508" data-name="パス 508" d="M224.014,113.063a50.257,50.257,0,0,0,7.078-1.468c6.818-1.729,9.166-2.055,11.319-2.055,10.438,0,12.1,7.959,12.1,10.927,0,1.892-.587,7.7-7.992,11.091a32.71,32.71,0,0,1-12.33,2.479,32.327,32.327,0,0,0-2.088-6.3,22.588,22.588,0,0,0,2.675.163c5.839,0,13.5-1.566,13.5-7.47,0-2.9-1.924-5.382-6.361-5.382-1.011,0-3.36.065-8.481,1.794-.522.2-3.457,1.207-7.339,2.9Zm24.4-8.155a16.634,16.634,0,0,1,2.61,3.393,25.032,25.032,0,0,0-2.675,1.664,22.594,22.594,0,0,0-2.414-3.327Zm4.371-.326a17.88,17.88,0,0,1,2.414,3.327c-1.632,1.109-1.827,1.207-2.414,1.664a18.258,18.258,0,0,0-2.381-3.425Z" transform="translate(-106.002 -49.488)" fill="#20992a"/>
        <path id="パス_509" data-name="パス 509" d="M309.724,109.184a.721.721,0,0,1,.326.555.419.419,0,0,1-.457.424,2.066,2.066,0,0,1-.685-.13c-1.5,1.337-11.156,9.264-11.482,9.557-.261.2-.587.489-.587.751,0,.326.131.391,1.175,1.044.522.326,8.48,5.774,12.493,10.471a35.427,35.427,0,0,0-4.6,4.73c-2.805-3.686-9.166-9.264-14.125-12.656-2.12-1.468-2.772-1.99-2.772-3.295,0-1.207.456-1.7,4.11-4.665,1.566-1.24,8.449-7.013,11.352-10.83Z" transform="translate(-136.759 -49.751)" fill="#20992a"/>
        <path id="パス_510" data-name="パス 510" d="M347.993,108.18c.424.1.717.2.717.555,0,.326-.391.554-.652.685a24.482,24.482,0,0,0-1.468,9.134,12.94,12.94,0,0,0,.163,2.185c.2-.359,1.174-2.446,1.762-3.686a18.663,18.663,0,0,0,3.261,2.675c-1.63,2.61-3.164,5.545-3.555,8.252l-5.284.425a34.485,34.485,0,0,1-1.859-11.515,38.4,38.4,0,0,1,.978-8.448c.163-.848.2-1.077.261-1.534Zm14.744-1.109c.326,0,.718.033.718.457,0,.326-.2.489-.522.685.359,3.719.587,7.47.587,11.189,0,3.784,0,11.873-10.307,17.647a21.521,21.521,0,0,0-4.7-4.208c8.97-3.98,8.97-10.8,8.97-14.353a57.65,57.65,0,0,0-1.272-11.678Z" transform="translate(-161.397 -50.542)" fill="#20992a"/>
        <path id="パス_511" data-name="パス 511" d="M237.9,169.774a8.226,8.226,0,0,0,1.142-.1l1.919,1.555a3.076,3.076,0,0,0-.546.877c-1.654,4.036-2,4.847-3.209,6.468a17.486,17.486,0,0,1-6.121,4.93,9.992,9.992,0,0,0-2.051-2.018c3.756-1.8,6.3-3.491,8.371-9.264H227.348v-2.448Z" transform="translate(-107.58 -80.289)" fill="#20992a"/>
        <path id="パス_512" data-name="パス 512" d="M263.943,183.5h4.5v2.234H257.161V183.5h4.367V178.24h-3.16v-2.316H267.2v2.316h-3.259Z" transform="translate(-121.687 -83.246)" fill="#20992a"/>
        <path id="パス_513" data-name="パス 513" d="M296.254,170.043a2.719,2.719,0,0,0,.926-.149l1.836,1.687c-.166.232-.215.314-.6.86a37.7,37.7,0,0,1-4.45,5.459,8.285,8.285,0,0,0-1.9-1.82,17.724,17.724,0,0,0,3.094-3.541H284.095v-2.5Zm-4,3.143c.116,0,.3.017.3.2,0,.165-.215.248-.3.281a16.254,16.254,0,0,1-.86,4.946,10.362,10.362,0,0,1-4.152,4.9,13.759,13.759,0,0,0-2.316-1.753c2.316-1.324,4.814-3.127,4.516-8.735Z" transform="translate(-134.433 -80.393)" fill="#20992a"/>
        <path id="パス_514" data-name="パス 514" d="M255.36,54.492C177.834,32.1,125.8,54.349,125.8,54.349l7.634,18.387s46.954-19.463,114.343,0Z" transform="translate(-59.526 -21.059)" fill="#fff"/>
        <path id="パス_515" data-name="パス 515" d="M125.888,54.663s53.184-22.045,129.516,0" transform="translate(-59.57 -21.23)" fill="none" stroke="#20992a" stroke-width="1.405"/>
        <path id="パス_516" data-name="パス 516" d="M140.289,90.324s46.954-19.463,114.343,0" transform="translate(-66.384 -38.648)" fill="none" stroke="#20992a" stroke-width="1.405"/>
        <path id="パス_517" data-name="パス 517" d="M141.786,95.087s46.306-19.194,112.765,0" transform="translate(-67.093 -40.958)" fill="none" stroke="#20992a" stroke-width="1.405"/>
        <path id="パス_518" data-name="パス 518" d="M148.778,68.553l-.269-1.231,4.4-.961-.424-1.942,1.374-.21c.117-.015.2,0,.215.064.019.087-.076.158-.154.215l.343,1.577,2.1-.458.269,1.231-2.1.458.894,4.1c.208.951-.209,1.395-1.924,1.75a3.794,3.794,0,0,0-.783-1.28,4.334,4.334,0,0,0,.85-.075c.5-.109.456-.311.342-.83l-.466-2.134a10.443,10.443,0,0,1-3.031,3.925,3.791,3.791,0,0,0-1.1-.857,8.878,8.878,0,0,0,3.251-4.164Z" transform="translate(-70.274 -30.381)" fill="#20992a"/>
        <path id="パス_519" data-name="パス 519" d="M172.406,61.807a10.831,10.831,0,0,1,2.807,1.279,9.045,9.045,0,0,0-.633,1.253,9.862,9.862,0,0,0-2.814-1.259Zm.366,6.944a11.644,11.644,0,0,0,6.488-6.41,5.869,5.869,0,0,0,1.022,1.007,13.393,13.393,0,0,1-6.22,6.468c0,.1,0,.219-.132.24-.068.011-.139-.058-.2-.138Z" transform="translate(-81.279 -29.247)" fill="#20992a"/>
        <path id="パス_520" data-name="パス 520" d="M201.634,60.048a2.9,2.9,0,0,0,.823-.168l.878.5c-.136.329-.7,1.786-.828,2.076a7.649,7.649,0,0,1-4.018,4.15,5.431,5.431,0,0,0-1.014-.989,6.291,6.291,0,0,0,4.011-4.328l-6.149.591-.116-1.214Zm.239-2.345.115,1.194-5.659.544-.115-1.194Z" transform="translate(-92.378 -27.305)" fill="#20992a"/>
        <path id="パス_521" data-name="パス 521" d="M223.351,64.253l-1.416.058-.191-4.67a17.278,17.278,0,0,1-2.947,1.627,4.389,4.389,0,0,0-1.051-1.138,13.737,13.737,0,0,0,6.635-4.87l1.217.856c.061.047.092.085.094.134,0,.089-.093.132-.172.135a.546.546,0,0,1-.178-.022A15.934,15.934,0,0,1,223.12,58.6Z" transform="translate(-103.037 -26.149)" fill="#20992a"/>
        <path id="パス_522" data-name="パス 522" d="M242.95,55.957a10.832,10.832,0,0,1,2.558,1.722,9.1,9.1,0,0,0-.829,1.132,9.886,9.886,0,0,0-2.569-1.7Zm-.778,6.909a11.644,11.644,0,0,0,7.45-5.258,5.827,5.827,0,0,0,.843,1.161,13.393,13.393,0,0,1-7.2,5.359c-.021.1-.032.216-.17.214-.069,0-.127-.08-.175-.169Z" transform="translate(-114.565 -26.479)" fill="#20992a"/>
        <path id="パス_523" data-name="パス 523" d="M273.63,58.511c-2.455-.163-4.761,1.715-4.873,3.513-.072,1.149.687,1.946,2.76,2.233a7.318,7.318,0,0,0-.711,1.444c-1.472-.427-3.511-1.411-3.373-3.641a4.427,4.427,0,0,1,2.278-3.329,42.483,42.483,0,0,0-4.518.34l-.088-1.593a5.833,5.833,0,0,0,.636.069,38.6,38.6,0,0,0,7.72-.457Zm-1.739,1.479c.127.166.583.766.789,1.114a7.256,7.256,0,0,0-.693.529,8.774,8.774,0,0,0-.768-1.143Zm.988-.668a6.876,6.876,0,0,1,.829,1.1,4.929,4.929,0,0,0-.673.52,7.9,7.9,0,0,0-.8-1.164Z" transform="translate(-125.447 -27.015)" fill="#20992a"/>
        <path id="パス_524" data-name="パス 524" d="M290.123,60.8l.123-1.095,2.5.282.22-1.955,1.165.2c.068.008.193.042.18.159-.006.058-.071.1-.217.173l-.175,1.554,2.59.292-.123,1.095-2.219-.25a13.068,13.068,0,0,0,2.21,3.664,4.663,4.663,0,0,0-.934.825,11.486,11.486,0,0,1-1.768-3.465l-.25,2.219,1.134.127-.125,1.1L293.3,65.6l-.173,1.535L291.957,67l.173-1.535-1.115-.125.125-1.1,1.114.126.237-2.1a11.514,11.514,0,0,1-2.544,2.812,3.239,3.239,0,0,0-.689-.741L289,66.661l-1.192-.134.527-4.673a6.139,6.139,0,0,1-.634.622,2.751,2.751,0,0,0-.754-.956,10.988,10.988,0,0,0,2.774-3.885l1.129.523a.212.212,0,0,1,.137.194c-.016.146-.241.121-.289.106-.059.082-.109.176-.543.948-.125.234-.269.455-.435.7.177.1.241.146.233.215-.011.1-.052.1-.255.159l-.41,3.636a12.3,12.3,0,0,0,3.039-3.073Z" transform="translate(-135.78 -27.273)" fill="#20992a"/>
        <path id="パス_525" data-name="パス 525" d="M310.781,66.516c.076.023.193.042.179.129s-.124.089-.167.1a11.6,11.6,0,0,1-.435,1.873,5.719,5.719,0,0,0-.743-.211,9.385,9.385,0,0,0,.543-2.045Zm3.573-3.694-.068.418a4.64,4.64,0,0,0,2.527-1.861l.941.342c.1.037.164.1.153.165s-.106.1-.228.112a5.15,5.15,0,0,0,2.043,1.958,2.879,2.879,0,0,0-.815.844,4.4,4.4,0,0,1-.433-.34l-.087.534-1.069-.174-.071.437,1.816.3-.406,2.486-1.631-.266A4.755,4.755,0,0,0,318.7,69.9a3.249,3.249,0,0,0-.84.81,5.6,5.6,0,0,1-1.6-2.194,5.1,5.1,0,0,1-2.5,1.616,3.287,3.287,0,0,0-.593-1.014,3.336,3.336,0,0,0,2.441-1.576l-1.525-.249.406-2.486,1.7.277.072-.437-1.136-.185.065-.4c-.2.1-.325.156-.485.22a2.917,2.917,0,0,0-.472-.775l-.021.126-.874-.143-.09.554.873.142-.134.826-.874-.142-.1.592,1.165.19c-.2,1.063-.568,2.937-1.312,3.7-.348.362-.739.318-1.475.248a5.026,5.026,0,0,0-.229-1.1c.152.045.437.131.583.155.252.041.592.1.976-1.037a1.935,1.935,0,0,0-.349.063,6.16,6.16,0,0,0-.056-1.126l.468-.053c.025.213.06.488.067.689a6.3,6.3,0,0,0,.188-.847l-1.68-.274-.043.262-.971-.159.878-5.38,3.748.612-.152.932-1.262-.207-.088.544Zm-2.839,3.724a15.494,15.494,0,0,1-.128,1.634c-.1.013-.486.05-.611.08a11.446,11.446,0,0,0,.213-1.73Zm.608-1.227.1-.592-.612-.1-.1.592Zm-.011,1.225a6.617,6.617,0,0,1,.053,1.265,1.567,1.567,0,0,0-.475.042,5.961,5.961,0,0,0-.02-1.29Zm.241-2.642.091-.554-.612-.1-.091.554Zm.223-1.37.089-.544-.612-.1-.089.544Zm3.355,4.126a.454.454,0,0,0,.029-.115l.093-.573-.7-.114-.112.69ZM318,64a6.783,6.783,0,0,1-1-1.27,7.043,7.043,0,0,1-1.128.923Zm-.9,2.146-.113.69.777.126.113-.689Z" transform="translate(-146.509 -28.769)" fill="#20992a"/>
        <path id="パス_526" data-name="パス 526" d="M340.559,72.818l-.318,1.512-1.464-.308.318-1.512Zm1.23-6.087-.494,2.35-.887,2.78-.78-.164.3-2.9.494-2.35Z" transform="translate(-160.308 -31.441)" fill="#20992a"/>
        <path id="パス_527" data-name="パス 527" d="M159.312,144.91c10.9-1.708,14.11-9.441,14.11-14.814,0-1.506,0-10.294-10.495-11.6-.753,14.964-7.784,31.435-14.512,31.435-4.218,0-11.7-6.177-11.7-16.521,0-11.55,9.742-23.1,24.505-23.1,12,0,21.241,7.582,21.241,19.685,0,3.816-.6,10.244-7.582,17.023a25.24,25.24,0,0,1-10.495,5.925,62.118,62.118,0,0,0-5.072-8.034M145,133.41c0,3.565,1.707,6.277,2.762,6.277,1.807,0,5.674-10.094,6.176-19.936-3.867,1.406-8.938,7.683-8.938,13.659" transform="translate(-64.693 -52.199)" fill="#20992a"/>
        <path id="パス_528" data-name="パス 528" d="M60.7,78.122A64.354,64.354,0,0,0,67.5,80.356c.26-.727,1.3-3.74,1.559-4.364a40.148,40.148,0,0,1-7.689-2.338l1.87-8.468a59.17,59.17,0,0,0,8.728,2.91c1.091-2.754,2.649-6.7,3.169-8.26l9.507,3.273c.468.155.936.363.936.831,0,.624-.52.78-1.766,1.143a37.4,37.4,0,0,0-2.546,4.572c1.559.1,2.961.208,4.832.208a29.721,29.721,0,0,0,3.637-.208A44.916,44.916,0,0,0,87.5,78.226a66.119,66.119,0,0,1-9.4-.675c-.52,1.3-1.143,2.909-1.715,4.416a82.559,82.559,0,0,0,8.988.676c.935,0,1.559-.052,2.182-.1a70.755,70.755,0,0,0-2.234,8.572,89.746,89.746,0,0,1-11.482-.987,19.814,19.814,0,0,0-.468,3.845c0,5.2,5.767,5.455,8.053,5.455,2.494,0,9.975-.312,9.975-6.962,0-2.6-1.4-5.091-3.013-7.689a58.271,58.271,0,0,0,8.364-3.013c1.663,2.65,4,6.7,4,11.637,0,10.027-9.248,14.443-18.962,14.443-15.638,0-17.3-9.559-17.3-13.092a29.661,29.661,0,0,1,.779-6.235,42.979,42.979,0,0,1-6.7-1.974Z" transform="translate(-27.714 -28.314)" fill="#20992a"/>
        <path id="パス_529" data-name="パス 529" d="M23.143,112.6H25.9v2.321H23.46A10.058,10.058,0,0,0,25.9,116.9a7.769,7.769,0,0,0-1.587,2.063,9.339,9.339,0,0,1-1.17-1.17v3.372h-2.6v-3.313a10.18,10.18,0,0,1-1.765,2.3,8.6,8.6,0,0,0-2.043-1.448,15.181,15.181,0,0,0,2.876-3.789H17.33V112.6h3.214v-1.23H17.211v-2.321h1.528a9.558,9.558,0,0,0-.377-1.607l1.567-.4h-2.6v-2.3h3.154v-1.924l2.976.218a.26.26,0,0,1,.238.258c0,.258-.278.317-.476.377v1.072H25.9v2.3H24l1.131.238c.139.02.318.1.318.258,0,.218-.3.238-.417.238-.06.3-.159.654-.337,1.27h1.29v2.321H23.54a.216.216,0,0,1,.04.119c0,.159-.258.218-.436.238ZM20.8,107.042a10.28,10.28,0,0,1,.456,2h.952a20.179,20.179,0,0,0,.516-2Zm5.575,7.777V103.412h8.292V114.82H32.546v3.611c0,.158,0,.416.357.416.516,0,.615-.416.694-1.746a9.745,9.745,0,0,0,2.222,1.151c-.2,1.31-.457,2.916-1.885,2.916H31.555c-.635,0-1.667-.218-1.667-1.428v-3.849a1.22,1.22,0,0,1-.317.08c-.119.4-1.151,3.829-3.928,5.416a10.715,10.715,0,0,0-2.361-1.786,5.72,5.72,0,0,0,3.829-4.781Zm3.511.595v-.595H28.023Zm2.043-9.7H29.074v.873h2.857Zm-2.856,3.75h2.857v-.853H29.075Zm0,2.936h2.857v-.912H29.075Z" transform="translate(-7.919 -48.653)" fill="#20992a"/>
        <path id="パス_530" data-name="パス 530" d="M51.47,148.557v2.7h-7.5v5.476c0,1.27-.119,2.777-4.821,2.658a6.134,6.134,0,0,0-.952-3.015c.635.04,1.011.079,1.388.079,1.349,0,1.349-.159,1.349-1.289v-3.908h-7.8v-2.7h7.8v-2.936l1.528.159a7.63,7.63,0,0,0,1.627-1.428H35.122v-2.639H48.117l1.428,1.468a21.659,21.659,0,0,1-5.575,5.1v.278Z" transform="translate(-15.681 -67.058)" fill="#20992a"/>
        <path id="パス_531" data-name="パス 531" d="M293.94,198.283a6.064,6.064,0,0,1,7.4-9.567,7.72,7.72,0,0,1,10.384-6.849,4.411,4.411,0,0,1,8.644.494c.013.094.022.188.028.281a6.063,6.063,0,0,1,9.885-.441,9.375,9.375,0,0,1,18.6-.227c.042.305.067.609.08.91a6.066,6.066,0,0,1,8.521,7.447,8.822,8.822,0,1,1-1.725,17.46,4.411,4.411,0,0,1-8.16,2.672,7.72,7.72,0,0,1-12.607,2.371,6.066,6.066,0,0,1-11.166,1.287,7.718,7.718,0,0,1-14.33-2.812c-.012-.084-.02-.169-.028-.252a6.064,6.064,0,0,1-10.6-5.46,4.411,4.411,0,1,1-4.931-7.314" transform="translate(-138.141 -82.276)" fill="#fff"/>
        <path id="パス_532" data-name="パス 532" d="M316.254,208.44h-3.088v-2.457h3.088Zm0,10.54h-3.088v-9.473h3.088Z" transform="translate(-148.189 -97.47)" fill="#ed6b00"/>
        <path id="パス_533" data-name="パス 533" d="M326.1,212.354l.065,1.1A3.6,3.6,0,0,1,329.337,212c2.409,0,3.588,1.325,3.588,3.443v6.385h-2.877v-5.594a1.757,1.757,0,0,0-1.923-1.94,1.888,1.888,0,0,0-1.956,1.989v5.545h-2.893v-9.473Z" transform="translate(-152.972 -100.317)" fill="#ed6b00"/>
        <path id="パス_534" data-name="パス 534" d="M363.256,204.841c.129,0,.275.048.275.21,0,.194-.21.291-.42.372-.032.242-.048.307-.1.6h3.734v2.118h-2.3a7.43,7.43,0,0,0,2.3,1.406,9.132,9.132,0,0,0-1.148,1.293h1.536v2.183h-.889v4.542c0,1.148-.081,2.232-3.524,2.086a5.088,5.088,0,0,0-.388-1.875h-2.279v.986h-2.279v-5.173h5.092v3.621c.744.016.76-.146.76-.808v-3.379H356.9v-2.183h1.859a7.979,7.979,0,0,0-1.164-.97v.663h-1.471v3.363c.437-.178.824-.323,1.261-.55-.081.792-.081,1.471-.081,1.617a3.878,3.878,0,0,0,.064.889c-1.132.55-3.507,1.471-4.4,1.794-.081.339-.113.468-.291.468a.287.287,0,0,1-.242-.258l-.5-2.6c.566-.129.954-.242,1.5-.42v-4.3h-1.2v-2.409h1.2V204.89l2.7.145c.307.016.4.048.4.21,0,.178-.194.275-.42.372v2.505h1.067v-2.1h3.136a7.383,7.383,0,0,0,.081-1.358Zm-5.658,4.672a5.528,5.528,0,0,0,1.924-1.374H357.6Zm6.467,1.325a8.208,8.208,0,0,1-2.053-2.1,6.9,6.9,0,0,1-2.069,2.1Zm-4.009,5.173h.808v-.857h-.808Z" transform="translate(-166.537 -96.846)" fill="#ed6b00"/>
        <path id="パス_535" data-name="パス 535" d="M392.538,210.794h4.332v2.57h-1.407a14.78,14.78,0,0,1,2.1,2.587c-.21.146-1.439,1.035-1.5,1.1h2.457v2.587h-14.9V217.05h6.013v-3.686H385.3v-2.57h4.332v-2.748h-5.4v-2.554h13.724v2.554h-5.415Zm1.908,2.57h-1.908v3.686h2.36a13.389,13.389,0,0,0-1.988-2.57Z" transform="translate(-181.525 -97.238)" fill="#ed6b00"/>
      </g>
    </g>
  </g>
</svg>
