<svg xmlns="http://www.w3.org/2000/svg" width="35.44" height="233.608" viewBox="0 0 35.44 233.608">
  <path id="パス_715" data-name="パス 715" d="M2.109-30.552a12.343,12.343,0,0,0-.855,2.565,2.137,2.137,0,0,0-.057.627,1.915,1.915,0,0,1-.285.912,1.465,1.465,0,0,0-.057,1.2c.171.4.342.8.057,1.2a.209.209,0,0,0-.057.171c.057.285-.171.513-.342.8a.173.173,0,0,0,0,.228c.228.285.057.57,0,.912a4.286,4.286,0,0,0,0,.855v.4a1.95,1.95,0,0,0,.057,1.14,1.206,1.206,0,0,1,0,1.083.427.427,0,0,0-.057.285.733.733,0,0,1-.057.684.629.629,0,0,0,0,.456.434.434,0,0,1,0,.456,1.461,1.461,0,0,0,0,1.2.791.791,0,0,1,0,.513,2.237,2.237,0,0,0,.114,1.71c.057.171.228.342.171.57a2.025,2.025,0,0,0-.114.57.847.847,0,0,1-.114.513.629.629,0,0,0,0,.456c.057.171.285.285.228.456a2.861,2.861,0,0,0-.114.684c0,.228.285.4.4.627.342,0,.114.4.342.456v.057a.107.107,0,0,1,0,.171v.114c-.171.228-.171.228-.057.513v.171a.605.605,0,0,0,.114.741.427.427,0,0,1,.057.285c-.057.228-.171.4,0,.513q.171.086.171.171L2-5.13a2.832,2.832,0,0,0,.741,1.083.433.433,0,0,1,.285.513.343.343,0,0,0,.057.228c.285.228.285.684.8.741v.114c.114.456.57.684.969.969.171.171.57.171.57.513a.123.123,0,0,0,.114.114L6.84-.171A3.342,3.342,0,0,0,8.664.114h.855A4.858,4.858,0,0,0,11.742,0a.209.209,0,0,1,.171-.057,4.9,4.9,0,0,0,1.824-.285,4.185,4.185,0,0,0,1.539-.969c.228-.171,1.083-.627,1.2-.855a1.216,1.216,0,0,0,.4-.684c.057-.114-.285-.4.228-.285a.2.2,0,0,0,.057-.114A5.816,5.816,0,0,0,17.67-4.5c.171-.684.4-.912.57-1.539a2.775,2.775,0,0,0,.057-.684c0-.171,0-.171-.228-.285a.123.123,0,0,1-.114-.114c0-.171.057-.285.285-.285.171,0,.171,0,.057-.114A.209.209,0,0,1,18.24-7.7,2.607,2.607,0,0,0,18.3-9.177l.4-.456v-.342a1.751,1.751,0,0,0,.114-1.2A1.231,1.231,0,0,0,17.328-12.2a5.616,5.616,0,0,1-.969.114,3.616,3.616,0,0,1-1.368-.171,2.469,2.469,0,0,0-.285.057c0,.228-.114.171-.285.114-.057,0-.171.057-.171.114,0,.228-.114.342-.285.513a.842.842,0,0,0-.171,1.026,2.555,2.555,0,0,1,0,1.311,4.544,4.544,0,0,0-.171.855,3.465,3.465,0,0,0-.057,1.083A1.154,1.154,0,0,1,13.224-6.1a.8.8,0,0,0-.171.513c0,.114,0,.171-.114.228-.285.228-.627.4-.513.855a.432.432,0,0,1-.114.228c-.057.114-.4.171-.513.228l-.171-.171c-.228,0-.342.057-.285.285-.741,0-.969.057-1.254.057s-.57,0-.684.285H9.348A.2.2,0,0,0,9.291-3.7c.114-.228-.114-.285-.342-.342a12.061,12.061,0,0,1-1.2-.627A2.051,2.051,0,0,1,7.068-5.7L6.84-6.042a.512.512,0,0,1-.114-.513.933.933,0,0,0-.114-.684.582.582,0,0,1-.228-.57c-.057-.627-.342-1.254-.4-1.824-.171-1.311-.228-2.679-.4-3.933a4.314,4.314,0,0,1,.057-.855v-4.047c0-.627-.114-1.254-.057-1.824a17.944,17.944,0,0,0,.285-2.451c0-.912.456-1.881.456-2.85,0-.228-.114-.513.171-.684v-.114c0-.456.342-.969.114-1.539a.343.343,0,0,1,.057-.228,2.212,2.212,0,0,0,.342-.627,2.9,2.9,0,0,1,2.166-1.482c.057,0,.114-.057.171-.057a1.389,1.389,0,0,1,.684,0l.4.114a3.529,3.529,0,0,1,1.083.4,6.246,6.246,0,0,1,1.2,1.254.209.209,0,0,1,.057.171,2.287,2.287,0,0,1,.171.855.532.532,0,0,0,.285.57.614.614,0,0,1,.114.456c0,.057-.114.114-.171.171.057,0,.114.057.171.057h-.171v1.2c0,.171,0,.4.171.513.228.114.228.285.057.456-.171.285,0,.456.228.627a1.1,1.1,0,0,0,.513.285.513.513,0,0,0,.57.057,1.563,1.563,0,0,1,1.14.057.97.97,0,0,0,.4.057,3.25,3.25,0,0,0,.741-.057,3.006,3.006,0,0,1,.684-.171.847.847,0,0,0,.684-.684,10.176,10.176,0,0,0,.114-1.311c0-.285-.114-.57-.114-.855a2.8,2.8,0,0,0-.4-1.767.214.214,0,0,1,0-.342c.171-.171.057-.342,0-.513-.228-.627-.4-1.2-.627-1.71a9.072,9.072,0,0,0-.741-1.254.838.838,0,0,0-.285-.342.555.555,0,0,1-.342-.285c-.057-.285-.285-.4-.513-.513-.171-.057-.342-.114-.4-.228-.114-.285-.4-.342-.684-.4a.209.209,0,0,1-.171-.057.954.954,0,0,0-1.14-.285c-.171.057-.4-.057-.4-.171,0-.057.228-.114-.057-.171a10.521,10.521,0,0,1-1.311-.228,1.943,1.943,0,0,0-1.14,0,.662.662,0,0,1-.57,0,.852.852,0,0,0-.741.057l-.513.114a6.9,6.9,0,0,1-1.083.057A2.108,2.108,0,0,0,5.7-33.63a.343.343,0,0,1-.228.057.3.3,0,0,1-.228.114,2.425,2.425,0,0,0-1.311.8c-.342.342-.57.855-1.083,1.026-.171.057-.228.228-.285.342A3.232,3.232,0,0,1,2.109-30.552Zm2.109,4.275a1.6,1.6,0,0,1-.57.8H3.591v-.171l.342-.684.228-.171c.057.057.114.114.114.171Zm8.436-3.648L13-30.1a.963.963,0,0,1,.285.114.919.919,0,0,1-.228.4.482.482,0,0,1-.342.114c-.057,0-.057-.342,0-.456Zm3.306-1.254a1.192,1.192,0,0,1,.342-.228h.171c.057,0,.057.057.114.171a1.192,1.192,0,0,1-.228.342.259.259,0,0,1-.285,0,.162.162,0,0,1,0-.285Zm.8,22.857c0-.057-.057-.114-.057-.171s.057-.114.057-.171c0,.057.8.456.855.513v.171ZM14.649-5.415c-.057-.057-.114-.114-.114-.171,0-.342.057-.456.342-.513a.574.574,0,0,1,.171.057l-.171.342a.209.209,0,0,0-.057.171ZM3.135-9.405a.435.435,0,0,1,.114-.285l.114-.171h.171v.456q0,.086-.171.171c-.057-.057-.171-.114-.171-.228ZM1.425-27.246h.057c.228.114.114.285.114.456v.114l-.228.171c-.057-.057-.114-.114-.114-.171-.057-.171.171-.285.171-.456ZM2.736-18.3c0-.114.114-.171.228-.285.057.114.171.228.171.285a.379.379,0,0,1-.285.228c-.171,0-.228-.114-.171-.228Zm1.539,2.109.342-.342h.171v.171l-.342.342H4.332a.2.2,0,0,0-.057-.114ZM3.762-3.135v-.171a.824.824,0,0,1,.4-.114c.057,0,.114.057.228.171a2.891,2.891,0,0,1-.513.114ZM.684-14.991l.114.114a.847.847,0,0,1,.342.057c.057,0,.057.114.057.171a.123.123,0,0,1-.114.114.2.2,0,0,1-.057-.114l-.114.114L.741-14.82H.684ZM13.737-32.718c0-.057.057-.114.114-.171v.171l-.171.342c0,.057-.057.114-.114.171,0-.057-.057-.114-.057-.171a.723.723,0,0,1,.057-.342ZM5.016-6.27c.057-.228.228-.285.456-.342l.057.057a.581.581,0,0,1-.456.285ZM2.166-22.857h-.8l.114-.114h.57ZM6.9-32.718h.342a.056.056,0,0,1,.057-.057.209.209,0,0,1,.171-.057l.057.057a.123.123,0,0,1-.114.114H7.239A1,1,0,0,1,6.9-32.6c-.057,0-.114-.057-.171-.057H6.84Zm-3.99,11.97H2.679v-.057l.4-.171.114.114-.228.171ZM1.938-22.4c.057-.057.114-.114.171-.114a2.242,2.242,0,0,1,.342.114c-.285.057-.342.114-.456.114ZM10.83-33.858a.432.432,0,0,1,.228.114l-.228.171-.171-.171C10.716-33.8,10.773-33.858,10.83-33.858ZM14.649-6.5q0-.086.171-.171l.171.171-.171.171c0-.057-.114-.114-.114-.171ZM2.28-13a1.057,1.057,0,0,1,.4.114c-.057,0-.342.057-.342.057l-.171-.114ZM13.395-5.7a.432.432,0,0,1-.228-.114.574.574,0,0,0,.171-.057.432.432,0,0,1,.228.114l-.171.114Zm.8-.057c0,.057-.057.057-.171.057l-.057-.057q0-.086.171-.171a.2.2,0,0,0,.057.114ZM3.306-14.934a.343.343,0,0,1,.228-.057l.057.057c0,.057-.057.114-.114.171ZM2.679-30.381h.228c.057,0,.114.057.171.114h-.4Zm1.368,9.918h.228v.171a.431.431,0,0,1-.228-.057ZM3.078-9.12c0-.057.057-.114.114-.171,0,.057.057.114.057.171l-.171.171Zm-1.71-.456c-.057-.057-.342-.057-.456-.114l.114-.057a1.057,1.057,0,0,0,.4.114v.171Zm4.275-23.2H5.586c.057-.057.057-.114.114-.114a.441.441,0,0,1,.171.057c-.057.057-.114.114-.171.114ZM10.773-.8h-.114V-.855h.171c0,.057,0,.114-.057.114ZM4.845-6.1v-.114h.171C4.959-6.156,4.9-6.1,4.845-6.1ZM.8-14.877H.741v.057H.855Zm.456,0H1.2v-.057h.057ZM7.239-32.718v.057a.056.056,0,0,1,.057-.057ZM40.47-14.307a13.862,13.862,0,0,1,0-1.539c0-.912-.114-1.824-.057-2.736,0-.114-.057-.228-.057-.342,0-.057-.057-.171,0-.228.171-.171.114-.4.114-.627a5.508,5.508,0,0,0-.057-1.368c0-.057.057-.114.057-.171v-2.166c-.057.114-.912-.4-.57-.4.627-.057.228-.456.228-.912v-.342c0-.342-.228-.684-.171-1.026a3.849,3.849,0,0,0-.114-.8c-.057-.228.057-.57-.342-.741-.057,0-.057-.228,0-.285.171-.114.171-.228.114-.342l-.342-1.026-.456-1.026a3.334,3.334,0,0,0-.8-1.368c-.057-.114-.228-.171-.285-.285-.171-.114-.228-.342-.342-.456a4.889,4.889,0,0,1-1.14-.741.994.994,0,0,1-.684-.342,1.1,1.1,0,0,0-.513-.285,11.259,11.259,0,0,0-1.482-.456,10.838,10.838,0,0,0-1.425-.171c-.4,0-.741-.057-1.2-.057a1.939,1.939,0,0,0-.57.057,5.525,5.525,0,0,1-1.311.171,2.962,2.962,0,0,0-1.824.513l-.57.171a2.174,2.174,0,0,0-.8.627c-.228.342-.627.513-.8.912,0,.057-.114.114-.171.114a.867.867,0,0,0-.57.741c-.057.228-.57.456-.684.627-.228.456-.57.456-.342.855,0,.057,0,.171-.057.171a.431.431,0,0,1-.228.057c-.057,0,0-.228-.057-.057a.919.919,0,0,0-.171.513,1.7,1.7,0,0,1-.285.855v.114h.171c.057-.057.171-.228.228-.057.114.4.4.342.684.285.171-.057.627.057.627.171a.208.208,0,0,1-.114.285c-1.026,0-1.938-.171-2.394.285-.114.285-.057.57-.171.8a1.635,1.635,0,0,0,0,1.539,1.171,1.171,0,0,1,0,.627c-.057.171-.228.4-.114.57a.524.524,0,0,1-.114.57.3.3,0,0,0,0,.456.328.328,0,0,1,.171.456,1.812,1.812,0,0,0-.171.513,1.911,1.911,0,0,0,0,.57c.285.456-.456,1.14.342,1.653l.4.342v.171a.574.574,0,0,0-.171.057c-.456-.285-.57-.228-.57-.171a.419.419,0,0,0,.114.342.914.914,0,0,1,.057.855.487.487,0,0,0,0,.4.654.654,0,0,1-.057.57c-.171.114-.228.285,0,.456.171.171.114.342.057.513l-.228.456a.944.944,0,0,0,0,.684.469.469,0,0,1,.057.684,1.09,1.09,0,0,0,0,1.026,1.09,1.09,0,0,1,.228,1.083c-.171.285.114,1.539,0,1.938a1.974,1.974,0,0,0,.285,1.767c.171.171.228.342-.057.513-.057,0-.057.171-.057.171.342.057.342.228.285.4a.278.278,0,0,0,.114.456.36.36,0,0,1,.114.513c-.057.114-.57.741-.513.855L22-5.016c.228.513,1.026.912,1.368,1.425.114.171,0,.8.171.969.114.114.741.57.741.741,0,.513.57.684.8,1.026a.763.763,0,0,0,.285.057c0,.342.855.456,1.083.684a3.981,3.981,0,0,0,1.2.627c.057.057.114.114.114.171.057.228.4-.228.627-.171l.741.342a.107.107,0,0,1,.171,0c.171.171.4-.228.684-.228A7.841,7.841,0,0,0,34.713.342V.513a6.557,6.557,0,0,0,.969-.342c.513-.285,1.026-.627,1.539-.969l.171-.228a1.3,1.3,0,0,1,.456-.513.766.766,0,0,0,.342-.4,3.4,3.4,0,0,0,.513-.855,5.629,5.629,0,0,0,.684-1.6l.114-.627a4.991,4.991,0,0,0,.4-1.824v-.171c-.057.057-.114.057-.114.114-.057.114-.114.285-.342.114-.171-.285.057-.456.285-.57.228-.171.342-.285.228-.57v-.171c.057-.228.171-.456.057-.684v-.171c0-.285.4-.57.4-.855,0-.969-.057-1.938-.057-2.907a13.976,13.976,0,0,0,.114-1.539ZM34.143-6.5a1.9,1.9,0,0,0-.513,1.71c0,.171-.228.285-.513.4.228.057.342.171.342.285,0,.057-.114.114-.171.171l-.4-.342L33-4.389a3.994,3.994,0,0,0-.57.456c-.114.114-.114.171,0,.285a.173.173,0,0,1,0,.228,3.418,3.418,0,0,1-.627.684c-.057.057-.171.057-.171-.114.057-.228-.057-.285-.171-.285l-.969.171h.171v.057h-.171l-.57-.114a3.7,3.7,0,0,1-1.254-.627l-.57-.4-.171-.228c-.114-.171,0-.456-.285-.456l-.114-.057c.171-.285.285-.456.171-.684-.057-.057.285-.171.342-.228.171-.285,0-.513-.171-.741a.517.517,0,0,1-.171-.4V-8.208c-.057-.057-.171-.114-.171-.171v-.342c.114-.057.228-.114.228-.171v-.684c0-.456-.342-.969-.342-1.482v-.057c-.057-.057-.513-.057-.57-.114,0,0,.456-.114.456-.171.057.057.114.114.114.171v-.513c0-.057-.114-.114-.171-.171-.057.057-.456.114-.513.171-.114.114-.513.228-.627.342l-.114-.057c.057-.285.513-.57.8-.741a3.915,3.915,0,0,0,.627-3.078,1.446,1.446,0,0,1-.114-.684,1.283,1.283,0,0,0,.057-.684c0-.114.057-.228.057-.342v-1.368a3.031,3.031,0,0,1,0-1.881v-.342c0-.684-.057-1.311-.057-2a.966.966,0,0,1-.57,0,1.342,1.342,0,0,1,.114-.456l.456.114A6.012,6.012,0,0,0,27.645-24c0-.114.114-.228.057-.285-.684-.684-.456-1.2,0-1.824a.723.723,0,0,0,.057-.342l.228-1.2c.057-.171.057-.228-.114-.114a.574.574,0,0,0-.057-.171c.342-.228.057-.627.228-.969.171-.228.114-.456.4-.684a6.451,6.451,0,0,1,.741-.57.427.427,0,0,1,.285-.057c.342,0,.4-.057.342-.342-.171-.456.8-.4,1.083-.513.057,0,.114.057.171.057a.209.209,0,0,1-.057.171.919.919,0,0,1-.741.342c-.057,0-.171.057-.228.057a.432.432,0,0,0,.228.114l.741.228a3.025,3.025,0,0,1,1.653,1.083.783.783,0,0,0,.456.285.528.528,0,0,0,.057.4c.228.285.8.627.741.969a.375.375,0,0,0,.171.513.483.483,0,0,0,.513.171.5.5,0,0,1,.4.057.123.123,0,0,1,.114.114.123.123,0,0,1-.114.114c-.171,0-.342-.057-.57-.057-.171,0-.228.057-.057.228v.114c-.342,0-.228.228-.228.4,0,.285.171.57.171.855a.427.427,0,0,0,.057.285c.285.285.57.57.342.855-.057.057,0,.171.057.285.057.171.342.342.171.513-.057.057-.114.114-.114.171a10.983,10.983,0,0,0,.057,1.368c0,.171.057.342.342.171l.114.114v.057c-.4.171-.342.456-.4.741a2.861,2.861,0,0,0-.114.684c0,.057.057.171.114.171.285,0,.342.114.342.285,0,.114,0,.285.057.285.627.285.285.855.4,1.254a.2.2,0,0,1-.057.114l-.057.057c-.057-.057-.114-.114-.114-.171L35-18.981c0-.057-.057-.114-.114-.171,0,.057-.057.114-.057.171,0,.228-.114.513.057.741a.428.428,0,0,1,0,.513.432.432,0,0,0-.114.228.963.963,0,0,1-.057,1.026c.114.456-.057.912.114,1.368a2.834,2.834,0,0,1-.057,1.2c-.057.57-.4,1.2-.057,1.767.057.114,0,.285,0,.456,0,.057-.114.171-.114.228.8,1.083-.285,2.736-.513,3.591Zm.912-23.427a.759.759,0,0,1,.285-.171.257.257,0,0,1,.171.171l.171.855-.171.171a.432.432,0,0,1-.228-.114c-.285-.285-.57-.57-.4-.969Zm-10.488,9.69.342-.684c.057-.057.285-.114.342-.057.171.057.114.171.228.285v.114c-.057.057,0,.114-.057.228-.114.171-.513.228-.4.513l-.057.057c-.114,0-.342-.285-.285-.4ZM36.879-2.907l-.4.114c-.171.057-.228.228-.342.114-.057-.057,0-.285.057-.4a.968.968,0,0,1,.342-.342c.171-.171.228-.171.342.114.114.057.285.114.057.228Zm-2.622-.171a.123.123,0,0,1-.114-.114c-.114-.228.228-.8.513-.855h.057c.057.057.114.114.114.171.057.228-.285.684-.627.741ZM22-16.359v-.057c.057-.057.114-.171.171-.171a14.935,14.935,0,0,1,1.6-.057v.057a5.4,5.4,0,0,1-1.71.228Zm16.53.8v.171a1.939,1.939,0,0,1-.57-.057.381.381,0,0,1,0-.57h.057c.057.057.513.114.513.228a.432.432,0,0,1-.114.228ZM36.651-5.643v-.513c0-.057.057-.114.057-.171.057.057.114.057.114.114a1.074,1.074,0,0,1,.114.456c0,.171-.057.342-.057.513,0,.228-.114.171-.228.171,0-.171-.057-.342-.057-.513ZM26.22-21.546a.647.647,0,0,0-.171.456.177.177,0,0,0-.114.057l-.285-.342c-.114-.228-.114-.285.171-.342a.723.723,0,0,1,.342-.057c.057,0,.114.114.114.114Zm0,1.482c-.057-.057-.114-.114-.114-.171l.171-.4s.456,0,.456.057a.269.269,0,0,1,.057.342c-.057.057-.4.057-.513.114Zm7.866-10.26-.171-.855a.2.2,0,0,1,.114-.057.123.123,0,0,1,.114.114,2.122,2.122,0,0,1,.114,1.026c-.057,0-.171,0-.171-.057ZM26.163-23.6c.114,0,.285.114.285.171,0,.171-.342.285-.57.285-.057-.057,0-.114,0-.171-.057-.171.114-.4.285-.342ZM37.734-18.81c.057,0,.114-.057.171-.114v.171a.723.723,0,0,1-.057.342l-.285.171-.171-.342.057-.057c.4.057-.057-.285.171-.285ZM35.568-9.405v-.513c0-.114.171-.114.285,0a.81.81,0,0,1,.114.342C35.91-9.405,35.682-9.405,35.568-9.405Zm-10.83-4.047h-.171a6.217,6.217,0,0,1-.627-.342l.171-.171c.171.171.627.342.8.513a.2.2,0,0,0-.057.114ZM22.344-7.3l-.171-.228.114-.114c.057.057.513.114.627.228-.057.057-.513.114-.57.171Zm1.539-1.425c-.114-.114-.969-.171-.969-.228l.969-.057h.057a.441.441,0,0,1-.057.171ZM36.309-21.6a1.192,1.192,0,0,1-.342-.228.343.343,0,0,1-.057-.228.209.209,0,0,1,.171.057l.4.285v.057A.25.25,0,0,0,36.309-21.6ZM24.966-15.9a.431.431,0,0,1-.057-.228l.057-.057h.4l.057.114-.342.228ZM35.454-4.959c-.114-.171.057-.228.171-.285.342.171.342.228.342.285h-.342C35.568-4.959,35.511-4.788,35.454-4.959ZM34.2-33.288l.171-.171H34.6v.171l-.4.342L34.143-33l.171-.171ZM21.774-26.562l.057.057c.057.114.171.228.171.342v.171c-.114,0-.171,0-.171-.057l-.171-.4a.2.2,0,0,1,.114-.057ZM35.226-13.395c0,.114-.228.228-.228.342-.057-.114.057-.228,0-.342a.343.343,0,0,1,.057-.228c0-.057.057-.057.171-.114Zm-.171-14.82c.228-.114-.114-.171.057-.228.114,0,.228.057.228.114s-.057.171-.114.171c-.228.057.114.114-.114.171-.057-.057-.171-.057-.171-.114s.057-.171.114-.171Zm3.078-1.14c.057,0,.114.057.228.057.057,0,.114-.171.171,0,0,.057-.114.114-.171.171-.171-.057-.285-.057-.342-.114l-.171-.171h.171ZM22.116-21.717l.228.228-.228.171-.228-.171c0-.057.114-.114.171-.171Zm12.54-3.477a.824.824,0,0,1-.114-.4s-.171-.057-.114-.057c.114,0,.342.057.342.114v.4h-.057ZM27.018-10.488h.057c-.057.057-.456.114-.513.228l-.114-.114c.057-.057-.057-.114,0-.171Zm10.545-5.358-.057.057a.343.343,0,0,1-.228-.057l-.171-.228.057-.057.342.171ZM24.624-27.417a.723.723,0,0,1-.057-.342l.057-.057h.057a.81.81,0,0,1,.114.342v.114c-.057,0-.114,0-.114-.057ZM35-3.477c-.057-.057-.114-.114-.114-.171s.057-.114.114-.228c.057.171.114.228.114.342,0,.057-.057.114-.114.171ZM29.412-31.692h.4l-.114.057v.171a.431.431,0,0,1-.228-.057A.209.209,0,0,1,29.412-31.692ZM27.816-1.2c-.057-.057-.114-.114-.114-.171s.057-.114.114-.171l.171.228-.171.171ZM38.7-24.966a.209.209,0,0,1-.057-.171c.057-.057.114-.114.171-.114l.171.114-.228.171Zm-6.384-9.12-.171.228a.3.3,0,0,1-.114-.228c0-.057.057-.057.114-.114ZM37.506-14.82a1.057,1.057,0,0,1,.4-.114c.057,0,.228.057.342.057a.847.847,0,0,1-.342.057ZM24.624-29.754h-.456c.057-.057.4-.114.456-.171H24.8Zm14.25,5.187c.114-.057.171-.114.228-.114l.114.114c0,.057-.057.114-.114.171Zm-3.534,1.71c0,.057-.057.114-.114.171l-.171-.114q0-.085.171-.171ZM35.055-33.63a.963.963,0,0,1,.285.114.963.963,0,0,1-.285.114.123.123,0,0,1-.114-.114.2.2,0,0,1,.114-.057ZM28.956-.912l-.171-.114c.057-.057.057-.114.171-.114.057,0,.114.057.171.057l-.114.171ZM25.194-22.971c-.171.171-.342.285-.513.228V-22.8Zm.627,8.778a.574.574,0,0,0-.171.057.123.123,0,0,1-.114-.114c0-.057.057-.114.057-.171l.285.228ZM37.506-4.674l.228.171-.171.114-.171-.171a.2.2,0,0,0,.114-.057ZM35.682-8.721l.228-.171h.057v.114l-.228.171h-.057ZM34.029-32.2c0,.057.057.114.057.171s-.057.114-.114.171l-.171-.114.228-.171ZM25.422-10.146,25.08-9.8l.285-.513h.057ZM27.36-22.572q.171-.086.171-.171l-.171-.171c-.057.114,0,.228,0,.285Zm9.462-3.078c-.057,0,.057.057,0,.057s-.285-.057-.342-.057l.171-.171Zm-11.97-.228.114.114-.171.171h-.171l.171-.171Zm.912,3.021c0-.057.057-.057.114-.057h.171v.171h-.171l-.057-.114ZM24.909-17.9l-.114.114c-.057,0-.114-.057-.171-.114l.114-.114C24.8-18.012,24.852-17.955,24.909-17.9ZM38.247-8.436v-.057l.228-.171a.177.177,0,0,0,.057.114c-.057.057-.114.114-.171.114ZM35-30.5c.057,0,.114.057.228.057l-.171.114-.171-.171.057-.057Zm-9.69,17.214a.2.2,0,0,1-.057-.114c.057-.057.114-.114.171-.114a.177.177,0,0,0,.057.114C25.422-13.338,25.365-13.281,25.308-13.281ZM28.5-31.692a.2.2,0,0,1-.114.057l-.057-.057c0-.057.057-.114.114-.171.057.057.114.114.114.171ZM24.624-4.617c0-.057-.057-.114-.057-.171l.057-.057c.057,0,.114.057.171.114a.209.209,0,0,1-.171.057ZM35.511-27.7c-.057.057-.114.114-.171.114a.209.209,0,0,1-.171-.057c.057,0,.114-.057.171-.057Zm1.6,7.923c.057,0,.114.057.171.114-.057.057-.114.114-.171.114v-.114l.057-.057Zm-.285-6.27v.114c0,.057-.057.057-.114.057v-.171Zm.171,7.3c.171-.057-.057-.114.114-.171v.057c0,.114.057.228-.114.171ZM35.568-4.674c0-.057.057-.057.114-.114a.2.2,0,0,0,.057.114.209.209,0,0,1-.171.057Zm1.881-20.349c-.057.057-.057.114-.228,0a.2.2,0,0,1,.114-.057A.2.2,0,0,0,37.449-25.023ZM33-4.389h.114c-.114.057-.171.114-.228.114Zm2.565-25.65h.114v.114ZM36.936-19.95h.057v.057h-.057Zm.4.969h-.057v-.057ZM58.083-11.8c.456-.114.456-.342.456-.456-.057,0,0,0,0-.057l-.057-.057c-.4-.114-.513-.285-.513-.57v-.114c-.342-.171-.171-.456-.114-.684l.171-.684c0-.057,0-.114-.057-.114-.342-.228-.4-.342-.285-.57a1.207,1.207,0,0,0,.114-1.083c-.114-.114,0-.228,0-.342v-.513a.427.427,0,0,1,.057-.285A1.893,1.893,0,0,0,57.8-18.7a1.276,1.276,0,0,1,.057-1.2c.114-.456-.342-.912,0-1.368.342-.8.114-2.223.114-3.534a3.006,3.006,0,0,0-.171-.684.473.473,0,0,1,.171-.456.471.471,0,0,0,.057-.684c-.171-.171-.285-.627.114-1.653a.209.209,0,0,0-.057-.171.524.524,0,0,1-.057-.684,3.267,3.267,0,0,1,.627-.627c-.4-.4-.4-.456-.513-1.2a1.615,1.615,0,0,1,.114-1.254.359.359,0,0,0,0-.342c-.285-.228-.171-.513-.057-.741a.8.8,0,0,1,.741-.57c.171,0,.285-.114.4-.114a5.783,5.783,0,0,1,2.508.342,1.511,1.511,0,0,1,.342.285c.171.57.741.855.741,1.482,0,.741-.057,1.254-.057,2,0,.285-.228.57-.228.855s.171.57.171.855-.171.57-.171.855c0,.4.114.8.114,1.2a12.857,12.857,0,0,1,0,2.565c.114.285-.114.513-.171.8v.114c.513.285.285.741.285,1.083a10.983,10.983,0,0,0-.057,1.368c0,.912.057,1.824.057,2.736v.171a.692.692,0,0,0,0,.912c.57,1.14-1.083.456-.456,1.254.114.114.342.285.114.456v3.078a1.446,1.446,0,0,1-.114.684c-.171.285.228.57.114.855a4.314,4.314,0,0,0-.057.855c0,.285.057.57.057.855a10.09,10.09,0,0,0,.057,1.311,10.955,10.955,0,0,0,0,1.368.847.847,0,0,1-.114.513,1.1,1.1,0,0,0,0,.741,3.718,3.718,0,0,1,.114,1.368,4.633,4.633,0,0,0,.057,1.254A1.323,1.323,0,0,1,62.3-.57a1,1,0,0,1-.741.342,5.644,5.644,0,0,0-1.71.114c-.8,0-2.394-.285-2.394-1.425,0-.057-.114-.114-.171-.171-.057-.171-.8-.342-.8-.456.057-.285-.171-.456-.228-.684-.342-.969.741-.4.969-1.083-2.793-.114-.912-.513-2.109-2.109-.171-.285-.285-.627-.456-.969a4.481,4.481,0,0,1-.456-1.482,2.157,2.157,0,0,0-.456-.684c-.171-.171.228-.114.114-.228a.569.569,0,0,0-.285-.228c.114-.4-.228-.627-.4-.969a2.888,2.888,0,0,1-.114-.741.919.919,0,0,0-.171-.513c-.342-.342-.171-.684-1.824-4.617-.057,0-.114,0-.114-.057l-.57-1.2a.352.352,0,0,1,.114-.4c-.342-.114-.4-.4-.513-1.311v-.057h-.057a10.566,10.566,0,0,1-.8-1.881c-.057-.228-.342-.285-.57-.285-.342,0-.513.342-.513.741l.171,1.2.285,1.2a8.39,8.39,0,0,1,0,1.2,3.128,3.128,0,0,1-.285.969c-.057.171-.171.285-.171.456a.517.517,0,0,0,.171.4c.171.171.4.342.285.627-.114,0-.285,0-.342.057l-.57.342v.057a1.087,1.087,0,0,0,.741-.114l.171-.285a.2.2,0,0,0,.057.114,12.333,12.333,0,0,0,0,2.052c-.057.342.057.684-.114,1.026a.977.977,0,0,1-.228,1.083c-.057.057,0,.228.114.285.228.228,0,.171-.114.228-.057,0-.057.171,0,.228a.473.473,0,0,1,.171.456c-.171.114-.171.228-.057.342a1.087,1.087,0,0,1,.114.741,1.111,1.111,0,0,0-.057.456,12.866,12.866,0,0,1,.057,2.565.9.9,0,0,1-.285.684.366.366,0,0,0,.057.513.616.616,0,0,1,.171.4,9.75,9.75,0,0,1-.171,2.223c0,.114.114.228.114.342a1.491,1.491,0,0,1-.513,1.026.864.864,0,0,1-.456.228,1.346,1.346,0,0,0-.684.057.732.732,0,0,0-.57-.57c-.171,0-.4.228-.228.342l.171.171c-.228,0-.57.114-.8.114A1.485,1.485,0,0,1,43.776-.57a.694.694,0,0,1,0-.741c.228-.228-.342-.456-.513-.684a1.939,1.939,0,0,1-.057-.57c0-.171.342-.057.285-.285a2.469,2.469,0,0,0-.057-.285.554.554,0,0,0-.057-.513c-.171-.171-.114-.342.057-.513a.654.654,0,0,0,.057-.57.487.487,0,0,1,0-.4,1.287,1.287,0,0,0-.114-1.2,1.035,1.035,0,0,1,0-1.14.727.727,0,0,0,0-.684.52.52,0,0,1,0-.684l.114-.456a.269.269,0,0,0-.057-.342c-.228-.171-.171-.342,0-.513a.446.446,0,0,0,.057-.456.786.786,0,0,1,0-.513,1.057,1.057,0,0,0-.114-1.083.855.855,0,0,1,0-1.026.605.605,0,0,0-.114-.741.944.944,0,0,1,0-.684l.228-.513c.114-.171.171-.285-.057-.456a.3.3,0,0,1-.057-.456c.114-.171.285-.342.171-.57a.2.2,0,0,1,.114-.057h.171l.4-.171c-.114-.228-.228-.057-.4,0-.228.057-.285,0-.228-.228a1.1,1.1,0,0,0,0-.741c-.057-.228,0-.513-.171-.684a.209.209,0,0,1-.057-.171v-.171c.057,0,.057.057.114.057a.81.81,0,0,0,.342.114,2.469,2.469,0,0,0,.285-.057c-.057-.057-.114-.114-.171-.114-.4-.057-.57-.342-.4-.684.057-.114,0-.342.285-.4.114,0-.057-.4-.228-.513-.228-.114-.228-.228-.114-.456l.171-.513a.338.338,0,0,0-.057-.4.366.366,0,0,1-.057-.513.654.654,0,0,0,.057-.57.624.624,0,0,1,0-.456,1.207,1.207,0,0,0-.114-1.083.942.942,0,0,1,0-1.083.692.692,0,0,0-.057-.741c-.171-.228-.057-.456,0-.684l.171-.513a.43.43,0,0,0-.057-.456.3.3,0,0,1,0-.456.554.554,0,0,0,.057-.513,1.087,1.087,0,0,1,.114-.741.123.123,0,0,1,.114-.114h.228c-.057-.171-.114-.285-.342-.285v-.171a2.382,2.382,0,0,1-.228-.57.974.974,0,0,1,0-.8c.171-.4-.228-.855,2.223-2.166,1.083.456,2.565-.4,3.648.57l.285.171.342.342a1,1,0,0,1,.342,1.14v.171c-.057.513-.057.513.456.741a14.284,14.284,0,0,1,.741,1.6,7.22,7.22,0,0,0,.342,1.026l.4,1.2c0,.057.057.114.114.171,0,.171.057.342.057.513a1.205,1.205,0,0,0,.342.969,2.025,2.025,0,0,1,.228.513c.114.228.114.4-.171.456-.114,0-.057.114,0,.114.285.057.342.285.4.456a1.372,1.372,0,0,0,.342.456,1.192,1.192,0,0,1,.228.342l.969,2.565.342,1.368v.228c-.057.228-.057.4.171.513.057.057.171.171.171.228,0,.4.285.684.456,1.026.057.285.228.57.114.855,0,.057.057.114.114.171a4.688,4.688,0,0,1,1.083,1.026c.057.171.228.4.171.456-.171.285-.057.342.171.456.057,0,.114.114.114.171C57.57-13.053,58.14-12.141,58.083-11.8Zm-7.695-7.809c.342-1.425-1.14-1.311-.684-.855l.57.855c0,.057.057.057.114.057a.2.2,0,0,0,.057-.114Zm1.254,2.394c0-.171-.342-.456-.57-.456-.114.114-.342.228-.4.342-.057.171.228,0,.285.114l.171.171a.218.218,0,0,0,.285-.171ZM44.46-3.021c-.285.114-.741,0-.8.456.057,0,.114-.057.171-.057.4.057.627-.228.969-.342v-.057a.2.2,0,0,0-.114-.057C44.631-3.078,44.517-3.021,44.46-3.021ZM60.42-30.894a.762.762,0,0,0-.4-.456c0,.057-.057.114-.057.171a1.111,1.111,0,0,0,.057.456l.171.285.228-.285ZM45.657-13.908l-.57-.114c-.228-.057-.4.057-.627.228-.057.057-.114.114-.114.171s.057.057.171.114l.57-.342Zm.513-2.223c.57-.171.57-.285.57-.342-.057,0-.114-.057-.171-.057a1.185,1.185,0,0,1-.627.057c-.057,0-.114.057-.228.114l.228.171h.228Zm.456-8.436c-.114.342,0,.456.342.456.057,0,.171-.057.228-.057v-.114c-.228-.114-.342-.228-.342-.456H46.74a.209.209,0,0,0-.057.171Zm-.741,9.177c.114-.057.171,0,.228.114a.81.81,0,0,0,.114.342v-.684c-.057-.114,0-.4-.228-.342-.114.057-.114.342-.171.513,0,.057.057.114.057.171Zm-.228-4.731h-.57l-.057.057.684.342a.281.281,0,0,0,.171-.057Zm14.079,6.954a.209.209,0,0,0,.228.228c.114,0,.342,0,.342-.171,0-.057-.171-.114-.228-.171v-.114c-.171-.057-.228.057-.228.171ZM57.969-4.788c.114-.114.228-.285.513-.171L58.254-5.3c-.228.057-.342.285-.456.456,0,.057.057.114.057.171h.114ZM47.709-7.011a2.137,2.137,0,0,0,.057-.627c-.342.114-.171.456-.4.57l.171.171S47.709-6.954,47.709-7.011ZM62.016-23.94v-.114c0-.057-.057-.114-.057-.171h-.114l-.4.342v.057l.114.057.513-.171ZM45.087-18.069a3.336,3.336,0,0,0,.741.114c.057,0,.114-.057.171-.057l-.171-.171a4.334,4.334,0,0,1-.8.057Zm3.99-11,.171.171c.057.057.114.114.171.114a.25.25,0,0,1,.171-.057v-.171c-.114-.114-.171-.171-.342-.057ZM61.1-15.276c-.057,0-.114.114-.171.171l.171.228a1.192,1.192,0,0,1,.342-.228C61.332-15.162,61.218-15.276,61.1-15.276ZM47.025-4.047a.3.3,0,0,0,.228-.114h-.4l-.342.171c.171.171.285,0,.4,0h.228Zm12.825-20.8-.171-.171-.228.342c.057,0,.114.057.228.057.057,0,.114-.057.171-.114Zm-5.586,6.27c.057-.057.228-.057.114-.171-.057-.057-.228,0-.285.057l-.228.171.171.114.171-.171Zm7.923,5.529c-.171-.114-.228,0-.285.114v.171a.209.209,0,0,0,.171-.057c.114,0,.171-.057.228-.057v-.057ZM46.4.456a1.511,1.511,0,0,1-.342-.285c.114,0,.171.057.228.057h.4A.2.2,0,0,1,46.4.4Zm14.421-13.11a.661.661,0,0,0,.57-.228v-.057l-.57.171ZM44.688-.57l.171-.342a.177.177,0,0,1-.057-.114h-.057L44.517-.8v.114h.171Zm.969-4.047s-.57,0-.57-.057V-4.5h.57ZM60.705-31.749l-.171.171a.2.2,0,0,1,.057.114l.4-.171-.171-.114Zm-7.068,9.861c-.057,0-.114.114-.171.171l.171.171c.057-.057.114-.114.114-.171a.209.209,0,0,0-.228-.228ZM57.627-7.7a.2.2,0,0,1,.057.114l.342-.228a.2.2,0,0,1-.057-.114,1.429,1.429,0,0,0-.4.228ZM46.968-31.749a.209.209,0,0,0-.057.171.3.3,0,0,0,.228.114l.114-.114-.228-.171Zm13.965,5.3h-.114c-.057.057-.114.114-.114.171a.2.2,0,0,0,.114.057h.114c.057-.057.114-.114.114-.171a.177.177,0,0,1-.057-.114ZM60.591-2l.114-.114c-.057-.057-.114-.114-.171-.114s-.114.114-.171.171l.171.171ZM47.139-27.018h-.114c-.057,0-.114.057-.171.114v.057h.171c.114,0,.171-.057.228-.057v-.057Zm12.54,5.3.114-.114L59.565-22a.209.209,0,0,1-.171.057ZM61.446-1.6a.3.3,0,0,0,.228-.114.3.3,0,0,0-.228-.114c-.057,0-.114.057-.171.057.057,0,.114.057.171.057ZM47.139-17.613h.171a1.057,1.057,0,0,0-.4-.114.2.2,0,0,1-.114.057c.057.057.114.114.171.114ZM61.788-4.332l.171-.171c-.057,0-.114-.057-.171-.057l-.228.171a.209.209,0,0,1,.171.057Zm-2.736-9.519c.057-.057.114-.114.114-.171l-.057-.057c-.057,0-.171.057-.228.057a.209.209,0,0,0,.057.171ZM47.481-.057A.2.2,0,0,1,47.6-.114l-.171-.228-.114.114c0,.057.057.114.114.171Zm3.648-22.572c-.057,0-.114.057-.171.057.057.057.057.114.114.114H51.3Q51.215-22.629,51.129-22.629ZM46.854-3.021c.057,0,.114-.057.171-.114-.057-.057-.114-.114-.171-.114s-.114.057-.171.114c.057,0,.114.057.171.057Zm1.083-8.037a.706.706,0,0,1,.171-.114c-.057-.057-.114-.114-.171-.114s-.114.057-.171.057ZM49.248-23.2h-.171l-.228.171a.25.25,0,0,1,.171.057Zm2.964-2.793-.228.171a.432.432,0,0,0,.228.114l.057-.057c0-.057-.057-.057-.114-.114Zm-1.2-2.109a.123.123,0,0,0-.114.114c0,.057.057.114.057.171l.171-.171Zm8.322,2.337c-.057.114-.057.228.057.285l.114-.114Zm1.14,20.52a.2.2,0,0,1-.057-.114l-.228.171.114.114ZM60.42-32.376l-.228.171.114.057c.057,0,.114-.057.171-.114l-.057-.057Zm.57,1.71v-.171l-.228-.171-.057.057.228.171ZM47.937-9.747h-.171l.171.171h.114v-.057ZM55.86-6.213a.209.209,0,0,0,.171.057c0-.057.057-.114.057-.171l-.057-.057Zm1.6-1.14v.342c.057-.057.114-.114.114-.171s-.057-.114-.057-.171ZM50.331-29.982V-30.1H50.1v.114Zm-5.586,3.249a.431.431,0,0,0-.228.057v.057h.228Zm15.618-.684c-.057.057-.057.114-.171.114.114.057.114.114.114.114h.114C60.42-27.246,60.363-27.3,60.363-27.417ZM59.337-30.1l-.057.057.171.171.057-.057ZM44.175-15.276c-.057,0-.114.057-.171.114h.171c.057,0,.057-.057.114-.114ZM58.824-4.845l-.171-.171v.171ZM53.58-18.7l.114.057.114-.114h-.171ZM46.17-7.866c.057,0,.114-.057.171-.057h-.285c.057.057.114.114.171.114ZM49.989-19.38h-.057v-.114a.056.056,0,0,0,.057.057Zm4.5,11.742h-.057v.057h.057ZM71.364-27.474a.375.375,0,0,1,.171-.513l.057-.171a.209.209,0,0,0,.057-.171c.057,0,.114-.057.171-.114l.171-.285.8-.684c.114-.114.057-.228-.057-.285.171,0,.285-.057.456-.057a9.383,9.383,0,0,1,1.2-.114,1.424,1.424,0,0,1,1.083.456,2.742,2.742,0,0,0,.627.513.705.705,0,0,0,.513.627v.057l.342.855v-.057c0,.057.057.114.057.171l.114.114a1.165,1.165,0,0,1,.285.513,1.046,1.046,0,0,0,1.2.741,1.417,1.417,0,0,1,.456.057,2.562,2.562,0,0,0,1.14,0,1.392,1.392,0,0,0,.4-.057,2.143,2.143,0,0,0,1.824-.912h-.057c.171-.285.285-.456-.057-.684-.057-.057,0-.171,0-.285a1.79,1.79,0,0,0-.228-1.14c-.228-.171-.171-.228-.171-.4a1.843,1.843,0,0,0-.171-.912l-.171-.4a1.972,1.972,0,0,0-.57-.627c-.285-.114-.456-.228-.4-.456a.824.824,0,0,0-.114-.4A8.959,8.959,0,0,0,79-33.174a.444.444,0,0,1-.4-.171,1.013,1.013,0,0,0-.57-.228L77.8-33.8c0-.057-.171-.114-.228-.114s-.057-.057-.114-.057a1.947,1.947,0,0,0-.969-.171.759.759,0,0,0-.513-.171,2.049,2.049,0,0,1-.627-.114c-.285-.114-.4-.057-.684.114-.114.057-.285.114-.342.057a1.384,1.384,0,0,0-1.254.057h-.228a1.76,1.76,0,0,0-.627.114.2.2,0,0,0-.114.057,1.932,1.932,0,0,0-1.14.342,1.432,1.432,0,0,1-.8.342,1.5,1.5,0,0,0-.912.4l-.285.228-.114.114c0,.285,0,.4.171.456-.171,0-.228,0-.285-.057a.882.882,0,0,0-.627.171,8.9,8.9,0,0,0-.741.741h.057l-.171.285a2.2,2.2,0,0,0-.627,1.254,2.354,2.354,0,0,1-.4.627,5.544,5.544,0,0,0-.285,1.14c.114.171.114.228.114.285v.114c-.285.228-.285.285-.171.342.114.171.114.342,0,.4-.285.228-.228.285-.171.456v-.057c0,.057.057.114.057.171a.759.759,0,0,0,.171.285v.057c-.456.171-.4.456-.285.684,0,.171.114.171.114.171-.114.228-.114.342.114.513a.614.614,0,0,1,.114.456,2.888,2.888,0,0,0,.114.741.305.305,0,0,0,.285.285c.171.057.285.285.342.456.057.285.114.513.228.57-.114.171-.171.285-.057.456a.427.427,0,0,1,.057.285c.114.285.114.456.456.627l.342.57c.057.114.171.114.285.057a1,1,0,0,0-.057.285l.57.912a.655.655,0,0,0,.513.342.177.177,0,0,0-.057.114l.057.114.4.342a4.962,4.962,0,0,0,.627.513c.057.057.171,0,.228-.057s.114,0,.171.057a.178.178,0,0,0,0,.342,1.671,1.671,0,0,1,.57.513.54.54,0,0,0,.456.513c.114.057.171.057.228.171a.857.857,0,0,0,.513.4l.171.171c0,.228-.228.4.171.513l-.057-.057.4.285.114.228a.629.629,0,0,0,.171.4.737.737,0,0,1,.513.342l.513.57a.3.3,0,0,0,.456-.171h.057c-.285.342-.285.57.057,1.026l.513.513a3.173,3.173,0,0,1,.513.741c0,.171.228.228.342.228a.694.694,0,0,0,.285.684l.057.114a.487.487,0,0,0,.171.342l.057.114.114.4.228.342a2.88,2.88,0,0,1,0,2.28l-.228.513a.431.431,0,0,0-.057.228c0,.057-.057.114-.057.171s0,0-.057.057-.171.171-.171.228a1.192,1.192,0,0,0-.228.342l-.057.114a.2.2,0,0,0-.114.057c-.057-.057-.171-.171-.456.057l-.342.171a.869.869,0,0,0-.57.342.177.177,0,0,1-.114.057c-.171,0-.342.057-.456.057A.715.715,0,0,1,73.7-4.1a.614.614,0,0,0-.456-.114.963.963,0,0,1-.342.171.963.963,0,0,1-.285-.114l-.171-.171-.285-.228-.228-.171-.741-1.026.057.057c-.114-.171-.228-.342-.513-.171,0-.057-.057,0-.057-.057,0-.171-.114-.228-.171-.342-.114-.057-.171-.228-.228-.4v.057a3.228,3.228,0,0,1-.171-1.026,1.072,1.072,0,0,0-.456-.969,2.826,2.826,0,0,0-1.14-.456c-.114,0-.171-.057-.342-.057a.65.65,0,0,0-.342.171.366.366,0,0,1-.513.057l.057.057c-.285-.171-.456-.228-.684-.114a.514.514,0,0,1-.285.057c-.114,0-.285.057-.342.057-.4.057-.57.114-.684.456,0,.114-.057.114-.057.114-.57.4-.57.456-.4.912a.431.431,0,0,1,.057.228c.114.4.285.684.114,1.026a.561.561,0,0,0,.171.456,12.88,12.88,0,0,0,.855,2.337c0,.114.057.171.171.228l-.057-.114.114.171c0,.114.057.171.228.171,0,.342,0,.513.171.57a1.626,1.626,0,0,1,.456.4,4.606,4.606,0,0,0,.912.912.925.925,0,0,0,.513.285l-.171.228a.16.16,0,0,0,.285.114l.228-.171a.2.2,0,0,0,.057-.114,1.076,1.076,0,0,0,.741.57l.8.285V.4l.057-.057A.056.056,0,0,0,70.68.4l.057-.171a9.666,9.666,0,0,0,1.254.228c.513.057,1.2.057,1.71.057a2.849,2.849,0,0,0,.627-.057l-.057.057C74.442.456,74.5.4,74.5.342c.057.057.228.057.456.057A7.108,7.108,0,0,0,76.836.114a.638.638,0,0,0,.456-.4c.057.228.228.228.513.114a1.022,1.022,0,0,1,.4-.285l.4-.228a1.59,1.59,0,0,0,.513-.285l.8-.684.855-.741c.057-.057.228-.171.228-.285,0-.057,0-.057.057-.114l.627-.8c0-.114.114-.285.114-.4a.954.954,0,0,1,.456-.627l.171-.912.228-.855a3.011,3.011,0,0,0,.057-.741v-.228c0-.171.114-.342.114-.57v-.228l.057-.228c0-.057-.057-.057-.057-.114s-.114-.171-.114-.285l.114-.057h-.114a8.717,8.717,0,0,0-.4-1.653c0-.057-.057-.114-.057-.171-.171-.342-.228-.741-.57-.969a1.138,1.138,0,0,0-.114-.513l-.285-.4-.684-.969c-.4-.513-.8-1.026-1.254-1.539L78.2-16.131c-.114-.114-.171.057-.4-.171l-.228-.171a.705.705,0,0,1-.171-.114c0-.171-.171-.342-.342-.456a5.681,5.681,0,0,1-1.14-1.2l-.285-.228-.171-.228a.2.2,0,0,0-.114-.057c-.171,0-.171,0-.171-.057a1.074,1.074,0,0,0-.114-.456,1.617,1.617,0,0,0-.57-.513l-.228-.228-.228-.285v.057a3.461,3.461,0,0,0-.4-.57l-.057-.057c0-.171-.114-.228-.171-.342l-.4-.171c-.057,0-.114,0-.114-.057l-.171-.228-.4-.456a.441.441,0,0,1,.057-.171c.114-.228,0-.4-.171-.57a.687.687,0,0,1-.285-.285c-.057-.228-.228-.4-.627-.4-.057,0-.057-.057,0-.114,0-.342.171-.342.285-.456.228-.228.342-.456.171-.741-.114-.057-.171-.171-.4-.171l-.057.057a1.762,1.762,0,0,1-.114-.456v-.456C71.649-26.391,71.364-26.79,71.364-27.474Zm-1.881,1.083c0-.057.171-.057.228-.057a.209.209,0,0,1-.057.171c-.171.228,0,.342.171.4.057,0,.114.057.171.057-.057,0-.114.057-.171.057h-.171c-.228-.057-.228.057-.228.228v.969c0,.057-.057.114-.114.171v-.114c-2.337-1.938-.342-.855.114-1.767ZM79.914-8.778c.8,0,0,.627,0,.741v.969c0,.057-.057.114-.114.171l-.912.342ZM79-10.6a2.861,2.861,0,0,1,.684.114l-.8.171-.171-.171c.057,0,.114-.057.171-.057ZM68.514-28.1a2.861,2.861,0,0,1,.684.114l-.741.171-.228-.171c.114,0,.171-.057.228-.057ZM79.8-3.42c-.057,0-.057-.057-.057-.114l.456.228c.114.057.114,0,.114.057-.114.057-.114.057-.171.057a2.469,2.469,0,0,1-.285-.057C79.857-3.306,79.8-3.363,79.8-3.42ZM66.747-3.477l.342.285-.228.171h-.114l.114-.228C66.861-3.306,66.8-3.363,66.747-3.477Zm.114.228c.057,0,.057,0,.057-.057Zm34.542-29.7-.057-.114c-.285-.057-.4-.456-.8-.4-.057,0-.114-.114-.171-.171l.171-.171a.209.209,0,0,1,.171-.057c-.057-.057-.114-.114-.171-.114-.171,0-.4-.057-.513,0a.724.724,0,0,1-.684,0,1.259,1.259,0,0,0-.912,0,.74.74,0,0,1-.57.114c-.057,0-.171,0-.114.114,0,.057.171.114,0,.171s-.342.171-.4,0c-.057-.285-.285-.228-.513-.228a4.9,4.9,0,0,0-.912-.057,1.757,1.757,0,0,1-.57-.057,7.643,7.643,0,0,0-2.28,0,.785.785,0,0,1-.627,0,.953.953,0,0,0-.684.057,2.531,2.531,0,0,1-1.14.057c-.4,0-.855-.057-1.311-.057a2.138,2.138,0,0,1-.57-.057,7.115,7.115,0,0,0-2.451.057c-.057,0-.171.057-.228,0-.456-.228-.8-.057-1.254.057a.83.83,0,0,0-.513.342l-.285.684a.855.855,0,0,1,0,1.026v.171a1.5,1.5,0,0,0,.855,1.482,1.68,1.68,0,0,0,.741.285h2.109c.171,0,.285,0,.285-.228,0-.057.057-.114.114-.171,0,.057.057.114.057.171-.114.228.057.285.285.342l.57.228a1.093,1.093,0,0,1,.912,1.083,1.664,1.664,0,0,0,.114.513c0,.057.228.114.228.171a4.4,4.4,0,0,1-.114.855c0,.114-.114.228-.114.342a7,7,0,0,0,.114,1.539,2.159,2.159,0,0,1,0,.855.97.97,0,0,0,.057.4.446.446,0,0,1,.057.456.81.81,0,0,0-.114.342v1.026a.723.723,0,0,0,.057.342.366.366,0,0,1,.057.513c-.228.285-.114.627-.114.969,0,.057.057.114.057.171.057,0,.114-.057.171-.057a.82.82,0,0,1,.171-.114c.057.114.228.228.228.342s-.171.057-.285,0c-.228-.057-.342.057-.342.285s.057.456.057.684-.057.456-.057.684a.427.427,0,0,0,.057.285c.171.171.114.342,0,.513a2.672,2.672,0,0,0,0,1.881.487.487,0,0,1,0,.4A1.694,1.694,0,0,0,90-13.965a10.381,10.381,0,0,1,.057,1.881.537.537,0,0,0,.228.513.259.259,0,0,1,0,.285.678.678,0,0,0-.228.627c.114.4-.114.855.171,1.254.285.456-.228.8-.057,1.254a9.207,9.207,0,0,1,0,1.254c0,.171.057.342.057.513-.057.342-.228.684.114.969.057.057,0,.171,0,.228l-.171.342a.574.574,0,0,0,.057.171c.171,0,.228.057.114.171-.171.114-.285.228-.285.4.114.342-.057.684.228.969.057.057,0,.228-.057.342a1.893,1.893,0,0,0-.057,1.368A1.4,1.4,0,0,0,91.257-.171a1.493,1.493,0,0,0,.855-.057,4.038,4.038,0,0,1,.8.057.574.574,0,0,0,.057-.171c0-.057-.057-.114-.057-.171V-.684c.057,0,.114,0,.114.057a.753.753,0,0,0,1.083.285.767.767,0,0,0,.684-.285,1.374,1.374,0,0,0,.4-1.026,2.356,2.356,0,0,0-.114-1.083c-.171-.4.228-.684.114-1.026-.114-.114,0-.228-.114-.342,0-.057-.114-.114-.114-.114-.171.114-.228,0-.285-.114V-4.5h.342c.057-.342.285-.684.057-1.026a.427.427,0,0,1-.057-.285,8.429,8.429,0,0,0,.057-2.394c0-.171-.285-.4-.285-.57s.285-.285.228-.513a4.314,4.314,0,0,1-.057-.855v-.513c0-.171.057-.342.057-.513v-2.907c0-.171.057-.342-.114-.513a.173.173,0,0,1,0-.228,6.713,6.713,0,0,0,.171-2.394V-19.95c0-.228.114-.456-.114-.627a.343.343,0,0,1-.057-.228,1.642,1.642,0,0,0,.057-1.368.97.97,0,0,1-.057-.4c0-.342.057-.684.057-1.026v-2.394c0-.285.114-.57-.114-.8V-26.9a8.848,8.848,0,0,1,.228-1.2c.114-.114.228-.228-.057-.285-.114-.057,0-.342.171-.285.228.114.285-.057.4-.171v-.171h.228l.741-.513c.57.057,1.482.057,1.026-.456.57,0,.4.114,1.311.285.171,0,.285-.057.4-.057h.171a1.276,1.276,0,0,0,1.653-1.2,6.2,6.2,0,0,1,.057-1.026c.057-.342-.171-.684,0-1.026Zm-1.938.4c0,.057-.114.114-.171.114a2.025,2.025,0,0,1-.57-.114c-.057,0-.057-.114-.114-.171.057-.057.114-.114.171-.114h.285c.171.057.4.171.4-.171h.171a.419.419,0,0,1-.114.342ZM85.272-30.723c-.456-.114-.57-.456-.342-.741a.427.427,0,0,1,.285-.057v.171c-.171.171-.171.285.057.4.057,0,.114.057.171.114C85.386-30.78,85.329-30.723,85.272-30.723Zm7.467,4.446-.342.228c-.057-.114-.114-.171-.114-.228l.171-.285.4-.285c.057,0,0,.342-.228.513Zm-1.254,5.358v.171l-.285.228-.114-.057v-.342h.057l.171-.171.228.171ZM91.2-13.167c-.057,0-.114-.057-.171-.057.057-.057.114-.114.171-.114v.114c0-.057.057-.057.057-.114a.432.432,0,0,0,.228-.114l.228.171c-.114.057-.171.171-.285.171l.057.114C91.314-13,91.2-13,91.2-13.167ZM92-.57,91.884-.8l.342-.171c.057,0,.114.114.228.228Zm.285-3.819h-.342v-.057l.228-.171a.343.343,0,0,1,.228-.057.177.177,0,0,0,.057.114Zm.228-26.22.228-.171h.171v.171l-.171.171v-.171ZM91.542-7.182l-.228.171v-.171l.228-.171c.057.057.114.114.114.171Zm3.021-25.764c-.114,0-.171-.057-.228-.057l.228-.171c.057.057.114.114.114.171a.2.2,0,0,1-.057.114Zm-2.337,26.5L92-6.1h-.114l-.057-.057.342-.285Zm-.912-11.115c.114,0,.171-.057.228-.057s.114.057.171.114c-.057.057-.114.114-.171.114s-.057-.057-.114-.114Zm3.249-3.933c.057-.057.114-.114.171-.114s.114.057.171.057v.171a.209.209,0,0,0-.171-.057Zm-3.762-7.3a.2.2,0,0,0,.114.057.3.3,0,0,1-.228.114.2.2,0,0,0-.114-.057l.114-.171Zm.8,13.68c.057,0,.114.057.171.114l-.171.171a.209.209,0,0,0-.171-.057c.057-.057.114-.114.171-.114Zm.228,12.426c.057,0,.114-.057.171-.057.114,0,.114.057.171.114L92-2.508l-.114-.171Zm-.969-4.959h.171c.057.057.114.114.114.171a.056.056,0,0,1-.057.057h-.057Zm2.679-25.137a.209.209,0,0,0,.057.171.209.209,0,0,1-.171.057c0-.057-.057-.114-.057-.171s.057-.057.114-.057Zm-1.2,15.618c0-.057.057-.114.114-.171l.114.114-.171.171L92.34-17.1Zm2.508-2.28c.057,0,.114.057.171.114a.177.177,0,0,0-.057.114c-.057,0-.114-.057-.171-.114A.2.2,0,0,1,94.848-19.437Zm.171-10.2-.171-.171.057-.057.171.171v.057Zm-4.5-.4H90.4v-.171h.114Zm1.995,24.4V-5.7h.228c-.114.057-.114.114-.114.114h-.171Zm0,.228v-.057h.057v.057ZM94.9-27.759v-.057h.057ZM108.756-9.576c.057,0,.057-.057.171-.114a3.266,3.266,0,0,1,2.337-.684h.4c.228-.057.228-.114.171-.342l-.171-.684h.114a2.45,2.45,0,0,1,.114.684v.171a1.419,1.419,0,0,1,.4,1.083c0,.057,0,.171.057.171a.372.372,0,0,1,.114.456c0,.171-.057.228.114.342.114,0,.114.228.114.342l.171.741c.057.228,0,.456.228.627.057.057-.057.228-.057.342.114.513.456.855.513,1.368.171.114.114.228,0,.342-.057.057,0,.171,0,.171.285-.114.228,0,.228.114l.057.456.741,1.539.228.513a.62.62,0,0,1-.057.285c-.285.228-.114.4.057.627h.171c.285-.057.342.114.4.228.057.171.114.456.342.513a3.467,3.467,0,0,0,1.311.171,9.253,9.253,0,0,1,1.2-.057h.228c.285.171.456,0,.684-.114a1.192,1.192,0,0,1,.228-.342c.171-.057.171-.171.171-.342l1.026.114a6.4,6.4,0,0,0-.456-1.482c-.114-.171-.342.114-.228-.228,0-.057-.057-.114-.114-.171-.228-.228-.342-.342-.228-.57v-.171c-.057-.228-.228-.456-.285-.684a1.939,1.939,0,0,0-.057-.57l-.4-.969a7.434,7.434,0,0,0-.57-1.425.343.343,0,0,1-.057-.228,1.342,1.342,0,0,0-.114-.456c-1.482-2.565-.627-3.42-1.368-4.275a1.812,1.812,0,0,1,.57-.57c.912-1.083.969-1.2.969-1.254-.057-.228,1.482-2.508,1.425-2.622-.57-2,1.083-3.078.627-5.7l.057-.057a.363.363,0,0,1,0-.342,4.687,4.687,0,0,0,.114-1.539v-.114c-.285-.171-.171-.4-.114-.627l.171-.513a.343.343,0,0,0-.057-.228c-.057-.057-.171-.057-.171-.114-.114-.114.057-.114.171-.114a.574.574,0,0,0,.057-.171l-.513-1.2c0-.057-.057-.171-.057-.228.114-.513-.4-.969-.57-1.425a.81.81,0,0,1-.114-.342,1.328,1.328,0,0,0-.4-.855c-.114-.228-.057-.627-.456-.684v-.114l-.228-.342c-.057-.114-.228-.171-.285-.285a3.4,3.4,0,0,0-1.254-.912l-.57-.285a1.733,1.733,0,0,1-1.083-.4c-.228-.228-.171-.285-.513-.285-.228,0-.342,0-.456-.171a.36.36,0,0,0-.4-.057.939.939,0,0,1-1.14-.057c-.057-.057-.114-.114-.171-.114-.342.114-.57-.171-.912-.171-.114,0-.228-.057-.342,0-.456.228-.912.057-1.311.114a4.9,4.9,0,0,1-.912.057c-.114,0-.228-.057-.342-.057a1.939,1.939,0,0,1-.57-.057,6.206,6.206,0,0,0-2.052-.057,4.313,4.313,0,0,1-1.482,0,.343.343,0,0,0-.228-.057c-.57.114-1.2.228-1.311.855a.428.428,0,0,0,0,.513.724.724,0,0,1,.228.4c0,.114-.171.228-.228.342a.81.81,0,0,0-.114.342c0,1.14.4,2.052.057,3.021v.171a.69.69,0,0,1,.114.8l-.171.342a.537.537,0,0,0,.114.684.6.6,0,0,1,0,.684.775.775,0,0,0-.057.969,2.522,2.522,0,0,1,.285.855c.057.228.114.228.342.228.171.057.171.171.114.228-.114.171-.228.114-.4,0-.114-.114-.114,0-.114.114a1.835,1.835,0,0,1-.057.969c-.057.114-.171.285,0,.4a.357.357,0,0,1,.114.456l-.114.342a.8.8,0,0,0,0,.8c.342.684-.285,1.2,0,1.881.114.171.171.4.342.627.057.114.057.228-.114.342a.621.621,0,0,0-.114.627c.114.4-.342.8-.057,1.083.171.171.114.342.057.513l-.171.513a.944.944,0,0,0,0,.684.981.981,0,0,1,.057.8,1.329,1.329,0,0,0,0,1.14c.114.228.342.513.171.8-.342.912,0,1.6-.171,2.394A3.174,3.174,0,0,0,103-8.037a1.578,1.578,0,0,1-.057.513,1.331,1.331,0,0,0,0,1.14c.171.4.4.8.114,1.254a.427.427,0,0,0-.057.285.844.844,0,0,1-.114.741.214.214,0,0,0,0,.342.454.454,0,0,1,.114.513l-.171.513c-.057.228-.228.456.057.627a.209.209,0,0,1,.057.171l-.171.513c0,.114-.057.228-.057.342.171.741,1.254,1.14,2.109,1.14.513,0,1.026-.057,1.482-.057a.845.845,0,0,1,.4.057c.627.228,1.368-.456,1.482-.912a7.331,7.331,0,0,0,.171-2.223c0-.114-.057-.171-.228-.171a.419.419,0,0,0,.228-.456c-.057-.969-.171-1.938-.171-2.907S108.072-8.892,108.756-9.576Zm6.669-12.882a.427.427,0,0,0,.057.285.324.324,0,0,1-.114.513c-.513.342.171,1.938-.057,2.451L113.43-15.5a2.533,2.533,0,0,1-1.368.513h-.4c-.342.057-.4.285-.171.513a.209.209,0,0,1,.057.171.343.343,0,0,1-.228-.057c-.456-.4-1.539-.4-2.109-.627H109.1v.057c.057.057.114.057.114.114v.114H109.1c-.171-.114-.513-.114-.456-.456a.432.432,0,0,0-.114-.228c-.114-.171-.057.057-.057.057l-.342-5.244c0-.114,0-.228-.171-.228a2.539,2.539,0,0,0,.171-1.311c0-.57,0-1.14-.057-1.767-.057-.684.057-1.368.057-2.052v-2.394a1.272,1.272,0,0,1,.342-.741l.228-.456c.057-.114.228-.114.342-.171.8-.342,1.539.114,2.28.171,2.565.228,1.995,1.311,2.736,1.539a.461.461,0,0,1,.228.627c-.114.285.57.513.684.741-.057,0-.114.057-.057.114l.57.684a.824.824,0,0,0-.4-.114c-.114,0-.228.057-.228.171l.627,2.052c.114.228.342.456.342.627s-.228.342-.228.57Zm-9.462,3.648c0-.057.114-.057.171-.057a.209.209,0,0,1-.057.171c-.114.228,0,.342.171.4a.2.2,0,0,0,.114.057.177.177,0,0,1-.114.057h-.171c-.171-.057-.171.057-.171.228v.969q0,.086-.171.171v-.114l-1.026-1.14c-.057,0-.057,0-.057-.057v-.114c0-.057.057-.114.171-.114.228-.057.912-.114,1.083-.342Zm3.42-14.136a.9.9,0,0,1,.4-.4c.57-.228.627-.228.8.285h-.114c-.114-.171-.228-.228-.4.057a.569.569,0,0,1-.285.228c-.057.057-.171.057-.171,0A.305.305,0,0,1,109.44-33ZM103.455-7.41v-.114h.114l.171.171.4.513v.171a.62.62,0,0,1-.285-.057l-.513-.513Zm8.094-25.479a2.047,2.047,0,0,1,.57-.4h.057a.177.177,0,0,0,.057.114l-.57.684h-.114c-.057,0-.171-.057-.171-.114,0-.114,0-.228.114-.285ZM106.305-33c.171,0,.285-.171.4-.228h.114a.056.056,0,0,1,.057.057l-.57.627a.432.432,0,0,1-.228.114c-.057,0-.057-.114-.057-.171v-.114c-.057-.228.057-.228.228-.228ZM119.3-24l-.114-.057c-.057-.342-.456-.57-.4-1.083a.177.177,0,0,0,.114.057,1.625,1.625,0,0,1,.456.8c0,.057-.057.114-.114.171ZM103.74-1.539h-.114a.209.209,0,0,1-.171-.057.432.432,0,0,1-.114-.228.309.309,0,0,1,.456-.228l.228.228-.4.171Zm1.881-3.819.057-.057c.912.114-.513.513-.684.114ZM104.31-3.933a.723.723,0,0,1-.342-.057.3.3,0,0,1-.228-.114c.057,0,.114-.057.228-.057h.342c.114,0,.285,0,.342.057.057,0-.228.228-.342.228Zm-.228-4.959c-.114.057-.285.171-.456.057v-.114l.57-.171c.057,0,.114.057.171.114-.114.114-.171.171-.228.171Zm.855-11.628a2.861,2.861,0,0,1,.684.114l-.741.171-.171-.171c.057,0,.114-.057.171-.057Zm.684-8.208.114.114-.171.228-.627-.114c0-.057.57-.114.627-.228Zm7.752-2.394a.723.723,0,0,1,.342-.057c.057,0,.114.057.228.057v.114l-.4.171a.2.2,0,0,1-.114-.057c0-.057,0-.171.057-.171Zm-5.358,1.254v-.171a.81.81,0,0,1,.114-.342c.057.057.228.114.228.228,0,.057-.171.171-.228.285,0,.057-.057.057-.114.057H107.9Zm1.254-1.881.171.456a.2.2,0,0,1-.114.057h-.114l-.171-.342a.177.177,0,0,0,.114-.057ZM109.1-11.97c-.171.057-.4.171-.57.057v-.057l.513-.171a.431.431,0,0,0,.228.057C109.212-12.027,109.155-11.97,109.1-11.97Zm2.679-.057h-.456v-.057l.8-.171.057.057v.057C111.948-12.084,111.834-12.084,111.777-12.027Zm.513-18.3c-.057,0-.114.057-.171.057-.171,0-.285-.114-.228-.228,0-.057.057-.057.171-.114l.171.228Zm-8.949,16.131a.209.209,0,0,1,.171-.057c0,.057.057.114.057.171s-.057.114-.114.171l-.171.171v-.171c.057-.114.057-.228.114-.285Zm2.28-15.105h-.684v-.114h.684ZM108.7-13.623c0-.171.228-.114.342-.114-.057.114-.057.285-.285.228Zm-4.047-.342-.285.228-.114-.114.285-.171A.2.2,0,0,0,104.652-13.965ZM110.3-31.806l-.057.057h-.114a.313.313,0,0,1-.171-.285Zm5.757,6.783-.171-.171.114-.114.171.171Zm-4.56,13.338c0,.057,0,.114-.114.171h-.057v-.114l.228-.171h.171Zm-5.358,9.063h-.114v-.171h.171v.342ZM104.88-9.747c-.057,0-.114.057-.171.057s-.057-.057-.114-.114c.057,0,.114-.057.171-.057s.114.057.171.114ZM107.388-3.7c-.057-.057-.114-.114-.114-.171l.114-.114c.057.057.114.114.114.171h-.114Zm8.721-25.08v-.228l.114.114c0,.057-.057.114-.057.171C116.109-28.728,116.109-28.728,116.109-28.785Zm.114,3.021c.057.228,0,.228-.057.228a.2.2,0,0,0-.057-.114ZM109.1-13.794v-.057l.171-.171h.057Zm14.535-16.758a10.764,10.764,0,0,1,0,1.482.981.981,0,0,1-.114.684c-.114.114-.171.228,0,.342a.621.621,0,0,1,.114.627l-.228.342a.754.754,0,0,0-.114.684.727.727,0,0,1,0,.684,1.461,1.461,0,0,0,0,1.2c.228.342.4.684.114,1.083-.057.114,0,.228.228.285.171.057.114.114,0,.171a.2.2,0,0,0-.114.057c.057.171-.114.285-.171.456-.114.171-.171.342,0,.513.171.114.171.228.057.342l-.171.513a.52.52,0,0,0,.114.627v.171a2.3,2.3,0,0,1,0,.627,1.461,1.461,0,0,0,0,1.2.866.866,0,0,1,.057,1.14c-.057.057,0,.228.114.342a.454.454,0,0,1-.114.513c-.114.171-.171.342,0,.513a.357.357,0,0,1,.114.456l-.171.4a.727.727,0,0,0,0,.684c.171.285.342.627-.057.912v.114c0,.285-.114.57.057.855a.958.958,0,0,1,.171,1.083c-.114.114,0,.342.057.513a.629.629,0,0,1,0,.456c-.228.285-.057.285.228.513.114.114.057.171,0,.285-.228.4-.4.8-.057,1.2.057.057.114.171.057.228-.228.285.057.456.114.684a3.213,3.213,0,0,1,.228.684c0,.456-.228,1.083,0,1.482l.342.855c.057.114.342.228.4.342.285.627.741,1.14,1.083,1.767a.687.687,0,0,0,.285.285.652.652,0,0,1,.456.4,1.714,1.714,0,0,0,.627.8,2.212,2.212,0,0,0,.627.342c.171.114.627.114.8.285a8.836,8.836,0,0,0,1.653.8c.171.057.4.171.513.114a1.434,1.434,0,0,1,.855.057.941.941,0,0,0,.684,0,.674.674,0,0,1,.57-.057h.171a.343.343,0,0,0-.057-.228l-.228-.114a.788.788,0,0,1,.912.228.252.252,0,0,0,.342.171l.57-.114c.114-.057.285-.171.285-.228-.114-.285.171-.228.342-.285a1.578,1.578,0,0,1,.513-.057c0,.228.228.114.285.057a7.7,7.7,0,0,0,1.881-1.083A6.48,6.48,0,0,1,138.909-2v-.114h-1.14a.2.2,0,0,1-.057-.114V-2.28a1.057,1.057,0,0,1,.4-.114,5.337,5.337,0,0,0,.912-.228c.4-.114.8-.228.627-.627-.057-.171,0-.228.171-.342a2.189,2.189,0,0,0,.513-1.026l.228-.57a1.032,1.032,0,0,0-.057-.912.343.343,0,0,1-.057-.228l.171-.285a2.255,2.255,0,0,0,.285-1.482V-8.55c0-.57.342-1.083.285-1.653a9.322,9.322,0,0,0-.114-1.254v-.855c0-.4-.057-2.109,0-2.166a.81.81,0,0,0,.114-.342,16.794,16.794,0,0,0-.057-2.394c0-.114.057-.228.057-.342v-2.052c.057-.228.114-.456-.057-.627a.343.343,0,0,1-.057-.228,1.1,1.1,0,0,0,.057-1.026v-1.539c0-.057-.057-.114-.171-.114-.171-.057-.114-.114-.057-.228a3.276,3.276,0,0,0,.342-1.767c-.342-.171-.057-.4-.057-.57,0-.114.057-.228.057-.342-.057-.171-.285-.4-.171-.513a.847.847,0,0,0,.114-.513v-.171a7,7,0,0,1-.114-1.539c0-.228-.114-.456-.114-.684v-.342c0-.285.114-.57.114-.855,0-.342,0-.342-.4-.456-.114-.057-.114-.114,0-.228.114-.057.285-.114.285-.171,0-.285.4-.57,0-.855v-.114a.783.783,0,0,0-.285-.456V-33c-.228-.171-.4-.114-.456.171,0,.114-.057.171-.114.171-.114-.513.342-.627.171-1.026-.171.4-.969.228-1.311.057-.171-.114-.342-.057-.57.057a1.035,1.035,0,0,1-.627.114,2.468,2.468,0,0,0-.912.057c-.057,0-.114.057-.171.114a.982.982,0,0,0-.456.8c0,.342-.114.684-.114,1.026a1.55,1.55,0,0,0,0,.513c.171.456-.171.855.114,1.311a.343.343,0,0,1-.057.228c-.513.684.456,1.653-.114,2.907A10.8,10.8,0,0,1,136-22.914a.2.2,0,0,1,.057.114c0,.57.057.627,0,2.394a19.238,19.238,0,0,1,0,2.565.427.427,0,0,0,.057.285c.171.228-.057,1.311-.114,1.6v.114c0-.057,0-.057.057-.114.114-.114.228-.057.285.057.057.228,0,.4-.228.456,0,.171-.228.4.228.4.057,0,.171.171.171.285,0,.057-.114.114-.171.171L136-14.934c0,.057-.114.114-.114.171v.342c0,.228.114.456.114.684,0,.342-.114.684-.114,1.026l.228-.171c.057.057.171.114.171.171a.665.665,0,0,0,.4.627.259.259,0,0,1,0,.285,3.132,3.132,0,0,1-.513.4.521.521,0,0,0-.285.684c.342.342-.171,1.938-.057,2.565a1.641,1.641,0,0,1-.057.741l-.513,1.71c-.228,1.083-.741,1.311-1.083,2.052a1.111,1.111,0,0,1-.456.057c-.114,0-.228-.057-.4-.057a3.943,3.943,0,0,1-1.995,0c-.057,0-.171.057-.171.114-.057.114-.114.171-.285.114-.114-.057-.171-.171-.057-.285.228-.171.057-.171-.114-.285a2.183,2.183,0,0,1-1.368-1.767c0-.057-.057-.114-.057-.171v.171l-.057.057H129.1a1.638,1.638,0,0,1,0-1.368.487.487,0,0,0,0-.4,15.45,15.45,0,0,1-.228-2.28,6.194,6.194,0,0,1-.057-1.026,1.42,1.42,0,0,0-.171-.969v-.171c.171-.171.057-.4.114-.627l.114-1.026c.057-.57-.114-1.14,0-1.71,0-.057-.057-.171-.057-.228v-.342a6.194,6.194,0,0,1,.057-1.026c.057-.513-.285-.969-.114-1.482a2.138,2.138,0,0,0,.057-.627c0-.057-.057-.114-.057-.171h-.057l-.171.114a.343.343,0,0,1,.057-.228l.171-.285a.732.732,0,0,0,.228-.57,10.985,10.985,0,0,1-.057-1.368c0-.057-.057-.114-.057-.171v-.513c0-1.026-.114-1.824-.114-2.736.057-.57.114-1.14.114-1.71,0-.342.114-.342-.228-.342-.171,0-.456.057-.57-.171l.57-.171c.342-.057.456-.114.342-.456a4.285,4.285,0,0,1,0-.855c0-.513.228-1.083-.171-1.6v-.171c0-.285.057-.57.057-.855a8.505,8.505,0,0,0,.114-1.2,1.4,1.4,0,0,0-.912-1.368c-.4-.171-.741,0-1.14-.114-.114-.057-.285,0-.456,0a.209.209,0,0,0-.171.057,1.4,1.4,0,0,1-1.083.057,1.526,1.526,0,0,0-1.311.285.856.856,0,0,0-.285,1.083.971.971,0,0,1,0,.57A1.112,1.112,0,0,0,123.633-30.552Zm16.074,9.063a.257.257,0,0,1,.171-.171c.057,0,.171.057.171.114l.171.741-.171.171c-.057-.057-.171-.114-.171-.171A3.007,3.007,0,0,1,139.707-21.489Zm-13.4,3.306c-.057,0-.114-.057-.171-.114s-.4-.114-.456-.171l.627-.171.342.171a.343.343,0,0,1,.057.228c0,.057-.171.057-.228.057Zm13.965-7.125c0-.057.057-.114.171-.114a.123.123,0,0,1,.114.114v.285l-.228.456c0,.057-.057.057-.114.057a.123.123,0,0,1-.114-.114Zm-2.736-2.565a.324.324,0,0,0-.4.228l-.171.171H136.8v-.114c.114-.171.114-.342.285-.456.114-.114.57,0,.627.114l-.057.057Zm-1.2-4.674.171-.285a.963.963,0,0,1,.285-.114c.114.057.114.228.057.342l-.456.342c-.057-.114-.114-.171-.114-.228Zm2.109,23.541c-.057-.057-.114-.114-.114-.171.057-.285-.114-.456-.285-.627.228-.057.342,0,.4.228a.919.919,0,0,1,.171.513c0,.057-.171.114-.228.171C138.4-8.949,138.453-8.949,138.453-9.006Zm-12.825-10.2c.057-.057.456-.057.513-.114a.209.209,0,0,1-.057.171c-.057.114-.456.228-.57.342H125.4a.2.2,0,0,0-.057-.114Zm9.234,15.5c-.057.171-.057.4-.4.342l-.057-.057c0-.114.228-.342.513-.4.057,0,.114.057.171.057-.057.057-.114.057-.114.114Zm-7.353-24c0-.057.057-.114.114-.171a.389.389,0,0,1,.4.285.123.123,0,0,1-.114.114c-.171,0-.342,0-.342-.171Zm-2.337,13.623c-.057,0-.114-.057-.171-.114l-.171-.171.171-.171c.114,0,.228,0,.228.057.114.057.114.171.114.285h-.228Zm11.058,10.6h-.114l-.228-.342c0-.057.114-.114.114-.171a.209.209,0,0,1,.171.057l.171.342C136.287-3.534,136.287-3.477,136.23-3.477Zm1.6-28.329.4-.513h.057a.177.177,0,0,0,.057.114l-.342.513h-.171Zm1.14,6.5a.123.123,0,0,1-.114.114c-.114.114-.171.342-.456.228v-.057c.057-.171.285-.285.513-.342A.056.056,0,0,0,138.966-25.308Zm-1.2-2.907c.171,0,.285,0,.342.057.057,0,.057.057.114.114-.057.057,0,.114-.057.114a1.057,1.057,0,0,1-.4-.114.209.209,0,0,1-.171-.057C137.655-28.158,137.712-28.215,137.769-28.215Zm2.109,5.358a.123.123,0,0,1,.114.114c0,.171-.114.285-.342.285a.723.723,0,0,1,.057-.342c0-.057.171-.114.228-.114Zm.684-8.265c.057,0,.171.114.171.114l-.228.285c-.057-.114-.171-.171-.171-.228S140.448-31.065,140.562-31.122ZM126.2-33.459l.171.171c.057,0,.057.057.057.114h-.171c-.057-.057-.4-.114-.456-.171h.057Zm1.254,14.592v-.057l.57-.171v.057a.849.849,0,0,1-.513.228Zm11.457,6.213L138.738-13v-.171c.057,0,.171,0,.171.057a.723.723,0,0,1,.057.342h-.057ZM124.773-9.8q-.171-.086-.171-.171t.171-.171l.114.057a.431.431,0,0,1-.057.228Zm2.109-22.116-.4.171-.114-.114.4-.171Zm.969,18.81a.431.431,0,0,1-.228.057v-.057l.4-.171.114.114c-.057.057-.057.114-.114.114Zm11.685-13.338a.209.209,0,0,0,.171.057l-.171.171a1.111,1.111,0,0,0-.456-.057A3.927,3.927,0,0,0,139.536-26.448Zm-1.6-2.28-.171-.114q0-.086.171-.171c.057.057.114.114.114.171s-.057.114-.114.171Zm-1.2,22.971h-.285l-.171-.171.057-.057.4.171ZM124.83-31.122a.2.2,0,0,0,.057.114c0,.057-.057.114-.114.228l-.171-.114q0-.085.171-.171ZM139.308-3.249c-.057-.057-.456-.114-.456-.171l.057-.057c.057.057.456.114.513.171l-.057.057ZM126.426-14.592a.431.431,0,0,1,.228.057c.057,0,.057.057.057.114h-.228a.123.123,0,0,1-.114-.114Zm10.317-16.929c-.057,0-.114.057-.228.057a.123.123,0,0,1-.114-.114l.114-.114Zm-8.664,20.007v-.513a.269.269,0,0,1,.057.342h.114ZM137.2-27.36c0-.057.114-.057.171-.114,0,.057.057.114.057.171s-.057.057-.114.114c0-.057-.114-.114-.114-.114Zm-3.7,26.106h-.114l.228-.342a.209.209,0,0,0,.057.171Zm-6.327-24.795.228.171a.2.2,0,0,1-.114.057l-.228-.171.114-.114Zm-2.622,11.628h.114c.114.057.114.114.114.171l-.114.057c-.057-.057-.114-.114-.114-.171Zm.342-15.96h.057c-.057.171-.057.342-.285.4ZM126.54-6.726a.209.209,0,0,1-.171.057H126.2l.114-.171h.114v.114Zm-1.653-8.322a.2.2,0,0,0-.114.057l-.228-.171a.2.2,0,0,0,.114-.057Zm2.793,6.27v-.114h.228v.114Zm.627-18.069.057.057-.285.171-.057-.057Zm10.488,13.4v.057l.114-.114h.114v.114l-.114-.057c-.057.057-.114.057-.114.114v.057C138.681-13.338,138.738-13.395,138.795-13.452ZM137.712-9.8a.2.2,0,0,0,.114-.057.3.3,0,0,1,.228.114h-.228V-9.8Zm-11.97-15.162c.057.057.4.114.456.171h-.114c-.057-.057-.4-.114-.456-.171a.2.2,0,0,0,.114-.057Zm-.171,13.794c-.057-.057-.114-.057-.114-.114v-.057h.171v.057ZM137.94-25.308v-.171h.114v.171ZM126.654-30.78h-.171v-.114h.171Zm11.8,2.223v.057h-.171v-.114h.057ZM124.887-6.783c0-.057,0-.114.057-.114a.2.2,0,0,0,.114.057l-.114.114A.056.056,0,0,0,124.887-6.783Zm.855-16.644v-.057h.456Zm-1.2,9.006h-.228v-.057h.171ZM137.94-28.5h-.114v-.057h.114ZM134.748.342V.285h.057V.342Zm4.047-13.68v-.057l-.057.057Zm6.9-17.214a12.343,12.343,0,0,0-.855,2.565,2.138,2.138,0,0,0-.057.627,1.915,1.915,0,0,1-.285.912,1.465,1.465,0,0,0-.057,1.2c.171.4.342.8.057,1.2a.209.209,0,0,0-.057.171c.057.285-.171.513-.342.8a.173.173,0,0,0,0,.228c.228.285.057.57,0,.912a4.285,4.285,0,0,0,0,.855v.4a1.95,1.95,0,0,0,.057,1.14,1.206,1.206,0,0,1,0,1.083.427.427,0,0,0-.057.285.733.733,0,0,1-.057.684.629.629,0,0,0,0,.456.434.434,0,0,1,0,.456,1.461,1.461,0,0,0,0,1.2.791.791,0,0,1,0,.513,2.237,2.237,0,0,0,.114,1.71c.057.171.228.342.171.57a2.025,2.025,0,0,0-.114.57.847.847,0,0,1-.114.513.629.629,0,0,0,0,.456c.057.171.285.285.228.456a2.861,2.861,0,0,0-.114.684c0,.228.285.4.4.627.342,0,.114.4.342.456v.057a.107.107,0,0,1,0,.171v.114c-.171.228-.171.228-.057.513v.171a.605.605,0,0,0,.114.741.427.427,0,0,1,.057.285c-.057.228-.171.4,0,.513q.171.086.171.171l.342.969a2.832,2.832,0,0,0,.741,1.083.433.433,0,0,1,.285.513.343.343,0,0,0,.057.228c.285.228.285.684.8.741v.114c.114.456.57.684.969.969.171.171.57.171.57.513a.123.123,0,0,0,.114.114l1.311.684a3.342,3.342,0,0,0,1.824.285h.855A4.858,4.858,0,0,0,155.325,0a.209.209,0,0,1,.171-.057,4.9,4.9,0,0,0,1.824-.285,4.185,4.185,0,0,0,1.539-.969c.228-.171,1.083-.627,1.2-.855a1.216,1.216,0,0,0,.4-.684c.057-.114-.285-.4.228-.285a.2.2,0,0,0,.057-.114,5.816,5.816,0,0,0,.513-1.254c.171-.684.4-.912.57-1.539a2.776,2.776,0,0,0,.057-.684c0-.171,0-.171-.228-.285a.123.123,0,0,1-.114-.114c0-.171.057-.285.285-.285.171,0,.171,0,.057-.114a.209.209,0,0,1-.057-.171,2.607,2.607,0,0,0,.057-1.482l.4-.456v-.342a1.751,1.751,0,0,0,.114-1.2,1.231,1.231,0,0,0-1.482-1.026,5.616,5.616,0,0,1-.969.114,3.616,3.616,0,0,1-1.368-.171,2.469,2.469,0,0,0-.285.057c0,.228-.114.171-.285.114-.057,0-.171.057-.171.114,0,.228-.114.342-.285.513a.842.842,0,0,0-.171,1.026,2.556,2.556,0,0,1,0,1.311,4.542,4.542,0,0,0-.171.855,3.465,3.465,0,0,0-.057,1.083,1.154,1.154,0,0,1-.342,1.083.8.8,0,0,0-.171.513c0,.114,0,.171-.114.228-.285.228-.627.4-.513.855a.432.432,0,0,1-.114.228c-.057.114-.4.171-.513.228l-.171-.171c-.228,0-.342.057-.285.285-.741,0-.969.057-1.254.057s-.57,0-.684.285h-.057a.2.2,0,0,0-.057-.114c.114-.228-.114-.285-.342-.342a12.061,12.061,0,0,1-1.2-.627,2.051,2.051,0,0,1-.684-1.026l-.228-.342a.512.512,0,0,1-.114-.513.933.933,0,0,0-.114-.684.582.582,0,0,1-.228-.57c-.057-.627-.342-1.254-.4-1.824-.171-1.311-.228-2.679-.4-3.933a4.315,4.315,0,0,1,.057-.855v-4.047c0-.627-.114-1.254-.057-1.824a17.944,17.944,0,0,0,.285-2.451c0-.912.456-1.881.456-2.85,0-.228-.114-.513.171-.684v-.114c0-.456.342-.969.114-1.539a.343.343,0,0,1,.057-.228,2.212,2.212,0,0,0,.342-.627,2.9,2.9,0,0,1,2.166-1.482c.057,0,.114-.057.171-.057a1.389,1.389,0,0,1,.684,0l.4.114a3.529,3.529,0,0,1,1.083.4,6.245,6.245,0,0,1,1.2,1.254.209.209,0,0,1,.057.171,2.287,2.287,0,0,1,.171.855.532.532,0,0,0,.285.57.614.614,0,0,1,.114.456c0,.057-.114.114-.171.171.057,0,.114.057.171.057h-.171v1.2c0,.171,0,.4.171.513.228.114.228.285.057.456-.171.285,0,.456.228.627a1.1,1.1,0,0,0,.513.285.513.513,0,0,0,.57.057,1.563,1.563,0,0,1,1.14.057.97.97,0,0,0,.4.057,3.25,3.25,0,0,0,.741-.057,3.006,3.006,0,0,1,.684-.171.847.847,0,0,0,.684-.684,10.177,10.177,0,0,0,.114-1.311c0-.285-.114-.57-.114-.855a2.8,2.8,0,0,0-.4-1.767.214.214,0,0,1,0-.342c.171-.171.057-.342,0-.513-.228-.627-.4-1.2-.627-1.71a9.073,9.073,0,0,0-.741-1.254.838.838,0,0,0-.285-.342.555.555,0,0,1-.342-.285c-.057-.285-.285-.4-.513-.513-.171-.057-.342-.114-.4-.228-.114-.285-.4-.342-.684-.4a.209.209,0,0,1-.171-.057.954.954,0,0,0-1.14-.285c-.171.057-.4-.057-.4-.171,0-.057.228-.114-.057-.171a10.522,10.522,0,0,1-1.311-.228,1.943,1.943,0,0,0-1.14,0,.662.662,0,0,1-.57,0,.852.852,0,0,0-.741.057l-.513.114a6.9,6.9,0,0,1-1.083.057,2.108,2.108,0,0,0-1.539.513.343.343,0,0,1-.228.057.3.3,0,0,1-.228.114,2.425,2.425,0,0,0-1.311.8c-.342.342-.57.855-1.083,1.026-.171.057-.228.228-.285.342A3.232,3.232,0,0,1,145.692-30.552Zm2.109,4.275a1.6,1.6,0,0,1-.57.8h-.057v-.171l.342-.684.228-.171c.057.057.114.114.114.171Zm8.436-3.648.342-.171a.963.963,0,0,1,.285.114.919.919,0,0,1-.228.4.482.482,0,0,1-.342.114c-.057,0-.057-.342,0-.456Zm3.306-1.254a1.192,1.192,0,0,1,.342-.228h.171c.057,0,.057.057.114.171a1.192,1.192,0,0,1-.228.342.259.259,0,0,1-.285,0,.162.162,0,0,1,0-.285Zm.8,22.857c0-.057-.057-.114-.057-.171s.057-.114.057-.171c0,.057.8.456.855.513v.171Zm-2.109,2.907c-.057-.057-.114-.114-.114-.171,0-.342.057-.456.342-.513a.574.574,0,0,1,.171.057l-.171.342a.209.209,0,0,0-.057.171Zm-11.514-3.99a.435.435,0,0,1,.114-.285l.114-.171h.171v.456q0,.086-.171.171c-.057-.057-.171-.114-.171-.228Zm-1.71-17.841h.057c.228.114.114.285.114.456v.114l-.228.171c-.057-.057-.114-.114-.114-.171-.057-.171.171-.285.171-.456Zm1.311,8.949c0-.114.114-.171.228-.285.057.114.171.228.171.285a.379.379,0,0,1-.285.228c-.171,0-.228-.114-.171-.228Zm1.539,2.109.342-.342h.171v.171l-.342.342h-.114a.2.2,0,0,0-.057-.114Zm-.513,13.053v-.171a.824.824,0,0,1,.4-.114c.057,0,.114.057.228.171a2.891,2.891,0,0,1-.513.114Zm-3.078-11.856.114.114a.847.847,0,0,1,.342.057c.057,0,.057.114.057.171a.123.123,0,0,1-.114.114.2.2,0,0,1-.057-.114l-.114.114-.171-.285h-.057ZM157.32-32.718c0-.057.057-.114.114-.171v.171l-.171.342c0,.057-.057.114-.114.171,0-.057-.057-.114-.057-.171a.723.723,0,0,1,.057-.342ZM148.6-6.27c.057-.228.228-.285.456-.342l.057.057a.581.581,0,0,1-.456.285Zm-2.85-16.587h-.8l.114-.114h.57Zm4.731-9.861h.342a.056.056,0,0,1,.057-.057.209.209,0,0,1,.171-.057l.057.057a.123.123,0,0,1-.114.114h-.171a1,1,0,0,1-.342.057c-.057,0-.114-.057-.171-.057h.114Zm-3.99,11.97h-.228v-.057l.4-.171.114.114-.228.171Zm-.969-1.653c.057-.057.114-.114.171-.114a2.242,2.242,0,0,1,.342.114c-.285.057-.342.114-.456.114Zm8.892-11.457a.432.432,0,0,1,.228.114l-.228.171-.171-.171C154.3-33.8,154.356-33.858,154.413-33.858ZM158.232-6.5q0-.086.171-.171l.171.171-.171.171c0-.057-.114-.114-.114-.171ZM145.863-13a1.057,1.057,0,0,1,.4.114c-.057,0-.342.057-.342.057l-.171-.114Zm11.115,7.3a.432.432,0,0,1-.228-.114.574.574,0,0,0,.171-.057.432.432,0,0,1,.228.114l-.171.114Zm.8-.057c0,.057-.057.057-.171.057l-.057-.057q0-.086.171-.171a.2.2,0,0,0,.057.114Zm-10.887-9.177a.343.343,0,0,1,.228-.057l.057.057c0,.057-.057.114-.114.171Zm-.627-15.447h.228c.057,0,.114.057.171.114h-.4Zm1.368,9.918h.228v.171a.431.431,0,0,1-.228-.057ZM146.661-9.12c0-.057.057-.114.114-.171,0,.057.057.114.057.171l-.171.171Zm-1.71-.456c-.057-.057-.342-.057-.456-.114l.114-.057a1.057,1.057,0,0,0,.4.114v.171Zm4.275-23.2h-.057c.057-.057.057-.114.114-.114a.441.441,0,0,1,.171.057c-.057.057-.114.114-.171.114ZM154.356-.8h-.114V-.855h.171c0,.057,0,.114-.057.114Zm-5.928-5.3v-.114h.171C148.542-6.156,148.485-6.1,148.428-6.1Zm-4.047-8.778h-.057v.057h.114Zm.456,0h-.057v-.057h.057Zm5.985-17.841v.057a.056.056,0,0,1,.057-.057Zm30.381-.228-.057-.114c-.285-.057-.4-.456-.8-.4-.057,0-.114-.114-.171-.171l.171-.171a.209.209,0,0,1,.171-.057c-.057-.057-.114-.114-.171-.114-.171,0-.4-.057-.513,0a.724.724,0,0,1-.684,0,1.259,1.259,0,0,0-.912,0,.74.74,0,0,1-.57.114c-.057,0-.171,0-.114.114,0,.057.171.114,0,.171s-.342.171-.4,0c-.057-.285-.285-.228-.513-.228a4.9,4.9,0,0,0-.912-.057,1.757,1.757,0,0,1-.57-.057,7.643,7.643,0,0,0-2.28,0,.785.785,0,0,1-.627,0,.953.953,0,0,0-.684.057,2.531,2.531,0,0,1-1.14.057c-.4,0-.855-.057-1.311-.057a2.138,2.138,0,0,1-.57-.057,7.115,7.115,0,0,0-2.451.057c-.057,0-.171.057-.228,0-.456-.228-.8-.057-1.254.057a.83.83,0,0,0-.513.342l-.285.684a.855.855,0,0,1,0,1.026v.171a1.5,1.5,0,0,0,.855,1.482,1.68,1.68,0,0,0,.741.285h2.109c.171,0,.285,0,.285-.228,0-.057.057-.114.114-.171,0,.057.057.114.057.171-.114.228.057.285.285.342l.57.228a1.093,1.093,0,0,1,.912,1.083,1.664,1.664,0,0,0,.114.513c0,.057.228.114.228.171a4.4,4.4,0,0,1-.114.855c0,.114-.114.228-.114.342a7,7,0,0,0,.114,1.539,2.159,2.159,0,0,1,0,.855.97.97,0,0,0,.057.4.446.446,0,0,1,.057.456.81.81,0,0,0-.114.342v1.026a.723.723,0,0,0,.057.342.366.366,0,0,1,.057.513c-.228.285-.114.627-.114.969,0,.057.057.114.057.171.057,0,.114-.057.171-.057a.82.82,0,0,1,.171-.114c.057.114.228.228.228.342s-.171.057-.285,0c-.228-.057-.342.057-.342.285s.057.456.057.684-.057.456-.057.684a.427.427,0,0,0,.057.285c.171.171.114.342,0,.513a2.672,2.672,0,0,0,0,1.881.487.487,0,0,1,0,.4,1.694,1.694,0,0,0-.228,1.026,10.381,10.381,0,0,1,.057,1.881.537.537,0,0,0,.228.513.259.259,0,0,1,0,.285.678.678,0,0,0-.228.627c.114.4-.114.855.171,1.254.285.456-.228.8-.057,1.254a9.206,9.206,0,0,1,0,1.254c0,.171.057.342.057.513-.057.342-.228.684.114.969.057.057,0,.171,0,.228l-.171.342a.574.574,0,0,0,.057.171c.171,0,.228.057.114.171-.171.114-.285.228-.285.4.114.342-.057.684.228.969.057.057,0,.228-.057.342a1.893,1.893,0,0,0-.057,1.368,1.4,1.4,0,0,0,1.083,1.254,1.493,1.493,0,0,0,.855-.057,4.038,4.038,0,0,1,.8.057.574.574,0,0,0,.057-.171c0-.057-.057-.114-.057-.171V-.684c.057,0,.114,0,.114.057a.753.753,0,0,0,1.083.285.767.767,0,0,0,.684-.285,1.374,1.374,0,0,0,.4-1.026,2.356,2.356,0,0,0-.114-1.083c-.171-.4.228-.684.114-1.026-.114-.114,0-.228-.114-.342,0-.057-.114-.114-.114-.114-.171.114-.228,0-.285-.114V-4.5h.342c.057-.342.285-.684.057-1.026a.427.427,0,0,1-.057-.285,8.429,8.429,0,0,0,.057-2.394c0-.171-.285-.4-.285-.57s.285-.285.228-.513a4.314,4.314,0,0,1-.057-.855v-.513c0-.171.057-.342.057-.513v-2.907c0-.171.057-.342-.114-.513a.173.173,0,0,1,0-.228,6.713,6.713,0,0,0,.171-2.394V-19.95c0-.228.114-.456-.114-.627a.343.343,0,0,1-.057-.228,1.642,1.642,0,0,0,.057-1.368.97.97,0,0,1-.057-.4c0-.342.057-.684.057-1.026v-2.394c0-.285.114-.57-.114-.8V-26.9a8.851,8.851,0,0,1,.228-1.2c.114-.114.228-.228-.057-.285-.114-.057,0-.342.171-.285.228.114.285-.057.4-.171v-.171h.228l.741-.513c.57.057,1.482.057,1.026-.456.57,0,.4.114,1.311.285.171,0,.285-.057.4-.057h.171a1.276,1.276,0,0,0,1.653-1.2,6.194,6.194,0,0,1,.057-1.026c.057-.342-.171-.684,0-1.026Zm-1.938.4c0,.057-.114.114-.171.114a2.025,2.025,0,0,1-.57-.114c-.057,0-.057-.114-.114-.171.057-.057.114-.114.171-.114h.285c.171.057.4.171.4-.171h.171a.419.419,0,0,1-.114.342Zm-14.193,1.824c-.456-.114-.57-.456-.342-.741a.427.427,0,0,1,.285-.057v.171c-.171.171-.171.285.057.4.057,0,.114.057.171.114C165.186-30.78,165.129-30.723,165.072-30.723Zm7.467,4.446-.342.228c-.057-.114-.114-.171-.114-.228l.171-.285.4-.285c.057,0,0,.342-.228.513Zm-1.254,5.358v.171L171-20.52l-.114-.057v-.342h.057l.171-.171.228.171ZM171-13.167c-.057,0-.114-.057-.171-.057.057-.057.114-.114.171-.114v.114c0-.057.057-.057.057-.114a.432.432,0,0,0,.228-.114l.228.171c-.114.057-.171.171-.285.171l.057.114C171.114-13,171-13,171-13.167Zm.8,12.6L171.684-.8l.342-.171c.057,0,.114.114.228.228Zm.285-3.819h-.342v-.057l.228-.171a.343.343,0,0,1,.228-.057.177.177,0,0,0,.057.114Zm.228-26.22.228-.171h.171v.171l-.171.171v-.171Zm-.969,23.427-.228.171v-.171l.228-.171c.057.057.114.114.114.171Zm3.021-25.764c-.114,0-.171-.057-.228-.057l.228-.171c.057.057.114.114.114.171a.2.2,0,0,1-.057.114Zm-2.337,26.5L171.8-6.1h-.114l-.057-.057.342-.285Zm-.912-11.115c.114,0,.171-.057.228-.057s.114.057.171.114c-.057.057-.114.114-.171.114s-.057-.057-.114-.114Zm3.249-3.933c.057-.057.114-.114.171-.114s.114.057.171.057v.171a.209.209,0,0,0-.171-.057Zm-3.762-7.3a.2.2,0,0,0,.114.057.3.3,0,0,1-.228.114.2.2,0,0,0-.114-.057l.114-.171Zm.8,13.68c.057,0,.114.057.171.114l-.171.171a.209.209,0,0,0-.171-.057c.057-.057.114-.114.171-.114Zm.228,12.426c.057,0,.114-.057.171-.057.114,0,.114.057.171.114l-.171.114-.114-.171Zm-.969-4.959h.171c.057.057.114.114.114.171a.056.056,0,0,1-.057.057h-.057Zm2.679-25.137a.209.209,0,0,0,.057.171.209.209,0,0,1-.171.057c0-.057-.057-.114-.057-.171s.057-.057.114-.057Zm-1.2,15.618c0-.057.057-.114.114-.171l.114.114-.171.171-.057-.057Zm2.508-2.28c.057,0,.114.057.171.114a.177.177,0,0,0-.057.114c-.057,0-.114-.057-.171-.114A.2.2,0,0,1,174.648-19.437Zm.171-10.2-.171-.171.057-.057.171.171v.057Zm-4.5-.4H170.2v-.171h.114Zm2,24.4V-5.7h.228c-.114.057-.114.114-.114.114h-.171Zm0,.228v-.057h.057v.057Zm2.394-22.344v-.057h.057ZM187.815-9.8a.574.574,0,0,1,.057-.171c.285.057.228-.114.228-.228a13.86,13.86,0,0,0,0-1.539,1.165,1.165,0,0,0-.285-.912,2.4,2.4,0,0,1-.171-.684.257.257,0,0,1,.171-.171c.4,0,.4-.228.4-.456V-16.7c0-.228,0-.456-.285-.57-.057-.057-.057-.228.057-.228.285,0,.285-.114.285-.228s-.057-.285-.114-.285c-.4-.057-.228-.171-.057-.342a.427.427,0,0,0,.057-.285v-5.3c0-.456-.057-.513-.627-.57h-.171l-.171-.171a.617.617,0,0,1,.285-.228c.114-.057.228,0,.342-.057s.285-.114.114-.285v-.057c.228-.057.171-.171.171-.285v-4.1c0-.4-.114-.8-.114-1.2,0-.171.114-.342.114-.513v-.513c0-.171,0-.456-.171-.513-.342-.228.171-.285.057-.456a1.154,1.154,0,0,0-.741-.8,3.593,3.593,0,0,0-2.052,0,.377.377,0,0,1-.342.057c-.171-.114-.342-.114-1.425.171-.171.057-.285.285-.456.456-.114.171,0,.285.171.4a.25.25,0,0,1-.171.057c-.057.057-.114.057-.114.171a.971.971,0,0,1,0,.57,2.829,2.829,0,0,0,.057,1.539.689.689,0,0,1,.057.8,1.911,1.911,0,0,0,0,.57c0,.114.114.228.114.342l.171-.171a.209.209,0,0,1-.057.171c0,.057-.057.114-.114.171l-.228.171c0,.057-.057.171,0,.171.228.114.228.228.114.4a1.479,1.479,0,0,0-.114,1.2.791.791,0,0,1,0,.513,3.681,3.681,0,0,0,.114,1.767.276.276,0,0,1,0,.4c-.171.456-.057.8-.228,1.2a.545.545,0,0,0,0,.513.545.545,0,0,1,0,.513,2.138,2.138,0,0,0,0,1.2.791.791,0,0,1,0,.513,2.933,2.933,0,0,0,.114,1.71.487.487,0,0,1,0,.4,1.422,1.422,0,0,0-.057.969.432.432,0,0,1-.114.228c-.285.342-.114.627.114.855.171.171.342.285-.057.342a.123.123,0,0,0-.114.114,1.924,1.924,0,0,0,.114,1.14c.057.114.4.171-.057.285,0,0,.057.228,0,.285a1.276,1.276,0,0,0-.057,1.2,1.29,1.29,0,0,1,.057,1.026.343.343,0,0,0-.057.228.981.981,0,0,1-.057.8c-.057.114.057.285.057.456,0,.114.057.228.057.342a3.25,3.25,0,0,0-.057.741c.057.228-.114.456.057.684.057.057,0,.171,0,.285,0,.228-.057.456-.057.684s.057.456.057.684c.285.114,0,.342.114.513.114.114.057.285,0,.456a1.118,1.118,0,0,0-.057.855.432.432,0,0,1-.114.228c-.114.228-.228.456,0,.684.114.114.057.228,0,.342a.81.81,0,0,0-.114.342c-.114.171,0,.285.171.342s.228.171.057.228-.171.171-.171.342a2.776,2.776,0,0,1-.057.684,1.041,1.041,0,0,0,.285,1.14,2.478,2.478,0,0,0,1.14.4c.456.057.855-.057,1.311,0h.855a1.4,1.4,0,0,0,.912-.342,1.528,1.528,0,0,0,.456-1.2c-.114-.114-.342-.171-.342-.285,0-.171.342.057.4-.114v-1.2c0-.171.057-.342.057-.513,0-.855.057-1.71,0-2.565-.057-.8.057-1.6.057-2.394a1.42,1.42,0,0,0-.171-.969ZM184.509-1.2l-.285-.342V-1.6c0-.114,0-.171.114-.228a.123.123,0,0,1,.114-.114.123.123,0,0,1,.114.114.81.81,0,0,1,.114.342.81.81,0,0,1-.114.342Zm.912-29.412h.114l.4.342a.343.343,0,0,1,.057.228c0,.057-.057.057-.114.057-.228,0-.57-.4-.456-.57Zm-1.6,3.306-.228-.171c-.057-.114,0-.171.171-.228l.171-.228.171-.171a.209.209,0,0,0,.057.171l-.114.342-.228.171Zm1.995-5.928c.057-.057.228-.057.342-.057l.114.114-.57.513-.057-.057a2.024,2.024,0,0,1,.228-.513Zm1.482,3.306.171-.114.4.4c-.114.057-.171.114-.228.114C187.473-29.526,187.245-29.754,187.3-29.925Zm-2.337,19.608h.114c.114.114.114.171-.057.228l-.057.057.171.285v.171l-.285-.114c-.057-.114-.171-.285.114-.342Zm.456-18.183c.228.057.513,0,.456.342v.171l-.171-.171-.285-.171-.114-.171Zm-1.539,13.452a.123.123,0,0,1-.114-.114.343.343,0,0,1,.057-.228l.171-.171.171.171v.057a.177.177,0,0,1-.057.114.209.209,0,0,1-.171.057Zm.228,5.472H184c-.057-.057-.114-.114-.114-.171a.723.723,0,0,1-.057-.342c.228-.057.171.171.228.285l.171.285a.2.2,0,0,0-.057.114Zm-.627-20.064c.057-.057.114-.114.171-.114a.824.824,0,0,1,.4.114v.057a.62.62,0,0,1-.285.057c-.171,0-.228,0-.285-.057-.057,0-.057-.114-.057-.114Zm1.311,10.659c0-.057.228-.114.285-.114h.285a.574.574,0,0,1,.171.057c0,.171-.114.057-.171.057h-.171c-.114-.057-.228.228-.342,0Zm-1.254,4.1c-.057,0-.114-.057-.171-.114l-.171-.171c.057,0,.114-.057.171-.057.114.057.171.171.285.285-.057.114-.114.228-.171.228Zm1.14,2.223V-13l.171.171.228.285v.114h-.057a.485.485,0,0,1-.171-.285ZM184.4-3.42v-.057a.81.81,0,0,1,.342-.114l.114.114c-.057.057-.114.114-.171.114h-.171Zm1.539-22.4h.171l.228.171h-.4l-.171-.171v-.057ZM184.68-2.109l-.057-.114c.057-.057.114-.114.171-.114l.171.114c-.114.057-.171.114-.228.114Zm.627-4.275-.228-.228a.209.209,0,0,0,.171-.057l.171.171Zm.855-13.566.171.114-.228.171c0-.057-.057-.114-.057-.171A.123.123,0,0,1,186.162-19.95Zm-.228-12.141-.171.171c0-.057-.057-.114-.057-.171s.057-.114.114-.171a.209.209,0,0,0,.057.171Zm-1.995,2.052.228.228H184c-.057-.057-.114-.114-.114-.171ZM184.965-5.7c-.114,0-.114-.057-.171-.114h.057a.3.3,0,0,1,.228.114.2.2,0,0,0-.114.057Zm-.8.684v-.228h.171Zm.8-7.7v-.057h.171v.057Zm26.448-1.6a13.864,13.864,0,0,1,0-1.539c0-.912-.114-1.824-.057-2.736,0-.114-.057-.228-.057-.342,0-.057-.057-.171,0-.228.171-.171.114-.4.114-.627a5.508,5.508,0,0,0-.057-1.368c0-.057.057-.114.057-.171v-2.166c-.057.114-.912-.4-.57-.4.627-.057.228-.456.228-.912v-.342c0-.342-.228-.684-.171-1.026a3.848,3.848,0,0,0-.114-.8c-.057-.228.057-.57-.342-.741-.057,0-.057-.228,0-.285.171-.114.171-.228.114-.342l-.342-1.026-.456-1.026a3.334,3.334,0,0,0-.8-1.368c-.057-.114-.228-.171-.285-.285-.171-.114-.228-.342-.342-.456a4.89,4.89,0,0,1-1.14-.741.994.994,0,0,1-.684-.342,1.1,1.1,0,0,0-.513-.285,11.259,11.259,0,0,0-1.482-.456,10.838,10.838,0,0,0-1.425-.171c-.4,0-.741-.057-1.2-.057a1.939,1.939,0,0,0-.57.057,5.525,5.525,0,0,1-1.311.171,2.962,2.962,0,0,0-1.824.513l-.57.171a2.174,2.174,0,0,0-.8.627c-.228.342-.627.513-.8.912,0,.057-.114.114-.171.114a.867.867,0,0,0-.57.741c-.057.228-.57.456-.684.627-.228.456-.57.456-.342.855,0,.057,0,.171-.057.171a.431.431,0,0,1-.228.057c-.057,0,0-.228-.057-.057a.919.919,0,0,0-.171.513,1.7,1.7,0,0,1-.285.855v.114h.171c.057-.057.171-.228.228-.057.114.4.4.342.684.285.171-.057.627.057.627.171a.208.208,0,0,1-.114.285c-1.026,0-1.938-.171-2.394.285-.114.285-.057.57-.171.8a1.635,1.635,0,0,0,0,1.539,1.171,1.171,0,0,1,0,.627c-.057.171-.228.4-.114.57a.524.524,0,0,1-.114.57.3.3,0,0,0,0,.456.328.328,0,0,1,.171.456,1.812,1.812,0,0,0-.171.513,1.91,1.91,0,0,0,0,.57c.285.456-.456,1.14.342,1.653l.4.342v.171a.574.574,0,0,0-.171.057c-.456-.285-.57-.228-.57-.171a.419.419,0,0,0,.114.342.914.914,0,0,1,.057.855.487.487,0,0,0,0,.4.654.654,0,0,1-.057.57c-.171.114-.228.285,0,.456.171.171.114.342.057.513l-.228.456a.944.944,0,0,0,0,.684.469.469,0,0,1,.057.684,1.09,1.09,0,0,0,0,1.026,1.09,1.09,0,0,1,.228,1.083c-.171.285.114,1.539,0,1.938a1.974,1.974,0,0,0,.285,1.767c.171.171.228.342-.057.513-.057,0-.057.171-.057.171.342.057.342.228.285.4a.278.278,0,0,0,.114.456.36.36,0,0,1,.114.513c-.057.114-.57.741-.513.855l.285.285c.228.513,1.026.912,1.368,1.425.114.171,0,.8.171.969.114.114.741.57.741.741,0,.513.57.684.8,1.026a.763.763,0,0,0,.285.057c0,.342.855.456,1.083.684a3.982,3.982,0,0,0,1.2.627c.057.057.114.114.114.171.057.228.4-.228.627-.171l.741.342a.107.107,0,0,1,.171,0c.171.171.4-.228.684-.228a7.841,7.841,0,0,0,4.731-.285V.513a6.558,6.558,0,0,0,.969-.342c.513-.285,1.026-.627,1.539-.969l.171-.228a1.3,1.3,0,0,1,.456-.513.766.766,0,0,0,.342-.4,3.4,3.4,0,0,0,.513-.855,5.628,5.628,0,0,0,.684-1.6l.114-.627a4.991,4.991,0,0,0,.4-1.824v-.171c-.057.057-.114.057-.114.114-.057.114-.114.285-.342.114-.171-.285.057-.456.285-.57.228-.171.342-.285.228-.57v-.171c.057-.228.171-.456.057-.684v-.171c0-.285.4-.57.4-.855,0-.969-.057-1.938-.057-2.907a13.974,13.974,0,0,0,.114-1.539ZM205.086-6.5a1.9,1.9,0,0,0-.513,1.71c0,.171-.228.285-.513.4.228.057.342.171.342.285,0,.057-.114.114-.171.171l-.4-.342.114-.114a3.994,3.994,0,0,0-.57.456c-.114.114-.114.171,0,.285a.173.173,0,0,1,0,.228,3.417,3.417,0,0,1-.627.684c-.057.057-.171.057-.171-.114.057-.228-.057-.285-.171-.285l-.969.171h.171v.057h-.171l-.57-.114a3.7,3.7,0,0,1-1.254-.627l-.57-.4-.171-.228c-.114-.171,0-.456-.285-.456l-.114-.057c.171-.285.285-.456.171-.684-.057-.057.285-.171.342-.228.171-.285,0-.513-.171-.741a.517.517,0,0,1-.171-.4V-8.208c-.057-.057-.171-.114-.171-.171v-.342c.114-.057.228-.114.228-.171v-.684c0-.456-.342-.969-.342-1.482v-.057c-.057-.057-.513-.057-.57-.114,0,0,.456-.114.456-.171.057.057.114.114.114.171v-.513c0-.057-.114-.114-.171-.171-.057.057-.456.114-.513.171-.114.114-.513.228-.627.342l-.114-.057c.057-.285.513-.57.8-.741a3.915,3.915,0,0,0,.627-3.078,1.446,1.446,0,0,1-.114-.684,1.283,1.283,0,0,0,.057-.684c0-.114.057-.228.057-.342v-1.368a3.031,3.031,0,0,1,0-1.881v-.342c0-.684-.057-1.311-.057-2a.966.966,0,0,1-.57,0,1.341,1.341,0,0,1,.114-.456l.456.114A6.012,6.012,0,0,0,198.588-24c0-.114.114-.228.057-.285-.684-.684-.456-1.2,0-1.824a.723.723,0,0,0,.057-.342l.228-1.2c.057-.171.057-.228-.114-.114a.574.574,0,0,0-.057-.171c.342-.228.057-.627.228-.969.171-.228.114-.456.4-.684a6.451,6.451,0,0,1,.741-.57.427.427,0,0,1,.285-.057c.342,0,.4-.057.342-.342-.171-.456.8-.4,1.083-.513.057,0,.114.057.171.057a.209.209,0,0,1-.057.171.919.919,0,0,1-.741.342c-.057,0-.171.057-.228.057a.432.432,0,0,0,.228.114l.741.228a3.025,3.025,0,0,1,1.653,1.083.783.783,0,0,0,.456.285.528.528,0,0,0,.057.4c.228.285.8.627.741.969a.375.375,0,0,0,.171.513.483.483,0,0,0,.513.171.5.5,0,0,1,.4.057.123.123,0,0,1,.114.114.123.123,0,0,1-.114.114c-.171,0-.342-.057-.57-.057-.171,0-.228.057-.057.228v.114c-.342,0-.228.228-.228.4,0,.285.171.57.171.855a.427.427,0,0,0,.057.285c.285.285.57.57.342.855-.057.057,0,.171.057.285.057.171.342.342.171.513-.057.057-.114.114-.114.171a10.985,10.985,0,0,0,.057,1.368c0,.171.057.342.342.171l.114.114v.057c-.4.171-.342.456-.4.741a2.861,2.861,0,0,0-.114.684c0,.057.057.171.114.171.285,0,.342.114.342.285,0,.114,0,.285.057.285.627.285.285.855.4,1.254a.2.2,0,0,1-.057.114l-.057.057c-.057-.057-.114-.114-.114-.171l-.513-1.368c0-.057-.057-.114-.114-.171,0,.057-.057.114-.057.171,0,.228-.114.513.057.741a.428.428,0,0,1,0,.513.432.432,0,0,0-.114.228.963.963,0,0,1-.057,1.026c.114.456-.057.912.114,1.368a2.834,2.834,0,0,1-.057,1.2c-.057.57-.4,1.2-.057,1.767.057.114,0,.285,0,.456,0,.057-.114.171-.114.228.8,1.083-.285,2.736-.513,3.591ZM206-29.925a.759.759,0,0,1,.285-.171.257.257,0,0,1,.171.171l.171.855-.171.171a.432.432,0,0,1-.228-.114c-.285-.285-.57-.57-.4-.969Zm-10.488,9.69.342-.684c.057-.057.285-.114.342-.057.171.057.114.171.228.285v.114c-.057.057,0,.114-.057.228-.114.171-.513.228-.4.513l-.057.057c-.114,0-.342-.285-.285-.4ZM207.822-2.907l-.4.114c-.171.057-.228.228-.342.114-.057-.057,0-.285.057-.4a.968.968,0,0,1,.342-.342c.171-.171.228-.171.342.114.114.057.285.114.057.228ZM205.2-3.078a.123.123,0,0,1-.114-.114c-.114-.228.228-.8.513-.855h.057c.057.057.114.114.114.171.057.228-.285.684-.627.741ZM192.945-16.359v-.057c.057-.057.114-.171.171-.171a14.935,14.935,0,0,1,1.6-.057v.057a5.4,5.4,0,0,1-1.71.228Zm16.53.8v.171a1.939,1.939,0,0,1-.57-.057.381.381,0,0,1,0-.57h.057c.057.057.513.114.513.228a.432.432,0,0,1-.114.228Zm-1.881,9.918v-.513c0-.057.057-.114.057-.171.057.057.114.057.114.114a1.074,1.074,0,0,1,.114.456c0,.171-.057.342-.057.513,0,.228-.114.171-.228.171,0-.171-.057-.342-.057-.513Zm-10.431-15.9a.647.647,0,0,0-.171.456.177.177,0,0,0-.114.057l-.285-.342c-.114-.228-.114-.285.171-.342a.723.723,0,0,1,.342-.057c.057,0,.114.114.114.114Zm0,1.482c-.057-.057-.114-.114-.114-.171l.171-.4s.456,0,.456.057a.269.269,0,0,1,.057.342c-.057.057-.4.057-.513.114Zm7.866-10.26-.171-.855a.2.2,0,0,1,.114-.057.123.123,0,0,1,.114.114A2.122,2.122,0,0,1,205.2-30.1c-.057,0-.171,0-.171-.057ZM197.106-23.6c.114,0,.285.114.285.171,0,.171-.342.285-.57.285-.057-.057,0-.114,0-.171-.057-.171.114-.4.285-.342Zm11.571,4.788c.057,0,.114-.057.171-.114v.171a.723.723,0,0,1-.057.342l-.285.171-.171-.342.057-.057c.4.057-.057-.285.171-.285Zm-2.166,9.405v-.513c0-.114.171-.114.285,0a.81.81,0,0,1,.114.342C206.853-9.405,206.625-9.405,206.511-9.405Zm-10.83-4.047h-.171a6.218,6.218,0,0,1-.627-.342l.171-.171c.171.171.627.342.8.513a.2.2,0,0,0-.057.114ZM193.287-7.3l-.171-.228.114-.114c.057.057.513.114.627.228-.057.057-.513.114-.57.171Zm1.539-1.425c-.114-.114-.969-.171-.969-.228l.969-.057h.057a.441.441,0,0,1-.057.171ZM207.252-21.6a1.192,1.192,0,0,1-.342-.228.343.343,0,0,1-.057-.228.209.209,0,0,1,.171.057l.4.285v.057A.25.25,0,0,0,207.252-21.6Zm-11.343,5.7a.431.431,0,0,1-.057-.228l.057-.057h.4l.057.114-.342.228ZM206.4-4.959c-.114-.171.057-.228.171-.285.342.171.342.228.342.285h-.342C206.511-4.959,206.454-4.788,206.4-4.959Zm-1.254-28.329.171-.171h.228v.171l-.4.342L205.086-33l.171-.171Zm-12.426,6.726.057.057c.057.114.171.228.171.342v.171c-.114,0-.171,0-.171-.057l-.171-.4a.2.2,0,0,1,.114-.057Zm13.452,13.167c0,.114-.228.228-.228.342-.057-.114.057-.228,0-.342a.343.343,0,0,1,.057-.228c0-.057.057-.057.171-.114ZM206-28.215c.228-.114-.114-.171.057-.228.114,0,.228.057.228.114s-.057.171-.114.171c-.228.057.114.114-.114.171-.057-.057-.171-.057-.171-.114s.057-.171.114-.171Zm3.078-1.14c.057,0,.114.057.228.057.057,0,.114-.171.171,0,0,.057-.114.114-.171.171-.171-.057-.285-.057-.342-.114l-.171-.171h.171Zm-16.017,7.638.228.228-.228.171-.228-.171c0-.057.114-.114.171-.171Zm12.54-3.477a.824.824,0,0,1-.114-.4s-.171-.057-.114-.057c.114,0,.342.057.342.114v.4h-.057Zm-7.638,14.706h.057c-.057.057-.456.114-.513.228l-.114-.114c.057-.057-.057-.114,0-.171Zm10.545-5.358-.057.057a.343.343,0,0,1-.228-.057l-.171-.228.057-.057.342.171ZM195.567-27.417a.723.723,0,0,1-.057-.342l.057-.057h.057a.81.81,0,0,1,.114.342v.114c-.057,0-.114,0-.114-.057Zm10.374,23.94c-.057-.057-.114-.114-.114-.171s.057-.114.114-.228c.057.171.114.228.114.342,0,.057-.057.114-.114.171Zm-5.586-28.215h.4l-.114.057v.171a.431.431,0,0,1-.228-.057A.209.209,0,0,1,200.355-31.692ZM198.759-1.2c-.057-.057-.114-.114-.114-.171s.057-.114.114-.171l.171.228-.171.171Zm10.887-23.769a.209.209,0,0,1-.057-.171c.057-.057.114-.114.171-.114l.171.114-.228.171Zm-6.384-9.12-.171.228a.3.3,0,0,1-.114-.228c0-.057.057-.057.114-.114Zm5.187,19.266a1.057,1.057,0,0,1,.4-.114c.057,0,.228.057.342.057a.847.847,0,0,1-.342.057ZM195.567-29.754h-.456c.057-.057.4-.114.456-.171h.171Zm14.25,5.187c.114-.057.171-.114.228-.114l.114.114c0,.057-.057.114-.114.171Zm-3.534,1.71c0,.057-.057.114-.114.171L206-22.8q0-.085.171-.171ZM206-33.63a.963.963,0,0,1,.285.114A.963.963,0,0,1,206-33.4a.123.123,0,0,1-.114-.114.2.2,0,0,1,.114-.057ZM199.9-.912l-.171-.114c.057-.057.057-.114.171-.114.057,0,.114.057.171.057l-.114.171Zm-3.762-22.059c-.171.171-.342.285-.513.228V-22.8Zm.627,8.778a.574.574,0,0,0-.171.057.123.123,0,0,1-.114-.114c0-.057.057-.114.057-.171l.285.228Zm11.685,9.519.228.171-.171.114-.171-.171a.2.2,0,0,0,.114-.057Zm-1.824-4.047.228-.171h.057v.114l-.228.171h-.057ZM204.972-32.2c0,.057.057.114.057.171s-.057.114-.114.171l-.171-.114.228-.171Zm-8.607,22.059-.342.342.285-.513h.057ZM198.3-22.572q.171-.086.171-.171l-.171-.171c-.057.114,0,.228,0,.285Zm9.462-3.078c-.057,0,.057.057,0,.057s-.285-.057-.342-.057l.171-.171Zm-11.97-.228.114.114-.171.171h-.171l.171-.171Zm.912,3.021c0-.057.057-.057.114-.057h.171v.171h-.171l-.057-.114Zm-.855,4.959-.114.114c-.057,0-.114-.057-.171-.114l.114-.114C195.738-18.012,195.795-17.955,195.852-17.9ZM209.19-8.436v-.057l.228-.171a.177.177,0,0,0,.057.114c-.057.057-.114.114-.171.114ZM205.941-30.5c.057,0,.114.057.228.057l-.171.114-.171-.171.057-.057Zm-9.69,17.214a.2.2,0,0,1-.057-.114c.057-.057.114-.114.171-.114a.177.177,0,0,0,.057.114C196.365-13.338,196.308-13.281,196.251-13.281Zm3.192-18.411a.2.2,0,0,1-.114.057l-.057-.057c0-.057.057-.114.114-.171.057.057.114.114.114.171ZM195.567-4.617c0-.057-.057-.114-.057-.171l.057-.057c.057,0,.114.057.171.114a.209.209,0,0,1-.171.057ZM206.454-27.7c-.057.057-.114.114-.171.114a.209.209,0,0,1-.171-.057c.057,0,.114-.057.171-.057Zm1.6,7.923c.057,0,.114.057.171.114-.057.057-.114.114-.171.114v-.114l.057-.057Zm-.285-6.27v.114c0,.057-.057.057-.114.057v-.171Zm.171,7.3c.171-.057-.057-.114.114-.171v.057c0,.114.057.228-.114.171ZM206.511-4.674c0-.057.057-.057.114-.114a.2.2,0,0,0,.057.114.209.209,0,0,1-.171.057Zm1.881-20.349c-.057.057-.057.114-.228,0a.2.2,0,0,1,.114-.057A.2.2,0,0,0,208.392-25.023ZM203.946-4.389h.114c-.114.057-.171.114-.228.114Zm2.565-25.65h.114v.114Zm1.368,10.089h.057v.057h-.057Zm.4.969h-.057v-.057ZM229.026-11.8c.456-.114.456-.342.456-.456-.057,0,0,0,0-.057l-.057-.057c-.4-.114-.513-.285-.513-.57v-.114c-.342-.171-.171-.456-.114-.684l.171-.684c0-.057,0-.114-.057-.114-.342-.228-.4-.342-.285-.57a1.207,1.207,0,0,0,.114-1.083c-.114-.114,0-.228,0-.342v-.513a.427.427,0,0,1,.057-.285,1.893,1.893,0,0,0-.057-1.368,1.276,1.276,0,0,1,.057-1.2c.114-.456-.342-.912,0-1.368.342-.8.114-2.223.114-3.534a3.007,3.007,0,0,0-.171-.684.473.473,0,0,1,.171-.456.471.471,0,0,0,.057-.684c-.171-.171-.285-.627.114-1.653a.209.209,0,0,0-.057-.171.524.524,0,0,1-.057-.684,3.266,3.266,0,0,1,.627-.627c-.4-.4-.4-.456-.513-1.2A1.615,1.615,0,0,1,229.2-32.2a.359.359,0,0,0,0-.342c-.285-.228-.171-.513-.057-.741a.8.8,0,0,1,.741-.57c.171,0,.285-.114.4-.114a5.783,5.783,0,0,1,2.508.342,1.511,1.511,0,0,1,.342.285c.171.57.741.855.741,1.482,0,.741-.057,1.254-.057,2,0,.285-.228.57-.228.855s.171.57.171.855-.171.57-.171.855c0,.4.114.8.114,1.2a12.858,12.858,0,0,1,0,2.565c.114.285-.114.513-.171.8v.114c.513.285.285.741.285,1.083a10.982,10.982,0,0,0-.057,1.368c0,.912.057,1.824.057,2.736v.171a.692.692,0,0,0,0,.912c.57,1.14-1.083.456-.456,1.254.114.114.342.285.114.456v3.078a1.446,1.446,0,0,1-.114.684c-.171.285.228.57.114.855a4.315,4.315,0,0,0-.057.855c0,.285.057.57.057.855a10.092,10.092,0,0,0,.057,1.311,10.953,10.953,0,0,0,0,1.368.847.847,0,0,1-.114.513,1.1,1.1,0,0,0,0,.741,3.718,3.718,0,0,1,.114,1.368,4.634,4.634,0,0,0,.057,1.254,1.323,1.323,0,0,1-.342,1.2,1,1,0,0,1-.741.342,5.644,5.644,0,0,0-1.71.114c-.8,0-2.394-.285-2.394-1.425,0-.057-.114-.114-.171-.171-.057-.171-.8-.342-.8-.456.057-.285-.171-.456-.228-.684-.342-.969.741-.4.969-1.083-2.793-.114-.912-.513-2.109-2.109-.171-.285-.285-.627-.456-.969a4.481,4.481,0,0,1-.456-1.482,2.157,2.157,0,0,0-.456-.684c-.171-.171.228-.114.114-.228a.569.569,0,0,0-.285-.228c.114-.4-.228-.627-.4-.969a2.888,2.888,0,0,1-.114-.741.919.919,0,0,0-.171-.513c-.342-.342-.171-.684-1.824-4.617-.057,0-.114,0-.114-.057l-.57-1.2a.352.352,0,0,1,.114-.4c-.342-.114-.4-.4-.513-1.311v-.057h-.057a10.567,10.567,0,0,1-.8-1.881c-.057-.228-.342-.285-.57-.285-.342,0-.513.342-.513.741l.171,1.2.285,1.2a8.391,8.391,0,0,1,0,1.2,3.128,3.128,0,0,1-.285.969c-.057.171-.171.285-.171.456a.517.517,0,0,0,.171.4c.171.171.4.342.285.627-.114,0-.285,0-.342.057l-.57.342v.057a1.087,1.087,0,0,0,.741-.114l.171-.285a.2.2,0,0,0,.057.114,12.334,12.334,0,0,0,0,2.052c-.057.342.057.684-.114,1.026a.977.977,0,0,1-.228,1.083c-.057.057,0,.228.114.285.228.228,0,.171-.114.228-.057,0-.057.171,0,.228a.473.473,0,0,1,.171.456c-.171.114-.171.228-.057.342a1.087,1.087,0,0,1,.114.741,1.111,1.111,0,0,0-.057.456,12.866,12.866,0,0,1,.057,2.565.9.9,0,0,1-.285.684.366.366,0,0,0,.057.513.616.616,0,0,1,.171.4,9.751,9.751,0,0,1-.171,2.223c0,.114.114.228.114.342a1.491,1.491,0,0,1-.513,1.026.864.864,0,0,1-.456.228,1.346,1.346,0,0,0-.684.057.732.732,0,0,0-.57-.57c-.171,0-.4.228-.228.342L217,.171c-.228,0-.57.114-.8.114a1.485,1.485,0,0,1-1.482-.855.694.694,0,0,1,0-.741c.228-.228-.342-.456-.513-.684a1.939,1.939,0,0,1-.057-.57c0-.171.342-.057.285-.285a2.468,2.468,0,0,0-.057-.285.554.554,0,0,0-.057-.513c-.171-.171-.114-.342.057-.513a.654.654,0,0,0,.057-.57.487.487,0,0,1,0-.4,1.287,1.287,0,0,0-.114-1.2,1.036,1.036,0,0,1,0-1.14.727.727,0,0,0,0-.684.52.52,0,0,1,0-.684l.114-.456a.268.268,0,0,0-.057-.342c-.228-.171-.171-.342,0-.513a.446.446,0,0,0,.057-.456.786.786,0,0,1,0-.513,1.057,1.057,0,0,0-.114-1.083.855.855,0,0,1,0-1.026.605.605,0,0,0-.114-.741.944.944,0,0,1,0-.684l.228-.513c.114-.171.171-.285-.057-.456a.3.3,0,0,1-.057-.456c.114-.171.285-.342.171-.57a.2.2,0,0,1,.114-.057h.171l.4-.171c-.114-.228-.228-.057-.4,0-.228.057-.285,0-.228-.228a1.1,1.1,0,0,0,0-.741c-.057-.228,0-.513-.171-.684a.209.209,0,0,1-.057-.171v-.171c.057,0,.057.057.114.057a.81.81,0,0,0,.342.114,2.469,2.469,0,0,0,.285-.057c-.057-.057-.114-.114-.171-.114-.4-.057-.57-.342-.4-.684.057-.114,0-.342.285-.4.114,0-.057-.4-.228-.513-.228-.114-.228-.228-.114-.456l.171-.513a.338.338,0,0,0-.057-.4.366.366,0,0,1-.057-.513.654.654,0,0,0,.057-.57.624.624,0,0,1,0-.456,1.207,1.207,0,0,0-.114-1.083.942.942,0,0,1,0-1.083.692.692,0,0,0-.057-.741c-.171-.228-.057-.456,0-.684l.171-.513a.43.43,0,0,0-.057-.456.3.3,0,0,1,0-.456.554.554,0,0,0,.057-.513,1.087,1.087,0,0,1,.114-.741.123.123,0,0,1,.114-.114H215c-.057-.171-.114-.285-.342-.285v-.171a2.382,2.382,0,0,1-.228-.57.974.974,0,0,1,0-.8c.171-.4-.228-.855,2.223-2.166,1.083.456,2.565-.4,3.648.57l.285.171.342.342a1,1,0,0,1,.342,1.14v.171c-.057.513-.057.513.456.741a14.286,14.286,0,0,1,.741,1.6,7.218,7.218,0,0,0,.342,1.026l.4,1.2c0,.057.057.114.114.171,0,.171.057.342.057.513a1.205,1.205,0,0,0,.342.969,2.024,2.024,0,0,1,.228.513c.114.228.114.4-.171.456-.114,0-.057.114,0,.114.285.057.342.285.4.456a1.372,1.372,0,0,0,.342.456,1.193,1.193,0,0,1,.228.342l.969,2.565.342,1.368v.228c-.057.228-.057.4.171.513.057.057.171.171.171.228,0,.4.285.684.456,1.026.057.285.228.57.114.855,0,.057.057.114.114.171a4.688,4.688,0,0,1,1.083,1.026c.057.171.228.4.171.456-.171.285-.057.342.171.456.057,0,.114.114.114.171C228.513-13.053,229.083-12.141,229.026-11.8Zm-7.695-7.809c.342-1.425-1.14-1.311-.684-.855l.57.855c0,.057.057.057.114.057a.2.2,0,0,0,.057-.114Zm1.254,2.394c0-.171-.342-.456-.57-.456-.114.114-.342.228-.4.342-.057.171.228,0,.285.114l.171.171a.218.218,0,0,0,.285-.171ZM215.4-3.021c-.285.114-.741,0-.8.456.057,0,.114-.057.171-.057.4.057.627-.228.969-.342v-.057a.2.2,0,0,0-.114-.057C215.574-3.078,215.46-3.021,215.4-3.021Zm15.96-27.873a.762.762,0,0,0-.4-.456c0,.057-.057.114-.057.171a1.111,1.111,0,0,0,.057.456l.171.285.228-.285ZM216.6-13.908l-.57-.114c-.228-.057-.4.057-.627.228-.057.057-.114.114-.114.171s.057.057.171.114l.57-.342Zm.513-2.223c.57-.171.57-.285.57-.342-.057,0-.114-.057-.171-.057a1.185,1.185,0,0,1-.627.057c-.057,0-.114.057-.228.114l.228.171h.228Zm.456-8.436c-.114.342,0,.456.342.456.057,0,.171-.057.228-.057v-.114c-.228-.114-.342-.228-.342-.456h-.114a.209.209,0,0,0-.057.171Zm-.741,9.177c.114-.057.171,0,.228.114a.81.81,0,0,0,.114.342v-.684c-.057-.114,0-.4-.228-.342-.114.057-.114.342-.171.513,0,.057.057.114.057.171Zm-.228-4.731h-.57l-.057.057.684.342a.281.281,0,0,0,.171-.057Zm14.079,6.954a.209.209,0,0,0,.228.228c.114,0,.342,0,.342-.171,0-.057-.171-.114-.228-.171v-.114c-.171-.057-.228.057-.228.171Zm-1.767,8.379c.114-.114.228-.285.513-.171L229.2-5.3c-.228.057-.342.285-.456.456,0,.057.057.114.057.171h.114Zm-10.26-2.223a2.138,2.138,0,0,0,.057-.627c-.342.114-.171.456-.4.57l.171.171S218.652-6.954,218.652-7.011ZM232.959-23.94v-.114c0-.057-.057-.114-.057-.171h-.114l-.4.342v.057l.114.057.513-.171ZM216.03-18.069a3.336,3.336,0,0,0,.741.114c.057,0,.114-.057.171-.057l-.171-.171a4.334,4.334,0,0,1-.8.057Zm3.99-11,.171.171c.057.057.114.114.171.114a.25.25,0,0,1,.171-.057v-.171c-.114-.114-.171-.171-.342-.057Zm12.027,13.794c-.057,0-.114.114-.171.171l.171.228a1.192,1.192,0,0,1,.342-.228C232.275-15.162,232.161-15.276,232.047-15.276ZM217.968-4.047a.3.3,0,0,0,.228-.114h-.4l-.342.171c.171.171.285,0,.4,0h.228Zm12.825-20.8-.171-.171-.228.342c.057,0,.114.057.228.057.057,0,.114-.057.171-.114Zm-5.586,6.27c.057-.057.228-.057.114-.171-.057-.057-.228,0-.285.057l-.228.171.171.114.171-.171Zm7.923,5.529c-.171-.114-.228,0-.285.114v.171a.209.209,0,0,0,.171-.057c.114,0,.171-.057.228-.057v-.057ZM217.341.456A1.511,1.511,0,0,1,217,.171c.114,0,.171.057.228.057h.4a.2.2,0,0,1-.285.171Zm14.421-13.11a.661.661,0,0,0,.57-.228v-.057l-.57.171ZM215.631-.57l.171-.342a.177.177,0,0,1-.057-.114h-.057L215.46-.8v.114h.171Zm.969-4.047s-.57,0-.57-.057V-4.5h.57Zm15.048-27.132-.171.171a.2.2,0,0,1,.057.114l.4-.171-.171-.114Zm-7.068,9.861c-.057,0-.114.114-.171.171l.171.171c.057-.057.114-.114.114-.171a.209.209,0,0,0-.228-.228ZM228.57-7.7a.2.2,0,0,1,.057.114l.342-.228a.2.2,0,0,1-.057-.114,1.429,1.429,0,0,0-.4.228ZM217.911-31.749a.209.209,0,0,0-.057.171.3.3,0,0,0,.228.114l.114-.114-.228-.171Zm13.965,5.3h-.114c-.057.057-.114.114-.114.171a.2.2,0,0,0,.114.057h.114c.057-.057.114-.114.114-.171a.177.177,0,0,1-.057-.114ZM231.534-2l.114-.114c-.057-.057-.114-.114-.171-.114s-.114.114-.171.171l.171.171ZM218.082-27.018h-.114c-.057,0-.114.057-.171.114v.057h.171c.114,0,.171-.057.228-.057v-.057Zm12.54,5.3.114-.114L230.508-22a.209.209,0,0,1-.171.057ZM232.389-1.6a.3.3,0,0,0,.228-.114.3.3,0,0,0-.228-.114c-.057,0-.114.057-.171.057.057,0,.114.057.171.057ZM218.082-17.613h.171a1.057,1.057,0,0,0-.4-.114.2.2,0,0,1-.114.057c.057.057.114.114.171.114ZM232.731-4.332,232.9-4.5c-.057,0-.114-.057-.171-.057l-.228.171a.209.209,0,0,1,.171.057ZM230-13.851c.057-.057.114-.114.114-.171l-.057-.057c-.057,0-.171.057-.228.057a.209.209,0,0,0,.057.171ZM218.424-.057a.2.2,0,0,1,.114-.057l-.171-.228-.114.114c0,.057.057.114.114.171Zm3.648-22.572c-.057,0-.114.057-.171.057.057.057.057.114.114.114h.228Q222.158-22.629,222.072-22.629ZM217.8-3.021c.057,0,.114-.057.171-.114-.057-.057-.114-.114-.171-.114s-.114.057-.171.114c.057,0,.114.057.171.057Zm1.083-8.037a.706.706,0,0,1,.171-.114c-.057-.057-.114-.114-.171-.114s-.114.057-.171.057ZM220.191-23.2h-.171l-.228.171a.25.25,0,0,1,.171.057Zm2.964-2.793-.228.171a.432.432,0,0,0,.228.114l.057-.057c0-.057-.057-.057-.114-.114Zm-1.2-2.109a.123.123,0,0,0-.114.114c0,.057.057.114.057.171l.171-.171Zm8.322,2.337c-.057.114-.057.228.057.285l.114-.114Zm1.14,20.52a.2.2,0,0,1-.057-.114l-.228.171.114.114Zm-.057-27.132-.228.171.114.057c.057,0,.114-.057.171-.114l-.057-.057Zm.57,1.71v-.171l-.228-.171-.057.057.228.171ZM218.88-9.747h-.171l.171.171h.114v-.057ZM226.8-6.213a.209.209,0,0,0,.171.057c0-.057.057-.114.057-.171l-.057-.057Zm1.6-1.14v.342c.057-.057.114-.114.114-.171s-.057-.114-.057-.171Zm-7.125-22.629V-30.1h-.228v.114Zm-5.586,3.249a.431.431,0,0,0-.228.057v.057h.228Zm15.618-.684c-.057.057-.057.114-.171.114.114.057.114.114.114.114h.114C231.363-27.246,231.306-27.3,231.306-27.417ZM230.28-30.1l-.057.057.171.171.057-.057Zm-15.162,14.82c-.057,0-.114.057-.171.114h.171c.057,0,.057-.057.114-.114ZM229.767-4.845l-.171-.171v.171ZM224.523-18.7l.114.057.114-.114h-.171Zm-7.41,10.83c.057,0,.114-.057.171-.057H217c.057.057.114.114.171.114Zm3.819-11.514h-.057v-.114a.056.056,0,0,0,.057.057Zm4.5,11.742h-.057v.057h.057Z" transform="translate(0.898 -0.328) rotate(90)" fill="#fff" opacity="0.2"/>
</svg>
