<svg xmlns="http://www.w3.org/2000/svg" width="34.342" height="59.913" viewBox="0 0 34.342 59.913">
  <path id="パス_717" data-name="パス 717" d="M17.214-32.946l-.057-.114c-.285-.057-.4-.456-.8-.4-.057,0-.114-.114-.171-.171l.171-.171a.209.209,0,0,1,.171-.057c-.057-.057-.114-.114-.171-.114-.171,0-.4-.057-.513,0a.724.724,0,0,1-.684,0,1.259,1.259,0,0,0-.912,0,.74.74,0,0,1-.57.114c-.057,0-.171,0-.114.114,0,.057.171.114,0,.171s-.342.171-.4,0c-.057-.285-.285-.228-.513-.228a4.9,4.9,0,0,0-.912-.057,1.757,1.757,0,0,1-.57-.057,7.643,7.643,0,0,0-2.28,0,.785.785,0,0,1-.627,0,.953.953,0,0,0-.684.057,2.531,2.531,0,0,1-1.14.057c-.4,0-.855-.057-1.311-.057a2.138,2.138,0,0,1-.57-.057,7.115,7.115,0,0,0-2.451.057c-.057,0-.171.057-.228,0-.456-.228-.8-.057-1.254.057a.83.83,0,0,0-.513.342l-.285.684a.855.855,0,0,1,0,1.026v.171A1.5,1.5,0,0,0,.684-30.1a1.68,1.68,0,0,0,.741.285H3.534c.171,0,.285,0,.285-.228,0-.057.057-.114.114-.171,0,.057.057.114.057.171-.114.228.057.285.285.342l.57.228a1.093,1.093,0,0,1,.912,1.083,1.664,1.664,0,0,0,.114.513c0,.057.228.114.228.171a4.4,4.4,0,0,1-.114.855c0,.114-.114.228-.114.342a7,7,0,0,0,.114,1.539,2.159,2.159,0,0,1,0,.855.97.97,0,0,0,.057.4.446.446,0,0,1,.057.456.81.81,0,0,0-.114.342v1.026a.723.723,0,0,0,.057.342.366.366,0,0,1,.057.513c-.228.285-.114.627-.114.969,0,.057.057.114.057.171.057,0,.114-.057.171-.057a.82.82,0,0,1,.171-.114c.057.114.228.228.228.342s-.171.057-.285,0c-.228-.057-.342.057-.342.285s.057.456.057.684-.057.456-.057.684a.427.427,0,0,0,.057.285c.171.171.114.342,0,.513a2.672,2.672,0,0,0,0,1.881.487.487,0,0,1,0,.4,1.694,1.694,0,0,0-.228,1.026,10.381,10.381,0,0,1,.057,1.881.537.537,0,0,0,.228.513.259.259,0,0,1,0,.285.678.678,0,0,0-.228.627c.114.4-.114.855.171,1.254.285.456-.228.8-.057,1.254a9.207,9.207,0,0,1,0,1.254c0,.171.057.342.057.513-.057.342-.228.684.114.969.057.057,0,.171,0,.228l-.171.342a.574.574,0,0,0,.057.171c.171,0,.228.057.114.171-.171.114-.285.228-.285.4.114.342-.057.684.228.969.057.057,0,.228-.057.342a1.893,1.893,0,0,0-.057,1.368A1.4,1.4,0,0,0,7.068-.171a1.493,1.493,0,0,0,.855-.057,4.038,4.038,0,0,1,.8.057.574.574,0,0,0,.057-.171c0-.057-.057-.114-.057-.171V-.684c.057,0,.114,0,.114.057a.753.753,0,0,0,1.083.285A.767.767,0,0,0,10.6-.627,1.374,1.374,0,0,0,11-1.653a2.356,2.356,0,0,0-.114-1.083c-.171-.4.228-.684.114-1.026-.114-.114,0-.228-.114-.342,0-.057-.114-.114-.114-.114-.171.114-.228,0-.285-.114V-4.5h.342c.057-.342.285-.684.057-1.026a.427.427,0,0,1-.057-.285,8.429,8.429,0,0,0,.057-2.394c0-.171-.285-.4-.285-.57s.285-.285.228-.513a4.314,4.314,0,0,1-.057-.855v-.513c0-.171.057-.342.057-.513v-2.907c0-.171.057-.342-.114-.513a.173.173,0,0,1,0-.228,6.713,6.713,0,0,0,.171-2.394V-19.95c0-.228.114-.456-.114-.627a.343.343,0,0,1-.057-.228,1.642,1.642,0,0,0,.057-1.368.97.97,0,0,1-.057-.4c0-.342.057-.684.057-1.026v-2.394c0-.285.114-.57-.114-.8V-26.9a8.849,8.849,0,0,1,.228-1.2c.114-.114.228-.228-.057-.285-.114-.057,0-.342.171-.285.228.114.285-.057.4-.171v-.171h.228l.741-.513c.57.057,1.482.057,1.026-.456.57,0,.4.114,1.311.285.171,0,.285-.057.4-.057h.171a1.276,1.276,0,0,0,1.653-1.2,6.2,6.2,0,0,1,.057-1.026c.057-.342-.171-.684,0-1.026Zm-1.938.4c0,.057-.114.114-.171.114a2.025,2.025,0,0,1-.57-.114c-.057,0-.057-.114-.114-.171.057-.057.114-.114.171-.114h.285c.171.057.4.171.4-.171h.171a.419.419,0,0,1-.114.342ZM1.083-30.723c-.456-.114-.57-.456-.342-.741a.427.427,0,0,1,.285-.057v.171c-.171.171-.171.285.057.4.057,0,.114.057.171.114C1.2-30.78,1.14-30.723,1.083-30.723ZM8.55-26.277l-.342.228c-.057-.114-.114-.171-.114-.228l.171-.285.4-.285c.057,0,0,.342-.228.513ZM7.3-20.919v.171l-.285.228L6.9-20.577v-.342h.057l.171-.171.228.171Zm-.285,7.752c-.057,0-.114-.057-.171-.057.057-.057.114-.114.171-.114v.114c0-.057.057-.057.057-.114a.432.432,0,0,0,.228-.114l.228.171c-.114.057-.171.171-.285.171L7.3-13C7.125-13,7.011-13,7.011-13.167Zm.8,12.6L7.7-.8l.342-.171c.057,0,.114.114.228.228Zm.285-3.819H7.752v-.057l.228-.171a.343.343,0,0,1,.228-.057.177.177,0,0,0,.057.114Zm.228-26.22.228-.171h.171v.171l-.171.171v-.171ZM7.353-7.182l-.228.171v-.171l.228-.171c.057.057.114.114.114.171Zm3.021-25.764c-.114,0-.171-.057-.228-.057l.228-.171c.057.057.114.114.114.171a.2.2,0,0,1-.057.114ZM8.037-6.441,7.809-6.1H7.7l-.057-.057.342-.285ZM7.125-17.556c.114,0,.171-.057.228-.057s.114.057.171.114c-.057.057-.114.114-.171.114s-.057-.057-.114-.114Zm3.249-3.933c.057-.057.114-.114.171-.114s.114.057.171.057v.171a.209.209,0,0,0-.171-.057Zm-3.762-7.3a.2.2,0,0,0,.114.057.3.3,0,0,1-.228.114.2.2,0,0,0-.114-.057l.114-.171Zm.8,13.68c.057,0,.114.057.171.114l-.171.171a.209.209,0,0,0-.171-.057c.057-.057.114-.114.171-.114ZM7.638-2.679c.057,0,.114-.057.171-.057.114,0,.114.057.171.114l-.171.114L7.7-2.679ZM6.669-7.638H6.84c.057.057.114.114.114.171A.056.056,0,0,1,6.9-7.41H6.84ZM9.348-32.775a.209.209,0,0,0,.057.171.209.209,0,0,1-.171.057c0-.057-.057-.114-.057-.171s.057-.057.114-.057Zm-1.2,15.618c0-.057.057-.114.114-.171l.114.114-.171.171L8.151-17.1Zm2.508-2.28c.057,0,.114.057.171.114a.177.177,0,0,0-.057.114c-.057,0-.114-.057-.171-.114A.2.2,0,0,1,10.659-19.437Zm.171-10.2-.171-.171.057-.057.171.171v.057Zm-4.5-.4H6.213v-.171h.114Zm1.995,24.4V-5.7H8.55c-.114.057-.114.114-.114.114H8.265Zm0,.228v-.057h.057v.057Zm2.394-22.344v-.057h.057ZM23.826-9.8a.574.574,0,0,1,.057-.171c.285.057.228-.114.228-.228a13.861,13.861,0,0,0,0-1.539,1.165,1.165,0,0,0-.285-.912,2.4,2.4,0,0,1-.171-.684.257.257,0,0,1,.171-.171c.4,0,.4-.228.4-.456V-16.7c0-.228,0-.456-.285-.57-.057-.057-.057-.228.057-.228.285,0,.285-.114.285-.228s-.057-.285-.114-.285c-.4-.057-.228-.171-.057-.342a.427.427,0,0,0,.057-.285v-5.3c0-.456-.057-.513-.627-.57H23.37l-.171-.171a.617.617,0,0,1,.285-.228c.114-.057.228,0,.342-.057s.285-.114.114-.285v-.057c.228-.057.171-.171.171-.285v-4.1c0-.4-.114-.8-.114-1.2,0-.171.114-.342.114-.513v-.513c0-.171,0-.456-.171-.513-.342-.228.171-.285.057-.456a1.154,1.154,0,0,0-.741-.8,3.593,3.593,0,0,0-2.052,0,.377.377,0,0,1-.342.057c-.171-.114-.342-.114-1.425.171-.171.057-.285.285-.456.456-.114.171,0,.285.171.4a.25.25,0,0,1-.171.057c-.057.057-.114.057-.114.171a.971.971,0,0,1,0,.57,2.829,2.829,0,0,0,.057,1.539.689.689,0,0,1,.057.8,1.911,1.911,0,0,0,0,.57c0,.114.114.228.114.342l.171-.171a.209.209,0,0,1-.057.171c0,.057-.057.114-.114.171l-.228.171c0,.057-.057.171,0,.171.228.114.228.228.114.4a1.479,1.479,0,0,0-.114,1.2.791.791,0,0,1,0,.513,3.681,3.681,0,0,0,.114,1.767.275.275,0,0,1,0,.4c-.171.456-.057.8-.228,1.2a.545.545,0,0,0,0,.513.545.545,0,0,1,0,.513,2.137,2.137,0,0,0,0,1.2.791.791,0,0,1,0,.513,2.933,2.933,0,0,0,.114,1.71.487.487,0,0,1,0,.4,1.422,1.422,0,0,0-.057.969.432.432,0,0,1-.114.228c-.285.342-.114.627.114.855.171.171.342.285-.057.342a.123.123,0,0,0-.114.114,1.924,1.924,0,0,0,.114,1.14c.057.114.4.171-.057.285,0,0,.057.228,0,.285a1.276,1.276,0,0,0-.057,1.2,1.29,1.29,0,0,1,.057,1.026.343.343,0,0,0-.057.228.981.981,0,0,1-.057.8c-.057.114.057.285.057.456,0,.114.057.228.057.342a3.25,3.25,0,0,0-.057.741c.057.228-.114.456.057.684.057.057,0,.171,0,.285,0,.228-.057.456-.057.684s.057.456.057.684c.285.114,0,.342.114.513.114.114.057.285,0,.456a1.118,1.118,0,0,0-.057.855.432.432,0,0,1-.114.228c-.114.228-.228.456,0,.684.114.114.057.228,0,.342a.81.81,0,0,0-.114.342c-.114.171,0,.285.171.342s.228.171.057.228-.171.171-.171.342a2.775,2.775,0,0,1-.057.684,1.041,1.041,0,0,0,.285,1.14,2.478,2.478,0,0,0,1.14.4c.456.057.855-.057,1.311,0h.855a1.4,1.4,0,0,0,.912-.342,1.528,1.528,0,0,0,.456-1.2c-.114-.114-.342-.171-.342-.285,0-.171.342.057.4-.114v-1.2c0-.171.057-.342.057-.513,0-.855.057-1.71,0-2.565-.057-.8.057-1.6.057-2.394a1.42,1.42,0,0,0-.171-.969ZM20.52-1.2l-.285-.342V-1.6c0-.114,0-.171.114-.228a.123.123,0,0,1,.114-.114.123.123,0,0,1,.114.114.81.81,0,0,1,.114.342.81.81,0,0,1-.114.342Zm.912-29.412h.114l.4.342a.343.343,0,0,1,.057.228c0,.057-.057.057-.114.057-.228,0-.57-.4-.456-.57Zm-1.6,3.306-.228-.171c-.057-.114,0-.171.171-.228l.171-.228.171-.171a.209.209,0,0,0,.057.171l-.114.342-.228.171Zm2-5.928c.057-.057.228-.057.342-.057l.114.114-.57.513-.057-.057a2.025,2.025,0,0,1,.228-.513Zm1.482,3.306.171-.114.4.4c-.114.057-.171.114-.228.114C23.484-29.526,23.256-29.754,23.313-29.925ZM20.976-10.317h.114c.114.114.114.171-.057.228l-.057.057.171.285v.171l-.285-.114c-.057-.114-.171-.285.114-.342ZM21.432-28.5c.228.057.513,0,.456.342v.171l-.171-.171-.285-.171-.114-.171ZM19.893-15.048a.123.123,0,0,1-.114-.114.343.343,0,0,1,.057-.228l.171-.171.171.171v.057a.177.177,0,0,1-.057.114.209.209,0,0,1-.171.057Zm.228,5.472h-.114c-.057-.057-.114-.114-.114-.171a.723.723,0,0,1-.057-.342c.228-.057.171.171.228.285l.171.285a.2.2,0,0,0-.057.114ZM19.494-29.64c.057-.057.114-.114.171-.114a.824.824,0,0,1,.4.114v.057a.62.62,0,0,1-.285.057c-.171,0-.228,0-.285-.057-.057,0-.057-.114-.057-.114Zm1.311,10.659c0-.057.228-.114.285-.114h.285a.574.574,0,0,1,.171.057c0,.171-.114.057-.171.057H21.2c-.114-.057-.228.228-.342,0Zm-1.254,4.1c-.057,0-.114-.057-.171-.114l-.171-.171c.057,0,.114-.057.171-.057.114.057.171.171.285.285-.057.114-.114.228-.171.228Zm1.14,2.223V-13l.171.171.228.285v.114h-.057a.485.485,0,0,1-.171-.285ZM20.406-3.42v-.057a.81.81,0,0,1,.342-.114l.114.114c-.057.057-.114.114-.171.114H20.52Zm1.539-22.4h.171l.228.171h-.4l-.171-.171v-.057ZM20.691-2.109l-.057-.114c.057-.057.114-.114.171-.114l.171.114c-.114.057-.171.114-.228.114Zm.627-4.275-.228-.228a.209.209,0,0,0,.171-.057l.171.171Zm.855-13.566.171.114-.228.171c0-.057-.057-.114-.057-.171A.123.123,0,0,1,22.173-19.95Zm-.228-12.141-.171.171c0-.057-.057-.114-.057-.171s.057-.114.114-.171a.209.209,0,0,0,.057.171ZM19.95-30.039l.228.228h-.171c-.057-.057-.114-.114-.114-.171ZM20.976-5.7c-.114,0-.114-.057-.171-.114h.057a.3.3,0,0,1,.228.114.2.2,0,0,0-.114.057Zm-.8.684v-.228h.171Zm.8-7.7v-.057h.171v.057Zm12.2-13.794c0,.513.342,1.14,0,1.71a5.473,5.473,0,0,0,.057,1.482v.171c-.228.513.171,1.71-.285,2.052-.057.057-.057.114.057.057.228-.057.228.114.228.228,0,.171-.057.342-.057,2.793a.432.432,0,0,1-.114.228c-.228.171-.228.228-.057.4.114.114.342.171.171.342-.114.057-.114.114-.057.171,0,.285.057.57.057.855v1.425l-.114-.171c-.057-.057-.171-.171-.228-.171-.228.114,0,.228,0,.342,0,.171,0,.4.057.4.114.057.228.114.228.171v.171h.057v-.114c.057.114,0,.285,0,.4v.855c0,.114.057.228,0,.285a1.433,1.433,0,0,0-.114.855,2.861,2.861,0,0,0,.114.684c0,.171-.114.342-.057.57.114.57.114,1.14.228,1.71,0,.228-.171.342-.228.456h.114c0,.342.228.627.114.969a3.451,3.451,0,0,0,0,1.083c0,.171.114.342.4.342.228,0,.228.171.285.285.171.513.8.684,1.254,1.083.171.114.285.228.513.171a.951.951,0,0,1,.57,0c.285.171.513.285.684-.057,0-.057.114-.057.171-.057h1.311c.228,0,.57.228.855.114a.791.791,0,0,1,.513,0c.228.171.342-.114.513-.114.456,0,.855.057.684.4a1.17,1.17,0,0,1,.285.969,6.016,6.016,0,0,0-.114,1.425,1.625,1.625,0,0,1-.8,1.425,2.779,2.779,0,0,1-.627.228,11.448,11.448,0,0,1-1.368.057h-.456c-.741-.114-1.539.114-2.85.114-.171,0-.285-.228-.513-.114a2.747,2.747,0,0,1-.684,0l-1.6-.114-.684-.228-.4-.171c-.171-.057-.4-.057-.456-.285,0-.057-.114-.114-.171-.114a2.545,2.545,0,0,1-1.539-1.425,6.793,6.793,0,0,1-.456-1.14.377.377,0,0,1,.057-.342l.285-.285q0-.086-.171-.171a.209.209,0,0,0-.171.057l-.171.171c-.057-.057-.228-.114-.228-.171a6.313,6.313,0,0,1-.114-1.083,2.122,2.122,0,0,0-.114-1.026,3.288,3.288,0,0,1-.171-.8.343.343,0,0,1,.057-.228c.342-.342-.057-.741.114-1.14-.456-.342-.057-.627,0-.912a.545.545,0,0,0,0-.513c-.171-.171-.228-.285-.057-.456s.114-.342,0-.57a.54.54,0,0,1,.171-.627.2.2,0,0,0,.114.057l.342-.342c.057-.057.228.114.228-.114,0-.057-.171-.114-.285-.114a1.16,1.16,0,0,1-.285.057H28.1c.114-.4-.456-.456-.342-.8a4.314,4.314,0,0,0,.057-.855c0-.114.057-.228.057-.342a2.846,2.846,0,0,1,.114-1.539c.057-.057,0-.228-.057-.342-.285-.228-.171-.456,0-.627s.114-.342,0-.513c-.057-.114-.114-.228,0-.342a.954.954,0,0,0,0-1.026,1.765,1.765,0,0,1-.057-1.425.971.971,0,0,0,0-.57,1.42,1.42,0,0,1,.114-1.083,1.664,1.664,0,0,0,.114-.513c0-.285-.114-.57.057-.855a1.2,1.2,0,0,1,.057-1.083.7.7,0,0,0-.114-.57,1.746,1.746,0,0,1-.171-1.311.985.985,0,0,0,.057-.57,1.875,1.875,0,0,1,.114-1.14c.114-.285.342-.513-.057-.741-.171-.114-.057-.342.057-.456a.366.366,0,0,0,.057-.513c-.114-.171-.057-.285.057-.456.285-.228.285-.456.057-.8a1.955,1.955,0,0,1-.171-1.6.985.985,0,0,0-.057-.57,1.133,1.133,0,0,1,.741-1.14,6.628,6.628,0,0,0,1.026-.228h.057c.4.285.741.114,1.14-.057h.171a2.043,2.043,0,0,1,1.767.741,3.481,3.481,0,0,1,.171.741.385.385,0,0,0-.057.57,1.779,1.779,0,0,1,.171,1.2,6.984,6.984,0,0,1-.114,1.083c0,.114-.114.228-.171.342.285.171.171.456.228.969ZM30.837-1.368c.171.114.285,0,.285-.171a.664.664,0,0,0-.57-.57A.435.435,0,0,0,30.267-2c-.057.057,0,.228.057.285l.57.456Zm-1.653-29.64a2.861,2.861,0,0,0,.114.684c0,.057.114.114.114.114l.228-.171a.758.758,0,0,1-.171-.4c0-.114-.057-.228,0-.285.228-.228.057-.4,0-.57,0-.057-.057-.114-.114-.171v.171a1.811,1.811,0,0,0-.171.513Zm.741,23.655c0,.057.057.114.114.171l.228-.171a.209.209,0,0,0,.057-.171v-.228c.057.057.057.114.114.114l.171-.171c.114-.057.285-.114.342-.228v-.171h-.114c-.171.171-.285.114-.456,0,0,0-.171.171-.171.228s0,.114.057.114c-.171.057-.228.171-.285.342V-7.3Zm.912-10.26c.057-.057.114-.057.171-.171l.171-.171a.269.269,0,0,1-.057-.342.97.97,0,0,0,.057-.4,1.192,1.192,0,0,0-.342.228c-.285.228-.285.285.057.513l.057.114a.2.2,0,0,0-.114.057Q30.581-17.7,30.837-17.613Zm.969,12.6a4.038,4.038,0,0,0-.057-.8c0-.114-.114-.285-.171-.285-.228,0-.057.171-.057.285v.8c0,.057.114.114.171.114A.123.123,0,0,0,31.806-5.016ZM40.527-1.14a.847.847,0,0,0-.057-.342c-.114-.228,0-.513-.342-.684v-.171c0-.057-.057-.057-.057-.114v.114c0,.057.057.114.057.171-.171.285,0,.513.114.741C40.3-1.311,40.356-1.083,40.527-1.14ZM31.179-14.649a.574.574,0,0,0,.057-.171V-15.1c0-.171-.228-.456-.342-.4-.285.114.057.228.057.342a.723.723,0,0,0,.057.342c0,.057.114.114.171.114Zm1.026,6.042.57-.171.171-.171c-.057-.057-.114-.114-.171-.114a.343.343,0,0,0-.228.057l-.342.342Zm.285-8.265c-.057,0-.114.057-.171.114-.057.114.171.285.4.228.057,0,.114-.057.171-.057,0-.171-.114-.285-.285-.228Zm.057-3.078c-.114.057-.285.057-.285.285h-.114v.114h.171v-.057l.4-.171ZM29.526-8.664l.4-.171v-.171a.2.2,0,0,0-.057-.114l-.4.342ZM29.469-6.1a.209.209,0,0,0,.057-.171h-.342a.123.123,0,0,0-.114.114c0,.057.057.114.057.171.171-.057.228-.057.285-.114Zm-.114-19.437c.057,0,.114-.114.171-.171l-.057-.057c-.114,0-.228.114-.285-.114-.057.057-.114.114-.114.171a.151.151,0,0,0,.171.171Zm1.824-5.3a1.511,1.511,0,0,0-.342.285l.228.114a1.192,1.192,0,0,0,.228-.342Zm-2.907-.171a.412.412,0,0,0,.228-.342.9.9,0,0,1-.228-.057c-.057.114-.114.171-.114.285ZM29.754-28.1l.171-.171c-.057-.057-.114-.114-.171-.114a.435.435,0,0,0-.285.114l.228.171Zm-.285-4.617c-.057,0-.114.057-.171.057l.171.171.285-.171a.3.3,0,0,0-.228-.114Zm2.166,7.125c0-.057,0-.114-.057-.114l-.4-.171-.057.057c0,.228.285.057.4.228Zm3.7,23.028h.114v.114c0,.057.057.057.114.057v-.171h-.057v-.171c0-.057-.057-.114-.114-.171H35.34a.427.427,0,0,0,.057.285ZM30.5-10.374h-.171c.057.057.114.171.171.171.114,0,.228-.057.4-.057l-.4-.171ZM30.438-27.36c0,.057-.057.114-.057.171,0,.171.114.114.228.057V-27.3c0-.057-.057-.057-.114-.114ZM32.832-4.1c0,.057.114.114.171.114s.114-.057.171-.114c-.057-.057-.114-.114-.171-.114h-.171ZM30.5-5.415c-.114,0-.285.114-.285.228l.057.057a.569.569,0,0,0,.285-.228Zm0-19.038-.4-.171c0,.057,0,.114.114.171l.171.171.057-.057ZM35.8-.342c.114,0,.114-.114.114-.171h-.228c-.057,0-.114.057-.228.114a1.16,1.16,0,0,1,.285.057ZM32.205-23.313l-.228-.171h-.285v.114h.171ZM30.5-27.645c.114,0,.228.057.228-.114,0-.057-.057-.114-.057-.171l-.171.171Zm.4,17.9c-.057-.057-.171-.114-.171-.171a.82.82,0,0,1-.171.114l.171.171Zm5.814,7.923a.209.209,0,0,1,.171.057l.171-.171-.114-.114Zm-4.674-16.3a.3.3,0,0,0,.228-.114c-.057-.057-.114-.057-.228-.057a.2.2,0,0,1-.114.057c0,.057,0,.114.057.114ZM29.982-4.788l.057-.114c0-.057-.057-.114-.114-.171l-.114.114.171.228ZM30.039-18.7c.057,0,.171.057.228.057s.114-.057.228-.114h-.456Zm3.078-6.156c-.057,0-.114-.057-.171-.057s-.057.057-.114.114l.114.114ZM30.267-10.6a.056.056,0,0,1,.057.057h.114a.209.209,0,0,0,.057-.171l-.057-.057Zm8.322,7.011H38.7V-3.7l-.171-.171h-.057v.057l.171.171ZM29.64-15.333l-.228-.171-.057.057.171.171Zm2.109-9.234h-.057c-.057.057-.114.114-.114.171v.114h.057a.209.209,0,0,0,.057-.171Zm-1.995,4.332.171.171.057-.057-.171-.171H29.64Zm1.653,8.664c.114,0,.114.057.114.057l.171-.171-.057-.057Zm.456,4.617c.057,0,.114-.057.171-.114a.209.209,0,0,1-.171-.057.209.209,0,0,0-.057.171l.057.057ZM40.356-.8V-.855h-.114v.171h.171ZM32.319-9.12c0-.057-.057-.114-.057-.171,0,.057-.057.114-.057.171s.057.114.114.171ZM29.3-26.334v.171c.057-.057.114-.057.114-.114v-.171Zm1.71,14.991v.171h.114v-.171ZM30.837-26.9v-.114h-.171v.114Zm1.425,2.223v.114l.171.171v-.171h-.114Zm-2.28.057h-.057l-.057.057H30.1ZM32.6-19.608c.228-.057.228-.114.171-.114h-.057v.057Zm-1.425,8.436v-.171h-.057Zm-.855,3.306v.114a.2.2,0,0,1-.057-.114Zm.627-9.975.057-.057v.114Zm2.223,3.819v.057l-.057-.057ZM59.508-4.1A12.426,12.426,0,0,0,56.6-4.218a.259.259,0,0,1-.285,0,.879.879,0,0,0-.912.057.343.343,0,0,1,.228.057c.057,0,.057.057.114.114a.432.432,0,0,1-.228.114L55.347-4.1a1.207,1.207,0,0,0-.4-.171,3.919,3.919,0,0,0-1.824.114h-.057a2.424,2.424,0,0,0-1.425-.171.2.2,0,0,0-.114-.057L50.5-5.13c-.228-.057-.285-.171-.285-.456a.485.485,0,0,0-.171-.285c-.228-.4-.4-.285-.342-.8.057-.627-.285-1.254-.285-1.881a12.4,12.4,0,0,0-.057-2.907,12,12,0,0,1,.114-1.425c1.824-1.311,2.565-.627,3.42-.456a3.735,3.735,0,0,0,.8,0,2.469,2.469,0,0,1,.285-.057c.285.171.513,0,.8-.057a2.138,2.138,0,0,0,.57-.057.406.406,0,0,0,.342-.171c.285-.285.8-.57.684-.969-.057-.57-.114-1.14-.114-1.71,0-.513-.57-.855-1.026-1.083-.4-.171-.513-.171-.855.114l-.342.342a1.341,1.341,0,0,1-.912.285l.285-.171.171-.342-.4-.114a1.738,1.738,0,0,0-.912-.171c-.114,0-.456.114-.513.114a4.87,4.87,0,0,1-1.368-.513,1.826,1.826,0,0,1-.969-1.6c0-.456.228-3.021.342-3.477,0-.114-.057-.228-.057-.342,0-.228-.228-.456-.228-.684,0-.912.4-1.824.4-2.736a8.647,8.647,0,0,1,.171-1.2.857.857,0,0,1,.228-.627,2.316,2.316,0,0,1,1.425-.969c.285-.057.627-.228.969,0,.114.057.228,0,.342,0h4.674c.57,0,1.026-.228,1.083-.855v-.057c.228-.057.627-.171.627-.456v-1.368a2.775,2.775,0,0,0-.057-.684,1.293,1.293,0,0,0-.912-.627c-.342,0-.627-.114-.969-.114a8.628,8.628,0,0,1-1.71-.114c-.057,0-.228.057-.228.114,0,.228-.057.114-.171,0a.611.611,0,0,0-.342-.114,8.028,8.028,0,0,0-1.14.057,1.273,1.273,0,0,1-.627-.057.974.974,0,0,0-.684.057,2.531,2.531,0,0,1-1.14.057,10.943,10.943,0,0,1-1.368,0h-.57a7.268,7.268,0,0,0-2.223,0c-.228.057-.4.114-.57,0a.629.629,0,0,0-.456,0c-.513.114-1.083.114-1.2.741a1.641,1.641,0,0,0-.057.741c0,.057.057.171,0,.228a.816.816,0,0,1-.513.57,1.683,1.683,0,0,0,.114.741c.171.4.4.8.171,1.254a.487.487,0,0,0,0,.4.473.473,0,0,1-.114.456c-.171.171-.228.342,0,.513.114.114,0,.285-.057.456l.057.513c-.057.228-.171.456.057.684a.727.727,0,0,1,0,.684c-.114.171-.114.285.114.171h.114v.114c-.285.057-.285.285-.285.513,0,.057.057.114.114.171v.057l.342-.513h.057v.057l.114.057-.4.513H44.8a1.241,1.241,0,0,1-.114,1.083c-.057.114.057.285.114.4.057.171-.171.285-.342.456-.171.342-.171.342.171.627.057.057.114.057.057.171-.57.8-.114,1.2-.342,1.938a1.331,1.331,0,0,0,0,1.14c.228.4.4.8.114,1.2a.624.624,0,0,0,0,.456.366.366,0,0,1-.057.513c-.114.171-.171.342,0,.513a.3.3,0,0,1,.057.456l-.114.342c-.228.57.228.969,0,1.425a1.276,1.276,0,0,0,.057,1.2.949.949,0,0,1-.057,1.083.624.624,0,0,0,0,.456c.057.228.285.4.114.57a.336.336,0,0,0,.114.513.338.338,0,0,1,.057.4l-.171.513c-.114.228.114.456.228.741a1.171,1.171,0,0,1,0,.627c-.627,1.254.4,1.824.228,2.166a1.118,1.118,0,0,0-.057.855.432.432,0,0,1-.114.228c-.171.228-.285.456,0,.684a.343.343,0,0,1,.057.228l.114.513a.727.727,0,0,0,0,.684.727.727,0,0,1,0,.684.5.5,0,0,0-.057.4c.513,1.368,2.109,1.2,3.192,1.026a2.469,2.469,0,0,0,.285.057H51.3c.228,0,.4-.057.57-.057h2.451c.4,0,.741.057,1.14.057a6.69,6.69,0,0,1,1.482-.057,6.527,6.527,0,0,0,1.824-.057.65.65,0,0,0,.342-.171c.228-.228.627-.513.627-.855,0-.456-.171-.912-.171-1.368ZM50.274-15.561l.342-.684a.485.485,0,0,1,.285-.171,1.241,1.241,0,0,1,.456.285.812.812,0,0,1-.114.228,1.173,1.173,0,0,1-.855.456c0-.057-.057-.114-.057-.171ZM47.937-28.1h.228c.228,0,.285.114.228.4l-.171.57c0,.057-.057.114-.057.171-.057-.057-.114-.114-.114-.171,0-.171-.228-.171-.456-.228C47.481-27.417,47.823-27.987,47.937-28.1Zm-1.026,2.508s.057-.171.114-.171l.57-.228a1.207,1.207,0,0,1,.4.171l-.684.342a.963.963,0,0,1-.285-.114Zm-.171-.57h-.057c-.057-.057-.114-.114-.114-.171v-.228c.4-.114.228-.513.342-.741,0-.057.057-.114.057-.171h.171a3.481,3.481,0,0,1-.171.741,2.677,2.677,0,0,1-.342.513Zm2.109-.684-.684.57v-.342l.57-.342c.057-.057.114,0,.228,0,0,.057-.114.114-.114.171Zm8.265-4.674v-.171l.171-.342.114.228v.228l-.171.513c-.228-.114-.057-.285-.057-.456ZM51.186-2.052l-.4.342h-.114v-.057a.907.907,0,0,1,.513-.513H51.3v.057Zm-2.394-30.21h.057s0,.057.114.114l-.4.513h-.057v-.057l.171-.513Zm-3.477,5.985v-.057a.569.569,0,0,1,.228-.285c.057-.057.285-.057.285,0,.057.114-.114.171-.228.228l-.342.171Zm1.6-5.472h.4l-.171.171-.456-.171h-.171a.81.81,0,0,1,.342-.114c.114,0,.285.057.4.057ZM51.927-1.368v-.114l-.342-.171c-.057,0-.057-.057-.057-.114H51.7l.342.228h.114v.171c-.114,0-.171,0-.171-.057Zm-5.7-8.949.513-.171.114.114-.342.171a2.469,2.469,0,0,0-.285-.057Zm6.555-20.235c0,.057,0,.114-.114.114a.692.692,0,0,1-.741.057.888.888,0,0,0,.684-.171Zm1.653,28.9v-.114a1.45,1.45,0,0,1,.4-.114l.057.057v.057l-.285.114ZM45.714-15.447a.824.824,0,0,1,.4.114,1.113,1.113,0,0,0-.4.057l-.171-.171c.057-.057.114-.114.171-.114ZM47.2-33.174l.171.171c0,.057-.057.114-.114.228-.057-.114-.114-.171-.114-.228v-.171Zm5.643,16.3c0,.057.057.114.057.171s-.057.114-.057.171l-.228-.171Zm2.736,2.964a.209.209,0,0,0,.057.171.209.209,0,0,1-.171.057c0-.057-.057-.114-.057-.171s.057-.114.114-.171Zm-.057-1.938.114.171-.513-.171V-15.9ZM48.564-1.254l-.171-.171.171-.171c0,.057.057.114.057.171S48.564-1.311,48.564-1.254ZM47.139-18.3h.342l-.171.171a.209.209,0,0,0-.171-.057ZM45.372-22c.057,0,.114.057.171.114l-.114.114-.171-.171L45.315-22Zm.456-9.69h.057v.171h-.228v-.057Zm-.456,11.8.171.171c-.057,0-.114.057-.171.057l-.057-.057A.209.209,0,0,1,45.372-19.893ZM49.818-1.6l-.171-.171.057-.057h.171l-.057.057Zm-5.13-17.1v-.342c.057.057.114.114.114.171S44.745-18.753,44.688-18.7ZM58.71-31.578l.057.057c-.057.057-.114.114-.171.114l-.057-.057.171-.171Zm-6.156-.855.228.171-.114.057c-.057-.057-.114-.114-.114-.171Zm-7.125.855h-.171a.177.177,0,0,0,.057-.114h.171ZM48.963-4.845a.3.3,0,0,1-.228-.114h.285a.209.209,0,0,1-.171.057Zm2.85-25.593h-.171v-.114H51.7Zm2.28,14.478v.171h-.057v-.057ZM52.839-32.091v.057h-.057v-.057Z" transform="translate(0.285 0.177) rotate(90)" fill="#feba00" opacity="0.2"/>
</svg>
