<svg xmlns="http://www.w3.org/2000/svg" width="35.32" height="284.188" viewBox="0 0 35.32 284.188">
  <path id="パス_716" data-name="パス 716" d="M5.871-27.474a.375.375,0,0,1,.171-.513l.057-.171a.209.209,0,0,0,.057-.171c.057,0,.114-.057.171-.114l.171-.285.8-.684c.114-.114.057-.228-.057-.285.171,0,.285-.057.456-.057a9.383,9.383,0,0,1,1.2-.114,1.424,1.424,0,0,1,1.083.456,2.742,2.742,0,0,0,.627.513.705.705,0,0,0,.513.627v.057l.342.855v-.057c0,.057.057.114.057.171l.114.114a1.165,1.165,0,0,1,.285.513,1.046,1.046,0,0,0,1.2.741,1.417,1.417,0,0,1,.456.057,2.562,2.562,0,0,0,1.14,0,1.392,1.392,0,0,0,.4-.057,2.143,2.143,0,0,0,1.824-.912h-.057c.171-.285.285-.456-.057-.684-.057-.057,0-.171,0-.285a1.79,1.79,0,0,0-.228-1.14c-.228-.171-.171-.228-.171-.4a1.843,1.843,0,0,0-.171-.912l-.171-.4a1.972,1.972,0,0,0-.57-.627c-.285-.114-.456-.228-.4-.456a.824.824,0,0,0-.114-.4,8.959,8.959,0,0,0-1.482-1.083.444.444,0,0,1-.4-.171,1.013,1.013,0,0,0-.57-.228l-.228-.228c0-.057-.171-.114-.228-.114s-.057-.057-.114-.057A1.947,1.947,0,0,0,11-34.143a.759.759,0,0,0-.513-.171,2.049,2.049,0,0,1-.627-.114c-.285-.114-.4-.057-.684.114-.114.057-.285.114-.342.057a1.384,1.384,0,0,0-1.254.057H7.353a1.759,1.759,0,0,0-.627.114.2.2,0,0,0-.114.057,1.932,1.932,0,0,0-1.14.342,1.432,1.432,0,0,1-.8.342,1.5,1.5,0,0,0-.912.4l-.285.228-.114.114c0,.285,0,.4.171.456-.171,0-.228,0-.285-.057a.882.882,0,0,0-.627.171,8.9,8.9,0,0,0-.741.741h.057l-.171.285a2.2,2.2,0,0,0-.627,1.254,2.354,2.354,0,0,1-.4.627,5.543,5.543,0,0,0-.285,1.14c.114.171.114.228.114.285v.114c-.285.228-.285.285-.171.342.114.171.114.342,0,.4-.285.228-.228.285-.171.456v-.057c0,.057.057.114.057.171a.759.759,0,0,0,.171.285v.057c-.456.171-.4.456-.285.684,0,.171.114.171.114.171-.114.228-.114.342.114.513a.614.614,0,0,1,.114.456,2.888,2.888,0,0,0,.114.741.305.305,0,0,0,.285.285c.171.057.285.285.342.456.057.285.114.513.228.57-.114.171-.171.285-.057.456a.427.427,0,0,1,.057.285c.114.285.114.456.456.627l.342.57c.057.114.171.114.285.057a1,1,0,0,0-.057.285l.57.912a.655.655,0,0,0,.513.342.177.177,0,0,0-.057.114l.057.114.4.342a4.962,4.962,0,0,0,.627.513c.057.057.171,0,.228-.057s.114,0,.171.057a.178.178,0,0,0,0,.342,1.671,1.671,0,0,1,.57.513.54.54,0,0,0,.456.513c.114.057.171.057.228.171a.856.856,0,0,0,.513.4l.171.171c0,.228-.228.4.171.513l-.057-.057.4.285.114.228a.629.629,0,0,0,.171.4.737.737,0,0,1,.513.342l.513.57a.3.3,0,0,0,.456-.171h.057c-.285.342-.285.57.057,1.026l.513.513a3.173,3.173,0,0,1,.513.741c0,.171.228.228.342.228a.694.694,0,0,0,.285.684l.057.114a.487.487,0,0,0,.171.342l.057.114.114.4.228.342a2.88,2.88,0,0,1,0,2.28l-.228.513a.431.431,0,0,0-.057.228c0,.057-.057.114-.057.171s0,0-.057.057-.171.171-.171.228a1.192,1.192,0,0,0-.228.342l-.057.114a.2.2,0,0,0-.114.057c-.057-.057-.171-.171-.456.057L9.861-4.5a.869.869,0,0,0-.57.342.177.177,0,0,1-.114.057c-.171,0-.342.057-.456.057A.715.715,0,0,1,8.208-4.1a.614.614,0,0,0-.456-.114.963.963,0,0,1-.342.171.963.963,0,0,1-.285-.114l-.171-.171L6.669-4.56l-.228-.171L5.7-5.757l.057.057c-.114-.171-.228-.342-.513-.171,0-.057-.057,0-.057-.057,0-.171-.114-.228-.171-.342-.114-.057-.171-.228-.228-.4v.057a3.228,3.228,0,0,1-.171-1.026,1.072,1.072,0,0,0-.456-.969,2.826,2.826,0,0,0-1.14-.456c-.114,0-.171-.057-.342-.057a.65.65,0,0,0-.342.171.366.366,0,0,1-.513.057l.057.057c-.285-.171-.456-.228-.684-.114a.514.514,0,0,1-.285.057c-.114,0-.285.057-.342.057-.4.057-.57.114-.684.456,0,.114-.057.114-.057.114-.57.4-.57.456-.4.912a.431.431,0,0,1,.057.228c.114.4.285.684.114,1.026a.561.561,0,0,0,.171.456A12.88,12.88,0,0,0,.627-3.306c0,.114.057.171.171.228L.741-3.192l.114.171c0,.114.057.171.228.171,0,.342,0,.513.171.57a1.626,1.626,0,0,1,.456.4,4.606,4.606,0,0,0,.912.912.925.925,0,0,0,.513.285l-.171.228a.16.16,0,0,0,.285.114l.228-.171a.2.2,0,0,0,.057-.114,1.076,1.076,0,0,0,.741.57l.8.285V.4L5.13.342A.056.056,0,0,0,5.187.4L5.244.228A9.666,9.666,0,0,0,6.5.456c.513.057,1.2.057,1.71.057A2.849,2.849,0,0,0,8.835.456L8.778.513C8.949.456,9.006.4,9.006.342,9.063.4,9.234.4,9.462.4A7.108,7.108,0,0,0,11.343.114a.638.638,0,0,0,.456-.4c.057.228.228.228.513.114a1.022,1.022,0,0,1,.4-.285l.4-.228a1.59,1.59,0,0,0,.513-.285l.8-.684.855-.741c.057-.057.228-.171.228-.285,0-.057,0-.057.057-.114l.627-.8c0-.114.114-.285.114-.4a.954.954,0,0,1,.456-.627l.171-.912.228-.855a3.011,3.011,0,0,0,.057-.741v-.228c0-.171.114-.342.114-.57v-.228l.057-.228c0-.057-.057-.057-.057-.114s-.114-.171-.114-.285l.114-.057h-.114a8.717,8.717,0,0,0-.4-1.653c0-.057-.057-.114-.057-.171-.171-.342-.228-.741-.57-.969a1.138,1.138,0,0,0-.114-.513l-.285-.4-.684-.969c-.4-.513-.8-1.026-1.254-1.539l-1.14-1.083c-.114-.114-.171.057-.4-.171l-.228-.171a.705.705,0,0,1-.171-.114c0-.171-.171-.342-.342-.456a5.681,5.681,0,0,1-1.14-1.2l-.285-.228L9.975-18.7a.2.2,0,0,0-.114-.057c-.171,0-.171,0-.171-.057a1.074,1.074,0,0,0-.114-.456,1.617,1.617,0,0,0-.57-.513l-.228-.228-.228-.285v.057a3.46,3.46,0,0,0-.4-.57l-.057-.057c0-.171-.114-.228-.171-.342l-.4-.171c-.057,0-.114,0-.114-.057l-.171-.228-.4-.456a.441.441,0,0,1,.057-.171c.114-.228,0-.4-.171-.57a.687.687,0,0,1-.285-.285c-.057-.228-.228-.4-.627-.4-.057,0-.057-.057,0-.114,0-.342.171-.342.285-.456.228-.228.342-.456.171-.741-.114-.057-.171-.171-.4-.171l-.057.057a1.762,1.762,0,0,1-.114-.456v-.456C6.156-26.391,5.871-26.79,5.871-27.474ZM3.99-26.391c0-.057.171-.057.228-.057a.209.209,0,0,1-.057.171c-.171.228,0,.342.171.4.057,0,.114.057.171.057-.057,0-.114.057-.171.057H4.161c-.228-.057-.228.057-.228.228v.969c0,.057-.057.114-.114.171v-.114c-2.337-1.938-.342-.855.114-1.767ZM14.421-8.778c.8,0,0,.627,0,.741v.969c0,.057-.057.114-.114.171l-.912.342ZM13.509-10.6a2.861,2.861,0,0,1,.684.114l-.8.171-.171-.171c.057,0,.114-.057.171-.057ZM3.021-28.1a2.861,2.861,0,0,1,.684.114l-.741.171-.228-.171c.114,0,.171-.057.228-.057ZM14.307-3.42c-.057,0-.057-.057-.057-.114l.456.228c.114.057.114,0,.114.057-.114.057-.114.057-.171.057a2.469,2.469,0,0,1-.285-.057C14.364-3.306,14.307-3.363,14.307-3.42ZM1.254-3.477l.342.285-.228.171H1.254l.114-.228C1.368-3.306,1.311-3.363,1.254-3.477Zm.114.228c.057,0,.057,0,.057-.057ZM25.023-9.8a.574.574,0,0,1,.057-.171c.285.057.228-.114.228-.228a13.861,13.861,0,0,0,0-1.539,1.165,1.165,0,0,0-.285-.912,2.4,2.4,0,0,1-.171-.684.257.257,0,0,1,.171-.171c.4,0,.4-.228.4-.456V-16.7c0-.228,0-.456-.285-.57-.057-.057-.057-.228.057-.228.285,0,.285-.114.285-.228s-.057-.285-.114-.285c-.4-.057-.228-.171-.057-.342a.427.427,0,0,0,.057-.285v-5.3c0-.456-.057-.513-.627-.57h-.171l-.171-.171a.617.617,0,0,1,.285-.228c.114-.057.228,0,.342-.057s.285-.114.114-.285v-.057c.228-.057.171-.171.171-.285v-4.1c0-.4-.114-.8-.114-1.2,0-.171.114-.342.114-.513v-.513c0-.171,0-.456-.171-.513-.342-.228.171-.285.057-.456a1.154,1.154,0,0,0-.741-.8,3.593,3.593,0,0,0-2.052,0,.377.377,0,0,1-.342.057c-.171-.114-.342-.114-1.425.171-.171.057-.285.285-.456.456-.114.171,0,.285.171.4a.25.25,0,0,1-.171.057c-.057.057-.114.057-.114.171a.971.971,0,0,1,0,.57,2.829,2.829,0,0,0,.057,1.539.689.689,0,0,1,.057.8,1.911,1.911,0,0,0,0,.57c0,.114.114.228.114.342l.171-.171a.209.209,0,0,1-.057.171c0,.057-.057.114-.114.171l-.228.171c0,.057-.057.171,0,.171.228.114.228.228.114.4a1.479,1.479,0,0,0-.114,1.2.791.791,0,0,1,0,.513,3.681,3.681,0,0,0,.114,1.767.275.275,0,0,1,0,.4c-.171.456-.057.8-.228,1.2a.545.545,0,0,0,0,.513.545.545,0,0,1,0,.513,2.137,2.137,0,0,0,0,1.2.791.791,0,0,1,0,.513,2.933,2.933,0,0,0,.114,1.71.487.487,0,0,1,0,.4,1.422,1.422,0,0,0-.057.969.432.432,0,0,1-.114.228c-.285.342-.114.627.114.855.171.171.342.285-.057.342a.123.123,0,0,0-.114.114,1.924,1.924,0,0,0,.114,1.14c.057.114.4.171-.057.285,0,0,.057.228,0,.285a1.276,1.276,0,0,0-.057,1.2,1.29,1.29,0,0,1,.057,1.026.343.343,0,0,0-.057.228.981.981,0,0,1-.057.8c-.057.114.057.285.057.456,0,.114.057.228.057.342a3.25,3.25,0,0,0-.057.741c.057.228-.114.456.057.684.057.057,0,.171,0,.285,0,.228-.057.456-.057.684s.057.456.057.684c.285.114,0,.342.114.513.114.114.057.285,0,.456a1.118,1.118,0,0,0-.057.855.432.432,0,0,1-.114.228c-.114.228-.228.456,0,.684.114.114.057.228,0,.342a.81.81,0,0,0-.114.342c-.114.171,0,.285.171.342s.228.171.057.228-.171.171-.171.342a2.775,2.775,0,0,1-.057.684,1.041,1.041,0,0,0,.285,1.14,2.478,2.478,0,0,0,1.14.4c.456.057.855-.057,1.311,0h.855a1.4,1.4,0,0,0,.912-.342,1.528,1.528,0,0,0,.456-1.2c-.114-.114-.342-.171-.342-.285,0-.171.342.057.4-.114v-1.2c0-.171.057-.342.057-.513,0-.855.057-1.71,0-2.565-.057-.8.057-1.6.057-2.394a1.42,1.42,0,0,0-.171-.969ZM21.717-1.2l-.285-.342V-1.6c0-.114,0-.171.114-.228a.123.123,0,0,1,.114-.114.123.123,0,0,1,.114.114.81.81,0,0,1,.114.342.81.81,0,0,1-.114.342Zm.912-29.412h.114l.4.342a.343.343,0,0,1,.057.228c0,.057-.057.057-.114.057-.228,0-.57-.4-.456-.57Zm-1.6,3.306-.228-.171c-.057-.114,0-.171.171-.228l.171-.228.171-.171a.209.209,0,0,0,.057.171l-.114.342-.228.171Zm2-5.928c.057-.057.228-.057.342-.057l.114.114-.57.513-.057-.057a2.025,2.025,0,0,1,.228-.513Zm1.482,3.306.171-.114.4.4c-.114.057-.171.114-.228.114C24.681-29.526,24.453-29.754,24.51-29.925ZM22.173-10.317h.114c.114.114.114.171-.057.228l-.057.057.171.285v.171l-.285-.114c-.057-.114-.171-.285.114-.342ZM22.629-28.5c.228.057.513,0,.456.342v.171l-.171-.171-.285-.171-.114-.171ZM21.09-15.048a.123.123,0,0,1-.114-.114.343.343,0,0,1,.057-.228l.171-.171.171.171v.057a.177.177,0,0,1-.057.114.209.209,0,0,1-.171.057Zm.228,5.472H21.2c-.057-.057-.114-.114-.114-.171a.723.723,0,0,1-.057-.342c.228-.057.171.171.228.285l.171.285a.2.2,0,0,0-.057.114ZM20.691-29.64c.057-.057.114-.114.171-.114a.824.824,0,0,1,.4.114v.057a.62.62,0,0,1-.285.057c-.171,0-.228,0-.285-.057-.057,0-.057-.114-.057-.114ZM22-18.981c0-.057.228-.114.285-.114h.285a.574.574,0,0,1,.171.057c0,.171-.114.057-.171.057H22.4c-.114-.057-.228.228-.342,0Zm-1.254,4.1c-.057,0-.114-.057-.171-.114l-.171-.171c.057,0,.114-.057.171-.057.114.057.171.171.285.285-.057.114-.114.228-.171.228Zm1.14,2.223V-13l.171.171.228.285v.114H22.23a.485.485,0,0,1-.171-.285ZM21.6-3.42v-.057a.81.81,0,0,1,.342-.114l.114.114c-.057.057-.114.114-.171.114h-.171Zm1.539-22.4h.171l.228.171h-.4l-.171-.171v-.057ZM21.888-2.109l-.057-.114c.057-.057.114-.114.171-.114l.171.114c-.114.057-.171.114-.228.114Zm.627-4.275-.228-.228a.209.209,0,0,0,.171-.057l.171.171ZM23.37-19.95l.171.114-.228.171c0-.057-.057-.114-.057-.171A.123.123,0,0,1,23.37-19.95Zm-.228-12.141-.171.171c0-.057-.057-.114-.057-.171s.057-.114.114-.171a.209.209,0,0,0,.057.171Zm-1.995,2.052.228.228H21.2c-.057-.057-.114-.114-.114-.171ZM22.173-5.7c-.114,0-.114-.057-.171-.114h.057a.3.3,0,0,1,.228.114.2.2,0,0,0-.114.057Zm-.8.684v-.228h.171Zm.8-7.7v-.057h.171v.057Zm8.493,6.954h-.057a9.892,9.892,0,0,1,.8,2.166,14.347,14.347,0,0,0,1.71,2c.228.228.513.342.627.57C34.371.4,38.931.627,40.071-.057c.57-.285,1.539,0,1.881-.456.114-.057.171-.114.228-.114a3.425,3.425,0,0,0,1.254-.684c.969-1.14,2-1.653,2.28-2.907,0-.114-.114-.228-.057-.342a7.1,7.1,0,0,0,.741-2,.343.343,0,0,0-.057-.228c-.171-.171-.114-.4-.057-.627a3.329,3.329,0,0,0,.228-1.026c0-.114.228-.171.285-.171-.057-.627.456-1.71.171-2.109a.723.723,0,0,1-.057-.342c.285-1.71-.627-2.622-.855-3.876V-15.1l-.513-.684a.919.919,0,0,0-.4-.228c-.285-.114.114-.8-.228-.684-.513.171-.285-.228-.8-.285-.057,0-.228-.057-.228-.114,0-.228-.171-.171-.342-.171s-.456,0-.513.114c-.228.342-.513.228-.8.057a8.025,8.025,0,0,0-1.653.057c-.057,0-.114-.057-.171-.057a2.756,2.756,0,0,1-1.368.057c-.456-.114-.57.456-.969.513-.114.057-.171.285-.285.4v.171c0,.4-.171,1.767-.171,2.166,0,.171-.057.4.285.342a.836.836,0,0,1,.114.228c-.057.171-.114.342.057.456a1.146,1.146,0,0,0,.456.228l1.482.342c.171.057.171.4.342.285.228-.171,2.394-2.109,1.938.627-.057.285.228.285.114.57a.81.81,0,0,0-.114.342v.171a5.062,5.062,0,0,1-.057,1.6,2.171,2.171,0,0,1-.171.57c-.171.855-.513,1.425-.627,2.28,0,.057-.114.114-.114.171s.171.057.171.114c.057.114,0,.228-.228.228-.228-.057-.228.057-.171.228l-.4.342c-.171.114-.342.171-.171.4.114.114-.171.285-.285.4-.057.057-.228.057-.342.057V-3.99c-.114,0-.285-.057-.228.171.057.171,0,.171-.114.114h-.285a6.207,6.207,0,0,1-1.083.057,1.74,1.74,0,0,1-1.311-.285c-.285-.171-.342-.513-.741-.57a.123.123,0,0,1-.114-.114c-.057-.627-1.026-1.14-.969-1.824a2.346,2.346,0,0,0-.171-.456,1.664,1.664,0,0,1-.114-.513,2.216,2.216,0,0,1,.114-.855c.057-.456.114-.57-.114-.969v-.114c.171-.171.114-.342.114-.513a6.167,6.167,0,0,0,0-1.026,5.76,5.76,0,0,1-.171-.969,6.281,6.281,0,0,1-.114-1.026c0-.456.057-.912.057-1.368a5.884,5.884,0,0,0-.228-1.71c0-.171.114-.342.114-.513a11.242,11.242,0,0,0-.114-2.394c0-.57.342-1.2.342-1.824a28.424,28.424,0,0,1,.4-3.078,1.494,1.494,0,0,0-.114-.855c-.057-.114,0-.228,0-.342v-.342a1.14,1.14,0,0,1,.114-.741c.228-.456.513-.969.684-1.425.057-.114.171-.285,0-.4a.812.812,0,0,1,.114-.228.824.824,0,0,0,.4-.57,2.792,2.792,0,0,1,.969-1.026l.684-.513c.057-.057.114-.114.171-.114a1.105,1.105,0,0,0,.855-.114h.171a4.467,4.467,0,0,1,.8.285c1.026.4.912.456,1.254,1.368a.245.245,0,0,0,.4.114c.057-.057.228,0,.228.057.057.342.342.684,0,1.083-.171.228-.114.342.057.57.4,1.767-.285,3.192,2.28,3.648a3.3,3.3,0,0,0,1.653-.171c.456-.171.912-.912.684-1.311.057-1.311,0-1.425,0-2.166a7.014,7.014,0,0,0-.171-1.881l-.513-1.2c0-.057-.114-.114-.171-.114-.285-.057-.285-.057-.285-.342a.254.254,0,0,0,0-.285A11.561,11.561,0,0,0,44.4-32.091c-.228-.228-.342-.627-.855-.57a1.207,1.207,0,0,1-.4-.171h.57c0-.057,0-.114-.057-.114-1.14-.342-1.6-1.083-2.052-1.14a1.057,1.057,0,0,1-.4-.114c-.057-.057-.114-.171-.171-.171a4.739,4.739,0,0,0-1.6-.171.791.791,0,0,1-.513,0,.964.964,0,0,0-.8,0,3.325,3.325,0,0,1-1.311.171,5.02,5.02,0,0,0-.969.114,7.885,7.885,0,0,0-1.539.8,2.288,2.288,0,0,0-.912.741c-.228.285-.57.456-.684.8,0,.057-.171.114-.228.171a1,1,0,0,0-.627.969c0,.114-.057.171-.228.171-.057,0-.114.114-.171.228a1.756,1.756,0,0,0-.285.684,3.163,3.163,0,0,0-.342,1.254c0,.057-.114.114-.114.171a1.664,1.664,0,0,0-.114.513,2.338,2.338,0,0,0,.057.627c.057.228-.456.513-.513.8a1.751,1.751,0,0,0-.114,1.2.988.988,0,0,1,.171,1.026,1.111,1.111,0,0,0-.057.456c-.114-.171-.456,1.539-.342,1.425l-.114.4c.456.8-.456,1.824-.114,2.565a1.325,1.325,0,0,1,.057,1.14.359.359,0,0,0,0,.342c.228.228.057.4-.057.57a.3.3,0,0,0,0,.456c.171.171.114.4.171.627l-.171.342c-.171.171.171.342-.171.513a1.559,1.559,0,0,1,.228.285c.057.228.171.456.057.684a.942.942,0,0,0,0,1.083c.342.513,0,1.083,0,1.6.057.171.342.342.228.513a.545.545,0,0,0,0,.513.43.43,0,0,1,.057.456.723.723,0,0,0-.057.342,1.3,1.3,0,0,0,.4,1.14.948.948,0,0,1,.114.627c-.114.171-.456-.114-.171.171.171.228-.513.57-.4.741s.4.285.4.513v.171a.7.7,0,0,0,.228.513c0,.057,0,.057.057.057-.057-.057.057-.171.057-.285a.81.81,0,0,1,.114-.342.441.441,0,0,0,.171.057c0,.114.057.228,0,.285a2.17,2.17,0,0,1-.285.342Zm8.55-8.835a8.239,8.239,0,0,1-.228-1.653.173.173,0,0,1,0-.228.432.432,0,0,1,.228-.114.81.81,0,0,1,.342.114,16.018,16.018,0,0,1,.057,1.653c-.057.057-.171.171-.228.171a.432.432,0,0,1-.228-.114Zm-7.752-2.451a.109.109,0,0,1-.171-.057l.342-.684a.759.759,0,0,1,.285-.171.584.584,0,0,1,.342.285c.057.057,0,.228-.057.285A.847.847,0,0,1,31.464-17.043Zm3.42-11.628L34.6-28.5a.323.323,0,0,1-.285-.4l.4-.342A.427.427,0,0,1,35-29.3l-.171.171c0,.057-.057.114-.057.171a.2.2,0,0,0,.057.114c.456,0,.057.171.057.228Zm9.4,15.846L44.517-13a.259.259,0,0,0,.285,0c-.057.228.228.513.171.741,0,.057-.171.057-.171.057-.057-.171-.4-.285-.171-.57Zm-5.529-18.3v-.285l.228-.228.114.228v.228l-.171.513C38.7-30.78,38.76-30.951,38.76-31.122Zm5.3,25.707q0,.086-.171.171l-.171.171c-.057-.057-.114-.114-.114-.171a.427.427,0,0,1,.057-.285c.057-.057.171-.171.228-.171.228.057.114.171.114.228Zm-13.4-5.073c-.114,0-.285-.114-.285-.171.057-.228-.114-.4-.171-.57l.627.456v.114c-.114,0-.171.057-.228.057Zm1.767-18.24c.171,0,.285.114.171.228,0,.114-.057.171-.171.342-.114-.171-.228-.285-.228-.4a.261.261,0,0,1,.285-.228ZM30.552-17.271c.057,0,.171.114.285.171l-.285.342c-.114-.114-.228-.171-.228-.228A.569.569,0,0,1,30.552-17.271Zm14.592,3.534c.114,0,.171-.057.228-.057s.171-.057.228-.057.114.057.171.114l-.171.171h-.285c-.057,0-.171-.057-.228-.057ZM41.667-29.412c0-.114.627-.171.684-.228h.114v.171c0,.057-.627.114-.684.228-.057-.114.456-.171.456-.228Zm-9.4,12.654L32.6-17.1l.114.057c.057.114-.228.4-.4.456ZM33-16.53l-.4.285-.114-.114.4-.342c.057,0,.171.057.228.057Zm4.446-14.307c-.228-.057-.171-.228-.171-.342a.81.81,0,0,1,.114-.342l.114.342A1.221,1.221,0,0,0,37.449-30.837ZM41.5-3.135v-.114c.114-.057.456.171.627.114l.057.057C42.18-2.907,41.667-3.078,41.5-3.135Zm-8.322-26.9.228-.171c.114.057.228.171.057.285-.057.057-.228,0-.342,0v-.114Zm.456,1.2a.2.2,0,0,0-.057.114c-.057-.057-.114-.114-.114-.171v-.513c.228.057.114.285.171.4ZM41.439-1.026,41.1-1.653v-.171c.057.057.4.684.4.684v.057ZM32.775-4.218h-.228a.209.209,0,0,1,.057-.171l.4-.228c0,.171-.114.228-.228.285Zm2.451-24a.119.119,0,0,1,.228,0l.171.171v.057l-.057.057-.285-.171C35.226-28.1,35.226-28.158,35.226-28.215Zm-4.5,18.126-.171.342h-.057v-.342c0-.057.114-.114.171-.171A.209.209,0,0,0,30.723-10.089Zm8.493-2.565v-.057l.4-.171a.705.705,0,0,1,.114.171,1.417,1.417,0,0,1-.456.057Zm-8.664-8.265.171.171-.228.228c-.057-.114-.114-.171-.114-.228ZM42.978-6.156c-.057-.114-.114-.171-.114-.228a.123.123,0,0,1,.114-.114.574.574,0,0,1,.171.057c0,.057-.057.114-.114.228Zm.627-.228c0-.057.114-.114.171-.171,0,.057.057.114.057.171s-.057.114-.114.171a.177.177,0,0,0-.114.057Zm-6.156,4.9a.209.209,0,0,1-.171.057.177.177,0,0,0-.114-.057v-.057c.057-.057.114-.114.171-.114s.114.057.171.057C37.506-1.539,37.506-1.482,37.449-1.482Zm7.41-13.053h.114c0,.057.057.114.057.171s-.057.114-.114.171c-.057-.114-.114-.171-.114-.228ZM33.687-8.379l-.456.342h-.057v-.057l.456-.342h.057Zm6.156-24.966v.114a1.113,1.113,0,0,1-.4-.057V-33.4A1.113,1.113,0,0,0,39.843-33.345ZM42.75-9.975c-.057-.057-.171-.114-.171-.171l.171-.114c.057.057.114.114.114.171Zm1.311,3.534c.057-.057.114-.114.171-.114l.114.114c-.057.057-.114.114-.171.114s-.114-.057-.171-.057ZM44-24.8a.431.431,0,0,1,.057.228L44-24.51c-.114,0-.171-.057-.171-.114ZM33.459-11.058c.057,0,.114.057.171.057-.057,0-.114.057-.171.057h-.4A1.057,1.057,0,0,1,33.459-11.058Zm9.291-2.109c.057,0,.114-.057.171-.057s.114.057.171.057L42.921-13ZM35.283-32.889l.171.342a.2.2,0,0,0-.114.057c-.057,0-.057-.057-.114-.114h.057ZM46.056-9.975H46l.171-.171.114.114-.171.171ZM36.138-29.184c-.057,0-.114-.057-.171-.114l.114-.114.171.171Zm-4.5,8.208c-.057.057-.114.114-.171.114a.25.25,0,0,0-.171-.057l.228-.171a.2.2,0,0,0,.057.114ZM35-4.389h.171c-.114.057-.114.114-.114.171a.177.177,0,0,0-.114.057c0-.057-.057-.114-.057-.171Zm-1.083-28.1h.057c-.057.057-.057.114-.171.114a.2.2,0,0,0-.114-.057c.057-.057.114-.114.114-.171ZM33-17.955v.228l-.057-.057h-.114v-.171ZM34.428-1.767a.209.209,0,0,1-.171.057v-.171c0-.057.057-.114.114-.171v.285ZM35.91-33.288c0-.057.057-.114.114-.171v.171c0,.057-.057.114-.114.228,0-.114-.057-.171-.057-.228ZM32.148-20.862l.171-.171.057.114-.171.171A.2.2,0,0,0,32.148-20.862Zm5.985,7.068-.057-.114c.057,0,.114-.057.171-.114l.114.057ZM33.459-31.92a.963.963,0,0,1,.285.114h-.4A.123.123,0,0,1,33.459-31.92ZM30.723-15.333c-.057,0-.114-.057-.171-.057.114-.057.171-.114.285-.114C30.837-15.5,30.78-15.333,30.723-15.333Zm1.71,10.944-.171.171h-.114Zm-.342.285c0-.057,0-.114.057-.114ZM30.609-5.757c-.057-.057-.057-.057-.057-.114C30.552-5.814,30.552-5.814,30.609-5.757ZM64.524-11.8c.456-.114.456-.342.456-.456-.057,0,0,0,0-.057l-.057-.057c-.4-.114-.513-.285-.513-.57v-.114c-.342-.171-.171-.456-.114-.684l.171-.684c0-.057,0-.114-.057-.114-.342-.228-.4-.342-.285-.57a1.207,1.207,0,0,0,.114-1.083c-.114-.114,0-.228,0-.342v-.513a.427.427,0,0,1,.057-.285,1.893,1.893,0,0,0-.057-1.368,1.276,1.276,0,0,1,.057-1.2c.114-.456-.342-.912,0-1.368.342-.8.114-2.223.114-3.534a3.006,3.006,0,0,0-.171-.684.473.473,0,0,1,.171-.456.471.471,0,0,0,.057-.684c-.171-.171-.285-.627.114-1.653a.209.209,0,0,0-.057-.171.524.524,0,0,1-.057-.684,3.266,3.266,0,0,1,.627-.627c-.4-.4-.4-.456-.513-1.2a1.615,1.615,0,0,1,.114-1.254.359.359,0,0,0,0-.342c-.285-.228-.171-.513-.057-.741a.8.8,0,0,1,.741-.57c.171,0,.285-.114.4-.114a5.783,5.783,0,0,1,2.508.342,1.511,1.511,0,0,1,.342.285c.171.57.741.855.741,1.482,0,.741-.057,1.254-.057,2,0,.285-.228.57-.228.855s.171.57.171.855-.171.57-.171.855c0,.4.114.8.114,1.2a12.857,12.857,0,0,1,0,2.565c.114.285-.114.513-.171.8v.114c.513.285.285.741.285,1.083a10.983,10.983,0,0,0-.057,1.368c0,.912.057,1.824.057,2.736v.171a.693.693,0,0,0,0,.912c.57,1.14-1.083.456-.456,1.254.114.114.342.285.114.456v3.078a1.446,1.446,0,0,1-.114.684c-.171.285.228.57.114.855a4.314,4.314,0,0,0-.057.855c0,.285.057.57.057.855a10.089,10.089,0,0,0,.057,1.311,10.955,10.955,0,0,0,0,1.368.847.847,0,0,1-.114.513,1.1,1.1,0,0,0,0,.741,3.718,3.718,0,0,1,.114,1.368,4.634,4.634,0,0,0,.057,1.254,1.323,1.323,0,0,1-.342,1.2A1,1,0,0,1,68-.228a5.644,5.644,0,0,0-1.71.114c-.8,0-2.394-.285-2.394-1.425,0-.057-.114-.114-.171-.171-.057-.171-.8-.342-.8-.456.057-.285-.171-.456-.228-.684-.342-.969.741-.4.969-1.083-2.793-.114-.912-.513-2.109-2.109-.171-.285-.285-.627-.456-.969a4.481,4.481,0,0,1-.456-1.482,2.158,2.158,0,0,0-.456-.684c-.171-.171.228-.114.114-.228a.569.569,0,0,0-.285-.228c.114-.4-.228-.627-.4-.969a2.888,2.888,0,0,1-.114-.741.919.919,0,0,0-.171-.513c-.342-.342-.171-.684-1.824-4.617-.057,0-.114,0-.114-.057l-.57-1.2a.352.352,0,0,1,.114-.4c-.342-.114-.4-.4-.513-1.311v-.057h-.057a10.566,10.566,0,0,1-.8-1.881c-.057-.228-.342-.285-.57-.285-.342,0-.513.342-.513.741l.171,1.2.285,1.2a8.389,8.389,0,0,1,0,1.2,3.128,3.128,0,0,1-.285.969c-.057.171-.171.285-.171.456a.517.517,0,0,0,.171.4c.171.171.4.342.285.627-.114,0-.285,0-.342.057l-.57.342v.057a1.087,1.087,0,0,0,.741-.114l.171-.285a.2.2,0,0,0,.057.114,12.333,12.333,0,0,0,0,2.052c-.057.342.057.684-.114,1.026a.977.977,0,0,1-.228,1.083c-.057.057,0,.228.114.285.228.228,0,.171-.114.228-.057,0-.057.171,0,.228a.473.473,0,0,1,.171.456c-.171.114-.171.228-.057.342a1.087,1.087,0,0,1,.114.741,1.111,1.111,0,0,0-.057.456,12.866,12.866,0,0,1,.057,2.565.9.9,0,0,1-.285.684.366.366,0,0,0,.057.513.616.616,0,0,1,.171.4,9.75,9.75,0,0,1-.171,2.223c0,.114.114.228.114.342a1.491,1.491,0,0,1-.513,1.026.864.864,0,0,1-.456.228,1.346,1.346,0,0,0-.684.057.732.732,0,0,0-.57-.57c-.171,0-.4.228-.228.342L52.5.171c-.228,0-.57.114-.8.114A1.485,1.485,0,0,1,50.217-.57a.694.694,0,0,1,0-.741c.228-.228-.342-.456-.513-.684a1.939,1.939,0,0,1-.057-.57c0-.171.342-.057.285-.285a2.469,2.469,0,0,0-.057-.285.554.554,0,0,0-.057-.513c-.171-.171-.114-.342.057-.513a.654.654,0,0,0,.057-.57.487.487,0,0,1,0-.4,1.287,1.287,0,0,0-.114-1.2,1.035,1.035,0,0,1,0-1.14.727.727,0,0,0,0-.684.52.52,0,0,1,0-.684l.114-.456a.269.269,0,0,0-.057-.342c-.228-.171-.171-.342,0-.513a.446.446,0,0,0,.057-.456.786.786,0,0,1,0-.513,1.057,1.057,0,0,0-.114-1.083.855.855,0,0,1,0-1.026.605.605,0,0,0-.114-.741.944.944,0,0,1,0-.684l.228-.513c.114-.171.171-.285-.057-.456a.3.3,0,0,1-.057-.456c.114-.171.285-.342.171-.57A.2.2,0,0,1,50.1-16.7h.171l.4-.171c-.114-.228-.228-.057-.4,0-.228.057-.285,0-.228-.228a1.1,1.1,0,0,0,0-.741c-.057-.228,0-.513-.171-.684a.209.209,0,0,1-.057-.171v-.171c.057,0,.057.057.114.057a.81.81,0,0,0,.342.114,2.469,2.469,0,0,0,.285-.057c-.057-.057-.114-.114-.171-.114-.4-.057-.57-.342-.4-.684.057-.114,0-.342.285-.4.114,0-.057-.4-.228-.513-.228-.114-.228-.228-.114-.456l.171-.513a.338.338,0,0,0-.057-.4.366.366,0,0,1-.057-.513.654.654,0,0,0,.057-.57.624.624,0,0,1,0-.456,1.207,1.207,0,0,0-.114-1.083.942.942,0,0,1,0-1.083.692.692,0,0,0-.057-.741c-.171-.228-.057-.456,0-.684l.171-.513a.43.43,0,0,0-.057-.456.3.3,0,0,1,0-.456.554.554,0,0,0,.057-.513,1.087,1.087,0,0,1,.114-.741.123.123,0,0,1,.114-.114H50.5c-.057-.171-.114-.285-.342-.285v-.171a2.382,2.382,0,0,1-.228-.57.974.974,0,0,1,0-.8c.171-.4-.228-.855,2.223-2.166,1.083.456,2.565-.4,3.648.57l.285.171.342.342a1,1,0,0,1,.342,1.14v.171c-.057.513-.057.513.456.741a14.284,14.284,0,0,1,.741,1.6,7.219,7.219,0,0,0,.342,1.026l.4,1.2c0,.057.057.114.114.171,0,.171.057.342.057.513a1.205,1.205,0,0,0,.342.969,2.025,2.025,0,0,1,.228.513c.114.228.114.4-.171.456-.114,0-.057.114,0,.114.285.057.342.285.4.456a1.372,1.372,0,0,0,.342.456,1.192,1.192,0,0,1,.228.342l.969,2.565.342,1.368v.228c-.057.228-.057.4.171.513.057.057.171.171.171.228,0,.4.285.684.456,1.026.057.285.228.57.114.855,0,.057.057.114.114.171a4.688,4.688,0,0,1,1.083,1.026c.057.171.228.4.171.456-.171.285-.057.342.171.456.057,0,.114.114.114.171C64.011-13.053,64.581-12.141,64.524-11.8Zm-7.7-7.809c.342-1.425-1.14-1.311-.684-.855l.57.855c0,.057.057.057.114.057a.2.2,0,0,0,.057-.114Zm1.254,2.394c0-.171-.342-.456-.57-.456-.114.114-.342.228-.4.342-.057.171.228,0,.285.114l.171.171a.218.218,0,0,0,.285-.171ZM50.9-3.021c-.285.114-.741,0-.8.456.057,0,.114-.057.171-.057.4.057.627-.228.969-.342v-.057a.2.2,0,0,0-.114-.057C51.072-3.078,50.958-3.021,50.9-3.021Zm15.96-27.873a.762.762,0,0,0-.4-.456c0,.057-.057.114-.057.171a1.111,1.111,0,0,0,.057.456l.171.285.228-.285ZM52.1-13.908l-.57-.114c-.228-.057-.4.057-.627.228-.057.057-.114.114-.114.171s.057.057.171.114l.57-.342Zm.513-2.223c.57-.171.57-.285.57-.342-.057,0-.114-.057-.171-.057a1.185,1.185,0,0,1-.627.057c-.057,0-.114.057-.228.114l.228.171h.228Zm.456-8.436c-.114.342,0,.456.342.456.057,0,.171-.057.228-.057v-.114c-.228-.114-.342-.228-.342-.456h-.114a.209.209,0,0,0-.057.171Zm-.741,9.177c.114-.057.171,0,.228.114a.81.81,0,0,0,.114.342v-.684c-.057-.114,0-.4-.228-.342-.114.057-.114.342-.171.513,0,.057.057.114.057.171ZM52.1-20.121h-.57l-.057.057.684.342a.281.281,0,0,0,.171-.057Zm14.079,6.954a.209.209,0,0,0,.228.228c.114,0,.342,0,.342-.171,0-.057-.171-.114-.228-.171v-.114c-.171-.057-.228.057-.228.171ZM64.41-4.788c.114-.114.228-.285.513-.171L64.695-5.3c-.228.057-.342.285-.456.456,0,.057.057.114.057.171h.114ZM54.15-7.011a2.137,2.137,0,0,0,.057-.627c-.342.114-.171.456-.4.57l.171.171S54.15-6.954,54.15-7.011ZM68.457-23.94v-.114c0-.057-.057-.114-.057-.171h-.114l-.4.342v.057l.114.057.513-.171ZM51.528-18.069a3.336,3.336,0,0,0,.741.114c.057,0,.114-.057.171-.057l-.171-.171a4.334,4.334,0,0,1-.8.057Zm3.99-11,.171.171c.057.057.114.114.171.114a.25.25,0,0,1,.171-.057v-.171c-.114-.114-.171-.171-.342-.057ZM67.545-15.276c-.057,0-.114.114-.171.171l.171.228a1.192,1.192,0,0,1,.342-.228C67.773-15.162,67.659-15.276,67.545-15.276ZM53.466-4.047a.3.3,0,0,0,.228-.114h-.4l-.342.171c.171.171.285,0,.4,0h.228Zm12.825-20.8-.171-.171-.228.342c.057,0,.114.057.228.057.057,0,.114-.057.171-.114Zm-5.586,6.27c.057-.057.228-.057.114-.171-.057-.057-.228,0-.285.057l-.228.171.171.114.171-.171Zm7.923,5.529c-.171-.114-.228,0-.285.114v.171a.209.209,0,0,0,.171-.057c.114,0,.171-.057.228-.057v-.057ZM52.839.456A1.511,1.511,0,0,1,52.5.171c.114,0,.171.057.228.057h.4A.2.2,0,0,1,52.839.4ZM67.26-12.654a.661.661,0,0,0,.57-.228v-.057l-.57.171ZM51.129-.57,51.3-.912a.177.177,0,0,1-.057-.114h-.057L50.958-.8v.114h.171ZM52.1-4.617s-.57,0-.57-.057V-4.5h.57ZM67.146-31.749l-.171.171a.2.2,0,0,1,.057.114l.4-.171-.171-.114Zm-7.068,9.861c-.057,0-.114.114-.171.171l.171.171c.057-.057.114-.114.114-.171a.209.209,0,0,0-.228-.228ZM64.068-7.7a.2.2,0,0,1,.057.114l.342-.228a.2.2,0,0,1-.057-.114,1.429,1.429,0,0,0-.4.228ZM53.409-31.749a.209.209,0,0,0-.057.171.3.3,0,0,0,.228.114l.114-.114-.228-.171Zm13.965,5.3H67.26c-.057.057-.114.114-.114.171a.2.2,0,0,0,.114.057h.114c.057-.057.114-.114.114-.171a.177.177,0,0,1-.057-.114ZM67.032-2l.114-.114c-.057-.057-.114-.114-.171-.114s-.114.114-.171.171l.171.171ZM53.58-27.018h-.114c-.057,0-.114.057-.171.114v.057h.171c.114,0,.171-.057.228-.057v-.057Zm12.54,5.3.114-.114L66.006-22a.209.209,0,0,1-.171.057ZM67.887-1.6a.3.3,0,0,0,.228-.114.3.3,0,0,0-.228-.114c-.057,0-.114.057-.171.057.057,0,.114.057.171.057ZM53.58-17.613h.171a1.057,1.057,0,0,0-.4-.114.2.2,0,0,1-.114.057c.057.057.114.114.171.114ZM68.229-4.332,68.4-4.5c-.057,0-.114-.057-.171-.057L68-4.389a.209.209,0,0,1,.171.057Zm-2.736-9.519c.057-.057.114-.114.114-.171l-.057-.057c-.057,0-.171.057-.228.057a.209.209,0,0,0,.057.171ZM53.922-.057a.2.2,0,0,1,.114-.057l-.171-.228-.114.114c0,.057.057.114.114.171ZM57.57-22.629c-.057,0-.114.057-.171.057.057.057.057.114.114.114h.228Q57.655-22.629,57.57-22.629ZM53.295-3.021c.057,0,.114-.057.171-.114-.057-.057-.114-.114-.171-.114s-.114.057-.171.114c.057,0,.114.057.171.057Zm1.083-8.037a.706.706,0,0,1,.171-.114c-.057-.057-.114-.114-.171-.114s-.114.057-.171.057ZM55.689-23.2h-.171l-.228.171a.25.25,0,0,1,.171.057Zm2.964-2.793-.228.171a.432.432,0,0,0,.228.114l.057-.057c0-.057-.057-.057-.114-.114Zm-1.2-2.109a.123.123,0,0,0-.114.114c0,.057.057.114.057.171l.171-.171Zm8.322,2.337c-.057.114-.057.228.057.285l.114-.114Zm1.14,20.52a.2.2,0,0,1-.057-.114l-.228.171.114.114Zm-.057-27.132-.228.171.114.057c.057,0,.114-.057.171-.114l-.057-.057Zm.57,1.71v-.171l-.228-.171-.057.057.228.171ZM54.378-9.747h-.171l.171.171h.114v-.057ZM62.3-6.213a.209.209,0,0,0,.171.057c0-.057.057-.114.057-.171l-.057-.057Zm1.6-1.14v.342c.057-.057.114-.114.114-.171s-.057-.114-.057-.171ZM56.772-29.982V-30.1h-.228v.114Zm-5.586,3.249a.431.431,0,0,0-.228.057v.057h.228ZM66.8-27.417c-.057.057-.057.114-.171.114.114.057.114.114.114.114h.114C66.861-27.246,66.8-27.3,66.8-27.417ZM65.778-30.1l-.057.057.171.171.057-.057ZM50.616-15.276c-.057,0-.114.057-.171.114h.171c.057,0,.057-.057.114-.114ZM65.265-4.845l-.171-.171v.171ZM60.021-18.7l.114.057.114-.114h-.171Zm-7.41,10.83c.057,0,.114-.057.171-.057H52.5c.057.057.114.114.171.114ZM56.43-19.38h-.057v-.114a.056.056,0,0,0,.057.057Zm4.5,11.742h-.057v.057h.057ZM78.6-33.573c-.057,0-.114,0-.114.057v-.114a1.255,1.255,0,0,1-.456.057c-.057,0-.114.114-.171.171l-.912,1.026a3.918,3.918,0,0,0-.285,1.368,2.861,2.861,0,0,0-.114.684,1.057,1.057,0,0,0,.114.4c.057.114.114.228,0,.228-.342,0-.285.171-.171.342l.171.342c0,.057-.057.114-.057.171a.2.2,0,0,0-.114-.057h-.228a.2.2,0,0,1-.057.114c.171.171.114.4.057.627v.171c.228.342,0,.57-.171.8a1.057,1.057,0,0,0-.114.4c.057.171.114.342-.057.513a.425.425,0,0,0,0,.456.447.447,0,0,1-.057.627c-.171.114-.171.228-.171.4a1.664,1.664,0,0,1-.114.513,1.82,1.82,0,0,0-.171,1.083,1.856,1.856,0,0,1-.171,1.368c-.057.171-.228.342-.228.513l.057-.057.228.114-.285.228-.057-.057c0,.057.057.114.057.171.057.4-.171.741,0,1.14.057.057-.114.228-.171.342,0,.057-.057.114-.057.171a1.645,1.645,0,0,1-.171,1.026,2.717,2.717,0,0,0-.228,1.14.97.97,0,0,1-.057.4,1.446,1.446,0,0,0-.114.684,4.4,4.4,0,0,1-.114.855l-.171.684a.847.847,0,0,0-.114.513.972.972,0,0,1-.171,1.083.766.766,0,0,0-.114.513,1.746,1.746,0,0,1-.171,1.311,1.456,1.456,0,0,0,.057,1.71v.057a.62.62,0,0,1-.057.285c-.228-.171-.342-.171-.456.057a1.625,1.625,0,0,0-.114.912.971.971,0,0,1,0,.57c-.057.228-.171.285,0,.456.057.114.114.228-.057.171,0,0-.114.057-.114.114a4.989,4.989,0,0,1-.114.912c-.228.456-.114.969-.342,1.425-.057.114-.057.228.114.228.114,0,.171.114.057.114-.228.057-.228.228-.228.4s-.228.4.057.57a.574.574,0,0,0-.057.171c-.114.114-.228.228-.228.285.114.4-.114.4-.228.741-.171.57-.285.57.057,1.083l.114.171V-.741L71.877-.8h.057l.057-.057L72.1-.8c.057.057.114.057.114.114a.2.2,0,0,1,.114.057.41.41,0,0,0,.4.228.209.209,0,0,0,.171.057c.114.285.456.285.684.285a3.722,3.722,0,0,0,.627-.114.123.123,0,0,1,.114-.114c.627,0,1.254-.057,1.938-.057s.741-.285,1.083-.8a3.508,3.508,0,0,0,.4-1.311c.057-.456-.057-.57.171-1.026.057-.171-.114-.4-.057-.57.057-.228.285-.4.285-.627a19.774,19.774,0,0,1,.342-2.565l.171-.171a3.823,3.823,0,0,1,2.907-1.14,8.25,8.25,0,0,0,2.052-.057c.171-.057.228.114.342.228h.171l-.171.171-.171.342c.171.057.285.171.342.171.456-.171.513.114.627.342a14.119,14.119,0,0,1,.171,1.539.726.726,0,0,0,.285.627.275.275,0,0,1,.057.4c-.171.171-.171.285,0,.456a.343.343,0,0,1,.057.228,4.4,4.4,0,0,1,.114.855c0,.285-.057.228-.057.513a.209.209,0,0,0,.057.171c.171.342.228.684.4,1.026.114.4,1.14.741,1.482,1.083a1.352,1.352,0,0,0,1.14.4c.114,0,.228-.057.342-.057.513,0,1.026.057,1.539.057a3.923,3.923,0,0,0,.741-.114.377.377,0,0,0,.342-.4,1.542,1.542,0,0,1,.171-.855,1.255,1.255,0,0,0,.057-.456L91.2-2.166l-.4-2.052a4.545,4.545,0,0,1-.171-.855,8.1,8.1,0,0,0-.456-2.337,3.213,3.213,0,0,1-.228-.684,2.39,2.39,0,0,0-.057-.912,9.277,9.277,0,0,0-.4-1.71.723.723,0,0,1-.057-.342,2.192,2.192,0,0,0-.285-1.2.427.427,0,0,1-.057-.285c.057-.228.228-.513-.057-.741.057-.456-.228-.912-.228-1.368a.767.767,0,0,0-.285-.684c-.114-.057-.228-.171-.057-.285a.754.754,0,0,0,.114-.684l-.513-2.736-.171-1.2c0-.057,0-.228-.057-.228-.285-.057-.228-.171-.171-.285.114-.171-.057-.171-.114-.228-.114-.114-.057-.114.057-.114a.574.574,0,0,0,.057-.171,3.373,3.373,0,0,1-.285-1.083c0-.057-.057-.114-.057-.171a.733.733,0,0,1-.057-.684v-.171a1.165,1.165,0,0,0-.285-.513c-.114-.228.228-.342.171-.513l-.171-.627-.171-1.026c-.171,0-.171-.114-.114-.285a1.918,1.918,0,0,0-.228-1.254q-.171-.086-.171-.171a9.321,9.321,0,0,1-.114-1.254,4.381,4.381,0,0,0-.171-1.71,11.673,11.673,0,0,0-.285-1.368,1.947,1.947,0,0,0-.741-1.368c-.285-.228-.684-.114-.969-.171a6.167,6.167,0,0,0-2.28-.057c-.114,0-.342.057-.456,0a1.589,1.589,0,0,0-1.026-.057v.057l-.228.171-.057.114a.623.623,0,0,0-.57-.114c-.057-.057-.114-.057-.4-.114A3.214,3.214,0,0,0,78.6-33.573Zm4.845,19.209c-.057.114-.285.114-.456.171-.114.114-.4.114-.285.456,0,.057-.171.171-.228.171-.228-.057-.513.228-.684-.057h-.114a2.353,2.353,0,0,1-1.539-.285h-.171c-.342,0-.4-.057-.57-.342a.177.177,0,0,0-.057-.114c-.513-.57-.285-.114-.228-.684a21.508,21.508,0,0,0,.741-6.042c0-.114,0-.171.057-.228a2.673,2.673,0,0,0,.171-1.482,4.018,4.018,0,0,1,.228-1.767,14.32,14.32,0,0,1,.228-1.539.886.886,0,0,1,.342-.456.611.611,0,0,1,.342-.114l.57.171c.057.057.057.228.114.342,0,.285-.114.513.228.684a.678.678,0,0,0-.228.627c.057.171,0,.456.342.513.057,0,.114.171.057.228a1.83,1.83,0,0,0-.114.969.341.341,0,0,0,.171.342.611.611,0,0,1,.114.342,3.926,3.926,0,0,0,.057,1.14,6.9,6.9,0,0,1,.057,1.083c0,.171,0,.342.228.4.171.057.171.171.171.342l-.171.57v.171a2.619,2.619,0,0,1,.171,1.311v.627a2.056,2.056,0,0,1,.228,1.368,2.138,2.138,0,0,0-.057.57c0,.171.057.114.228.114.057,0,.114-.114.114-.228l.114.228Zm-4.389-9.975c.114.057.228.171.228.228a2.216,2.216,0,0,1-.114.855l-.342.855c-.4-.057-.171-.456-.285-.741,0-.114-.114-.171-.114-.285,0-.171-.057-.4-.057-.57A.891.891,0,0,0,79.059-24.339ZM78.6-11.115a.435.435,0,0,1-.114.285l-.285.114-.171-.171c.057-.114.057-.228.114-.285l.456-.285c.228.171-.057.285-.114.4Zm5.643,1.71c0-.057.057-.114.114-.171h.057v.171c0,.057-.057.114-.057.171l.342.171.171,1.254c-.057.057-.171-.912-.228-.912l-.057-.057a.435.435,0,0,1-.285-.114.34.34,0,0,1,0-.4C84.246-9.291,84.246-9.348,84.246-9.405Zm-.855-15.789-.171.4-.228.171-.171-.171c-.057-.114-.057-.171.114-.171.057,0,.114-.171.171-.285l.228-.171v.171Zm2-5.7a1.346,1.346,0,0,1-.342.513c-.228-.171-.057-.342-.057-.513,0-.114.114-.171.228-.228h.057v.057ZM87.837-16.53l.171.171-.4.342-.057-.057.114-.456Zm-3.42-8.379.228-.342H84.7v.171a.62.62,0,0,1-.057.285c0,.057-.057.057-.171.114,0-.057-.057-.114-.057-.171Zm-1.2-5.244h.228c.114,0,.228-.057.342.114h-.342l-.4-.171c.114-.228.342-.057.513-.057Zm2.793,6.384v.342l-.057.057-.228-.342c0-.057.114-.114.171-.171ZM89.832-3.876c-.057,0-.114-.057-.171-.114.057-.057.114-.114.171-.114a2.564,2.564,0,0,1,.456.114c-.228.057-.285.114-.342.114Zm-9.4-26.676.342-.171h.114v.114l-.4.171c-.057,0-.114-.057-.171-.057C80.37-30.5,80.37-30.552,80.427-30.552Zm.627,19.665c-.057-.057-.171-.114-.171-.171A.3.3,0,0,1,81-11.286c.057.057.114.114.114.171s-.057.114-.057.171ZM80.94-11.97,81-12.027a.252.252,0,0,1,.114.4Zm4.9,3.534-.114-.114.228-.171v.342c0,.057-.057.057-.114.057ZM77.235-30.153c.057.057.114.114.114.171s-.057.114-.114.171c-.057-.057-.114-.114-.114-.171S77.178-30.1,77.235-30.153ZM86.013-3.135c.057,0,.114.057.171.057l-.228.171-.114-.114C85.9-3.078,85.956-3.135,86.013-3.135ZM82.023-30.78c0,.057-.057.057-.114.057l-.057-.057.171-.171.171.114ZM80.37-32.775c.057-.057.114-.114.171-.114l.114.114c-.057.057-.114.114-.171.114l-.057-.114Zm4.389,7.011.114.057a.431.431,0,0,1-.057.228c-.057-.057-.114-.114-.114-.171A.177.177,0,0,1,84.759-25.764ZM82.707-32.6h.114v.171c0,.057-.057.057-.114.114ZM86.07-8.835c0,.057-.057.057-.114.057v-.171c0-.057.057-.057.114-.057ZM89.262-1.71l.171.171c-.057,0-.057,0-.114.057l-.114-.171ZM84.987-24.624h-.171l-.057-.057c0-.057.057-.057.114-.114v.057ZM74.955-21.147c0-.057.057-.114.057-.171L74.9-21.2Zm35-11.8-.057-.114c-.285-.057-.4-.456-.8-.4-.057,0-.114-.114-.171-.171l.171-.171a.209.209,0,0,1,.171-.057c-.057-.057-.114-.114-.171-.114-.171,0-.4-.057-.513,0a.724.724,0,0,1-.684,0,1.259,1.259,0,0,0-.912,0,.74.74,0,0,1-.57.114c-.057,0-.171,0-.114.114,0,.057.171.114,0,.171s-.342.171-.4,0c-.057-.285-.285-.228-.513-.228a4.9,4.9,0,0,0-.912-.057,1.757,1.757,0,0,1-.57-.057,7.643,7.643,0,0,0-2.28,0,.785.785,0,0,1-.627,0,.953.953,0,0,0-.684.057,2.531,2.531,0,0,1-1.14.057c-.4,0-.855-.057-1.311-.057a2.138,2.138,0,0,1-.57-.057,7.115,7.115,0,0,0-2.451.057c-.057,0-.171.057-.228,0-.456-.228-.8-.057-1.254.057a.83.83,0,0,0-.513.342l-.285.684a.855.855,0,0,1,0,1.026v.171a1.5,1.5,0,0,0,.855,1.482,1.68,1.68,0,0,0,.741.285h2.109c.171,0,.285,0,.285-.228,0-.057.057-.114.114-.171,0,.057.057.114.057.171-.114.228.057.285.285.342l.57.228a1.093,1.093,0,0,1,.912,1.083,1.664,1.664,0,0,0,.114.513c0,.057.228.114.228.171a4.4,4.4,0,0,1-.114.855c0,.114-.114.228-.114.342a7,7,0,0,0,.114,1.539,2.159,2.159,0,0,1,0,.855.97.97,0,0,0,.057.4.446.446,0,0,1,.057.456.81.81,0,0,0-.114.342v1.026a.723.723,0,0,0,.057.342.366.366,0,0,1,.057.513c-.228.285-.114.627-.114.969,0,.057.057.114.057.171.057,0,.114-.057.171-.057a.82.82,0,0,1,.171-.114c.057.114.228.228.228.342s-.171.057-.285,0c-.228-.057-.342.057-.342.285s.057.456.057.684-.057.456-.057.684a.427.427,0,0,0,.057.285c.171.171.114.342,0,.513a2.672,2.672,0,0,0,0,1.881.487.487,0,0,1,0,.4,1.694,1.694,0,0,0-.228,1.026,10.381,10.381,0,0,1,.057,1.881.537.537,0,0,0,.228.513.259.259,0,0,1,0,.285.678.678,0,0,0-.228.627c.114.4-.114.855.171,1.254.285.456-.228.8-.057,1.254a9.207,9.207,0,0,1,0,1.254c0,.171.057.342.057.513-.057.342-.228.684.114.969.057.057,0,.171,0,.228l-.171.342a.574.574,0,0,0,.057.171c.171,0,.228.057.114.171-.171.114-.285.228-.285.4.114.342-.057.684.228.969.057.057,0,.228-.057.342a1.893,1.893,0,0,0-.057,1.368A1.4,1.4,0,0,0,99.807-.171a1.493,1.493,0,0,0,.855-.057,4.038,4.038,0,0,1,.8.057.574.574,0,0,0,.057-.171c0-.057-.057-.114-.057-.171V-.684c.057,0,.114,0,.114.057a.753.753,0,0,0,1.083.285.767.767,0,0,0,.684-.285,1.374,1.374,0,0,0,.4-1.026,2.356,2.356,0,0,0-.114-1.083c-.171-.4.228-.684.114-1.026-.114-.114,0-.228-.114-.342,0-.057-.114-.114-.114-.114-.171.114-.228,0-.285-.114V-4.5h.342c.057-.342.285-.684.057-1.026a.427.427,0,0,1-.057-.285,8.429,8.429,0,0,0,.057-2.394c0-.171-.285-.4-.285-.57s.285-.285.228-.513a4.314,4.314,0,0,1-.057-.855v-.513c0-.171.057-.342.057-.513v-2.907c0-.171.057-.342-.114-.513a.173.173,0,0,1,0-.228,6.713,6.713,0,0,0,.171-2.394V-19.95c0-.228.114-.456-.114-.627a.343.343,0,0,1-.057-.228,1.642,1.642,0,0,0,.057-1.368.97.97,0,0,1-.057-.4c0-.342.057-.684.057-1.026v-2.394c0-.285.114-.57-.114-.8V-26.9a8.851,8.851,0,0,1,.228-1.2c.114-.114.228-.228-.057-.285-.114-.057,0-.342.171-.285.228.114.285-.057.4-.171v-.171h.228l.741-.513c.57.057,1.482.057,1.026-.456.57,0,.4.114,1.311.285.171,0,.285-.057.4-.057h.171a1.276,1.276,0,0,0,1.653-1.2,6.2,6.2,0,0,1,.057-1.026c.057-.342-.171-.684,0-1.026Zm-1.938.4c0,.057-.114.114-.171.114a2.025,2.025,0,0,1-.57-.114c-.057,0-.057-.114-.114-.171.057-.057.114-.114.171-.114h.285c.171.057.4.171.4-.171h.171a.419.419,0,0,1-.114.342ZM93.822-30.723c-.456-.114-.57-.456-.342-.741a.427.427,0,0,1,.285-.057v.171c-.171.171-.171.285.057.4.057,0,.114.057.171.114C93.936-30.78,93.879-30.723,93.822-30.723Zm7.467,4.446-.342.228c-.057-.114-.114-.171-.114-.228l.171-.285.4-.285c.057,0,0,.342-.228.513Zm-1.254,5.358v.171l-.285.228-.114-.057v-.342h.057l.171-.171.228.171Zm-.285,7.752c-.057,0-.114-.057-.171-.057.057-.057.114-.114.171-.114v.114c0-.057.057-.057.057-.114a.432.432,0,0,0,.228-.114l.228.171c-.114.057-.171.171-.285.171l.057.114C99.864-13,99.75-13,99.75-13.167Zm.8,12.6L100.434-.8l.342-.171c.057,0,.114.114.228.228Zm.285-3.819h-.342v-.057l.228-.171a.343.343,0,0,1,.228-.057A.177.177,0,0,0,101-4.56Zm.228-26.22.228-.171h.171v.171l-.171.171v-.171Zm-.969,23.427-.228.171v-.171l.228-.171c.057.057.114.114.114.171Zm3.021-25.764c-.114,0-.171-.057-.228-.057l.228-.171c.057.057.114.114.114.171a.2.2,0,0,1-.057.114Zm-2.337,26.5-.228.342h-.114l-.057-.057.342-.285Zm-.912-11.115c.114,0,.171-.057.228-.057s.114.057.171.114c-.057.057-.114.114-.171.114s-.057-.057-.114-.114Zm3.249-3.933c.057-.057.114-.114.171-.114s.114.057.171.057v.171a.209.209,0,0,0-.171-.057Zm-3.762-7.3a.2.2,0,0,0,.114.057.3.3,0,0,1-.228.114.2.2,0,0,0-.114-.057l.114-.171Zm.8,13.68c.057,0,.114.057.171.114l-.171.171a.209.209,0,0,0-.171-.057c.057-.057.114-.114.171-.114Zm.228,12.426c.057,0,.114-.057.171-.057.114,0,.114.057.171.114l-.171.114-.114-.171Zm-.969-4.959h.171c.057.057.114.114.114.171a.056.056,0,0,1-.057.057h-.057Zm2.679-25.137a.209.209,0,0,0,.057.171.209.209,0,0,1-.171.057c0-.057-.057-.114-.057-.171s.057-.057.114-.057Zm-1.2,15.618c0-.057.057-.114.114-.171l.114.114-.171.171-.057-.057Zm2.508-2.28c.057,0,.114.057.171.114a.177.177,0,0,0-.057.114c-.057,0-.114-.057-.171-.114A.2.2,0,0,1,103.4-19.437Zm.171-10.2-.171-.171.057-.057.171.171v.057Zm-4.5-.4h-.114v-.171h.114Zm1.995,24.4V-5.7h.228c-.114.057-.114.114-.114.114H101Zm0,.228v-.057h.057v.057Zm2.394-22.344v-.057h.057Zm7.923-2.793a10.764,10.764,0,0,1,0,1.482.981.981,0,0,1-.114.684c-.114.114-.171.228,0,.342a.621.621,0,0,1,.114.627l-.228.342a.754.754,0,0,0-.114.684.727.727,0,0,1,0,.684,1.461,1.461,0,0,0,0,1.2c.228.342.4.684.114,1.083-.057.114,0,.228.228.285.171.057.114.114,0,.171a.2.2,0,0,0-.114.057c.057.171-.114.285-.171.456-.114.171-.171.342,0,.513.171.114.171.228.057.342l-.171.513a.52.52,0,0,0,.114.627v.171a2.3,2.3,0,0,1,0,.627,1.461,1.461,0,0,0,0,1.2.866.866,0,0,1,.057,1.14c-.057.057,0,.228.114.342a.454.454,0,0,1-.114.513c-.114.171-.171.342,0,.513a.357.357,0,0,1,.114.456l-.171.4a.727.727,0,0,0,0,.684c.171.285.342.627-.057.912v.114c0,.285-.114.57.057.855a.958.958,0,0,1,.171,1.083c-.114.114,0,.342.057.513a.629.629,0,0,1,0,.456c-.228.285-.057.285.228.513.114.114.057.171,0,.285-.228.4-.4.8-.057,1.2.057.057.114.171.057.228-.228.285.057.456.114.684a3.213,3.213,0,0,1,.228.684c0,.456-.228,1.083,0,1.482l.342.855c.057.114.342.228.4.342.285.627.741,1.14,1.083,1.767a.687.687,0,0,0,.285.285.652.652,0,0,1,.456.4,1.714,1.714,0,0,0,.627.8,2.212,2.212,0,0,0,.627.342c.171.114.627.114.8.285a8.836,8.836,0,0,0,1.653.8c.171.057.4.171.513.114a1.434,1.434,0,0,1,.855.057.941.941,0,0,0,.684,0,.674.674,0,0,1,.57-.057h.171A.343.343,0,0,0,120.9.342l-.228-.114a.788.788,0,0,1,.912.228.252.252,0,0,0,.342.171l.57-.114c.114-.057.285-.171.285-.228-.114-.285.171-.228.342-.285a1.578,1.578,0,0,1,.513-.057c0,.228.228.114.285.057A7.7,7.7,0,0,0,125.8-1.083,6.481,6.481,0,0,1,126.654-2v-.114h-1.14a.2.2,0,0,1-.057-.114V-2.28a1.057,1.057,0,0,1,.4-.114,5.337,5.337,0,0,0,.912-.228c.4-.114.8-.228.627-.627-.057-.171,0-.228.171-.342a2.188,2.188,0,0,0,.513-1.026l.228-.57a1.032,1.032,0,0,0-.057-.912.343.343,0,0,1-.057-.228l.171-.285a2.255,2.255,0,0,0,.285-1.482V-8.55c0-.57.342-1.083.285-1.653a9.322,9.322,0,0,0-.114-1.254v-.855c0-.4-.057-2.109,0-2.166a.81.81,0,0,0,.114-.342,16.794,16.794,0,0,0-.057-2.394c0-.114.057-.228.057-.342v-2.052c.057-.228.114-.456-.057-.627a.343.343,0,0,1-.057-.228,1.1,1.1,0,0,0,.057-1.026v-1.539c0-.057-.057-.114-.171-.114-.171-.057-.114-.114-.057-.228a3.276,3.276,0,0,0,.342-1.767c-.342-.171-.057-.4-.057-.57,0-.114.057-.228.057-.342-.057-.171-.285-.4-.171-.513a.847.847,0,0,0,.114-.513v-.171a7,7,0,0,1-.114-1.539c0-.228-.114-.456-.114-.684v-.342c0-.285.114-.57.114-.855,0-.342,0-.342-.4-.456-.114-.057-.114-.114,0-.228.114-.057.285-.114.285-.171,0-.285.4-.57,0-.855v-.114a.783.783,0,0,0-.285-.456V-33c-.228-.171-.4-.114-.456.171,0,.114-.057.171-.114.171-.114-.513.342-.627.171-1.026-.171.4-.969.228-1.311.057-.171-.114-.342-.057-.57.057a1.035,1.035,0,0,1-.627.114,2.468,2.468,0,0,0-.912.057c-.057,0-.114.057-.171.114a.982.982,0,0,0-.456.8c0,.342-.114.684-.114,1.026a1.55,1.55,0,0,0,0,.513c.171.456-.171.855.114,1.311a.343.343,0,0,1-.057.228c-.513.684.456,1.653-.114,2.907a10.8,10.8,0,0,1-.057,3.591.2.2,0,0,1,.057.114c0,.57.057.627,0,2.394a19.238,19.238,0,0,1,0,2.565.427.427,0,0,0,.057.285c.171.228-.057,1.311-.114,1.6v.114c0-.057,0-.057.057-.114.114-.114.228-.057.285.057.057.228,0,.4-.228.456,0,.171-.228.4.228.4.057,0,.171.171.171.285,0,.057-.114.114-.171.171l-.342-.342c0,.057-.114.114-.114.171v.342c0,.228.114.456.114.684,0,.342-.114.684-.114,1.026l.228-.171c.057.057.171.114.171.171a.665.665,0,0,0,.4.627.259.259,0,0,1,0,.285,3.132,3.132,0,0,1-.513.4.521.521,0,0,0-.285.684c.342.342-.171,1.938-.057,2.565a1.641,1.641,0,0,1-.057.741l-.513,1.71c-.228,1.083-.741,1.311-1.083,2.052a1.111,1.111,0,0,1-.456.057c-.114,0-.228-.057-.4-.057a3.943,3.943,0,0,1-2,0c-.057,0-.171.057-.171.114-.057.114-.114.171-.285.114-.114-.057-.171-.171-.057-.285.228-.171.057-.171-.114-.285a2.183,2.183,0,0,1-1.368-1.767c0-.057-.057-.114-.057-.171v.171l-.057.057h-.114a1.638,1.638,0,0,1,0-1.368.487.487,0,0,0,0-.4,15.45,15.45,0,0,1-.228-2.28,6.2,6.2,0,0,1-.057-1.026,1.42,1.42,0,0,0-.171-.969v-.171c.171-.171.057-.4.114-.627l.114-1.026c.057-.57-.114-1.14,0-1.71,0-.057-.057-.171-.057-.228v-.342a6.2,6.2,0,0,1,.057-1.026c.057-.513-.285-.969-.114-1.482a2.137,2.137,0,0,0,.057-.627c0-.057-.057-.114-.057-.171h-.057l-.171.114a.343.343,0,0,1,.057-.228l.171-.285a.732.732,0,0,0,.228-.57,10.983,10.983,0,0,1-.057-1.368c0-.057-.057-.114-.057-.171v-.513c0-1.026-.114-1.824-.114-2.736.057-.57.114-1.14.114-1.71,0-.342.114-.342-.228-.342-.171,0-.456.057-.57-.171l.57-.171c.342-.057.456-.114.342-.456a4.286,4.286,0,0,1,0-.855c0-.513.228-1.083-.171-1.6v-.171c0-.285.057-.57.057-.855a8.5,8.5,0,0,0,.114-1.2,1.4,1.4,0,0,0-.912-1.368c-.4-.171-.741,0-1.14-.114-.114-.057-.285,0-.456,0a.209.209,0,0,0-.171.057,1.4,1.4,0,0,1-1.083.057,1.526,1.526,0,0,0-1.311.285.856.856,0,0,0-.285,1.083.971.971,0,0,1,0,.57A1.112,1.112,0,0,0,111.378-30.552Zm16.074,9.063a.257.257,0,0,1,.171-.171c.057,0,.171.057.171.114l.171.741-.171.171c-.057-.057-.171-.114-.171-.171A3.006,3.006,0,0,1,127.452-21.489Zm-13.395,3.306c-.057,0-.114-.057-.171-.114s-.4-.114-.456-.171l.627-.171.342.171a.343.343,0,0,1,.057.228c0,.057-.171.057-.228.057Zm13.965-7.125c0-.057.057-.114.171-.114a.123.123,0,0,1,.114.114v.285l-.228.456c0,.057-.057.057-.114.057a.123.123,0,0,1-.114-.114Zm-2.736-2.565a.324.324,0,0,0-.4.228l-.171.171h-.171v-.114c.114-.171.114-.342.285-.456.114-.114.57,0,.627.114l-.057.057Zm-1.2-4.674.171-.285a.963.963,0,0,1,.285-.114c.114.057.114.228.057.342l-.456.342c-.057-.114-.114-.171-.114-.228ZM126.2-9.006c-.057-.057-.114-.114-.114-.171.057-.285-.114-.456-.285-.627.228-.057.342,0,.4.228a.919.919,0,0,1,.171.513c0,.057-.171.114-.228.171C126.141-8.949,126.2-8.949,126.2-9.006Zm-12.825-10.2c.057-.057.456-.057.513-.114a.209.209,0,0,1-.057.171c-.057.114-.456.228-.57.342h-.114a.2.2,0,0,0-.057-.114Zm9.234,15.5c-.057.171-.057.4-.4.342l-.057-.057c0-.114.228-.342.513-.4.057,0,.114.057.171.057-.057.057-.114.057-.114.114Zm-7.353-24c0-.057.057-.114.114-.171a.389.389,0,0,1,.4.285.123.123,0,0,1-.114.114c-.171,0-.342,0-.342-.171Zm-2.337,13.623c-.057,0-.114-.057-.171-.114l-.171-.171.171-.171c.114,0,.228,0,.228.057.114.057.114.171.114.285h-.228Zm11.058,10.6h-.114l-.228-.342c0-.057.114-.114.114-.171a.209.209,0,0,1,.171.057l.171.342C124.032-3.534,124.032-3.477,123.975-3.477Zm1.6-28.329.4-.513h.057a.177.177,0,0,0,.057.114l-.342.513h-.171Zm1.14,6.5a.123.123,0,0,1-.114.114c-.114.114-.171.342-.456.228v-.057c.057-.171.285-.285.513-.342A.056.056,0,0,0,126.711-25.308Zm-1.2-2.907c.171,0,.285,0,.342.057.057,0,.057.057.114.114-.057.057,0,.114-.057.114a1.057,1.057,0,0,1-.4-.114.209.209,0,0,1-.171-.057C125.4-28.158,125.457-28.215,125.514-28.215Zm2.109,5.358a.123.123,0,0,1,.114.114c0,.171-.114.285-.342.285a.723.723,0,0,1,.057-.342c0-.057.171-.114.228-.114Zm.684-8.265c.057,0,.171.114.171.114l-.228.285c-.057-.114-.171-.171-.171-.228S128.193-31.065,128.307-31.122Zm-14.364-2.337.171.171c.057,0,.057.057.057.114H114c-.057-.057-.4-.114-.456-.171h.057ZM115.2-18.867v-.057l.57-.171v.057a.849.849,0,0,1-.513.228Zm11.457,6.213L126.483-13v-.171c.057,0,.171,0,.171.057a.723.723,0,0,1,.057.342h-.057ZM112.518-9.8q-.171-.086-.171-.171t.171-.171l.114.057a.431.431,0,0,1-.057.228Zm2.109-22.116-.4.171-.114-.114.4-.171Zm.969,18.81a.431.431,0,0,1-.228.057v-.057l.4-.171.114.114c-.057.057-.057.114-.114.114Zm11.685-13.338a.209.209,0,0,0,.171.057l-.171.171a1.111,1.111,0,0,0-.456-.057A3.928,3.928,0,0,0,127.281-26.448Zm-1.6-2.28-.171-.114q0-.086.171-.171c.057.057.114.114.114.171s-.057.114-.114.171Zm-1.2,22.971H124.2l-.171-.171.057-.057.4.171ZM112.575-31.122a.2.2,0,0,0,.057.114c0,.057-.057.114-.114.228l-.171-.114q0-.085.171-.171ZM127.053-3.249c-.057-.057-.456-.114-.456-.171l.057-.057c.057.057.456.114.513.171l-.057.057ZM114.171-14.592a.431.431,0,0,1,.228.057c.057,0,.057.057.057.114h-.228a.123.123,0,0,1-.114-.114Zm10.317-16.929c-.057,0-.114.057-.228.057a.123.123,0,0,1-.114-.114l.114-.114Zm-8.664,20.007v-.513a.269.269,0,0,1,.057.342h.114Zm9.12-15.846c0-.057.114-.057.171-.114,0,.057.057.114.057.171s-.057.057-.114.114c0-.057-.114-.114-.114-.114ZM121.239-1.254h-.114l.228-.342a.209.209,0,0,0,.057.171Zm-6.327-24.795.228.171a.2.2,0,0,1-.114.057l-.228-.171.114-.114ZM112.29-14.421h.114c.114.057.114.114.114.171l-.114.057c-.057-.057-.114-.114-.114-.171Zm.342-15.96h.057c-.057.171-.057.342-.285.4Zm1.653,23.655a.209.209,0,0,1-.171.057h-.171l.114-.171h.114v.114Zm-1.653-8.322a.2.2,0,0,0-.114.057l-.228-.171a.2.2,0,0,0,.114-.057Zm2.793,6.27v-.114h.228v.114Zm.627-18.069.057.057-.285.171-.057-.057Zm10.488,13.4v.057l.114-.114h.114v.114l-.114-.057c-.057.057-.114.057-.114.114v.057C126.426-13.338,126.483-13.395,126.54-13.452ZM125.457-9.8a.2.2,0,0,0,.114-.057.3.3,0,0,1,.228.114h-.228V-9.8Zm-11.97-15.162c.057.057.4.114.456.171h-.114c-.057-.057-.4-.114-.456-.171a.2.2,0,0,0,.114-.057Zm-.171,13.794c-.057-.057-.114-.057-.114-.114v-.057h.171v.057Zm12.369-14.136v-.171h.114v.171ZM114.4-30.78h-.171v-.114h.171Zm11.8,2.223v.057h-.171v-.114h.057ZM112.632-6.783c0-.057,0-.114.057-.114a.2.2,0,0,0,.114.057l-.114.114A.056.056,0,0,0,112.632-6.783Zm.855-16.644v-.057h.456Zm-1.2,9.006h-.228v-.057h.171ZM125.685-28.5h-.114v-.057h.114ZM122.493.342V.285h.057V.342Zm4.047-13.68v-.057l-.057.057ZM138.4-9.576c.057,0,.057-.057.171-.114a3.266,3.266,0,0,1,2.337-.684h.4c.228-.057.228-.114.171-.342L141.3-11.4h.114a2.45,2.45,0,0,1,.114.684v.171a1.419,1.419,0,0,1,.4,1.083c0,.057,0,.171.057.171a.372.372,0,0,1,.114.456c0,.171-.057.228.114.342.114,0,.114.228.114.342l.171.741c.057.228,0,.456.228.627.057.057-.057.228-.057.342.114.513.456.855.513,1.368.171.114.114.228,0,.342-.057.057,0,.171,0,.171.285-.114.228,0,.228.114l.057.456.741,1.539.228.513a.62.62,0,0,1-.057.285c-.285.228-.114.4.057.627h.171c.285-.057.342.114.4.228.057.171.114.456.342.513a3.467,3.467,0,0,0,1.311.171,9.253,9.253,0,0,1,1.2-.057h.228c.285.171.456,0,.684-.114A1.192,1.192,0,0,1,149-.627c.171-.057.171-.171.171-.342l1.026.114a6.4,6.4,0,0,0-.456-1.482c-.114-.171-.342.114-.228-.228,0-.057-.057-.114-.114-.171-.228-.228-.342-.342-.228-.57v-.171c-.057-.228-.228-.456-.285-.684a1.939,1.939,0,0,0-.057-.57l-.4-.969a7.435,7.435,0,0,0-.57-1.425.343.343,0,0,1-.057-.228,1.341,1.341,0,0,0-.114-.456c-1.482-2.565-.627-3.42-1.368-4.275a1.812,1.812,0,0,1,.57-.57c.912-1.083.969-1.2.969-1.254-.057-.228,1.482-2.508,1.425-2.622-.57-2,1.083-3.078.627-5.7l.057-.057a.363.363,0,0,1,0-.342,4.687,4.687,0,0,0,.114-1.539v-.114c-.285-.171-.171-.4-.114-.627l.171-.513a.343.343,0,0,0-.057-.228c-.057-.057-.171-.057-.171-.114-.114-.114.057-.114.171-.114a.574.574,0,0,0,.057-.171l-.513-1.2c0-.057-.057-.171-.057-.228.114-.513-.4-.969-.57-1.425a.81.81,0,0,1-.114-.342,1.328,1.328,0,0,0-.4-.855c-.114-.228-.057-.627-.456-.684v-.114l-.228-.342c-.057-.114-.228-.171-.285-.285a3.4,3.4,0,0,0-1.254-.912l-.57-.285a1.733,1.733,0,0,1-1.083-.4c-.228-.228-.171-.285-.513-.285-.228,0-.342,0-.456-.171a.36.36,0,0,0-.4-.057.939.939,0,0,1-1.14-.057c-.057-.057-.114-.114-.171-.114-.342.114-.57-.171-.912-.171-.114,0-.228-.057-.342,0-.456.228-.912.057-1.311.114a4.9,4.9,0,0,1-.912.057c-.114,0-.228-.057-.342-.057a1.939,1.939,0,0,1-.57-.057,6.206,6.206,0,0,0-2.052-.057,4.313,4.313,0,0,1-1.482,0,.343.343,0,0,0-.228-.057c-.57.114-1.2.228-1.311.855a.428.428,0,0,0,0,.513.724.724,0,0,1,.228.4c0,.114-.171.228-.228.342a.81.81,0,0,0-.114.342c0,1.14.4,2.052.057,3.021v.171a.69.69,0,0,1,.114.8l-.171.342a.537.537,0,0,0,.114.684.6.6,0,0,1,0,.684.775.775,0,0,0-.057.969,2.521,2.521,0,0,1,.285.855c.057.228.114.228.342.228.171.057.171.171.114.228-.114.171-.228.114-.4,0-.114-.114-.114,0-.114.114a1.835,1.835,0,0,1-.057.969c-.057.114-.171.285,0,.4a.357.357,0,0,1,.114.456l-.114.342a.8.8,0,0,0,0,.8c.342.684-.285,1.2,0,1.881.114.171.171.4.342.627.057.114.057.228-.114.342a.621.621,0,0,0-.114.627c.114.4-.342.8-.057,1.083.171.171.114.342.057.513l-.171.513a.944.944,0,0,0,0,.684.981.981,0,0,1,.057.8,1.329,1.329,0,0,0,0,1.14c.114.228.342.513.171.8-.342.912,0,1.6-.171,2.394a3.174,3.174,0,0,0,.057,1.083,1.578,1.578,0,0,1-.057.513,1.331,1.331,0,0,0,0,1.14c.171.4.4.8.114,1.254a.427.427,0,0,0-.057.285.844.844,0,0,1-.114.741.214.214,0,0,0,0,.342.454.454,0,0,1,.114.513l-.171.513c-.057.228-.228.456.057.627a.209.209,0,0,1,.057.171l-.171.513c0,.114-.057.228-.057.342.171.741,1.254,1.14,2.109,1.14.513,0,1.026-.057,1.482-.057a.845.845,0,0,1,.4.057c.627.228,1.368-.456,1.482-.912A7.331,7.331,0,0,0,138-3.078c0-.114-.057-.171-.228-.171A.419.419,0,0,0,138-3.7c-.057-.969-.171-1.938-.171-2.907S137.712-8.892,138.4-9.576Zm6.669-12.882a.427.427,0,0,0,.057.285.324.324,0,0,1-.114.513c-.513.342.171,1.938-.057,2.451L143.07-15.5a2.533,2.533,0,0,1-1.368.513h-.4c-.342.057-.4.285-.171.513a.209.209,0,0,1,.057.171.343.343,0,0,1-.228-.057c-.456-.4-1.539-.4-2.109-.627h-.114v.057c.057.057.114.057.114.114v.114h-.114c-.171-.114-.513-.114-.456-.456a.432.432,0,0,0-.114-.228c-.114-.171-.057.057-.057.057l-.342-5.244c0-.114,0-.228-.171-.228a2.539,2.539,0,0,0,.171-1.311c0-.57,0-1.14-.057-1.767-.057-.684.057-1.368.057-2.052v-2.394a1.272,1.272,0,0,1,.342-.741l.228-.456c.057-.114.228-.114.342-.171.8-.342,1.539.114,2.28.171,2.565.228,2,1.311,2.736,1.539a.461.461,0,0,1,.228.627c-.114.285.57.513.684.741-.057,0-.114.057-.057.114l.57.684a.824.824,0,0,0-.4-.114c-.114,0-.228.057-.228.171l.627,2.052c.114.228.342.456.342.627s-.228.342-.228.57ZM135.6-18.81c0-.057.114-.057.171-.057a.209.209,0,0,1-.057.171c-.114.228,0,.342.171.4a.2.2,0,0,0,.114.057.177.177,0,0,1-.114.057h-.171c-.171-.057-.171.057-.171.228v.969q0,.086-.171.171v-.114l-1.026-1.14c-.057,0-.057,0-.057-.057v-.114c0-.057.057-.114.171-.114.228-.057.912-.114,1.083-.342Zm3.42-14.136a.9.9,0,0,1,.4-.4c.57-.228.627-.228.8.285h-.114c-.114-.171-.228-.228-.4.057a.569.569,0,0,1-.285.228c-.057.057-.171.057-.171,0A.305.305,0,0,1,139.08-33ZM133.1-7.41v-.114h.114l.171.171.4.513v.171a.62.62,0,0,1-.285-.057l-.513-.513Zm8.094-25.479a2.047,2.047,0,0,1,.57-.4h.057a.177.177,0,0,0,.057.114l-.57.684h-.114c-.057,0-.171-.057-.171-.114,0-.114,0-.228.114-.285ZM135.945-33c.171,0,.285-.171.4-.228h.114a.056.056,0,0,1,.057.057l-.57.627a.432.432,0,0,1-.228.114c-.057,0-.057-.114-.057-.171v-.114c-.057-.228.057-.228.228-.228Zm13,9.006-.114-.057c-.057-.342-.456-.57-.4-1.083a.177.177,0,0,0,.114.057,1.625,1.625,0,0,1,.456.8c0,.057-.057.114-.114.171ZM133.38-1.539h-.114A.209.209,0,0,1,133.1-1.6a.432.432,0,0,1-.114-.228.309.309,0,0,1,.456-.228l.228.228-.4.171Zm1.881-3.819.057-.057c.912.114-.513.513-.684.114ZM133.95-3.933a.723.723,0,0,1-.342-.057.3.3,0,0,1-.228-.114c.057,0,.114-.057.228-.057h.342c.114,0,.285,0,.342.057.057,0-.228.228-.342.228Zm-.228-4.959c-.114.057-.285.171-.456.057v-.114l.57-.171c.057,0,.114.057.171.114-.114.114-.171.171-.228.171Zm.855-11.628a2.861,2.861,0,0,1,.684.114l-.741.171-.171-.171c.057,0,.114-.057.171-.057Zm.684-8.208.114.114-.171.228-.627-.114c0-.057.57-.114.627-.228Zm7.752-2.394a.723.723,0,0,1,.342-.057c.057,0,.114.057.228.057v.114l-.4.171a.2.2,0,0,1-.114-.057c0-.057,0-.171.057-.171Zm-5.358,1.254v-.171a.81.81,0,0,1,.114-.342c.057.057.228.114.228.228,0,.057-.171.171-.228.285,0,.057-.057.057-.114.057h-.114Zm1.254-1.881.171.456a.2.2,0,0,1-.114.057h-.114l-.171-.342a.177.177,0,0,0,.114-.057Zm-.171,19.779c-.171.057-.4.171-.57.057v-.057l.513-.171a.431.431,0,0,0,.228.057C138.852-12.027,138.795-11.97,138.738-11.97Zm2.679-.057h-.456v-.057l.8-.171.057.057v.057C141.588-12.084,141.474-12.084,141.417-12.027Zm.513-18.3c-.057,0-.114.057-.171.057-.171,0-.285-.114-.228-.228,0-.057.057-.057.171-.114l.171.228Zm-8.949,16.131a.209.209,0,0,1,.171-.057c0,.057.057.114.057.171s-.057.114-.114.171l-.171.171v-.171c.057-.114.057-.228.114-.285Zm2.28-15.105h-.684v-.114h.684Zm3.078,15.675c0-.171.228-.114.342-.114-.057.114-.057.285-.285.228Zm-4.047-.342-.285.228-.114-.114.285-.171A.2.2,0,0,0,134.292-13.965Zm5.643-17.841-.057.057h-.114a.313.313,0,0,1-.171-.285Zm5.757,6.783-.171-.171.114-.114.171.171Zm-4.56,13.338c0,.057,0,.114-.114.171h-.057v-.114l.228-.171h.171Zm-5.358,9.063h-.114v-.171h.171v.342ZM134.52-9.747c-.057,0-.114.057-.171.057s-.057-.057-.114-.114c.057,0,.114-.057.171-.057s.114.057.171.114ZM137.028-3.7c-.057-.057-.114-.114-.114-.171l.114-.114c.057.057.114.114.114.171h-.114Zm8.721-25.08v-.228l.114.114c0,.057-.057.114-.057.171C145.749-28.728,145.749-28.728,145.749-28.785Zm.114,3.021c.057.228,0,.228-.057.228a.2.2,0,0,0-.057-.114Zm-7.125,11.97v-.057l.171-.171h.057ZM168.663-4.1a12.426,12.426,0,0,0-2.907-.114.259.259,0,0,1-.285,0,.879.879,0,0,0-.912.057.343.343,0,0,1,.228.057c.057,0,.057.057.114.114a.432.432,0,0,1-.228.114L164.5-4.1a1.207,1.207,0,0,0-.4-.171,3.919,3.919,0,0,0-1.824.114h-.057a2.424,2.424,0,0,0-1.425-.171.2.2,0,0,0-.114-.057l-1.026-.741c-.228-.057-.285-.171-.285-.456a.485.485,0,0,0-.171-.285c-.228-.4-.4-.285-.342-.8.057-.627-.285-1.254-.285-1.881a12.4,12.4,0,0,0-.057-2.907,12,12,0,0,1,.114-1.425c1.824-1.311,2.565-.627,3.42-.456a3.735,3.735,0,0,0,.8,0,2.468,2.468,0,0,1,.285-.057c.285.171.513,0,.8-.057a2.138,2.138,0,0,0,.57-.057.406.406,0,0,0,.342-.171c.285-.285.8-.57.684-.969-.057-.57-.114-1.14-.114-1.71,0-.513-.57-.855-1.026-1.083-.4-.171-.513-.171-.855.114l-.342.342a1.341,1.341,0,0,1-.912.285l.285-.171.171-.342-.4-.114a1.738,1.738,0,0,0-.912-.171c-.114,0-.456.114-.513.114a4.87,4.87,0,0,1-1.368-.513,1.826,1.826,0,0,1-.969-1.6c0-.456.228-3.021.342-3.477,0-.114-.057-.228-.057-.342,0-.228-.228-.456-.228-.684,0-.912.4-1.824.4-2.736a8.648,8.648,0,0,1,.171-1.2.857.857,0,0,1,.228-.627,2.316,2.316,0,0,1,1.425-.969c.285-.057.627-.228.969,0,.114.057.228,0,.342,0h4.674c.57,0,1.026-.228,1.083-.855v-.057c.228-.057.627-.171.627-.456v-1.368a2.775,2.775,0,0,0-.057-.684,1.293,1.293,0,0,0-.912-.627c-.342,0-.627-.114-.969-.114a8.628,8.628,0,0,1-1.71-.114c-.057,0-.228.057-.228.114,0,.228-.057.114-.171,0a.611.611,0,0,0-.342-.114,8.028,8.028,0,0,0-1.14.057,1.273,1.273,0,0,1-.627-.057.974.974,0,0,0-.684.057,2.531,2.531,0,0,1-1.14.057,10.944,10.944,0,0,1-1.368,0h-.57a7.268,7.268,0,0,0-2.223,0c-.228.057-.4.114-.57,0a.629.629,0,0,0-.456,0c-.513.114-1.083.114-1.2.741a1.641,1.641,0,0,0-.057.741c0,.057.057.171,0,.228a.816.816,0,0,1-.513.57,1.684,1.684,0,0,0,.114.741c.171.4.4.8.171,1.254a.487.487,0,0,0,0,.4.473.473,0,0,1-.114.456c-.171.171-.228.342,0,.513.114.114,0,.285-.057.456l.057.513c-.057.228-.171.456.057.684a.727.727,0,0,1,0,.684c-.114.171-.114.285.114.171h.114v.114c-.285.057-.285.285-.285.513,0,.057.057.114.114.171v.057l.342-.513h.057v.057l.114.057-.4.513h-.057a1.241,1.241,0,0,1-.114,1.083c-.057.114.057.285.114.4.057.171-.171.285-.342.456-.171.342-.171.342.171.627.057.057.114.057.057.171-.57.8-.114,1.2-.342,1.938a1.331,1.331,0,0,0,0,1.14c.228.4.4.8.114,1.2a.624.624,0,0,0,0,.456.366.366,0,0,1-.057.513c-.114.171-.171.342,0,.513a.3.3,0,0,1,.057.456l-.114.342c-.228.57.228.969,0,1.425a1.276,1.276,0,0,0,.057,1.2.949.949,0,0,1-.057,1.083.624.624,0,0,0,0,.456c.057.228.285.4.114.57a.336.336,0,0,0,.114.513.338.338,0,0,1,.057.4l-.171.513c-.114.228.114.456.228.741a1.171,1.171,0,0,1,0,.627c-.627,1.254.4,1.824.228,2.166a1.118,1.118,0,0,0-.057.855.432.432,0,0,1-.114.228c-.171.228-.285.456,0,.684a.343.343,0,0,1,.057.228l.114.513a.727.727,0,0,0,0,.684.727.727,0,0,1,0,.684.5.5,0,0,0-.057.4c.513,1.368,2.109,1.2,3.192,1.026a2.469,2.469,0,0,0,.285.057h2.964c.228,0,.4-.057.57-.057h2.451c.4,0,.741.057,1.14.057A6.69,6.69,0,0,1,166.1-.285a6.527,6.527,0,0,0,1.824-.057.65.65,0,0,0,.342-.171c.228-.228.627-.513.627-.855,0-.456-.171-.912-.171-1.368Zm-9.234-11.457.342-.684a.485.485,0,0,1,.285-.171,1.241,1.241,0,0,1,.456.285.812.812,0,0,1-.114.228,1.173,1.173,0,0,1-.855.456c0-.057-.057-.114-.057-.171ZM157.092-28.1h.228c.228,0,.285.114.228.4l-.171.57c0,.057-.057.114-.057.171-.057-.057-.114-.114-.114-.171,0-.171-.228-.171-.456-.228C156.636-27.417,156.978-27.987,157.092-28.1Zm-1.026,2.508s.057-.171.114-.171l.57-.228a1.207,1.207,0,0,1,.4.171l-.684.342a.963.963,0,0,1-.285-.114Zm-.171-.57h-.057c-.057-.057-.114-.114-.114-.171v-.228c.4-.114.228-.513.342-.741,0-.057.057-.114.057-.171h.171a3.481,3.481,0,0,1-.171.741,2.677,2.677,0,0,1-.342.513ZM158-26.847l-.684.57v-.342l.57-.342c.057-.057.114,0,.228,0,0,.057-.114.114-.114.171Zm8.265-4.674v-.171l.171-.342.114.228v.228l-.171.513c-.228-.114-.057-.285-.057-.456ZM160.341-2.052l-.4.342h-.114v-.057a.907.907,0,0,1,.513-.513h.114v.057Zm-2.394-30.21H158s0,.057.114.114l-.4.513h-.057v-.057l.171-.513Zm-3.477,5.985v-.057a.569.569,0,0,1,.228-.285c.057-.057.285-.057.285,0,.057.114-.114.171-.228.228l-.342.171Zm1.6-5.472h.4l-.171.171-.456-.171h-.171a.81.81,0,0,1,.342-.114c.114,0,.285.057.4.057Zm5.016,30.381v-.114l-.342-.171c-.057,0-.057-.057-.057-.114h.171l.342.228h.114v.171c-.114,0-.171,0-.171-.057Zm-5.7-8.949.513-.171.114.114-.342.171a2.468,2.468,0,0,0-.285-.057Zm6.555-20.235c0,.057,0,.114-.114.114a.692.692,0,0,1-.741.057.888.888,0,0,0,.684-.171Zm1.653,28.9v-.114a1.45,1.45,0,0,1,.4-.114l.057.057v.057l-.285.114Zm-8.721-13.794a.824.824,0,0,1,.4.114,1.113,1.113,0,0,0-.4.057l-.171-.171c.057-.057.114-.114.171-.114Zm1.482-17.727.171.171c0,.057-.057.114-.114.228-.057-.114-.114-.171-.114-.228v-.171Zm5.643,16.3c0,.057.057.114.057.171s-.057.114-.057.171l-.228-.171Zm2.736,2.964a.209.209,0,0,0,.057.171.209.209,0,0,1-.171.057c0-.057-.057-.114-.057-.171s.057-.114.114-.171Zm-.057-1.938.114.171-.513-.171V-15.9ZM157.719-1.254l-.171-.171.171-.171c0,.057.057.114.057.171S157.719-1.311,157.719-1.254ZM156.294-18.3h.342l-.171.171a.209.209,0,0,0-.171-.057ZM154.527-22c.057,0,.114.057.171.114l-.114.114-.171-.171L154.47-22Zm.456-9.69h.057v.171h-.228v-.057Zm-.456,11.8.171.171c-.057,0-.114.057-.171.057l-.057-.057A.209.209,0,0,1,154.527-19.893Zm4.446,18.3-.171-.171.057-.057h.171l-.057.057Zm-5.13-17.1v-.342c.057.057.114.114.114.171S153.9-18.753,153.843-18.7Zm14.022-12.882.057.057c-.057.057-.114.114-.171.114l-.057-.057.171-.171Zm-6.156-.855.228.171-.114.057c-.057-.057-.114-.114-.114-.171Zm-7.125.855h-.171a.177.177,0,0,0,.057-.114h.171Zm3.534,26.733a.3.3,0,0,1-.228-.114h.285A.209.209,0,0,1,158-4.9Zm2.85-25.593H160.8v-.114h.057Zm2.28,14.478v.171h-.057v-.057Zm-1.254-16.131v.057h-.057v-.057Zm21.888,4.617a.375.375,0,0,1,.171-.513l.057-.171a.209.209,0,0,0,.057-.171c.057,0,.114-.057.171-.114l.171-.285.8-.684c.114-.114.057-.228-.057-.285.171,0,.285-.057.456-.057a9.383,9.383,0,0,1,1.2-.114,1.425,1.425,0,0,1,1.083.456,2.742,2.742,0,0,0,.627.513.705.705,0,0,0,.513.627v.057l.342.855v-.057c0,.057.057.114.057.171l.114.114a1.165,1.165,0,0,1,.285.513,1.046,1.046,0,0,0,1.2.741,1.417,1.417,0,0,1,.456.057,2.562,2.562,0,0,0,1.14,0,1.392,1.392,0,0,0,.4-.057,2.143,2.143,0,0,0,1.824-.912h-.057c.171-.285.285-.456-.057-.684-.057-.057,0-.171,0-.285a1.79,1.79,0,0,0-.228-1.14c-.228-.171-.171-.228-.171-.4a1.843,1.843,0,0,0-.171-.912l-.171-.4a1.972,1.972,0,0,0-.57-.627c-.285-.114-.456-.228-.4-.456a.824.824,0,0,0-.114-.4,8.959,8.959,0,0,0-1.482-1.083.444.444,0,0,1-.4-.171,1.013,1.013,0,0,0-.57-.228l-.228-.228c0-.057-.171-.114-.228-.114s-.057-.057-.114-.057a1.947,1.947,0,0,0-.969-.171.76.76,0,0,0-.513-.171,2.049,2.049,0,0,1-.627-.114c-.285-.114-.4-.057-.684.114-.114.057-.285.114-.342.057a1.384,1.384,0,0,0-1.254.057h-.228a1.759,1.759,0,0,0-.627.114.2.2,0,0,0-.114.057,1.932,1.932,0,0,0-1.14.342,1.432,1.432,0,0,1-.8.342,1.5,1.5,0,0,0-.912.4l-.285.228-.114.114c0,.285,0,.4.171.456-.171,0-.228,0-.285-.057a.882.882,0,0,0-.627.171,8.9,8.9,0,0,0-.741.741h.057l-.171.285a2.2,2.2,0,0,0-.627,1.254,2.354,2.354,0,0,1-.4.627,5.544,5.544,0,0,0-.285,1.14c.114.171.114.228.114.285v.114c-.285.228-.285.285-.171.342.114.171.114.342,0,.4-.285.228-.228.285-.171.456v-.057c0,.057.057.114.057.171a.759.759,0,0,0,.171.285v.057c-.456.171-.4.456-.285.684,0,.171.114.171.114.171-.114.228-.114.342.114.513a.614.614,0,0,1,.114.456,2.888,2.888,0,0,0,.114.741.305.305,0,0,0,.285.285c.171.057.285.285.342.456.057.285.114.513.228.57-.114.171-.171.285-.057.456a.427.427,0,0,1,.057.285c.114.285.114.456.456.627l.342.57c.057.114.171.114.285.057a1,1,0,0,0-.057.285l.57.912a.655.655,0,0,0,.513.342.177.177,0,0,0-.057.114l.057.114.4.342a4.961,4.961,0,0,0,.627.513c.057.057.171,0,.228-.057s.114,0,.171.057a.178.178,0,0,0,0,.342,1.671,1.671,0,0,1,.57.513.54.54,0,0,0,.456.513c.114.057.171.057.228.171a.856.856,0,0,0,.513.4l.171.171c0,.228-.228.4.171.513l-.057-.057.4.285.114.228a.629.629,0,0,0,.171.4.737.737,0,0,1,.513.342l.513.57a.3.3,0,0,0,.456-.171h.057c-.285.342-.285.57.057,1.026l.513.513a3.173,3.173,0,0,1,.513.741c0,.171.228.228.342.228a.694.694,0,0,0,.285.684l.057.114a.487.487,0,0,0,.171.342l.057.114.114.4.228.342a2.88,2.88,0,0,1,0,2.28l-.228.513a.431.431,0,0,0-.057.228c0,.057-.057.114-.057.171s0,0-.057.057-.171.171-.171.228a1.193,1.193,0,0,0-.228.342l-.057.114a.2.2,0,0,0-.114.057c-.057-.057-.171-.171-.456.057l-.342.171a.869.869,0,0,0-.57.342.177.177,0,0,1-.114.057c-.171,0-.342.057-.456.057a.715.715,0,0,1-.513-.057.614.614,0,0,0-.456-.114.963.963,0,0,1-.342.171.963.963,0,0,1-.285-.114l-.171-.171-.285-.228-.228-.171-.741-1.026.057.057c-.114-.171-.228-.342-.513-.171,0-.057-.057,0-.057-.057,0-.171-.114-.228-.171-.342-.114-.057-.171-.228-.228-.4v.057a3.228,3.228,0,0,1-.171-1.026,1.072,1.072,0,0,0-.456-.969,2.826,2.826,0,0,0-1.14-.456c-.114,0-.171-.057-.342-.057a.65.65,0,0,0-.342.171.366.366,0,0,1-.513.057l.057.057c-.285-.171-.456-.228-.684-.114a.514.514,0,0,1-.285.057c-.114,0-.285.057-.342.057-.4.057-.57.114-.684.456,0,.114-.057.114-.057.114-.57.4-.57.456-.4.912a.431.431,0,0,1,.057.228c.114.4.285.684.114,1.026a.561.561,0,0,0,.171.456,12.88,12.88,0,0,0,.855,2.337c0,.114.057.171.171.228l-.057-.114.114.171c0,.114.057.171.228.171,0,.342,0,.513.171.57a1.627,1.627,0,0,1,.456.4,4.606,4.606,0,0,0,.912.912.925.925,0,0,0,.513.285l-.171.228a.16.16,0,0,0,.285.114l.228-.171a.2.2,0,0,0,.057-.114,1.076,1.076,0,0,0,.741.57l.8.285V.4l.057-.057A.056.056,0,0,0,183.2.4l.057-.171a9.666,9.666,0,0,0,1.254.228c.513.057,1.2.057,1.71.057a2.849,2.849,0,0,0,.627-.057l-.057.057c.171-.057.228-.114.228-.171.057.057.228.057.456.057a7.108,7.108,0,0,0,1.881-.285.638.638,0,0,0,.456-.4c.057.228.228.228.513.114a1.022,1.022,0,0,1,.4-.285l.4-.228a1.59,1.59,0,0,0,.513-.285l.8-.684.855-.741c.057-.057.228-.171.228-.285,0-.057,0-.057.057-.114l.627-.8c0-.114.114-.285.114-.4a.954.954,0,0,1,.456-.627l.171-.912.228-.855a3.011,3.011,0,0,0,.057-.741v-.228c0-.171.114-.342.114-.57v-.228l.057-.228c0-.057-.057-.057-.057-.114s-.114-.171-.114-.285l.114-.057h-.114a8.718,8.718,0,0,0-.4-1.653c0-.057-.057-.114-.057-.171-.171-.342-.228-.741-.57-.969a1.138,1.138,0,0,0-.114-.513l-.285-.4-.684-.969c-.4-.513-.8-1.026-1.254-1.539l-1.14-1.083c-.114-.114-.171.057-.4-.171l-.228-.171a.706.706,0,0,1-.171-.114c0-.171-.171-.342-.342-.456a5.681,5.681,0,0,1-1.14-1.2l-.285-.228-.171-.228a.2.2,0,0,0-.114-.057c-.171,0-.171,0-.171-.057a1.074,1.074,0,0,0-.114-.456,1.617,1.617,0,0,0-.57-.513l-.228-.228-.228-.285v.057a3.46,3.46,0,0,0-.4-.57l-.057-.057c0-.171-.114-.228-.171-.342l-.4-.171c-.057,0-.114,0-.114-.057l-.171-.228-.4-.456a.441.441,0,0,1,.057-.171c.114-.228,0-.4-.171-.57a.687.687,0,0,1-.285-.285c-.057-.228-.228-.4-.627-.4-.057,0-.057-.057,0-.114,0-.342.171-.342.285-.456.228-.228.342-.456.171-.741-.114-.057-.171-.171-.4-.171l-.057.057a1.762,1.762,0,0,1-.114-.456v-.456C184.167-26.391,183.882-26.79,183.882-27.474ZM182-26.391c0-.057.171-.057.228-.057a.209.209,0,0,1-.057.171c-.171.228,0,.342.171.4.057,0,.114.057.171.057-.057,0-.114.057-.171.057h-.171c-.228-.057-.228.057-.228.228v.969c0,.057-.057.114-.114.171v-.114c-2.337-1.938-.342-.855.114-1.767ZM192.432-8.778c.8,0,0,.627,0,.741v.969c0,.057-.057.114-.114.171l-.912.342ZM191.52-10.6a2.861,2.861,0,0,1,.684.114l-.8.171-.171-.171c.057,0,.114-.057.171-.057ZM181.032-28.1a2.861,2.861,0,0,1,.684.114l-.741.171-.228-.171c.114,0,.171-.057.228-.057ZM192.318-3.42c-.057,0-.057-.057-.057-.114l.456.228c.114.057.114,0,.114.057-.114.057-.114.057-.171.057a2.469,2.469,0,0,1-.285-.057C192.375-3.306,192.318-3.363,192.318-3.42Zm-13.053-.057.342.285-.228.171h-.114l.114-.228C179.379-3.306,179.322-3.363,179.265-3.477Zm.114.228c.057,0,.057,0,.057-.057Zm34.542-29.7-.057-.114c-.285-.057-.4-.456-.8-.4-.057,0-.114-.114-.171-.171l.171-.171a.209.209,0,0,1,.171-.057c-.057-.057-.114-.114-.171-.114-.171,0-.4-.057-.513,0a.724.724,0,0,1-.684,0,1.259,1.259,0,0,0-.912,0,.74.74,0,0,1-.57.114c-.057,0-.171,0-.114.114,0,.057.171.114,0,.171s-.342.171-.4,0c-.057-.285-.285-.228-.513-.228a4.9,4.9,0,0,0-.912-.057,1.757,1.757,0,0,1-.57-.057,7.643,7.643,0,0,0-2.28,0,.785.785,0,0,1-.627,0,.953.953,0,0,0-.684.057,2.531,2.531,0,0,1-1.14.057c-.4,0-.855-.057-1.311-.057a2.138,2.138,0,0,1-.57-.057,7.115,7.115,0,0,0-2.451.057c-.057,0-.171.057-.228,0-.456-.228-.8-.057-1.254.057a.83.83,0,0,0-.513.342l-.285.684a.855.855,0,0,1,0,1.026v.171a1.5,1.5,0,0,0,.855,1.482,1.68,1.68,0,0,0,.741.285h2.109c.171,0,.285,0,.285-.228,0-.057.057-.114.114-.171,0,.057.057.114.057.171-.114.228.057.285.285.342l.57.228a1.093,1.093,0,0,1,.912,1.083,1.664,1.664,0,0,0,.114.513c0,.057.228.114.228.171a4.4,4.4,0,0,1-.114.855c0,.114-.114.228-.114.342a7,7,0,0,0,.114,1.539,2.159,2.159,0,0,1,0,.855.97.97,0,0,0,.057.4.446.446,0,0,1,.057.456.81.81,0,0,0-.114.342v1.026a.723.723,0,0,0,.057.342.366.366,0,0,1,.057.513c-.228.285-.114.627-.114.969,0,.057.057.114.057.171.057,0,.114-.057.171-.057a.82.82,0,0,1,.171-.114c.057.114.228.228.228.342s-.171.057-.285,0c-.228-.057-.342.057-.342.285s.057.456.057.684-.057.456-.057.684a.427.427,0,0,0,.057.285c.171.171.114.342,0,.513a2.672,2.672,0,0,0,0,1.881.487.487,0,0,1,0,.4,1.694,1.694,0,0,0-.228,1.026,10.381,10.381,0,0,1,.057,1.881.537.537,0,0,0,.228.513.259.259,0,0,1,0,.285.678.678,0,0,0-.228.627c.114.4-.114.855.171,1.254.285.456-.228.8-.057,1.254a9.208,9.208,0,0,1,0,1.254c0,.171.057.342.057.513-.057.342-.228.684.114.969.057.057,0,.171,0,.228l-.171.342a.574.574,0,0,0,.057.171c.171,0,.228.057.114.171-.171.114-.285.228-.285.4.114.342-.057.684.228.969.057.057,0,.228-.057.342a1.893,1.893,0,0,0-.057,1.368,1.4,1.4,0,0,0,1.083,1.254,1.493,1.493,0,0,0,.855-.057,4.038,4.038,0,0,1,.8.057.574.574,0,0,0,.057-.171c0-.057-.057-.114-.057-.171V-.684c.057,0,.114,0,.114.057a.753.753,0,0,0,1.083.285.767.767,0,0,0,.684-.285,1.374,1.374,0,0,0,.4-1.026,2.356,2.356,0,0,0-.114-1.083c-.171-.4.228-.684.114-1.026-.114-.114,0-.228-.114-.342,0-.057-.114-.114-.114-.114-.171.114-.228,0-.285-.114V-4.5h.342c.057-.342.285-.684.057-1.026a.427.427,0,0,1-.057-.285,8.429,8.429,0,0,0,.057-2.394c0-.171-.285-.4-.285-.57s.285-.285.228-.513a4.314,4.314,0,0,1-.057-.855v-.513c0-.171.057-.342.057-.513v-2.907c0-.171.057-.342-.114-.513a.173.173,0,0,1,0-.228,6.713,6.713,0,0,0,.171-2.394V-19.95c0-.228.114-.456-.114-.627a.343.343,0,0,1-.057-.228,1.642,1.642,0,0,0,.057-1.368.97.97,0,0,1-.057-.4c0-.342.057-.684.057-1.026v-2.394c0-.285.114-.57-.114-.8V-26.9a8.851,8.851,0,0,1,.228-1.2c.114-.114.228-.228-.057-.285-.114-.057,0-.342.171-.285.228.114.285-.057.4-.171v-.171h.228l.741-.513c.57.057,1.482.057,1.026-.456.57,0,.4.114,1.311.285.171,0,.285-.057.4-.057h.171a1.276,1.276,0,0,0,1.653-1.2,6.2,6.2,0,0,1,.057-1.026c.057-.342-.171-.684,0-1.026Zm-1.938.4c0,.057-.114.114-.171.114a2.025,2.025,0,0,1-.57-.114c-.057,0-.057-.114-.114-.171.057-.057.114-.114.171-.114h.285c.171.057.4.171.4-.171h.171a.419.419,0,0,1-.114.342ZM197.79-30.723c-.456-.114-.57-.456-.342-.741a.427.427,0,0,1,.285-.057v.171c-.171.171-.171.285.057.4.057,0,.114.057.171.114C197.9-30.78,197.847-30.723,197.79-30.723Zm7.467,4.446-.342.228c-.057-.114-.114-.171-.114-.228l.171-.285.4-.285c.057,0,0,.342-.228.513ZM204-20.919v.171l-.285.228-.114-.057v-.342h.057l.171-.171.228.171Zm-.285,7.752c-.057,0-.114-.057-.171-.057.057-.057.114-.114.171-.114v.114c0-.057.057-.057.057-.114a.432.432,0,0,0,.228-.114l.228.171c-.114.057-.171.171-.285.171L204-13C203.832-13,203.718-13,203.718-13.167Zm.8,12.6L204.4-.8l.342-.171c.057,0,.114.114.228.228Zm.285-3.819h-.342v-.057l.228-.171a.343.343,0,0,1,.228-.057.177.177,0,0,0,.057.114Zm.228-26.22.228-.171h.171v.171l-.171.171v-.171ZM204.06-7.182l-.228.171v-.171l.228-.171c.057.057.114.114.114.171Zm3.021-25.764c-.114,0-.171-.057-.228-.057l.228-.171c.057.057.114.114.114.171a.2.2,0,0,1-.057.114Zm-2.337,26.5-.228.342H204.4l-.057-.057.342-.285Zm-.912-11.115c.114,0,.171-.057.228-.057s.114.057.171.114c-.057.057-.114.114-.171.114s-.057-.057-.114-.114Zm3.249-3.933c.057-.057.114-.114.171-.114s.114.057.171.057v.171a.209.209,0,0,0-.171-.057Zm-3.762-7.3a.2.2,0,0,0,.114.057.3.3,0,0,1-.228.114.2.2,0,0,0-.114-.057l.114-.171Zm.8,13.68c.057,0,.114.057.171.114l-.171.171a.209.209,0,0,0-.171-.057c.057-.057.114-.114.171-.114Zm.228,12.426c.057,0,.114-.057.171-.057.114,0,.114.057.171.114l-.171.114-.114-.171Zm-.969-4.959h.171c.057.057.114.114.114.171a.056.056,0,0,1-.057.057h-.057Zm2.679-25.137a.209.209,0,0,0,.057.171.209.209,0,0,1-.171.057c0-.057-.057-.114-.057-.171s.057-.057.114-.057Zm-1.2,15.618c0-.057.057-.114.114-.171l.114.114-.171.171-.057-.057Zm2.508-2.28c.057,0,.114.057.171.114a.177.177,0,0,0-.057.114c-.057,0-.114-.057-.171-.114A.2.2,0,0,1,207.366-19.437Zm.171-10.2-.171-.171.057-.057.171.171v.057Zm-4.5-.4h-.114v-.171h.114Zm2,24.4V-5.7h.228c-.114.057-.114.114-.114.114h-.171Zm0,.228v-.057h.057v.057Zm2.394-22.344v-.057h.057Zm13.452-5.814c-.057,0-.114,0-.114.057v-.114a1.255,1.255,0,0,1-.456.057c-.057,0-.114.114-.171.171l-.912,1.026a3.918,3.918,0,0,0-.285,1.368,2.861,2.861,0,0,0-.114.684,1.057,1.057,0,0,0,.114.4c.057.114.114.228,0,.228-.342,0-.285.171-.171.342l.171.342c0,.057-.057.114-.057.171a.2.2,0,0,0-.114-.057h-.228a.2.2,0,0,1-.057.114c.171.171.114.4.057.627v.171c.228.342,0,.57-.171.8a1.057,1.057,0,0,0-.114.4c.057.171.114.342-.057.513a.425.425,0,0,0,0,.456.447.447,0,0,1-.057.627c-.171.114-.171.228-.171.4a1.664,1.664,0,0,1-.114.513,1.821,1.821,0,0,0-.171,1.083,1.856,1.856,0,0,1-.171,1.368c-.057.171-.228.342-.228.513l.057-.057.228.114-.285.228-.057-.057c0,.057.057.114.057.171.057.4-.171.741,0,1.14.057.057-.114.228-.171.342,0,.057-.057.114-.057.171a1.645,1.645,0,0,1-.171,1.026,2.717,2.717,0,0,0-.228,1.14.97.97,0,0,1-.057.4,1.446,1.446,0,0,0-.114.684,4.4,4.4,0,0,1-.114.855l-.171.684a.847.847,0,0,0-.114.513.972.972,0,0,1-.171,1.083.766.766,0,0,0-.114.513,1.746,1.746,0,0,1-.171,1.311,1.456,1.456,0,0,0,.057,1.71v.057a.62.62,0,0,1-.057.285c-.228-.171-.342-.171-.456.057a1.625,1.625,0,0,0-.114.912.971.971,0,0,1,0,.57c-.057.228-.171.285,0,.456.057.114.114.228-.057.171,0,0-.114.057-.114.114a4.99,4.99,0,0,1-.114.912c-.228.456-.114.969-.342,1.425-.057.114-.057.228.114.228.114,0,.171.114.057.114-.228.057-.228.228-.228.4s-.228.4.057.57a.574.574,0,0,0-.057.171c-.114.114-.228.228-.228.285.114.4-.114.4-.228.741-.171.57-.285.57.057,1.083l.114.171V-.741l.057-.057h.057l.057-.057.114.057c.057.057.114.057.114.114a.2.2,0,0,1,.114.057A.41.41,0,0,0,215-.4a.209.209,0,0,0,.171.057c.114.285.456.285.684.285a3.722,3.722,0,0,0,.627-.114.123.123,0,0,1,.114-.114c.627,0,1.254-.057,1.938-.057s.741-.285,1.083-.8a3.507,3.507,0,0,0,.4-1.311c.057-.456-.057-.57.171-1.026.057-.171-.114-.4-.057-.57.057-.228.285-.4.285-.627a19.777,19.777,0,0,1,.342-2.565l.171-.171a3.823,3.823,0,0,1,2.907-1.14,8.25,8.25,0,0,0,2.052-.057c.171-.057.228.114.342.228h.171l-.171.171-.171.342c.171.057.285.171.342.171.456-.171.513.114.627.342a14.117,14.117,0,0,1,.171,1.539.726.726,0,0,0,.285.627.275.275,0,0,1,.057.4c-.171.171-.171.285,0,.456a.343.343,0,0,1,.057.228,4.4,4.4,0,0,1,.114.855c0,.285-.057.228-.057.513a.209.209,0,0,0,.057.171c.171.342.228.684.4,1.026.114.4,1.14.741,1.482,1.083a1.352,1.352,0,0,0,1.14.4c.114,0,.228-.057.342-.057.513,0,1.026.057,1.539.057a3.923,3.923,0,0,0,.741-.114.377.377,0,0,0,.342-.4,1.542,1.542,0,0,1,.171-.855,1.255,1.255,0,0,0,.057-.456l-.456-.285-.4-2.052a4.544,4.544,0,0,1-.171-.855,8.1,8.1,0,0,0-.456-2.337,3.213,3.213,0,0,1-.228-.684,2.39,2.39,0,0,0-.057-.912,9.277,9.277,0,0,0-.4-1.71.723.723,0,0,1-.057-.342,2.192,2.192,0,0,0-.285-1.2.427.427,0,0,1-.057-.285c.057-.228.228-.513-.057-.741.057-.456-.228-.912-.228-1.368a.767.767,0,0,0-.285-.684c-.114-.057-.228-.171-.057-.285a.754.754,0,0,0,.114-.684l-.513-2.736-.171-1.2c0-.057,0-.228-.057-.228-.285-.057-.228-.171-.171-.285.114-.171-.057-.171-.114-.228-.114-.114-.057-.114.057-.114a.574.574,0,0,0,.057-.171,3.373,3.373,0,0,1-.285-1.083c0-.057-.057-.114-.057-.171a.733.733,0,0,1-.057-.684v-.171a1.165,1.165,0,0,0-.285-.513c-.114-.228.228-.342.171-.513l-.171-.627-.171-1.026c-.171,0-.171-.114-.114-.285a1.918,1.918,0,0,0-.228-1.254q-.171-.086-.171-.171a9.322,9.322,0,0,1-.114-1.254,4.381,4.381,0,0,0-.171-1.71A11.676,11.676,0,0,0,228-32.091a1.947,1.947,0,0,0-.741-1.368c-.285-.228-.684-.114-.969-.171a6.167,6.167,0,0,0-2.28-.057c-.114,0-.342.057-.456,0a1.589,1.589,0,0,0-1.026-.057v.057l-.228.171-.057.114a.623.623,0,0,0-.57-.114c-.057-.057-.114-.057-.4-.114A3.214,3.214,0,0,0,220.875-33.573Zm4.845,19.209c-.057.114-.285.114-.456.171-.114.114-.4.114-.285.456,0,.057-.171.171-.228.171-.228-.057-.513.228-.684-.057h-.114a2.353,2.353,0,0,1-1.539-.285h-.171c-.342,0-.4-.057-.57-.342a.177.177,0,0,0-.057-.114c-.513-.57-.285-.114-.228-.684a21.508,21.508,0,0,0,.741-6.042c0-.114,0-.171.057-.228a2.673,2.673,0,0,0,.171-1.482,4.018,4.018,0,0,1,.228-1.767,14.322,14.322,0,0,1,.228-1.539.886.886,0,0,1,.342-.456.611.611,0,0,1,.342-.114l.57.171c.057.057.057.228.114.342,0,.285-.114.513.228.684a.678.678,0,0,0-.228.627c.057.171,0,.456.342.513.057,0,.114.171.057.228a1.83,1.83,0,0,0-.114.969.341.341,0,0,0,.171.342.611.611,0,0,1,.114.342,3.926,3.926,0,0,0,.057,1.14,6.9,6.9,0,0,1,.057,1.083c0,.171,0,.342.228.4.171.057.171.171.171.342l-.171.57v.171a2.619,2.619,0,0,1,.171,1.311v.627a2.056,2.056,0,0,1,.228,1.368,2.139,2.139,0,0,0-.057.57c0,.171.057.114.228.114.057,0,.114-.114.114-.228l.114.228Zm-4.389-9.975c.114.057.228.171.228.228a2.216,2.216,0,0,1-.114.855l-.342.855c-.4-.057-.171-.456-.285-.741,0-.114-.114-.171-.114-.285,0-.171-.057-.4-.057-.57A.891.891,0,0,0,221.331-24.339Zm-.456,13.224a.435.435,0,0,1-.114.285l-.285.114-.171-.171c.057-.114.057-.228.114-.285l.456-.285c.228.171-.057.285-.114.4Zm5.643,1.71c0-.057.057-.114.114-.171h.057v.171c0,.057-.057.114-.057.171l.342.171.171,1.254c-.057.057-.171-.912-.228-.912l-.057-.057a.435.435,0,0,1-.285-.114.339.339,0,0,1,0-.4C226.518-9.291,226.518-9.348,226.518-9.405Zm-.855-15.789-.171.4-.228.171-.171-.171c-.057-.114-.057-.171.114-.171.057,0,.114-.171.171-.285l.228-.171v.171Zm1.995-5.7a1.346,1.346,0,0,1-.342.513c-.228-.171-.057-.342-.057-.513,0-.114.114-.171.228-.228h.057v.057Zm2.451,14.364.171.171-.4.342-.057-.057.114-.456Zm-3.42-8.379.228-.342h.057v.171a.62.62,0,0,1-.057.285c0,.057-.057.057-.171.114,0-.057-.057-.114-.057-.171Zm-1.2-5.244h.228c.114,0,.228-.057.342.114h-.342l-.4-.171c.114-.228.342-.057.513-.057Zm2.793,6.384v.342l-.057.057L228-23.712c0-.057.114-.114.171-.171ZM232.1-3.876c-.057,0-.114-.057-.171-.114.057-.057.114-.114.171-.114a2.564,2.564,0,0,1,.456.114c-.228.057-.285.114-.342.114Zm-9.4-26.676.342-.171h.114v.114l-.4.171c-.057,0-.114-.057-.171-.057C222.642-30.5,222.642-30.552,222.7-30.552Zm.627,19.665c-.057-.057-.171-.114-.171-.171a.3.3,0,0,1,.114-.228c.057.057.114.114.114.171s-.057.114-.057.171Zm-.114-1.083.057-.057a.252.252,0,0,1,.114.4Zm4.9,3.534L228-8.55l.228-.171v.342c0,.057-.057.057-.114.057Zm-8.607-21.717c.057.057.114.114.114.171s-.057.114-.114.171c-.057-.057-.114-.114-.114-.171S219.45-30.1,219.507-30.153Zm8.778,27.018c.057,0,.114.057.171.057l-.228.171-.114-.114C228.171-3.078,228.228-3.135,228.285-3.135Zm-3.99-27.645c0,.057-.057.057-.114.057l-.057-.057.171-.171.171.114Zm-1.653-1.995c.057-.057.114-.114.171-.114l.114.114c-.057.057-.114.114-.171.114l-.057-.114Zm4.389,7.011.114.057a.431.431,0,0,1-.057.228c-.057-.057-.114-.114-.114-.171A.177.177,0,0,1,227.031-25.764Zm-2.052-6.84h.114v.171c0,.057-.057.057-.114.114Zm3.363,23.769c0,.057-.057.057-.114.057v-.171c0-.057.057-.057.114-.057Zm3.192,7.125.171.171c-.057,0-.057,0-.114.057l-.114-.171Zm-4.275-22.914h-.171l-.057-.057c0-.057.057-.057.114-.114v.057Zm-10.032,3.477c0-.057.057-.114.057-.171l-.114.114Zm33.744,4.332c-.285,2.166-.684,3.534-1.71,3.021v-.171a5.02,5.02,0,0,0-.228-1.824,14.108,14.108,0,0,1-.342-1.653c-.114-.228,0-.513-.4-.684a.3.3,0,0,1-.057-.513.723.723,0,0,0,.057-.342,4.475,4.475,0,0,0-.285-1.254c-.114-.342-.057-.741-.456-1.026-.057-.057,0-.285,0-.456,0-.114.114-.228.114-.342a9.924,9.924,0,0,1-.285-1.254c-.057-.4-.456-.855-.342-1.368,0-.057-.057-.114-.057-.171l-.171-.684c-.114-.342.057-.456-.114-.855l-.285-.57a11.885,11.885,0,0,1-.4-2.052c0-.171-.114-.228-.285-.114-.057.057-.114.228-.228.114-.114,0,.057-.171.114-.285,0-.057.057-.114.114-.171.114-.228-.114-.684-.342-.912a7.176,7.176,0,0,1,.228-1.539c-.114-2.337-4.332-1.824-5.643-1.824-.57,0-3.078.285-3.249.8-1.083,2.052.684,1.482.684,1.767a19.218,19.218,0,0,1-1.083,1.824c-.285.285-.228.513.114.741a14.276,14.276,0,0,0-.342,3.591,1.688,1.688,0,0,1,.285,1.425.791.791,0,0,0,0,.513.674.674,0,0,1-.057.57c-.228.171-.285.4,0,.57a.269.269,0,0,1,.057.342,1.851,1.851,0,0,0-.057.741c-.8-.114-.171.8.285.855v.114a4,4,0,0,1-.513.342c-.057.057-.171.114-.171.171a1.625,1.625,0,0,0,.114.912,1.11,1.11,0,0,1,.228,1.254.32.32,0,0,0,0,.513.391.391,0,0,1-.171.513c-.171.171-.228.342,0,.513.228.114.228.228.171.456a1.673,1.673,0,0,0-.171,1.368c.171.171,0,.342-.057.513a.855.855,0,0,0,0,1.026,1.074,1.074,0,0,1,.228,1.2c-.171.114-.171.285,0,.456a.407.407,0,0,1-.171.513c-.171.228-.228.4,0,.57a.391.391,0,0,1,.171.513c-.171.114-.171.228-.228.342a.775.775,0,0,0,0,.855c.057.171.228.456.057.627a1.117,1.117,0,0,0,0,1.254.958.958,0,0,1,.171,1.083.424.424,0,0,0-.171.4c.171.285.228.513-.057.741a.162.162,0,0,0,0,.285c.513.4-.285,1.311-.171,1.71a.62.62,0,0,1,0,.855c-.057.114-.057,0,0,.114.912,1.254,1.938.969,3.192.969a.123.123,0,0,1-.114-.114l-.228-.684V-.8c0-.171.171.057.285.057h.057v.057a1.767,1.767,0,0,1,.114.4v.4c-.114,0-.114.057-.114.057h.114a.2.2,0,0,0,.114.057A2.468,2.468,0,0,0,240.2.171a1.215,1.215,0,0,0,.855-.4c.285-.342.4-.4.285-.912a.723.723,0,0,1-.057-.342c0-.57.057-1.2.057-1.824a.473.473,0,0,0-.171-.456c-.171-.114-.114-.285-.057-.456a4.5,4.5,0,0,0,.171-.741,12.866,12.866,0,0,0-.057-2.565v-.342c0-.57.057-1.083.057-1.653a.481.481,0,0,0-.114-.4.425.425,0,0,1,0-.513,1.146,1.146,0,0,0,.228-.741,19.917,19.917,0,0,0-.057-2.622v-.342c0-.513.057-1.026.057-1.6a1.057,1.057,0,0,0-.114-.4c-.171-.171-.114-.342,0-.57a.853.853,0,0,0,.057-1.026c.057-.342.285-.684,0-1.026v-.057a3.446,3.446,0,0,0,0-1.083c0-.228.057-.456.057-.684,0-.513-.057-3.078-.114-3.534,0-3.078.741-1.026,1.14-.912l.171,1.311a.123.123,0,0,0,.114.114c.228,0,.342,2.964.4,3.078a1.267,1.267,0,0,1,.171.912,1.232,1.232,0,0,0,.057.627c.057.057.285.057.4.057a.333.333,0,0,1,.228.057c0,.057-.057.114-.228.171-.285.228-.285.228-.114.513a3.774,3.774,0,0,1,.057,1.6,1.1,1.1,0,0,0,.228.684l.4,1.2a.493.493,0,0,1,.171.342c0,.171.342.285.57.456.171.171.228.4,0,.57-.171.057-.171.114-.114.228a1.192,1.192,0,0,1,.228.342l.57,3.762a.313.313,0,0,0,.171.285c.228.228.57.4.171.741a.343.343,0,0,0-.057.228c.513,1.6,1.083,2.109.741,2.622.171.171-.057.513.057.57.342.228.228.513.285.741a.281.281,0,0,0,.057.171c.171.228.285.4.171.627-.057.114.171.342.114.513,0,.114-.285.285-.285.342.285.8,2.052,1.026,2.679.912.684-.228,1.6-.741,1.539-1.311,0-.057.057-.114.057-.171a.427.427,0,0,0,.057-.285s-.057-.114,0-.171a2.024,2.024,0,0,0,.456-1.083c.114-.342.114-.627-.342-.8-.057,0-.057-.057-.114-.114a.847.847,0,0,1-.057-.342.056.056,0,0,1,.057-.057l.057.057v-.114h.285c.228.114.342,0,.4-.171l.285.114c.114-.456.456-.912.057-1.368-.057-.171,0-.342.513-.456a.467.467,0,0,0,.228-.57.487.487,0,0,1,0-.4,1.612,1.612,0,0,0,.4-1.2,5.783,5.783,0,0,1,.114-1.425c0-.057.057-.114.057-.171.057-.057.114.342.114,0a11.1,11.1,0,0,1,.114-1.425v-.171c.4-.285.4-.684.513-1.026a6.59,6.59,0,0,0,.456-1.824,5.332,5.332,0,0,1,.4-1.254c.114-.4,0-.741.171-1.083a6.782,6.782,0,0,0,.4-1.539c.057-.228-.114-.513,0-.741.057-.228.285-.456.342-.684l.969-2.793a9.066,9.066,0,0,0,1.026-.627,1.93,1.93,0,0,0-.342.855c0,2.166-.969,4.5-.057,6.555v.114c-.342.855,0,1.767-.285,2.679-.4.741-.171,7.41.114,7.752-.741,0,.513.285,0,.912a.446.446,0,0,0-.057.456.723.723,0,0,1,.057.342,3.7,3.7,0,0,0,0,1.767A3.729,3.729,0,0,1,258.039-2c0,.285-.228.513-.285.741-.057.171-.114.4.285.456.057,0,.114.171.228.285.057.171.057.342.171.456.171.114.285.228.4.228A13.083,13.083,0,0,0,261.4.285c1.026-.114.969-.342,1.254-1.083a4.528,4.528,0,0,0,.057-1.254,1.738,1.738,0,0,0-.171-.912.343.343,0,0,1-.057-.228,1.388,1.388,0,0,0,.114-1.254c-.057-.114,0-.228,0-.342V-6.156c0-.114-.057-.171-.228-.171,0-.228.114-.456.114-.684a2.508,2.508,0,0,1,.114-.57.327.327,0,0,0,.114-.4.209.209,0,0,1-.057-.171,1.346,1.346,0,0,1,.057-.684,3.212,3.212,0,0,0,0-.741c0-.057-.057-.171-.057-.228a3.226,3.226,0,0,0,.114-1.254,1.664,1.664,0,0,0-.114-.513.567.567,0,0,1-.057-.513,4.748,4.748,0,0,0,.228-.855c0-.114,0-.171-.171-.171-.114,0-.114-.171,0-.228.057-.057.171,0,.171-.171a5.742,5.742,0,0,1-.057-1.71c0-.114-.057-.285-.057-.4a1.171,1.171,0,0,1,0-.627,3.38,3.38,0,0,0,0-1.311,1.422,1.422,0,0,1-.057-.969c0-.114.114-.285-.114-.342v-.114c.4,0,.228-.285.228-.456s-.057-.342,0-.456c.057-.228-.171-.171-.228-.285-.057-.057,0-.228,0-.342h.114c.057,0,.114.057.171.114v-.171a1.084,1.084,0,0,1-.057-.741,1.549,1.549,0,0,0,0-.513c0-.114-.057-.228,0-.285a2.619,2.619,0,0,0,.171-1.311.419.419,0,0,0-.114-.342.852.852,0,0,1-.057-.741c.057-.285.228-.57.057-.855a3.987,3.987,0,0,0,0-1.425V-28.5a8.056,8.056,0,0,0-.228-2.85c-.057-.114,0-.285,0-.4-.228-1.824-.627-1.824-1.881-1.824-.513.285-1.14-.57-1.71-.513-.4.114-1.026-.228-1.482-.057-3.363,1.14-2.793,1.995-2.85,3.078-.342.342-.228,1.881-.228,2.28-.342.4-1.254.855-1.2,1.311v.171a11.706,11.706,0,0,0-.4,1.938c0,.8-1.026,2.052-.4,2.508.114.228.057.342-.228.4-.4.057-.171.171,0,.228a.723.723,0,0,0,.342.057c-.057.4-.684.285-.456.8.456.285-.285.513-.285.741,0,.342-.228.627-.285.969a1.29,1.29,0,0,1-.228.513.709.709,0,0,0-.057.741c.171.285-.114.627.171.855-.228.228-.057.57-.114.8H251.2C251.142-17.157,250.971-16.872,250.971-16.815Zm5.3-11.514c0,.057-.114.114-.114.114-.228-.057-.4-.114-.4-.342l-.114-1.653a.427.427,0,0,1,.285.057c.285.114.456,1.425.4,1.653v.171Zm-2.394,5.016a.173.173,0,0,1,0-.228l.684-.513c.171-.057.4-.057.4.114a1.687,1.687,0,0,0,.114.57l-.171.228c-.342.114-.8.057-.912-.114Zm-2.28,4.389-.171-.228c-.057-.114.057-.114.171-.114a.654.654,0,0,0,.513-.285h.684v.114c-.114.171-.57.4-.741.57l-.456.114Zm-11.115,8.379c-.285.057-.4.057-.456-.114a.661.661,0,0,0-.4-.4c-.171-.171-.057-.171.171-.171s.285-.114.285-.228c0-.057.057-.114.114-.171,0,.057.228.114.228.171v.171c-.228.171-.228.342.057.513.057.057,0,.228-.057.228Zm19.494-2.28v-.057c.342,0,.228-.114.228-.228a.254.254,0,0,1,.228-.171.432.432,0,0,1,.228.114,2.311,2.311,0,0,1,.285.513c0,.057-.114.171-.171.285a3.071,3.071,0,0,0-.741-.4Zm-20.634.627c0-.057.057-.114.057-.171h.114c.114.171.4.342.456.513.057.057,0,.285-.057.342-.285.114-.4,0-.456-.114l-.171-.57Zm-2.394,6.156a2.115,2.115,0,0,1,.513.114l-.57.171h.057c.228.285.684.57.741.969a2.506,2.506,0,0,1-.969-.912s.114-.057.114-.114c0,.057,0,.057.057.057,0-.057-.057-.114-.057-.171A.123.123,0,0,1,236.949-6.042Zm.57-17.043s-.456-.057-.456-.114c0-.171.684-.456.969-.4a.177.177,0,0,0,.057.114l-.513.342Zm.342,2.622-.4.342-.57-.342a2.025,2.025,0,0,1,.57-.114A1.45,1.45,0,0,1,237.861-20.463Zm9.918,12.654.285-.513h.114c.171.114.342.513.114.57Zm-11.058-19.38.969.342v.057c-.228.114-1.026-.057-1.026-.285A.2.2,0,0,1,236.721-27.189Zm3.192,17.784-.342-.171h-.057l.057-.057h.4c.114.057.513.057.513.228-.057.228-.456.114-.684,0ZM237.861-26.22c.057-.114-.171-.342.057-.4.114,0,.228.285.4.4l-.228.285a.432.432,0,0,1-.228-.114.2.2,0,0,0,.057-.114Zm2.565,12.54c0-.057-.228-.114-.228-.171l.57-.4h.057l.057.057a1.346,1.346,0,0,1-.342.513Zm18.468,6.726a1.023,1.023,0,0,0-.285-.4c.228-.057.342,0,.4.228v.684c-.228-.057-.114-.285-.171-.456Zm-22,3.819h-.057a1.192,1.192,0,0,1,.228-.342l.456.114c-.057.114-.456.228-.57.342Zm10.6-15.447a.821.821,0,0,1-.4.342l-.057-.057v-.171a.76.76,0,0,1,.285-.342A1.686,1.686,0,0,0,247.494-18.582ZM260.718-8.55c0-.228-.171-.342-.4-.456V-9.12a.524.524,0,0,1,.57.513.056.056,0,0,1-.057.057l-.057-.057ZM238.6-14.307c-.057-.228.114-.285.285-.4a.705.705,0,0,0,.171.114,2.633,2.633,0,0,1-.4.4A.2.2,0,0,1,238.6-14.307Zm16.131-7.182-.057-.057c-.114-.171.285-.4.456-.342a.177.177,0,0,0,.057.114C255.018-21.66,254.961-21.546,254.733-21.489Zm5.358-.4s0,.057.114.114l-.4.342-.114-.057c0-.114,0-.228.114-.285C259.863-21.831,259.977-21.831,260.091-21.888Zm-22.572-2.223a2.941,2.941,0,0,1-.627.114c-.057,0-.171-.057-.171-.114s.114-.114.171-.114a2.025,2.025,0,0,1,.57.114Zm23.94-7.923.228.171c-.114.057-.114.114-.114.114a.209.209,0,0,1-.171-.057.569.569,0,0,1-.228-.285c.171-.171.285,0,.4.057ZM259.92-10.2a.723.723,0,0,0-.342-.057l.456-.342a.82.82,0,0,0,.171.114,1.192,1.192,0,0,0-.228.342ZM248.064-4.617v-.057a.967.967,0,0,1,.741-.228v.114l-.684.171Zm13.4-13.4h.342c.114,0,.171.057.228.057-.057.057-.057.114-.114.114-.228.057,0,.057-.114.057l-.114.057v-.057C261.4-17.727,261.4-17.841,261.459-18.012ZM245.1-22.458h.969l-.912.171c-.114,0-.228-.057-.342-.057Zm7.239,6.1a.62.62,0,0,1-.285.057v-.171a.343.343,0,0,1,.057-.228l.285-.171.057.057-.228.171ZM237.747-3.648h-.114l-.057-.057.171-.342c0-.057.114-.057.171-.057,0,.057.057.114.057.171Zm.969-6.954v.114a.508.508,0,0,1-.627-.285Zm-2.052-7.866c.114-.057,0-.171.171-.171.228,0,.114.171.114.285,0,.057-.057.114-.057.171l-.228-.171Zm23.427-2.166a.435.435,0,0,1-.285-.114v-.114a.177.177,0,0,0,.114-.057.878.878,0,0,0,.4.171c0,.057.114.057.114.114ZM239.8-16.473c.456.57-.4.285-.228,0Zm.741,10.317h-.114l-.513-.171v-.114h.171l.456.171Zm19.437-.855-.057-.057.171-.228.342.228a.81.81,0,0,1-.342.114Zm-1.539-8.55c-.114,0-.171-.057-.285-.057a1.249,1.249,0,0,1,.456-.171c.057,0,.114.057.228.114-.114.057-.171.114-.228.114ZM238.317-3.135c-.114,0-.114-.114-.114-.171l.114-.057.4.171v.114a.723.723,0,0,1-.342-.057Zm21.261-3.819h-.057c-.057-.228-.285-.342-.57-.456v-.057C259.35-7.467,259.578-7.239,259.578-6.954ZM252.4-18.525l-.171.057a3.887,3.887,0,0,0-.4-.285.733.733,0,0,0,.4-.057l.228.342Zm-7.3-6.669a2.025,2.025,0,0,1,.57.114.177.177,0,0,0-.057.114l-.627-.171v-.057Zm-.8,1.539.114-.114.456.342v.114h-.057c-.171-.057-.228-.228-.4-.342Zm-6.1-.4c-.057-.057-.114-.114-.114-.171s.057-.114.114-.171l.285.171ZM261.972-9.006a.379.379,0,0,1-.228.285v-.057c-.057-.114-.342-.285-.171-.285a.81.81,0,0,1,.342.114Zm-24.4.627a.209.209,0,0,1,.171.057v.057l-.057.057a.209.209,0,0,1-.171-.057,1.341,1.341,0,0,1-.456-.114Zm.342-9.177v.057h-.171c-.171-.114-.228-.114-.171-.342Zm22.4,1.938v.171l-.285.228a.2.2,0,0,0-.057-.114.445.445,0,0,1,.228-.228Zm.855-5.586a.6.6,0,0,1-.285-.114.6.6,0,0,1,.285-.114c.057,0,.114.057.171.114C261.288-21.261,261.231-21.2,261.174-21.2Zm-.456,4.674h-.057v-.4h.057a.334.334,0,0,1,.057.456ZM255.474-24.8a.432.432,0,0,1-.228-.114.432.432,0,0,1,.228-.114c.057,0,.114.057.171.114l-.114.114Zm3.99,5.415a.435.435,0,0,1-.285-.114l.057-.057a1.342,1.342,0,0,1,.456.114.705.705,0,0,0-.171.114ZM248.748-8.436c.057,0,.114.057.171.114-.057.057-.114.114-.171.114a.432.432,0,0,1-.228-.114A.432.432,0,0,1,248.748-8.436Zm-11-16.815c.114,0,.171.057.171.114s-.057.114-.171.171c-.057-.114-.114-.171-.114-.228A.2.2,0,0,1,237.747-25.251Zm13.851,7.3v-.285l.228.171v.171Zm-12.084-5.187c-.114.114-.171.171-.228.171s-.114-.057-.228-.057l.228-.171C239.343-23.142,239.4-23.142,239.514-23.142ZM239.8-.855a.763.763,0,0,0-.285-.057.335.335,0,0,1,.285-.114.82.82,0,0,1,.171.114l-.342.171ZM259.806-13a.123.123,0,0,1,.114-.114c.057,0,.114.057.171.114-.114.057-.171.114-.228.114a.574.574,0,0,1-.171-.057Zm-7.41-4.332c0-.057,0-.114.057-.114,0,0,.342.057.4.057a1.057,1.057,0,0,1-.4.114Zm-12.2,12.6h-.171c.057-.057.057-.114.114-.114s.285.057.342.057v.114Zm.684-25.023c-.057,0-.114-.057-.171-.114.171-.057.342-.114.342.114Zm-2.679,6.27c.114-.057.114-.114.171-.171l.114.057v.171h-.114Zm-1.767,2.679.171.114c-.171.114,0,.171-.171.228l-.057-.057Zm.4,7.182-.114.057v-.171l.114-.057.228.171ZM249.546-2.28l.285-.171.057.057-.228.228ZM236.379-25.365v-.057h.057l.171.342-.114.057Zm3.819-3.249a.2.2,0,0,0-.057-.114c.057-.057.285-.057.342-.114v.114Zm18.867-2.223.171.057-.285.171-.057-.057ZM251.256-5.016a.2.2,0,0,0-.114-.057l.171-.171.114.114C251.37-5.073,251.313-5.016,251.256-5.016ZM239.343-23.655c.057,0,.114.057.171.114-.057.057-.114.114-.171.114s-.057-.057-.057-.114l.057-.057Zm.8-5.415h.057v.057a.209.209,0,0,1-.057.171h-.114v-.114ZM236.607-2h-.114v-.513Zm24.111-29.3a.445.445,0,0,0,.228.228l-.114.057-.171-.171Zm.228,14.934c.171,0,.228,0,.285.057-.057.057-.114.057-.285.057ZM254.9-25.023h-.228q-.171-.085-.171-.171h.057ZM239.8-14.364c.171.057.285.114.285.285-.171,0-.171-.114-.171-.228Zm16.245-16.074-.114.057-.171-.171.057-.057Zm-4.332,19.722.114.114-.057.057a.574.574,0,0,1-.171-.057C251.6-10.659,251.6-10.716,251.712-10.716Zm9.8-12.711a.25.25,0,0,1,.171-.057v.228Q261.516-23.341,261.516-23.427Zm-19.836-7.41h.114l-.057.057h-.285v-.114Zm9.8,21.432c-.057,0-.057-.057-.114-.114a.2.2,0,0,0,.114-.057.123.123,0,0,1,.114.114l-.057.057Zm-2.679-.057c-.057.057-.114.057-.228.057v-.114h.228Zm5.643-15.96c0,.057-.057.114-.114.171a.209.209,0,0,0-.057-.171l.114-.114A.2.2,0,0,0,254.448-25.422Zm4.9,15.789h.171a.177.177,0,0,0-.057.114h-.228Zm1.14-.627.171-.171h.114v.114H260.6Zm.4-4.56h-.057c.057-.057.057-.114.114-.114h.228A.6.6,0,0,1,260.889-14.82ZM238.032-7.353h.171a.177.177,0,0,0-.057.114c-.057,0-.114-.057-.228-.114V-7.41Zm23.541-21.033a.123.123,0,0,1-.114-.114h.114c0,.057,0,.114.114.171a.25.25,0,0,0-.171.057ZM251.142-9.063q-.256,0-.171-.171l.228.114h-.228Zm10.431-8.778.114.057h.114l-.114-.114Zm-16.3,4.047v-.057h.228v.057Zm16.188,5.13c-.057,0,.228,0,.285-.057A.62.62,0,0,1,261.459-8.664Zm-1.026-11.913v-.057S260.49-20.634,260.433-20.577Zm11.685,11c.057,0,.057-.057.114-.114a3.5,3.5,0,0,1,2.394-.684h.4c.228-.057.228-.114.171-.342l-.171-.684c.171-.057.285-.057.285.171a.723.723,0,0,0,.057.342l.285.114a.209.209,0,0,1,.057.171c.057,0,.114-.057.171-.057a3.046,3.046,0,0,0,1.254-.171.416.416,0,0,0,.513-.114c.057-.057.114-.114.171-.114.114-.057.342-.285.342.114h.171a6.333,6.333,0,0,0,.912-.4c.456-.228.969-1.026,1.311-1.311l.912-1.026a.432.432,0,0,0,.114-.228c-.057-.228,1.311-2.508,1.254-2.622-.57-2,.969-3.078.456-5.7l.057-.057a.363.363,0,0,1,0-.342,4.686,4.686,0,0,0,.114-1.539v-.114c-.228-.171-.171-.4-.114-.627l.171-.513a.343.343,0,0,0-.057-.228c-.057-.057-.171-.057-.171-.114-.057-.114.057-.114.171-.114a.574.574,0,0,0,.057-.171l-.171-1.2c0-.057-.057-.171-.057-.228a2.067,2.067,0,0,0-.228-1.425.81.81,0,0,1-.114-.342,1.6,1.6,0,0,0-.342-.855c-.171-.228-.057-.627-.513-.684v-.114l-.171-.342c-.114-.114-.285-.171-.342-.285a2.989,2.989,0,0,0-1.254-.912l-.57-.285c-.684-.114-.684-.114-1.026-.4a1.341,1.341,0,0,0-.912-.285.575.575,0,0,1-.513-.171.268.268,0,0,0-.342-.057.939.939,0,0,1-1.14-.057c-.057-.057-.114-.114-.171-.114-.342.114-.57-.171-.912-.171-.114,0-.228-.057-.342,0-.456.228-.912.057-1.368.114a4.037,4.037,0,0,1-.855.057c-.114,0-.228-.057-.342-.057a1.757,1.757,0,0,1-.57-.057,6.553,6.553,0,0,0-2.109-.057,3.987,3.987,0,0,1-1.425,0,.343.343,0,0,0-.228-.057c-.57.114-1.2.228-1.368.855a.428.428,0,0,0,0,.513.59.59,0,0,1,.285.4c0,.114-.171.228-.285.342a.81.81,0,0,0-.114.342c0,.684.627,1.14.4,1.6-.228.513-.057.969-.342,1.425v.171a.627.627,0,0,1,.171.8l-.228.342a.754.754,0,0,0,.114.684.466.466,0,0,1,0,.684.984.984,0,0,0-.057.969,1.805,1.805,0,0,1,.342.855c.057.228.114.228.285.228h.228a.343.343,0,0,1-.057.228.238.238,0,0,1-.4,0c-.114-.114-.114,0-.114.114a1.835,1.835,0,0,1-.057.969c-.057.114-.228.285,0,.4a.357.357,0,0,1,.114.456l-.114.342a.607.607,0,0,0,0,.8c.342.627-.4,1.2,0,1.881a6.7,6.7,0,0,1,.285.627.269.269,0,0,1-.057.342.621.621,0,0,0-.114.627.654.654,0,0,1-.057.57c-.114.171-.228.342,0,.513.171.171.114.342.057.513l-.171.513a.6.6,0,0,0,0,.684.981.981,0,0,1,.057.8,1.034,1.034,0,0,0,0,1.14.989.989,0,0,1,.171.8c-.114.285-.4,1.6-.228,1.71.228.228.114.456.057.684s-.285.456.057.684c0,.114-.285-.057-.228.114.114.114.228.171.228.285a1.578,1.578,0,0,1-.057.513,1.036,1.036,0,0,0,0,1.14,1.388,1.388,0,0,1,.114,1.254.427.427,0,0,0-.057.285.844.844,0,0,1-.114.741q-.256.171,0,.342c.456.456-.627,1.311,0,1.653a.209.209,0,0,1,.057.171l-.228.513c0,.114-.057.228-.057.342.228.741,1.254,1.14,2.166,1.14.513,0,.969-.057,1.482-.057a1.113,1.113,0,0,1,.4.057c.627.228,1.368-.456,1.482-.912a9.7,9.7,0,0,0,.114-2.223.151.151,0,0,0-.171-.171.473.473,0,0,0,.171-.456c-.057-.969-.114-1.938-.114-2.907,0-.4.057-.8.057-2.28A2.36,2.36,0,0,1,272.118-9.576Zm6.327-12.882a.427.427,0,0,0,.057.285c.228.228.057.4-.114.513-.513.342.057,1.938-.171,2.451l-1.6,3.705a1.923,1.923,0,0,1-1.254.513h-.342c-.342.057-.4.285-.228.513a.209.209,0,0,1,.057.171.209.209,0,0,1-.171-.057c-.513-.4-1.539-.4-2.109-.627h-.114v.057c.057.057.114.057.114.114v.114h-.114c-.228-.114-.513-.114-.456-.456a.432.432,0,0,0-.114-.228.056.056,0,0,1-.057-.057l-.342-5.13c0-.114,0-.228-.171-.228a2.539,2.539,0,0,0,.171-1.311c0-.57,0-1.14-.057-1.767-.057-.684.057-1.368.057-2.052v-2.394a1,1,0,0,1,.342-.741l.228-.456c.057-.114.171-.114.285-.171.855-.342,1.6.114,2.337.171a8.46,8.46,0,0,1,2.337.684.263.263,0,0,1,.171.285.527.527,0,0,0,.4.57.461.461,0,0,1,.228.627c-.114.285.057.513.171.741h.114c.114-.114.171,0,.228.114l.4.684a1.45,1.45,0,0,0-.4-.114c-.114,0-.228.057-.228.171l.4,2.052c.114.228.342.456.342.627s-.228.342-.228.57Zm-9.177,3.648c0-.057.171-.057.228-.057a.209.209,0,0,1-.057.171c-.171.228,0,.342.171.4.057,0,.114.057.171.057-.057,0-.114.057-.171.057h-.171c-.228-.057-.228.057-.228.228v.969c0,.057-.057.114-.114.171v-.114l-1.026-1.14c-.114,0-.114,0-.114-.057v-.114c0-.057.114-.114.228-.114.228-.057.912-.114,1.026-.342Zm3.477-14.136a.682.682,0,0,1,.4-.4c.513-.228.627-.228.8.285h-.114c-.171-.171-.285-.228-.4.057a.569.569,0,0,1-.285.228c-.114.057-.228.057-.228,0A.432.432,0,0,1,272.8-33ZM266.817-7.41v-.114h.114l.171.171.4.513v.171a.427.427,0,0,1-.285-.057l-.57-.513Zm8.037-25.479.57-.4h.057s0,.057.114.114l-.57.684h-.171a.123.123,0,0,1-.114-.114.427.427,0,0,1,.057-.285ZM269.667-33c.114,0,.228-.171.4-.228h.114a.056.056,0,0,1,.057.057l-.57.627a.432.432,0,0,1-.228.114c-.057,0-.057-.114-.057-.171v-.114c-.114-.228.057-.228.228-.228ZM282.321-24l-.114-.057c-.057-.342-.456-.57-.4-.912v-.171a.441.441,0,0,0,.171.057,2.106,2.106,0,0,1,.4.8c0,.057-.057.114-.114.171ZM267.1-1.539h-.114a.209.209,0,0,1-.171-.057.305.305,0,0,1-.171-.228.36.36,0,0,1,.513-.228l.171.228-.342.171Zm10.032-10.146c-.057-.057-.228.057-.4.057h-.171v-.228a3.506,3.506,0,0,1,.741-.057l.114.114C277.3-11.685,277.419-11.457,277.134-11.685Zm-9.462,7.752a.97.97,0,0,1-.4-.057c-.057,0-.114-.057-.171-.114.057,0,.114-.057.171-.057h.4a.427.427,0,0,1,.285.057c.114,0-.171.228-.285.228Zm1.311-1.425.057-.057c.912.114-.513.456-.684.114Zm-1.6-3.534c-.114.057-.228.171-.4.057v-.114l.57-.171c.057,0,.114.057.171.114-.114.114-.171.171-.228.171ZM268.3-20.52a2.861,2.861,0,0,1,.684.114l-.741.171-.171-.171c.057,0,.114-.057.171-.057Zm.684-8.208.114.114-.171.228L268.3-28.5c0-.057.57-.114.627-.228Zm7.7-2.394a1.113,1.113,0,0,1,.4-.057c.057,0,.114.057.171.057v.114l-.342.171a.574.574,0,0,1-.171-.057c0-.057,0-.171.114-.171Zm-4.047-.627.171.456a.2.2,0,0,1-.114.057h-.114l-.228-.342a.281.281,0,0,0,.171-.057ZM272.46-11.97c-.228.057-.4.171-.57.057v-.057l.456-.171a.763.763,0,0,0,.285.057C272.574-12.027,272.517-11.97,272.46-11.97Zm-1.083-17.9v-.171a.81.81,0,0,1,.114-.342c.057.057.171.114.171.228,0,.057-.114.171-.171.285,0,.057-.057.057-.114.057h-.114Zm-4.731,15.675a.343.343,0,0,1,.228-.057c0,.057.057.114.057.171s-.057.114-.114.171l-.228.171v-.171c.057-.114.057-.228.114-.285Zm8.493,2.166h-.456v-.057l.741-.171.057.057v.057C275.31-12.084,275.2-12.084,275.139-12.027Zm.513-18.3c-.057,0-.171.057-.228.057-.114,0-.228-.114-.171-.228,0-.057.057-.057.114-.114Zm-3.591,16.7c0-.171.171-.114.285-.114-.057.114-.057.285-.228.228Zm7.182-11.4-.171-.171.114-.114.228.171Zm-3.135,10.374a.123.123,0,0,1-.114-.114l.057-.057a1,1,0,0,1,.342.057C276.279-14.706,276.222-14.649,276.108-14.649Zm-8.151.684-.228.228-.114-.114.228-.171A.2.2,0,0,0,267.957-13.965Zm.285,4.218c-.057,0-.114.057-.171.057-.114,0-.114-.057-.171-.114.057,0,.171-.057.228-.057s.114.057.171.114Zm12.54-4.047c.057,0,.114-.285.228-.228a1.057,1.057,0,0,0-.114.4.176.176,0,0,0-.114-.057ZM269.5-2.622h-.114v-.171h.171v.342Zm4.1-29.184-.057.057h-.057a.313.313,0,0,1-.171-.285Zm1.2,20.121a.209.209,0,0,1-.057.171h-.057v-.114l.171-.171h.228Zm-6.84-6.441h.228v-.114h-.228Zm11.571-7.467c0,.057-.057.057-.114.057a.2.2,0,0,0-.057-.114c0-.057.057-.057.114-.114a.2.2,0,0,0,.057.114Zm.513-3.192v-.228l.114.114c0,.057-.057.114-.057.171C280.041-28.728,280.041-28.728,280.041-28.785ZM268.128-8.778h.171v.114h-.171Zm4.332-5.016v-.057l.171-.171h.057Zm8.265-.342h.114v.057ZM266.532-16.53h.057v.057Z" transform="translate(0.693 0.669) rotate(90)" fill="#fff" opacity="0.2"/>
</svg>
