<svg xmlns="http://www.w3.org/2000/svg" width="35" height="279.585" viewBox="0 0 35 279.585">
  <path id="パス_713" data-name="パス 713" d="M.228-8.949l.4.456c-.114.513-.513.285-.513.57a.281.281,0,0,0,.057.171c0,.114-.171.285-.171.285s.513-.057.513.285c0,.171-.4.171-.4.4a8.141,8.141,0,0,0,1.2,3.591h.171c.114,0,.171,0,.171.057s-.057.114-.057.171C1.6-2.109,3.762-.8,4.674-.4c1.083.456,2.337.114,3.99.627a3.107,3.107,0,0,0,1.368-.285l1.71-.684a.123.123,0,0,0,.114-.114c0-.456,1.254-.684,1.482-1.482,0-.057.057-.057.171-.114a1.394,1.394,0,0,0,.513-.627,2.452,2.452,0,0,0,1.254-2.28c0-.228-.057-.456-.057-.627v-.057c0-.057.228-.114.228-.285,0,0-.114-.057-.114-.114.114-.057.114-.114.114-.228,0-.057-.114-.114-.114-.228.114-.171.285-.285.285-.513a.62.62,0,0,0-.057-.285v-.171a.431.431,0,0,0,.057-.228c0-.057-.057-.114-.057-.171l.228-.8.456-.684H15.9a6.973,6.973,0,0,0,.171-.969A7.377,7.377,0,0,0,15.96-13l.171-.228c-.057-.114-.285-.228-.285-.342,0-.171.228.285.228-.228v-5.757a1.812,1.812,0,0,0-.171-.513c0-3.021.057-5.472.057-7.809,0-2.166.456-6.213-1.254-6.213-.114,0-.228.228-.342.228-.057,0-.057-.057-.057-.171a1.057,1.057,0,0,1-.4.114c-.513,0-.969-.057-1.482-.057-1.2,0-1.539,1.026-1.539,2.109,0,.285.114.627.114.912v3.477c0,.114.057.228.057.342a.2.2,0,0,1-.057.114c0,.228.513.285.513.513,0,.285-.4,1.6-.4,2.223,0,.285-.057.627-.057.912l.057-.057c.057,0,.114.114.114.171,0,.855-.228,1.824-.228,2.736,0,.171.057.285.057.456,0,.228-.057.4-.057.627,0,.4.057.741.057,1.083v1.14c0,.114.171-.057.171.285L11-15.39c0,.171.057.4.057.627v.4c0,.342.171.684.171,1.026,0,.456-.171,1.026-.171,1.425.171.057.228.057.228.114a4.314,4.314,0,0,1-.057.855l-.171-.228-.171,1.653a8.812,8.812,0,0,1-.8,2.907c0,.114.057.228.057.342a.482.482,0,0,1-.114.342L9.8-5.586l-.285.456A5.76,5.76,0,0,1,8.436-4.9a.431.431,0,0,1-.228.057c-.171,0-.57-.114-.912-.114a.5.5,0,0,0-.456.513c.228.228.114.171,0,.171-.456.057-.8,0-.8-.285v-.171a11.49,11.49,0,0,0-.855-1.425,1.15,1.15,0,0,1-.285-.8c0-.741.456-.228.456-.627a4.331,4.331,0,0,1-.342-1.482,6.717,6.717,0,0,1,.228-1.083c0-.513-.8-1.254-.741-1.254a.281.281,0,0,1-.171.057c-.171,0,0-.228-.4-.228a3.473,3.473,0,0,1-1.368.171c-.4,0-.8-.114-1.2-.114-.912,0-1.311.684-1.311,1.6a1.486,1.486,0,0,0,.171.627ZM12.312-25.536c-.057.171-.285.513-.456.513-.057,0-.057-.057-.114-.114C11.8-25.365,12.312-26.22,12.312-25.536Zm.171-4.218c.057-.171.114-.228.228-.228.171,0,.057,0,.228.114,0,.171-.4.513-.57.684-.057-.057-.057-.057-.057-.114,0-.114.114-.171.171-.285Zm1.254,3.306a1.606,1.606,0,0,1,.228.627h-.057a.68.68,0,0,1-.513-.285c0-.057.228-.228.342-.228ZM3.762-5.472l-.114-.114a.209.209,0,0,0-.057-.171L3.363-6.1a1.293,1.293,0,0,1,.228-.057c.228.057.285.171.285.513C3.876-5.586,3.819-5.529,3.762-5.472Zm8.721-19.209c.171,0,.456-.057.57.057l-.513.171a.431.431,0,0,0-.228-.057c.057-.057.114-.114.171-.114Zm1.368.057a.91.91,0,0,1-.456-.171c0-.057.114-.114.171-.114.114,0,.228,0,.285.171-.057,0-.114.057-.171.057ZM13-12.255l.171-.4L13-13l.342.171-.171.171v.171C13.167-12.369,13.11-12.255,13-12.255ZM2.166-7.638l-.342-.114c.171-.057.342-.171.342-.228,0,.057.114.114.114.171S2.166-7.7,2.166-7.638ZM11.4-8.892l.285.228c-.057.057-.057.114-.171.114A.81.81,0,0,1,11.4-8.892ZM3.762-6.555H3.7c0,.057-.057.114-.057.171l-.171-.171.171-.171C3.7-6.669,3.762-6.612,3.762-6.555Zm9.633-15.162c0-.057-.057-.114-.057-.171s.057-.114.057-.171l.228.171c-.057.057-.114.057-.228.057Zm-.627,7.809c.228-.114.228-.057.285,0l-.171.171c0-.057-.114-.114-.114-.114Zm-.456-6.612a.2.2,0,0,0,.057.114c0,.057-.057.114-.114.171l-.114-.114C12.141-20.406,12.255-20.463,12.312-20.52ZM5.016-5.757V-5.7L4.9-5.814c.057-.057.114-.114.171-.114a.574.574,0,0,0,.171.057A.432.432,0,0,1,5.016-5.757ZM15.1-29.469a.431.431,0,0,1,.228-.057.426.426,0,0,1,.171.171A1.45,1.45,0,0,0,15.1-29.469ZM4.275-5.814v-.057a.2.2,0,0,0,.057-.114c.057.057.114.114.114.171l-.057.057C4.332-5.757,4.275-5.757,4.275-5.814Zm11-23.427H15.5v.171ZM15.9-9.576l-.057.057v-.057Zm8.892-24c-.057,0-.114,0-.114.057v-.114a1.255,1.255,0,0,1-.456.057c-.057,0-.114.114-.171.171l-.912,1.026a3.918,3.918,0,0,0-.285,1.368,2.861,2.861,0,0,0-.114.684,1.057,1.057,0,0,0,.114.4c.057.114.114.228,0,.228-.342,0-.285.171-.171.342l.171.342c0,.057-.057.114-.057.171a.2.2,0,0,0-.114-.057h-.228a.2.2,0,0,1-.057.114c.171.171.114.4.057.627v.171c.228.342,0,.57-.171.8a1.057,1.057,0,0,0-.114.4c.057.171.114.342-.057.513a.425.425,0,0,0,0,.456.447.447,0,0,1-.057.627c-.171.114-.171.228-.171.4a1.664,1.664,0,0,1-.114.513A1.82,1.82,0,0,0,21.6-23.2a1.856,1.856,0,0,1-.171,1.368c-.057.171-.228.342-.228.513l.057-.057.228.114-.285.228-.057-.057c0,.057.057.114.057.171.057.4-.171.741,0,1.14.057.057-.114.228-.171.342,0,.057-.057.114-.057.171a1.645,1.645,0,0,1-.171,1.026,2.717,2.717,0,0,0-.228,1.14.97.97,0,0,1-.057.4,1.446,1.446,0,0,0-.114.684,4.4,4.4,0,0,1-.114.855l-.171.684a.847.847,0,0,0-.114.513.972.972,0,0,1-.171,1.083.766.766,0,0,0-.114.513,1.746,1.746,0,0,1-.171,1.311,1.456,1.456,0,0,0,.057,1.71v.057a.62.62,0,0,1-.057.285c-.228-.171-.342-.171-.456.057a1.625,1.625,0,0,0-.114.912.971.971,0,0,1,0,.57c-.057.228-.171.285,0,.456.057.114.114.228-.057.171,0,0-.114.057-.114.114a4.989,4.989,0,0,1-.114.912c-.228.456-.114.969-.342,1.425-.057.114-.057.228.114.228.114,0,.171.114.057.114-.228.057-.228.228-.228.4s-.228.4.057.57a.574.574,0,0,0-.057.171c-.114.114-.228.228-.228.285.114.4-.114.4-.228.741-.171.57-.285.57.057,1.083l.114.171V-.741L18.069-.8h.057l.057-.057L18.3-.8c.057.057.114.057.114.114a.2.2,0,0,1,.114.057.41.41,0,0,0,.4.228.209.209,0,0,0,.171.057c.114.285.456.285.684.285a3.722,3.722,0,0,0,.627-.114.123.123,0,0,1,.114-.114c.627,0,1.254-.057,1.938-.057s.741-.285,1.083-.8a3.508,3.508,0,0,0,.4-1.311c.057-.456-.057-.57.171-1.026.057-.171-.114-.4-.057-.57.057-.228.285-.4.285-.627a19.774,19.774,0,0,1,.342-2.565l.171-.171a3.823,3.823,0,0,1,2.907-1.14,8.25,8.25,0,0,0,2.052-.057c.171-.057.228.114.342.228h.171l-.171.171-.171.342c.171.057.285.171.342.171.456-.171.513.114.627.342a14.119,14.119,0,0,1,.171,1.539.726.726,0,0,0,.285.627.275.275,0,0,1,.057.4c-.171.171-.171.285,0,.456a.343.343,0,0,1,.057.228,4.4,4.4,0,0,1,.114.855c0,.285-.057.228-.057.513a.209.209,0,0,0,.057.171c.171.342.228.684.4,1.026.114.4,1.14.741,1.482,1.083a1.352,1.352,0,0,0,1.14.4c.114,0,.228-.057.342-.057.513,0,1.026.057,1.539.057a3.923,3.923,0,0,0,.741-.114.377.377,0,0,0,.342-.4,1.542,1.542,0,0,1,.171-.855,1.255,1.255,0,0,0,.057-.456l-.456-.285-.4-2.052a4.544,4.544,0,0,1-.171-.855,8.1,8.1,0,0,0-.456-2.337,3.213,3.213,0,0,1-.228-.684,2.39,2.39,0,0,0-.057-.912,9.277,9.277,0,0,0-.4-1.71.723.723,0,0,1-.057-.342,2.192,2.192,0,0,0-.285-1.2.427.427,0,0,1-.057-.285c.057-.228.228-.513-.057-.741.057-.456-.228-.912-.228-1.368a.767.767,0,0,0-.285-.684c-.114-.057-.228-.171-.057-.285a.754.754,0,0,0,.114-.684l-.513-2.736-.171-1.2c0-.057,0-.228-.057-.228-.285-.057-.228-.171-.171-.285.114-.171-.057-.171-.114-.228-.114-.114-.057-.114.057-.114a.574.574,0,0,0,.057-.171,3.373,3.373,0,0,1-.285-1.083c0-.057-.057-.114-.057-.171a.733.733,0,0,1-.057-.684v-.171a1.165,1.165,0,0,0-.285-.513c-.114-.228.228-.342.171-.513l-.171-.627L33-26.049c-.171,0-.171-.114-.114-.285a1.918,1.918,0,0,0-.228-1.254q-.171-.086-.171-.171a9.321,9.321,0,0,1-.114-1.254,4.381,4.381,0,0,0-.171-1.71,11.674,11.674,0,0,0-.285-1.368,1.947,1.947,0,0,0-.741-1.368c-.285-.228-.684-.114-.969-.171a6.167,6.167,0,0,0-2.28-.057c-.114,0-.342.057-.456,0a1.589,1.589,0,0,0-1.026-.057v.057l-.228.171-.057.114a.623.623,0,0,0-.57-.114c-.057-.057-.114-.057-.4-.114A3.214,3.214,0,0,0,24.8-33.573ZM29.64-14.364c-.057.114-.285.114-.456.171-.114.114-.4.114-.285.456,0,.057-.171.171-.228.171-.228-.057-.513.228-.684-.057h-.114a2.353,2.353,0,0,1-1.539-.285h-.171c-.342,0-.4-.057-.57-.342a.177.177,0,0,0-.057-.114c-.513-.57-.285-.114-.228-.684a21.508,21.508,0,0,0,.741-6.042c0-.114,0-.171.057-.228a2.673,2.673,0,0,0,.171-1.482,4.018,4.018,0,0,1,.228-1.767,14.321,14.321,0,0,1,.228-1.539.886.886,0,0,1,.342-.456.611.611,0,0,1,.342-.114l.57.171c.057.057.057.228.114.342,0,.285-.114.513.228.684a.678.678,0,0,0-.228.627c.057.171,0,.456.342.513.057,0,.114.171.057.228a1.83,1.83,0,0,0-.114.969.341.341,0,0,0,.171.342.611.611,0,0,1,.114.342,3.926,3.926,0,0,0,.057,1.14,6.9,6.9,0,0,1,.057,1.083c0,.171,0,.342.228.4.171.057.171.171.171.342l-.171.57v.171a2.619,2.619,0,0,1,.171,1.311v.627a2.056,2.056,0,0,1,.228,1.368,2.138,2.138,0,0,0-.057.57c0,.171.057.114.228.114.057,0,.114-.114.114-.228l.114.228Zm-4.389-9.975c.114.057.228.171.228.228a2.216,2.216,0,0,1-.114.855l-.342.855c-.4-.057-.171-.456-.285-.741,0-.114-.114-.171-.114-.285,0-.171-.057-.4-.057-.57A.891.891,0,0,0,25.251-24.339ZM24.8-11.115a.435.435,0,0,1-.114.285l-.285.114-.171-.171c.057-.114.057-.228.114-.285l.456-.285c.228.171-.057.285-.114.4Zm5.643,1.71c0-.057.057-.114.114-.171h.057v.171c0,.057-.057.114-.057.171l.342.171.171,1.254c-.057.057-.171-.912-.228-.912l-.057-.057a.435.435,0,0,1-.285-.114.34.34,0,0,1,0-.4C30.438-9.291,30.438-9.348,30.438-9.405Zm-.855-15.789-.171.4-.228.171-.171-.171c-.057-.114-.057-.171.114-.171.057,0,.114-.171.171-.285l.228-.171v.171Zm1.995-5.7a1.346,1.346,0,0,1-.342.513c-.228-.171-.057-.342-.057-.513,0-.114.114-.171.228-.228h.057v.057ZM34.029-16.53l.171.171-.4.342-.057-.057.114-.456Zm-3.42-8.379.228-.342h.057v.171a.62.62,0,0,1-.057.285c0,.057-.057.057-.171.114,0-.057-.057-.114-.057-.171Zm-1.2-5.244h.228c.114,0,.228-.057.342.114H29.64l-.4-.171c.114-.228.342-.057.513-.057ZM32.2-23.769v.342l-.057.057-.228-.342c0-.057.114-.114.171-.171ZM36.024-3.876c-.057,0-.114-.057-.171-.114.057-.057.114-.114.171-.114a2.564,2.564,0,0,1,.456.114c-.228.057-.285.114-.342.114ZM26.619-30.552l.342-.171h.114v.114l-.4.171c-.057,0-.114-.057-.171-.057C26.562-30.5,26.562-30.552,26.619-30.552Zm.627,19.665c-.057-.057-.171-.114-.171-.171a.3.3,0,0,1,.114-.228c.057.057.114.114.114.171s-.057.114-.057.171Zm-.114-1.083.057-.057a.252.252,0,0,1,.114.4Zm4.9,3.534L31.92-8.55l.228-.171v.342c0,.057-.057.057-.114.057ZM23.427-30.153c.057.057.114.114.114.171s-.057.114-.114.171c-.057-.057-.114-.114-.114-.171S23.37-30.1,23.427-30.153ZM32.2-3.135c.057,0,.114.057.171.057l-.228.171-.114-.114C32.091-3.078,32.148-3.135,32.2-3.135ZM28.215-30.78c0,.057-.057.057-.114.057l-.057-.057.171-.171.171.114Zm-1.653-1.995c.057-.057.114-.114.171-.114l.114.114c-.057.057-.114.114-.171.114l-.057-.114Zm4.389,7.011.114.057a.431.431,0,0,1-.057.228c-.057-.057-.114-.114-.114-.171A.177.177,0,0,1,30.951-25.764ZM28.9-32.6h.114v.171c0,.057-.057.057-.114.114ZM32.262-8.835c0,.057-.057.057-.114.057v-.171c0-.057.057-.057.114-.057ZM35.454-1.71l.171.171c-.057,0-.057,0-.114.057L35.4-1.653ZM31.179-24.624h-.171l-.057-.057c0-.057.057-.057.114-.114v.057ZM21.147-21.147c0-.057.057-.114.057-.171l-.114.114ZM45.828-9.576c.057,0,.057-.057.114-.114a3.5,3.5,0,0,1,2.394-.684h.4c.228-.057.228-.114.171-.342l-.171-.684c.171-.057.285-.057.285.171a.723.723,0,0,0,.057.342l.285.114a.209.209,0,0,1,.057.171c.057,0,.114-.057.171-.057a3.046,3.046,0,0,0,1.254-.171.416.416,0,0,0,.513-.114c.057-.057.114-.114.171-.114.114-.057.342-.285.342.114h.171a6.333,6.333,0,0,0,.912-.4c.456-.228.969-1.026,1.311-1.311l.912-1.026a.432.432,0,0,0,.114-.228c-.057-.228,1.311-2.508,1.254-2.622-.57-2,.969-3.078.456-5.7l.057-.057a.363.363,0,0,1,0-.342,4.687,4.687,0,0,0,.114-1.539v-.114c-.228-.171-.171-.4-.114-.627l.171-.513a.343.343,0,0,0-.057-.228c-.057-.057-.171-.057-.171-.114-.057-.114.057-.114.171-.114a.574.574,0,0,0,.057-.171l-.171-1.2c0-.057-.057-.171-.057-.228a2.067,2.067,0,0,0-.228-1.425.81.81,0,0,1-.114-.342,1.6,1.6,0,0,0-.342-.855c-.171-.228-.057-.627-.513-.684v-.114l-.171-.342c-.114-.114-.285-.171-.342-.285a2.988,2.988,0,0,0-1.254-.912l-.57-.285c-.684-.114-.684-.114-1.026-.4a1.341,1.341,0,0,0-.912-.285.575.575,0,0,1-.513-.171.269.269,0,0,0-.342-.057.939.939,0,0,1-1.14-.057c-.057-.057-.114-.114-.171-.114-.342.114-.57-.171-.912-.171-.114,0-.228-.057-.342,0-.456.228-.912.057-1.368.114a4.037,4.037,0,0,1-.855.057c-.114,0-.228-.057-.342-.057a1.757,1.757,0,0,1-.57-.057,6.553,6.553,0,0,0-2.109-.057,3.987,3.987,0,0,1-1.425,0,.343.343,0,0,0-.228-.057c-.57.114-1.2.228-1.368.855a.428.428,0,0,0,0,.513.59.59,0,0,1,.285.4c0,.114-.171.228-.285.342a.81.81,0,0,0-.114.342c0,.684.627,1.14.4,1.6-.228.513-.057.969-.342,1.425v.171a.627.627,0,0,1,.171.8l-.228.342a.754.754,0,0,0,.114.684.466.466,0,0,1,0,.684.984.984,0,0,0-.057.969,1.805,1.805,0,0,1,.342.855c.057.228.114.228.285.228h.228a.343.343,0,0,1-.057.228.238.238,0,0,1-.4,0c-.114-.114-.114,0-.114.114a1.835,1.835,0,0,1-.057.969c-.057.114-.228.285,0,.4a.357.357,0,0,1,.114.456l-.114.342a.607.607,0,0,0,0,.8c.342.627-.4,1.2,0,1.881a6.687,6.687,0,0,1,.285.627.269.269,0,0,1-.057.342.621.621,0,0,0-.114.627.654.654,0,0,1-.057.57c-.114.171-.228.342,0,.513.171.171.114.342.057.513l-.171.513a.6.6,0,0,0,0,.684.981.981,0,0,1,.057.8,1.034,1.034,0,0,0,0,1.14.989.989,0,0,1,.171.8c-.114.285-.4,1.6-.228,1.71.228.228.114.456.057.684s-.285.456.057.684c0,.114-.285-.057-.228.114.114.114.228.171.228.285a1.578,1.578,0,0,1-.057.513,1.035,1.035,0,0,0,0,1.14,1.388,1.388,0,0,1,.114,1.254.427.427,0,0,0-.057.285.844.844,0,0,1-.114.741q-.257.171,0,.342c.456.456-.627,1.311,0,1.653a.209.209,0,0,1,.057.171l-.228.513c0,.114-.057.228-.057.342.228.741,1.254,1.14,2.166,1.14.513,0,.969-.057,1.482-.057a1.113,1.113,0,0,1,.4.057C44.4.285,45.144-.4,45.258-.855a9.7,9.7,0,0,0,.114-2.223.151.151,0,0,0-.171-.171.473.473,0,0,0,.171-.456c-.057-.969-.114-1.938-.114-2.907,0-.4.057-.8.057-2.28A2.361,2.361,0,0,1,45.828-9.576Zm6.327-12.882a.427.427,0,0,0,.057.285c.228.228.057.4-.114.513-.513.342.057,1.938-.171,2.451l-1.6,3.705a1.923,1.923,0,0,1-1.254.513h-.342c-.342.057-.4.285-.228.513a.209.209,0,0,1,.057.171.209.209,0,0,1-.171-.057c-.513-.4-1.539-.4-2.109-.627H46.17v.057c.057.057.114.057.114.114v.114H46.17c-.228-.114-.513-.114-.456-.456a.432.432,0,0,0-.114-.228.056.056,0,0,1-.057-.057l-.342-5.13c0-.114,0-.228-.171-.228a2.539,2.539,0,0,0,.171-1.311c0-.57,0-1.14-.057-1.767-.057-.684.057-1.368.057-2.052v-2.394a1,1,0,0,1,.342-.741l.228-.456c.057-.114.171-.114.285-.171.855-.342,1.6.114,2.337.171a8.46,8.46,0,0,1,2.337.684.263.263,0,0,1,.171.285.527.527,0,0,0,.4.57.461.461,0,0,1,.228.627c-.114.285.057.513.171.741h.114c.114-.114.171,0,.228.114l.4.684a1.45,1.45,0,0,0-.4-.114c-.114,0-.228.057-.228.171l.4,2.052c.114.228.342.456.342.627s-.228.342-.228.57ZM42.978-18.81c0-.057.171-.057.228-.057a.209.209,0,0,1-.057.171c-.171.228,0,.342.171.4.057,0,.114.057.171.057-.057,0-.114.057-.171.057h-.171c-.228-.057-.228.057-.228.228v.969c0,.057-.057.114-.114.171v-.114l-1.026-1.14c-.114,0-.114,0-.114-.057v-.114c0-.057.114-.114.228-.114.228-.057.912-.114,1.026-.342Zm3.477-14.136a.682.682,0,0,1,.4-.4c.513-.228.627-.228.8.285h-.114c-.171-.171-.285-.228-.4.057a.569.569,0,0,1-.285.228c-.114.057-.228.057-.228,0A.432.432,0,0,1,46.512-33ZM40.527-7.41v-.114h.114l.171.171.4.513v.171a.427.427,0,0,1-.285-.057l-.57-.513Zm8.037-25.479.57-.4h.057s0,.057.114.114l-.57.684h-.171a.123.123,0,0,1-.114-.114.427.427,0,0,1,.057-.285ZM43.377-33c.114,0,.228-.171.4-.228h.114a.056.056,0,0,1,.057.057l-.57.627a.432.432,0,0,1-.228.114c-.057,0-.057-.114-.057-.171v-.114c-.114-.228.057-.228.228-.228ZM56.031-24l-.114-.057c-.057-.342-.456-.57-.4-.912v-.171a.441.441,0,0,0,.171.057,2.106,2.106,0,0,1,.4.8c0,.057-.057.114-.114.171ZM40.812-1.539H40.7a.209.209,0,0,1-.171-.057.305.305,0,0,1-.171-.228.36.36,0,0,1,.513-.228l.171.228-.342.171ZM50.844-11.685c-.057-.057-.228.057-.4.057h-.171v-.228a3.506,3.506,0,0,1,.741-.057l.114.114C51.015-11.685,51.129-11.457,50.844-11.685ZM41.382-3.933a.97.97,0,0,1-.4-.057c-.057,0-.114-.057-.171-.114.057,0,.114-.057.171-.057h.4a.427.427,0,0,1,.285.057c.114,0-.171.228-.285.228Zm1.311-1.425.057-.057c.912.114-.513.456-.684.114ZM41.1-8.892c-.114.057-.228.171-.4.057v-.114l.57-.171c.057,0,.114.057.171.114-.114.114-.171.171-.228.171Zm.912-11.628a2.861,2.861,0,0,1,.684.114l-.741.171-.171-.171c.057,0,.114-.057.171-.057Zm.684-8.208.114.114-.171.228-.627-.114c0-.057.57-.114.627-.228Zm7.695-2.394a1.113,1.113,0,0,1,.4-.057c.057,0,.114.057.171.057v.114l-.342.171a.574.574,0,0,1-.171-.057c0-.057,0-.171.114-.171Zm-4.047-.627.171.456a.2.2,0,0,1-.114.057h-.114l-.228-.342a.281.281,0,0,0,.171-.057ZM46.17-11.97c-.228.057-.4.171-.57.057v-.057l.456-.171a.763.763,0,0,0,.285.057C46.284-12.027,46.227-11.97,46.17-11.97Zm-1.083-17.9v-.171a.81.81,0,0,1,.114-.342c.057.057.171.114.171.228,0,.057-.114.171-.171.285,0,.057-.057.057-.114.057h-.114ZM40.356-14.193a.343.343,0,0,1,.228-.057c0,.057.057.114.057.171s-.057.114-.114.171l-.228.171v-.171c.057-.114.057-.228.114-.285Zm8.493,2.166h-.456v-.057l.741-.171.057.057v.057C49.02-12.084,48.906-12.084,48.849-12.027Zm.513-18.3c-.057,0-.171.057-.228.057-.114,0-.228-.114-.171-.228,0-.057.057-.057.114-.114Zm-3.591,16.7c0-.171.171-.114.285-.114-.057.114-.057.285-.228.228Zm7.182-11.4-.171-.171.114-.114.228.171ZM49.818-14.649a.123.123,0,0,1-.114-.114l.057-.057a1,1,0,0,1,.342.057C49.989-14.706,49.932-14.649,49.818-14.649Zm-8.151.684-.228.228-.114-.114.228-.171A.2.2,0,0,0,41.667-13.965Zm.285,4.218c-.057,0-.114.057-.171.057-.114,0-.114-.057-.171-.114.057,0,.171-.057.228-.057s.114.057.171.114Zm12.54-4.047c.057,0,.114-.285.228-.228a1.057,1.057,0,0,0-.114.4.177.177,0,0,0-.114-.057ZM43.206-2.622h-.114v-.171h.171v.342Zm4.1-29.184-.057.057H47.2a.313.313,0,0,1-.171-.285Zm1.2,20.121a.209.209,0,0,1-.057.171h-.057v-.114l.171-.171h.228Zm-6.84-6.441H41.9v-.114h-.228Zm11.571-7.467c0,.057-.057.057-.114.057a.2.2,0,0,0-.057-.114c0-.057.057-.057.114-.114a.2.2,0,0,0,.057.114Zm.513-3.192v-.228l.114.114c0,.057-.057.114-.057.171C53.751-28.728,53.751-28.728,53.751-28.785ZM41.838-8.778h.171v.114h-.171Zm4.332-5.016v-.057l.171-.171H46.4Zm8.265-.342h.114v.057ZM40.242-16.53H40.3v.057ZM65.436-33.573c-.057,0-.114,0-.114.057v-.114a1.255,1.255,0,0,1-.456.057c-.057,0-.114.114-.171.171l-.912,1.026a3.918,3.918,0,0,0-.285,1.368,2.861,2.861,0,0,0-.114.684,1.057,1.057,0,0,0,.114.4c.057.114.114.228,0,.228-.342,0-.285.171-.171.342l.171.342c0,.057-.057.114-.057.171a.2.2,0,0,0-.114-.057H63.1a.2.2,0,0,1-.057.114c.171.171.114.4.057.627v.171c.228.342,0,.57-.171.8a1.057,1.057,0,0,0-.114.4c.057.171.114.342-.057.513a.425.425,0,0,0,0,.456.447.447,0,0,1-.057.627c-.171.114-.171.228-.171.4a1.664,1.664,0,0,1-.114.513,1.82,1.82,0,0,0-.171,1.083,1.856,1.856,0,0,1-.171,1.368c-.057.171-.228.342-.228.513l.057-.057.228.114-.285.228-.057-.057c0,.057.057.114.057.171.057.4-.171.741,0,1.14.057.057-.114.228-.171.342,0,.057-.057.114-.057.171a1.645,1.645,0,0,1-.171,1.026,2.717,2.717,0,0,0-.228,1.14.97.97,0,0,1-.057.4,1.446,1.446,0,0,0-.114.684,4.4,4.4,0,0,1-.114.855l-.171.684a.847.847,0,0,0-.114.513.972.972,0,0,1-.171,1.083.766.766,0,0,0-.114.513,1.746,1.746,0,0,1-.171,1.311,1.456,1.456,0,0,0,.057,1.71v.057a.62.62,0,0,1-.057.285c-.228-.171-.342-.171-.456.057a1.625,1.625,0,0,0-.114.912.971.971,0,0,1,0,.57c-.057.228-.171.285,0,.456.057.114.114.228-.057.171,0,0-.114.057-.114.114a4.989,4.989,0,0,1-.114.912c-.228.456-.114.969-.342,1.425-.057.114-.057.228.114.228.114,0,.171.114.057.114-.228.057-.228.228-.228.4s-.228.4.057.57a.574.574,0,0,0-.057.171c-.114.114-.228.228-.228.285.114.4-.114.4-.228.741-.171.57-.285.57.057,1.083l.114.171V-.741L58.71-.8h.057l.057-.057.114.057c.057.057.114.057.114.114a.2.2,0,0,1,.114.057.41.41,0,0,0,.4.228.209.209,0,0,0,.171.057c.114.285.456.285.684.285a3.722,3.722,0,0,0,.627-.114.123.123,0,0,1,.114-.114c.627,0,1.254-.057,1.938-.057s.741-.285,1.083-.8a3.508,3.508,0,0,0,.4-1.311c.057-.456-.057-.57.171-1.026.057-.171-.114-.4-.057-.57.057-.228.285-.4.285-.627a19.774,19.774,0,0,1,.342-2.565l.171-.171A3.823,3.823,0,0,1,68.4-8.55a8.25,8.25,0,0,0,2.052-.057c.171-.057.228.114.342.228h.171l-.171.171-.171.342c.171.057.285.171.342.171.456-.171.513.114.627.342a14.117,14.117,0,0,1,.171,1.539.726.726,0,0,0,.285.627.275.275,0,0,1,.057.4c-.171.171-.171.285,0,.456a.343.343,0,0,1,.057.228,4.4,4.4,0,0,1,.114.855c0,.285-.057.228-.057.513a.209.209,0,0,0,.057.171c.171.342.228.684.4,1.026.114.4,1.14.741,1.482,1.083a1.352,1.352,0,0,0,1.14.4c.114,0,.228-.057.342-.057.513,0,1.026.057,1.539.057a3.923,3.923,0,0,0,.741-.114.377.377,0,0,0,.342-.4,1.542,1.542,0,0,1,.171-.855,1.255,1.255,0,0,0,.057-.456l-.456-.285-.4-2.052a4.544,4.544,0,0,1-.171-.855,8.1,8.1,0,0,0-.456-2.337,3.213,3.213,0,0,1-.228-.684,2.39,2.39,0,0,0-.057-.912,9.277,9.277,0,0,0-.4-1.71.723.723,0,0,1-.057-.342,2.192,2.192,0,0,0-.285-1.2.427.427,0,0,1-.057-.285c.057-.228.228-.513-.057-.741.057-.456-.228-.912-.228-1.368a.767.767,0,0,0-.285-.684c-.114-.057-.228-.171-.057-.285a.754.754,0,0,0,.114-.684L74.9-19.038l-.171-1.2c0-.057,0-.228-.057-.228-.285-.057-.228-.171-.171-.285.114-.171-.057-.171-.114-.228-.114-.114-.057-.114.057-.114a.574.574,0,0,0,.057-.171,3.373,3.373,0,0,1-.285-1.083c0-.057-.057-.114-.057-.171A.733.733,0,0,1,74.1-23.2v-.171a1.165,1.165,0,0,0-.285-.513c-.114-.228.228-.342.171-.513l-.171-.627-.171-1.026c-.171,0-.171-.114-.114-.285a1.918,1.918,0,0,0-.228-1.254q-.171-.086-.171-.171a9.321,9.321,0,0,1-.114-1.254,4.381,4.381,0,0,0-.171-1.71,11.676,11.676,0,0,0-.285-1.368,1.947,1.947,0,0,0-.741-1.368c-.285-.228-.684-.114-.969-.171a6.167,6.167,0,0,0-2.28-.057c-.114,0-.342.057-.456,0a1.589,1.589,0,0,0-1.026-.057v.057l-.228.171L66.8-33.4a.623.623,0,0,0-.57-.114c-.057-.057-.114-.057-.4-.114A3.214,3.214,0,0,0,65.436-33.573Zm4.845,19.209c-.057.114-.285.114-.456.171-.114.114-.4.114-.285.456,0,.057-.171.171-.228.171-.228-.057-.513.228-.684-.057h-.114a2.353,2.353,0,0,1-1.539-.285H66.8c-.342,0-.4-.057-.57-.342a.177.177,0,0,0-.057-.114c-.513-.57-.285-.114-.228-.684a21.508,21.508,0,0,0,.741-6.042c0-.114,0-.171.057-.228a2.673,2.673,0,0,0,.171-1.482,4.018,4.018,0,0,1,.228-1.767,14.318,14.318,0,0,1,.228-1.539.886.886,0,0,1,.342-.456.611.611,0,0,1,.342-.114l.57.171c.057.057.057.228.114.342,0,.285-.114.513.228.684a.678.678,0,0,0-.228.627c.057.171,0,.456.342.513.057,0,.114.171.057.228a1.83,1.83,0,0,0-.114.969.341.341,0,0,0,.171.342.611.611,0,0,1,.114.342,3.926,3.926,0,0,0,.057,1.14,6.9,6.9,0,0,1,.057,1.083c0,.171,0,.342.228.4.171.057.171.171.171.342l-.171.57v.171a2.619,2.619,0,0,1,.171,1.311v.627a2.056,2.056,0,0,1,.228,1.368,2.138,2.138,0,0,0-.057.57c0,.171.057.114.228.114.057,0,.114-.114.114-.228l.114.228Zm-4.389-9.975c.114.057.228.171.228.228a2.216,2.216,0,0,1-.114.855l-.342.855c-.4-.057-.171-.456-.285-.741,0-.114-.114-.171-.114-.285,0-.171-.057-.4-.057-.57A.891.891,0,0,0,65.892-24.339Zm-.456,13.224a.435.435,0,0,1-.114.285l-.285.114-.171-.171c.057-.114.057-.228.114-.285l.456-.285c.228.171-.057.285-.114.4Zm5.643,1.71c0-.057.057-.114.114-.171h.057v.171c0,.057-.057.114-.057.171l.342.171.171,1.254c-.057.057-.171-.912-.228-.912l-.057-.057a.435.435,0,0,1-.285-.114.339.339,0,0,1,0-.4C71.079-9.291,71.079-9.348,71.079-9.405Zm-.855-15.789-.171.4-.228.171-.171-.171c-.057-.114-.057-.171.114-.171.057,0,.114-.171.171-.285l.228-.171v.171Zm1.995-5.7a1.346,1.346,0,0,1-.342.513c-.228-.171-.057-.342-.057-.513,0-.114.114-.171.228-.228H72.1v.057ZM74.67-16.53l.171.171-.4.342-.057-.057.114-.456Zm-3.42-8.379.228-.342h.057v.171a.62.62,0,0,1-.057.285c0,.057-.057.057-.171.114,0-.057-.057-.114-.057-.171Zm-1.2-5.244h.228c.114,0,.228-.057.342.114h-.342l-.4-.171c.114-.228.342-.057.513-.057Zm2.793,6.384v.342l-.057.057-.228-.342c0-.057.114-.114.171-.171ZM76.665-3.876c-.057,0-.114-.057-.171-.114.057-.057.114-.114.171-.114a2.564,2.564,0,0,1,.456.114c-.228.057-.285.114-.342.114ZM67.26-30.552l.342-.171h.114v.114l-.4.171c-.057,0-.114-.057-.171-.057C67.2-30.5,67.2-30.552,67.26-30.552Zm.627,19.665c-.057-.057-.171-.114-.171-.171a.3.3,0,0,1,.114-.228c.057.057.114.114.114.171s-.057.114-.057.171Zm-.114-1.083.057-.057a.252.252,0,0,1,.114.4Zm4.9,3.534-.114-.114.228-.171v.342c0,.057-.057.057-.114.057ZM64.068-30.153c.057.057.114.114.114.171s-.057.114-.114.171c-.057-.057-.114-.114-.114-.171S64.011-30.1,64.068-30.153ZM72.846-3.135c.057,0,.114.057.171.057l-.228.171-.114-.114C72.732-3.078,72.789-3.135,72.846-3.135ZM68.856-30.78c0,.057-.057.057-.114.057l-.057-.057.171-.171.171.114ZM67.2-32.775c.057-.057.114-.114.171-.114l.114.114c-.057.057-.114.114-.171.114l-.057-.114Zm4.389,7.011.114.057a.431.431,0,0,1-.057.228c-.057-.057-.114-.114-.114-.171A.177.177,0,0,1,71.592-25.764ZM69.54-32.6h.114v.171c0,.057-.057.057-.114.114ZM72.9-8.835c0,.057-.057.057-.114.057v-.171c0-.057.057-.057.114-.057ZM76.1-1.71l.171.171c-.057,0-.057,0-.114.057l-.114-.171ZM71.82-24.624h-.171l-.057-.057c0-.057.057-.057.114-.114v.057ZM61.788-21.147c0-.057.057-.114.057-.171l-.114.114ZM95.3-11.8c.456-.114.456-.342.456-.456-.057,0,0,0,0-.057l-.057-.057c-.4-.114-.513-.285-.513-.57v-.114c-.342-.171-.171-.456-.114-.684l.171-.684c0-.057,0-.114-.057-.114-.342-.228-.4-.342-.285-.57a1.207,1.207,0,0,0,.114-1.083c-.114-.114,0-.228,0-.342v-.513a.427.427,0,0,1,.057-.285,1.893,1.893,0,0,0-.057-1.368,1.276,1.276,0,0,1,.057-1.2c.114-.456-.342-.912,0-1.368.342-.8.114-2.223.114-3.534a3.006,3.006,0,0,0-.171-.684.473.473,0,0,1,.171-.456.471.471,0,0,0,.057-.684c-.171-.171-.285-.627.114-1.653a.209.209,0,0,0-.057-.171.524.524,0,0,1-.057-.684,3.266,3.266,0,0,1,.627-.627c-.4-.4-.4-.456-.513-1.2a1.615,1.615,0,0,1,.114-1.254.359.359,0,0,0,0-.342c-.285-.228-.171-.513-.057-.741a.8.8,0,0,1,.741-.57c.171,0,.285-.114.4-.114a5.783,5.783,0,0,1,2.508.342,1.511,1.511,0,0,1,.342.285c.171.57.741.855.741,1.482,0,.741-.057,1.254-.057,2,0,.285-.228.57-.228.855s.171.57.171.855-.171.57-.171.855c0,.4.114.8.114,1.2a12.857,12.857,0,0,1,0,2.565c.114.285-.114.513-.171.8v.114c.513.285.285.741.285,1.083a10.983,10.983,0,0,0-.057,1.368c0,.912.057,1.824.057,2.736v.171a.693.693,0,0,0,0,.912c.57,1.14-1.083.456-.456,1.254.114.114.342.285.114.456v3.078a1.446,1.446,0,0,1-.114.684c-.171.285.228.57.114.855a4.314,4.314,0,0,0-.057.855c0,.285.057.57.057.855a10.089,10.089,0,0,0,.057,1.311,10.955,10.955,0,0,0,0,1.368.847.847,0,0,1-.114.513,1.1,1.1,0,0,0,0,.741,3.718,3.718,0,0,1,.114,1.368,4.634,4.634,0,0,0,.057,1.254,1.323,1.323,0,0,1-.342,1.2,1,1,0,0,1-.741.342,5.644,5.644,0,0,0-1.71.114c-.8,0-2.394-.285-2.394-1.425,0-.057-.114-.114-.171-.171-.057-.171-.8-.342-.8-.456.057-.285-.171-.456-.228-.684-.342-.969.741-.4.969-1.083-2.793-.114-.912-.513-2.109-2.109-.171-.285-.285-.627-.456-.969a4.481,4.481,0,0,1-.456-1.482,2.158,2.158,0,0,0-.456-.684c-.171-.171.228-.114.114-.228a.569.569,0,0,0-.285-.228c.114-.4-.228-.627-.4-.969a2.888,2.888,0,0,1-.114-.741.919.919,0,0,0-.171-.513c-.342-.342-.171-.684-1.824-4.617-.057,0-.114,0-.114-.057l-.57-1.2a.352.352,0,0,1,.114-.4c-.342-.114-.4-.4-.513-1.311v-.057h-.057a10.566,10.566,0,0,1-.8-1.881c-.057-.228-.342-.285-.57-.285-.342,0-.513.342-.513.741l.171,1.2.285,1.2a8.39,8.39,0,0,1,0,1.2,3.128,3.128,0,0,1-.285.969c-.057.171-.171.285-.171.456a.517.517,0,0,0,.171.4c.171.171.4.342.285.627-.114,0-.285,0-.342.057l-.57.342v.057a1.087,1.087,0,0,0,.741-.114l.171-.285a.2.2,0,0,0,.057.114,12.334,12.334,0,0,0,0,2.052c-.057.342.057.684-.114,1.026a.977.977,0,0,1-.228,1.083c-.057.057,0,.228.114.285.228.228,0,.171-.114.228-.057,0-.057.171,0,.228a.473.473,0,0,1,.171.456c-.171.114-.171.228-.057.342a1.087,1.087,0,0,1,.114.741,1.111,1.111,0,0,0-.057.456,12.867,12.867,0,0,1,.057,2.565.9.9,0,0,1-.285.684.366.366,0,0,0,.057.513.616.616,0,0,1,.171.4,9.751,9.751,0,0,1-.171,2.223c0,.114.114.228.114.342a1.491,1.491,0,0,1-.513,1.026.864.864,0,0,1-.456.228A1.346,1.346,0,0,0,83.9.228a.732.732,0,0,0-.57-.57c-.171,0-.4.228-.228.342l.171.171c-.228,0-.57.114-.8.114A1.485,1.485,0,0,1,81-.57a.694.694,0,0,1,0-.741c.228-.228-.342-.456-.513-.684a1.939,1.939,0,0,1-.057-.57c0-.171.342-.057.285-.285a2.469,2.469,0,0,0-.057-.285.554.554,0,0,0-.057-.513c-.171-.171-.114-.342.057-.513a.654.654,0,0,0,.057-.57.487.487,0,0,1,0-.4,1.287,1.287,0,0,0-.114-1.2,1.035,1.035,0,0,1,0-1.14.727.727,0,0,0,0-.684.52.52,0,0,1,0-.684l.114-.456a.269.269,0,0,0-.057-.342c-.228-.171-.171-.342,0-.513a.446.446,0,0,0,.057-.456.786.786,0,0,1,0-.513A1.057,1.057,0,0,0,80.6-12.2a.855.855,0,0,1,0-1.026.605.605,0,0,0-.114-.741.944.944,0,0,1,0-.684l.228-.513c.114-.171.171-.285-.057-.456a.3.3,0,0,1-.057-.456c.114-.171.285-.342.171-.57a.2.2,0,0,1,.114-.057h.171l.4-.171c-.114-.228-.228-.057-.4,0-.228.057-.285,0-.228-.228a1.1,1.1,0,0,0,0-.741c-.057-.228,0-.513-.171-.684A.209.209,0,0,1,80.6-18.7v-.171c.057,0,.057.057.114.057a.81.81,0,0,0,.342.114,2.469,2.469,0,0,0,.285-.057c-.057-.057-.114-.114-.171-.114-.4-.057-.57-.342-.4-.684.057-.114,0-.342.285-.4.114,0-.057-.4-.228-.513-.228-.114-.228-.228-.114-.456l.171-.513a.338.338,0,0,0-.057-.4.366.366,0,0,1-.057-.513.654.654,0,0,0,.057-.57.624.624,0,0,1,0-.456,1.207,1.207,0,0,0-.114-1.083.942.942,0,0,1,0-1.083.692.692,0,0,0-.057-.741c-.171-.228-.057-.456,0-.684l.171-.513a.43.43,0,0,0-.057-.456.3.3,0,0,1,0-.456.554.554,0,0,0,.057-.513,1.087,1.087,0,0,1,.114-.741.123.123,0,0,1,.114-.114h.228c-.057-.171-.114-.285-.342-.285v-.171a2.382,2.382,0,0,1-.228-.57.974.974,0,0,1,0-.8c.171-.4-.228-.855,2.223-2.166,1.083.456,2.565-.4,3.648.57l.285.171.342.342a1,1,0,0,1,.342,1.14v.171c-.057.513-.057.513.456.741a14.282,14.282,0,0,1,.741,1.6,7.219,7.219,0,0,0,.342,1.026l.4,1.2c0,.057.057.114.114.171,0,.171.057.342.057.513a1.205,1.205,0,0,0,.342.969,2.025,2.025,0,0,1,.228.513c.114.228.114.4-.171.456-.114,0-.057.114,0,.114.285.057.342.285.4.456a1.372,1.372,0,0,0,.342.456,1.192,1.192,0,0,1,.228.342L92-20.235l.342,1.368v.228c-.057.228-.057.4.171.513.057.057.171.171.171.228,0,.4.285.684.456,1.026.057.285.228.57.114.855,0,.057.057.114.114.171a4.688,4.688,0,0,1,1.083,1.026c.057.171.228.4.171.456-.171.285-.057.342.171.456.057,0,.114.114.114.171C94.791-13.053,95.361-12.141,95.3-11.8Zm-7.695-7.809c.342-1.425-1.14-1.311-.684-.855l.57.855c0,.057.057.057.114.057a.2.2,0,0,0,.057-.114Zm1.254,2.394c0-.171-.342-.456-.57-.456-.114.114-.342.228-.4.342-.057.171.228,0,.285.114l.171.171a.218.218,0,0,0,.285-.171ZM81.681-3.021c-.285.114-.741,0-.8.456.057,0,.114-.057.171-.057.4.057.627-.228.969-.342v-.057a.2.2,0,0,0-.114-.057C81.852-3.078,81.738-3.021,81.681-3.021Zm15.96-27.873a.762.762,0,0,0-.4-.456c0,.057-.057.114-.057.171a1.111,1.111,0,0,0,.057.456l.171.285.228-.285ZM82.878-13.908l-.57-.114c-.228-.057-.4.057-.627.228-.057.057-.114.114-.114.171s.057.057.171.114l.57-.342Zm.513-2.223c.57-.171.57-.285.57-.342-.057,0-.114-.057-.171-.057a1.185,1.185,0,0,1-.627.057c-.057,0-.114.057-.228.114l.228.171h.228Zm.456-8.436c-.114.342,0,.456.342.456.057,0,.171-.057.228-.057v-.114c-.228-.114-.342-.228-.342-.456h-.114a.209.209,0,0,0-.057.171Zm-.741,9.177c.114-.057.171,0,.228.114a.81.81,0,0,0,.114.342v-.684c-.057-.114,0-.4-.228-.342-.114.057-.114.342-.171.513,0,.057.057.114.057.171Zm-.228-4.731h-.57l-.057.057.684.342a.281.281,0,0,0,.171-.057Zm14.079,6.954a.209.209,0,0,0,.228.228c.114,0,.342,0,.342-.171,0-.057-.171-.114-.228-.171v-.114c-.171-.057-.228.057-.228.171ZM95.19-4.788c.114-.114.228-.285.513-.171L95.475-5.3c-.228.057-.342.285-.456.456,0,.057.057.114.057.171h.114ZM84.93-7.011a2.137,2.137,0,0,0,.057-.627c-.342.114-.171.456-.4.57l.171.171S84.93-6.954,84.93-7.011ZM99.237-23.94v-.114c0-.057-.057-.114-.057-.171h-.114l-.4.342v.057l.114.057.513-.171ZM82.308-18.069a3.336,3.336,0,0,0,.741.114c.057,0,.114-.057.171-.057l-.171-.171a4.334,4.334,0,0,1-.8.057Zm3.99-11,.171.171c.057.057.114.114.171.114a.25.25,0,0,1,.171-.057v-.171c-.114-.114-.171-.171-.342-.057ZM98.325-15.276c-.057,0-.114.114-.171.171l.171.228a1.192,1.192,0,0,1,.342-.228C98.553-15.162,98.439-15.276,98.325-15.276ZM84.246-4.047a.3.3,0,0,0,.228-.114h-.4l-.342.171c.171.171.285,0,.4,0h.228Zm12.825-20.8-.171-.171-.228.342c.057,0,.114.057.228.057.057,0,.114-.057.171-.114Zm-5.586,6.27c.057-.057.228-.057.114-.171-.057-.057-.228,0-.285.057l-.228.171.171.114.171-.171Zm7.923,5.529c-.171-.114-.228,0-.285.114v.171a.209.209,0,0,0,.171-.057c.114,0,.171-.057.228-.057v-.057ZM83.619.456a1.511,1.511,0,0,1-.342-.285c.114,0,.171.057.228.057h.4A.2.2,0,0,1,83.619.4ZM98.04-12.654a.661.661,0,0,0,.57-.228v-.057l-.57.171ZM81.909-.57l.171-.342a.177.177,0,0,1-.057-.114h-.057L81.738-.8v.114h.171Zm.969-4.047s-.57,0-.57-.057V-4.5h.57ZM97.926-31.749l-.171.171a.2.2,0,0,1,.057.114l.4-.171-.171-.114Zm-7.068,9.861c-.057,0-.114.114-.171.171l.171.171c.057-.057.114-.114.114-.171a.209.209,0,0,0-.228-.228ZM94.848-7.7a.2.2,0,0,1,.057.114l.342-.228a.2.2,0,0,1-.057-.114,1.429,1.429,0,0,0-.4.228ZM84.189-31.749a.209.209,0,0,0-.057.171.3.3,0,0,0,.228.114l.114-.114-.228-.171Zm13.965,5.3H98.04c-.057.057-.114.114-.114.171a.2.2,0,0,0,.114.057h.114c.057-.057.114-.114.114-.171a.177.177,0,0,1-.057-.114ZM97.812-2l.114-.114c-.057-.057-.114-.114-.171-.114s-.114.114-.171.171l.171.171ZM84.36-27.018h-.114c-.057,0-.114.057-.171.114v.057h.171c.114,0,.171-.057.228-.057v-.057Zm12.54,5.3.114-.114L96.786-22a.209.209,0,0,1-.171.057ZM98.667-1.6a.3.3,0,0,0,.228-.114.3.3,0,0,0-.228-.114c-.057,0-.114.057-.171.057.057,0,.114.057.171.057ZM84.36-17.613h.171a1.057,1.057,0,0,0-.4-.114.2.2,0,0,1-.114.057c.057.057.114.114.171.114ZM99.009-4.332,99.18-4.5c-.057,0-.114-.057-.171-.057l-.228.171a.209.209,0,0,1,.171.057Zm-2.736-9.519c.057-.057.114-.114.114-.171l-.057-.057c-.057,0-.171.057-.228.057a.209.209,0,0,0,.057.171ZM84.7-.057a.2.2,0,0,1,.114-.057l-.171-.228-.114.114c0,.057.057.114.114.171ZM88.35-22.629c-.057,0-.114.057-.171.057.057.057.057.114.114.114h.228Q88.435-22.629,88.35-22.629ZM84.075-3.021c.057,0,.114-.057.171-.114-.057-.057-.114-.114-.171-.114s-.114.057-.171.114c.057,0,.114.057.171.057Zm1.083-8.037a.705.705,0,0,1,.171-.114c-.057-.057-.114-.114-.171-.114s-.114.057-.171.057ZM86.469-23.2H86.3l-.228.171a.25.25,0,0,1,.171.057Zm2.964-2.793-.228.171a.432.432,0,0,0,.228.114l.057-.057c0-.057-.057-.057-.114-.114Zm-1.2-2.109a.123.123,0,0,0-.114.114c0,.057.057.114.057.171l.171-.171Zm8.322,2.337c-.057.114-.057.228.057.285l.114-.114ZM97.7-5.244a.2.2,0,0,1-.057-.114l-.228.171.114.114Zm-.057-27.132-.228.171.114.057c.057,0,.114-.057.171-.114l-.057-.057Zm.57,1.71v-.171l-.228-.171-.057.057.228.171ZM85.158-9.747h-.171l.171.171h.114v-.057Zm7.923,3.534a.209.209,0,0,0,.171.057c0-.057.057-.114.057-.171l-.057-.057Zm1.6-1.14v.342c.057-.057.114-.114.114-.171s-.057-.114-.057-.171ZM87.552-29.982V-30.1h-.228v.114Zm-5.586,3.249a.431.431,0,0,0-.228.057v.057h.228Zm15.618-.684c-.057.057-.057.114-.171.114.114.057.114.114.114.114h.114C97.641-27.246,97.584-27.3,97.584-27.417ZM96.558-30.1l-.057.057.171.171.057-.057ZM81.4-15.276c-.057,0-.114.057-.171.114H81.4c.057,0,.057-.057.114-.114ZM96.045-4.845l-.171-.171v.171ZM90.8-18.7l.114.057.114-.114h-.171Zm-7.41,10.83c.057,0,.114-.057.171-.057h-.285c.057.057.114.114.171.114ZM87.21-19.38h-.057v-.114a.056.056,0,0,0,.057.057Zm4.5,11.742h-.057v.057h.057ZM119.244-4.1a12.426,12.426,0,0,0-2.907-.114.259.259,0,0,1-.285,0,.879.879,0,0,0-.912.057.343.343,0,0,1,.228.057c.057,0,.057.057.114.114a.432.432,0,0,1-.228.114l-.171-.228a1.207,1.207,0,0,0-.4-.171,3.919,3.919,0,0,0-1.824.114H112.8a2.424,2.424,0,0,0-1.425-.171.2.2,0,0,0-.114-.057l-1.026-.741c-.228-.057-.285-.171-.285-.456a.485.485,0,0,0-.171-.285c-.228-.4-.4-.285-.342-.8.057-.627-.285-1.254-.285-1.881a12.4,12.4,0,0,0-.057-2.907,12,12,0,0,1,.114-1.425c1.824-1.311,2.565-.627,3.42-.456a3.735,3.735,0,0,0,.8,0,2.469,2.469,0,0,1,.285-.057c.285.171.513,0,.8-.057a2.138,2.138,0,0,0,.57-.057.406.406,0,0,0,.342-.171c.285-.285.8-.57.684-.969-.057-.57-.114-1.14-.114-1.71,0-.513-.57-.855-1.026-1.083-.4-.171-.513-.171-.855.114l-.342.342a1.341,1.341,0,0,1-.912.285l.285-.171.171-.342-.4-.114A1.738,1.738,0,0,0,112-17.5c-.114,0-.456.114-.513.114a4.87,4.87,0,0,1-1.368-.513,1.826,1.826,0,0,1-.969-1.6c0-.456.228-3.021.342-3.477,0-.114-.057-.228-.057-.342,0-.228-.228-.456-.228-.684,0-.912.4-1.824.4-2.736a8.647,8.647,0,0,1,.171-1.2.857.857,0,0,1,.228-.627,2.316,2.316,0,0,1,1.425-.969c.285-.057.627-.228.969,0,.114.057.228,0,.342,0h4.674c.57,0,1.026-.228,1.083-.855v-.057c.228-.057.627-.171.627-.456v-1.368a2.775,2.775,0,0,0-.057-.684,1.293,1.293,0,0,0-.912-.627c-.342,0-.627-.114-.969-.114a8.628,8.628,0,0,1-1.71-.114c-.057,0-.228.057-.228.114,0,.228-.057.114-.171,0a.611.611,0,0,0-.342-.114,8.028,8.028,0,0,0-1.14.057,1.272,1.272,0,0,1-.627-.057.974.974,0,0,0-.684.057,2.531,2.531,0,0,1-1.14.057,10.943,10.943,0,0,1-1.368,0h-.57a7.268,7.268,0,0,0-2.223,0c-.228.057-.4.114-.57,0a.629.629,0,0,0-.456,0c-.513.114-1.083.114-1.2.741a1.641,1.641,0,0,0-.057.741c0,.057.057.171,0,.228a.816.816,0,0,1-.513.57,1.684,1.684,0,0,0,.114.741c.171.4.4.8.171,1.254a.487.487,0,0,0,0,.4.473.473,0,0,1-.114.456c-.171.171-.228.342,0,.513.114.114,0,.285-.057.456l.057.513c-.057.228-.171.456.057.684a.727.727,0,0,1,0,.684c-.114.171-.114.285.114.171h.114v.114c-.285.057-.285.285-.285.513,0,.057.057.114.114.171v.057l.342-.513h.057v.057l.114.057-.4.513h-.057a1.241,1.241,0,0,1-.114,1.083c-.057.114.057.285.114.4.057.171-.171.285-.342.456-.171.342-.171.342.171.627.057.057.114.057.057.171-.57.8-.114,1.2-.342,1.938a1.331,1.331,0,0,0,0,1.14c.228.4.4.8.114,1.2a.624.624,0,0,0,0,.456.366.366,0,0,1-.057.513c-.114.171-.171.342,0,.513a.3.3,0,0,1,.057.456l-.114.342c-.228.57.228.969,0,1.425a1.276,1.276,0,0,0,.057,1.2.949.949,0,0,1-.057,1.083.624.624,0,0,0,0,.456c.057.228.285.4.114.57a.336.336,0,0,0,.114.513.338.338,0,0,1,.057.4l-.171.513c-.114.228.114.456.228.741a1.171,1.171,0,0,1,0,.627c-.627,1.254.4,1.824.228,2.166a1.118,1.118,0,0,0-.057.855.432.432,0,0,1-.114.228c-.171.228-.285.456,0,.684a.343.343,0,0,1,.057.228l.114.513a.727.727,0,0,0,0,.684.727.727,0,0,1,0,.684.5.5,0,0,0-.057.4c.513,1.368,2.109,1.2,3.192,1.026a2.469,2.469,0,0,0,.285.057h2.964c.228,0,.4-.057.57-.057h2.451c.4,0,.741.057,1.14.057a6.69,6.69,0,0,1,1.482-.057A6.527,6.527,0,0,0,118.5-.342a.65.65,0,0,0,.342-.171c.228-.228.627-.513.627-.855,0-.456-.171-.912-.171-1.368ZM110.01-15.561l.342-.684a.485.485,0,0,1,.285-.171,1.241,1.241,0,0,1,.456.285.812.812,0,0,1-.114.228,1.173,1.173,0,0,1-.855.456c0-.057-.057-.114-.057-.171ZM107.673-28.1h.228c.228,0,.285.114.228.4l-.171.57c0,.057-.057.114-.057.171-.057-.057-.114-.114-.114-.171,0-.171-.228-.171-.456-.228C107.217-27.417,107.559-27.987,107.673-28.1Zm-1.026,2.508s.057-.171.114-.171l.57-.228a1.207,1.207,0,0,1,.4.171l-.684.342a.963.963,0,0,1-.285-.114Zm-.171-.57h-.057c-.057-.057-.114-.114-.114-.171v-.228c.4-.114.228-.513.342-.741,0-.057.057-.114.057-.171h.171a3.481,3.481,0,0,1-.171.741,2.677,2.677,0,0,1-.342.513Zm2.109-.684-.684.57v-.342l.57-.342c.057-.057.114,0,.228,0,0,.057-.114.114-.114.171Zm8.265-4.674v-.171l.171-.342.114.228v.228l-.171.513c-.228-.114-.057-.285-.057-.456ZM110.922-2.052l-.4.342h-.114v-.057a.907.907,0,0,1,.513-.513h.114v.057Zm-2.394-30.21h.057s0,.057.114.114l-.4.513h-.057v-.057l.171-.513Zm-3.477,5.985v-.057a.569.569,0,0,1,.228-.285c.057-.057.285-.057.285,0,.057.114-.114.171-.228.228l-.342.171Zm1.6-5.472h.4l-.171.171-.456-.171h-.171a.81.81,0,0,1,.342-.114c.114,0,.285.057.4.057Zm5.016,30.381v-.114l-.342-.171c-.057,0-.057-.057-.057-.114h.171l.342.228h.114v.171c-.114,0-.171,0-.171-.057Zm-5.7-8.949.513-.171.114.114-.342.171a2.469,2.469,0,0,0-.285-.057Zm6.555-20.235c0,.057,0,.114-.114.114a.692.692,0,0,1-.741.057.888.888,0,0,0,.684-.171Zm1.653,28.9v-.114a1.45,1.45,0,0,1,.4-.114l.057.057v.057l-.285.114ZM105.45-15.447a.824.824,0,0,1,.4.114,1.113,1.113,0,0,0-.4.057l-.171-.171c.057-.057.114-.114.171-.114Zm1.482-17.727L107.1-33c0,.057-.057.114-.114.228-.057-.114-.114-.171-.114-.228v-.171Zm5.643,16.3c0,.057.057.114.057.171s-.057.114-.057.171l-.228-.171Zm2.736,2.964a.209.209,0,0,0,.057.171.209.209,0,0,1-.171.057c0-.057-.057-.114-.057-.171s.057-.114.114-.171Zm-.057-1.938.114.171-.513-.171V-15.9ZM108.3-1.254l-.171-.171L108.3-1.6c0,.057.057.114.057.171S108.3-1.311,108.3-1.254ZM106.875-18.3h.342l-.171.171a.209.209,0,0,0-.171-.057ZM105.108-22c.057,0,.114.057.171.114l-.114.114-.171-.171.057-.057Zm.456-9.69h.057v.171h-.228v-.057Zm-.456,11.8.171.171c-.057,0-.114.057-.171.057l-.057-.057A.209.209,0,0,1,105.108-19.893Zm4.446,18.3-.171-.171.057-.057h.171l-.057.057Zm-5.13-17.1v-.342c.057.057.114.114.114.171S104.481-18.753,104.424-18.7Zm14.022-12.882.057.057c-.057.057-.114.114-.171.114l-.057-.057.171-.171Zm-6.156-.855.228.171-.114.057c-.057-.057-.114-.114-.114-.171Zm-7.125.855h-.171a.177.177,0,0,0,.057-.114h.171ZM108.7-4.845a.3.3,0,0,1-.228-.114h.285a.209.209,0,0,1-.171.057Zm2.85-25.593h-.171v-.114h.057Zm2.28,14.478v.171h-.057v-.057Zm-1.254-16.131v.057h-.057v-.057Zm14.706,4.617a.375.375,0,0,1,.171-.513l.057-.171a.209.209,0,0,0,.057-.171c.057,0,.114-.057.171-.114l.171-.285.8-.684c.114-.114.057-.228-.057-.285.171,0,.285-.057.456-.057a9.383,9.383,0,0,1,1.2-.114,1.425,1.425,0,0,1,1.083.456,2.742,2.742,0,0,0,.627.513.705.705,0,0,0,.513.627v.057l.342.855v-.057c0,.057.057.114.057.171l.114.114a1.165,1.165,0,0,1,.285.513,1.046,1.046,0,0,0,1.2.741,1.417,1.417,0,0,1,.456.057,2.562,2.562,0,0,0,1.14,0,1.392,1.392,0,0,0,.4-.057,2.143,2.143,0,0,0,1.824-.912h-.057c.171-.285.285-.456-.057-.684-.057-.057,0-.171,0-.285A1.79,1.79,0,0,0,138-28.9c-.228-.171-.171-.228-.171-.4a1.843,1.843,0,0,0-.171-.912l-.171-.4a1.972,1.972,0,0,0-.57-.627c-.285-.114-.456-.228-.4-.456a.824.824,0,0,0-.114-.4,8.959,8.959,0,0,0-1.482-1.083.444.444,0,0,1-.4-.171,1.013,1.013,0,0,0-.57-.228l-.228-.228c0-.057-.171-.114-.228-.114s-.057-.057-.114-.057a1.947,1.947,0,0,0-.969-.171.76.76,0,0,0-.513-.171,2.049,2.049,0,0,1-.627-.114c-.285-.114-.4-.057-.684.114-.114.057-.285.114-.342.057a1.384,1.384,0,0,0-1.254.057h-.228a1.759,1.759,0,0,0-.627.114.2.2,0,0,0-.114.057,1.932,1.932,0,0,0-1.14.342,1.432,1.432,0,0,1-.8.342,1.5,1.5,0,0,0-.912.4l-.285.228-.114.114c0,.285,0,.4.171.456-.171,0-.228,0-.285-.057a.882.882,0,0,0-.627.171,8.9,8.9,0,0,0-.741.741h.057l-.171.285a2.2,2.2,0,0,0-.627,1.254,2.354,2.354,0,0,1-.4.627,5.544,5.544,0,0,0-.285,1.14c.114.171.114.228.114.285v.114c-.285.228-.285.285-.171.342.114.171.114.342,0,.4-.285.228-.228.285-.171.456v-.057c0,.057.057.114.057.171a.759.759,0,0,0,.171.285v.057c-.456.171-.4.456-.285.684,0,.171.114.171.114.171-.114.228-.114.342.114.513a.614.614,0,0,1,.114.456,2.888,2.888,0,0,0,.114.741.305.305,0,0,0,.285.285c.171.057.285.285.342.456.057.285.114.513.228.57-.114.171-.171.285-.057.456a.427.427,0,0,1,.057.285c.114.285.114.456.456.627l.342.57c.057.114.171.114.285.057a1,1,0,0,0-.057.285l.57.912a.655.655,0,0,0,.513.342.177.177,0,0,0-.057.114L125-18.3l.4.342a4.962,4.962,0,0,0,.627.513c.057.057.171,0,.228-.057s.114,0,.171.057a.178.178,0,0,0,0,.342,1.671,1.671,0,0,1,.57.513.54.54,0,0,0,.456.513c.114.057.171.057.228.171a.857.857,0,0,0,.513.4l.171.171c0,.228-.228.4.171.513l-.057-.057.4.285.114.228a.629.629,0,0,0,.171.4.737.737,0,0,1,.513.342l.513.57a.3.3,0,0,0,.456-.171h.057c-.285.342-.285.57.057,1.026l.513.513a3.172,3.172,0,0,1,.513.741c0,.171.228.228.342.228a.694.694,0,0,0,.285.684l.057.114a.487.487,0,0,0,.171.342l.057.114.114.4.228.342a2.88,2.88,0,0,1,0,2.28l-.228.513a.431.431,0,0,0-.057.228c0,.057-.057.114-.057.171s0,0-.057.057-.171.171-.171.228a1.193,1.193,0,0,0-.228.342l-.057.114a.2.2,0,0,0-.114.057c-.057-.057-.171-.171-.456.057l-.342.171a.869.869,0,0,0-.57.342.177.177,0,0,1-.114.057c-.171,0-.342.057-.456.057a.715.715,0,0,1-.513-.057.614.614,0,0,0-.456-.114.963.963,0,0,1-.342.171.963.963,0,0,1-.285-.114l-.171-.171-.285-.228-.228-.171-.741-1.026.057.057c-.114-.171-.228-.342-.513-.171,0-.057-.057,0-.057-.057,0-.171-.114-.228-.171-.342-.114-.057-.171-.228-.228-.4v.057a3.228,3.228,0,0,1-.171-1.026,1.072,1.072,0,0,0-.456-.969,2.826,2.826,0,0,0-1.14-.456c-.114,0-.171-.057-.342-.057a.65.65,0,0,0-.342.171.366.366,0,0,1-.513.057l.057.057c-.285-.171-.456-.228-.684-.114a.514.514,0,0,1-.285.057c-.114,0-.285.057-.342.057-.4.057-.57.114-.684.456,0,.114-.057.114-.057.114-.57.4-.57.456-.4.912a.431.431,0,0,1,.057.228c.114.4.285.684.114,1.026a.561.561,0,0,0,.171.456,12.88,12.88,0,0,0,.855,2.337c0,.114.057.171.171.228l-.057-.114.114.171c0,.114.057.171.228.171,0,.342,0,.513.171.57a1.626,1.626,0,0,1,.456.4,4.606,4.606,0,0,0,.912.912.925.925,0,0,0,.513.285l-.171.228a.16.16,0,0,0,.285.114l.228-.171a.2.2,0,0,0,.057-.114,1.076,1.076,0,0,0,.741.57l.8.285V.4l.057-.057A.056.056,0,0,0,126.6.4l.057-.171a9.666,9.666,0,0,0,1.254.228c.513.057,1.2.057,1.71.057a2.849,2.849,0,0,0,.627-.057l-.057.057c.171-.057.228-.114.228-.171.057.057.228.057.456.057a7.108,7.108,0,0,0,1.881-.285.638.638,0,0,0,.456-.4c.057.228.228.228.513.114a1.022,1.022,0,0,1,.4-.285l.4-.228a1.59,1.59,0,0,0,.513-.285l.8-.684.855-.741c.057-.057.228-.171.228-.285,0-.057,0-.057.057-.114l.627-.8c0-.114.114-.285.114-.4a.954.954,0,0,1,.456-.627l.171-.912.228-.855a3.011,3.011,0,0,0,.057-.741v-.228c0-.171.114-.342.114-.57v-.228l.057-.228c0-.057-.057-.057-.057-.114s-.114-.171-.114-.285l.114-.057h-.114a8.719,8.719,0,0,0-.4-1.653c0-.057-.057-.114-.057-.171-.171-.342-.228-.741-.57-.969a1.138,1.138,0,0,0-.114-.513l-.285-.4-.684-.969c-.4-.513-.8-1.026-1.254-1.539l-1.14-1.083c-.114-.114-.171.057-.4-.171l-.228-.171a.706.706,0,0,1-.171-.114c0-.171-.171-.342-.342-.456a5.681,5.681,0,0,1-1.14-1.2l-.285-.228-.171-.228a.2.2,0,0,0-.114-.057c-.171,0-.171,0-.171-.057a1.074,1.074,0,0,0-.114-.456,1.617,1.617,0,0,0-.57-.513l-.228-.228-.228-.285v.057a3.46,3.46,0,0,0-.4-.57l-.057-.057c0-.171-.114-.228-.171-.342l-.4-.171c-.057,0-.114,0-.114-.057l-.171-.228-.4-.456a.441.441,0,0,1,.057-.171c.114-.228,0-.4-.171-.57a.687.687,0,0,1-.285-.285c-.057-.228-.228-.4-.627-.4-.057,0-.057-.057,0-.114,0-.342.171-.342.285-.456.228-.228.342-.456.171-.741-.114-.057-.171-.171-.4-.171l-.057.057a1.762,1.762,0,0,1-.114-.456v-.456C127.566-26.391,127.281-26.79,127.281-27.474ZM125.4-26.391c0-.057.171-.057.228-.057a.209.209,0,0,1-.057.171c-.171.228,0,.342.171.4.057,0,.114.057.171.057-.057,0-.114.057-.171.057h-.171c-.228-.057-.228.057-.228.228v.969c0,.057-.057.114-.114.171v-.114c-2.337-1.938-.342-.855.114-1.767ZM135.831-8.778c.8,0,0,.627,0,.741v.969c0,.057-.057.114-.114.171l-.912.342Zm-.912-1.824a2.861,2.861,0,0,1,.684.114l-.8.171-.171-.171c.057,0,.114-.057.171-.057ZM124.431-28.1a2.861,2.861,0,0,1,.684.114l-.741.171-.228-.171c.114,0,.171-.057.228-.057ZM135.717-3.42c-.057,0-.057-.057-.057-.114l.456.228c.114.057.114,0,.114.057-.114.057-.114.057-.171.057a2.469,2.469,0,0,1-.285-.057C135.774-3.306,135.717-3.363,135.717-3.42Zm-13.053-.057.342.285-.228.171h-.114l.114-.228C122.778-3.306,122.721-3.363,122.664-3.477Zm.114.228c.057,0,.057,0,.057-.057ZM156.636-4.1a12.426,12.426,0,0,0-2.907-.114.259.259,0,0,1-.285,0,.879.879,0,0,0-.912.057.343.343,0,0,1,.228.057c.057,0,.057.057.114.114a.432.432,0,0,1-.228.114l-.171-.228a1.207,1.207,0,0,0-.4-.171,3.919,3.919,0,0,0-1.824.114H150.2a2.424,2.424,0,0,0-1.425-.171.2.2,0,0,0-.114-.057L147.63-5.13c-.228-.057-.285-.171-.285-.456a.485.485,0,0,0-.171-.285c-.228-.4-.4-.285-.342-.8.057-.627-.285-1.254-.285-1.881a12.4,12.4,0,0,0-.057-2.907,12,12,0,0,1,.114-1.425c1.824-1.311,2.565-.627,3.42-.456a3.735,3.735,0,0,0,.8,0,2.468,2.468,0,0,1,.285-.057c.285.171.513,0,.8-.057a2.138,2.138,0,0,0,.57-.057.406.406,0,0,0,.342-.171c.285-.285.8-.57.684-.969-.057-.57-.114-1.14-.114-1.71,0-.513-.57-.855-1.026-1.083-.4-.171-.513-.171-.855.114l-.342.342a1.341,1.341,0,0,1-.912.285l.285-.171.171-.342-.4-.114a1.738,1.738,0,0,0-.912-.171c-.114,0-.456.114-.513.114a4.87,4.87,0,0,1-1.368-.513,1.826,1.826,0,0,1-.969-1.6c0-.456.228-3.021.342-3.477,0-.114-.057-.228-.057-.342,0-.228-.228-.456-.228-.684,0-.912.4-1.824.4-2.736a8.648,8.648,0,0,1,.171-1.2.857.857,0,0,1,.228-.627,2.316,2.316,0,0,1,1.425-.969c.285-.057.627-.228.969,0,.114.057.228,0,.342,0h4.674c.57,0,1.026-.228,1.083-.855v-.057c.228-.057.627-.171.627-.456v-1.368a2.775,2.775,0,0,0-.057-.684,1.293,1.293,0,0,0-.912-.627c-.342,0-.627-.114-.969-.114a8.628,8.628,0,0,1-1.71-.114c-.057,0-.228.057-.228.114,0,.228-.057.114-.171,0a.611.611,0,0,0-.342-.114,8.028,8.028,0,0,0-1.14.057,1.273,1.273,0,0,1-.627-.057.974.974,0,0,0-.684.057,2.531,2.531,0,0,1-1.14.057,10.944,10.944,0,0,1-1.368,0h-.57a7.268,7.268,0,0,0-2.223,0c-.228.057-.4.114-.57,0a.629.629,0,0,0-.456,0c-.513.114-1.083.114-1.2.741a1.641,1.641,0,0,0-.057.741c0,.057.057.171,0,.228a.816.816,0,0,1-.513.57,1.684,1.684,0,0,0,.114.741c.171.4.4.8.171,1.254a.487.487,0,0,0,0,.4.473.473,0,0,1-.114.456c-.171.171-.228.342,0,.513.114.114,0,.285-.057.456l.057.513c-.057.228-.171.456.057.684a.727.727,0,0,1,0,.684c-.114.171-.114.285.114.171h.114v.114c-.285.057-.285.285-.285.513,0,.057.057.114.114.171v.057l.342-.513h.057v.057l.114.057-.4.513h-.057a1.241,1.241,0,0,1-.114,1.083c-.057.114.057.285.114.4.057.171-.171.285-.342.456-.171.342-.171.342.171.627.057.057.114.057.057.171-.57.8-.114,1.2-.342,1.938a1.331,1.331,0,0,0,0,1.14c.228.4.4.8.114,1.2a.624.624,0,0,0,0,.456.366.366,0,0,1-.057.513c-.114.171-.171.342,0,.513a.3.3,0,0,1,.057.456l-.114.342c-.228.57.228.969,0,1.425a1.276,1.276,0,0,0,.057,1.2.949.949,0,0,1-.057,1.083.624.624,0,0,0,0,.456c.057.228.285.4.114.57a.336.336,0,0,0,.114.513.338.338,0,0,1,.057.4l-.171.513c-.114.228.114.456.228.741a1.171,1.171,0,0,1,0,.627c-.627,1.254.4,1.824.228,2.166a1.118,1.118,0,0,0-.057.855.432.432,0,0,1-.114.228c-.171.228-.285.456,0,.684a.343.343,0,0,1,.057.228l.114.513a.727.727,0,0,0,0,.684.727.727,0,0,1,0,.684.5.5,0,0,0-.057.4c.513,1.368,2.109,1.2,3.192,1.026a2.469,2.469,0,0,0,.285.057h2.964c.228,0,.4-.057.57-.057h2.451c.4,0,.741.057,1.14.057a6.69,6.69,0,0,1,1.482-.057A6.527,6.527,0,0,0,155.9-.342a.65.65,0,0,0,.342-.171c.228-.228.627-.513.627-.855,0-.456-.171-.912-.171-1.368ZM147.4-15.561l.342-.684a.485.485,0,0,1,.285-.171,1.241,1.241,0,0,1,.456.285.812.812,0,0,1-.114.228,1.173,1.173,0,0,1-.855.456c0-.057-.057-.114-.057-.171ZM145.065-28.1h.228c.228,0,.285.114.228.4l-.171.57c0,.057-.057.114-.057.171-.057-.057-.114-.114-.114-.171,0-.171-.228-.171-.456-.228C144.609-27.417,144.951-27.987,145.065-28.1Zm-1.026,2.508s.057-.171.114-.171l.57-.228a1.207,1.207,0,0,1,.4.171l-.684.342a.963.963,0,0,1-.285-.114Zm-.171-.57h-.057c-.057-.057-.114-.114-.114-.171v-.228c.4-.114.228-.513.342-.741,0-.057.057-.114.057-.171h.171a3.481,3.481,0,0,1-.171.741,2.677,2.677,0,0,1-.342.513Zm2.109-.684-.684.57v-.342l.57-.342c.057-.057.114,0,.228,0,0,.057-.114.114-.114.171Zm8.265-4.674v-.171l.171-.342.114.228v.228l-.171.513c-.228-.114-.057-.285-.057-.456ZM148.314-2.052l-.4.342H147.8v-.057a.907.907,0,0,1,.513-.513h.114v.057Zm-2.394-30.21h.057s0,.057.114.114l-.4.513h-.057v-.057l.171-.513Zm-3.477,5.985v-.057a.569.569,0,0,1,.228-.285c.057-.057.285-.057.285,0,.057.114-.114.171-.228.228l-.342.171Zm1.6-5.472h.4l-.171.171-.456-.171h-.171a.81.81,0,0,1,.342-.114c.114,0,.285.057.4.057Zm5.016,30.381v-.114l-.342-.171c-.057,0-.057-.057-.057-.114h.171l.342.228h.114v.171c-.114,0-.171,0-.171-.057Zm-5.7-8.949.513-.171.114.114-.342.171a2.468,2.468,0,0,0-.285-.057Zm6.555-20.235c0,.057,0,.114-.114.114a.692.692,0,0,1-.741.057.888.888,0,0,0,.684-.171Zm1.653,28.9v-.114a1.45,1.45,0,0,1,.4-.114l.057.057v.057l-.285.114Zm-8.721-13.794a.824.824,0,0,1,.4.114,1.113,1.113,0,0,0-.4.057l-.171-.171c.057-.057.114-.114.171-.114Zm1.482-17.727.171.171c0,.057-.057.114-.114.228-.057-.114-.114-.171-.114-.228v-.171Zm5.643,16.3c0,.057.057.114.057.171s-.057.114-.057.171l-.228-.171Zm2.736,2.964a.209.209,0,0,0,.057.171.209.209,0,0,1-.171.057c0-.057-.057-.114-.057-.171s.057-.114.114-.171Zm-.057-1.938.114.171-.513-.171V-15.9ZM145.692-1.254l-.171-.171.171-.171c0,.057.057.114.057.171S145.692-1.311,145.692-1.254ZM144.267-18.3h.342l-.171.171a.209.209,0,0,0-.171-.057ZM142.5-22c.057,0,.114.057.171.114l-.114.114-.171-.171.057-.057Zm.456-9.69h.057v.171h-.228v-.057Zm-.456,11.8.171.171c-.057,0-.114.057-.171.057l-.057-.057A.209.209,0,0,1,142.5-19.893Zm4.446,18.3-.171-.171.057-.057H147l-.057.057Zm-5.13-17.1v-.342c.057.057.114.114.114.171S141.873-18.753,141.816-18.7Zm14.022-12.882.057.057c-.057.057-.114.114-.171.114l-.057-.057.171-.171Zm-6.156-.855.228.171-.114.057c-.057-.057-.114-.114-.114-.171Zm-7.125.855h-.171a.177.177,0,0,0,.057-.114h.171Zm3.534,26.733a.3.3,0,0,1-.228-.114h.285a.209.209,0,0,1-.171.057Zm2.85-25.593h-.171v-.114h.057Zm2.28,14.478v.171h-.057v-.057Zm-1.254-16.131v.057h-.057v-.057Zm33.231-.855-.057-.114c-.285-.057-.4-.456-.8-.4-.057,0-.114-.114-.171-.171l.171-.171a.209.209,0,0,1,.171-.057c-.057-.057-.114-.114-.171-.114-.171,0-.4-.057-.513,0a.724.724,0,0,1-.684,0,1.259,1.259,0,0,0-.912,0,.74.74,0,0,1-.57.114c-.057,0-.171,0-.114.114,0,.057.171.114,0,.171s-.342.171-.4,0c-.057-.285-.285-.228-.513-.228a4.9,4.9,0,0,0-.912-.057,1.757,1.757,0,0,1-.57-.057,7.643,7.643,0,0,0-2.28,0,.785.785,0,0,1-.627,0,.953.953,0,0,0-.684.057,2.531,2.531,0,0,1-1.14.057c-.4,0-.855-.057-1.311-.057a2.138,2.138,0,0,1-.57-.057,7.115,7.115,0,0,0-2.451.057c-.057,0-.171.057-.228,0-.456-.228-.8-.057-1.254.057a.83.83,0,0,0-.513.342l-.285.684a.855.855,0,0,1,0,1.026v.171a1.5,1.5,0,0,0,.855,1.482,1.68,1.68,0,0,0,.741.285h2.109c.171,0,.285,0,.285-.228,0-.057.057-.114.114-.171,0,.057.057.114.057.171-.114.228.057.285.285.342l.57.228a1.093,1.093,0,0,1,.912,1.083,1.664,1.664,0,0,0,.114.513c0,.057.228.114.228.171a4.4,4.4,0,0,1-.114.855c0,.114-.114.228-.114.342a7,7,0,0,0,.114,1.539,2.159,2.159,0,0,1,0,.855.97.97,0,0,0,.057.4.446.446,0,0,1,.057.456.81.81,0,0,0-.114.342v1.026a.723.723,0,0,0,.057.342.366.366,0,0,1,.057.513c-.228.285-.114.627-.114.969,0,.057.057.114.057.171.057,0,.114-.057.171-.057a.82.82,0,0,1,.171-.114c.057.114.228.228.228.342s-.171.057-.285,0c-.228-.057-.342.057-.342.285s.057.456.057.684-.057.456-.057.684a.427.427,0,0,0,.057.285c.171.171.114.342,0,.513a2.672,2.672,0,0,0,0,1.881.487.487,0,0,1,0,.4,1.694,1.694,0,0,0-.228,1.026,10.381,10.381,0,0,1,.057,1.881.537.537,0,0,0,.228.513.259.259,0,0,1,0,.285.678.678,0,0,0-.228.627c.114.4-.114.855.171,1.254.285.456-.228.8-.057,1.254a9.206,9.206,0,0,1,0,1.254c0,.171.057.342.057.513-.057.342-.228.684.114.969.057.057,0,.171,0,.228l-.171.342a.574.574,0,0,0,.057.171c.171,0,.228.057.114.171-.171.114-.285.228-.285.4.114.342-.057.684.228.969.057.057,0,.228-.057.342a1.893,1.893,0,0,0-.057,1.368,1.4,1.4,0,0,0,1.083,1.254,1.493,1.493,0,0,0,.855-.057,4.038,4.038,0,0,1,.8.057.574.574,0,0,0,.057-.171c0-.057-.057-.114-.057-.171V-.684c.057,0,.114,0,.114.057a.753.753,0,0,0,1.083.285.767.767,0,0,0,.684-.285,1.374,1.374,0,0,0,.4-1.026,2.356,2.356,0,0,0-.114-1.083c-.171-.4.228-.684.114-1.026-.114-.114,0-.228-.114-.342,0-.057-.114-.114-.114-.114-.171.114-.228,0-.285-.114V-4.5h.342c.057-.342.285-.684.057-1.026a.427.427,0,0,1-.057-.285,8.429,8.429,0,0,0,.057-2.394c0-.171-.285-.4-.285-.57s.285-.285.228-.513a4.314,4.314,0,0,1-.057-.855v-.513c0-.171.057-.342.057-.513v-2.907c0-.171.057-.342-.114-.513a.173.173,0,0,1,0-.228,6.713,6.713,0,0,0,.171-2.394V-19.95c0-.228.114-.456-.114-.627a.343.343,0,0,1-.057-.228,1.642,1.642,0,0,0,.057-1.368.97.97,0,0,1-.057-.4c0-.342.057-.684.057-1.026v-2.394c0-.285.114-.57-.114-.8V-26.9a8.851,8.851,0,0,1,.228-1.2c.114-.114.228-.228-.057-.285-.114-.057,0-.342.171-.285.228.114.285-.057.4-.171v-.171h.228l.741-.513c.57.057,1.482.057,1.026-.456.57,0,.4.114,1.311.285.171,0,.285-.057.4-.057h.171a1.276,1.276,0,0,0,1.653-1.2,6.194,6.194,0,0,1,.057-1.026c.057-.342-.171-.684,0-1.026Zm-1.938.4c0,.057-.114.114-.171.114a2.025,2.025,0,0,1-.57-.114c-.057,0-.057-.114-.114-.171.057-.057.114-.114.171-.114h.285c.171.057.4.171.4-.171h.171a.419.419,0,0,1-.114.342Zm-14.193,1.824c-.456-.114-.57-.456-.342-.741a.427.427,0,0,1,.285-.057v.171c-.171.171-.171.285.057.4.057,0,.114.057.171.114C167.181-30.78,167.124-30.723,167.067-30.723Zm7.467,4.446-.342.228c-.057-.114-.114-.171-.114-.228l.171-.285.4-.285c.057,0,0,.342-.228.513Zm-1.254,5.358v.171l-.285.228-.114-.057v-.342h.057l.171-.171.228.171Zm-.285,7.752c-.057,0-.114-.057-.171-.057.057-.057.114-.114.171-.114v.114c0-.057.057-.057.057-.114a.432.432,0,0,0,.228-.114l.228.171c-.114.057-.171.171-.285.171l.057.114C173.109-13,172.995-13,172.995-13.167Zm.8,12.6L173.679-.8l.342-.171c.057,0,.114.114.228.228Zm.285-3.819h-.342v-.057l.228-.171a.343.343,0,0,1,.228-.057.177.177,0,0,0,.057.114Zm.228-26.22.228-.171h.171v.171l-.171.171v-.171Zm-.969,23.427-.228.171v-.171l.228-.171c.057.057.114.114.114.171Zm3.021-25.764c-.114,0-.171-.057-.228-.057l.228-.171c.057.057.114.114.114.171a.2.2,0,0,1-.057.114Zm-2.337,26.5-.228.342h-.114l-.057-.057.342-.285Zm-.912-11.115c.114,0,.171-.057.228-.057s.114.057.171.114c-.057.057-.114.114-.171.114s-.057-.057-.114-.114Zm3.249-3.933c.057-.057.114-.114.171-.114s.114.057.171.057v.171a.209.209,0,0,0-.171-.057Zm-3.762-7.3a.2.2,0,0,0,.114.057.3.3,0,0,1-.228.114.2.2,0,0,0-.114-.057l.114-.171Zm.8,13.68c.057,0,.114.057.171.114l-.171.171a.209.209,0,0,0-.171-.057c.057-.057.114-.114.171-.114Zm.228,12.426c.057,0,.114-.057.171-.057.114,0,.114.057.171.114l-.171.114-.114-.171Zm-.969-4.959h.171c.057.057.114.114.114.171a.056.056,0,0,1-.057.057h-.057Zm2.679-25.137a.209.209,0,0,0,.057.171.209.209,0,0,1-.171.057c0-.057-.057-.114-.057-.171s.057-.057.114-.057Zm-1.2,15.618c0-.057.057-.114.114-.171l.114.114-.171.171-.057-.057Zm2.508-2.28c.057,0,.114.057.171.114a.177.177,0,0,0-.057.114c-.057,0-.114-.057-.171-.114A.2.2,0,0,1,176.643-19.437Zm.171-10.2-.171-.171.057-.057.171.171v.057Zm-4.5-.4H172.2v-.171h.114Zm2,24.4V-5.7h.228c-.114.057-.114.114-.114.114h-.171Zm0,.228v-.057h.057v.057ZM176.7-27.759v-.057h.057Zm13.452-5.814c-.057,0-.114,0-.114.057v-.114a1.255,1.255,0,0,1-.456.057c-.057,0-.114.114-.171.171l-.912,1.026a3.918,3.918,0,0,0-.285,1.368,2.861,2.861,0,0,0-.114.684,1.057,1.057,0,0,0,.114.4c.057.114.114.228,0,.228-.342,0-.285.171-.171.342l.171.342c0,.057-.057.114-.057.171a.2.2,0,0,0-.114-.057h-.228a.2.2,0,0,1-.057.114c.171.171.114.4.057.627v.171c.228.342,0,.57-.171.8a1.057,1.057,0,0,0-.114.4c.057.171.114.342-.057.513a.425.425,0,0,0,0,.456.447.447,0,0,1-.057.627c-.171.114-.171.228-.171.4a1.664,1.664,0,0,1-.114.513,1.821,1.821,0,0,0-.171,1.083,1.856,1.856,0,0,1-.171,1.368c-.057.171-.228.342-.228.513l.057-.057.228.114-.285.228-.057-.057c0,.057.057.114.057.171.057.4-.171.741,0,1.14.057.057-.114.228-.171.342,0,.057-.057.114-.057.171a1.645,1.645,0,0,1-.171,1.026,2.717,2.717,0,0,0-.228,1.14.97.97,0,0,1-.057.4,1.446,1.446,0,0,0-.114.684,4.4,4.4,0,0,1-.114.855l-.171.684a.847.847,0,0,0-.114.513.972.972,0,0,1-.171,1.083.766.766,0,0,0-.114.513,1.746,1.746,0,0,1-.171,1.311,1.456,1.456,0,0,0,.057,1.71v.057a.62.62,0,0,1-.057.285c-.228-.171-.342-.171-.456.057a1.625,1.625,0,0,0-.114.912.971.971,0,0,1,0,.57c-.057.228-.171.285,0,.456.057.114.114.228-.057.171,0,0-.114.057-.114.114a4.99,4.99,0,0,1-.114.912c-.228.456-.114.969-.342,1.425-.057.114-.057.228.114.228.114,0,.171.114.057.114-.228.057-.228.228-.228.4s-.228.4.057.57a.574.574,0,0,0-.057.171c-.114.114-.228.228-.228.285.114.4-.114.4-.228.741-.171.57-.285.57.057,1.083l.114.171V-.741l.057-.057h.057l.057-.057.114.057c.057.057.114.057.114.114a.2.2,0,0,1,.114.057.41.41,0,0,0,.4.228.209.209,0,0,0,.171.057c.114.285.456.285.684.285a3.722,3.722,0,0,0,.627-.114.123.123,0,0,1,.114-.114c.627,0,1.254-.057,1.938-.057s.741-.285,1.083-.8a3.507,3.507,0,0,0,.4-1.311c.057-.456-.057-.57.171-1.026.057-.171-.114-.4-.057-.57.057-.228.285-.4.285-.627a19.777,19.777,0,0,1,.342-2.565l.171-.171a3.823,3.823,0,0,1,2.907-1.14,8.25,8.25,0,0,0,2.052-.057c.171-.057.228.114.342.228h.171l-.171.171-.171.342c.171.057.285.171.342.171.456-.171.513.114.627.342a14.117,14.117,0,0,1,.171,1.539.726.726,0,0,0,.285.627.275.275,0,0,1,.057.4c-.171.171-.171.285,0,.456a.343.343,0,0,1,.057.228,4.4,4.4,0,0,1,.114.855c0,.285-.057.228-.057.513a.209.209,0,0,0,.057.171c.171.342.228.684.4,1.026.114.4,1.14.741,1.482,1.083a1.352,1.352,0,0,0,1.14.4c.114,0,.228-.057.342-.057.513,0,1.026.057,1.539.057a3.923,3.923,0,0,0,.741-.114.377.377,0,0,0,.342-.4,1.542,1.542,0,0,1,.171-.855,1.255,1.255,0,0,0,.057-.456l-.456-.285-.4-2.052a4.544,4.544,0,0,1-.171-.855,8.1,8.1,0,0,0-.456-2.337,3.213,3.213,0,0,1-.228-.684,2.39,2.39,0,0,0-.057-.912,9.277,9.277,0,0,0-.4-1.71.723.723,0,0,1-.057-.342,2.192,2.192,0,0,0-.285-1.2.427.427,0,0,1-.057-.285c.057-.228.228-.513-.057-.741.057-.456-.228-.912-.228-1.368a.767.767,0,0,0-.285-.684c-.114-.057-.228-.171-.057-.285a.754.754,0,0,0,.114-.684l-.513-2.736-.171-1.2c0-.057,0-.228-.057-.228-.285-.057-.228-.171-.171-.285.114-.171-.057-.171-.114-.228-.114-.114-.057-.114.057-.114a.574.574,0,0,0,.057-.171,3.373,3.373,0,0,1-.285-1.083c0-.057-.057-.114-.057-.171a.733.733,0,0,1-.057-.684v-.171a1.165,1.165,0,0,0-.285-.513c-.114-.228.228-.342.171-.513l-.171-.627-.171-1.026c-.171,0-.171-.114-.114-.285a1.918,1.918,0,0,0-.228-1.254q-.171-.086-.171-.171a9.322,9.322,0,0,1-.114-1.254,4.381,4.381,0,0,0-.171-1.71,11.676,11.676,0,0,0-.285-1.368,1.947,1.947,0,0,0-.741-1.368c-.285-.228-.684-.114-.969-.171a6.167,6.167,0,0,0-2.28-.057c-.114,0-.342.057-.456,0a1.589,1.589,0,0,0-1.026-.057v.057l-.228.171-.057.114a.623.623,0,0,0-.57-.114c-.057-.057-.114-.057-.4-.114A3.214,3.214,0,0,0,190.152-33.573ZM195-14.364c-.057.114-.285.114-.456.171-.114.114-.4.114-.285.456,0,.057-.171.171-.228.171-.228-.057-.513.228-.684-.057h-.114a2.353,2.353,0,0,1-1.539-.285h-.171c-.342,0-.4-.057-.57-.342a.177.177,0,0,0-.057-.114c-.513-.57-.285-.114-.228-.684a21.508,21.508,0,0,0,.741-6.042c0-.114,0-.171.057-.228a2.673,2.673,0,0,0,.171-1.482,4.018,4.018,0,0,1,.228-1.767,14.322,14.322,0,0,1,.228-1.539.886.886,0,0,1,.342-.456.611.611,0,0,1,.342-.114l.57.171c.057.057.057.228.114.342,0,.285-.114.513.228.684a.678.678,0,0,0-.228.627c.057.171,0,.456.342.513.057,0,.114.171.057.228a1.83,1.83,0,0,0-.114.969.341.341,0,0,0,.171.342.611.611,0,0,1,.114.342,3.926,3.926,0,0,0,.057,1.14,6.9,6.9,0,0,1,.057,1.083c0,.171,0,.342.228.4.171.057.171.171.171.342l-.171.57v.171a2.619,2.619,0,0,1,.171,1.311v.627a2.056,2.056,0,0,1,.228,1.368,2.139,2.139,0,0,0-.057.57c0,.171.057.114.228.114.057,0,.114-.114.114-.228l.114.228Zm-4.389-9.975c.114.057.228.171.228.228a2.216,2.216,0,0,1-.114.855l-.342.855c-.4-.057-.171-.456-.285-.741,0-.114-.114-.171-.114-.285,0-.171-.057-.4-.057-.57A.891.891,0,0,0,190.608-24.339Zm-.456,13.224a.435.435,0,0,1-.114.285l-.285.114-.171-.171c.057-.114.057-.228.114-.285l.456-.285c.228.171-.057.285-.114.4Zm5.643,1.71c0-.057.057-.114.114-.171h.057v.171c0,.057-.057.114-.057.171l.342.171.171,1.254c-.057.057-.171-.912-.228-.912l-.057-.057a.435.435,0,0,1-.285-.114.339.339,0,0,1,0-.4C195.795-9.291,195.795-9.348,195.795-9.405Zm-.855-15.789-.171.4-.228.171-.171-.171c-.057-.114-.057-.171.114-.171.057,0,.114-.171.171-.285l.228-.171v.171Zm1.995-5.7a1.346,1.346,0,0,1-.342.513c-.228-.171-.057-.342-.057-.513,0-.114.114-.171.228-.228h.057v.057Zm2.451,14.364.171.171-.4.342-.057-.057.114-.456Zm-3.42-8.379.228-.342h.057v.171a.62.62,0,0,1-.057.285c0,.057-.057.057-.171.114,0-.057-.057-.114-.057-.171Zm-1.2-5.244H195c.114,0,.228-.057.342.114H195l-.4-.171c.114-.228.342-.057.513-.057Zm2.793,6.384v.342l-.057.057-.228-.342c0-.057.114-.114.171-.171Zm3.819,19.893c-.057,0-.114-.057-.171-.114.057-.057.114-.114.171-.114a2.564,2.564,0,0,1,.456.114c-.228.057-.285.114-.342.114Zm-9.4-26.676.342-.171h.114v.114l-.4.171c-.057,0-.114-.057-.171-.057C191.919-30.5,191.919-30.552,191.976-30.552Zm.627,19.665c-.057-.057-.171-.114-.171-.171a.3.3,0,0,1,.114-.228c.057.057.114.114.114.171s-.057.114-.057.171Zm-.114-1.083.057-.057a.252.252,0,0,1,.114.4Zm4.9,3.534-.114-.114.228-.171v.342c0,.057-.057.057-.114.057Zm-8.607-21.717c.057.057.114.114.114.171s-.057.114-.114.171c-.057-.057-.114-.114-.114-.171S188.727-30.1,188.784-30.153Zm8.778,27.018c.057,0,.114.057.171.057l-.228.171-.114-.114C197.448-3.078,197.505-3.135,197.562-3.135Zm-3.99-27.645c0,.057-.057.057-.114.057l-.057-.057.171-.171.171.114Zm-1.653-1.995c.057-.057.114-.114.171-.114l.114.114c-.057.057-.114.114-.171.114l-.057-.114Zm4.389,7.011.114.057a.431.431,0,0,1-.057.228c-.057-.057-.114-.114-.114-.171A.177.177,0,0,1,196.308-25.764Zm-2.052-6.84h.114v.171c0,.057-.057.057-.114.114Zm3.363,23.769c0,.057-.057.057-.114.057v-.171c0-.057.057-.057.114-.057Zm3.192,7.125.171.171c-.057,0-.057,0-.114.057l-.114-.171Zm-4.275-22.914h-.171l-.057-.057c0-.057.057-.057.114-.114v.057ZM186.5-21.147c0-.057.057-.114.057-.171l-.114.114Zm35-11.8-.057-.114c-.285-.057-.4-.456-.8-.4-.057,0-.114-.114-.171-.171l.171-.171a.209.209,0,0,1,.171-.057c-.057-.057-.114-.114-.171-.114-.171,0-.4-.057-.513,0a.724.724,0,0,1-.684,0,1.259,1.259,0,0,0-.912,0,.74.74,0,0,1-.57.114c-.057,0-.171,0-.114.114,0,.057.171.114,0,.171s-.342.171-.4,0c-.057-.285-.285-.228-.513-.228a4.9,4.9,0,0,0-.912-.057,1.757,1.757,0,0,1-.57-.057,7.643,7.643,0,0,0-2.28,0,.785.785,0,0,1-.627,0,.953.953,0,0,0-.684.057,2.531,2.531,0,0,1-1.14.057c-.4,0-.855-.057-1.311-.057a2.138,2.138,0,0,1-.57-.057,7.115,7.115,0,0,0-2.451.057c-.057,0-.171.057-.228,0-.456-.228-.8-.057-1.254.057a.83.83,0,0,0-.513.342l-.285.684a.855.855,0,0,1,0,1.026v.171a1.5,1.5,0,0,0,.855,1.482,1.68,1.68,0,0,0,.741.285h2.109c.171,0,.285,0,.285-.228,0-.057.057-.114.114-.171,0,.057.057.114.057.171-.114.228.057.285.285.342l.57.228a1.093,1.093,0,0,1,.912,1.083,1.664,1.664,0,0,0,.114.513c0,.057.228.114.228.171a4.4,4.4,0,0,1-.114.855c0,.114-.114.228-.114.342a7,7,0,0,0,.114,1.539,2.159,2.159,0,0,1,0,.855.97.97,0,0,0,.057.4.446.446,0,0,1,.057.456.81.81,0,0,0-.114.342v1.026a.723.723,0,0,0,.057.342.366.366,0,0,1,.057.513c-.228.285-.114.627-.114.969,0,.057.057.114.057.171.057,0,.114-.057.171-.057a.82.82,0,0,1,.171-.114c.057.114.228.228.228.342s-.171.057-.285,0c-.228-.057-.342.057-.342.285s.057.456.057.684-.057.456-.057.684a.427.427,0,0,0,.057.285c.171.171.114.342,0,.513a2.672,2.672,0,0,0,0,1.881.487.487,0,0,1,0,.4,1.694,1.694,0,0,0-.228,1.026,10.381,10.381,0,0,1,.057,1.881.537.537,0,0,0,.228.513.259.259,0,0,1,0,.285.678.678,0,0,0-.228.627c.114.4-.114.855.171,1.254.285.456-.228.8-.057,1.254a9.208,9.208,0,0,1,0,1.254c0,.171.057.342.057.513-.057.342-.228.684.114.969.057.057,0,.171,0,.228l-.171.342a.574.574,0,0,0,.057.171c.171,0,.228.057.114.171-.171.114-.285.228-.285.4.114.342-.057.684.228.969.057.057,0,.228-.057.342a1.893,1.893,0,0,0-.057,1.368,1.4,1.4,0,0,0,1.083,1.254,1.493,1.493,0,0,0,.855-.057,4.038,4.038,0,0,1,.8.057.574.574,0,0,0,.057-.171c0-.057-.057-.114-.057-.171V-.684c.057,0,.114,0,.114.057a.753.753,0,0,0,1.083.285.767.767,0,0,0,.684-.285,1.374,1.374,0,0,0,.4-1.026,2.356,2.356,0,0,0-.114-1.083c-.171-.4.228-.684.114-1.026-.114-.114,0-.228-.114-.342,0-.057-.114-.114-.114-.114-.171.114-.228,0-.285-.114V-4.5h.342c.057-.342.285-.684.057-1.026a.427.427,0,0,1-.057-.285,8.429,8.429,0,0,0,.057-2.394c0-.171-.285-.4-.285-.57s.285-.285.228-.513a4.314,4.314,0,0,1-.057-.855v-.513c0-.171.057-.342.057-.513v-2.907c0-.171.057-.342-.114-.513a.173.173,0,0,1,0-.228,6.713,6.713,0,0,0,.171-2.394V-19.95c0-.228.114-.456-.114-.627a.343.343,0,0,1-.057-.228,1.642,1.642,0,0,0,.057-1.368.97.97,0,0,1-.057-.4c0-.342.057-.684.057-1.026v-2.394c0-.285.114-.57-.114-.8V-26.9a8.851,8.851,0,0,1,.228-1.2c.114-.114.228-.228-.057-.285-.114-.057,0-.342.171-.285.228.114.285-.057.4-.171v-.171h.228l.741-.513c.57.057,1.482.057,1.026-.456.57,0,.4.114,1.311.285.171,0,.285-.057.4-.057h.171a1.276,1.276,0,0,0,1.653-1.2,6.2,6.2,0,0,1,.057-1.026c.057-.342-.171-.684,0-1.026Zm-1.938.4c0,.057-.114.114-.171.114a2.025,2.025,0,0,1-.57-.114c-.057,0-.057-.114-.114-.171.057-.057.114-.114.171-.114h.285c.171.057.4.171.4-.171h.171a.419.419,0,0,1-.114.342Zm-14.193,1.824c-.456-.114-.57-.456-.342-.741a.427.427,0,0,1,.285-.057v.171c-.171.171-.171.285.057.4.057,0,.114.057.171.114C205.485-30.78,205.428-30.723,205.371-30.723Zm7.467,4.446-.342.228c-.057-.114-.114-.171-.114-.228l.171-.285.4-.285c.057,0,0,.342-.228.513Zm-1.254,5.358v.171l-.285.228-.114-.057v-.342h.057l.171-.171.228.171Zm-.285,7.752c-.057,0-.114-.057-.171-.057.057-.057.114-.114.171-.114v.114c0-.057.057-.057.057-.114a.432.432,0,0,0,.228-.114l.228.171c-.114.057-.171.171-.285.171l.057.114C211.413-13,211.3-13,211.3-13.167Zm.8,12.6L211.983-.8l.342-.171c.057,0,.114.114.228.228Zm.285-3.819h-.342v-.057l.228-.171a.343.343,0,0,1,.228-.057.177.177,0,0,0,.057.114Zm.228-26.22.228-.171h.171v.171l-.171.171v-.171Zm-.969,23.427-.228.171v-.171l.228-.171c.057.057.114.114.114.171Zm3.021-25.764c-.114,0-.171-.057-.228-.057l.228-.171c.057.057.114.114.114.171a.2.2,0,0,1-.057.114Zm-2.337,26.5L212.1-6.1h-.114l-.057-.057.342-.285Zm-.912-11.115c.114,0,.171-.057.228-.057s.114.057.171.114c-.057.057-.114.114-.171.114s-.057-.057-.114-.114Zm3.249-3.933c.057-.057.114-.114.171-.114s.114.057.171.057v.171a.209.209,0,0,0-.171-.057Zm-3.762-7.3a.2.2,0,0,0,.114.057.3.3,0,0,1-.228.114.2.2,0,0,0-.114-.057l.114-.171Zm.8,13.68c.057,0,.114.057.171.114l-.171.171a.209.209,0,0,0-.171-.057c.057-.057.114-.114.171-.114Zm.228,12.426c.057,0,.114-.057.171-.057.114,0,.114.057.171.114l-.171.114-.114-.171Zm-.969-4.959h.171c.057.057.114.114.114.171a.056.056,0,0,1-.057.057h-.057Zm2.679-25.137a.209.209,0,0,0,.057.171.209.209,0,0,1-.171.057c0-.057-.057-.114-.057-.171s.057-.057.114-.057Zm-1.2,15.618c0-.057.057-.114.114-.171l.114.114-.171.171-.057-.057Zm2.508-2.28c.057,0,.114.057.171.114a.177.177,0,0,0-.057.114c-.057,0-.114-.057-.171-.114A.2.2,0,0,1,214.947-19.437Zm.171-10.2-.171-.171.057-.057.171.171v.057Zm-4.5-.4H210.5v-.171h.114Zm2,24.4V-5.7h.228c-.114.057-.114.114-.114.114h-.171Zm0,.228v-.057h.057v.057ZM215-27.759v-.057h.057Zm13.452-5.814c-.057,0-.114,0-.114.057v-.114a1.255,1.255,0,0,1-.456.057c-.057,0-.114.114-.171.171l-.912,1.026a3.918,3.918,0,0,0-.285,1.368,2.861,2.861,0,0,0-.114.684,1.057,1.057,0,0,0,.114.4c.057.114.114.228,0,.228-.342,0-.285.171-.171.342l.171.342c0,.057-.057.114-.057.171a.2.2,0,0,0-.114-.057h-.228a.2.2,0,0,1-.057.114c.171.171.114.4.057.627v.171c.228.342,0,.57-.171.8a1.057,1.057,0,0,0-.114.4c.057.171.114.342-.057.513a.425.425,0,0,0,0,.456.447.447,0,0,1-.057.627c-.171.114-.171.228-.171.4a1.664,1.664,0,0,1-.114.513,1.821,1.821,0,0,0-.171,1.083,1.856,1.856,0,0,1-.171,1.368c-.057.171-.228.342-.228.513l.057-.057.228.114-.285.228-.057-.057c0,.057.057.114.057.171.057.4-.171.741,0,1.14.057.057-.114.228-.171.342,0,.057-.057.114-.057.171a1.645,1.645,0,0,1-.171,1.026,2.717,2.717,0,0,0-.228,1.14.97.97,0,0,1-.057.4,1.446,1.446,0,0,0-.114.684,4.4,4.4,0,0,1-.114.855l-.171.684a.847.847,0,0,0-.114.513.972.972,0,0,1-.171,1.083.766.766,0,0,0-.114.513,1.746,1.746,0,0,1-.171,1.311,1.456,1.456,0,0,0,.057,1.71v.057a.62.62,0,0,1-.057.285c-.228-.171-.342-.171-.456.057a1.625,1.625,0,0,0-.114.912.971.971,0,0,1,0,.57c-.057.228-.171.285,0,.456.057.114.114.228-.057.171,0,0-.114.057-.114.114a4.99,4.99,0,0,1-.114.912c-.228.456-.114.969-.342,1.425-.057.114-.057.228.114.228.114,0,.171.114.057.114-.228.057-.228.228-.228.4s-.228.4.057.57a.574.574,0,0,0-.057.171c-.114.114-.228.228-.228.285.114.4-.114.4-.228.741-.171.57-.285.57.057,1.083l.114.171V-.741L221.73-.8h.057l.057-.057.114.057c.057.057.114.057.114.114a.2.2,0,0,1,.114.057.41.41,0,0,0,.4.228.209.209,0,0,0,.171.057c.114.285.456.285.684.285a3.722,3.722,0,0,0,.627-.114.123.123,0,0,1,.114-.114c.627,0,1.254-.057,1.938-.057s.741-.285,1.083-.8a3.507,3.507,0,0,0,.4-1.311c.057-.456-.057-.57.171-1.026.057-.171-.114-.4-.057-.57.057-.228.285-.4.285-.627a19.774,19.774,0,0,1,.342-2.565l.171-.171a3.823,3.823,0,0,1,2.907-1.14,8.25,8.25,0,0,0,2.052-.057c.171-.057.228.114.342.228h.171l-.171.171-.171.342c.171.057.285.171.342.171.456-.171.513.114.627.342a14.117,14.117,0,0,1,.171,1.539.726.726,0,0,0,.285.627.275.275,0,0,1,.057.4c-.171.171-.171.285,0,.456a.343.343,0,0,1,.057.228,4.4,4.4,0,0,1,.114.855c0,.285-.057.228-.057.513a.209.209,0,0,0,.057.171c.171.342.228.684.4,1.026.114.4,1.14.741,1.482,1.083a1.352,1.352,0,0,0,1.14.4c.114,0,.228-.057.342-.057.513,0,1.026.057,1.539.057a3.923,3.923,0,0,0,.741-.114.377.377,0,0,0,.342-.4,1.542,1.542,0,0,1,.171-.855,1.255,1.255,0,0,0,.057-.456l-.456-.285-.4-2.052a4.544,4.544,0,0,1-.171-.855,8.1,8.1,0,0,0-.456-2.337,3.213,3.213,0,0,1-.228-.684,2.39,2.39,0,0,0-.057-.912,9.277,9.277,0,0,0-.4-1.71.723.723,0,0,1-.057-.342,2.192,2.192,0,0,0-.285-1.2.427.427,0,0,1-.057-.285c.057-.228.228-.513-.057-.741.057-.456-.228-.912-.228-1.368a.767.767,0,0,0-.285-.684c-.114-.057-.228-.171-.057-.285a.754.754,0,0,0,.114-.684l-.513-2.736-.171-1.2c0-.057,0-.228-.057-.228-.285-.057-.228-.171-.171-.285.114-.171-.057-.171-.114-.228-.114-.114-.057-.114.057-.114a.574.574,0,0,0,.057-.171,3.373,3.373,0,0,1-.285-1.083c0-.057-.057-.114-.057-.171a.733.733,0,0,1-.057-.684v-.171a1.165,1.165,0,0,0-.285-.513c-.114-.228.228-.342.171-.513l-.171-.627-.171-1.026c-.171,0-.171-.114-.114-.285a1.918,1.918,0,0,0-.228-1.254q-.171-.086-.171-.171a9.32,9.32,0,0,1-.114-1.254,4.381,4.381,0,0,0-.171-1.71,11.676,11.676,0,0,0-.285-1.368,1.947,1.947,0,0,0-.741-1.368c-.285-.228-.684-.114-.969-.171a6.167,6.167,0,0,0-2.28-.057c-.114,0-.342.057-.456,0a1.589,1.589,0,0,0-1.026-.057v.057l-.228.171-.057.114a.623.623,0,0,0-.57-.114c-.057-.057-.114-.057-.4-.114A3.214,3.214,0,0,0,228.456-33.573ZM233.3-14.364c-.057.114-.285.114-.456.171-.114.114-.4.114-.285.456,0,.057-.171.171-.228.171-.228-.057-.513.228-.684-.057h-.114a2.353,2.353,0,0,1-1.539-.285h-.171c-.342,0-.4-.057-.57-.342a.177.177,0,0,0-.057-.114c-.513-.57-.285-.114-.228-.684a21.508,21.508,0,0,0,.741-6.042c0-.114,0-.171.057-.228a2.673,2.673,0,0,0,.171-1.482,4.018,4.018,0,0,1,.228-1.767,14.322,14.322,0,0,1,.228-1.539.886.886,0,0,1,.342-.456.611.611,0,0,1,.342-.114l.57.171c.057.057.057.228.114.342,0,.285-.114.513.228.684a.678.678,0,0,0-.228.627c.057.171,0,.456.342.513.057,0,.114.171.057.228a1.83,1.83,0,0,0-.114.969.341.341,0,0,0,.171.342.611.611,0,0,1,.114.342,3.926,3.926,0,0,0,.057,1.14,6.9,6.9,0,0,1,.057,1.083c0,.171,0,.342.228.4.171.057.171.171.171.342l-.171.57v.171a2.619,2.619,0,0,1,.171,1.311v.627a2.056,2.056,0,0,1,.228,1.368,2.139,2.139,0,0,0-.057.57c0,.171.057.114.228.114.057,0,.114-.114.114-.228l.114.228Zm-4.389-9.975c.114.057.228.171.228.228a2.216,2.216,0,0,1-.114.855l-.342.855c-.4-.057-.171-.456-.285-.741,0-.114-.114-.171-.114-.285,0-.171-.057-.4-.057-.57A.891.891,0,0,0,228.912-24.339Zm-.456,13.224a.435.435,0,0,1-.114.285l-.285.114-.171-.171c.057-.114.057-.228.114-.285l.456-.285c.228.171-.057.285-.114.4Zm5.643,1.71c0-.057.057-.114.114-.171h.057v.171c0,.057-.057.114-.057.171l.342.171.171,1.254c-.057.057-.171-.912-.228-.912l-.057-.057a.435.435,0,0,1-.285-.114.339.339,0,0,1,0-.4C234.1-9.291,234.1-9.348,234.1-9.405Zm-.855-15.789-.171.4-.228.171-.171-.171c-.057-.114-.057-.171.114-.171.057,0,.114-.171.171-.285l.228-.171v.171Zm1.995-5.7a1.346,1.346,0,0,1-.342.513c-.228-.171-.057-.342-.057-.513,0-.114.114-.171.228-.228h.057v.057ZM237.69-16.53l.171.171-.4.342-.057-.057.114-.456Zm-3.42-8.379.228-.342h.057v.171a.62.62,0,0,1-.057.285c0,.057-.057.057-.171.114,0-.057-.057-.114-.057-.171Zm-1.2-5.244h.228c.114,0,.228-.057.342.114H233.3l-.4-.171c.114-.228.342-.057.513-.057Zm2.793,6.384v.342l-.057.057-.228-.342c0-.057.114-.114.171-.171Zm3.819,19.893c-.057,0-.114-.057-.171-.114.057-.057.114-.114.171-.114a2.564,2.564,0,0,1,.456.114c-.228.057-.285.114-.342.114Zm-9.4-26.676.342-.171h.114v.114l-.4.171c-.057,0-.114-.057-.171-.057C230.223-30.5,230.223-30.552,230.28-30.552Zm.627,19.665c-.057-.057-.171-.114-.171-.171a.3.3,0,0,1,.114-.228c.057.057.114.114.114.171s-.057.114-.057.171Zm-.114-1.083.057-.057a.252.252,0,0,1,.114.4Zm4.9,3.534-.114-.114.228-.171v.342c0,.057-.057.057-.114.057Zm-8.607-21.717c.057.057.114.114.114.171s-.057.114-.114.171c-.057-.057-.114-.114-.114-.171S227.031-30.1,227.088-30.153Zm8.778,27.018c.057,0,.114.057.171.057l-.228.171-.114-.114C235.752-3.078,235.809-3.135,235.866-3.135Zm-3.99-27.645c0,.057-.057.057-.114.057l-.057-.057.171-.171.171.114Zm-1.653-1.995c.057-.057.114-.114.171-.114l.114.114c-.057.057-.114.114-.171.114l-.057-.114Zm4.389,7.011.114.057a.431.431,0,0,1-.057.228c-.057-.057-.114-.114-.114-.171A.177.177,0,0,1,234.612-25.764ZM232.56-32.6h.114v.171c0,.057-.057.057-.114.114Zm3.363,23.769c0,.057-.057.057-.114.057v-.171c0-.057.057-.057.114-.057Zm3.192,7.125.171.171c-.057,0-.057,0-.114.057l-.114-.171ZM234.84-24.624h-.171l-.057-.057c0-.057.057-.057.114-.114v.057Zm-10.032,3.477c0-.057.057-.114.057-.171l-.114.114Zm33.744,4.332c-.285,2.166-.684,3.534-1.71,3.021v-.171a5.02,5.02,0,0,0-.228-1.824,14.1,14.1,0,0,1-.342-1.653c-.114-.228,0-.513-.4-.684a.3.3,0,0,1-.057-.513.723.723,0,0,0,.057-.342,4.475,4.475,0,0,0-.285-1.254c-.114-.342-.057-.741-.456-1.026-.057-.057,0-.285,0-.456,0-.114.114-.228.114-.342a9.924,9.924,0,0,1-.285-1.254c-.057-.4-.456-.855-.342-1.368,0-.057-.057-.114-.057-.171l-.171-.684c-.114-.342.057-.456-.114-.855l-.285-.57a11.885,11.885,0,0,1-.4-2.052c0-.171-.114-.228-.285-.114-.057.057-.114.228-.228.114-.114,0,.057-.171.114-.285,0-.057.057-.114.114-.171.114-.228-.114-.684-.342-.912a7.176,7.176,0,0,1,.228-1.539c-.114-2.337-4.332-1.824-5.643-1.824-.57,0-3.078.285-3.249.8-1.083,2.052.684,1.482.684,1.767a19.218,19.218,0,0,1-1.083,1.824c-.285.285-.228.513.114.741a14.276,14.276,0,0,0-.342,3.591,1.688,1.688,0,0,1,.285,1.425.791.791,0,0,0,0,.513.674.674,0,0,1-.057.57c-.228.171-.285.4,0,.57a.269.269,0,0,1,.057.342,1.851,1.851,0,0,0-.057.741c-.8-.114-.171.8.285.855v.114a4,4,0,0,1-.513.342c-.057.057-.171.114-.171.171a1.625,1.625,0,0,0,.114.912,1.11,1.11,0,0,1,.228,1.254.32.32,0,0,0,0,.513.391.391,0,0,1-.171.513c-.171.171-.228.342,0,.513.228.114.228.228.171.456a1.673,1.673,0,0,0-.171,1.368c.171.171,0,.342-.057.513a.855.855,0,0,0,0,1.026,1.074,1.074,0,0,1,.228,1.2c-.171.114-.171.285,0,.456a.407.407,0,0,1-.171.513c-.171.228-.228.4,0,.57a.391.391,0,0,1,.171.513c-.171.114-.171.228-.228.342a.775.775,0,0,0,0,.855c.057.171.228.456.057.627a1.117,1.117,0,0,0,0,1.254.958.958,0,0,1,.171,1.083.424.424,0,0,0-.171.4c.171.285.228.513-.057.741a.162.162,0,0,0,0,.285c.513.4-.285,1.311-.171,1.71a.62.62,0,0,1,0,.855c-.057.114-.057,0,0,.114.912,1.254,1.938.969,3.192.969a.123.123,0,0,1-.114-.114L246.3-.627V-.8c0-.171.171.057.285.057h.057v.057a1.767,1.767,0,0,1,.114.4v.4c-.114,0-.114.057-.114.057h.114a.2.2,0,0,0,.114.057,2.468,2.468,0,0,0,.912-.057,1.215,1.215,0,0,0,.855-.4c.285-.342.4-.4.285-.912a.723.723,0,0,1-.057-.342c0-.57.057-1.2.057-1.824a.473.473,0,0,0-.171-.456c-.171-.114-.114-.285-.057-.456a4.5,4.5,0,0,0,.171-.741,12.866,12.866,0,0,0-.057-2.565v-.342c0-.57.057-1.083.057-1.653a.481.481,0,0,0-.114-.4.425.425,0,0,1,0-.513,1.146,1.146,0,0,0,.228-.741,19.917,19.917,0,0,0-.057-2.622v-.342c0-.513.057-1.026.057-1.6a1.057,1.057,0,0,0-.114-.4c-.171-.171-.114-.342,0-.57a.853.853,0,0,0,.057-1.026c.057-.342.285-.684,0-1.026v-.057a3.446,3.446,0,0,0,0-1.083c0-.228.057-.456.057-.684,0-.513-.057-3.078-.114-3.534,0-3.078.741-1.026,1.14-.912l.171,1.311a.123.123,0,0,0,.114.114c.228,0,.342,2.964.4,3.078a1.267,1.267,0,0,1,.171.912,1.232,1.232,0,0,0,.057.627c.057.057.285.057.4.057a.333.333,0,0,1,.228.057c0,.057-.057.114-.228.171-.285.228-.285.228-.114.513a3.774,3.774,0,0,1,.057,1.6,1.1,1.1,0,0,0,.228.684l.4,1.2a.493.493,0,0,1,.171.342c0,.171.342.285.57.456.171.171.228.4,0,.57-.171.057-.171.114-.114.228a1.192,1.192,0,0,1,.228.342l.57,3.762a.313.313,0,0,0,.171.285c.228.228.57.4.171.741a.343.343,0,0,0-.057.228c.513,1.6,1.083,2.109.741,2.622.171.171-.057.513.057.57.342.228.228.513.285.741a.281.281,0,0,0,.057.171c.171.228.285.4.171.627-.057.114.171.342.114.513,0,.114-.285.285-.285.342.285.8,2.052,1.026,2.679.912.684-.228,1.6-.741,1.539-1.311,0-.057.057-.114.057-.171a.427.427,0,0,0,.057-.285s-.057-.114,0-.171a2.025,2.025,0,0,0,.456-1.083c.114-.342.114-.627-.342-.8-.057,0-.057-.057-.114-.114a.847.847,0,0,1-.057-.342.056.056,0,0,1,.057-.057l.057.057v-.114h.285c.228.114.342,0,.4-.171l.285.114c.114-.456.456-.912.057-1.368-.057-.171,0-.342.513-.456a.467.467,0,0,0,.228-.57.487.487,0,0,1,0-.4,1.612,1.612,0,0,0,.4-1.2,5.782,5.782,0,0,1,.114-1.425c0-.057.057-.114.057-.171.057-.057.114.342.114,0a11.1,11.1,0,0,1,.114-1.425v-.171c.4-.285.4-.684.513-1.026a6.59,6.59,0,0,0,.456-1.824,5.331,5.331,0,0,1,.4-1.254c.114-.4,0-.741.171-1.083a6.782,6.782,0,0,0,.4-1.539c.057-.228-.114-.513,0-.741.057-.228.285-.456.342-.684l.969-2.793a9.066,9.066,0,0,0,1.026-.627,1.93,1.93,0,0,0-.342.855c0,2.166-.969,4.5-.057,6.555v.114c-.342.855,0,1.767-.285,2.679-.4.741-.171,7.41.114,7.752-.741,0,.513.285,0,.912a.446.446,0,0,0-.057.456.723.723,0,0,1,.057.342,3.7,3.7,0,0,0,0,1.767A3.729,3.729,0,0,1,265.62-2c0,.285-.228.513-.285.741-.057.171-.114.4.285.456.057,0,.114.171.228.285.057.171.057.342.171.456.171.114.285.228.4.228a13.083,13.083,0,0,0,2.565.114c1.026-.114.969-.342,1.254-1.083a4.528,4.528,0,0,0,.057-1.254,1.738,1.738,0,0,0-.171-.912.343.343,0,0,1-.057-.228,1.388,1.388,0,0,0,.114-1.254c-.057-.114,0-.228,0-.342V-6.156c0-.114-.057-.171-.228-.171,0-.228.114-.456.114-.684a2.508,2.508,0,0,1,.114-.57.327.327,0,0,0,.114-.4.209.209,0,0,1-.057-.171,1.346,1.346,0,0,1,.057-.684,3.212,3.212,0,0,0,0-.741c0-.057-.057-.171-.057-.228a3.226,3.226,0,0,0,.114-1.254,1.664,1.664,0,0,0-.114-.513.567.567,0,0,1-.057-.513,4.748,4.748,0,0,0,.228-.855c0-.114,0-.171-.171-.171-.114,0-.114-.171,0-.228.057-.057.171,0,.171-.171a5.742,5.742,0,0,1-.057-1.71c0-.114-.057-.285-.057-.4a1.171,1.171,0,0,1,0-.627,3.38,3.38,0,0,0,0-1.311,1.422,1.422,0,0,1-.057-.969c0-.114.114-.285-.114-.342v-.114c.4,0,.228-.285.228-.456s-.057-.342,0-.456c.057-.228-.171-.171-.228-.285-.057-.057,0-.228,0-.342h.114c.057,0,.114.057.171.114v-.171a1.084,1.084,0,0,1-.057-.741,1.549,1.549,0,0,0,0-.513c0-.114-.057-.228,0-.285a2.619,2.619,0,0,0,.171-1.311.419.419,0,0,0-.114-.342.852.852,0,0,1-.057-.741c.057-.285.228-.57.057-.855a3.987,3.987,0,0,0,0-1.425V-28.5a8.056,8.056,0,0,0-.228-2.85c-.057-.114,0-.285,0-.4-.228-1.824-.627-1.824-1.881-1.824-.513.285-1.14-.57-1.71-.513-.4.114-1.026-.228-1.482-.057-3.363,1.14-2.793,1.995-2.85,3.078-.342.342-.228,1.881-.228,2.28-.342.4-1.254.855-1.2,1.311v.171a11.706,11.706,0,0,0-.4,1.938c0,.8-1.026,2.052-.4,2.508.114.228.057.342-.228.4-.4.057-.171.171,0,.228a.723.723,0,0,0,.342.057c-.057.4-.684.285-.456.8.456.285-.285.513-.285.741,0,.342-.228.627-.285.969a1.29,1.29,0,0,1-.228.513.709.709,0,0,0-.057.741c.171.285-.114.627.171.855-.228.228-.057.57-.114.8h-.114C258.723-17.157,258.552-16.872,258.552-16.815Zm5.3-11.514c0,.057-.114.114-.114.114-.228-.057-.4-.114-.4-.342l-.114-1.653a.427.427,0,0,1,.285.057c.285.114.456,1.425.4,1.653v.171Zm-2.394,5.016a.173.173,0,0,1,0-.228l.684-.513c.171-.057.4-.057.4.114a1.686,1.686,0,0,0,.114.57l-.171.228c-.342.114-.8.057-.912-.114Zm-2.28,4.389-.171-.228c-.057-.114.057-.114.171-.114a.654.654,0,0,0,.513-.285h.684v.114c-.114.171-.57.4-.741.57l-.456.114Zm-11.115,8.379c-.285.057-.4.057-.456-.114a.661.661,0,0,0-.4-.4c-.171-.171-.057-.171.171-.171s.285-.114.285-.228c0-.057.057-.114.114-.171,0,.057.228.114.228.171v.171c-.228.171-.228.342.057.513.057.057,0,.228-.057.228Zm19.494-2.28v-.057c.342,0,.228-.114.228-.228a.254.254,0,0,1,.228-.171.432.432,0,0,1,.228.114,2.311,2.311,0,0,1,.285.513c0,.057-.114.171-.171.285a3.071,3.071,0,0,0-.741-.4Zm-20.634.627c0-.057.057-.114.057-.171h.114c.114.171.4.342.456.513.057.057,0,.285-.057.342-.285.114-.4,0-.456-.114l-.171-.57ZM244.53-6.042a2.115,2.115,0,0,1,.513.114l-.57.171h.057c.228.285.684.57.741.969A2.506,2.506,0,0,1,244.3-5.7s.114-.057.114-.114c0,.057,0,.057.057.057,0-.057-.057-.114-.057-.171A.123.123,0,0,1,244.53-6.042Zm.57-17.043s-.456-.057-.456-.114c0-.171.684-.456.969-.4a.177.177,0,0,0,.057.114l-.513.342Zm.342,2.622-.4.342-.57-.342a2.025,2.025,0,0,1,.57-.114A1.45,1.45,0,0,1,245.442-20.463ZM255.36-7.809l.285-.513h.114c.171.114.342.513.114.57ZM244.3-27.189l.969.342v.057c-.228.114-1.026-.057-1.026-.285A.2.2,0,0,1,244.3-27.189Zm3.192,17.784-.342-.171H247.1l.057-.057h.4c.114.057.513.057.513.228-.057.228-.456.114-.684,0ZM245.442-26.22c.057-.114-.171-.342.057-.4.114,0,.228.285.4.4l-.228.285a.432.432,0,0,1-.228-.114.2.2,0,0,0,.057-.114Zm2.565,12.54c0-.057-.228-.114-.228-.171l.57-.4h.057l.057.057a1.346,1.346,0,0,1-.342.513Zm18.468,6.726a1.023,1.023,0,0,0-.285-.4c.228-.057.342,0,.4.228v.684c-.228-.057-.114-.285-.171-.456Zm-22,3.819h-.057a1.192,1.192,0,0,1,.228-.342l.456.114c-.057.114-.456.228-.57.342Zm10.6-15.447a.821.821,0,0,1-.4.342l-.057-.057v-.171a.76.76,0,0,1,.285-.342A1.686,1.686,0,0,0,255.075-18.582ZM268.3-8.55c0-.228-.171-.342-.4-.456V-9.12a.524.524,0,0,1,.57.513.056.056,0,0,1-.057.057l-.057-.057Zm-22.116-5.757c-.057-.228.114-.285.285-.4a.705.705,0,0,0,.171.114,2.633,2.633,0,0,1-.4.4A.2.2,0,0,1,246.183-14.307Zm16.131-7.182-.057-.057c-.114-.171.285-.4.456-.342a.177.177,0,0,0,.057.114C262.6-21.66,262.542-21.546,262.314-21.489Zm5.358-.4s0,.057.114.114l-.4.342-.114-.057c0-.114,0-.228.114-.285C267.444-21.831,267.558-21.831,267.672-21.888ZM245.1-24.111a2.941,2.941,0,0,1-.627.114c-.057,0-.171-.057-.171-.114s.114-.114.171-.114a2.025,2.025,0,0,1,.57.114Zm23.94-7.923.228.171c-.114.057-.114.114-.114.114a.209.209,0,0,1-.171-.057.569.569,0,0,1-.228-.285c.171-.171.285,0,.4.057ZM267.5-10.2a.723.723,0,0,0-.342-.057l.456-.342a.82.82,0,0,0,.171.114,1.192,1.192,0,0,0-.228.342ZM255.645-4.617v-.057a.967.967,0,0,1,.741-.228v.114l-.684.171Zm13.4-13.4h.342c.114,0,.171.057.228.057-.057.057-.057.114-.114.114-.228.057,0,.057-.114.057l-.114.057v-.057C268.983-17.727,268.983-17.841,269.04-18.012Zm-16.359-4.446h.969l-.912.171c-.114,0-.228-.057-.342-.057Zm7.239,6.1a.62.62,0,0,1-.285.057v-.171a.343.343,0,0,1,.057-.228l.285-.171.057.057-.228.171ZM245.328-3.648h-.114l-.057-.057.171-.342c0-.057.114-.057.171-.057,0,.057.057.114.057.171ZM246.3-10.6v.114a.508.508,0,0,1-.627-.285Zm-2.052-7.866c.114-.057,0-.171.171-.171.228,0,.114.171.114.285,0,.057-.057.114-.057.171l-.228-.171Zm23.427-2.166a.435.435,0,0,1-.285-.114v-.114a.177.177,0,0,0,.114-.057.878.878,0,0,0,.4.171c0,.057.114.057.114.114ZM247.38-16.473c.456.57-.4.285-.228,0Zm.741,10.317h-.114l-.513-.171v-.114h.171l.456.171Zm19.437-.855-.057-.057.171-.228.342.228a.81.81,0,0,1-.342.114Zm-1.539-8.55c-.114,0-.171-.057-.285-.057a1.249,1.249,0,0,1,.456-.171c.057,0,.114.057.228.114-.114.057-.171.114-.228.114ZM245.9-3.135c-.114,0-.114-.114-.114-.171l.114-.057.4.171v.114a.723.723,0,0,1-.342-.057Zm21.261-3.819H267.1c-.057-.228-.285-.342-.57-.456v-.057C266.931-7.467,267.159-7.239,267.159-6.954Zm-7.182-11.571-.171.057a3.885,3.885,0,0,0-.4-.285.733.733,0,0,0,.4-.057l.228.342Zm-7.3-6.669a2.025,2.025,0,0,1,.57.114.177.177,0,0,0-.057.114l-.627-.171v-.057Zm-.8,1.539.114-.114.456.342v.114H252.4c-.171-.057-.228-.228-.4-.342Zm-6.1-.4c-.057-.057-.114-.114-.114-.171s.057-.114.114-.171l.285.171ZM269.553-9.006a.379.379,0,0,1-.228.285v-.057c-.057-.114-.342-.285-.171-.285a.81.81,0,0,1,.342.114Zm-24.4.627a.209.209,0,0,1,.171.057v.057l-.057.057a.209.209,0,0,1-.171-.057,1.341,1.341,0,0,1-.456-.114Zm.342-9.177v.057h-.171c-.171-.114-.228-.114-.171-.342Zm22.4,1.938v.171l-.285.228a.2.2,0,0,0-.057-.114.445.445,0,0,1,.228-.228Zm.855-5.586a.6.6,0,0,1-.285-.114.6.6,0,0,1,.285-.114c.057,0,.114.057.171.114C268.869-21.261,268.812-21.2,268.755-21.2ZM268.3-16.53h-.057v-.4h.057a.334.334,0,0,1,.057.456ZM263.055-24.8a.432.432,0,0,1-.228-.114.432.432,0,0,1,.228-.114c.057,0,.114.057.171.114l-.114.114Zm3.99,5.415a.435.435,0,0,1-.285-.114l.057-.057a1.342,1.342,0,0,1,.456.114.705.705,0,0,0-.171.114ZM256.329-8.436c.057,0,.114.057.171.114-.057.057-.114.114-.171.114a.432.432,0,0,1-.228-.114A.432.432,0,0,1,256.329-8.436Zm-11-16.815c.114,0,.171.057.171.114s-.057.114-.171.171c-.057-.114-.114-.171-.114-.228A.2.2,0,0,1,245.328-25.251Zm13.851,7.3v-.285l.228.171v.171ZM247.1-23.142c-.114.114-.171.171-.228.171s-.114-.057-.228-.057l.228-.171C246.924-23.142,246.981-23.142,247.1-23.142ZM247.38-.855a.763.763,0,0,0-.285-.057.335.335,0,0,1,.285-.114.82.82,0,0,1,.171.114l-.342.171ZM267.387-13a.123.123,0,0,1,.114-.114c.057,0,.114.057.171.114-.114.057-.171.114-.228.114a.574.574,0,0,1-.171-.057Zm-7.41-4.332c0-.057,0-.114.057-.114,0,0,.342.057.4.057a1.057,1.057,0,0,1-.4.114Zm-12.2,12.6h-.171c.057-.057.057-.114.114-.114s.285.057.342.057v.114Zm.684-25.023c-.057,0-.114-.057-.171-.114.171-.057.342-.114.342.114Zm-2.679,6.27c.114-.057.114-.114.171-.171l.114.057v.171h-.114Zm-1.767,2.679.171.114c-.171.114,0,.171-.171.228l-.057-.057Zm.4,7.182-.114.057v-.171l.114-.057.228.171ZM257.127-2.28l.285-.171.057.057-.228.228ZM243.96-25.365v-.057h.057l.171.342-.114.057Zm3.819-3.249a.2.2,0,0,0-.057-.114c.057-.057.285-.057.342-.114v.114Zm18.867-2.223.171.057-.285.171-.057-.057ZM258.837-5.016a.2.2,0,0,0-.114-.057l.171-.171.114.114C258.951-5.073,258.894-5.016,258.837-5.016ZM246.924-23.655c.057,0,.114.057.171.114-.057.057-.114.114-.171.114s-.057-.057-.057-.114l.057-.057Zm.8-5.415h.057v.057a.209.209,0,0,1-.057.171h-.114v-.114ZM244.188-2h-.114v-.513Zm24.111-29.3a.445.445,0,0,0,.228.228l-.114.057-.171-.171Zm.228,14.934c.171,0,.228,0,.285.057-.057.057-.114.057-.285.057Zm-6.042-8.664h-.228q-.171-.085-.171-.171h.057Zm-15.1,10.659c.171.057.285.114.285.285-.171,0-.171-.114-.171-.228Zm16.245-16.074-.114.057-.171-.171.057-.057Zm-4.332,19.722.114.114-.057.057a.574.574,0,0,1-.171-.057C259.179-10.659,259.179-10.716,259.293-10.716Zm9.8-12.711a.25.25,0,0,1,.171-.057v.228Q269.1-23.341,269.1-23.427Zm-19.836-7.41h.114l-.057.057h-.285v-.114Zm9.8,21.432c-.057,0-.057-.057-.114-.114a.2.2,0,0,0,.114-.057.123.123,0,0,1,.114.114l-.057.057Zm-2.679-.057c-.057.057-.114.057-.228.057v-.114h.228Zm5.643-15.96c0,.057-.057.114-.114.171a.209.209,0,0,0-.057-.171l.114-.114A.2.2,0,0,0,262.029-25.422Zm4.9,15.789h.171a.177.177,0,0,0-.057.114h-.228Zm1.14-.627.171-.171h.114v.114h-.171Zm.4-4.56h-.057c.057-.057.057-.114.114-.114h.228A.6.6,0,0,1,268.47-14.82ZM245.613-7.353h.171a.177.177,0,0,0-.057.114c-.057,0-.114-.057-.228-.114V-7.41Zm23.541-21.033a.123.123,0,0,1-.114-.114h.114c0,.057,0,.114.114.171a.25.25,0,0,0-.171.057ZM258.723-9.063q-.256,0-.171-.171l.228.114h-.228Zm10.431-8.778.114.057h.114l-.114-.114Zm-16.3,4.047v-.057h.228v.057Zm16.188,5.13c-.057,0,.228,0,.285-.057A.62.62,0,0,1,269.04-8.664Zm-1.026-11.913v-.057S268.071-20.634,268.014-20.577ZM279.129-9.8a.574.574,0,0,1,.057-.171c.285.057.228-.114.228-.228a13.86,13.86,0,0,0,0-1.539,1.165,1.165,0,0,0-.285-.912,2.406,2.406,0,0,1-.171-.684.257.257,0,0,1,.171-.171c.4,0,.4-.228.4-.456V-16.7c0-.228,0-.456-.285-.57-.057-.057-.057-.228.057-.228.285,0,.285-.114.285-.228s-.057-.285-.114-.285c-.4-.057-.228-.171-.057-.342a.427.427,0,0,0,.057-.285v-5.3c0-.456-.057-.513-.627-.57h-.171l-.171-.171a.617.617,0,0,1,.285-.228c.114-.057.228,0,.342-.057s.285-.114.114-.285v-.057c.228-.057.171-.171.171-.285v-4.1c0-.4-.114-.8-.114-1.2,0-.171.114-.342.114-.513v-.513c0-.171,0-.456-.171-.513-.342-.228.171-.285.057-.456a1.154,1.154,0,0,0-.741-.8,3.593,3.593,0,0,0-2.052,0,.377.377,0,0,1-.342.057c-.171-.114-.342-.114-1.425.171-.171.057-.285.285-.456.456-.114.171,0,.285.171.4a.25.25,0,0,1-.171.057c-.057.057-.114.057-.114.171a.972.972,0,0,1,0,.57,2.829,2.829,0,0,0,.057,1.539.689.689,0,0,1,.057.8,1.91,1.91,0,0,0,0,.57c0,.114.114.228.114.342l.171-.171a.209.209,0,0,1-.057.171c0,.057-.057.114-.114.171l-.228.171c0,.057-.057.171,0,.171.228.114.228.228.114.4a1.479,1.479,0,0,0-.114,1.2.791.791,0,0,1,0,.513,3.681,3.681,0,0,0,.114,1.767.275.275,0,0,1,0,.4c-.171.456-.057.8-.228,1.2a.545.545,0,0,0,0,.513.545.545,0,0,1,0,.513,2.138,2.138,0,0,0,0,1.2.791.791,0,0,1,0,.513,2.933,2.933,0,0,0,.114,1.71.487.487,0,0,1,0,.4,1.422,1.422,0,0,0-.057.969.432.432,0,0,1-.114.228c-.285.342-.114.627.114.855.171.171.342.285-.057.342a.123.123,0,0,0-.114.114,1.924,1.924,0,0,0,.114,1.14c.057.114.4.171-.057.285,0,0,.057.228,0,.285a1.276,1.276,0,0,0-.057,1.2A1.29,1.29,0,0,1,274-11.286a.343.343,0,0,0-.057.228.981.981,0,0,1-.057.8c-.057.114.057.285.057.456,0,.114.057.228.057.342a3.25,3.25,0,0,0-.057.741c.057.228-.114.456.057.684.057.057,0,.171,0,.285,0,.228-.057.456-.057.684s.057.456.057.684c.285.114,0,.342.114.513.114.114.057.285,0,.456a1.118,1.118,0,0,0-.057.855.432.432,0,0,1-.114.228c-.114.228-.228.456,0,.684.114.114.057.228,0,.342a.81.81,0,0,0-.114.342c-.114.171,0,.285.171.342s.228.171.057.228-.171.171-.171.342a2.775,2.775,0,0,1-.057.684,1.041,1.041,0,0,0,.285,1.14,2.478,2.478,0,0,0,1.14.4c.456.057.855-.057,1.311,0h.855a1.4,1.4,0,0,0,.912-.342,1.527,1.527,0,0,0,.456-1.2c-.114-.114-.342-.171-.342-.285,0-.171.342.057.4-.114v-1.2c0-.171.057-.342.057-.513,0-.855.057-1.71,0-2.565-.057-.8.057-1.6.057-2.394a1.42,1.42,0,0,0-.171-.969ZM275.823-1.2l-.285-.342V-1.6c0-.114,0-.171.114-.228a.123.123,0,0,1,.114-.114.123.123,0,0,1,.114.114.81.81,0,0,1,.114.342.81.81,0,0,1-.114.342Zm.912-29.412h.114l.4.342a.343.343,0,0,1,.057.228c0,.057-.057.057-.114.057-.228,0-.57-.4-.456-.57Zm-1.6,3.306-.228-.171c-.057-.114,0-.171.171-.228l.171-.228.171-.171a.209.209,0,0,0,.057.171l-.114.342-.228.171Zm1.995-5.928c.057-.057.228-.057.342-.057l.114.114-.57.513-.057-.057a2.023,2.023,0,0,1,.228-.513Zm1.482,3.306.171-.114.4.4c-.114.057-.171.114-.228.114C278.787-29.526,278.559-29.754,278.616-29.925Zm-2.337,19.608h.114c.114.114.114.171-.057.228l-.057.057.171.285v.171l-.285-.114c-.057-.114-.171-.285.114-.342Zm.456-18.183c.228.057.513,0,.456.342v.171l-.171-.171-.285-.171-.114-.171ZM275.2-15.048a.123.123,0,0,1-.114-.114.343.343,0,0,1,.057-.228l.171-.171.171.171v.057a.177.177,0,0,1-.057.114.209.209,0,0,1-.171.057Zm.228,5.472h-.114c-.057-.057-.114-.114-.114-.171a.723.723,0,0,1-.057-.342c.228-.057.171.171.228.285l.171.285a.2.2,0,0,0-.057.114ZM274.8-29.64c.057-.057.114-.114.171-.114a.824.824,0,0,1,.4.114v.057a.62.62,0,0,1-.285.057c-.171,0-.228,0-.285-.057-.057,0-.057-.114-.057-.114Zm1.311,10.659c0-.057.228-.114.285-.114h.285a.574.574,0,0,1,.171.057c0,.171-.114.057-.171.057h-.171c-.114-.057-.228.228-.342,0Zm-1.254,4.1c-.057,0-.114-.057-.171-.114l-.171-.171c.057,0,.114-.057.171-.057.114.057.171.171.285.285-.057.114-.114.228-.171.228Zm1.14,2.223V-13l.171.171.228.285v.114h-.057a.485.485,0,0,1-.171-.285Zm-.285,9.234v-.057a.81.81,0,0,1,.342-.114l.114.114c-.057.057-.114.114-.171.114h-.171Zm1.539-22.4h.171l.228.171h-.4l-.171-.171v-.057ZM275.994-2.109l-.057-.114c.057-.057.114-.114.171-.114l.171.114c-.114.057-.171.114-.228.114Zm.627-4.275-.228-.228a.209.209,0,0,0,.171-.057l.171.171Zm.855-13.566.171.114-.228.171c0-.057-.057-.114-.057-.171A.123.123,0,0,1,277.476-19.95Zm-.228-12.141-.171.171c0-.057-.057-.114-.057-.171s.057-.114.114-.171a.209.209,0,0,0,.057.171Zm-2,2.052.228.228h-.171c-.057-.057-.114-.114-.114-.171ZM276.279-5.7c-.114,0-.114-.057-.171-.114h.057a.3.3,0,0,1,.228.114.2.2,0,0,0-.114.057Zm-.8.684v-.228h.171Zm.8-7.7v-.057h.171v.057Z" transform="translate(0.513) rotate(90)" fill="#fff" opacity="0.2"/>
</svg>
