<svg xmlns="http://www.w3.org/2000/svg" width="35.44" height="205.947" viewBox="0 0 35.44 205.947">
  <path id="パス_598" data-name="パス 598" d="M17.214-32.946l-.057-.114c-.285-.057-.4-.456-.8-.4-.057,0-.114-.114-.171-.171l.171-.171a.209.209,0,0,1,.171-.057c-.057-.057-.114-.114-.171-.114-.171,0-.4-.057-.513,0a.724.724,0,0,1-.684,0,1.259,1.259,0,0,0-.912,0,.74.74,0,0,1-.57.114c-.057,0-.171,0-.114.114,0,.057.171.114,0,.171s-.342.171-.4,0c-.057-.285-.285-.228-.513-.228a4.9,4.9,0,0,0-.912-.057,1.757,1.757,0,0,1-.57-.057,7.643,7.643,0,0,0-2.28,0,.785.785,0,0,1-.627,0,.953.953,0,0,0-.684.057,2.531,2.531,0,0,1-1.14.057c-.4,0-.855-.057-1.311-.057a2.138,2.138,0,0,1-.57-.057,7.115,7.115,0,0,0-2.451.057c-.057,0-.171.057-.228,0-.456-.228-.8-.057-1.254.057a.83.83,0,0,0-.513.342l-.285.684a.855.855,0,0,1,0,1.026v.171A1.5,1.5,0,0,0,.684-30.1a1.68,1.68,0,0,0,.741.285H3.534c.171,0,.285,0,.285-.228,0-.057.057-.114.114-.171,0,.057.057.114.057.171-.114.228.057.285.285.342l.57.228a1.093,1.093,0,0,1,.912,1.083,1.664,1.664,0,0,0,.114.513c0,.057.228.114.228.171a4.4,4.4,0,0,1-.114.855c0,.114-.114.228-.114.342a7,7,0,0,0,.114,1.539,2.159,2.159,0,0,1,0,.855.97.97,0,0,0,.057.4.446.446,0,0,1,.057.456.81.81,0,0,0-.114.342v1.026a.723.723,0,0,0,.057.342.366.366,0,0,1,.057.513c-.228.285-.114.627-.114.969,0,.057.057.114.057.171.057,0,.114-.057.171-.057a.82.82,0,0,1,.171-.114c.057.114.228.228.228.342s-.171.057-.285,0c-.228-.057-.342.057-.342.285s.057.456.057.684-.057.456-.057.684a.427.427,0,0,0,.057.285c.171.171.114.342,0,.513a2.672,2.672,0,0,0,0,1.881.487.487,0,0,1,0,.4,1.694,1.694,0,0,0-.228,1.026,10.381,10.381,0,0,1,.057,1.881.537.537,0,0,0,.228.513.259.259,0,0,1,0,.285.678.678,0,0,0-.228.627c.114.4-.114.855.171,1.254.285.456-.228.8-.057,1.254a9.207,9.207,0,0,1,0,1.254c0,.171.057.342.057.513-.057.342-.228.684.114.969.057.057,0,.171,0,.228l-.171.342a.574.574,0,0,0,.057.171c.171,0,.228.057.114.171-.171.114-.285.228-.285.4.114.342-.057.684.228.969.057.057,0,.228-.057.342a1.893,1.893,0,0,0-.057,1.368A1.4,1.4,0,0,0,7.068-.171a1.493,1.493,0,0,0,.855-.057,4.038,4.038,0,0,1,.8.057.574.574,0,0,0,.057-.171c0-.057-.057-.114-.057-.171V-.684c.057,0,.114,0,.114.057a.753.753,0,0,0,1.083.285A.767.767,0,0,0,10.6-.627,1.374,1.374,0,0,0,11-1.653a2.356,2.356,0,0,0-.114-1.083c-.171-.4.228-.684.114-1.026-.114-.114,0-.228-.114-.342,0-.057-.114-.114-.114-.114-.171.114-.228,0-.285-.114V-4.5h.342c.057-.342.285-.684.057-1.026a.427.427,0,0,1-.057-.285,8.429,8.429,0,0,0,.057-2.394c0-.171-.285-.4-.285-.57s.285-.285.228-.513a4.314,4.314,0,0,1-.057-.855v-.513c0-.171.057-.342.057-.513v-2.907c0-.171.057-.342-.114-.513a.173.173,0,0,1,0-.228,6.713,6.713,0,0,0,.171-2.394V-19.95c0-.228.114-.456-.114-.627a.343.343,0,0,1-.057-.228,1.642,1.642,0,0,0,.057-1.368.97.97,0,0,1-.057-.4c0-.342.057-.684.057-1.026v-2.394c0-.285.114-.57-.114-.8V-26.9a8.849,8.849,0,0,1,.228-1.2c.114-.114.228-.228-.057-.285-.114-.057,0-.342.171-.285.228.114.285-.057.4-.171v-.171h.228l.741-.513c.57.057,1.482.057,1.026-.456.57,0,.4.114,1.311.285.171,0,.285-.057.4-.057h.171a1.276,1.276,0,0,0,1.653-1.2,6.2,6.2,0,0,1,.057-1.026c.057-.342-.171-.684,0-1.026Zm-1.938.4c0,.057-.114.114-.171.114a2.025,2.025,0,0,1-.57-.114c-.057,0-.057-.114-.114-.171.057-.057.114-.114.171-.114h.285c.171.057.4.171.4-.171h.171a.419.419,0,0,1-.114.342ZM1.083-30.723c-.456-.114-.57-.456-.342-.741a.427.427,0,0,1,.285-.057v.171c-.171.171-.171.285.057.4.057,0,.114.057.171.114C1.2-30.78,1.14-30.723,1.083-30.723ZM8.55-26.277l-.342.228c-.057-.114-.114-.171-.114-.228l.171-.285.4-.285c.057,0,0,.342-.228.513ZM7.3-20.919v.171l-.285.228L6.9-20.577v-.342h.057l.171-.171.228.171Zm-.285,7.752c-.057,0-.114-.057-.171-.057.057-.057.114-.114.171-.114v.114c0-.057.057-.057.057-.114a.432.432,0,0,0,.228-.114l.228.171c-.114.057-.171.171-.285.171L7.3-13C7.125-13,7.011-13,7.011-13.167Zm.8,12.6L7.7-.8l.342-.171c.057,0,.114.114.228.228Zm.285-3.819H7.752v-.057l.228-.171a.343.343,0,0,1,.228-.057.177.177,0,0,0,.057.114Zm.228-26.22.228-.171h.171v.171l-.171.171v-.171ZM7.353-7.182l-.228.171v-.171l.228-.171c.057.057.114.114.114.171Zm3.021-25.764c-.114,0-.171-.057-.228-.057l.228-.171c.057.057.114.114.114.171a.2.2,0,0,1-.057.114ZM8.037-6.441,7.809-6.1H7.7l-.057-.057.342-.285ZM7.125-17.556c.114,0,.171-.057.228-.057s.114.057.171.114c-.057.057-.114.114-.171.114s-.057-.057-.114-.114Zm3.249-3.933c.057-.057.114-.114.171-.114s.114.057.171.057v.171a.209.209,0,0,0-.171-.057Zm-3.762-7.3a.2.2,0,0,0,.114.057.3.3,0,0,1-.228.114.2.2,0,0,0-.114-.057l.114-.171Zm.8,13.68c.057,0,.114.057.171.114l-.171.171a.209.209,0,0,0-.171-.057c.057-.057.114-.114.171-.114ZM7.638-2.679c.057,0,.114-.057.171-.057.114,0,.114.057.171.114l-.171.114L7.7-2.679ZM6.669-7.638H6.84c.057.057.114.114.114.171A.056.056,0,0,1,6.9-7.41H6.84ZM9.348-32.775a.209.209,0,0,0,.057.171.209.209,0,0,1-.171.057c0-.057-.057-.114-.057-.171s.057-.057.114-.057Zm-1.2,15.618c0-.057.057-.114.114-.171l.114.114-.171.171L8.151-17.1Zm2.508-2.28c.057,0,.114.057.171.114a.177.177,0,0,0-.057.114c-.057,0-.114-.057-.171-.114A.2.2,0,0,1,10.659-19.437Zm.171-10.2-.171-.171.057-.057.171.171v.057Zm-4.5-.4H6.213v-.171h.114Zm1.995,24.4V-5.7H8.55c-.114.057-.114.114-.114.114H8.265Zm0,.228v-.057h.057v.057Zm2.394-22.344v-.057h.057ZM23.826-9.8a.574.574,0,0,1,.057-.171c.285.057.228-.114.228-.228a13.861,13.861,0,0,0,0-1.539,1.165,1.165,0,0,0-.285-.912,2.4,2.4,0,0,1-.171-.684.257.257,0,0,1,.171-.171c.4,0,.4-.228.4-.456V-16.7c0-.228,0-.456-.285-.57-.057-.057-.057-.228.057-.228.285,0,.285-.114.285-.228s-.057-.285-.114-.285c-.4-.057-.228-.171-.057-.342a.427.427,0,0,0,.057-.285v-5.3c0-.456-.057-.513-.627-.57H23.37l-.171-.171a.617.617,0,0,1,.285-.228c.114-.057.228,0,.342-.057s.285-.114.114-.285v-.057c.228-.057.171-.171.171-.285v-4.1c0-.4-.114-.8-.114-1.2,0-.171.114-.342.114-.513v-.513c0-.171,0-.456-.171-.513-.342-.228.171-.285.057-.456a1.154,1.154,0,0,0-.741-.8,3.593,3.593,0,0,0-2.052,0,.377.377,0,0,1-.342.057c-.171-.114-.342-.114-1.425.171-.171.057-.285.285-.456.456-.114.171,0,.285.171.4a.25.25,0,0,1-.171.057c-.057.057-.114.057-.114.171a.971.971,0,0,1,0,.57,2.829,2.829,0,0,0,.057,1.539.689.689,0,0,1,.057.8,1.911,1.911,0,0,0,0,.57c0,.114.114.228.114.342l.171-.171a.209.209,0,0,1-.057.171c0,.057-.057.114-.114.171l-.228.171c0,.057-.057.171,0,.171.228.114.228.228.114.4a1.479,1.479,0,0,0-.114,1.2.791.791,0,0,1,0,.513,3.681,3.681,0,0,0,.114,1.767.275.275,0,0,1,0,.4c-.171.456-.057.8-.228,1.2a.545.545,0,0,0,0,.513.545.545,0,0,1,0,.513,2.137,2.137,0,0,0,0,1.2.791.791,0,0,1,0,.513,2.933,2.933,0,0,0,.114,1.71.487.487,0,0,1,0,.4,1.422,1.422,0,0,0-.057.969.432.432,0,0,1-.114.228c-.285.342-.114.627.114.855.171.171.342.285-.057.342a.123.123,0,0,0-.114.114,1.924,1.924,0,0,0,.114,1.14c.057.114.4.171-.057.285,0,0,.057.228,0,.285a1.276,1.276,0,0,0-.057,1.2,1.29,1.29,0,0,1,.057,1.026.343.343,0,0,0-.057.228.981.981,0,0,1-.057.8c-.057.114.057.285.057.456,0,.114.057.228.057.342a3.25,3.25,0,0,0-.057.741c.057.228-.114.456.057.684.057.057,0,.171,0,.285,0,.228-.057.456-.057.684s.057.456.057.684c.285.114,0,.342.114.513.114.114.057.285,0,.456a1.118,1.118,0,0,0-.057.855.432.432,0,0,1-.114.228c-.114.228-.228.456,0,.684.114.114.057.228,0,.342a.81.81,0,0,0-.114.342c-.114.171,0,.285.171.342s.228.171.057.228-.171.171-.171.342a2.775,2.775,0,0,1-.057.684,1.041,1.041,0,0,0,.285,1.14,2.478,2.478,0,0,0,1.14.4c.456.057.855-.057,1.311,0h.855a1.4,1.4,0,0,0,.912-.342,1.528,1.528,0,0,0,.456-1.2c-.114-.114-.342-.171-.342-.285,0-.171.342.057.4-.114v-1.2c0-.171.057-.342.057-.513,0-.855.057-1.71,0-2.565-.057-.8.057-1.6.057-2.394a1.42,1.42,0,0,0-.171-.969ZM20.52-1.2l-.285-.342V-1.6c0-.114,0-.171.114-.228a.123.123,0,0,1,.114-.114.123.123,0,0,1,.114.114.81.81,0,0,1,.114.342.81.81,0,0,1-.114.342Zm.912-29.412h.114l.4.342a.343.343,0,0,1,.057.228c0,.057-.057.057-.114.057-.228,0-.57-.4-.456-.57Zm-1.6,3.306-.228-.171c-.057-.114,0-.171.171-.228l.171-.228.171-.171a.209.209,0,0,0,.057.171l-.114.342-.228.171Zm2-5.928c.057-.057.228-.057.342-.057l.114.114-.57.513-.057-.057a2.025,2.025,0,0,1,.228-.513Zm1.482,3.306.171-.114.4.4c-.114.057-.171.114-.228.114C23.484-29.526,23.256-29.754,23.313-29.925ZM20.976-10.317h.114c.114.114.114.171-.057.228l-.057.057.171.285v.171l-.285-.114c-.057-.114-.171-.285.114-.342ZM21.432-28.5c.228.057.513,0,.456.342v.171l-.171-.171-.285-.171-.114-.171ZM19.893-15.048a.123.123,0,0,1-.114-.114.343.343,0,0,1,.057-.228l.171-.171.171.171v.057a.177.177,0,0,1-.057.114.209.209,0,0,1-.171.057Zm.228,5.472h-.114c-.057-.057-.114-.114-.114-.171a.723.723,0,0,1-.057-.342c.228-.057.171.171.228.285l.171.285a.2.2,0,0,0-.057.114ZM19.494-29.64c.057-.057.114-.114.171-.114a.824.824,0,0,1,.4.114v.057a.62.62,0,0,1-.285.057c-.171,0-.228,0-.285-.057-.057,0-.057-.114-.057-.114Zm1.311,10.659c0-.057.228-.114.285-.114h.285a.574.574,0,0,1,.171.057c0,.171-.114.057-.171.057H21.2c-.114-.057-.228.228-.342,0Zm-1.254,4.1c-.057,0-.114-.057-.171-.114l-.171-.171c.057,0,.114-.057.171-.057.114.057.171.171.285.285-.057.114-.114.228-.171.228Zm1.14,2.223V-13l.171.171.228.285v.114h-.057a.485.485,0,0,1-.171-.285ZM20.406-3.42v-.057a.81.81,0,0,1,.342-.114l.114.114c-.057.057-.114.114-.171.114H20.52Zm1.539-22.4h.171l.228.171h-.4l-.171-.171v-.057ZM20.691-2.109l-.057-.114c.057-.057.114-.114.171-.114l.171.114c-.114.057-.171.114-.228.114Zm.627-4.275-.228-.228a.209.209,0,0,0,.171-.057l.171.171Zm.855-13.566.171.114-.228.171c0-.057-.057-.114-.057-.171A.123.123,0,0,1,22.173-19.95Zm-.228-12.141-.171.171c0-.057-.057-.114-.057-.171s.057-.114.114-.171a.209.209,0,0,0,.057.171ZM19.95-30.039l.228.228h-.171c-.057-.057-.114-.114-.114-.171ZM20.976-5.7c-.114,0-.114-.057-.171-.114h.057a.3.3,0,0,1,.228.114.2.2,0,0,0-.114.057Zm-.8.684v-.228h.171Zm.8-7.7v-.057h.171v.057Zm12.2-13.794c0,.513.342,1.14,0,1.71a5.473,5.473,0,0,0,.057,1.482v.171c-.228.513.171,1.71-.285,2.052-.057.057-.057.114.057.057.228-.057.228.114.228.228,0,.171-.057.342-.057,2.793a.432.432,0,0,1-.114.228c-.228.171-.228.228-.057.4.114.114.342.171.171.342-.114.057-.114.114-.057.171,0,.285.057.57.057.855v1.425l-.114-.171c-.057-.057-.171-.171-.228-.171-.228.114,0,.228,0,.342,0,.171,0,.4.057.4.114.057.228.114.228.171v.171h.057v-.114c.057.114,0,.285,0,.4v.855c0,.114.057.228,0,.285a1.433,1.433,0,0,0-.114.855,2.861,2.861,0,0,0,.114.684c0,.171-.114.342-.057.57.114.57.114,1.14.228,1.71,0,.228-.171.342-.228.456h.114c0,.342.228.627.114.969a3.451,3.451,0,0,0,0,1.083c0,.171.114.342.4.342.228,0,.228.171.285.285.171.513.8.684,1.254,1.083.171.114.285.228.513.171a.951.951,0,0,1,.57,0c.285.171.513.285.684-.057,0-.057.114-.057.171-.057h1.311c.228,0,.57.228.855.114a.791.791,0,0,1,.513,0c.228.171.342-.114.513-.114.456,0,.855.057.684.4a1.17,1.17,0,0,1,.285.969,6.016,6.016,0,0,0-.114,1.425,1.625,1.625,0,0,1-.8,1.425,2.779,2.779,0,0,1-.627.228,11.448,11.448,0,0,1-1.368.057h-.456c-.741-.114-1.539.114-2.85.114-.171,0-.285-.228-.513-.114a2.747,2.747,0,0,1-.684,0l-1.6-.114-.684-.228-.4-.171c-.171-.057-.4-.057-.456-.285,0-.057-.114-.114-.171-.114a2.545,2.545,0,0,1-1.539-1.425,6.793,6.793,0,0,1-.456-1.14.377.377,0,0,1,.057-.342l.285-.285q0-.086-.171-.171a.209.209,0,0,0-.171.057l-.171.171c-.057-.057-.228-.114-.228-.171a6.313,6.313,0,0,1-.114-1.083,2.122,2.122,0,0,0-.114-1.026,3.288,3.288,0,0,1-.171-.8.343.343,0,0,1,.057-.228c.342-.342-.057-.741.114-1.14-.456-.342-.057-.627,0-.912a.545.545,0,0,0,0-.513c-.171-.171-.228-.285-.057-.456s.114-.342,0-.57a.54.54,0,0,1,.171-.627.2.2,0,0,0,.114.057l.342-.342c.057-.057.228.114.228-.114,0-.057-.171-.114-.285-.114a1.16,1.16,0,0,1-.285.057H28.1c.114-.4-.456-.456-.342-.8a4.314,4.314,0,0,0,.057-.855c0-.114.057-.228.057-.342a2.846,2.846,0,0,1,.114-1.539c.057-.057,0-.228-.057-.342-.285-.228-.171-.456,0-.627s.114-.342,0-.513c-.057-.114-.114-.228,0-.342a.954.954,0,0,0,0-1.026,1.765,1.765,0,0,1-.057-1.425.971.971,0,0,0,0-.57,1.42,1.42,0,0,1,.114-1.083,1.664,1.664,0,0,0,.114-.513c0-.285-.114-.57.057-.855a1.2,1.2,0,0,1,.057-1.083.7.7,0,0,0-.114-.57,1.746,1.746,0,0,1-.171-1.311.985.985,0,0,0,.057-.57,1.875,1.875,0,0,1,.114-1.14c.114-.285.342-.513-.057-.741-.171-.114-.057-.342.057-.456a.366.366,0,0,0,.057-.513c-.114-.171-.057-.285.057-.456.285-.228.285-.456.057-.8a1.955,1.955,0,0,1-.171-1.6.985.985,0,0,0-.057-.57,1.133,1.133,0,0,1,.741-1.14,6.628,6.628,0,0,0,1.026-.228h.057c.4.285.741.114,1.14-.057h.171a2.043,2.043,0,0,1,1.767.741,3.481,3.481,0,0,1,.171.741.385.385,0,0,0-.057.57,1.779,1.779,0,0,1,.171,1.2,6.984,6.984,0,0,1-.114,1.083c0,.114-.114.228-.171.342.285.171.171.456.228.969ZM30.837-1.368c.171.114.285,0,.285-.171a.664.664,0,0,0-.57-.57A.435.435,0,0,0,30.267-2c-.057.057,0,.228.057.285l.57.456Zm-1.653-29.64a2.861,2.861,0,0,0,.114.684c0,.057.114.114.114.114l.228-.171a.758.758,0,0,1-.171-.4c0-.114-.057-.228,0-.285.228-.228.057-.4,0-.57,0-.057-.057-.114-.114-.171v.171a1.811,1.811,0,0,0-.171.513Zm.741,23.655c0,.057.057.114.114.171l.228-.171a.209.209,0,0,0,.057-.171v-.228c.057.057.057.114.114.114l.171-.171c.114-.057.285-.114.342-.228v-.171h-.114c-.171.171-.285.114-.456,0,0,0-.171.171-.171.228s0,.114.057.114c-.171.057-.228.171-.285.342V-7.3Zm.912-10.26c.057-.057.114-.057.171-.171l.171-.171a.269.269,0,0,1-.057-.342.97.97,0,0,0,.057-.4,1.192,1.192,0,0,0-.342.228c-.285.228-.285.285.057.513l.057.114a.2.2,0,0,0-.114.057Q30.581-17.7,30.837-17.613Zm.969,12.6a4.038,4.038,0,0,0-.057-.8c0-.114-.114-.285-.171-.285-.228,0-.057.171-.057.285v.8c0,.057.114.114.171.114A.123.123,0,0,0,31.806-5.016ZM40.527-1.14a.847.847,0,0,0-.057-.342c-.114-.228,0-.513-.342-.684v-.171c0-.057-.057-.057-.057-.114v.114c0,.057.057.114.057.171-.171.285,0,.513.114.741C40.3-1.311,40.356-1.083,40.527-1.14ZM31.179-14.649a.574.574,0,0,0,.057-.171V-15.1c0-.171-.228-.456-.342-.4-.285.114.057.228.057.342a.723.723,0,0,0,.057.342c0,.057.114.114.171.114Zm1.026,6.042.57-.171.171-.171c-.057-.057-.114-.114-.171-.114a.343.343,0,0,0-.228.057l-.342.342Zm.285-8.265c-.057,0-.114.057-.171.114-.057.114.171.285.4.228.057,0,.114-.057.171-.057,0-.171-.114-.285-.285-.228Zm.057-3.078c-.114.057-.285.057-.285.285h-.114v.114h.171v-.057l.4-.171ZM29.526-8.664l.4-.171v-.171a.2.2,0,0,0-.057-.114l-.4.342ZM29.469-6.1a.209.209,0,0,0,.057-.171h-.342a.123.123,0,0,0-.114.114c0,.057.057.114.057.171.171-.057.228-.057.285-.114Zm-.114-19.437c.057,0,.114-.114.171-.171l-.057-.057c-.114,0-.228.114-.285-.114-.057.057-.114.114-.114.171a.151.151,0,0,0,.171.171Zm1.824-5.3a1.511,1.511,0,0,0-.342.285l.228.114a1.192,1.192,0,0,0,.228-.342Zm-2.907-.171a.412.412,0,0,0,.228-.342.9.9,0,0,1-.228-.057c-.057.114-.114.171-.114.285ZM29.754-28.1l.171-.171c-.057-.057-.114-.114-.171-.114a.435.435,0,0,0-.285.114l.228.171Zm-.285-4.617c-.057,0-.114.057-.171.057l.171.171.285-.171a.3.3,0,0,0-.228-.114Zm2.166,7.125c0-.057,0-.114-.057-.114l-.4-.171-.057.057c0,.228.285.057.4.228Zm3.7,23.028h.114v.114c0,.057.057.057.114.057v-.171h-.057v-.171c0-.057-.057-.114-.114-.171H35.34a.427.427,0,0,0,.057.285ZM30.5-10.374h-.171c.057.057.114.171.171.171.114,0,.228-.057.4-.057l-.4-.171ZM30.438-27.36c0,.057-.057.114-.057.171,0,.171.114.114.228.057V-27.3c0-.057-.057-.057-.114-.114ZM32.832-4.1c0,.057.114.114.171.114s.114-.057.171-.114c-.057-.057-.114-.114-.171-.114h-.171ZM30.5-5.415c-.114,0-.285.114-.285.228l.057.057a.569.569,0,0,0,.285-.228Zm0-19.038-.4-.171c0,.057,0,.114.114.171l.171.171.057-.057ZM35.8-.342c.114,0,.114-.114.114-.171h-.228c-.057,0-.114.057-.228.114a1.16,1.16,0,0,1,.285.057ZM32.205-23.313l-.228-.171h-.285v.114h.171ZM30.5-27.645c.114,0,.228.057.228-.114,0-.057-.057-.114-.057-.171l-.171.171Zm.4,17.9c-.057-.057-.171-.114-.171-.171a.82.82,0,0,1-.171.114l.171.171Zm5.814,7.923a.209.209,0,0,1,.171.057l.171-.171-.114-.114Zm-4.674-16.3a.3.3,0,0,0,.228-.114c-.057-.057-.114-.057-.228-.057a.2.2,0,0,1-.114.057c0,.057,0,.114.057.114ZM29.982-4.788l.057-.114c0-.057-.057-.114-.114-.171l-.114.114.171.228ZM30.039-18.7c.057,0,.171.057.228.057s.114-.057.228-.114h-.456Zm3.078-6.156c-.057,0-.114-.057-.171-.057s-.057.057-.114.114l.114.114ZM30.267-10.6a.056.056,0,0,1,.057.057h.114a.209.209,0,0,0,.057-.171l-.057-.057Zm8.322,7.011H38.7V-3.7l-.171-.171h-.057v.057l.171.171ZM29.64-15.333l-.228-.171-.057.057.171.171Zm2.109-9.234h-.057c-.057.057-.114.114-.114.171v.114h.057a.209.209,0,0,0,.057-.171Zm-1.995,4.332.171.171.057-.057-.171-.171H29.64Zm1.653,8.664c.114,0,.114.057.114.057l.171-.171-.057-.057Zm.456,4.617c.057,0,.114-.057.171-.114a.209.209,0,0,1-.171-.057.209.209,0,0,0-.057.171l.057.057ZM40.356-.8V-.855h-.114v.171h.171ZM32.319-9.12c0-.057-.057-.114-.057-.171,0,.057-.057.114-.057.171s.057.114.114.171ZM29.3-26.334v.171c.057-.057.114-.057.114-.114v-.171Zm1.71,14.991v.171h.114v-.171ZM30.837-26.9v-.114h-.171v.114Zm1.425,2.223v.114l.171.171v-.171h-.114Zm-2.28.057h-.057l-.057.057H30.1ZM32.6-19.608c.228-.057.228-.114.171-.114h-.057v.057Zm-1.425,8.436v-.171h-.057Zm-.855,3.306v.114a.2.2,0,0,1-.057-.114Zm.627-9.975.057-.057v.114Zm2.223,3.819v.057l-.057-.057ZM59.508-4.1A12.426,12.426,0,0,0,56.6-4.218a.259.259,0,0,1-.285,0,.879.879,0,0,0-.912.057.343.343,0,0,1,.228.057c.057,0,.057.057.114.114a.432.432,0,0,1-.228.114L55.347-4.1a1.207,1.207,0,0,0-.4-.171,3.919,3.919,0,0,0-1.824.114h-.057a2.424,2.424,0,0,0-1.425-.171.2.2,0,0,0-.114-.057L50.5-5.13c-.228-.057-.285-.171-.285-.456a.485.485,0,0,0-.171-.285c-.228-.4-.4-.285-.342-.8.057-.627-.285-1.254-.285-1.881a12.4,12.4,0,0,0-.057-2.907,12,12,0,0,1,.114-1.425c1.824-1.311,2.565-.627,3.42-.456a3.735,3.735,0,0,0,.8,0,2.469,2.469,0,0,1,.285-.057c.285.171.513,0,.8-.057a2.138,2.138,0,0,0,.57-.057.406.406,0,0,0,.342-.171c.285-.285.8-.57.684-.969-.057-.57-.114-1.14-.114-1.71,0-.513-.57-.855-1.026-1.083-.4-.171-.513-.171-.855.114l-.342.342a1.341,1.341,0,0,1-.912.285l.285-.171.171-.342-.4-.114a1.738,1.738,0,0,0-.912-.171c-.114,0-.456.114-.513.114a4.87,4.87,0,0,1-1.368-.513,1.826,1.826,0,0,1-.969-1.6c0-.456.228-3.021.342-3.477,0-.114-.057-.228-.057-.342,0-.228-.228-.456-.228-.684,0-.912.4-1.824.4-2.736a8.647,8.647,0,0,1,.171-1.2.857.857,0,0,1,.228-.627,2.316,2.316,0,0,1,1.425-.969c.285-.057.627-.228.969,0,.114.057.228,0,.342,0h4.674c.57,0,1.026-.228,1.083-.855v-.057c.228-.057.627-.171.627-.456v-1.368a2.775,2.775,0,0,0-.057-.684,1.293,1.293,0,0,0-.912-.627c-.342,0-.627-.114-.969-.114a8.628,8.628,0,0,1-1.71-.114c-.057,0-.228.057-.228.114,0,.228-.057.114-.171,0a.611.611,0,0,0-.342-.114,8.028,8.028,0,0,0-1.14.057,1.273,1.273,0,0,1-.627-.057.974.974,0,0,0-.684.057,2.531,2.531,0,0,1-1.14.057,10.943,10.943,0,0,1-1.368,0h-.57a7.268,7.268,0,0,0-2.223,0c-.228.057-.4.114-.57,0a.629.629,0,0,0-.456,0c-.513.114-1.083.114-1.2.741a1.641,1.641,0,0,0-.057.741c0,.057.057.171,0,.228a.816.816,0,0,1-.513.57,1.683,1.683,0,0,0,.114.741c.171.4.4.8.171,1.254a.487.487,0,0,0,0,.4.473.473,0,0,1-.114.456c-.171.171-.228.342,0,.513.114.114,0,.285-.057.456l.057.513c-.057.228-.171.456.057.684a.727.727,0,0,1,0,.684c-.114.171-.114.285.114.171h.114v.114c-.285.057-.285.285-.285.513,0,.057.057.114.114.171v.057l.342-.513h.057v.057l.114.057-.4.513H44.8a1.241,1.241,0,0,1-.114,1.083c-.057.114.057.285.114.4.057.171-.171.285-.342.456-.171.342-.171.342.171.627.057.057.114.057.057.171-.57.8-.114,1.2-.342,1.938a1.331,1.331,0,0,0,0,1.14c.228.4.4.8.114,1.2a.624.624,0,0,0,0,.456.366.366,0,0,1-.057.513c-.114.171-.171.342,0,.513a.3.3,0,0,1,.057.456l-.114.342c-.228.57.228.969,0,1.425a1.276,1.276,0,0,0,.057,1.2.949.949,0,0,1-.057,1.083.624.624,0,0,0,0,.456c.057.228.285.4.114.57a.336.336,0,0,0,.114.513.338.338,0,0,1,.057.4l-.171.513c-.114.228.114.456.228.741a1.171,1.171,0,0,1,0,.627c-.627,1.254.4,1.824.228,2.166a1.118,1.118,0,0,0-.057.855.432.432,0,0,1-.114.228c-.171.228-.285.456,0,.684a.343.343,0,0,1,.057.228l.114.513a.727.727,0,0,0,0,.684.727.727,0,0,1,0,.684.5.5,0,0,0-.057.4c.513,1.368,2.109,1.2,3.192,1.026a2.469,2.469,0,0,0,.285.057H51.3c.228,0,.4-.057.57-.057h2.451c.4,0,.741.057,1.14.057a6.69,6.69,0,0,1,1.482-.057,6.527,6.527,0,0,0,1.824-.057.65.65,0,0,0,.342-.171c.228-.228.627-.513.627-.855,0-.456-.171-.912-.171-1.368ZM50.274-15.561l.342-.684a.485.485,0,0,1,.285-.171,1.241,1.241,0,0,1,.456.285.812.812,0,0,1-.114.228,1.173,1.173,0,0,1-.855.456c0-.057-.057-.114-.057-.171ZM47.937-28.1h.228c.228,0,.285.114.228.4l-.171.57c0,.057-.057.114-.057.171-.057-.057-.114-.114-.114-.171,0-.171-.228-.171-.456-.228C47.481-27.417,47.823-27.987,47.937-28.1Zm-1.026,2.508s.057-.171.114-.171l.57-.228a1.207,1.207,0,0,1,.4.171l-.684.342a.963.963,0,0,1-.285-.114Zm-.171-.57h-.057c-.057-.057-.114-.114-.114-.171v-.228c.4-.114.228-.513.342-.741,0-.057.057-.114.057-.171h.171a3.481,3.481,0,0,1-.171.741,2.677,2.677,0,0,1-.342.513Zm2.109-.684-.684.57v-.342l.57-.342c.057-.057.114,0,.228,0,0,.057-.114.114-.114.171Zm8.265-4.674v-.171l.171-.342.114.228v.228l-.171.513c-.228-.114-.057-.285-.057-.456ZM51.186-2.052l-.4.342h-.114v-.057a.907.907,0,0,1,.513-.513H51.3v.057Zm-2.394-30.21h.057s0,.057.114.114l-.4.513h-.057v-.057l.171-.513Zm-3.477,5.985v-.057a.569.569,0,0,1,.228-.285c.057-.057.285-.057.285,0,.057.114-.114.171-.228.228l-.342.171Zm1.6-5.472h.4l-.171.171-.456-.171h-.171a.81.81,0,0,1,.342-.114c.114,0,.285.057.4.057ZM51.927-1.368v-.114l-.342-.171c-.057,0-.057-.057-.057-.114H51.7l.342.228h.114v.171c-.114,0-.171,0-.171-.057Zm-5.7-8.949.513-.171.114.114-.342.171a2.469,2.469,0,0,0-.285-.057Zm6.555-20.235c0,.057,0,.114-.114.114a.692.692,0,0,1-.741.057.888.888,0,0,0,.684-.171Zm1.653,28.9v-.114a1.45,1.45,0,0,1,.4-.114l.057.057v.057l-.285.114ZM45.714-15.447a.824.824,0,0,1,.4.114,1.113,1.113,0,0,0-.4.057l-.171-.171c.057-.057.114-.114.171-.114ZM47.2-33.174l.171.171c0,.057-.057.114-.114.228-.057-.114-.114-.171-.114-.228v-.171Zm5.643,16.3c0,.057.057.114.057.171s-.057.114-.057.171l-.228-.171Zm2.736,2.964a.209.209,0,0,0,.057.171.209.209,0,0,1-.171.057c0-.057-.057-.114-.057-.171s.057-.114.114-.171Zm-.057-1.938.114.171-.513-.171V-15.9ZM48.564-1.254l-.171-.171.171-.171c0,.057.057.114.057.171S48.564-1.311,48.564-1.254ZM47.139-18.3h.342l-.171.171a.209.209,0,0,0-.171-.057ZM45.372-22c.057,0,.114.057.171.114l-.114.114-.171-.171L45.315-22Zm.456-9.69h.057v.171h-.228v-.057Zm-.456,11.8.171.171c-.057,0-.114.057-.171.057l-.057-.057A.209.209,0,0,1,45.372-19.893ZM49.818-1.6l-.171-.171.057-.057h.171l-.057.057Zm-5.13-17.1v-.342c.057.057.114.114.114.171S44.745-18.753,44.688-18.7ZM58.71-31.578l.057.057c-.057.057-.114.114-.171.114l-.057-.057.171-.171Zm-6.156-.855.228.171-.114.057c-.057-.057-.114-.114-.114-.171Zm-7.125.855h-.171a.177.177,0,0,0,.057-.114h.171ZM48.963-4.845a.3.3,0,0,1-.228-.114h.285a.209.209,0,0,1-.171.057Zm2.85-25.593h-.171v-.114H51.7Zm2.28,14.478v.171h-.057v-.057ZM52.839-32.091v.057h-.057v-.057Zm18.126,1.539a12.343,12.343,0,0,0-.855,2.565,2.137,2.137,0,0,0-.057.627,1.915,1.915,0,0,1-.285.912,1.465,1.465,0,0,0-.057,1.2c.171.4.342.8.057,1.2a.209.209,0,0,0-.057.171c.057.285-.171.513-.342.8a.173.173,0,0,0,0,.228c.228.285.057.57,0,.912a4.286,4.286,0,0,0,0,.855v.4a1.95,1.95,0,0,0,.057,1.14,1.206,1.206,0,0,1,0,1.083.427.427,0,0,0-.057.285.733.733,0,0,1-.057.684.629.629,0,0,0,0,.456.434.434,0,0,1,0,.456,1.461,1.461,0,0,0,0,1.2.791.791,0,0,1,0,.513,2.237,2.237,0,0,0,.114,1.71c.057.171.228.342.171.57a2.025,2.025,0,0,0-.114.57.847.847,0,0,1-.114.513.629.629,0,0,0,0,.456c.057.171.285.285.228.456a2.861,2.861,0,0,0-.114.684c0,.228.285.4.4.627.342,0,.114.4.342.456v.057a.107.107,0,0,1,0,.171v.114c-.171.228-.171.228-.057.513v.171a.605.605,0,0,0,.114.741.427.427,0,0,1,.057.285c-.057.228-.171.4,0,.513q.171.086.171.171l.342.969a2.832,2.832,0,0,0,.741,1.083.433.433,0,0,1,.285.513.343.343,0,0,0,.057.228c.285.228.285.684.8.741v.114c.114.456.57.684.969.969.171.171.57.171.57.513a.123.123,0,0,0,.114.114L75.7-.171A3.342,3.342,0,0,0,77.52.114h.855A4.858,4.858,0,0,0,80.6,0a.209.209,0,0,1,.171-.057,4.9,4.9,0,0,0,1.824-.285,4.185,4.185,0,0,0,1.539-.969c.228-.171,1.083-.627,1.2-.855a1.216,1.216,0,0,0,.4-.684c.057-.114-.285-.4.228-.285a.2.2,0,0,0,.057-.114A5.815,5.815,0,0,0,86.526-4.5c.171-.684.4-.912.57-1.539a2.775,2.775,0,0,0,.057-.684c0-.171,0-.171-.228-.285a.123.123,0,0,1-.114-.114c0-.171.057-.285.285-.285.171,0,.171,0,.057-.114A.209.209,0,0,1,87.1-7.7a2.607,2.607,0,0,0,.057-1.482l.4-.456v-.342a1.751,1.751,0,0,0,.114-1.2A1.231,1.231,0,0,0,86.184-12.2a5.616,5.616,0,0,1-.969.114,3.616,3.616,0,0,1-1.368-.171,2.469,2.469,0,0,0-.285.057c0,.228-.114.171-.285.114-.057,0-.171.057-.171.114,0,.228-.114.342-.285.513a.842.842,0,0,0-.171,1.026,2.556,2.556,0,0,1,0,1.311,4.544,4.544,0,0,0-.171.855,3.465,3.465,0,0,0-.057,1.083A1.154,1.154,0,0,1,82.08-6.1a.8.8,0,0,0-.171.513c0,.114,0,.171-.114.228-.285.228-.627.4-.513.855a.432.432,0,0,1-.114.228c-.057.114-.4.171-.513.228l-.171-.171c-.228,0-.342.057-.285.285-.741,0-.969.057-1.254.057s-.57,0-.684.285H78.2a.2.2,0,0,0-.057-.114c.114-.228-.114-.285-.342-.342a12.062,12.062,0,0,1-1.2-.627A2.05,2.05,0,0,1,75.924-5.7L75.7-6.042a.512.512,0,0,1-.114-.513.933.933,0,0,0-.114-.684.582.582,0,0,1-.228-.57c-.057-.627-.342-1.254-.4-1.824-.171-1.311-.228-2.679-.4-3.933a4.314,4.314,0,0,1,.057-.855v-4.047c0-.627-.114-1.254-.057-1.824a17.944,17.944,0,0,0,.285-2.451c0-.912.456-1.881.456-2.85,0-.228-.114-.513.171-.684v-.114c0-.456.342-.969.114-1.539a.343.343,0,0,1,.057-.228,2.212,2.212,0,0,0,.342-.627,2.9,2.9,0,0,1,2.166-1.482c.057,0,.114-.057.171-.057a1.389,1.389,0,0,1,.684,0l.4.114a3.529,3.529,0,0,1,1.083.4,6.245,6.245,0,0,1,1.2,1.254.209.209,0,0,1,.057.171,2.287,2.287,0,0,1,.171.855.532.532,0,0,0,.285.57.614.614,0,0,1,.114.456c0,.057-.114.114-.171.171.057,0,.114.057.171.057h-.171v1.2c0,.171,0,.4.171.513.228.114.228.285.057.456-.171.285,0,.456.228.627a1.1,1.1,0,0,0,.513.285.513.513,0,0,0,.57.057,1.563,1.563,0,0,1,1.14.057.97.97,0,0,0,.4.057,3.25,3.25,0,0,0,.741-.057,3.006,3.006,0,0,1,.684-.171.847.847,0,0,0,.684-.684,10.176,10.176,0,0,0,.114-1.311c0-.285-.114-.57-.114-.855a2.8,2.8,0,0,0-.4-1.767.214.214,0,0,1,0-.342c.171-.171.057-.342,0-.513-.228-.627-.4-1.2-.627-1.71a9.072,9.072,0,0,0-.741-1.254.838.838,0,0,0-.285-.342.555.555,0,0,1-.342-.285c-.057-.285-.285-.4-.513-.513-.171-.057-.342-.114-.4-.228-.114-.285-.4-.342-.684-.4a.209.209,0,0,1-.171-.057.954.954,0,0,0-1.14-.285c-.171.057-.4-.057-.4-.171,0-.057.228-.114-.057-.171a10.521,10.521,0,0,1-1.311-.228,1.943,1.943,0,0,0-1.14,0,.662.662,0,0,1-.57,0,.852.852,0,0,0-.741.057l-.513.114a6.9,6.9,0,0,1-1.083.057,2.108,2.108,0,0,0-1.539.513.343.343,0,0,1-.228.057.3.3,0,0,1-.228.114,2.425,2.425,0,0,0-1.311.8c-.342.342-.57.855-1.083,1.026-.171.057-.228.228-.285.342A3.232,3.232,0,0,1,70.965-30.552Zm2.109,4.275a1.6,1.6,0,0,1-.57.8h-.057v-.171l.342-.684.228-.171c.057.057.114.114.114.171Zm8.436-3.648.342-.171a.963.963,0,0,1,.285.114.919.919,0,0,1-.228.4.482.482,0,0,1-.342.114c-.057,0-.057-.342,0-.456Zm3.306-1.254a1.192,1.192,0,0,1,.342-.228h.171c.057,0,.057.057.114.171a1.192,1.192,0,0,1-.228.342.259.259,0,0,1-.285,0,.162.162,0,0,1,0-.285Zm.8,22.857c0-.057-.057-.114-.057-.171s.057-.114.057-.171c0,.057.8.456.855.513v.171ZM83.505-5.415c-.057-.057-.114-.114-.114-.171,0-.342.057-.456.342-.513a.574.574,0,0,1,.171.057l-.171.342a.209.209,0,0,0-.057.171ZM71.991-9.405a.435.435,0,0,1,.114-.285l.114-.171h.171v.456q0,.086-.171.171c-.057-.057-.171-.114-.171-.228Zm-1.71-17.841h.057c.228.114.114.285.114.456v.114l-.228.171c-.057-.057-.114-.114-.114-.171-.057-.171.171-.285.171-.456ZM71.592-18.3c0-.114.114-.171.228-.285.057.114.171.228.171.285a.379.379,0,0,1-.285.228c-.171,0-.228-.114-.171-.228Zm1.539,2.109.342-.342h.171v.171l-.342.342h-.114a.2.2,0,0,0-.057-.114ZM72.618-3.135v-.171a.824.824,0,0,1,.4-.114c.057,0,.114.057.228.171a2.891,2.891,0,0,1-.513.114ZM69.54-14.991l.114.114A.847.847,0,0,1,70-14.82c.057,0,.057.114.057.171a.123.123,0,0,1-.114.114.2.2,0,0,1-.057-.114l-.114.114L69.6-14.82H69.54ZM82.593-32.718c0-.057.057-.114.114-.171v.171l-.171.342c0,.057-.057.114-.114.171,0-.057-.057-.114-.057-.171a.723.723,0,0,1,.057-.342ZM73.872-6.27c.057-.228.228-.285.456-.342l.057.057a.581.581,0,0,1-.456.285Zm-2.85-16.587h-.8l.114-.114h.57Zm4.731-9.861H76.1a.056.056,0,0,1,.057-.057.209.209,0,0,1,.171-.057l.057.057a.123.123,0,0,1-.114.114H76.1a1,1,0,0,1-.342.057c-.057,0-.114-.057-.171-.057H75.7Zm-3.99,11.97h-.228v-.057l.4-.171.114.114-.228.171ZM70.794-22.4c.057-.057.114-.114.171-.114a2.242,2.242,0,0,1,.342.114c-.285.057-.342.114-.456.114Zm8.892-11.457a.432.432,0,0,1,.228.114l-.228.171-.171-.171C79.572-33.8,79.629-33.858,79.686-33.858ZM83.505-6.5q0-.086.171-.171l.171.171-.171.171c0-.057-.114-.114-.114-.171ZM71.136-13a1.057,1.057,0,0,1,.4.114c-.057,0-.342.057-.342.057l-.171-.114ZM82.251-5.7a.432.432,0,0,1-.228-.114.574.574,0,0,0,.171-.057.432.432,0,0,1,.228.114l-.171.114Zm.8-.057c0,.057-.057.057-.171.057l-.057-.057q0-.086.171-.171a.2.2,0,0,0,.057.114ZM72.162-14.934a.343.343,0,0,1,.228-.057l.057.057c0,.057-.057.114-.114.171Zm-.627-15.447h.228c.057,0,.114.057.171.114h-.4ZM72.9-20.463h.228v.171a.431.431,0,0,1-.228-.057ZM71.934-9.12c0-.057.057-.114.114-.171,0,.057.057.114.057.171l-.171.171Zm-1.71-.456c-.057-.057-.342-.057-.456-.114l.114-.057a1.057,1.057,0,0,0,.4.114v.171Zm4.275-23.2h-.057c.057-.057.057-.114.114-.114a.441.441,0,0,1,.171.057c-.057.057-.114.114-.171.114ZM79.629-.8h-.114V-.855h.171c0,.057,0,.114-.057.114ZM73.7-6.1v-.114h.171C73.815-6.156,73.758-6.1,73.7-6.1Zm-4.047-8.778H69.6v.057h.114Zm.456,0h-.057v-.057h.057ZM76.1-32.718v.057a.056.056,0,0,1,.057-.057Zm33.231,18.411a13.86,13.86,0,0,1,0-1.539c0-.912-.114-1.824-.057-2.736,0-.114-.057-.228-.057-.342,0-.057-.057-.171,0-.228.171-.171.114-.4.114-.627a5.508,5.508,0,0,0-.057-1.368c0-.057.057-.114.057-.171v-2.166c-.057.114-.912-.4-.57-.4.627-.057.228-.456.228-.912v-.342c0-.342-.228-.684-.171-1.026a3.849,3.849,0,0,0-.114-.8c-.057-.228.057-.57-.342-.741-.057,0-.057-.228,0-.285.171-.114.171-.228.114-.342l-.342-1.026-.456-1.026a3.334,3.334,0,0,0-.8-1.368c-.057-.114-.228-.171-.285-.285-.171-.114-.228-.342-.342-.456a4.889,4.889,0,0,1-1.14-.741.994.994,0,0,1-.684-.342,1.1,1.1,0,0,0-.513-.285,11.258,11.258,0,0,0-1.482-.456A10.838,10.838,0,0,0,101-34.485c-.4,0-.741-.057-1.2-.057a1.939,1.939,0,0,0-.57.057,5.525,5.525,0,0,1-1.311.171A2.962,2.962,0,0,0,96.1-33.8l-.57.171a2.174,2.174,0,0,0-.8.627c-.228.342-.627.513-.8.912,0,.057-.114.114-.171.114a.867.867,0,0,0-.57.741c-.057.228-.57.456-.684.627-.228.456-.57.456-.342.855,0,.057,0,.171-.057.171a.431.431,0,0,1-.228.057c-.057,0,0-.228-.057-.057a.919.919,0,0,0-.171.513,1.7,1.7,0,0,1-.285.855v.114h.171c.057-.057.171-.228.228-.057.114.4.4.342.684.285.171-.057.627.057.627.171a.208.208,0,0,1-.114.285c-1.026,0-1.938-.171-2.394.285-.114.285-.057.57-.171.8a1.635,1.635,0,0,0,0,1.539,1.171,1.171,0,0,1,0,.627c-.057.171-.228.4-.114.57a.524.524,0,0,1-.114.57.3.3,0,0,0,0,.456.328.328,0,0,1,.171.456,1.812,1.812,0,0,0-.171.513,1.911,1.911,0,0,0,0,.57c.285.456-.456,1.14.342,1.653l.4.342v.171a.574.574,0,0,0-.171.057c-.456-.285-.57-.228-.57-.171a.419.419,0,0,0,.114.342.914.914,0,0,1,.057.855.487.487,0,0,0,0,.4.654.654,0,0,1-.057.57c-.171.114-.228.285,0,.456.171.171.114.342.057.513l-.228.456a.944.944,0,0,0,0,.684.469.469,0,0,1,.057.684,1.09,1.09,0,0,0,0,1.026,1.09,1.09,0,0,1,.228,1.083c-.171.285.114,1.539,0,1.938a1.974,1.974,0,0,0,.285,1.767c.171.171.228.342-.057.513-.057,0-.057.171-.057.171.342.057.342.228.285.4a.278.278,0,0,0,.114.456.36.36,0,0,1,.114.513c-.057.114-.57.741-.513.855l.285.285c.228.513,1.026.912,1.368,1.425.114.171,0,.8.171.969.114.114.741.57.741.741,0,.513.57.684.8,1.026a.763.763,0,0,0,.285.057c0,.342.855.456,1.083.684a3.981,3.981,0,0,0,1.2.627c.057.057.114.114.114.171.057.228.4-.228.627-.171l.741.342a.107.107,0,0,1,.171,0c.171.171.4-.228.684-.228a7.841,7.841,0,0,0,4.731-.285V.513a6.557,6.557,0,0,0,.969-.342c.513-.285,1.026-.627,1.539-.969l.171-.228a1.3,1.3,0,0,1,.456-.513.766.766,0,0,0,.342-.4,3.4,3.4,0,0,0,.513-.855,5.629,5.629,0,0,0,.684-1.6l.114-.627a4.991,4.991,0,0,0,.4-1.824v-.171c-.057.057-.114.057-.114.114-.057.114-.114.285-.342.114-.171-.285.057-.456.285-.57.228-.171.342-.285.228-.57v-.171c.057-.228.171-.456.057-.684v-.171c0-.285.4-.57.4-.855,0-.969-.057-1.938-.057-2.907a13.978,13.978,0,0,0,.114-1.539ZM103-6.5a1.9,1.9,0,0,0-.513,1.71c0,.171-.228.285-.513.4.228.057.342.171.342.285,0,.057-.114.114-.171.171l-.4-.342.114-.114a3.993,3.993,0,0,0-.57.456c-.114.114-.114.171,0,.285a.173.173,0,0,1,0,.228,3.418,3.418,0,0,1-.627.684c-.057.057-.171.057-.171-.114.057-.228-.057-.285-.171-.285l-.969.171h.171v.057h-.171l-.57-.114a3.7,3.7,0,0,1-1.254-.627l-.57-.4-.171-.228c-.114-.171,0-.456-.285-.456l-.114-.057c.171-.285.285-.456.171-.684-.057-.057.285-.171.342-.228.171-.285,0-.513-.171-.741a.517.517,0,0,1-.171-.4V-8.208c-.057-.057-.171-.114-.171-.171v-.342c.114-.057.228-.114.228-.171v-.684c0-.456-.342-.969-.342-1.482v-.057c-.057-.057-.513-.057-.57-.114,0,0,.456-.114.456-.171.057.057.114.114.114.171v-.513c0-.057-.114-.114-.171-.171-.057.057-.456.114-.513.171-.114.114-.513.228-.627.342l-.114-.057c.057-.285.513-.57.8-.741a3.915,3.915,0,0,0,.627-3.078,1.446,1.446,0,0,1-.114-.684,1.283,1.283,0,0,0,.057-.684c0-.114.057-.228.057-.342v-1.368a3.031,3.031,0,0,1,0-1.881v-.342c0-.684-.057-1.311-.057-2a.966.966,0,0,1-.57,0,1.342,1.342,0,0,1,.114-.456l.456.114A6.012,6.012,0,0,0,96.5-24c0-.114.114-.228.057-.285-.684-.684-.456-1.2,0-1.824a.723.723,0,0,0,.057-.342l.228-1.2c.057-.171.057-.228-.114-.114a.574.574,0,0,0-.057-.171c.342-.228.057-.627.228-.969.171-.228.114-.456.4-.684a6.451,6.451,0,0,1,.741-.57.427.427,0,0,1,.285-.057c.342,0,.4-.057.342-.342-.171-.456.8-.4,1.083-.513.057,0,.114.057.171.057a.209.209,0,0,1-.057.171.919.919,0,0,1-.741.342c-.057,0-.171.057-.228.057a.432.432,0,0,0,.228.114l.741.228a3.025,3.025,0,0,1,1.653,1.083.783.783,0,0,0,.456.285.528.528,0,0,0,.057.4c.228.285.8.627.741.969a.375.375,0,0,0,.171.513.483.483,0,0,0,.513.171.5.5,0,0,1,.4.057.123.123,0,0,1,.114.114.123.123,0,0,1-.114.114c-.171,0-.342-.057-.57-.057-.171,0-.228.057-.057.228v.114c-.342,0-.228.228-.228.4,0,.285.171.57.171.855a.427.427,0,0,0,.057.285c.285.285.57.57.342.855-.057.057,0,.171.057.285.057.171.342.342.171.513-.057.057-.114.114-.114.171a10.982,10.982,0,0,0,.057,1.368c0,.171.057.342.342.171l.114.114v.057c-.4.171-.342.456-.4.741a2.861,2.861,0,0,0-.114.684c0,.057.057.171.114.171.285,0,.342.114.342.285,0,.114,0,.285.057.285.627.285.285.855.4,1.254a.2.2,0,0,1-.057.114l-.057.057c-.057-.057-.114-.114-.114-.171l-.513-1.368c0-.057-.057-.114-.114-.171,0,.057-.057.114-.057.171,0,.228-.114.513.057.741a.428.428,0,0,1,0,.513.432.432,0,0,0-.114.228.963.963,0,0,1-.057,1.026c.114.456-.057.912.114,1.368a2.834,2.834,0,0,1-.057,1.2c-.057.57-.4,1.2-.057,1.767.057.114,0,.285,0,.456,0,.057-.114.171-.114.228.8,1.083-.285,2.736-.513,3.591Zm.912-23.427a.759.759,0,0,1,.285-.171.257.257,0,0,1,.171.171l.171.855-.171.171a.432.432,0,0,1-.228-.114c-.285-.285-.57-.57-.4-.969Zm-10.488,9.69.342-.684c.057-.057.285-.114.342-.057.171.057.114.171.228.285v.114c-.057.057,0,.114-.057.228-.114.171-.513.228-.4.513l-.057.057c-.114,0-.342-.285-.285-.4ZM105.735-2.907l-.4.114c-.171.057-.228.228-.342.114-.057-.057,0-.285.057-.4a.968.968,0,0,1,.342-.342c.171-.171.228-.171.342.114.114.057.285.114.057.228Zm-2.622-.171A.123.123,0,0,1,103-3.192c-.114-.228.228-.8.513-.855h.057c.057.057.114.114.114.171.057.228-.285.684-.627.741ZM90.858-16.359v-.057c.057-.057.114-.171.171-.171a14.935,14.935,0,0,1,1.6-.057v.057a5.4,5.4,0,0,1-1.71.228Zm16.53.8v.171a1.939,1.939,0,0,1-.57-.057.381.381,0,0,1,0-.57h.057c.057.057.513.114.513.228a.432.432,0,0,1-.114.228Zm-1.881,9.918v-.513c0-.057.057-.114.057-.171.057.057.114.057.114.114a1.074,1.074,0,0,1,.114.456c0,.171-.057.342-.057.513,0,.228-.114.171-.228.171,0-.171-.057-.342-.057-.513Zm-10.431-15.9a.647.647,0,0,0-.171.456.177.177,0,0,0-.114.057l-.285-.342c-.114-.228-.114-.285.171-.342a.723.723,0,0,1,.342-.057c.057,0,.114.114.114.114Zm0,1.482c-.057-.057-.114-.114-.114-.171l.171-.4s.456,0,.456.057a.269.269,0,0,1,.057.342c-.057.057-.4.057-.513.114Zm7.866-10.26-.171-.855a.2.2,0,0,1,.114-.057.123.123,0,0,1,.114.114,2.122,2.122,0,0,1,.114,1.026c-.057,0-.171,0-.171-.057ZM95.019-23.6c.114,0,.285.114.285.171,0,.171-.342.285-.57.285-.057-.057,0-.114,0-.171-.057-.171.114-.4.285-.342ZM106.59-18.81c.057,0,.114-.057.171-.114v.171a.723.723,0,0,1-.057.342l-.285.171-.171-.342.057-.057c.4.057-.057-.285.171-.285Zm-2.166,9.405v-.513c0-.114.171-.114.285,0a.81.81,0,0,1,.114.342C104.766-9.405,104.538-9.405,104.424-9.405Zm-10.83-4.047h-.171a6.218,6.218,0,0,1-.627-.342l.171-.171c.171.171.627.342.8.513a.2.2,0,0,0-.057.114ZM91.2-7.3l-.171-.228.114-.114c.057.057.513.114.627.228-.057.057-.513.114-.57.171Zm1.539-1.425c-.114-.114-.969-.171-.969-.228l.969-.057H92.8a.441.441,0,0,1-.057.171ZM105.165-21.6a1.193,1.193,0,0,1-.342-.228.343.343,0,0,1-.057-.228.209.209,0,0,1,.171.057l.4.285v.057A.25.25,0,0,0,105.165-21.6ZM93.822-15.9a.431.431,0,0,1-.057-.228l.057-.057h.4l.057.114-.342.228ZM104.31-4.959c-.114-.171.057-.228.171-.285.342.171.342.228.342.285h-.342C104.424-4.959,104.367-4.788,104.31-4.959Zm-1.254-28.329.171-.171h.228v.171l-.4.342L103-33l.171-.171ZM90.63-26.562l.057.057c.057.114.171.228.171.342v.171c-.114,0-.171,0-.171-.057l-.171-.4a.2.2,0,0,1,.114-.057Zm13.452,13.167c0,.114-.228.228-.228.342-.057-.114.057-.228,0-.342a.343.343,0,0,1,.057-.228c0-.057.057-.057.171-.114Zm-.171-14.82c.228-.114-.114-.171.057-.228.114,0,.228.057.228.114s-.057.171-.114.171c-.228.057.114.114-.114.171-.057-.057-.171-.057-.171-.114s.057-.171.114-.171Zm3.078-1.14c.057,0,.114.057.228.057.057,0,.114-.171.171,0,0,.057-.114.114-.171.171-.171-.057-.285-.057-.342-.114l-.171-.171h.171ZM90.972-21.717l.228.228-.228.171-.228-.171c0-.057.114-.114.171-.171Zm12.54-3.477a.824.824,0,0,1-.114-.4s-.171-.057-.114-.057c.114,0,.342.057.342.114v.4h-.057ZM95.874-10.488h.057c-.057.057-.456.114-.513.228l-.114-.114c.057-.057-.057-.114,0-.171Zm10.545-5.358-.057.057a.343.343,0,0,1-.228-.057l-.171-.228.057-.057.342.171ZM93.48-27.417a.723.723,0,0,1-.057-.342l.057-.057h.057a.81.81,0,0,1,.114.342v.114c-.057,0-.114,0-.114-.057Zm10.374,23.94c-.057-.057-.114-.114-.114-.171s.057-.114.114-.228c.057.171.114.228.114.342,0,.057-.057.114-.114.171ZM98.268-31.692h.4l-.114.057v.171a.431.431,0,0,1-.228-.057A.209.209,0,0,1,98.268-31.692ZM96.672-1.2c-.057-.057-.114-.114-.114-.171s.057-.114.114-.171l.171.228-.171.171Zm10.887-23.769a.209.209,0,0,1-.057-.171c.057-.057.114-.114.171-.114l.171.114-.228.171Zm-6.384-9.12-.171.228a.3.3,0,0,1-.114-.228c0-.057.057-.057.114-.114Zm5.187,19.266a1.057,1.057,0,0,1,.4-.114c.057,0,.228.057.342.057a.847.847,0,0,1-.342.057ZM93.48-29.754h-.456c.057-.057.4-.114.456-.171h.171Zm14.25,5.187c.114-.057.171-.114.228-.114l.114.114c0,.057-.057.114-.114.171Zm-3.534,1.71c0,.057-.057.114-.114.171l-.171-.114q0-.085.171-.171Zm-.285-10.773a.963.963,0,0,1,.285.114.963.963,0,0,1-.285.114.123.123,0,0,1-.114-.114.2.2,0,0,1,.114-.057ZM97.812-.912l-.171-.114c.057-.057.057-.114.171-.114.057,0,.114.057.171.057l-.114.171ZM94.05-22.971c-.171.171-.342.285-.513.228V-22.8Zm.627,8.778a.574.574,0,0,0-.171.057.123.123,0,0,1-.114-.114c0-.057.057-.114.057-.171l.285.228Zm11.685,9.519.228.171-.171.114-.171-.171a.2.2,0,0,0,.114-.057Zm-1.824-4.047.228-.171h.057v.114l-.228.171h-.057ZM102.885-32.2c0,.057.057.114.057.171s-.057.114-.114.171l-.171-.114.228-.171ZM94.278-10.146l-.342.342.285-.513h.057Zm1.938-12.426q.171-.086.171-.171l-.171-.171c-.057.114,0,.228,0,.285Zm9.462-3.078c-.057,0,.057.057,0,.057s-.285-.057-.342-.057l.171-.171Zm-11.97-.228.114.114-.171.171H93.48l.171-.171Zm.912,3.021c0-.057.057-.057.114-.057H94.9v.171h-.171l-.057-.114ZM93.765-17.9l-.114.114c-.057,0-.114-.057-.171-.114l.114-.114C93.651-18.012,93.708-17.955,93.765-17.9ZM107.1-8.436v-.057l.228-.171a.177.177,0,0,0,.057.114c-.057.057-.114.114-.171.114ZM103.854-30.5c.057,0,.114.057.228.057l-.171.114-.171-.171.057-.057Zm-9.69,17.214a.2.2,0,0,1-.057-.114c.057-.057.114-.114.171-.114a.177.177,0,0,0,.057.114C94.278-13.338,94.221-13.281,94.164-13.281Zm3.192-18.411a.2.2,0,0,1-.114.057l-.057-.057c0-.057.057-.114.114-.171.057.057.114.114.114.171ZM93.48-4.617c0-.057-.057-.114-.057-.171l.057-.057c.057,0,.114.057.171.114a.209.209,0,0,1-.171.057ZM104.367-27.7c-.057.057-.114.114-.171.114a.209.209,0,0,1-.171-.057c.057,0,.114-.057.171-.057Zm1.6,7.923c.057,0,.114.057.171.114-.057.057-.114.114-.171.114v-.114l.057-.057Zm-.285-6.27v.114c0,.057-.057.057-.114.057v-.171Zm.171,7.3c.171-.057-.057-.114.114-.171v.057c0,.114.057.228-.114.171ZM104.424-4.674c0-.057.057-.057.114-.114a.2.2,0,0,0,.057.114.209.209,0,0,1-.171.057Zm1.881-20.349c-.057.057-.057.114-.228,0a.2.2,0,0,1,.114-.057A.2.2,0,0,0,106.305-25.023ZM101.859-4.389h.114c-.114.057-.171.114-.228.114Zm2.565-25.65h.114v.114Zm1.368,10.089h.057v.057h-.057Zm.4.969h-.057v-.057Zm11.685-14.592c-.057,0-.114,0-.114.057v-.114a1.255,1.255,0,0,1-.456.057c-.057,0-.114.114-.171.171l-.912,1.026a3.918,3.918,0,0,0-.285,1.368,2.861,2.861,0,0,0-.114.684,1.057,1.057,0,0,0,.114.4c.057.114.114.228,0,.228-.342,0-.285.171-.171.342l.171.342c0,.057-.057.114-.057.171a.2.2,0,0,0-.114-.057h-.228a.2.2,0,0,1-.057.114c.171.171.114.4.057.627v.171c.228.342,0,.57-.171.8a1.057,1.057,0,0,0-.114.4c.057.171.114.342-.057.513a.425.425,0,0,0,0,.456.447.447,0,0,1-.057.627c-.171.114-.171.228-.171.4a1.664,1.664,0,0,1-.114.513,1.82,1.82,0,0,0-.171,1.083,1.856,1.856,0,0,1-.171,1.368c-.057.171-.228.342-.228.513l.057-.057.228.114-.285.228-.057-.057c0,.057.057.114.057.171.057.4-.171.741,0,1.14.057.057-.114.228-.171.342,0,.057-.057.114-.057.171a1.645,1.645,0,0,1-.171,1.026,2.717,2.717,0,0,0-.228,1.14.97.97,0,0,1-.057.4,1.446,1.446,0,0,0-.114.684,4.4,4.4,0,0,1-.114.855l-.171.684a.847.847,0,0,0-.114.513.972.972,0,0,1-.171,1.083.766.766,0,0,0-.114.513,1.746,1.746,0,0,1-.171,1.311,1.456,1.456,0,0,0,.057,1.71v.057a.62.62,0,0,1-.057.285c-.228-.171-.342-.171-.456.057a1.625,1.625,0,0,0-.114.912.971.971,0,0,1,0,.57c-.057.228-.171.285,0,.456.057.114.114.228-.057.171,0,0-.114.057-.114.114a4.989,4.989,0,0,1-.114.912c-.228.456-.114.969-.342,1.425-.057.114-.057.228.114.228.114,0,.171.114.057.114-.228.057-.228.228-.228.4s-.228.4.057.57a.574.574,0,0,0-.057.171c-.114.114-.228.228-.228.285.114.4-.114.4-.228.741-.171.57-.285.57.057,1.083l.114.171V-.741L111.15-.8h.057l.057-.057.114.057c.057.057.114.057.114.114a.2.2,0,0,1,.114.057A.41.41,0,0,0,112-.4a.209.209,0,0,0,.171.057c.114.285.456.285.684.285a3.722,3.722,0,0,0,.627-.114.123.123,0,0,1,.114-.114c.627,0,1.254-.057,1.938-.057s.741-.285,1.083-.8a3.508,3.508,0,0,0,.4-1.311c.057-.456-.057-.57.171-1.026.057-.171-.114-.4-.057-.57.057-.228.285-.4.285-.627a19.774,19.774,0,0,1,.342-2.565l.171-.171a3.823,3.823,0,0,1,2.907-1.14,8.25,8.25,0,0,0,2.052-.057c.171-.057.228.114.342.228h.171l-.171.171-.171.342c.171.057.285.171.342.171.456-.171.513.114.627.342a14.117,14.117,0,0,1,.171,1.539.726.726,0,0,0,.285.627.275.275,0,0,1,.057.4c-.171.171-.171.285,0,.456a.343.343,0,0,1,.057.228,4.4,4.4,0,0,1,.114.855c0,.285-.057.228-.057.513a.209.209,0,0,0,.057.171c.171.342.228.684.4,1.026.114.4,1.14.741,1.482,1.083a1.352,1.352,0,0,0,1.14.4c.114,0,.228-.057.342-.057.513,0,1.026.057,1.539.057a3.923,3.923,0,0,0,.741-.114.377.377,0,0,0,.342-.4,1.542,1.542,0,0,1,.171-.855,1.255,1.255,0,0,0,.057-.456l-.456-.285-.4-2.052a4.544,4.544,0,0,1-.171-.855,8.1,8.1,0,0,0-.456-2.337,3.213,3.213,0,0,1-.228-.684,2.39,2.39,0,0,0-.057-.912,9.277,9.277,0,0,0-.4-1.71.723.723,0,0,1-.057-.342,2.192,2.192,0,0,0-.285-1.2.427.427,0,0,1-.057-.285c.057-.228.228-.513-.057-.741.057-.456-.228-.912-.228-1.368a.767.767,0,0,0-.285-.684c-.114-.057-.228-.171-.057-.285a.754.754,0,0,0,.114-.684l-.513-2.736-.171-1.2c0-.057,0-.228-.057-.228-.285-.057-.228-.171-.171-.285.114-.171-.057-.171-.114-.228-.114-.114-.057-.114.057-.114a.574.574,0,0,0,.057-.171,3.373,3.373,0,0,1-.285-1.083c0-.057-.057-.114-.057-.171a.733.733,0,0,1-.057-.684v-.171a1.165,1.165,0,0,0-.285-.513c-.114-.228.228-.342.171-.513l-.171-.627-.171-1.026c-.171,0-.171-.114-.114-.285a1.918,1.918,0,0,0-.228-1.254q-.171-.086-.171-.171a9.321,9.321,0,0,1-.114-1.254,4.381,4.381,0,0,0-.171-1.71A11.676,11.676,0,0,0,125-32.091a1.947,1.947,0,0,0-.741-1.368c-.285-.228-.684-.114-.969-.171a6.167,6.167,0,0,0-2.28-.057c-.114,0-.342.057-.456,0a1.589,1.589,0,0,0-1.026-.057v.057l-.228.171-.057.114a.623.623,0,0,0-.57-.114c-.057-.057-.114-.057-.4-.114A3.214,3.214,0,0,0,117.876-33.573Zm4.845,19.209c-.057.114-.285.114-.456.171-.114.114-.4.114-.285.456,0,.057-.171.171-.228.171-.228-.057-.513.228-.684-.057h-.114a2.353,2.353,0,0,1-1.539-.285h-.171c-.342,0-.4-.057-.57-.342a.177.177,0,0,0-.057-.114c-.513-.57-.285-.114-.228-.684a21.508,21.508,0,0,0,.741-6.042c0-.114,0-.171.057-.228a2.673,2.673,0,0,0,.171-1.482,4.018,4.018,0,0,1,.228-1.767,14.318,14.318,0,0,1,.228-1.539.886.886,0,0,1,.342-.456.611.611,0,0,1,.342-.114l.57.171c.057.057.057.228.114.342,0,.285-.114.513.228.684a.678.678,0,0,0-.228.627c.057.171,0,.456.342.513.057,0,.114.171.057.228a1.83,1.83,0,0,0-.114.969.341.341,0,0,0,.171.342.611.611,0,0,1,.114.342,3.926,3.926,0,0,0,.057,1.14,6.9,6.9,0,0,1,.057,1.083c0,.171,0,.342.228.4.171.057.171.171.171.342l-.171.57v.171a2.619,2.619,0,0,1,.171,1.311v.627a2.056,2.056,0,0,1,.228,1.368,2.138,2.138,0,0,0-.057.57c0,.171.057.114.228.114.057,0,.114-.114.114-.228l.114.228Zm-4.389-9.975c.114.057.228.171.228.228a2.216,2.216,0,0,1-.114.855l-.342.855c-.4-.057-.171-.456-.285-.741,0-.114-.114-.171-.114-.285,0-.171-.057-.4-.057-.57A.891.891,0,0,0,118.332-24.339Zm-.456,13.224a.435.435,0,0,1-.114.285l-.285.114-.171-.171c.057-.114.057-.228.114-.285l.456-.285c.228.171-.057.285-.114.4Zm5.643,1.71c0-.057.057-.114.114-.171h.057v.171c0,.057-.057.114-.057.171l.342.171.171,1.254c-.057.057-.171-.912-.228-.912l-.057-.057a.435.435,0,0,1-.285-.114.339.339,0,0,1,0-.4C123.519-9.291,123.519-9.348,123.519-9.405Zm-.855-15.789-.171.4-.228.171-.171-.171c-.057-.114-.057-.171.114-.171.057,0,.114-.171.171-.285l.228-.171v.171Zm1.995-5.7a1.346,1.346,0,0,1-.342.513c-.228-.171-.057-.342-.057-.513,0-.114.114-.171.228-.228h.057v.057ZM127.11-16.53l.171.171-.4.342-.057-.057.114-.456Zm-3.42-8.379.228-.342h.057v.171a.62.62,0,0,1-.057.285c0,.057-.057.057-.171.114,0-.057-.057-.114-.057-.171Zm-1.2-5.244h.228c.114,0,.228-.057.342.114h-.342l-.4-.171c.114-.228.342-.057.513-.057Zm2.793,6.384v.342l-.057.057L125-23.712c0-.057.114-.114.171-.171ZM129.1-3.876c-.057,0-.114-.057-.171-.114.057-.057.114-.114.171-.114a2.564,2.564,0,0,1,.456.114c-.228.057-.285.114-.342.114Zm-9.4-26.676.342-.171h.114v.114l-.4.171c-.057,0-.114-.057-.171-.057C119.643-30.5,119.643-30.552,119.7-30.552Zm.627,19.665c-.057-.057-.171-.114-.171-.171a.3.3,0,0,1,.114-.228c.057.057.114.114.114.171s-.057.114-.057.171Zm-.114-1.083.057-.057a.252.252,0,0,1,.114.4Zm4.9,3.534L125-8.55l.228-.171v.342c0,.057-.057.057-.114.057Zm-8.607-21.717c.057.057.114.114.114.171s-.057.114-.114.171c-.057-.057-.114-.114-.114-.171S116.451-30.1,116.508-30.153Zm8.778,27.018c.057,0,.114.057.171.057l-.228.171-.114-.114C125.172-3.078,125.229-3.135,125.286-3.135ZM121.3-30.78c0,.057-.057.057-.114.057l-.057-.057.171-.171.171.114Zm-1.653-1.995c.057-.057.114-.114.171-.114l.114.114c-.057.057-.114.114-.171.114l-.057-.114Zm4.389,7.011.114.057a.431.431,0,0,1-.057.228c-.057-.057-.114-.114-.114-.171A.177.177,0,0,1,124.032-25.764ZM121.98-32.6h.114v.171c0,.057-.057.057-.114.114Zm3.363,23.769c0,.057-.057.057-.114.057v-.171c0-.057.057-.057.114-.057Zm3.192,7.125.171.171c-.057,0-.057,0-.114.057l-.114-.171ZM124.26-24.624h-.171l-.057-.057c0-.057.057-.057.114-.114v.057Zm-10.032,3.477c0-.057.057-.114.057-.171l-.114.114Zm23.655-6.327a.375.375,0,0,1,.171-.513l.057-.171a.209.209,0,0,0,.057-.171c.057,0,.114-.057.171-.114l.171-.285.8-.684c.114-.114.057-.228-.057-.285.171,0,.285-.057.456-.057a9.383,9.383,0,0,1,1.2-.114,1.425,1.425,0,0,1,1.083.456,2.742,2.742,0,0,0,.627.513.705.705,0,0,0,.513.627v.057l.342.855v-.057c0,.057.057.114.057.171l.114.114a1.165,1.165,0,0,1,.285.513,1.046,1.046,0,0,0,1.2.741,1.417,1.417,0,0,1,.456.057,2.562,2.562,0,0,0,1.14,0,1.392,1.392,0,0,0,.4-.057,2.143,2.143,0,0,0,1.824-.912h-.057c.171-.285.285-.456-.057-.684-.057-.057,0-.171,0-.285a1.79,1.79,0,0,0-.228-1.14c-.228-.171-.171-.228-.171-.4a1.843,1.843,0,0,0-.171-.912l-.171-.4a1.972,1.972,0,0,0-.57-.627c-.285-.114-.456-.228-.4-.456a.824.824,0,0,0-.114-.4,8.959,8.959,0,0,0-1.482-1.083.444.444,0,0,1-.4-.171,1.013,1.013,0,0,0-.57-.228l-.228-.228c0-.057-.171-.114-.228-.114s-.057-.057-.114-.057a1.947,1.947,0,0,0-.969-.171.76.76,0,0,0-.513-.171,2.049,2.049,0,0,1-.627-.114c-.285-.114-.4-.057-.684.114-.114.057-.285.114-.342.057a1.384,1.384,0,0,0-1.254.057h-.228a1.759,1.759,0,0,0-.627.114.2.2,0,0,0-.114.057,1.932,1.932,0,0,0-1.14.342,1.432,1.432,0,0,1-.8.342,1.5,1.5,0,0,0-.912.4l-.285.228-.114.114c0,.285,0,.4.171.456-.171,0-.228,0-.285-.057a.882.882,0,0,0-.627.171,8.9,8.9,0,0,0-.741.741h.057l-.171.285a2.2,2.2,0,0,0-.627,1.254,2.354,2.354,0,0,1-.4.627,5.544,5.544,0,0,0-.285,1.14c.114.171.114.228.114.285v.114c-.285.228-.285.285-.171.342.114.171.114.342,0,.4-.285.228-.228.285-.171.456v-.057c0,.057.057.114.057.171a.759.759,0,0,0,.171.285v.057c-.456.171-.4.456-.285.684,0,.171.114.171.114.171-.114.228-.114.342.114.513a.614.614,0,0,1,.114.456,2.888,2.888,0,0,0,.114.741.305.305,0,0,0,.285.285c.171.057.285.285.342.456.057.285.114.513.228.57-.114.171-.171.285-.057.456a.427.427,0,0,1,.057.285c.114.285.114.456.456.627l.342.57c.057.114.171.114.285.057a1,1,0,0,0-.057.285l.57.912a.655.655,0,0,0,.513.342.177.177,0,0,0-.057.114l.057.114.4.342a4.962,4.962,0,0,0,.627.513c.057.057.171,0,.228-.057s.114,0,.171.057a.178.178,0,0,0,0,.342,1.671,1.671,0,0,1,.57.513.54.54,0,0,0,.456.513c.114.057.171.057.228.171a.856.856,0,0,0,.513.4l.171.171c0,.228-.228.4.171.513l-.057-.057.4.285.114.228a.629.629,0,0,0,.171.4.737.737,0,0,1,.513.342l.513.57a.3.3,0,0,0,.456-.171h.057c-.285.342-.285.57.057,1.026l.513.513a3.172,3.172,0,0,1,.513.741c0,.171.228.228.342.228a.694.694,0,0,0,.285.684l.057.114a.487.487,0,0,0,.171.342l.057.114.114.4.228.342a2.88,2.88,0,0,1,0,2.28l-.228.513a.431.431,0,0,0-.057.228c0,.057-.057.114-.057.171s0,0-.057.057-.171.171-.171.228a1.193,1.193,0,0,0-.228.342l-.057.114a.2.2,0,0,0-.114.057c-.057-.057-.171-.171-.456.057l-.342.171a.869.869,0,0,0-.57.342.177.177,0,0,1-.114.057c-.171,0-.342.057-.456.057a.715.715,0,0,1-.513-.057.614.614,0,0,0-.456-.114.963.963,0,0,1-.342.171.963.963,0,0,1-.285-.114l-.171-.171-.285-.228-.228-.171-.741-1.026.057.057c-.114-.171-.228-.342-.513-.171,0-.057-.057,0-.057-.057,0-.171-.114-.228-.171-.342-.114-.057-.171-.228-.228-.4v.057a3.228,3.228,0,0,1-.171-1.026,1.072,1.072,0,0,0-.456-.969,2.826,2.826,0,0,0-1.14-.456c-.114,0-.171-.057-.342-.057a.65.65,0,0,0-.342.171.366.366,0,0,1-.513.057l.057.057c-.285-.171-.456-.228-.684-.114a.514.514,0,0,1-.285.057c-.114,0-.285.057-.342.057-.4.057-.57.114-.684.456,0,.114-.057.114-.057.114-.57.4-.57.456-.4.912a.431.431,0,0,1,.057.228c.114.4.285.684.114,1.026a.561.561,0,0,0,.171.456,12.88,12.88,0,0,0,.855,2.337c0,.114.057.171.171.228l-.057-.114.114.171c0,.114.057.171.228.171,0,.342,0,.513.171.57a1.627,1.627,0,0,1,.456.4,4.606,4.606,0,0,0,.912.912.925.925,0,0,0,.513.285l-.171.228a.16.16,0,0,0,.285.114l.228-.171a.2.2,0,0,0,.057-.114,1.076,1.076,0,0,0,.741.57l.8.285V.4l.057-.057A.056.056,0,0,0,137.2.4l.057-.171a9.666,9.666,0,0,0,1.254.228c.513.057,1.2.057,1.71.057a2.849,2.849,0,0,0,.627-.057l-.057.057c.171-.057.228-.114.228-.171.057.057.228.057.456.057a7.108,7.108,0,0,0,1.881-.285.638.638,0,0,0,.456-.4c.057.228.228.228.513.114a1.022,1.022,0,0,1,.4-.285l.4-.228a1.59,1.59,0,0,0,.513-.285l.8-.684.855-.741c.057-.057.228-.171.228-.285,0-.057,0-.057.057-.114l.627-.8c0-.114.114-.285.114-.4a.954.954,0,0,1,.456-.627l.171-.912.228-.855a3.011,3.011,0,0,0,.057-.741v-.228c0-.171.114-.342.114-.57v-.228l.057-.228c0-.057-.057-.057-.057-.114s-.114-.171-.114-.285l.114-.057h-.114a8.719,8.719,0,0,0-.4-1.653c0-.057-.057-.114-.057-.171-.171-.342-.228-.741-.57-.969a1.138,1.138,0,0,0-.114-.513l-.285-.4-.684-.969c-.4-.513-.8-1.026-1.254-1.539l-1.14-1.083c-.114-.114-.171.057-.4-.171l-.228-.171a.706.706,0,0,1-.171-.114c0-.171-.171-.342-.342-.456a5.681,5.681,0,0,1-1.14-1.2l-.285-.228-.171-.228a.2.2,0,0,0-.114-.057c-.171,0-.171,0-.171-.057a1.074,1.074,0,0,0-.114-.456,1.617,1.617,0,0,0-.57-.513l-.228-.228-.228-.285v.057a3.46,3.46,0,0,0-.4-.57l-.057-.057c0-.171-.114-.228-.171-.342l-.4-.171c-.057,0-.114,0-.114-.057l-.171-.228-.4-.456a.441.441,0,0,1,.057-.171c.114-.228,0-.4-.171-.57a.687.687,0,0,1-.285-.285c-.057-.228-.228-.4-.627-.4-.057,0-.057-.057,0-.114,0-.342.171-.342.285-.456.228-.228.342-.456.171-.741-.114-.057-.171-.171-.4-.171l-.057.057a1.762,1.762,0,0,1-.114-.456v-.456C138.168-26.391,137.883-26.79,137.883-27.474ZM136-26.391c0-.057.171-.057.228-.057a.209.209,0,0,1-.057.171c-.171.228,0,.342.171.4.057,0,.114.057.171.057-.057,0-.114.057-.171.057h-.171c-.228-.057-.228.057-.228.228v.969c0,.057-.057.114-.114.171v-.114c-2.337-1.938-.342-.855.114-1.767ZM146.433-8.778c.8,0,0,.627,0,.741v.969c0,.057-.057.114-.114.171l-.912.342Zm-.912-1.824a2.861,2.861,0,0,1,.684.114l-.8.171-.171-.171c.057,0,.114-.057.171-.057ZM135.033-28.1a2.861,2.861,0,0,1,.684.114l-.741.171-.228-.171c.114,0,.171-.057.228-.057ZM146.319-3.42c-.057,0-.057-.057-.057-.114l.456.228c.114.057.114,0,.114.057-.114.057-.114.057-.171.057a2.469,2.469,0,0,1-.285-.057C146.376-3.306,146.319-3.363,146.319-3.42Zm-13.053-.057.342.285-.228.171h-.114l.114-.228C133.38-3.306,133.323-3.363,133.266-3.477Zm.114.228c.057,0,.057,0,.057-.057Zm34.542-29.7-.057-.114c-.285-.057-.4-.456-.8-.4-.057,0-.114-.114-.171-.171l.171-.171a.209.209,0,0,1,.171-.057c-.057-.057-.114-.114-.171-.114-.171,0-.4-.057-.513,0a.724.724,0,0,1-.684,0,1.259,1.259,0,0,0-.912,0,.74.74,0,0,1-.57.114c-.057,0-.171,0-.114.114,0,.057.171.114,0,.171s-.342.171-.4,0c-.057-.285-.285-.228-.513-.228a4.9,4.9,0,0,0-.912-.057,1.757,1.757,0,0,1-.57-.057,7.643,7.643,0,0,0-2.28,0,.785.785,0,0,1-.627,0,.953.953,0,0,0-.684.057,2.531,2.531,0,0,1-1.14.057c-.4,0-.855-.057-1.311-.057a2.138,2.138,0,0,1-.57-.057,7.115,7.115,0,0,0-2.451.057c-.057,0-.171.057-.228,0-.456-.228-.8-.057-1.254.057a.83.83,0,0,0-.513.342l-.285.684a.855.855,0,0,1,0,1.026v.171a1.5,1.5,0,0,0,.855,1.482,1.68,1.68,0,0,0,.741.285h2.109c.171,0,.285,0,.285-.228,0-.057.057-.114.114-.171,0,.057.057.114.057.171-.114.228.057.285.285.342l.57.228a1.093,1.093,0,0,1,.912,1.083,1.664,1.664,0,0,0,.114.513c0,.057.228.114.228.171a4.4,4.4,0,0,1-.114.855c0,.114-.114.228-.114.342a7,7,0,0,0,.114,1.539,2.159,2.159,0,0,1,0,.855.97.97,0,0,0,.057.4.446.446,0,0,1,.057.456.81.81,0,0,0-.114.342v1.026a.723.723,0,0,0,.057.342.366.366,0,0,1,.057.513c-.228.285-.114.627-.114.969,0,.057.057.114.057.171.057,0,.114-.057.171-.057a.82.82,0,0,1,.171-.114c.057.114.228.228.228.342s-.171.057-.285,0c-.228-.057-.342.057-.342.285s.057.456.057.684-.057.456-.057.684a.427.427,0,0,0,.057.285c.171.171.114.342,0,.513a2.672,2.672,0,0,0,0,1.881.487.487,0,0,1,0,.4,1.694,1.694,0,0,0-.228,1.026,10.381,10.381,0,0,1,.057,1.881.537.537,0,0,0,.228.513.259.259,0,0,1,0,.285.678.678,0,0,0-.228.627c.114.4-.114.855.171,1.254.285.456-.228.8-.057,1.254a9.206,9.206,0,0,1,0,1.254c0,.171.057.342.057.513-.057.342-.228.684.114.969.057.057,0,.171,0,.228l-.171.342a.574.574,0,0,0,.057.171c.171,0,.228.057.114.171-.171.114-.285.228-.285.4.114.342-.057.684.228.969.057.057,0,.228-.057.342a1.893,1.893,0,0,0-.057,1.368,1.4,1.4,0,0,0,1.083,1.254,1.493,1.493,0,0,0,.855-.057,4.038,4.038,0,0,1,.8.057.574.574,0,0,0,.057-.171c0-.057-.057-.114-.057-.171V-.684c.057,0,.114,0,.114.057a.753.753,0,0,0,1.083.285.767.767,0,0,0,.684-.285,1.374,1.374,0,0,0,.4-1.026,2.356,2.356,0,0,0-.114-1.083c-.171-.4.228-.684.114-1.026-.114-.114,0-.228-.114-.342,0-.057-.114-.114-.114-.114-.171.114-.228,0-.285-.114V-4.5h.342c.057-.342.285-.684.057-1.026a.427.427,0,0,1-.057-.285,8.429,8.429,0,0,0,.057-2.394c0-.171-.285-.4-.285-.57s.285-.285.228-.513a4.314,4.314,0,0,1-.057-.855v-.513c0-.171.057-.342.057-.513v-2.907c0-.171.057-.342-.114-.513a.173.173,0,0,1,0-.228,6.713,6.713,0,0,0,.171-2.394V-19.95c0-.228.114-.456-.114-.627a.343.343,0,0,1-.057-.228,1.642,1.642,0,0,0,.057-1.368.97.97,0,0,1-.057-.4c0-.342.057-.684.057-1.026v-2.394c0-.285.114-.57-.114-.8V-26.9a8.851,8.851,0,0,1,.228-1.2c.114-.114.228-.228-.057-.285-.114-.057,0-.342.171-.285.228.114.285-.057.4-.171v-.171h.228l.741-.513c.57.057,1.482.057,1.026-.456.57,0,.4.114,1.311.285.171,0,.285-.057.4-.057h.171a1.276,1.276,0,0,0,1.653-1.2,6.194,6.194,0,0,1,.057-1.026c.057-.342-.171-.684,0-1.026Zm-1.938.4c0,.057-.114.114-.171.114a2.025,2.025,0,0,1-.57-.114c-.057,0-.057-.114-.114-.171.057-.057.114-.114.171-.114h.285c.171.057.4.171.4-.171h.171a.419.419,0,0,1-.114.342Zm-14.193,1.824c-.456-.114-.57-.456-.342-.741a.427.427,0,0,1,.285-.057v.171c-.171.171-.171.285.057.4.057,0,.114.057.171.114C151.9-30.78,151.848-30.723,151.791-30.723Zm7.467,4.446-.342.228c-.057-.114-.114-.171-.114-.228l.171-.285.4-.285c.057,0,0,.342-.228.513ZM158-20.919v.171l-.285.228-.114-.057v-.342h.057l.171-.171.228.171Zm-.285,7.752c-.057,0-.114-.057-.171-.057.057-.057.114-.114.171-.114v.114c0-.057.057-.057.057-.114a.432.432,0,0,0,.228-.114l.228.171c-.114.057-.171.171-.285.171L158-13C157.833-13,157.719-13,157.719-13.167Zm.8,12.6L158.4-.8l.342-.171c.057,0,.114.114.228.228Zm.285-3.819h-.342v-.057l.228-.171a.343.343,0,0,1,.228-.057.177.177,0,0,0,.057.114Zm.228-26.22.228-.171h.171v.171l-.171.171v-.171Zm-.969,23.427-.228.171v-.171l.228-.171c.057.057.114.114.114.171Zm3.021-25.764c-.114,0-.171-.057-.228-.057l.228-.171c.057.057.114.114.114.171a.2.2,0,0,1-.057.114Zm-2.337,26.5-.228.342H158.4l-.057-.057.342-.285Zm-.912-11.115c.114,0,.171-.057.228-.057s.114.057.171.114c-.057.057-.114.114-.171.114s-.057-.057-.114-.114Zm3.249-3.933c.057-.057.114-.114.171-.114s.114.057.171.057v.171a.209.209,0,0,0-.171-.057Zm-3.762-7.3a.2.2,0,0,0,.114.057.3.3,0,0,1-.228.114.2.2,0,0,0-.114-.057l.114-.171Zm.8,13.68c.057,0,.114.057.171.114l-.171.171a.209.209,0,0,0-.171-.057c.057-.057.114-.114.171-.114Zm.228,12.426c.057,0,.114-.057.171-.057.114,0,.114.057.171.114l-.171.114-.114-.171Zm-.969-4.959h.171c.057.057.114.114.114.171a.056.056,0,0,1-.057.057h-.057Zm2.679-25.137a.209.209,0,0,0,.057.171.209.209,0,0,1-.171.057c0-.057-.057-.114-.057-.171s.057-.057.114-.057Zm-1.2,15.618c0-.057.057-.114.114-.171l.114.114-.171.171-.057-.057Zm2.508-2.28c.057,0,.114.057.171.114a.177.177,0,0,0-.057.114c-.057,0-.114-.057-.171-.114A.2.2,0,0,1,161.367-19.437Zm.171-10.2-.171-.171.057-.057.171.171v.057Zm-4.5-.4h-.114v-.171h.114Zm2,24.4V-5.7h.228c-.114.057-.114.114-.114.114h-.171Zm0,.228v-.057h.057v.057Zm2.394-22.344v-.057h.057ZM184.737-4.1a12.426,12.426,0,0,0-2.907-.114.259.259,0,0,1-.285,0,.879.879,0,0,0-.912.057.343.343,0,0,1,.228.057c.057,0,.057.057.114.114a.432.432,0,0,1-.228.114l-.171-.228a1.207,1.207,0,0,0-.4-.171,3.919,3.919,0,0,0-1.824.114H178.3a2.424,2.424,0,0,0-1.425-.171.2.2,0,0,0-.114-.057l-1.026-.741c-.228-.057-.285-.171-.285-.456a.485.485,0,0,0-.171-.285c-.228-.4-.4-.285-.342-.8.057-.627-.285-1.254-.285-1.881a12.4,12.4,0,0,0-.057-2.907,12,12,0,0,1,.114-1.425c1.824-1.311,2.565-.627,3.42-.456a3.735,3.735,0,0,0,.8,0,2.468,2.468,0,0,1,.285-.057c.285.171.513,0,.8-.057a2.138,2.138,0,0,0,.57-.057.406.406,0,0,0,.342-.171c.285-.285.8-.57.684-.969-.057-.57-.114-1.14-.114-1.71,0-.513-.57-.855-1.026-1.083-.4-.171-.513-.171-.855.114l-.342.342a1.341,1.341,0,0,1-.912.285l.285-.171.171-.342-.4-.114a1.738,1.738,0,0,0-.912-.171c-.114,0-.456.114-.513.114a4.87,4.87,0,0,1-1.368-.513,1.826,1.826,0,0,1-.969-1.6c0-.456.228-3.021.342-3.477,0-.114-.057-.228-.057-.342,0-.228-.228-.456-.228-.684,0-.912.4-1.824.4-2.736a8.648,8.648,0,0,1,.171-1.2.857.857,0,0,1,.228-.627,2.316,2.316,0,0,1,1.425-.969c.285-.057.627-.228.969,0,.114.057.228,0,.342,0h4.674c.57,0,1.026-.228,1.083-.855v-.057c.228-.057.627-.171.627-.456v-1.368a2.775,2.775,0,0,0-.057-.684,1.293,1.293,0,0,0-.912-.627c-.342,0-.627-.114-.969-.114a8.628,8.628,0,0,1-1.71-.114c-.057,0-.228.057-.228.114,0,.228-.057.114-.171,0a.611.611,0,0,0-.342-.114,8.028,8.028,0,0,0-1.14.057,1.273,1.273,0,0,1-.627-.057.974.974,0,0,0-.684.057,2.531,2.531,0,0,1-1.14.057,10.944,10.944,0,0,1-1.368,0h-.57a7.268,7.268,0,0,0-2.223,0c-.228.057-.4.114-.57,0a.629.629,0,0,0-.456,0c-.513.114-1.083.114-1.2.741a1.641,1.641,0,0,0-.057.741c0,.057.057.171,0,.228a.816.816,0,0,1-.513.57,1.684,1.684,0,0,0,.114.741c.171.4.4.8.171,1.254a.487.487,0,0,0,0,.4.473.473,0,0,1-.114.456c-.171.171-.228.342,0,.513.114.114,0,.285-.057.456l.057.513c-.057.228-.171.456.057.684a.727.727,0,0,1,0,.684c-.114.171-.114.285.114.171h.114v.114c-.285.057-.285.285-.285.513,0,.057.057.114.114.171v.057l.342-.513h.057v.057l.114.057-.4.513h-.057a1.241,1.241,0,0,1-.114,1.083c-.057.114.057.285.114.4.057.171-.171.285-.342.456-.171.342-.171.342.171.627.057.057.114.057.057.171-.57.8-.114,1.2-.342,1.938a1.331,1.331,0,0,0,0,1.14c.228.4.4.8.114,1.2a.624.624,0,0,0,0,.456.366.366,0,0,1-.057.513c-.114.171-.171.342,0,.513a.3.3,0,0,1,.057.456l-.114.342c-.228.57.228.969,0,1.425a1.276,1.276,0,0,0,.057,1.2.949.949,0,0,1-.057,1.083.624.624,0,0,0,0,.456c.057.228.285.4.114.57a.336.336,0,0,0,.114.513.338.338,0,0,1,.057.4l-.171.513c-.114.228.114.456.228.741a1.171,1.171,0,0,1,0,.627c-.627,1.254.4,1.824.228,2.166a1.118,1.118,0,0,0-.057.855.432.432,0,0,1-.114.228c-.171.228-.285.456,0,.684a.343.343,0,0,1,.057.228l.114.513a.727.727,0,0,0,0,.684.727.727,0,0,1,0,.684.5.5,0,0,0-.057.4C170.6.057,172.2-.114,173.28-.285a2.469,2.469,0,0,0,.285.057h2.964c.228,0,.4-.057.57-.057h2.451c.4,0,.741.057,1.14.057a6.69,6.69,0,0,1,1.482-.057A6.527,6.527,0,0,0,184-.342a.65.65,0,0,0,.342-.171c.228-.228.627-.513.627-.855,0-.456-.171-.912-.171-1.368ZM175.5-15.561l.342-.684a.485.485,0,0,1,.285-.171,1.241,1.241,0,0,1,.456.285.812.812,0,0,1-.114.228,1.173,1.173,0,0,1-.855.456c0-.057-.057-.114-.057-.171ZM173.166-28.1h.228c.228,0,.285.114.228.4l-.171.57c0,.057-.057.114-.057.171-.057-.057-.114-.114-.114-.171,0-.171-.228-.171-.456-.228C172.71-27.417,173.052-27.987,173.166-28.1Zm-1.026,2.508s.057-.171.114-.171l.57-.228a1.207,1.207,0,0,1,.4.171l-.684.342a.963.963,0,0,1-.285-.114Zm-.171-.57h-.057c-.057-.057-.114-.114-.114-.171v-.228c.4-.114.228-.513.342-.741,0-.057.057-.114.057-.171h.171a3.481,3.481,0,0,1-.171.741,2.677,2.677,0,0,1-.342.513Zm2.109-.684-.684.57v-.342l.57-.342c.057-.057.114,0,.228,0,0,.057-.114.114-.114.171Zm8.265-4.674v-.171l.171-.342.114.228v.228l-.171.513c-.228-.114-.057-.285-.057-.456ZM176.415-2.052l-.4.342H175.9v-.057a.907.907,0,0,1,.513-.513h.114v.057Zm-2.394-30.21h.057s0,.057.114.114l-.4.513h-.057v-.057l.171-.513Zm-3.477,5.985v-.057a.569.569,0,0,1,.228-.285c.057-.057.285-.057.285,0,.057.114-.114.171-.228.228l-.342.171Zm1.6-5.472h.4l-.171.171-.456-.171h-.171a.81.81,0,0,1,.342-.114c.114,0,.285.057.4.057Zm5.016,30.381v-.114l-.342-.171c-.057,0-.057-.057-.057-.114h.171l.342.228h.114v.171c-.114,0-.171,0-.171-.057Zm-5.7-8.949.513-.171.114.114-.342.171a2.468,2.468,0,0,0-.285-.057Zm6.555-20.235c0,.057,0,.114-.114.114a.692.692,0,0,1-.741.057.888.888,0,0,0,.684-.171Zm1.653,28.9v-.114a1.45,1.45,0,0,1,.4-.114l.057.057v.057l-.285.114Zm-8.721-13.794a.824.824,0,0,1,.4.114,1.113,1.113,0,0,0-.4.057l-.171-.171c.057-.057.114-.114.171-.114Zm1.482-17.727L172.6-33c0,.057-.057.114-.114.228-.057-.114-.114-.171-.114-.228v-.171Zm5.643,16.3c0,.057.057.114.057.171s-.057.114-.057.171l-.228-.171Zm2.736,2.964a.209.209,0,0,0,.057.171.209.209,0,0,1-.171.057c0-.057-.057-.114-.057-.171s.057-.114.114-.171Zm-.057-1.938.114.171-.513-.171V-15.9ZM173.793-1.254l-.171-.171.171-.171c0,.057.057.114.057.171S173.793-1.311,173.793-1.254ZM172.368-18.3h.342l-.171.171a.209.209,0,0,0-.171-.057ZM170.6-22c.057,0,.114.057.171.114l-.114.114-.171-.171.057-.057Zm.456-9.69h.057v.171h-.228v-.057Zm-.456,11.8.171.171c-.057,0-.114.057-.171.057l-.057-.057A.209.209,0,0,1,170.6-19.893Zm4.446,18.3-.171-.171.057-.057h.171l-.057.057Zm-5.13-17.1v-.342c.057.057.114.114.114.171S169.974-18.753,169.917-18.7Zm14.022-12.882.057.057c-.057.057-.114.114-.171.114l-.057-.057.171-.171Zm-6.156-.855.228.171-.114.057c-.057-.057-.114-.114-.114-.171Zm-7.125.855h-.171a.177.177,0,0,0,.057-.114h.171Zm3.534,26.733a.3.3,0,0,1-.228-.114h.285a.209.209,0,0,1-.171.057Zm2.85-25.593h-.171v-.114h.057Zm2.28,14.478v.171h-.057v-.057Zm-1.254-16.131v.057h-.057v-.057Zm15.9,22.515c.057,0,.057-.057.171-.114a3.266,3.266,0,0,1,2.337-.684h.4c.228-.057.228-.114.171-.342l-.171-.684h.114a2.45,2.45,0,0,1,.114.684v.171a1.419,1.419,0,0,1,.4,1.083c0,.057,0,.171.057.171a.372.372,0,0,1,.114.456c0,.171-.057.228.114.342.114,0,.114.228.114.342l.171.741c.057.228,0,.456.228.627.057.057-.057.228-.057.342.114.513.456.855.513,1.368.171.114.114.228,0,.342-.057.057,0,.171,0,.171.285-.114.228,0,.228.114l.057.456.741,1.539.228.513a.62.62,0,0,1-.057.285c-.285.228-.114.4.057.627h.171c.285-.057.342.114.4.228.057.171.114.456.342.513a3.467,3.467,0,0,0,1.311.171,9.253,9.253,0,0,1,1.2-.057h.228c.285.171.456,0,.684-.114a1.193,1.193,0,0,1,.228-.342c.171-.057.171-.171.171-.342l1.026.114a6.4,6.4,0,0,0-.456-1.482c-.114-.171-.342.114-.228-.228,0-.057-.057-.114-.114-.171-.228-.228-.342-.342-.228-.57v-.171c-.057-.228-.228-.456-.285-.684a1.939,1.939,0,0,0-.057-.57L204-5.7a7.435,7.435,0,0,0-.57-1.425.343.343,0,0,1-.057-.228,1.341,1.341,0,0,0-.114-.456c-1.482-2.565-.627-3.42-1.368-4.275a1.812,1.812,0,0,1,.57-.57c.912-1.083.969-1.2.969-1.254-.057-.228,1.482-2.508,1.425-2.622-.57-2,1.083-3.078.627-5.7l.057-.057a.363.363,0,0,1,0-.342,4.687,4.687,0,0,0,.114-1.539v-.114c-.285-.171-.171-.4-.114-.627l.171-.513a.343.343,0,0,0-.057-.228c-.057-.057-.171-.057-.171-.114-.114-.114.057-.114.171-.114a.574.574,0,0,0,.057-.171l-.513-1.2c0-.057-.057-.171-.057-.228.114-.513-.4-.969-.57-1.425a.81.81,0,0,1-.114-.342,1.328,1.328,0,0,0-.4-.855c-.114-.228-.057-.627-.456-.684v-.114l-.228-.342c-.057-.114-.228-.171-.285-.285a3.4,3.4,0,0,0-1.254-.912l-.57-.285a1.733,1.733,0,0,1-1.083-.4c-.228-.228-.171-.285-.513-.285-.228,0-.342,0-.456-.171a.36.36,0,0,0-.4-.057.939.939,0,0,1-1.14-.057c-.057-.057-.114-.114-.171-.114-.342.114-.57-.171-.912-.171-.114,0-.228-.057-.342,0-.456.228-.912.057-1.311.114a4.9,4.9,0,0,1-.912.057c-.114,0-.228-.057-.342-.057a1.939,1.939,0,0,1-.57-.057,6.206,6.206,0,0,0-2.052-.057,4.313,4.313,0,0,1-1.482,0,.343.343,0,0,0-.228-.057c-.57.114-1.2.228-1.311.855a.428.428,0,0,0,0,.513.724.724,0,0,1,.228.4c0,.114-.171.228-.228.342a.81.81,0,0,0-.114.342c0,1.14.4,2.052.057,3.021v.171a.69.69,0,0,1,.114.8l-.171.342a.537.537,0,0,0,.114.684.6.6,0,0,1,0,.684.775.775,0,0,0-.057.969,2.521,2.521,0,0,1,.285.855c.057.228.114.228.342.228.171.057.171.171.114.228-.114.171-.228.114-.4,0-.114-.114-.114,0-.114.114a1.835,1.835,0,0,1-.057.969c-.057.114-.171.285,0,.4a.357.357,0,0,1,.114.456l-.114.342a.8.8,0,0,0,0,.8c.342.684-.285,1.2,0,1.881.114.171.171.4.342.627.057.114.057.228-.114.342a.621.621,0,0,0-.114.627c.114.4-.342.8-.057,1.083.171.171.114.342.057.513l-.171.513a.944.944,0,0,0,0,.684.981.981,0,0,1,.057.8,1.329,1.329,0,0,0,0,1.14c.114.228.342.513.171.8-.342.912,0,1.6-.171,2.394a3.174,3.174,0,0,0,.057,1.083,1.578,1.578,0,0,1-.057.513,1.331,1.331,0,0,0,0,1.14c.171.4.4.8.114,1.254a.427.427,0,0,0-.057.285.844.844,0,0,1-.114.741.214.214,0,0,0,0,.342.454.454,0,0,1,.114.513l-.171.513c-.057.228-.228.456.057.627a.209.209,0,0,1,.057.171l-.171.513c0,.114-.057.228-.057.342.171.741,1.254,1.14,2.109,1.14.513,0,1.026-.057,1.482-.057a.845.845,0,0,1,.4.057c.627.228,1.368-.456,1.482-.912a7.331,7.331,0,0,0,.171-2.223c0-.114-.057-.171-.228-.171a.419.419,0,0,0,.228-.456c-.057-.969-.171-1.938-.171-2.907S193.287-8.892,193.971-9.576Zm6.669-12.882a.427.427,0,0,0,.057.285.324.324,0,0,1-.114.513c-.513.342.171,1.938-.057,2.451L198.645-15.5a2.533,2.533,0,0,1-1.368.513h-.4c-.342.057-.4.285-.171.513a.209.209,0,0,1,.057.171.343.343,0,0,1-.228-.057c-.456-.4-1.539-.4-2.109-.627h-.114v.057c.057.057.114.057.114.114v.114h-.114c-.171-.114-.513-.114-.456-.456a.432.432,0,0,0-.114-.228c-.114-.171-.057.057-.057.057l-.342-5.244c0-.114,0-.228-.171-.228a2.539,2.539,0,0,0,.171-1.311c0-.57,0-1.14-.057-1.767-.057-.684.057-1.368.057-2.052v-2.394a1.272,1.272,0,0,1,.342-.741l.228-.456c.057-.114.228-.114.342-.171.8-.342,1.539.114,2.28.171,2.565.228,2,1.311,2.736,1.539a.461.461,0,0,1,.228.627c-.114.285.57.513.684.741-.057,0-.114.057-.057.114l.57.684a.824.824,0,0,0-.4-.114c-.114,0-.228.057-.228.171l.627,2.052c.114.228.342.456.342.627s-.228.342-.228.57Zm-9.462,3.648c0-.057.114-.057.171-.057a.209.209,0,0,1-.057.171c-.114.228,0,.342.171.4a.2.2,0,0,0,.114.057.177.177,0,0,1-.114.057h-.171c-.171-.057-.171.057-.171.228v.969q0,.086-.171.171v-.114l-1.026-1.14c-.057,0-.057,0-.057-.057v-.114c0-.057.057-.114.171-.114.228-.057.912-.114,1.083-.342Zm3.42-14.136a.9.9,0,0,1,.4-.4c.57-.228.627-.228.8.285h-.114c-.114-.171-.228-.228-.4.057a.569.569,0,0,1-.285.228c-.057.057-.171.057-.171,0a.305.305,0,0,1-.171-.228ZM188.67-7.41v-.114h.114l.171.171.4.513v.171a.62.62,0,0,1-.285-.057l-.513-.513Zm8.094-25.479a2.047,2.047,0,0,1,.57-.4h.057a.177.177,0,0,0,.057.114l-.57.684h-.114c-.057,0-.171-.057-.171-.114,0-.114,0-.228.114-.285ZM191.52-33c.171,0,.285-.171.4-.228h.114a.056.056,0,0,1,.057.057l-.57.627a.432.432,0,0,1-.228.114c-.057,0-.057-.114-.057-.171v-.114c-.057-.228.057-.228.228-.228Zm13,9.006-.114-.057c-.057-.342-.456-.57-.4-1.083a.177.177,0,0,0,.114.057,1.625,1.625,0,0,1,.456.8c0,.057-.057.114-.114.171ZM188.955-1.539h-.114a.209.209,0,0,1-.171-.057.432.432,0,0,1-.114-.228.309.309,0,0,1,.456-.228l.228.228-.4.171Zm1.881-3.819.057-.057c.912.114-.513.513-.684.114Zm-1.311,1.425a.723.723,0,0,1-.342-.057.3.3,0,0,1-.228-.114c.057,0,.114-.057.228-.057h.342c.114,0,.285,0,.342.057.057,0-.228.228-.342.228ZM189.3-8.892c-.114.057-.285.171-.456.057v-.114l.57-.171c.057,0,.114.057.171.114-.114.114-.171.171-.228.171Zm.855-11.628a2.861,2.861,0,0,1,.684.114l-.741.171-.171-.171c.057,0,.114-.057.171-.057Zm.684-8.208.114.114-.171.228-.627-.114c0-.057.57-.114.627-.228Zm7.752-2.394a.723.723,0,0,1,.342-.057c.057,0,.114.057.228.057v.114l-.4.171a.2.2,0,0,1-.114-.057c0-.057,0-.171.057-.171Zm-5.358,1.254v-.171a.81.81,0,0,1,.114-.342c.057.057.228.114.228.228,0,.057-.171.171-.228.285,0,.057-.057.057-.114.057h-.114Zm1.254-1.881.171.456a.2.2,0,0,1-.114.057h-.114l-.171-.342a.177.177,0,0,0,.114-.057Zm-.171,19.779c-.171.057-.4.171-.57.057v-.057l.513-.171a.431.431,0,0,0,.228.057C194.427-12.027,194.37-11.97,194.313-11.97Zm2.679-.057h-.456v-.057l.8-.171.057.057v.057C197.163-12.084,197.049-12.084,196.992-12.027Zm.513-18.3c-.057,0-.114.057-.171.057-.171,0-.285-.114-.228-.228,0-.057.057-.057.171-.114l.171.228Zm-8.949,16.131a.209.209,0,0,1,.171-.057c0,.057.057.114.057.171s-.057.114-.114.171l-.171.171v-.171c.057-.114.057-.228.114-.285Zm2.28-15.105h-.684v-.114h.684Zm3.078,15.675c0-.171.228-.114.342-.114-.057.114-.057.285-.285.228Zm-4.047-.342-.285.228-.114-.114.285-.171A.2.2,0,0,0,189.867-13.965Zm5.643-17.841-.057.057h-.114a.313.313,0,0,1-.171-.285Zm5.757,6.783-.171-.171.114-.114.171.171Zm-4.56,13.338c0,.057,0,.114-.114.171h-.057v-.114l.228-.171h.171Zm-5.358,9.063h-.114v-.171h.171v.342ZM190.1-9.747c-.057,0-.114.057-.171.057s-.057-.057-.114-.114c.057,0,.114-.057.171-.057s.114.057.171.114ZM192.6-3.7c-.057-.057-.114-.114-.114-.171l.114-.114c.057.057.114.114.114.171H192.6Zm8.721-25.08v-.228l.114.114c0,.057-.057.114-.057.171C201.324-28.728,201.324-28.728,201.324-28.785Zm.114,3.021c.057.228,0,.228-.057.228a.2.2,0,0,0-.057-.114Zm-7.125,11.97v-.057l.171-.171h.057Z" transform="translate(0.898 0.177) rotate(90)" fill="#f38200" opacity="0.2"/>
</svg>
