<svg xmlns="http://www.w3.org/2000/svg" xmlns:xlink="http://www.w3.org/1999/xlink" width="203.919" height="115.333" viewBox="0 0 203.919 115.333">
  <defs>
    <clipPath id="clip-path">
      <rect id="長方形_82" data-name="長方形 82" width="178.311" height="99.43" fill="none"/>
    </clipPath>
    <clipPath id="clip-path-3">
      <rect id="長方形_80" data-name="長方形 80" width="167.806" height="99.43" fill="none"/>
    </clipPath>
    <clipPath id="clip-path-4">
      <rect id="長方形_34" data-name="長方形 34" width="79.629" height="47.183" fill="none"/>
    </clipPath>
  </defs>
  <g id="グループ_65" data-name="グループ 65" transform="translate(-142 -164.5)">
    <g id="グループ_54" data-name="グループ 54" transform="translate(142 164.5)">
      <g id="グループ_53" data-name="グループ 53" clip-path="url(#clip-path)">
        <g id="グループ_52" data-name="グループ 52">
          <g id="グループ_51" data-name="グループ 51" clip-path="url(#clip-path)">
            <g id="グループ_50" data-name="グループ 50" opacity="0.7">
              <g id="グループ_49" data-name="グループ 49">
                <g id="グループ_48" data-name="グループ 48" clip-path="url(#clip-path-3)">
                  <path id="パス_348" data-name="パス 348" d="M163.276,55.026A13.669,13.669,0,0,0,146.6,33.46a17.4,17.4,0,0,0-23.408-15.44,9.944,9.944,0,0,0-19.485,1.114c-.029.212-.049.423-.064.633a13.667,13.667,0,0,0-22.284-.994,21.133,21.133,0,0,0-41.937-.513c-.094.689-.152,1.373-.179,2.053A13.674,13.674,0,0,0,20.033,37.1a19.886,19.886,0,1,0,3.89,39.359,9.944,9.944,0,0,0,18.393,6.025,17.4,17.4,0,0,0,28.419,5.343,13.674,13.674,0,0,0,25.171,2.9,17.4,17.4,0,0,0,32.3-6.339c.026-.19.044-.379.063-.568a13.671,13.671,0,0,0,23.886-12.31,9.944,9.944,0,1,0,11.116-16.488" transform="translate(0 0)" fill="#fff"/>
                </g>
              </g>
            </g>
            <path id="パス_349" data-name="パス 349" d="M163.276,55.026A13.669,13.669,0,0,0,146.6,33.46a17.4,17.4,0,0,0-23.408-15.44,9.944,9.944,0,0,0-19.485,1.114c-.029.212-.049.423-.064.633a13.667,13.667,0,0,0-22.284-.994,21.133,21.133,0,0,0-41.937-.513c-.094.689-.152,1.373-.179,2.053A13.674,13.674,0,0,0,20.033,37.1a19.886,19.886,0,1,0,3.89,39.359,9.944,9.944,0,0,0,18.393,6.025,17.4,17.4,0,0,0,28.419,5.343,13.674,13.674,0,0,0,25.171,2.9,17.4,17.4,0,0,0,32.3-6.339c.026-.19.044-.379.063-.568a13.671,13.671,0,0,0,23.886-12.31,9.944,9.944,0,1,0,11.116-16.488" transform="translate(0 0)" fill="#ff0"/>
            <path id="パス_350" data-name="パス 350" d="M194.259,106.773a40.281,40.281,0,0,0,5.664-1.175c5.455-1.383,7.334-1.644,9.057-1.644,8.352,0,9.683,6.368,9.683,8.743,0,1.514-.47,6.16-6.394,8.874a26.184,26.184,0,0,1-9.866,1.983,25.888,25.888,0,0,0-1.67-5.037,18.123,18.123,0,0,0,2.14.13c4.672,0,10.806-1.253,10.806-5.977,0-2.323-1.54-4.306-5.09-4.306-.809,0-2.688.052-6.786,1.435-.418.156-2.767.965-5.872,2.323Zm19.522-6.525a13.316,13.316,0,0,1,2.088,2.714,20.081,20.081,0,0,0-2.14,1.331,18.093,18.093,0,0,0-1.931-2.663Zm3.5-.261a14.32,14.32,0,0,1,1.931,2.662c-1.3.887-1.462.965-1.931,1.331a14.607,14.607,0,0,0-1.905-2.741Z" transform="translate(-108.621 -55.908)" fill="#56421d"/>
            <path id="パス_351" data-name="パス 351" d="M273.04,103.756a.577.577,0,0,1,.261.444.335.335,0,0,1-.365.339,1.646,1.646,0,0,1-.548-.1c-1.2,1.07-8.927,7.413-9.187,7.648-.209.156-.47.391-.47.6,0,.261.1.313.939.835.417.261,6.786,4.62,10,8.378a28.364,28.364,0,0,0-3.681,3.784c-2.244-2.949-7.333-7.412-11.3-10.126-1.7-1.174-2.218-1.592-2.218-2.636,0-.966.365-1.357,3.288-3.733,1.253-.992,6.76-5.611,9.083-8.665Z" transform="translate(-143.405 -56.206)" fill="#56421d"/>
            <path id="パス_352" data-name="パス 352" d="M311.87,103.214c.34.078.574.157.574.443,0,.261-.313.443-.522.548a19.586,19.586,0,0,0-1.175,7.308,10.3,10.3,0,0,0,.131,1.748c.156-.287.939-1.957,1.409-2.949a14.952,14.952,0,0,0,2.61,2.14,18.447,18.447,0,0,0-2.845,6.6l-4.229.339a27.6,27.6,0,0,1-1.487-9.213,30.712,30.712,0,0,1,.783-6.76c.13-.678.156-.861.209-1.227Zm11.8-.887c.261,0,.574.026.574.365,0,.261-.157.392-.418.548.287,2.976.47,5.977.47,8.953,0,3.027,0,9.5-8.248,14.12a17.19,17.19,0,0,0-3.758-3.367c7.177-3.184,7.177-8.639,7.177-11.484a46.108,46.108,0,0,0-1.018-9.344Z" transform="translate(-171.29 -57.1)" fill="#56421d"/>
            <path id="パス_353" data-name="パス 353" d="M205.95,162.3a6.559,6.559,0,0,0,.913-.08l1.536,1.245a2.459,2.459,0,0,0-.437.7c-1.323,3.231-1.6,3.879-2.568,5.177a14,14,0,0,1-4.9,3.945,7.939,7.939,0,0,0-1.641-1.615c3.005-1.443,5.044-2.794,6.7-7.414H197.5V162.3Z" transform="translate(-110.435 -90.706)" fill="#56421d"/>
            <path id="パス_354" data-name="パス 354" d="M231.457,174.259h3.6v1.787h-9.029v-1.787h3.5v-4.21H227V168.2h7.069v1.853h-2.608Z" transform="translate(-126.385 -94.048)" fill="#56421d"/>
            <path id="パス_355" data-name="パス 355" d="M261.531,162.549a2.169,2.169,0,0,0,.741-.119l1.47,1.351c-.133.185-.172.251-.477.688a30.134,30.134,0,0,1-3.561,4.369,6.637,6.637,0,0,0-1.522-1.456,14.208,14.208,0,0,0,2.475-2.833H251.8v-2Zm-3.2,2.515c.093,0,.238.013.238.159s-.172.2-.238.225a13.015,13.015,0,0,1-.689,3.959,8.293,8.293,0,0,1-3.323,3.918,10.981,10.981,0,0,0-1.853-1.4c1.853-1.059,3.853-2.5,3.615-6.99Z" transform="translate(-140.796 -90.824)" fill="#56421d"/>
            <path id="パス_356" data-name="パス 356" d="M128.951,133.146c8.719-1.366,11.29-7.553,11.29-11.853,0-1.205,0-8.237-8.4-9.281-.6,11.973-6.228,25.151-11.612,25.151-3.375,0-9.362-4.942-9.362-13.219,0-9.241,7.8-18.482,19.607-18.482,9.6,0,17,6.067,17,15.75,0,3.053-.482,8.2-6.066,13.62a20.2,20.2,0,0,1-8.4,4.741,49.685,49.685,0,0,0-4.058-6.429m-11.451-9.2c0,2.853,1.366,5.023,2.21,5.023,1.446,0,4.54-8.076,4.942-15.951-3.094,1.125-7.152,6.147-7.152,10.929" transform="translate(-61.994 -58.97)" fill="#56421d"/>
            <path id="パス_357" data-name="パス 357" d="M37.857,71.842A51.4,51.4,0,0,0,43.3,73.629c.208-.582,1.039-2.993,1.247-3.491a32.15,32.15,0,0,1-6.152-1.87l1.5-6.775a47.338,47.338,0,0,0,6.983,2.328c.872-2.2,2.12-5.362,2.535-6.609l7.606,2.619c.374.125.748.291.748.665,0,.5-.415.623-1.413.914a30.041,30.041,0,0,0-2.037,3.658c1.247.083,2.369.166,3.865.166a23.907,23.907,0,0,0,2.91-.166A35.97,35.97,0,0,0,59.3,71.925a52.865,52.865,0,0,1-7.523-.54c-.415,1.039-.914,2.328-1.371,3.533a66.171,66.171,0,0,0,7.191.54c.748,0,1.247-.042,1.746-.083a56.684,56.684,0,0,0-1.788,6.858,71.873,71.873,0,0,1-9.185-.79A15.835,15.835,0,0,0,48,84.519c0,4.157,4.613,4.364,6.442,4.364,2,0,7.981-.249,7.981-5.57,0-2.078-1.122-4.073-2.411-6.152a46.621,46.621,0,0,0,6.692-2.41c1.33,2.119,3.2,5.362,3.2,9.31,0,8.022-7.4,11.555-15.171,11.555-12.511,0-13.841-7.648-13.841-10.474a23.738,23.738,0,0,1,.623-4.988,34.423,34.423,0,0,1-5.362-1.58Z" transform="translate(-20.215 -31.99)" fill="#56421d"/>
            <path id="パス_358" data-name="パス 358" d="M299.739,40.907l-48.025,2.18-6.35-31.1,70.144-7.814Z" transform="translate(-137.197 -2.331)" fill="#f38200"/>
            <path id="パス_359" data-name="パス 359" d="M240.778,54.321l-11.815,8.306L245.98,59.24Z" transform="translate(-128.026 -30.374)" fill="#f38200"/>
            <path id="パス_360" data-name="パス 360" d="M263.75,32.4V30.856h3.942V29.3l1.658.115c.115.009.194.009.194.106s-.089.15-.194.212v1.12h1.87V32.4h-1.87V36.05c0,.538-.044,1.323-2.266,1.226a5.957,5.957,0,0,0-.52-1.676,3.888,3.888,0,0,0,.749.105c.379,0,.379-.149.379-.52V33.722A10.124,10.124,0,0,1,264.6,36.4a6.573,6.573,0,0,0-1.111-1.3,8.56,8.56,0,0,0,3.369-2.7Z" transform="translate(-147.334 -16.385)" fill="#fff"/>
            <path id="パス_361" data-name="パス 361" d="M284.566,29.883a10.828,10.828,0,0,1,2.249,1.438,9.166,9.166,0,0,0-.952,1.349,8.878,8.878,0,0,0-2.231-1.464Zm-.776,5.988a10.524,10.524,0,0,0,6.543-4.8,9.542,9.542,0,0,0,.97,1.411,12.71,12.71,0,0,1-6.341,4.895c-.008.1-.026.229-.159.229-.088,0-.123-.071-.159-.141Z" transform="translate(-158.594 -16.709)" fill="#fff"/>
            <path id="パス_362" data-name="パス 362" d="M308.886,32.155a2.647,2.647,0,0,0,.741-.079l.891.652c-.15.265-.741,1.455-.873,1.693a7.448,7.448,0,0,1-3.88,3.387,6.656,6.656,0,0,0-1.093-1.287,5.9,5.9,0,0,0,3.581-2.9h-5.1V32.155Zm.591-.741h-5.282V30h5.282Z" transform="translate(-169.51 -16.776)" fill="#fff"/>
            <path id="パス_363" data-name="パス 363" d="M326.686,37.021h-1.719V33.07a18.417,18.417,0,0,1-2.452,1.191,5.984,5.984,0,0,0-1.12-1.42,12.241,12.241,0,0,0,6.005-3.9l1.393,1.023c.071.053.1.088.1.141,0,.159-.194.15-.335.132a10.713,10.713,0,0,1-1.87,1.7Z" transform="translate(-179.71 -16.184)" fill="#fff"/>
            <path id="パス_364" data-name="パス 364" d="M342.026,29.883a10.829,10.829,0,0,1,2.249,1.438,9.163,9.163,0,0,0-.952,1.349,8.879,8.879,0,0,0-2.231-1.464Zm-.776,5.988a10.524,10.524,0,0,0,6.543-4.8,9.552,9.552,0,0,0,.97,1.411,12.71,12.71,0,0,1-6.341,4.895c-.008.1-.026.229-.159.229-.088,0-.123-.071-.159-.141Z" transform="translate(-190.723 -16.709)" fill="#fff"/>
            <path id="パス_365" data-name="パス 365" d="M367.756,31.2c-2.681.168-3.925,2.125-3.925,3.157,0,1.181,1.561,1.464,2.443,1.472a13.876,13.876,0,0,0-.6,1.711c-.414-.071-3.518-.626-3.518-2.963a3.886,3.886,0,0,1,1.6-2.928c-1.208.1-2.072.22-3.6.459l-.238-1.79a30.744,30.744,0,0,0,7.593-.794Zm-1.491,1.014a9.18,9.18,0,0,1,.829,1.006c-.123.071-.458.344-.688.529a10.5,10.5,0,0,0-.812-1.005Zm.9-.6a5.874,5.874,0,0,1,.829.979c-.406.317-.468.361-.671.529a6.668,6.668,0,0,0-.82-1.014Z" transform="translate(-201.254 -16.508)" fill="#fff"/>
            <path id="パス_366" data-name="パス 366" d="M265.547,62.007V60.693h2.046V59.141l1.42.062c.106.009.194.026.194.123,0,.115-.141.185-.22.22v1.147h2.152v1.314h-1.614a9.17,9.17,0,0,0,1.94,2.61,4.027,4.027,0,0,0-.82,1.138,4.738,4.738,0,0,1-.776-.873v1.076h-.882v1.349h-1.394V65.957h-.9V64.82a10.106,10.106,0,0,1-.794.97,3.3,3.3,0,0,0-.644-.732v2.248h-1.438V63.374c-.106.132-.168.2-.282.335a4.574,4.574,0,0,0-.882-1.155,10.461,10.461,0,0,0,1.772-3.43l1.446.441c.062.018.142.044.142.132,0,.132-.15.168-.265.185-.088.186-.441,1.006-.521,1.173.142.053.194.1.194.176s-.088.142-.168.186v3.033a9.1,9.1,0,0,0,1.64-2.443Zm2.046,1.411a8.97,8.97,0,0,1-.793,1.252h.793Zm2.125,1.252a10.75,10.75,0,0,1-.732-1.155V64.67Z" transform="translate(-146.865 -33.059)" fill="#fff"/>
            <path id="パス_367" data-name="パス 367" d="M287.164,60.7v.026a4.862,4.862,0,0,0,1.491-1.746l1.331.176c.079.009.168.026.168.132a.194.194,0,0,1-.115.15,5.778,5.778,0,0,0,2,1.331,4.129,4.129,0,0,0-.715,1.182c-.149-.071-.2-.1-.343-.176v.344h-.794v.309h1.535v2.363H290.4a3.811,3.811,0,0,0,1.649,1.226,4.3,4.3,0,0,0-.8,1.181,5.623,5.623,0,0,1-1.693-1.429,5.45,5.45,0,0,1-1.764,1.482,3.518,3.518,0,0,0-.776-.9c-.361.759-.7.776-1.632.82a4.059,4.059,0,0,0-.388-1.049,2.759,2.759,0,0,0-.379.123,10.11,10.11,0,0,0-.088-1.552.372.372,0,0,1-.1.053,10.941,10.941,0,0,1-.1,1.94,3.665,3.665,0,0,0-.794-.115,6.808,6.808,0,0,0,.168-1.517c0-.212,0-.353-.009-.494l.723.008a.193.193,0,0,1,.142.053l.441-.079a12.326,12.326,0,0,1,.149,1.393,3.754,3.754,0,0,0,.415.027c.335,0,.467-.027.6-.706a2.373,2.373,0,0,0-.282.115,6.571,6.571,0,0,0-.194-.935l.37-.132a5.268,5.268,0,0,1,.15.547,6.418,6.418,0,0,0,0-.714h-1.19v.246h-1.182V59.274h3.625v1.085h-.917V60.7Zm-1.72-.344h-.423V60.7h.423Zm0,1.182h-.423v.353h.423Zm0,1.234h-.423v.37h.423Zm.088,1.658a7.4,7.4,0,0,1,.238,1.1,1.784,1.784,0,0,0-.458.141,6.636,6.636,0,0,0-.185-1.12Zm1.014-2.892v.352h.617v.882h-.617v.37h.793a14.139,14.139,0,0,1-.211,2.884,3.016,3.016,0,0,0,1.517-1.234h-1.173V62.431h1.42v-.309h-.9v-.3a2.92,2.92,0,0,1-.388.3,5.149,5.149,0,0,0-.494-.582Zm2.363,1.834h-.362v.414h.362Zm1.147-2.249a3.736,3.736,0,0,1-.741-.714,4.542,4.542,0,0,1-.591.714Zm.07,2.663h.414v-.414h-.414Z" transform="translate(-158.542 -32.981)" fill="#fff"/>
            <path id="パス_368" data-name="パス 368" d="M309.6,59.944v2.037l-.362,2.611H308.3l-.361-2.611V59.944Zm-1.64,5.476h1.623v1.614h-1.623Z" transform="translate(-172.185 -33.518)" fill="#fff"/>
            <path id="パス_369" data-name="パス 369" d="M116.467,50.061h3.523v3.523h-3.158a10.332,10.332,0,0,0,3.132,2.219c-.391.443-1.539,1.931-2.3,2.9a13.669,13.669,0,0,1-1.2-1.227v4.385h-3.837V57.343A18.165,18.165,0,0,1,110.36,60.5a11,11,0,0,0-2.558-2.95,18.33,18.33,0,0,0,3.6-3.967h-2.9V50.061h4.124V48.834h-4.2V45.285h1.853a14.969,14.969,0,0,0-.5-1.775l1.278-.313h-2.322V39.751H112.6V37.585l4.463.209a.4.4,0,0,1,.417.365c0,.287-.339.47-.73.574v1.018h3.236V43.2h-.417c.026.339-.417.418-.6.47-.209.783-.287,1.018-.47,1.618H120.1v3.549h-2.95a.367.367,0,0,1,.052.156c0,.313-.548.366-.73.366Zm-3.08-6.864c.261.809.287.94.6,2.088h.887c.339-1.07.47-1.592.6-2.088ZM124.871,55.02c-.626,2.375-2.062,5.4-4.49,6.995a13.932,13.932,0,0,0-3.575-2.14,8.426,8.426,0,0,0,4.515-6.525h-.757V38.185H131.84V53.349h-2.819V57.63c0,.417.13.5.417.5.6,0,.6-1.044.626-2.271a8.2,8.2,0,0,0,3.106,1.436c-.13,2.009-.679,4.385-2.61,4.385H127.09A1.91,1.91,0,0,1,125,59.8v-4.8Zm.13-.809v-.861h-2.793ZM127.69,41.5h-3.027v1.044h3.027Zm-3.027,4.829h3.027v-1.07h-3.027Zm0,3.784h3.027v-1.07h-3.027Z" transform="translate(-60.278 -21.016)" fill="#56421d"/>
            <path id="パス_370" data-name="パス 370" d="M191.28,48.491v4.1h-9.631v6.473c0,2.166-.444,4.1-7.125,3.81a17.086,17.086,0,0,0-1.357-4.437c1.488.157,2.479.183,2.871.183.887,0,.887-.365.887-1.409v-4.62h-9.709v-4.1h9.709V44.916l2.323.13a20.6,20.6,0,0,0,1.827-1.435H169.748V39.539H187l2.3,2.01a73.125,73.125,0,0,1-7.647,6.786v.156Z" transform="translate(-93.5 -22.108)" fill="#56421d"/>
          </g>
        </g>
      </g>
    </g>
    <g id="グループ_26" data-name="グループ 26" transform="translate(266.29 232.65)">
      <g id="グループ_25" data-name="グループ 25" transform="translate(0 0)" clip-path="url(#clip-path-4)">
        <path id="パス_331" data-name="パス 331" d="M2.149,26.111a6.487,6.487,0,0,1,7.914-10.234A8.258,8.258,0,0,1,21.171,8.551a4.719,4.719,0,0,1,9.247.529c.014.1.023.2.03.3a6.485,6.485,0,0,1,10.575-.472,10.028,10.028,0,0,1,19.9-.243c.045.327.072.651.085.974a6.489,6.489,0,0,1,9.116,7.966,9.436,9.436,0,1,1-1.846,18.677,4.719,4.719,0,0,1-8.728,2.859,8.259,8.259,0,0,1-13.486,2.536,6.489,6.489,0,0,1-11.945,1.377,8.256,8.256,0,0,1-15.329-3.008c-.012-.09-.021-.18-.03-.269A6.487,6.487,0,0,1,7.424,33.935a4.719,4.719,0,1,1-5.275-7.824" transform="translate(0 0)" fill="#fff"/>
        <path id="パス_332" data-name="パス 332" d="M38.73,44.081H36.282v-2.1H38.73Zm0,9.656H36.282V45.155H38.73Z" transform="translate(-20.174 -23.34)" fill="#00adec"/>
        <path id="パス_333" data-name="パス 333" d="M49.709,48.744l.045.985a3.459,3.459,0,0,1,2.9-1.3,3.311,3.311,0,0,1,3.4,3.477v5.417h-2.4V52.267a1.827,1.827,0,0,0-1.955-1.881,1.8,1.8,0,0,0-1.94,1.881v5.059h-2.4V48.744Z" transform="translate(-26.328 -26.929)" fill="#00adec"/>
        <path id="パス_334" data-name="パス 334" d="M82.182,43.276V41.56h3.074a6.709,6.709,0,0,0,.09-1.433l2.358.179c.164.015.254.059.254.179,0,.164-.164.254-.372.359-.075.4-.1.522-.15.716h3.447v1.716H88.689a7.894,7.894,0,0,0,2.194,1.433,9.073,9.073,0,0,0-1.075,1.09h1.508V47.53h-.9v4.641c0,.955-.179,1.672-2.865,1.657a3.706,3.706,0,0,0-.463-1.791H84.778v.955H82.764v-4.94h4.657v3.731c.88.03.88-.135.88-.82V47.53H81.928V45.8h1.9a11.906,11.906,0,0,0-1.119-.985v.7H81.212v3.566c.6-.238.761-.313,1.09-.463a11.436,11.436,0,0,0,.06,1.91,40.632,40.632,0,0,1-3.955,1.612c-.045.164-.119.358-.254.358s-.194-.089-.224-.239l-.359-2.119c.448-.089.866-.194,1.582-.388V45.515H77.734v-1.94h1.418V40.426l2.224.194c.135.015.209.075.209.164,0,.149-.194.269-.373.373v2.418H82.7V44.59a5.3,5.3,0,0,0,1.806-1.314ZM88.54,45.8a9.636,9.636,0,0,1-1.955-2.06,5.644,5.644,0,0,1-2.1,2.06ZM84.778,50.44h.88v-.821h-.88Z" transform="translate(-43.131 -22.312)" fill="#00adec"/>
        <path id="パス_335" data-name="パス 335" d="M119.707,46.158h4.149v2.06h-1.433a15.219,15.219,0,0,1,2.045,2.552,10.231,10.231,0,0,0-1.672,1.254h2.671v2.089H111.813V52.023h5.611V48.217h-4.029v-2.06h4.029v-2.88h-4.791V41.2h11.984v2.075h-4.91Zm2.09,2.06h-2.09v3.806h2.567a17.338,17.338,0,0,0-1.925-2.7Z" transform="translate(-62.171 -22.91)" fill="#00adec"/>
      </g>
    </g>
  </g>
</svg>
