<svg xmlns="http://www.w3.org/2000/svg" width="31.862" height="73.053" viewBox="0 0 31.862 73.053">
  <defs>
    <style>
      .cls-1 {
        fill: #ff0;
      }
    </style>
  </defs>
  <path id="パス_473" data-name="パス 473" class="cls-1" d="M3.689-35.343c.6.595.833,1.071,1.547,1.428.238.238.238.238.476.238l2.737.476c.833.119,1.19-1.071,2.38-.714A54.343,54.343,0,0,0,14.875-37.6,1.825,1.825,0,0,1,16.3-38.675c1.19-.119,2.38-.119,3.689-.119,1.9.119,3.094,1.547,3.332,3.57-.238.476,0,.952.357,1.9a13.088,13.088,0,0,1,.238,3.213c0,.595-.238,1.785.238,2.261l-.238,7.021a2.363,2.363,0,0,1,.476,1.309c-.476.714-.238,1.666-.238,2.5a23.752,23.752,0,0,1-.476,4.4,8.445,8.445,0,0,1-1.547,3.689,6.732,6.732,0,0,1-2.856,1.666c-.357,0-3.451-.714-3.927-.714a2.323,2.323,0,0,1-.833-.119h-.833c-1.071-.119-1.071-.119-.6-1.071.357-.714.6-.833.357-1.071l-.833-2.618c-.238-.476-.952-.476-1.19-.714,0-.238.952-.476.714-1.428v-.476c0-1.309,0-2.023-1.071-2.856a1.52,1.52,0,0,0-1.428-.238c-.6,0-1.19-.357-1.9-.357-.238,0-.833.119-1.071.119a5.794,5.794,0,0,0-1.428-.119c-.476,0-.952-.119-1.19.119-.357.952-.6-.238-1.071,0-.119.238-.6.714-.6.952.238.833-.476,2.023.238,3.213a6.373,6.373,0,0,1,.6,2.856,2.639,2.639,0,0,1,.476.833c0,.238.357.476.357.833A12.177,12.177,0,0,0,6.9-4.641l1.547,1.9,1.428,1.9L13.09.952a9.048,9.048,0,0,0,3.927,1.309,8.318,8.318,0,0,0,3.689-.833c.238-.238.714-.476.952,0C23.2,1.9,24.157.714,24.99-.119c.119-.238.6,0,.833-.238A3.266,3.266,0,0,0,27.37-.595l2.975-2.38a1.412,1.412,0,0,0,.238-1.666H30.7c.238.357.714,0,.714-.238a19.253,19.253,0,0,0,1.19-2.142,4.646,4.646,0,0,0,.238-1.666c0-.952-.238-1.309.6-1.428,0,0,.238-.6,0-.833,0-1.666.476-2.856.476-4.522a25.2,25.2,0,0,0,.238-4.046c0-.357-.238-1.071,0-1.309v-3.451c0-2.618,0-5.236-.238-7.616.476-2.023-.6-3.927-.833-5.95-.476-2.737-2.142-5-3.689-7.378l-1.309-.714v1.666h-.476c0-.476-.952-1.19-.238-1.666.238,0,0-.238,0-.476H24.99c-.238,0-.238,0-.357-.238l.119-.357a1.283,1.283,0,0,1,.833-.238l-.833-.6h-.119c-.476-.714-.714.238-1.309,0-.238,0-.833-.238-1.071-.238H21.182a8.051,8.051,0,0,1-3.213.833c-.476,0-.714.6-.714,1.071.238.238,0,.238-.357,0-.238-.476-.6,0-.833.238H14.042c-.119.238-.357.238-.357,0-.6,0-.833-.714-1.547-.476v-1.9c.238-1.19,0-2.856.476-4.165a.423.423,0,0,0-.238-.357c-.476-.119-.238-.833-.238-1.309a17.888,17.888,0,0,1,.714-2.618A5.842,5.842,0,0,1,16.065-60.1a2.9,2.9,0,0,0,1.666-1.19c.238-.595.238-.595.714,0,.238.238.238.714.833.714h5.355a2.707,2.707,0,0,0,1.785-.476v-.238c-.238,0-.833.238-1.071-.357a.233.233,0,0,1,.238-.238c.595-.119.833,0,1.071.595v.238c.238,0,.476.238.714.238a1.431,1.431,0,0,0,.952.238c1.071-.476,2.261-.714,3.094-1.666v-.6c.476,0,.833-.238.833-.714l.595-2.142c0-.119-.238-.357-.238-.6a2.312,2.312,0,0,0-.952-1.9l-1.071-.952a4.241,4.241,0,0,0-3.451-1.547h-5c-1.19.357-2.618-.357-3.927.6l-.238-.238c-.238-.357-.476-.357-.952-.357a8.78,8.78,0,0,0-2.5,0c-.6.6-1.428,0-2.142,0H8.449c-.238,0-.476.357-.714.357a1,1,0,0,1-.833.238l-.714.952s-.476,0-.476.119c-.476.119-.714.6-.952,1.071l-.714,1.19c0,1.19-.357,3.094-.357,4.522v.952c.833.476.357,1.19,0,1.666-.238,1.547,0,2.975-.238,4.879-.238,1.666.238,2.975-.238,4.76-.238.238-.238.476,0,.6.476.595.238,1.547.238,2.38-.476,1.547,0,3.451-.6,5.117,0,1.071.476,1.9.119,2.856v.357c0,.476.238,1.309.238,1.666-.238.476.238.952.476,1.428ZM28.322-7.973a2.054,2.054,0,0,1-1.19,1.9l-.952.476c-.357.238-.595,0-.595-.238a.831.831,0,0,0-.238-.476H24.99l-.238.238c0,.238.238.238.238.476s0,.238-.238.476l-.119-.238c0-.714-.952-.952-.476-1.666a.748.748,0,0,1,.6-1.19,4.21,4.21,0,0,1,2.975-.476C28.322-8.449,28.56-8.211,28.322-7.973ZM15.351-67.354c.476.119,1.309.833,1.309,1.309-.357.357-.595.833-1.309.357a1.772,1.772,0,0,1-.476-1.071C14.875-67.116,15.113-67.235,15.351-67.354Zm-1.666,64.5c.595.119.595.6.238.952a4.373,4.373,0,0,1-1.785.952c0,.119-.238,0-.476,0,0-.119,0-.476.238-.476C12.614-1.9,13.447-2.261,13.685-2.856Zm-7.5-49.98c0,.119-.357,0-.476,0v-.238c.119-.357.476-.595.476-.833.476-.714.476-.714,1.547-.238ZM9.044-16.779a1.416,1.416,0,0,1-.476,1.309c-.119,0-.357,0-.357-.357v-.238c.357-.238.6-.476.357-.952a.233.233,0,0,1,.238-.238c.476,0,.238.119.238.238ZM21.182-70.091a.874.874,0,0,0,.714.238v.952s-.238,0-.238-.119a.436.436,0,0,1-.476-.476C20.944-69.5,21.182-69.853,21.182-70.091Zm6.426,59.857c0,.119-.238.238-.476.238h-.476c0-.119,0-.476.238-.476,0-.238.476-.238.714-.476ZM6.664-66.521c.238,0,.238.238.6.238H7.5c.238,0,.238.238,0,.238l-1.071.357v-.357A.737.737,0,0,1,6.664-66.521ZM27.608-10.948c0-.357.119-.357.119-.6.357,0,.6.238.833.238v.357c-.238,0-.476.238-.833.238ZM25.585-43.554a1.512,1.512,0,0,1,.833-.476.44.44,0,0,0,.357.238l-.357.476C26.18-43.316,25.823-43.554,25.585-43.554ZM11.067-2.856a.654.654,0,0,1,.357.6c.238.357,0,.357,0,.357a3.208,3.208,0,0,1-.833-.952ZM22.134-47.6c0,.119.119.357,0,.6,0,.357-.238.357-.476.6v-.6A.791.791,0,0,1,22.134-47.6ZM24.4-44.149c-.238.119-.476.357-.714.357l-.357-.357c0-.119.357-.119.357-.357Zm-13.8-10c0,.238-.357.238-.714.476l-.238-.238c0-.238.238-.238.6-.476Zm11.067,10a3.349,3.349,0,0,0-.952-.119c0-.238,0-.476.238-.476C21.42-44.744,21.42-44.506,21.658-44.149Zm8.449,4.284a.737.737,0,0,1-.476.238c-.238,0-.238,0-.238-.238,0,0,0-.357.238-.357C29.631-40.222,29.869-40.222,30.107-39.865ZM5.712-12.614c-.238-.238-.238-.476-.476-.476l.238-.238c.238,0,.357.238.714.238Zm26.18-.714s0-.238.357-.238l.357.238-.714.476ZM24.752-39.27c0-.357-.119-.952.357-.6l.238.238c-.238,0-.238.357-.357.357ZM30.7-25.347h-.119l.357-.833h.476ZM26.656-64.141l-.476-.476c.238,0,.238-.357.238-.357l.476.6ZM23.919-62c-.238.119-.6.119-.6.357l-.238-.238c0-.119.238-.119.238-.476ZM6.426-45.934c0-.238.238-.238.238-.476l.6.476ZM9.639-10.115c0,.119-.119.238-.357.476l-.238-.238.476-.357h.119ZM28.8-68.187c0-.238.238-.238.238-.476,0,.238.357.238.357.238s0,.238-.357.238ZM8.211-6.307h.238c.119.238,0,.476-.238.714ZM7.973-61.88c-.238,0-.238.238-.476.238V-62c-.238,0,0,0,0-.238ZM31.892-12.852a.233.233,0,0,1-.238.238v-.238Z" transform="translate(-2.291 70.792)"/>
</svg>
