<svg xmlns="http://www.w3.org/2000/svg" width="30.169" height="73.8" viewBox="0 0 30.169 73.8">
  <defs>
    <style>
      .cls-1 {
        fill: #ff0;
      }
    </style>
  </defs>
  <path id="パス_339" data-name="パス 339" class="cls-1" d="M2.46-1.2c0,.48,0,1.08.6,1.08a9.714,9.714,0,0,1,2.64,0c2.64,0,1.56,0,6.36-.24a3.965,3.965,0,0,0,2.52-3.6,5.738,5.738,0,0,0,0-3.48,4.873,4.873,0,0,0-3.84-2.76c-1.2,0-2.28.24-3.6.24a4.974,4.974,0,0,0-1.92-.24c-.36.24-1.08,0-1.68,0s-1.08.24-1.68.24c-1.08-.24-2.16-.24-3-1.2A4.218,4.218,0,0,0-2.22-12l-.24.24c-.12-1.2-.12-1.68.72-2.16v-.24c1.08-1.56,3.84-6,3.96-6.84,0-.24,0-.84.72-.84.12-.6,1.44-1.32.84-2.4v-.84c.24,0,.24-.12.36-.12l.24.12c0,.24.24.6.24.24a30.116,30.116,0,0,0,3.36-6.48A8.422,8.422,0,0,1,8.7-32.4a4.206,4.206,0,0,1,1.08-2.04,23.565,23.565,0,0,0,1.2-3.48c.84-1.44.84-3,1.68-4.68.24-.36,0-1.08-.36-1.8-1.8-1.56-.96-.48.6-.48a.838.838,0,0,0,.48-.24,7.345,7.345,0,0,1,.84-2.04c.24-.72.24-1.68.6-2.64a2.058,2.058,0,0,0,0-2.04c0-.12.24-.72.24-.96.6.84.6-.36.6-.36-.36-.96.24-1.68,0-2.28-.24-1.2.48-2.4,0-3.6.24-1.8-.6-3.6-.84-5.28a4.939,4.939,0,0,1-.36-.96c-.96-.84-1.08-2.04-1.8-3a13.87,13.87,0,0,0-3.12-3.36c-.24-.48-.72-.48-1.08-.72-.48,0-.6-.12-1.08-.12a4.767,4.767,0,0,0-4.08-1.2H2.46c-.36,0-.6-.24-.84.12a.66.66,0,0,1-.6-.36H.54c-1.32.36-2.28.24-3.36.84-1.56.6-2.76.72-3.84,2.16-.24,0-.48.24-.72.24a2.984,2.984,0,0,0-1.44,1.32,19.649,19.649,0,0,0-1.92,3.12,2.792,2.792,0,0,0-.84,1.56,4.579,4.579,0,0,1-.48,1.56c-.6.84-.36,1.92-.6,2.76-.24,1.2-.24,1.32.6,2.16a.721.721,0,0,0,.48.12v.24h-.84c-.24,0-.48-.24-.48.24a1.855,1.855,0,0,0-.36.72c.36.48.12.72,0,.84a3.212,3.212,0,0,0-.24,1.2c.24.48,0,.96,0,1.2-.48,1.08,1.32,5.16,2.4,5.28h4.56c1.08-.12,2.64-4.2,2.4-5.52,0-.24.24-.48.24-.72a7.254,7.254,0,0,0,0-2.28c0-.72.36-1.56.36-2.28,0-1.08.96-1.68.24-2.64.48-.6,1.32-.84,1.68-1.32a.516.516,0,0,1,.48-.48c.36-.72.84-.72,1.44-.72a14.547,14.547,0,0,0,2.4-.12,1.779,1.779,0,0,1,.84.12c0,.48.48.48.6.72,1.32.72,1.56,2.4,1.92,3.72.48.84.24,1.8.48,2.88,0,.6.24.84.84.84-.24.12-.84.12-.84.96a10.562,10.562,0,0,1-.48,2.4,6.376,6.376,0,0,1-.12,1.68,15.3,15.3,0,0,0-1.32,3.24A25.388,25.388,0,0,1,3.3-44.4a30.337,30.337,0,0,1-1.68,3.48c-.24.36,0,.36.48.36,0-.12.12,0,.12,0v.24c-.84.6-1.08,1.68-1.92,2.4-.12,0-.36.48-.36.84-.24.84-3.48,7.2-3.84,7.68-.48.72-.6,1.32-1.08,2.16a18.359,18.359,0,0,0-2.52,4.8c-.24,0-.24,0-.24.24h.36c.24-.24.24-.48.48-.48a3.452,3.452,0,0,0,.48-.72c.36.24.12.72.12.96-.12.6-.6.84-1.2,1.2h-.24v-.6c-.24,0-.24.24-.48.24v.72s-.36-.12-.36,0c-.6.6-.48,1.68-.84,2.28l-1.56,1.68c-.24.48-.6.96-.36,1.56a.81.81,0,0,1-.48.72c-.24.24-.6.48-.6.72a9.489,9.489,0,0,0-1.32,3.48c.24.24,0,.72,0,.84a4.527,4.527,0,0,0-.6,1.92c0,1.32.96,2.52.24,2.52h-.24a15.744,15.744,0,0,1,.36,1.8,2.584,2.584,0,0,0,1.92,2.4.235.235,0,0,1,.24.24c0,.24.24.36.6.36.48.24,1.08-.36,1.56.24l.36-.24c0-.12.24-.36.24-.6h.24a.235.235,0,0,1,.24.24c-.24.6.24.6.6.6a16.865,16.865,0,0,1,3.48,0h3.12c1.08,0,2.16-.24,3-.24C2.1-.48,2.22-.72,2.46-1.2ZM7.14-7.68a2.5,2.5,0,0,1-2.28-.24L4.38-8.4c.24-.12.48-.36.6-.36a4.974,4.974,0,0,1,1.92.24c.48,0,.96,0,1.08-.6,0-.48.48,0,.72,0v.36c-.24,0-.72.24-.48.6.24.24.6.24.84.48.12.48.24.72-.24.24A4.373,4.373,0,0,1,7.14-7.68Zm4.92-48.48c.48-.48.6-.84,1.32-.84a1.755,1.755,0,0,1,.36-.6l.48-.48c0,.24.24.48.24.72a8.2,8.2,0,0,1-.48,1.56c0,.6-.24.96-.48.96a1.089,1.089,0,0,1-.84-.36C12.3-55.44,12.3-56.04,12.06-56.16ZM-4.74-67.08c.36.24.6.24.84.48l1.68,1.56v.36a.235.235,0,0,1-.24.24,3.741,3.741,0,0,1-2.52-1.8C-5.22-66.6-4.98-66.84-4.74-67.08Zm16.56,9v.24L10.74-57c-.12,0-.36-.36-.6-.6-.24,0,0-.48,0-.48a4.922,4.922,0,0,1,1.32-.12C11.58-58.2,11.58-58.08,11.82-58.08ZM8.22-59.4a.661.661,0,0,0-.24.6c-.12,0-.36.36-.36,0a.838.838,0,0,1-.48-.24c.48-.36.24-.84,0-1.32l.24-.24ZM2.46-1.2c.48-.72,1.08-.48,1.56-.48l.12.48a7.648,7.648,0,0,1-.84.24C3.06-.96,2.94-1.2,2.46-1.2ZM-9.42-7.68h-.24a.681.681,0,0,1-.48-1.08l.72.84Zm-1.32-3.24a1.294,1.294,0,0,0,.84-.24c-.24.24,0,.48-.24.72-.12.24-.36.24-.6.24ZM-8.82-55.8c.24-.6.48-1.2.84-.84a.743.743,0,0,1-.24.48C-8.22-56.04-8.58-56.04-8.82-55.8Zm6.36,27.72c0-.12,0-.12-.12-.12,0-.48.12-.72.6-.72a.235.235,0,0,0,.24.24A3.182,3.182,0,0,1-2.46-28.08ZM5.7-65.88c-.48.24-.48.48-.72.48-.12,0-.12-.24-.36-.24l.6-.48A.838.838,0,0,0,5.7-65.88ZM2.22-35.52c-.12.36-.12.6-.36.6s-.24-.12-.36-.24c.12,0,.12-.36.36-.36C1.86-35.64,2.1-35.52,2.22-35.52ZM-12.66-53.88a.235.235,0,0,0,.24.24.838.838,0,0,1-.24.48c-.24,0-.24-.24-.48-.24Zm22.2-14.4v-.12c.24-.24.36-.24.36-.48a1.142,1.142,0,0,1,.24.84C9.9-68.04,9.78-68.28,9.54-68.28ZM-4.14-62.04c0,.24-.24.6-.36.6h-.24s0-.36.24-.36c0-.24.12-.24.36-.48C-3.9-62.28-4.14-62.04-4.14-62.04ZM9.06-34.68l-.24.24c-.12-.24-.36-.24-.6-.48.24,0,.24-.24.48-.24C8.7-34.92,8.82-34.92,9.06-34.68ZM-9.42-63.12c-.24.24-.24.24-.48.24l-.24-.24.24-.24C-9.66-63.36-9.66-63.36-9.42-63.12Zm3.96,52.2c0-.24.24-.24.48-.48l.24.24c-.24.24-.48.24-.72.48ZM5.7-66.84a.235.235,0,0,0,.24.24l-.24.36H5.46C5.46-66.6,5.46-66.6,5.7-66.84Zm-9.6,2.52-.24.24-.36-.36.12-.24C-4.14-64.44-4.14-64.32-3.9-64.32ZM9.54-68.16c-.12.12-.24.24-.24.36a.258.258,0,0,0-.24-.24A.721.721,0,0,0,9.54-68.16Zm2.52,12v.12h-.24C11.82-56.16,12.06-56.16,12.06-56.16Z" transform="translate(14.34 73.92)"/>
</svg>
