<svg xmlns="http://www.w3.org/2000/svg" width="20.917" height="73.661" viewBox="0 0 20.917 73.661">
  <defs>
    <style>
      .cls-1 {
        fill: #ff0;
      }
    </style>
  </defs>
  <path id="パス_396" data-name="パス 396" class="cls-1" d="M-3.48-69.12a11.346,11.346,0,0,0-2.88,1.68c-.12,0-.36.36-.6.36-.96,0-1.2.96-2.16,1.08-.84,0-1.08,1.2-2.04,1.2l-.24.12c.24.96-.6,1.44-.84,2.04l-.96.72v.84l.6,1.92.6.48a5.312,5.312,0,0,0,3.6,1.32,4.2,4.2,0,0,1,3.6,1.92c.84.84.84.84,1.68.6.6,0,1.32-.24,1.8-.24h.24v.48c-.48.24-.72.48-1.2.48h-1.2a.536.536,0,0,0-.48.36A10.294,10.294,0,0,0-3.72-51c.24.84-.24,4.32,0,5.04a1.294,1.294,0,0,0,.24.84c0,.48-.48.72-.24,1.2s.36.48,0,.96V-42a19.254,19.254,0,0,1,0,3.72c-.24.48.36.84.24,1.32,0,1.08,1.68,1.92,2.64,2.16.6,0,.84.6,1.56.96.24,0,.24.12.24.24H.48a3.344,3.344,0,0,1-1.2-.12c-.36,0-.36,0-.36.36-.24.24-.24.24-.48.24s-.48-.24-.72-.24a2.814,2.814,0,0,0-1.44.24c0,.24.24.72.24.96l-.24.24c0,1.08-.24,1.56.36,2.28a4.388,4.388,0,0,0,0,2.16c-.6.48-.36,1.08-.36,1.8,0,.96-.36,3.24.24,3.96v.24c0,.24-.84.96,0,1.68.12,0,.12.12,0,.12-.48.36-.24.84-.24,1.44,0,.48.24,1.2.24,2.04,0,.48-.24,1.08-.24,1.8,0,.24.6.72,0,1.2,0,.36.24.36.24.6l.12.48c-.6,1.08-.36,1.44-.36,2.52a11.554,11.554,0,0,1,0,2.88,1.51,1.51,0,0,0,0,1.44c.24.48.36.72,0,1.2-.6.6.36.84.36,1.32-.36,1.08.84,1.92,1.32,2.4a1.819,1.819,0,0,0,.96.48c.24-.24.24,0,.36.24C-.48.6,0,.12.48.6,2.88.96,6.84.48,7.2-2.76a13.173,13.173,0,0,0,.24-3c0-.24-.24-.96-.24-1.2.6-.96.24-3.72.24-4.8V-13.2L6.36-12.12l-.24.36a1.814,1.814,0,0,0-.96.24v-.84c2.04-2.28,1.68-4.44,2.28-7.32a3.7,3.7,0,0,0,0-2.28c0-.24-.48-.48,0-.96.24-.24-.84-.48,0-1.08l-.24-.24c-.24,0-.6.24-.84.24l-.24-.24a.743.743,0,0,1,.24-.48H6.6c1.08-.24,1.2-.24,1.08-.96-1.44-1.8.12-7.08-.24-7.92a9.714,9.714,0,0,1,0-2.64,9.625,9.625,0,0,0,0-2.64c-.24-.6.24-1.44.24-2.16,0-.24,0-.48-.24-.48a2.645,2.645,0,0,1,0-1.92,1.008,1.008,0,0,0-.84-1.2c-.48,0-.72-4.44-.48-4.68.84-.6.48-.84.24-.96a1.443,1.443,0,0,1-.24-.96c0-.24.24-.24.24-.48.24,0,.24,0,.6.24l.48.72c0-.24.24-.48,0-.72a12.031,12.031,0,0,1,.24-4.08,1.614,1.614,0,0,0-.24-.96c0-.24,0-.24-.24-.24a1.524,1.524,0,0,0-.84.48.838.838,0,0,1-.48-.24.45.45,0,0,1,0-.72c0-.12.48-.12.48-.48-.48-1.2.6-.24.84-.48.48-.72.48-1.08.24-1.44a10.625,10.625,0,0,1,0-2.76c0-.6.6-1.32-.84-1.32a1.476,1.476,0,0,1-.24-.6c0-.36-.72-.96.6-.96.24,0,.48-.24.48-.72.24-1.08-.24-2.4-.24-3.6.24-.36,0-.12-.24,0-.36,0-.6.12-.6,0H5.16c.24-.36.48-.72.72-.72,1.08-.24.48-.48.24-.96-.24-.12-.48-.24-.48-.6-.24-.84-.72-1.08-1.2-1.08-1.08.24-2.28-.24-3,.48A19.96,19.96,0,0,0-3.48-69.12Zm4.2,3.6A.785.785,0,0,1,1.8-66c.24,0,.36.24.6.72v.6a3.216,3.216,0,0,0,.48,2.04.838.838,0,0,0-.24.48c-.24,0-.48,0-.48-.24-.12,0-.36-.24-.48-.48-.24-.84-.96-1.44-.72-2.16A.838.838,0,0,0,.72-65.52Zm-1.2,8.04c-.24,0-.24,0-.36-.24,0,0,0-.24.12-.24,0-.24.24-.24.24-.72l1.44-.48a1.814,1.814,0,0,1-.24.96c0,.48,0,.84-.96.72ZM-9-63.24a1.2,1.2,0,0,1-.12-.48.726.726,0,0,1,.36-.72c.36-.24.6,0,.84-.24,0,.36.24.6,0,.96ZM2.4-59.28a2.111,2.111,0,0,1,.72.12v.24c0,.24-.72.96-.96.72-.12,0-.12,0-.36-.48Zm.96,7.32c0,.48-.48.72-.96.72l-.24-.24c-.12-.48.48-.72.96-.6Zm-8.88-7.2c0,.24.24.48.48.96v.24h-.48c0-.24-.24-.72-.24-.96ZM4.2-35.04c.24,0,.24-.24.6-.24a.444.444,0,0,0,.36.24l-.36.6ZM7.44-14.4c0-.24.36-.72-.24-.72v.72c-.24,0-.24,0,0,.24,0,.24,0,.24.24.48v-.48C7.68-14.16,7.44-14.4,7.44-14.4Zm-12-51.84s-.24-.36-.48-.36v-.24h.72c.24,0,.36.24.48.24A.855.855,0,0,0-4.56-66.24ZM3.12-11.28s-.24-.24,0-.24c0-.24.24-.24.6-.6l.24.36A1.524,1.524,0,0,1,3.12-11.28ZM-1.8-33.72c-.48-.12-.72-.48-.96-.48l-.36.36s0,.12.36.12ZM.72-65.28c-.24,0-.24.24-.72.24v-.24c0-.24,0-.24.48-.24H.72ZM5.64-10.44c0,.36.24.36.24.6-.24,0-.24,0-.48.24v-.24C5.4-10.08,5.4-10.08,5.64-10.44Z" transform="translate(13.2 72.96)"/>
</svg>
