<svg xmlns="http://www.w3.org/2000/svg" width="33.27" height="74.728" viewBox="0 0 33.27 74.728">
  <defs>
    <style>
      .cls-1 {
        fill: #ff0;
      }
    </style>
  </defs>
  <path id="パス_340" data-name="パス 340" class="cls-1" d="M5.94-15.6c-.24,1.44-.24,2.64-1.44,3.72.24,1.08-.12,1.32-.6,1.68l-.72.96-1.56.96a4.5,4.5,0,0,0-1.2.12,5.825,5.825,0,0,1-2.04,0c-2.04-.36-2.64-2.04-3.72-3.24,0-1.08,0-2.28-.72-3,.72-1.2-.24-2.52-.24-3.84.24-.72-.24-.96-.84-1.2-1.68-.6-3.24-.24-4.56-.6-.24-.36-.96.36-.96.36-.24-.72-.72-.36-1.2-.36,0,0-.36.36-.6.36-.48-.36-1.08.24-1.44.24-.84,0-.84,0-.48.48-.96.96-.6,2.04-.36,3.36,0,.84.36,1.68.36,2.4a3.86,3.86,0,0,0,.84,2.88v1.56a7.331,7.331,0,0,0,.84,1.68c.48.72,0,1.2,1.08,2.4l3,3C-7.86-1.92-9.54.6-7.14-.12l.24.24c-.24.72.36.72.6.72a3.485,3.485,0,0,1,1.68.36C-3.06,2.52-.66.72-.06,2.04c.96-.24,1.92,0,2.76-.24l2.28-.6L8.22-.12a10.47,10.47,0,0,0,5.16-5.76h.24c.24-.48.96-1.44.84-2.16.96-.48.72-1.92.96-2.52a38.021,38.021,0,0,0,.6-6.36c0-1.32-.36-2.52.24-4.08v-.48c0-.96-.24-1.68-.24-2.76,0-.84-.24-1.8-.24-2.88,0-.96-1.2-1.44-.6-3a1.476,1.476,0,0,0-.6-.24c-.48.24-.48,0-.48-.48v-1.08l-.48-.72-1.56-1.92c-.24-.24-.84-.48-1.08-.96-.48-1.92-.72-3,.24-4.44l.84-1.08v-.48a11.565,11.565,0,0,1,0-2.88.838.838,0,0,1,.48.24,1.307,1.307,0,0,0,.24,1.32,4.254,4.254,0,0,0,.36-1.32l-.24-.24h.24v.24c1.32-.96.72-2.88,1.44-4.08v-.72c0-2.4.24-4.44.24-6.6,0-.36.36-1.56-.72-1.08,0-.24-.24-.48,0-.48.72-.24.48-.96.36-1.44-.36-.24-.36-.48-.36-.84,0-.96-.24-1.92-.24-2.76l-.72-.96c-.36-2.64-4.8-7.56-7.44-8.52l-2.76-.6c-2.04-.84-3.84-.24-5.76-.24-.24-.24-.6,0-.84,0a4.765,4.765,0,0,1-2.4.84,5.169,5.169,0,0,1-1.8.36c-.24,0-.48.36-.72.6l-1.08.96-.72.48a17.726,17.726,0,0,0-3,3l-.84,2.04c0,.12,0,.6-.24.6-.6.24-.48.84-.6,1.2a5.107,5.107,0,0,1-.48,2.04,4.347,4.347,0,0,0-.24,2.52c0,.48.72,1.2-.36,1.68-.24,0-.24.6-.24.84a1.744,1.744,0,0,1-.36,1.92c-.24.72,0,.96.96.96h.24c1.68.84,3.24,0,5.16.48l.24-.24a.959.959,0,0,1,1.32-.24c.48.24,2.28-.72,2.52-.96.24-.12.24-.48.24-.72a7.032,7.032,0,0,1,.24-3.12,1.973,1.973,0,0,0-.24-1.08c.72-.24.72-.6.72-1.32,0-.48-.48-.48-.72-.72-.24,0,0-.24,0-.6a1.325,1.325,0,0,1,.96,0c.24.36.24.6.48,0l1.2-.84A7.655,7.655,0,0,1-.78-62.88c.24,0,.24-.24.48,0,1.32.72,2.16.48,3.24,1.56a7.507,7.507,0,0,1,1.2,2.4c.24.12.24.6.24.84a6.466,6.466,0,0,1,.36,1.2c-.24,1.56-.36,2.52.24,3.6a.444.444,0,0,0-.24.36v1.32c-.24,1.2.6,2.16-.36,3.12,0,1.44-.72,2.16-1.2,3.6A3.7,3.7,0,0,1,1.5-43.2c-.24.24-1.08.24-1.32.96s-.72-.6-1.08,0c-.12.24-.48.24-.48.48,0,.72-.24.72-.72.48a3.4,3.4,0,0,0-1.56-.48,1.308,1.308,0,0,0-1.68,1.2A10.814,10.814,0,0,0-5.1-39a16.15,16.15,0,0,0-.24,4.8,7.28,7.28,0,0,0,.72,2.28l5.04.84a3.509,3.509,0,0,1,2.52.96c0,.36.24.36.24.6a6.365,6.365,0,0,1,1.8,3.72,1.45,1.45,0,0,0,.36,1.08,12.271,12.271,0,0,1,.6,4.68c0,.84,0,1.08.96,1.56a.235.235,0,0,0,.24.24c-.24,0-.24.24-.48.24a.692.692,0,0,0-.72.72v1.32A.18.18,0,0,0,5.94-15.6Zm-19.8,7.08a.882.882,0,0,0,.24-.72c.24-.72.72-.72.96,0s.96,1.08.36,1.92v1.44c0,.24-.12.24-.36.48l-.24-.24A10.162,10.162,0,0,0-13.86-8.52ZM11.46-44.88c0,.24.36.36.6.48h-.84v-.24c-.24-.24-.24-.96-.72-.48a2.814,2.814,0,0,1-1.44.24c-.24,0-.24-.24-.48-.24,0-.48,0-.72.24-.72.24-1.56.72-.48,1.44-.48h.96A4.223,4.223,0,0,0,11.46-44.88ZM5.94-36.12c-.6.72-1.2,1.56-1.8,2.16l-1.92.84a1.185,1.185,0,0,1-.72.24c0-.24,0-.48.12-.48l3.72-2.76ZM1.86-70.44c-.96-.12-2.28.24-2.76-.84.12,0,.12-.36.36-.36h2.4c.36,0,.6.36.84.72C2.46-70.92,2.22-70.68,1.86-70.44Zm8.4,38.52c-.12.24-.12.84-.48.84,0,.24-.48,0-.72-.24L7.74-32.88a1.783,1.783,0,0,1,.24-1.08.918.918,0,0,1,.6-.24.918.918,0,0,1,.24.6,1.533,1.533,0,0,0,1.32,1.68ZM5.34-66.24c-.36-.12-.84.12-.96,0a3.233,3.233,0,0,1,.96-1.56H5.7a3.411,3.411,0,0,1,.48,1.44c0,.12-.24.6-.84,0ZM-9.9-61.8c-.48.24-.72.48-.72.24-.6-.24-1.08-.84-1.8-.6,0-.24-.24-.24-.24-.36a1.9,1.9,0,0,1,1.68-.24Zm20.16,6.96c.96-.36.96-.36.96.24v1.32c-.96,0-.48-.84-.72-1.08ZM2.94.36C2.46.6,1.86.6,1.62.84,1.5.84,1.5.6,1.5.6a1.6,1.6,0,0,1,.36-.96ZM-13.38-15.12c.72,0,.96.36.72.96l-.48.48c0-.24-.24-.48-.24-.72ZM9.78-25.32c-.24,0-.24.24-.48.6H8.82c0-.36-.24-.36,0-.6,0-.24,0-.48.24-.48h.48A.743.743,0,0,0,9.78-25.32ZM4.14-39c-.72,0-.72,0-.48-.36l.48-.84c.24,0,.36-.36.6-.36-.24.36-.24.36-.24.6ZM-6.66-56.16l-.24.24-.96-.72c-.24,0-.24-.24,0-.24l.48-.24ZM-.06-2.28c0,.36,0,.36-.24.36H-.54L-.9-2.76a.526.526,0,0,1,.36-.12s.24,0,.24.12A.838.838,0,0,1-.06-2.28Zm11.28-25.8a.743.743,0,0,1-.24-.48c0-.36.24-.36.48-.72a1.257,1.257,0,0,0,.36.72C11.82-28.32,11.46-28.32,11.22-28.08ZM7.26-6.6c-.12.24-.36,0-.36-.48,0-.24.24-.24.24-.48.12,0,.36.24.6.24Zm-.6-.96a.743.743,0,0,1-.48.24c-.24,0-.24-.24-.48-.48.24,0,.24-.24.48-.24S6.42-7.8,6.66-7.56ZM-7.38-3.48c0-.24-.48-.24-.48-.6.48,0,.48-.24.48-.24a.235.235,0,0,1,.24.24A.937.937,0,0,1-7.38-3.48Zm3.48.24c-.12,0-.6.36-.72-.24l.36-.24C-4.02-3.72-4.02-3.48-3.9-3.24ZM-9.06-59.88c.24,0,.24.24.48.24,0,.24-.24.24-.24.6,0,0-.24-.36-.48-.36A.838.838,0,0,0-9.06-59.88ZM7.14-52.2c0-.24-.24-.24-.24-.48,0,0,.24-.24.36-.24a.743.743,0,0,0,.24.48v.24ZM10.5-8.28c0-.24,0-.48.24-.48h.48c-.24.24-.24.24-.24.48ZM6.18-40.92c0-.12.24-.36.24-.6a.235.235,0,0,0,.24.24c.24.36,0,.36-.48.48ZM-8.82-18c.24,0,.48,0,.48.36a.235.235,0,0,0-.24.24.235.235,0,0,1-.24-.24Zm-4.8-35.52c0,.12-.24.24-.6.36.24-.12-.24-.36.6-.72ZM-8.34-10.8c-.24.24-.24.24-.48.24v-.24a.235.235,0,0,1,.24-.24ZM6.18-64.2c0,.12.24.12.24.36a.235.235,0,0,0-.24.24.743.743,0,0,1-.24-.48S6.18-64.08,6.18-64.2Zm-17.4.36c0,.24,0,.24-.24.24v-.48h.24ZM13.62-17.16c0,.24,0,.24.12.24-.12.12-.24.24-.36.24v-.24A.235.235,0,0,1,13.62-17.16Zm.48,4.2c-.24,0-.24,0-.24.24l-.24-.24a.235.235,0,0,1,.24-.24A.235.235,0,0,0,14.1-12.96ZM1.86-63.6c.12,0,.36,0-.24.24Z" transform="translate(17.01 72.688)"/>
</svg>
