<svg xmlns="http://www.w3.org/2000/svg" width="37.56" height="71.982" viewBox="0 0 37.56 71.982">
  <defs>
    <style>
      .cls-1 {
        fill: #ff0;
      }
    </style>
  </defs>
  <path id="パス_341" data-name="パス 341" class="cls-1" d="M-14.22-35.04a15.7,15.7,0,0,0-2.4,4.68c.36.24-.24.84-.36,1.44,0,.6-1.08,1.08.36,1.08l.36.24c0,.48,0,.96-.6.96,0-.24-.12-.24-.36-.24s-.24.24-.24.48a4.32,4.32,0,0,1-.84,2.64v.24c.6.84,0,1.56,0,2.28a5.144,5.144,0,0,0,1.44,2.76,5.21,5.21,0,0,0,2.88,1.32c2.88.24,5.88,0,8.76.24h2.76c.24,0,.48,0,.48.24.24.48.72.24.96.72l1.32.84.48.72a2.479,2.479,0,0,0,.96,1.92v.6c-.24,0-.24,0-.24.24,0,1.44-.48,3.12.24,4.32.24.96.48,1.2,0,1.68a1.443,1.443,0,0,0-.24.96c0,.6.48,1.44.48,1.92a2.088,2.088,0,0,0,.6,1.68A6.178,6.178,0,0,0,7.98.6c1.2-.48,2.76-.96,3-2.52,1.32-.84,1.08-2.16.84-3.24v-.72c0-1.92.24-3.84.24-5.76a1.457,1.457,0,0,0-.72-1.32v-.24c.72.24.72-.48.96-.48.6-.72.96-1.68,1.56-2.28a1.962,1.962,0,0,1,2.04-1.2,2.41,2.41,0,0,0,2.4-1.08c.96-.84.96-2.52.96-3.24,0-1.2-.12-2.76-1.2-3.6l-1.08-.72v1.08c0,.24-.24.24-.24.48a.235.235,0,0,0-.24-.24c-.12-.84,0-1.92-1.2-1.92h-.48a4.23,4.23,0,0,1-1.92-1.92c-.24-.6-.84-.6-.84-1.44a9.759,9.759,0,0,0-.24-3.72c0-.48,0-1.32-.24-1.56-.48-.6.48-.84.48-1.32-.24,0,0-.24,0-.48,0-5.4-.24-10.8,0-16.32a22.986,22.986,0,0,1,0-4.08,28.914,28.914,0,0,1,0-4.56c0-.6-.24-.72-.72-.72l.72-1.32c0-1.8.24-4.2-1.32-5.16,0,0,0-.24-.96-1.08-.6.84-.6-1.2-2.04-1.2-.96,0-1.8.36-2.64.36-.24.24-.24.24-.48,0l-.72.48a1.1,1.1,0,0,0-.96.36c-.36.36-.48.48-.96.48A29.919,29.919,0,0,0-.06-67.08c-.48.24-.72.72-.48.84.48.48-.24,1.08-.48,1.56-.48.6-1.44,1.08-1.2,2.16.24.12-.24.72-.48.96l-1.68,3.48c-.36.48.48.84-.36.96-1.08,1.92-1.32,3.84-2.64,5.4-.24.12,0,.6-.24.96,0,.6,0,.84-.24.96,0,.36-.48.6-.48.84-.24.48.24.72-.24.96l-.72,1.2v.24c-.48,1.44-1.8,2.64-2.04,4.32v.96c-.96.72-.96,2.28-1.68,3.12l-.72.96C-13.74-36.36-14.34-35.64-14.22-35.04Zm9.48-2.4c1.08-2.52,1.8-5.16,3-7.68,0-.72,0-1.2-.24-1.44a.743.743,0,0,1-.24-.48h.48c.72.24.72.24.96-.6v-1.32l1.32-.72c.24-.12.48-.12.72.24v1.2a.661.661,0,0,1,.24.6c.24.84.72,1.32,0,2.04-.24,0-.24.48-.24.48.24,1.44-.24,3.36,0,4.92a1.142,1.142,0,0,1,.24.84,1.441,1.441,0,0,1,0,1.92c0,.6-.24,1.56-.24,2.04v2.28c0,.48.24.24.48,0,.48,0,.72.24.48.48a2.9,2.9,0,0,0,0,2.04c.24.48,0,.84-.72.84,0,.24-.24,0-.48,0,0,1.2-1.08,1.68-.48,2.88.24.24-.24.48-.48.24-.6-.48-1.32,0-1.8,0l-.24.24c-1.8,0-3.48,1.68-5.16-1.92,0-.24-.24-.6,0-.96.6-1.08.24-2.64,1.08-3.6A41.269,41.269,0,0,0-4.74-37.44ZM3.18-61.56c-1.68-.84-.72-1.32.72-1.8l1.8-.48c.6-.48.6,0,.84,0,.48,0,.48.48.48.72-.24.24-.24.36-.72.24,0,0,0,.12-.36.12.84.6,0,.6-.48.6-.6-.36-.6,0-.84.6C4.02-61.08,3.66-61.08,3.18-61.56ZM-2.7-18.72c.72,0,.72.24.48.72a.549.549,0,0,1-.48.6.683.683,0,0,1-.96-.6,1.378,1.378,0,0,1,.6-1.08,5.017,5.017,0,0,0,.6-2.88l.24-.24h.48c.72.72.72.96.24,1.44A3.7,3.7,0,0,1-2.7-18.72Zm8.04-5.76c-.24.24-.48.72.36.96v.36l-.24.24c-.6-.24-1.56-.24-1.44-1.56a5.865,5.865,0,0,1-.12-1.56c0-.36,0-.36.12-.36h.36A2.963,2.963,0,0,1,5.34-24.48Zm3.24,0a.549.549,0,0,1,.6.48.838.838,0,0,1-.24.48h-.6l-1.08-1.2V-25.8c.24,0,.48.24.72.24ZM2.22-26.64c.24.24.24.24.36.24l-.6.6H.78l.48-1.08v.24ZM8.1-9a7.449,7.449,0,0,0,1.44.96.235.235,0,0,1,.24.24h-.6c-.6-.24-1.08-.24-1.2-.36a.426.426,0,0,1-.24-.36c0-.24,0-.24.24-.48Zm.48-51.96c0,.36,0,.6-.24.6v.72c-.24,0-.36-.24-.6-.24-.48-.24-.24-.48,0-.48l.36-.72h.24ZM-1.5-54.84c0-.24-.48-.48.24-.48s1.56.24,1.32.48c-.6.48-.84-.24-1.32,0Zm13.08,3.72-.48.72c-.12,0-.36-.36-.12-.96v-.24c0-.12,0-.36.12-.36.24.24.48.24.48.36ZM2.46-35.4a1.013,1.013,0,0,1-.24.84.516.516,0,0,1-.48-.48c-.24,0-.24-.36-.24-.36a1.2,1.2,0,0,1,.48-.12A1.241,1.241,0,0,1,2.46-35.4ZM-7.86-19.68v.48H-8.1l-.6-.84a2.616,2.616,0,0,0,.12-.72ZM6.54-5.16l-.6-.48a1.215,1.215,0,0,0,.84-.48c0,.24.24.24.24.48ZM-4.74-21.96a.838.838,0,0,0-.48.24c-.24-.24-.48-.24-.48-.48s.24-.24.48-.48C-5.22-22.44-4.98-22.2-4.74-21.96ZM8.34-19.2c0-.24.24-.48.24-.84.36,0,.36.36.6.36l-.6.6ZM-9.78-22.44c0-.24-.36-.24-.36-.24l.84-.48a.235.235,0,0,1,.24.24ZM10.5-34.2c-.24.24-.24,0-.48,0a.918.918,0,0,1,.24-.6c.24,0,.24.24.48.24Zm-12-20.64c.24,0,.24.24.24.48a.235.235,0,0,1-.24.24h-.24v-.48ZM2.46-3.72c0-.36-.24-.36-.24-.6.24,0,.24-.36.36-.36a.353.353,0,0,0,.36.36Zm2.88-55.2c.36,0,.6,0,.36.6l-.24.24c0-.24-.12-.24-.12-.48Zm-2.16.6c-.24,0-.24.24-.24,0-.36,0-.36-.24-.48-.24l.12-.24c.36,0,.36.24.6.24ZM-15.54-25.08c.24,0,.24,0,.48.36l.24.24h-.48C-15.54-24.72-15.54-24.72-15.54-25.08ZM8.1-57.12l-.6.96H7.26l.72-1.08H8.1ZM6.54-12.96a1.212,1.212,0,0,0-.6.24v-.24c0-.24.36-.24.6-.48Zm.72-24.72a1.783,1.783,0,0,1,.24-1.08C7.5-38.52,7.74-37.92,7.26-37.68ZM-16.26-22.2s-.36-.24-.36-.48h.36a.235.235,0,0,0,.24.24ZM5.94-60.96a.353.353,0,0,1,.36.36l-.36.24Zm-18,37.44c.24,0,.24,0,.48-.24v.24c0,.36-.24.36-.24.36ZM.78-18.24h.48l-.48.6ZM2.46-60.12c-.24,0-.24,0-.48-.24v-.24c.24,0,.24.24.48.24Zm7.08,9-.36-.24c.36,0,.36-.24.36-.24a.235.235,0,0,1,.24.24ZM-16.62-18.96c0-.12-.24-.12-.24-.24-.12,0,0-.24,0-.24.24,0,.24,0,.24.24C-16.26-19.2-16.62-19.08-16.62-18.96ZM10.74-9.12c-.12-.12-.24-.12-.24-.6h.24Zm.36-39.84c-.12.24-.12.24-.36.24v-.24l.24-.24C10.98-48.96,10.98-48.96,11.1-48.96ZM-2.7-18.72a.235.235,0,0,0-.24.24h-.12l.12.24a.235.235,0,0,1,.24-.24ZM7.98-39c0,.24-.24.24-.48.24A.235.235,0,0,0,7.74-39ZM-14.58-23.52a.235.235,0,0,0-.24-.24.235.235,0,0,1,.24-.24Z" transform="translate(18.3 71.28)"/>
</svg>
