<svg xmlns="http://www.w3.org/2000/svg" xmlns:xlink="http://www.w3.org/1999/xlink" width="421.314" height="21.437" viewBox="0 0 421.314 21.437">
  <defs>
    <style>
      .cls-1 {
        fill: none;
      }

      .cls-2 {
        clip-path: url(#clip-path);
      }

      .cls-3 {
        fill: #da0048;
      }

      .cls-4 {
        fill: #003288;
      }
    </style>
    <clipPath id="clip-path">
      <rect id="長方形_7" data-name="長方形 7" class="cls-1" width="421.314" height="21.437" transform="translate(0 0)"/>
    </clipPath>
  </defs>
  <g id="グループ_17" data-name="グループ 17" transform="translate(0 0)">
    <g id="グループ_16" data-name="グループ 16" class="cls-2">
      <path id="パス_297" data-name="パス 297" class="cls-3" d="M4.905,2.834h8.007l.6-2.587H15.78l-.6,2.587h8.1l-.53,2.294h-8.1l-.805,3.487h9.289l-.529,2.294h-7.94a16.908,16.908,0,0,0,6.85,6.569L19.613,19.8a16.581,16.581,0,0,1-6.652-7.333l-2.072,8.975H8.617l2.041-8.84A33.364,33.364,0,0,1,.72,19.8L0,17.456a27.212,27.212,0,0,0,9.766-6.547H1.8l.529-2.294h9.244l.805-3.487H4.375Z"/>
      <path id="パス_298" data-name="パス 298" class="cls-3" d="M29.819,2.406H38.3L38.787.291h2.271L40.57,2.406H49.3l-.514,2.227H40.056l-1.247,5.4h9.4L47.7,12.259H39.869A14.445,14.445,0,0,0,46.66,18.31l-1.8,2.228a16.981,16.981,0,0,1-6.869-6.975l-1.8,7.784H33.925l1.8-7.784a33.955,33.955,0,0,1-9.841,6.975l-.941-2.161a28.158,28.158,0,0,0,9.577-6.118H26.78l.514-2.227h9.244l1.247-5.4h-8.48ZM33.4,5.038a14.31,14.31,0,0,1,.869,4.027l-2.47.765a16.667,16.667,0,0,0-.805-3.915Zm13,.877a32.859,32.859,0,0,1-2.771,3.824l-2.02-.9a40.977,40.977,0,0,0,2.611-3.712Z"/>
      <path id="パス_299" data-name="パス 299" class="cls-4" d="M63.252,1.146c-.187.518-.353.945-.822,2h9.155l-.536,2.317H61.243A15.03,15.03,0,0,1,60.031,7.4a6.644,6.644,0,0,1,2.76-.652c1.957,0,2.765.787,3,2.609a53.468,53.468,0,0,1,5.814-1.8l-.019,2.519A50.333,50.333,0,0,0,65.7,11.7a35.2,35.2,0,0,1-.9,4.184H62.28a13.784,13.784,0,0,0,.479-1.688c.145-.63.227-1.079.3-1.484-1.127.5-4.132,1.822-4.516,3.487-.441,1.911,2.1,1.911,4.259,1.911.292,0,2.564,0,5.68-.247l-.561,2.43c-1.7.067-3.6.112-5.289.112-2.452,0-4.758-.045-6.024-1.282a2.9,2.9,0,0,1-.763-2.834c.53-2.295,3.131-3.914,7.466-5.939-.063-.7-.244-1.372-1.437-1.372-2,0-4.4,1.8-5.328,2.811a44.812,44.812,0,0,1-3.424,3.532l-1.4-1.911a28.41,28.41,0,0,0,6.916-7.942h-4.52l.535-2.317h5.173a18.059,18.059,0,0,0,.8-2.2Z"/>
      <path id="パス_300" data-name="パス 300" class="cls-4" d="M77.992,17.006c5.8,0,13.494,0,14.938-6.253.254-1.1.845-4.927-3.833-4.927-2.856,0-9.408,1.394-12,2l.185-2.744c1.177-.135,1.693-.225,6.407-.968a40.244,40.244,0,0,1,5.977-.652c5.353,0,6.991,3.329,6.087,7.244-1.968,8.526-11.653,8.683-17.794,8.683Z"/>
      <path id="パス_301" data-name="パス 301" class="cls-4" d="M112.3,20.785a52.2,52.2,0,0,0-8.145-6.614c-1.577-1.057-2.978-2-2.646-3.442.255-1.1,1.638-2.226,4.425-4.161,5.41-3.756,6.137-4.274,8.075-5.849l2.017,1.687c-3.815,2.79-4.4,3.173-9.559,6.524-1.294.833-1.826,1.192-1.936,1.665-.129.563.752,1.125,1.322,1.484a60.385,60.385,0,0,1,9.1,6.839Z"/>
      <path id="パス_302" data-name="パス 302" class="cls-4" d="M137.11,1.484l-.493,2.137c-1.28.967-3.314,2.565-4.594,3.531-.3.248-.576.451-1.114.833a6.088,6.088,0,0,1,2.65-.472c5.825,0,5.028,4.723,4.757,5.894a8.957,8.957,0,0,1-4.009,5.577,10.248,10.248,0,0,1-5.81,1.4c-5.893,0-5.046-3.666-4.974-3.98.509-2.206,2.916-3.375,4.806-3.375,2.181,0,4.032,1.529,3.1,4.881a5.81,5.81,0,0,0,4.386-4.386c.748-3.239-1.686-3.8-3.26-3.8a12.071,12.071,0,0,0-6.328,1.979c-2.04,1.529-3.374,2.632-4.862,3.913L120.3,13.519c.649-.473,11.234-8.616,12.74-9.786l-8.949.091.54-2.34Zm-7.778,16.061c.036-.157.482-2.384-1.586-2.384a1.944,1.944,0,0,0-2.005,1.372c-.389,1.687,2.153,1.687,3.344,1.687a3.4,3.4,0,0,0,.247-.675"/>
      <path id="パス_303" data-name="パス 303" class="cls-4" d="M149.745,16.534l-.659,2.857H146.3l.659-2.857Zm3.433-14.87L149.9,14.4h-2.137l2.626-12.733Z"/>
      <path id="パス_304" data-name="パス 304" class="cls-4" d="M194.318,2.429l-.556,2.408h-9.2l-.909,3.936h10.527l-.556,2.406H183.1l-1.21,5.241c-.208.9-.191,1.216,1.136,1.216h3.4c.764,0,4.131-.068,4.829-.068l-.74,2.52h-8.929c-1.979,0-2.807-1.283-2.47-2.744l1.423-6.165h-6.163l.556-2.406h6.163L182,4.837h-5.219l.556-2.408Z"/>
      <path id="パス_305" data-name="パス 305" class="cls-4" d="M196.7,18.468c6.8-2.564,13.258-5.894,18.668-17.051l2.8.742c-2.852,5.242-7.991,14.352-20.514,18.423Z"/>
      <path id="パス_306" data-name="パス 306" class="cls-4" d="M223.295,17.164c.777.045,1.621.09,2.948.09,3.621,0,10.6-.113,12.025-6.3.468-2.025.185-4.7-3.975-4.7-2.857,0-8.855,1.237-11.983,2.024l-.029-2.7c1.025-.158,5.566-.923,6.474-1.057a41.9,41.9,0,0,1,6.162-.676c6.027,0,6.765,4.207,6.085,7.154a10.847,10.847,0,0,1-5.942,7.13c-1.7.721-4.272,1.553-9.759,1.553-.878,0-1.458-.022-2.06-.045Zm15.12-13.272a14.494,14.494,0,0,0-.332-3.24l2.052-.315a13.326,13.326,0,0,1,.374,3.149Zm3.162-.158a15.817,15.817,0,0,0-.363-3.4L243.2,0a14.379,14.379,0,0,1,.379,3.33Z"/>
      <path id="パス_307" data-name="パス 307" class="cls-4" d="M257.544,20.785a52.2,52.2,0,0,0-8.145-6.614c-1.578-1.057-2.978-2-2.646-3.442.255-1.1,1.639-2.226,4.425-4.161,5.41-3.756,6.137-4.274,8.075-5.849l2.017,1.687c-3.816,2.79-4.4,3.173-9.558,6.524-1.295.833-1.827,1.192-1.937,1.665-.129.563.752,1.125,1.322,1.484a60.321,60.321,0,0,1,9.1,6.839Z"/>
      <path id="パス_308" data-name="パス 308" class="cls-4" d="M274.333,1.26A41.728,41.728,0,0,0,272.314,6.3a9.231,9.231,0,0,1,6.569-3.217c3.013,0,5.3,2.565,4.091,7.806-1.481,6.41-5.312,9.56-14.746,9.6l.079-2.384c5.1-.067,10.5-.292,12.066-7.063,1.116-4.836-.906-5.624-2.144-5.624-.742,0-4.272.293-7.429,6.074a16.747,16.747,0,0,0-.5,3.239l-2.509.247a24.078,24.078,0,0,1,.605-3.4,63.472,63.472,0,0,1,3.369-10.5Z"/>
      <path id="パス_309" data-name="パス 309" class="cls-4" d="M289.086,17.839c9.054-1.418,12.957-5.175,15.621-12.621H290.132l.555-2.406h15.047a1.931,1.931,0,0,1,.042-.473A3.141,3.141,0,0,1,308.655,0a1.8,1.8,0,0,1,1.8,2.339,3.1,3.1,0,0,1-2.88,2.34,29.027,29.027,0,0,1-4.432,8.481c-3.4,4.116-8.468,6.186-13.391,7.153Zm17.95-15.5a.831.831,0,0,0,.83,1.08,1.419,1.419,0,0,0,1.329-1.08.823.823,0,0,0-.831-1.079,1.44,1.44,0,0,0-1.328,1.079"/>
      <path id="パス_310" data-name="パス 310" class="cls-4" d="M332.063,2.992l-3.8,16.443H311.533l3.8-16.443ZM328.73,5.444H317.44l-2.659,11.517h11.29Z"/>
      <path id="パス_311" data-name="パス 311" class="cls-4" d="M335.834,17.479c8.661-.7,13.154-3.4,18.074-12.238l2.179,1.08c-4.961,8.435-9.8,12.732-20.247,13.856Zm6.3-5.557a27.764,27.764,0,0,0-5.695-2.609l1.551-2.34a28.7,28.7,0,0,1,5.787,2.407ZM345.091,6.7a29.515,29.515,0,0,0-5.709-2.452l1.625-2.362a32.912,32.912,0,0,1,5.8,2.362Zm7.351-2.228a18.7,18.7,0,0,0-.22-3.621L354.159.45a15.788,15.788,0,0,1,.322,3.576ZM355.835,4A15.781,15.781,0,0,0,355.46.563l1.916-.406a19.11,19.11,0,0,1,.445,3.329Z"/>
      <path id="パス_312" data-name="パス 312" class="cls-4" d="M375.662,6.86,375.169,9h-5.511l-1.895,8.211h6.431l-.518,2.25h-15.16l.52-2.25H365.4L367.3,9h-5.444l.494-2.137Z"/>
      <path id="パス_313" data-name="パス 313" class="cls-4" d="M401.073,4.116c-1.525,3.78-5.908,14.779-19.894,16.511l-.527-2.294c7.581-1.08,12.543-3.869,16.519-11.832h-8.03a28.2,28.2,0,0,1-6.614,5.173L381.3,9.762a22.5,22.5,0,0,0,9.352-8.84l2.641.539A17.776,17.776,0,0,1,391.4,4.116Z"/>
      <path id="パス_314" data-name="パス 314" class="cls-4" d="M412.525,1.034,411.2,6.793a38.049,38.049,0,0,1,10.118,4.881L419.5,14.262c-2.172-1.508-6.026-4.005-8.925-4.792L407.939,20.9h-2.7l4.586-19.863Z"/>
    </g>
  </g>
</svg>
