<svg xmlns="http://www.w3.org/2000/svg" xmlns:xlink="http://www.w3.org/1999/xlink" width="35" height="49" viewBox="0 0 35 49">
  <defs>
    <clipPath id="clip-path">
      <rect id="長方形_105" data-name="長方形 105" width="35" height="49" transform="translate(-0.001 0.221)" fill="none"/>
    </clipPath>
  </defs>
  <g id="グループ_71" data-name="グループ 71" transform="translate(0.067 0.343)">
    <path id="パス_380" data-name="パス 380" d="M0,0V48.9H34.925V9.5L25.426,0Z" transform="translate(-0.029 -0.291)" fill="#e6e6e5"/>
    <path id="パス_381" data-name="パス 381" d="M891.8,0V9.5h9.5Z" transform="translate(-866.404 -0.291)" fill="#cccbcb"/>
    <rect id="長方形_104" data-name="長方形 104" width="34.925" height="11.316" transform="translate(-0.029 37.289)" fill="#ec1e24"/>
    <g id="グループ_70" data-name="グループ 70" transform="translate(-0.066 -0.564)">
      <g id="グループ_69" data-name="グループ 69" transform="translate(0)" clip-path="url(#clip-path)">
        <path id="パス_382" data-name="パス 382" d="M201.523,305.967s7.744-10.473,5.867-17.6c-1.4-5.309-4.051-.838-2.515,4.191s6.761,10.274,10.2,11.456c4.47,1.537,6.566-1.257,2.1-2.794-2.724-.936-12.816-1.856-19,3.493C193,309.18,197.751,311.136,201.523,305.967Z" transform="translate(-190.276 -277.544)" fill="none" stroke="#ec1e24" stroke-miterlimit="10" stroke-width="1"/>
        <path id="パス_383" data-name="パス 383" d="M382.1,1438.283v-5h1.62a5.875,5.875,0,0,1,1.2.075,1.311,1.311,0,0,1,.72.49,1.552,1.552,0,0,1,.29.974,1.632,1.632,0,0,1-.167.774,1.374,1.374,0,0,1-.425.493,1.464,1.464,0,0,1-.524.237,5.753,5.753,0,0,1-1.047.072H383.1v1.886Zm1.01-4.154v1.419h.553a2.609,2.609,0,0,0,.8-.078.663.663,0,0,0,.315-.246.672.672,0,0,0,.114-.389.646.646,0,0,0-.16-.45.7.7,0,0,0-.406-.222,4.86,4.86,0,0,0-.727-.034Z" transform="translate(-371.165 -1392.146)" fill="#fff"/>
        <path id="パス_384" data-name="パス 384" d="M545.388,1433.283h1.845a3.6,3.6,0,0,1,.952.1,1.673,1.673,0,0,1,.754.46,2.185,2.185,0,0,1,.477.81,3.691,3.691,0,0,1,.164,1.182,3.286,3.286,0,0,1-.153,1.064,2.206,2.206,0,0,1-.536.883,1.775,1.775,0,0,1-.709.4,3.052,3.052,0,0,1-.894.106h-1.9Zm1.01.846v3.312h.754a2.743,2.743,0,0,0,.611-.048.934.934,0,0,0,.408-.208,1.061,1.061,0,0,0,.264-.483,3.264,3.264,0,0,0,.1-.916,2.989,2.989,0,0,0-.1-.89,1.146,1.146,0,0,0-.287-.484.962.962,0,0,0-.467-.235,4.588,4.588,0,0,0-.829-.048Z" transform="translate(-529.802 -1392.146)" fill="#fff"/>
        <path id="パス_385" data-name="パス 385" d="M722.678,1438.284v-5h3.428v.846h-2.418v1.183h2.087v.846h-2.087v2.125Z" transform="translate(-702.038 -1392.147)" fill="#fff"/>
      </g>
    </g>
  </g>
</svg>
