<svg xmlns="http://www.w3.org/2000/svg" width="58" height="44" viewBox="0 0 58 44">
  <g id="グループ_162" data-name="グループ 162" transform="translate(-611 -1696)">
    <path id="パス_421" data-name="パス 421" d="M-.371,1.293H2.459L3.078-9.583l.147-4.1H-1.137l.147,4.1Zm1.415,7.84A2.732,2.732,0,0,0,3.756,6.3,2.732,2.732,0,0,0,1.044,3.474,2.709,2.709,0,0,0-1.638,6.3,2.709,2.709,0,0,0,1.044,9.133Z" transform="translate(638.95 1725.119)"/>
    <g id="多角形_38" data-name="多角形 38" transform="translate(611 1696)" fill="none" stroke-linecap="round" stroke-linejoin="round">
      <path d="M26.5,3.8a3,3,0,0,1,5.01,0l23.43,35.549A3,3,0,0,1,52.43,44H5.57a3,3,0,0,1-2.5-4.651Z" stroke="none"/>
      <path d="M 28.99999237060547 5.451438903808594 C 28.99999046325684 5.451438903808594 28.9999885559082 5.451438903808594 28.9999885559082 5.451438903808594 L 5.570274353027344 40.99997711181641 C 5.570278167724609 40.99998474121094 5.570281982421875 40.99999237060547 5.570266723632812 40.99999618530273 L 52.42971038818359 40.99999618530273 C 52.42971420288086 40.9999885559082 52.42971801757812 40.99998092651367 52.42973709106445 40.99999618530273 L 28.99999809265137 5.451446533203125 C 28.99999618530273 5.451442718505859 28.9999942779541 5.451438903808594 28.99999237060547 5.451438903808594 M 28.99999618530273 2.451442718505859 C 29.95605087280273 2.451442718505859 30.9121036529541 2.901126861572266 31.50486755371094 3.800498962402344 L 54.93460845947266 39.34905624389648 C 56.249267578125 41.34372711181641 54.81866836547852 43.99999618530273 52.42972946166992 43.99999618530273 L 5.570266723632812 43.99999618530273 C 3.181327819824219 43.99999618530273 1.750728607177734 41.34372711181641 3.065387725830078 39.34905624389648 L 26.4951171875 3.800498962402344 C 27.08788871765137 2.901126861572266 28.04394340515137 2.451442718505859 28.99999618530273 2.451442718505859 Z" stroke="none" fill="#000"/>
    </g>
  </g>
</svg>
