<svg id="グループ_15" data-name="グループ 15" xmlns="http://www.w3.org/2000/svg" xmlns:xlink="http://www.w3.org/1999/xlink" width="170.5" height="167.362" viewBox="0 0 170.5 167.362">
  <defs>
    <style>
      .cls-1 {
        fill: none;
      }

      .cls-2 {
        clip-path: url(#clip-path);
      }

      .cls-3 {
        fill: #1a1311;
      }

      .cls-4 {
        fill: #fff;
      }

      .cls-5 {
        fill: #00adec;
      }

      .cls-6 {
        fill: #ffec00;
      }

      .cls-7 {
        clip-path: url(#clip-path-2);
      }

      .cls-8 {
        clip-path: url(#clip-path-4);
      }

      .cls-9 {
        clip-path: url(#clip-path-6);
      }

      .cls-10 {
        fill: #da0048;
      }
    </style>
    <clipPath id="clip-path">
      <rect id="長方形_1" data-name="長方形 1" class="cls-1" width="170.5" height="167.362"/>
    </clipPath>
    <clipPath id="clip-path-2">
      <path id="パス_66" data-name="パス 66" class="cls-1" d="M129.545,155.176v20.333l25.687-10.073V145.1Z" transform="translate(-129.545 -145.103)"/>
    </clipPath>
    <clipPath id="clip-path-4">
      <path id="パス_136" data-name="パス 136" class="cls-1" d="M158.686,107.973v38.06l25.684-9.574V98.4Z" transform="translate(-158.686 -98.399)"/>
    </clipPath>
    <clipPath id="clip-path-6">
      <path id="パス_203" data-name="パス 203" class="cls-1" d="M158.686,57.893V95.953l25.684-9.573V48.32Z" transform="translate(-158.686 -48.32)"/>
    </clipPath>
  </defs>
  <g id="グループ_2" data-name="グループ 2">
    <g id="グループ_1" data-name="グループ 1" class="cls-2">
      <path id="パス_1" data-name="パス 1" class="cls-3" d="M115.01,37.733l.673-5.272L112.058,32a14.114,14.114,0,0,0-1.509-5.566l2.887-2.233-3.251-4.2L107.3,22.228a14.124,14.124,0,0,0-5.008-2.861l.463-3.625-5.272-.673-.463,3.625A14.128,14.128,0,0,0,91.452,20.2L89.22,17.316l-4.2,3.251,2.232,2.887a14.127,14.127,0,0,0-2.86,5.008L80.763,28l-.674,5.272,3.625.463A14.121,14.121,0,0,0,85.223,39.3l-2.887,2.233,3.251,4.2L88.475,43.5A14.108,14.108,0,0,0,93.7,46.426l-.459,3.591,5.272.674.468-3.661a14.121,14.121,0,0,0,5.339-1.5l2.232,2.887,4.2-3.251-2.233-2.887a14.113,14.113,0,0,0,2.861-5.007ZM97.134,38.756a5.939,5.939,0,1,1,6.644-5.138,5.938,5.938,0,0,1-6.644,5.138" transform="translate(-10.852 -2.042)"/>
      <path id="パス_2" data-name="パス 2" class="cls-3" d="M98.373,51.451a.844.844,0,0,1-.114-.008l-5.272-.673a.9.9,0,0,1-.78-1.008l.365-2.857a14.9,14.9,0,0,1-4.262-2.383L86,46.308a.9.9,0,0,1-1.265-.162l-3.251-4.2a.9.9,0,0,1,.162-1.265l2.311-1.787a14.915,14.915,0,0,1-1.218-4.5l-2.9-.371a.9.9,0,0,1-.78-1.009l.673-5.272a.9.9,0,0,1,1.009-.78l2.9.371a14.922,14.922,0,0,1,2.31-4.045l-1.787-2.312a.9.9,0,0,1,.162-1.265l4.2-3.251a.9.9,0,0,1,1.265.162l1.787,2.311a14.916,14.916,0,0,1,4.5-1.219l.371-2.9a.9.9,0,0,1,1.008-.78l5.273.673a.9.9,0,0,1,.78,1.008l-.371,2.9a14.917,14.917,0,0,1,4.046,2.31l2.311-1.787a.894.894,0,0,1,.665-.182.9.9,0,0,1,.6.343l3.251,4.2a.9.9,0,0,1-.162,1.264l-2.311,1.788a14.908,14.908,0,0,1,1.218,4.5l2.9.371a.9.9,0,0,1,.78,1.009l-.673,5.272a.9.9,0,0,1-1.008.78l-2.9-.371a14.89,14.89,0,0,1-2.31,4.045l1.789,2.311a.9.9,0,0,1-.163,1.265l-4.2,3.251a.9.9,0,0,1-1.265-.162l-1.786-2.311a14.933,14.933,0,0,1-4.269,1.2l-.377,2.95a.9.9,0,0,1-.894.788M94.109,49.1l3.483.445.354-2.766a.9.9,0,0,1,.826-.785,13.172,13.172,0,0,0,5-1.406.9.9,0,0,1,1.121.252l1.681,2.173,2.779-2.148-1.682-2.173a.9.9,0,0,1,.039-1.15,13.142,13.142,0,0,0,2.678-4.688.905.905,0,0,1,.971-.616l2.731.349.446-3.484L111.8,32.75a.9.9,0,0,1-.787-.839,13.149,13.149,0,0,0-1.411-5.211.9.9,0,0,1,.252-1.122L112.03,23.9l-2.147-2.779L107.709,22.8a.9.9,0,0,1-1.149-.039,13.149,13.149,0,0,0-4.689-2.677.9.9,0,0,1-.616-.972l.349-2.731-3.484-.445-.348,2.731a.9.9,0,0,1-.839.786,13.15,13.15,0,0,0-5.212,1.413.9.9,0,0,1-1.122-.252l-1.681-2.173L86.14,20.588l1.681,2.174a.9.9,0,0,1-.038,1.149A13.168,13.168,0,0,0,85.1,28.6a.9.9,0,0,1-.972.616l-2.73-.348-.446,3.483,2.732.349a.9.9,0,0,1,.785.84,13.157,13.157,0,0,0,1.413,5.21.9.9,0,0,1-.252,1.122L83.46,41.553,85.61,44.33l2.173-1.681a.9.9,0,0,1,1.149.039,13.161,13.161,0,0,0,4.893,2.735.9.9,0,0,1,.629.976Zm3.651-9.53a6.879,6.879,0,0,1-.881-.057,6.8,6.8,0,1,1,.881.057m-.017-11.879a5.037,5.037,0,1,0,.641.041,5.2,5.2,0,0,0-.641-.041" transform="translate(-10.711 -1.9)"/>
      <path id="パス_3" data-name="パス 3" class="cls-4" d="M110.752,38.531l.673-5.272L107.8,32.8a14.114,14.114,0,0,0-1.509-5.566L109.178,25l-3.251-4.2-2.887,2.233a14.124,14.124,0,0,0-5.008-2.861L98.5,16.54l-5.272-.673-.463,3.625A14.128,14.128,0,0,0,87.194,21l-2.232-2.887-4.2,3.251,2.232,2.887a14.135,14.135,0,0,0-2.86,5.008L76.505,28.8l-.674,5.272,3.625.463A14.121,14.121,0,0,0,80.965,40.1L78.079,42.33l3.251,4.2L84.217,44.3a14.107,14.107,0,0,0,5.226,2.922l-.459,3.591,5.272.674.468-3.661a14.121,14.121,0,0,0,5.339-1.5l2.232,2.887,4.2-3.251-2.233-2.887a14.121,14.121,0,0,0,2.861-5.008ZM92.876,39.554a5.939,5.939,0,1,1,6.644-5.138,5.938,5.938,0,0,1-6.644,5.138" transform="translate(-10.275 -2.15)"/>
      <path id="パス_4" data-name="パス 4" class="cls-3" d="M94.114,52.249A.866.866,0,0,1,94,52.242l-5.272-.673a.9.9,0,0,1-.78-1.008l.365-2.857a14.894,14.894,0,0,1-4.262-2.384l-2.311,1.788a.9.9,0,0,1-1.265-.162l-3.251-4.2a.9.9,0,0,1,.162-1.265L79.7,39.689a14.927,14.927,0,0,1-1.218-4.5l-2.9-.371a.9.9,0,0,1-.78-1.008l.674-5.273a.9.9,0,0,1,1.008-.779l2.9.371a14.9,14.9,0,0,1,2.31-4.045L79.9,21.776a.9.9,0,0,1,.162-1.265l4.2-3.251a.9.9,0,0,1,1.264.162l1.788,2.31a14.94,14.94,0,0,1,4.5-1.218l.371-2.9a.9.9,0,0,1,1.008-.779l5.272.673a.9.9,0,0,1,.78,1.008l-.37,2.9a14.916,14.916,0,0,1,4.045,2.31l2.311-1.787a.9.9,0,0,1,1.265.162l3.251,4.2a.9.9,0,0,1-.163,1.264l-2.31,1.788a14.933,14.933,0,0,1,1.218,4.5l2.9.371a.9.9,0,0,1,.781,1.009L111.5,38.5a.9.9,0,0,1-1.008.78l-2.9-.371a14.913,14.913,0,0,1-2.31,4.045l1.788,2.311a.9.9,0,0,1-.162,1.265l-4.2,3.252a.9.9,0,0,1-1.265-.163l-1.788-2.311a14.927,14.927,0,0,1-4.267,1.2l-.378,2.95a.9.9,0,0,1-.893.788m-4.265-2.355,3.484.445.354-2.766a.9.9,0,0,1,.826-.785,13.157,13.157,0,0,0,5-1.406.9.9,0,0,1,1.123.252l1.681,2.174,2.779-2.149-1.681-2.173a.9.9,0,0,1,.039-1.15,13.153,13.153,0,0,0,2.677-4.688.908.908,0,0,1,.972-.616l2.731.349.445-3.484-2.731-.349a.9.9,0,0,1-.786-.839,13.164,13.164,0,0,0-1.412-5.211.9.9,0,0,1,.252-1.122l2.173-1.681-2.148-2.778L103.45,23.6a.9.9,0,0,1-1.149-.039,13.166,13.166,0,0,0-4.689-2.677A.9.9,0,0,1,97,19.91l.348-2.731-3.483-.445-.349,2.731a.9.9,0,0,1-.839.786,13.153,13.153,0,0,0-5.211,1.412.9.9,0,0,1-1.122-.252l-1.681-2.173L81.88,21.386l1.681,2.174a.9.9,0,0,1-.038,1.149A13.153,13.153,0,0,0,80.845,29.4a.9.9,0,0,1-.972.616l-2.731-.349L76.7,33.147l2.731.349a.9.9,0,0,1,.786.84,13.153,13.153,0,0,0,1.412,5.21.9.9,0,0,1-.252,1.122L79.2,42.351l2.148,2.778,2.173-1.681a.9.9,0,0,1,1.15.038,13.15,13.15,0,0,0,4.893,2.736.9.9,0,0,1,.628.976Zm3.641-9.531a6.761,6.761,0,0,1-.871-.056,6.831,6.831,0,1,1,.871.056m-.008-11.878a5.037,5.037,0,1,0,.642.041,5.21,5.21,0,0,0-.642-.041" transform="translate(-10.133 -2.009)"/>
      <path id="パス_5" data-name="パス 5" class="cls-4" d="M116.336,175.466,32.059,165.118V144.785l84.277,10.348Z" transform="translate(-4.344 -19.618)"/>
      <path id="パス_6" data-name="パス 6" class="cls-3" d="M116.2,176.227a.933.933,0,0,1-.11-.007L31.809,165.872a.9.9,0,0,1-.792-.895V144.644a.9.9,0,0,1,.3-.675.92.92,0,0,1,.706-.22L116.305,154.1a.9.9,0,0,1,.792.895v20.333a.9.9,0,0,1-.9.9M32.819,164.179l82.475,10.127V155.79L32.819,145.663Z" transform="translate(-4.203 -19.477)"/>
      <path id="パス_7" data-name="パス 7" class="cls-5" d="M141.994,143.483,57.717,133.135,32.06,143.207l84.277,10.347Z" transform="translate(-4.344 -18.039)"/>
      <path id="パス_8" data-name="パス 8" class="cls-3" d="M116.2,154.315a.937.937,0,0,1-.11-.007L31.809,143.96a.9.9,0,0,1-.22-1.733l25.658-10.072a.92.92,0,0,1,.439-.055l84.277,10.347a.9.9,0,0,1,.219,1.734l-25.657,10.072a.913.913,0,0,1-.329.062M35.56,142.6l80.519,9.886,22.133-8.688-80.519-9.886Z" transform="translate(-4.203 -17.898)"/>
      <path id="パス_9" data-name="パス 9" class="cls-6" d="M129.545,175.51l25.687-10.073V145.1l-25.687,10.073Z" transform="translate(-17.553 -19.661)"/>
      <path id="パス_10" data-name="パス 10" class="cls-3" d="M129.4,176.27a.9.9,0,0,1-.9-.9V155.035a.9.9,0,0,1,.572-.839l25.686-10.073a.9.9,0,0,1,1.231.839v20.333a.9.9,0,0,1-.572.839l-25.686,10.072a.906.906,0,0,1-.329.063m.9-20.62v18.4l23.883-9.365v-18.4Z" transform="translate(-17.412 -19.52)"/>
    </g>
  </g>
  <g id="グループ_4" data-name="グループ 4" transform="translate(111.992 125.442)">
    <g id="グループ_3" data-name="グループ 3" class="cls-7">
      <path id="パス_11" data-name="パス 11" class="cls-3" d="M127.448,143.218a1.048,1.048,0,1,1-1.048-1.048,1.048,1.048,0,0,1,1.048,1.048" transform="translate(-128.977 -144.706)"/>
      <path id="パス_12" data-name="パス 12" class="cls-3" d="M136.249,143.218a1.048,1.048,0,1,1-1.048-1.048,1.048,1.048,0,0,1,1.048,1.048" transform="translate(-130.169 -144.706)"/>
      <path id="パス_13" data-name="パス 13" class="cls-3" d="M145.05,143.218A1.048,1.048,0,1,1,144,142.17a1.048,1.048,0,0,1,1.048,1.048" transform="translate(-131.362 -144.706)"/>
      <path id="パス_14" data-name="パス 14" class="cls-3" d="M153.851,143.218a1.048,1.048,0,1,1-1.048-1.048,1.048,1.048,0,0,1,1.048,1.048" transform="translate(-132.554 -144.706)"/>
      <path id="パス_15" data-name="パス 15" class="cls-3" d="M127.448,152.128a1.048,1.048,0,1,1-1.048-1.048,1.048,1.048,0,0,1,1.048,1.048" transform="translate(-128.977 -145.913)"/>
      <path id="パス_16" data-name="パス 16" class="cls-3" d="M136.249,152.128a1.048,1.048,0,1,1-1.048-1.048,1.048,1.048,0,0,1,1.048,1.048" transform="translate(-130.169 -145.913)"/>
      <path id="パス_17" data-name="パス 17" class="cls-3" d="M145.05,152.128A1.048,1.048,0,1,1,144,151.08a1.048,1.048,0,0,1,1.048,1.048" transform="translate(-131.362 -145.913)"/>
      <path id="パス_18" data-name="パス 18" class="cls-3" d="M153.851,152.128a1.048,1.048,0,1,1-1.048-1.048,1.048,1.048,0,0,1,1.048,1.048" transform="translate(-132.554 -145.913)"/>
      <path id="パス_19" data-name="パス 19" class="cls-3" d="M127.448,161.039a1.048,1.048,0,1,1-1.048-1.048,1.048,1.048,0,0,1,1.048,1.048" transform="translate(-128.977 -147.12)"/>
      <path id="パス_20" data-name="パス 20" class="cls-3" d="M136.249,161.039a1.048,1.048,0,1,1-1.048-1.048,1.048,1.048,0,0,1,1.048,1.048" transform="translate(-130.169 -147.12)"/>
      <path id="パス_21" data-name="パス 21" class="cls-3" d="M145.05,161.039A1.048,1.048,0,1,1,144,159.991a1.048,1.048,0,0,1,1.048,1.048" transform="translate(-131.362 -147.12)"/>
      <path id="パス_22" data-name="パス 22" class="cls-3" d="M153.851,161.039a1.048,1.048,0,1,1-1.048-1.048,1.048,1.048,0,0,1,1.048,1.048" transform="translate(-132.554 -147.12)"/>
      <path id="パス_23" data-name="パス 23" class="cls-3" d="M127.448,169.95A1.048,1.048,0,1,1,126.4,168.9a1.048,1.048,0,0,1,1.048,1.048" transform="translate(-128.977 -148.328)"/>
      <path id="パス_24" data-name="パス 24" class="cls-3" d="M136.249,169.95A1.048,1.048,0,1,1,135.2,168.9a1.048,1.048,0,0,1,1.048,1.048" transform="translate(-130.169 -148.328)"/>
      <path id="パス_25" data-name="パス 25" class="cls-3" d="M145.05,169.95A1.048,1.048,0,1,1,144,168.9a1.048,1.048,0,0,1,1.048,1.048" transform="translate(-131.362 -148.328)"/>
      <path id="パス_26" data-name="パス 26" class="cls-3" d="M153.851,169.95A1.048,1.048,0,1,1,152.8,168.9a1.048,1.048,0,0,1,1.048,1.048" transform="translate(-132.554 -148.328)"/>
      <path id="パス_27" data-name="パス 27" class="cls-3" d="M131.9,147.672a1.048,1.048,0,1,1-1.048-1.048,1.048,1.048,0,0,1,1.048,1.048" transform="translate(-129.58 -145.309)"/>
      <path id="パス_28" data-name="パス 28" class="cls-3" d="M140.7,147.672a1.048,1.048,0,1,1-1.048-1.048,1.048,1.048,0,0,1,1.048,1.048" transform="translate(-130.773 -145.309)"/>
      <path id="パス_29" data-name="パス 29" class="cls-3" d="M149.5,147.672a1.048,1.048,0,1,1-1.048-1.048,1.048,1.048,0,0,1,1.048,1.048" transform="translate(-131.966 -145.309)"/>
      <path id="パス_30" data-name="パス 30" class="cls-3" d="M158.3,147.672a1.048,1.048,0,1,1-1.048-1.048,1.048,1.048,0,0,1,1.048,1.048" transform="translate(-133.158 -145.309)"/>
      <path id="パス_31" data-name="パス 31" class="cls-3" d="M131.9,156.583a1.048,1.048,0,1,1-1.048-1.048,1.048,1.048,0,0,1,1.048,1.048" transform="translate(-129.58 -146.516)"/>
      <path id="パス_32" data-name="パス 32" class="cls-3" d="M140.7,156.583a1.048,1.048,0,1,1-1.048-1.048,1.048,1.048,0,0,1,1.048,1.048" transform="translate(-130.773 -146.516)"/>
      <path id="パス_33" data-name="パス 33" class="cls-3" d="M149.5,156.583a1.048,1.048,0,1,1-1.048-1.048,1.048,1.048,0,0,1,1.048,1.048" transform="translate(-131.966 -146.516)"/>
      <path id="パス_34" data-name="パス 34" class="cls-3" d="M158.3,156.583a1.048,1.048,0,1,1-1.048-1.048,1.048,1.048,0,0,1,1.048,1.048" transform="translate(-133.158 -146.516)"/>
      <path id="パス_35" data-name="パス 35" class="cls-3" d="M131.9,165.494a1.048,1.048,0,1,1-1.048-1.048,1.048,1.048,0,0,1,1.048,1.048" transform="translate(-129.58 -147.724)"/>
      <path id="パス_36" data-name="パス 36" class="cls-3" d="M140.7,165.494a1.048,1.048,0,1,1-1.048-1.048,1.048,1.048,0,0,1,1.048,1.048" transform="translate(-130.773 -147.724)"/>
      <path id="パス_37" data-name="パス 37" class="cls-3" d="M149.5,165.494a1.048,1.048,0,1,1-1.048-1.048,1.048,1.048,0,0,1,1.048,1.048" transform="translate(-131.966 -147.724)"/>
      <path id="パス_38" data-name="パス 38" class="cls-3" d="M158.3,165.494a1.048,1.048,0,1,1-1.048-1.048,1.048,1.048,0,0,1,1.048,1.048" transform="translate(-133.158 -147.724)"/>
      <path id="パス_39" data-name="パス 39" class="cls-3" d="M131.9,174.4a1.048,1.048,0,1,1-1.048-1.048A1.048,1.048,0,0,1,131.9,174.4" transform="translate(-129.58 -148.931)"/>
      <path id="パス_40" data-name="パス 40" class="cls-3" d="M140.7,174.4a1.048,1.048,0,1,1-1.048-1.048A1.048,1.048,0,0,1,140.7,174.4" transform="translate(-130.773 -148.931)"/>
      <path id="パス_41" data-name="パス 41" class="cls-3" d="M149.5,174.4a1.048,1.048,0,1,1-1.048-1.048A1.048,1.048,0,0,1,149.5,174.4" transform="translate(-131.966 -148.931)"/>
      <path id="パス_42" data-name="パス 42" class="cls-3" d="M158.3,174.4a1.048,1.048,0,1,1-1.048-1.048A1.048,1.048,0,0,1,158.3,174.4" transform="translate(-133.158 -148.931)"/>
      <path id="パス_43" data-name="パス 43" class="cls-3" d="M162.651,143.218a1.048,1.048,0,1,1-1.048-1.048,1.049,1.049,0,0,1,1.048,1.048" transform="translate(-133.747 -144.706)"/>
      <path id="パス_44" data-name="パス 44" class="cls-3" d="M162.651,152.128a1.048,1.048,0,1,1-1.048-1.048,1.049,1.049,0,0,1,1.048,1.048" transform="translate(-133.747 -145.913)"/>
      <path id="パス_45" data-name="パス 45" class="cls-3" d="M162.651,161.039a1.048,1.048,0,1,1-1.048-1.048,1.049,1.049,0,0,1,1.048,1.048" transform="translate(-133.747 -147.12)"/>
      <path id="パス_46" data-name="パス 46" class="cls-3" d="M162.651,169.95A1.048,1.048,0,1,1,161.6,168.9a1.049,1.049,0,0,1,1.048,1.048" transform="translate(-133.747 -148.328)"/>
      <path id="パス_47" data-name="パス 47" class="cls-3" d="M167.106,147.672a1.048,1.048,0,1,1-1.048-1.048,1.048,1.048,0,0,1,1.048,1.048" transform="translate(-134.35 -145.309)"/>
      <path id="パス_48" data-name="パス 48" class="cls-3" d="M167.106,156.583a1.048,1.048,0,1,1-1.048-1.048,1.048,1.048,0,0,1,1.048,1.048" transform="translate(-134.35 -146.516)"/>
      <path id="パス_49" data-name="パス 49" class="cls-3" d="M167.106,165.494a1.048,1.048,0,1,1-1.048-1.048,1.048,1.048,0,0,1,1.048,1.048" transform="translate(-134.35 -147.724)"/>
      <path id="パス_50" data-name="パス 50" class="cls-3" d="M167.106,174.4a1.048,1.048,0,1,1-1.048-1.048,1.048,1.048,0,0,1,1.048,1.048" transform="translate(-134.35 -148.931)"/>
      <path id="パス_51" data-name="パス 51" class="cls-3" d="M127.448,178.856a1.048,1.048,0,1,1-1.048-1.048,1.048,1.048,0,0,1,1.048,1.048" transform="translate(-128.977 -149.534)"/>
      <path id="パス_52" data-name="パス 52" class="cls-3" d="M136.249,178.856a1.048,1.048,0,1,1-1.048-1.048,1.048,1.048,0,0,1,1.048,1.048" transform="translate(-130.169 -149.534)"/>
      <path id="パス_53" data-name="パス 53" class="cls-3" d="M145.05,178.856A1.048,1.048,0,1,1,144,177.808a1.048,1.048,0,0,1,1.048,1.048" transform="translate(-131.362 -149.534)"/>
      <path id="パス_54" data-name="パス 54" class="cls-3" d="M153.851,178.856a1.048,1.048,0,1,1-1.048-1.048,1.048,1.048,0,0,1,1.048,1.048" transform="translate(-132.554 -149.534)"/>
      <path id="パス_55" data-name="パス 55" class="cls-3" d="M131.9,183.311a1.048,1.048,0,1,1-1.048-1.048,1.048,1.048,0,0,1,1.048,1.048" transform="translate(-129.58 -150.138)"/>
      <path id="パス_56" data-name="パス 56" class="cls-3" d="M140.7,183.311a1.048,1.048,0,1,1-1.048-1.048,1.048,1.048,0,0,1,1.048,1.048" transform="translate(-130.773 -150.138)"/>
      <path id="パス_57" data-name="パス 57" class="cls-3" d="M149.5,183.311a1.048,1.048,0,1,1-1.048-1.048,1.048,1.048,0,0,1,1.048,1.048" transform="translate(-131.966 -150.138)"/>
      <path id="パス_58" data-name="パス 58" class="cls-3" d="M158.3,183.311a1.048,1.048,0,1,1-1.048-1.048,1.048,1.048,0,0,1,1.048,1.048" transform="translate(-133.158 -150.138)"/>
      <path id="パス_59" data-name="パス 59" class="cls-3" d="M162.651,178.856a1.048,1.048,0,1,1-1.048-1.048,1.049,1.049,0,0,1,1.048,1.048" transform="translate(-133.747 -149.534)"/>
      <path id="パス_60" data-name="パス 60" class="cls-3" d="M167.106,183.311a1.048,1.048,0,1,1-1.048-1.048,1.048,1.048,0,0,1,1.048,1.048" transform="translate(-134.35 -150.138)"/>
      <path id="パス_61" data-name="パス 61" class="cls-3" d="M127.448,187.762a1.048,1.048,0,1,1-1.048-1.048,1.048,1.048,0,0,1,1.048,1.048" transform="translate(-128.977 -150.741)"/>
      <path id="パス_62" data-name="パス 62" class="cls-3" d="M136.249,187.762a1.048,1.048,0,1,1-1.048-1.048,1.048,1.048,0,0,1,1.048,1.048" transform="translate(-130.169 -150.741)"/>
      <path id="パス_63" data-name="パス 63" class="cls-3" d="M145.05,187.762A1.048,1.048,0,1,1,144,186.714a1.048,1.048,0,0,1,1.048,1.048" transform="translate(-131.362 -150.741)"/>
      <path id="パス_64" data-name="パス 64" class="cls-3" d="M153.851,187.762a1.048,1.048,0,1,1-1.048-1.048,1.048,1.048,0,0,1,1.048,1.048" transform="translate(-132.554 -150.741)"/>
      <path id="パス_65" data-name="パス 65" class="cls-3" d="M162.651,187.762a1.048,1.048,0,1,1-1.048-1.048,1.049,1.049,0,0,1,1.048,1.048" transform="translate(-133.747 -150.741)"/>
    </g>
  </g>
  <g id="グループ_6" data-name="グループ 6">
    <g id="グループ_5" data-name="グループ 5" class="cls-2">
      <line id="線_1" data-name="線 1" class="cls-4" x1="6.709" y1="0.857" transform="translate(137.43 145.786)"/>
      <path id="パス_67" data-name="パス 67" class="cls-3" d="M165.538,170.252a.869.869,0,0,1-.115-.008l-6.709-.857a.9.9,0,1,1,.228-1.788l6.709.857a.9.9,0,0,1-.113,1.8" transform="translate(-21.398 -22.708)"/>
      <line id="線_2" data-name="線 2" class="cls-4" x1="6.709" y1="0.857" transform="translate(21.84 124.409)"/>
      <path id="パス_68" data-name="パス 68" class="cls-3" d="M31.833,145.525a.856.856,0,0,1-.115-.008l-6.71-.856a.9.9,0,0,1,.228-1.788l6.709.856a.9.9,0,0,1-.112,1.8" transform="translate(-3.282 -19.358)"/>
      <line id="線_3" data-name="線 3" class="cls-4" x1="6.709" y1="0.857" transform="translate(21.46 144.686)"/>
      <path id="パス_69" data-name="パス 69" class="cls-3" d="M31.392,168.98a.879.879,0,0,1-.116-.008l-6.709-.857a.9.9,0,1,1,.229-1.788l6.709.857a.9.9,0,0,1-.113,1.8" transform="translate(-3.222 -22.536)"/>
      <path id="パス_70" data-name="パス 70" class="cls-4" d="M138.175,145.016,7.307,128.948V90.887l130.869,16.069Z" transform="translate(-0.99 -12.315)"/>
      <path id="パス_71" data-name="パス 71" class="cls-3" d="M138.033,145.777a.933.933,0,0,1-.11-.007L7.056,129.7a.9.9,0,0,1-.792-.895V90.746a.9.9,0,0,1,.3-.675.917.917,0,0,1,.706-.22L138.143,105.92a.9.9,0,0,1,.792.895v38.061a.9.9,0,0,1-.9.9M8.066,128.009l129.065,15.847V107.612L8.066,91.765Z" transform="translate(-0.849 -12.174)"/>
      <path id="パス_72" data-name="パス 72" class="cls-5" d="M163.805,95.885,32.937,79.816,7.307,89.387l130.869,16.069Z" transform="translate(-0.99 -10.815)"/>
      <path id="パス_73" data-name="パス 73" class="cls-3" d="M138.033,106.217a.937.937,0,0,1-.11-.007L7.055,90.141A.9.9,0,0,1,6.849,88.4l25.63-9.571a.906.906,0,0,1,.425-.051L163.773,94.849a.9.9,0,0,1,.207,1.739l-25.632,9.57a.89.89,0,0,1-.315.058M10.934,88.8l126.99,15.592,21.97-8.2L32.9,80.6Z" transform="translate(-0.849 -10.674)"/>
      <path id="パス_74" data-name="パス 74" class="cls-6" d="M158.687,146.034l25.684-9.574V98.4l-25.684,9.573Z" transform="translate(-21.501 -13.333)"/>
      <path id="パス_75" data-name="パス 75" class="cls-3" d="M158.545,146.795a.9.9,0,0,1-.9-.9V107.832a.9.9,0,0,1,.587-.845l25.684-9.573a.9.9,0,0,1,1.216.845V136.32a.9.9,0,0,1-.587.845l-25.684,9.573a.9.9,0,0,1-.315.057m.9-38.336V144.6l23.881-8.9V99.557Z" transform="translate(-21.36 -13.192)"/>
    </g>
  </g>
  <g id="グループ_8" data-name="グループ 8" transform="translate(137.185 85.066)">
    <g id="グループ_7" data-name="グループ 7" class="cls-8">
      <path id="パス_76" data-name="パス 76" class="cls-3" d="M156.613,101.992a1.048,1.048,0,1,1-1.048-1.048,1.048,1.048,0,0,1,1.048,1.048" transform="translate(-158.121 -98.744)"/>
      <path id="パス_77" data-name="パス 77" class="cls-3" d="M165.414,101.992a1.048,1.048,0,1,1-1.048-1.048,1.048,1.048,0,0,1,1.048,1.048" transform="translate(-159.314 -98.744)"/>
      <path id="パス_78" data-name="パス 78" class="cls-3" d="M174.215,101.992a1.048,1.048,0,1,1-1.048-1.048,1.048,1.048,0,0,1,1.048,1.048" transform="translate(-160.506 -98.744)"/>
      <path id="パス_79" data-name="パス 79" class="cls-3" d="M183.016,101.992a1.048,1.048,0,1,1-1.048-1.048,1.048,1.048,0,0,1,1.048,1.048" transform="translate(-161.699 -98.744)"/>
      <path id="パス_80" data-name="パス 80" class="cls-3" d="M156.613,110.9a1.048,1.048,0,1,1-1.048-1.048,1.048,1.048,0,0,1,1.048,1.048" transform="translate(-158.121 -99.951)"/>
      <path id="パス_81" data-name="パス 81" class="cls-3" d="M165.414,110.9a1.048,1.048,0,1,1-1.048-1.048,1.048,1.048,0,0,1,1.048,1.048" transform="translate(-159.314 -99.951)"/>
      <path id="パス_82" data-name="パス 82" class="cls-3" d="M174.215,110.9a1.048,1.048,0,1,1-1.048-1.048,1.048,1.048,0,0,1,1.048,1.048" transform="translate(-160.506 -99.951)"/>
      <path id="パス_83" data-name="パス 83" class="cls-3" d="M183.016,110.9a1.048,1.048,0,1,1-1.048-1.048,1.048,1.048,0,0,1,1.048,1.048" transform="translate(-161.699 -99.951)"/>
      <path id="パス_84" data-name="パス 84" class="cls-3" d="M156.613,119.813a1.048,1.048,0,1,1-1.048-1.048,1.048,1.048,0,0,1,1.048,1.048" transform="translate(-158.121 -101.159)"/>
      <path id="パス_85" data-name="パス 85" class="cls-3" d="M165.414,119.813a1.048,1.048,0,1,1-1.048-1.048,1.048,1.048,0,0,1,1.048,1.048" transform="translate(-159.314 -101.159)"/>
      <path id="パス_86" data-name="パス 86" class="cls-3" d="M174.215,119.813a1.048,1.048,0,1,1-1.048-1.048,1.048,1.048,0,0,1,1.048,1.048" transform="translate(-160.506 -101.159)"/>
      <path id="パス_87" data-name="パス 87" class="cls-3" d="M183.016,119.813a1.048,1.048,0,1,1-1.048-1.048,1.048,1.048,0,0,1,1.048,1.048" transform="translate(-161.699 -101.159)"/>
      <path id="パス_88" data-name="パス 88" class="cls-3" d="M156.613,128.724a1.048,1.048,0,1,1-1.048-1.048,1.048,1.048,0,0,1,1.048,1.048" transform="translate(-158.121 -102.366)"/>
      <path id="パス_89" data-name="パス 89" class="cls-3" d="M165.414,128.724a1.048,1.048,0,1,1-1.048-1.048,1.048,1.048,0,0,1,1.048,1.048" transform="translate(-159.314 -102.366)"/>
      <path id="パス_90" data-name="パス 90" class="cls-3" d="M174.215,128.724a1.048,1.048,0,1,1-1.048-1.048,1.048,1.048,0,0,1,1.048,1.048" transform="translate(-160.506 -102.366)"/>
      <path id="パス_91" data-name="パス 91" class="cls-3" d="M183.016,128.724a1.048,1.048,0,1,1-1.048-1.048,1.048,1.048,0,0,1,1.048,1.048" transform="translate(-161.699 -102.366)"/>
      <path id="パス_92" data-name="パス 92" class="cls-3" d="M161.068,106.447a1.048,1.048,0,1,1-1.048-1.048,1.048,1.048,0,0,1,1.048,1.048" transform="translate(-158.725 -99.347)"/>
      <path id="パス_93" data-name="パス 93" class="cls-3" d="M169.869,106.447a1.048,1.048,0,1,1-1.048-1.048,1.048,1.048,0,0,1,1.048,1.048" transform="translate(-159.917 -99.347)"/>
      <path id="パス_94" data-name="パス 94" class="cls-3" d="M178.67,106.447a1.048,1.048,0,1,1-1.048-1.048,1.048,1.048,0,0,1,1.048,1.048" transform="translate(-161.11 -99.347)"/>
      <path id="パス_95" data-name="パス 95" class="cls-3" d="M187.47,106.447a1.048,1.048,0,1,1-1.048-1.048,1.048,1.048,0,0,1,1.048,1.048" transform="translate(-162.302 -99.347)"/>
      <path id="パス_96" data-name="パス 96" class="cls-3" d="M161.068,115.357a1.048,1.048,0,1,1-1.048-1.048,1.048,1.048,0,0,1,1.048,1.048" transform="translate(-158.725 -100.555)"/>
      <path id="パス_97" data-name="パス 97" class="cls-3" d="M169.869,115.357a1.048,1.048,0,1,1-1.048-1.048,1.048,1.048,0,0,1,1.048,1.048" transform="translate(-159.917 -100.555)"/>
      <path id="パス_98" data-name="パス 98" class="cls-3" d="M178.67,115.357a1.048,1.048,0,1,1-1.048-1.048,1.048,1.048,0,0,1,1.048,1.048" transform="translate(-161.11 -100.555)"/>
      <path id="パス_99" data-name="パス 99" class="cls-3" d="M187.47,115.357a1.048,1.048,0,1,1-1.048-1.048,1.048,1.048,0,0,1,1.048,1.048" transform="translate(-162.302 -100.555)"/>
      <path id="パス_100" data-name="パス 100" class="cls-3" d="M161.068,124.268a1.048,1.048,0,1,1-1.048-1.048,1.048,1.048,0,0,1,1.048,1.048" transform="translate(-158.725 -101.762)"/>
      <path id="パス_101" data-name="パス 101" class="cls-3" d="M169.869,124.268a1.048,1.048,0,1,1-1.048-1.048,1.048,1.048,0,0,1,1.048,1.048" transform="translate(-159.917 -101.762)"/>
      <path id="パス_102" data-name="パス 102" class="cls-3" d="M178.67,124.268a1.048,1.048,0,1,1-1.048-1.048,1.048,1.048,0,0,1,1.048,1.048" transform="translate(-161.11 -101.762)"/>
      <path id="パス_103" data-name="パス 103" class="cls-3" d="M187.47,124.268a1.048,1.048,0,1,1-1.048-1.048,1.048,1.048,0,0,1,1.048,1.048" transform="translate(-162.302 -101.762)"/>
      <path id="パス_104" data-name="パス 104" class="cls-3" d="M161.068,133.179a1.048,1.048,0,1,1-1.048-1.048,1.048,1.048,0,0,1,1.048,1.048" transform="translate(-158.725 -102.97)"/>
      <path id="パス_105" data-name="パス 105" class="cls-3" d="M169.869,133.179a1.048,1.048,0,1,1-1.048-1.048,1.048,1.048,0,0,1,1.048,1.048" transform="translate(-159.917 -102.97)"/>
      <path id="パス_106" data-name="パス 106" class="cls-3" d="M178.67,133.179a1.048,1.048,0,1,1-1.048-1.048,1.048,1.048,0,0,1,1.048,1.048" transform="translate(-161.11 -102.97)"/>
      <path id="パス_107" data-name="パス 107" class="cls-3" d="M187.47,133.179a1.048,1.048,0,1,1-1.048-1.048,1.048,1.048,0,0,1,1.048,1.048" transform="translate(-162.302 -102.97)"/>
      <path id="パス_108" data-name="パス 108" class="cls-3" d="M191.817,101.992a1.048,1.048,0,1,1-1.048-1.048,1.048,1.048,0,0,1,1.048,1.048" transform="translate(-162.891 -98.744)"/>
      <path id="パス_109" data-name="パス 109" class="cls-3" d="M191.817,110.9a1.048,1.048,0,1,1-1.048-1.048,1.048,1.048,0,0,1,1.048,1.048" transform="translate(-162.891 -99.951)"/>
      <path id="パス_110" data-name="パス 110" class="cls-3" d="M191.817,119.813a1.048,1.048,0,1,1-1.048-1.048,1.048,1.048,0,0,1,1.048,1.048" transform="translate(-162.891 -101.159)"/>
      <path id="パス_111" data-name="パス 111" class="cls-3" d="M191.817,128.724a1.048,1.048,0,1,1-1.048-1.048,1.048,1.048,0,0,1,1.048,1.048" transform="translate(-162.891 -102.366)"/>
      <path id="パス_112" data-name="パス 112" class="cls-3" d="M196.271,106.447a1.048,1.048,0,1,1-1.048-1.048,1.048,1.048,0,0,1,1.048,1.048" transform="translate(-163.495 -99.347)"/>
      <path id="パス_113" data-name="パス 113" class="cls-3" d="M196.271,115.357a1.048,1.048,0,1,1-1.048-1.048,1.048,1.048,0,0,1,1.048,1.048" transform="translate(-163.495 -100.555)"/>
      <path id="パス_114" data-name="パス 114" class="cls-3" d="M196.271,124.268a1.048,1.048,0,1,1-1.048-1.048,1.048,1.048,0,0,1,1.048,1.048" transform="translate(-163.495 -101.762)"/>
      <path id="パス_115" data-name="パス 115" class="cls-3" d="M196.271,133.179a1.048,1.048,0,1,1-1.048-1.048,1.048,1.048,0,0,1,1.048,1.048" transform="translate(-163.495 -102.97)"/>
      <path id="パス_116" data-name="パス 116" class="cls-3" d="M156.613,137.63a1.048,1.048,0,1,1-1.048-1.048,1.048,1.048,0,0,1,1.048,1.048" transform="translate(-158.121 -103.573)"/>
      <path id="パス_117" data-name="パス 117" class="cls-3" d="M165.414,137.63a1.048,1.048,0,1,1-1.048-1.048,1.048,1.048,0,0,1,1.048,1.048" transform="translate(-159.314 -103.573)"/>
      <path id="パス_118" data-name="パス 118" class="cls-3" d="M174.215,137.63a1.048,1.048,0,1,1-1.048-1.048,1.048,1.048,0,0,1,1.048,1.048" transform="translate(-160.506 -103.573)"/>
      <path id="パス_119" data-name="パス 119" class="cls-3" d="M183.016,137.63a1.048,1.048,0,1,1-1.048-1.048,1.048,1.048,0,0,1,1.048,1.048" transform="translate(-161.699 -103.573)"/>
      <path id="パス_120" data-name="パス 120" class="cls-3" d="M161.068,142.085a1.048,1.048,0,1,1-1.048-1.048,1.048,1.048,0,0,1,1.048,1.048" transform="translate(-158.725 -104.176)"/>
      <path id="パス_121" data-name="パス 121" class="cls-3" d="M169.869,142.085a1.048,1.048,0,1,1-1.048-1.048,1.048,1.048,0,0,1,1.048,1.048" transform="translate(-159.917 -104.176)"/>
      <path id="パス_122" data-name="パス 122" class="cls-3" d="M178.67,142.085a1.048,1.048,0,1,1-1.048-1.048,1.048,1.048,0,0,1,1.048,1.048" transform="translate(-161.11 -104.176)"/>
      <path id="パス_123" data-name="パス 123" class="cls-3" d="M187.47,142.085a1.048,1.048,0,1,1-1.048-1.048,1.048,1.048,0,0,1,1.048,1.048" transform="translate(-162.302 -104.176)"/>
      <path id="パス_124" data-name="パス 124" class="cls-3" d="M191.817,137.63a1.048,1.048,0,1,1-1.048-1.048,1.048,1.048,0,0,1,1.048,1.048" transform="translate(-162.891 -103.573)"/>
      <path id="パス_125" data-name="パス 125" class="cls-3" d="M196.271,142.085a1.048,1.048,0,1,1-1.048-1.048,1.048,1.048,0,0,1,1.048,1.048" transform="translate(-163.495 -104.176)"/>
      <path id="パス_126" data-name="パス 126" class="cls-3" d="M156.613,146.537a1.048,1.048,0,1,1-1.048-1.048,1.048,1.048,0,0,1,1.048,1.048" transform="translate(-158.121 -104.78)"/>
      <path id="パス_127" data-name="パス 127" class="cls-3" d="M165.414,146.537a1.048,1.048,0,1,1-1.048-1.048,1.048,1.048,0,0,1,1.048,1.048" transform="translate(-159.314 -104.78)"/>
      <path id="パス_128" data-name="パス 128" class="cls-3" d="M174.215,146.537a1.048,1.048,0,1,1-1.048-1.048,1.048,1.048,0,0,1,1.048,1.048" transform="translate(-160.506 -104.78)"/>
      <path id="パス_129" data-name="パス 129" class="cls-3" d="M183.016,146.537a1.048,1.048,0,1,1-1.048-1.048,1.048,1.048,0,0,1,1.048,1.048" transform="translate(-161.699 -104.78)"/>
      <path id="パス_130" data-name="パス 130" class="cls-3" d="M161.068,150.991a1.048,1.048,0,1,1-1.048-1.048,1.048,1.048,0,0,1,1.048,1.048" transform="translate(-158.725 -105.383)"/>
      <path id="パス_131" data-name="パス 131" class="cls-3" d="M169.869,150.991a1.048,1.048,0,1,1-1.048-1.048,1.048,1.048,0,0,1,1.048,1.048" transform="translate(-159.917 -105.383)"/>
      <path id="パス_132" data-name="パス 132" class="cls-3" d="M178.67,150.991a1.048,1.048,0,1,1-1.048-1.048,1.048,1.048,0,0,1,1.048,1.048" transform="translate(-161.11 -105.383)"/>
      <path id="パス_133" data-name="パス 133" class="cls-3" d="M187.47,150.991a1.048,1.048,0,1,1-1.048-1.048,1.048,1.048,0,0,1,1.048,1.048" transform="translate(-162.302 -105.383)"/>
      <path id="パス_134" data-name="パス 134" class="cls-3" d="M191.817,146.537a1.048,1.048,0,1,1-1.048-1.048,1.048,1.048,0,0,1,1.048,1.048" transform="translate(-162.891 -104.78)"/>
      <path id="パス_135" data-name="パス 135" class="cls-3" d="M196.271,150.991a1.048,1.048,0,1,1-1.048-1.048,1.048,1.048,0,0,1,1.048,1.048" transform="translate(-163.495 -105.383)"/>
    </g>
  </g>
  <g id="グループ_10" data-name="グループ 10">
    <g id="グループ_9" data-name="グループ 9" class="cls-2">
      <path id="パス_137" data-name="パス 137" class="cls-4" d="M138.175,94.935,7.307,78.867V40.806L138.175,56.875Z" transform="translate(-0.99 -5.529)"/>
      <path id="パス_138" data-name="パス 138" class="cls-3" d="M138.033,95.7a.937.937,0,0,1-.11-.007L7.056,79.62a.9.9,0,0,1-.792-.895V40.665a.9.9,0,0,1,1.011-.895L138.143,55.839a.9.9,0,0,1,.792.895V94.795a.9.9,0,0,1-.9.9M8.066,77.928,137.132,93.776V57.531L8.066,41.684Z" transform="translate(-0.849 -5.388)"/>
      <path id="パス_139" data-name="パス 139" class="cls-5" d="M163.805,45.8,32.937,29.735,7.307,39.306,138.175,55.375Z" transform="translate(-0.99 -4.029)"/>
      <path id="パス_140" data-name="パス 140" class="cls-3" d="M138.034,56.135a.937.937,0,0,1-.11-.007L7.056,40.059A.9.9,0,0,1,6.85,38.32l25.63-9.571a.926.926,0,0,1,.425-.05L163.774,44.768a.9.9,0,0,1,.206,1.739l-25.63,9.571a.9.9,0,0,1-.316.057M10.935,38.719l126.99,15.592,21.97-8.2L32.9,30.515Z" transform="translate(-0.849 -3.888)"/>
      <path id="パス_141" data-name="パス 141" class="cls-6" d="M158.687,95.953l25.684-9.574V48.32l-25.684,9.573Z" transform="translate(-21.501 -6.547)"/>
      <path id="パス_142" data-name="パス 142" class="cls-3" d="M158.545,96.714a.9.9,0,0,1-.9-.9V57.751a.9.9,0,0,1,.587-.844l25.684-9.574a.9.9,0,0,1,1.216.845V86.239a.9.9,0,0,1-.587.844l-25.684,9.574a.881.881,0,0,1-.315.058m.9-38.336V94.515l23.881-8.9V49.476Z" transform="translate(-21.36 -6.406)"/>
    </g>
  </g>
  <g id="グループ_12" data-name="グループ 12" transform="translate(137.185 41.773)">
    <g id="グループ_11" data-name="グループ 11" class="cls-9">
      <path id="パス_143" data-name="パス 143" class="cls-3" d="M156.613,51.913a1.048,1.048,0,1,1-1.048-1.048,1.048,1.048,0,0,1,1.048,1.048" transform="translate(-158.121 -48.665)"/>
      <path id="パス_144" data-name="パス 144" class="cls-3" d="M165.414,51.913a1.048,1.048,0,1,1-1.048-1.048,1.048,1.048,0,0,1,1.048,1.048" transform="translate(-159.314 -48.665)"/>
      <path id="パス_145" data-name="パス 145" class="cls-3" d="M174.215,51.913a1.048,1.048,0,1,1-1.048-1.048,1.048,1.048,0,0,1,1.048,1.048" transform="translate(-160.506 -48.665)"/>
      <path id="パス_146" data-name="パス 146" class="cls-3" d="M183.016,51.913a1.048,1.048,0,1,1-1.048-1.048,1.048,1.048,0,0,1,1.048,1.048" transform="translate(-161.699 -48.665)"/>
      <path id="パス_147" data-name="パス 147" class="cls-3" d="M156.613,60.823a1.048,1.048,0,1,1-1.048-1.048,1.048,1.048,0,0,1,1.048,1.048" transform="translate(-158.121 -49.872)"/>
      <path id="パス_148" data-name="パス 148" class="cls-3" d="M165.414,60.823a1.048,1.048,0,1,1-1.048-1.048,1.048,1.048,0,0,1,1.048,1.048" transform="translate(-159.314 -49.872)"/>
      <path id="パス_149" data-name="パス 149" class="cls-3" d="M174.215,60.823a1.048,1.048,0,1,1-1.048-1.048,1.048,1.048,0,0,1,1.048,1.048" transform="translate(-160.506 -49.872)"/>
      <path id="パス_150" data-name="パス 150" class="cls-3" d="M183.016,60.823a1.048,1.048,0,1,1-1.048-1.048,1.048,1.048,0,0,1,1.048,1.048" transform="translate(-161.699 -49.872)"/>
      <path id="パス_151" data-name="パス 151" class="cls-3" d="M156.613,69.734a1.048,1.048,0,1,1-1.048-1.048,1.048,1.048,0,0,1,1.048,1.048" transform="translate(-158.121 -51.08)"/>
      <path id="パス_152" data-name="パス 152" class="cls-3" d="M165.414,69.734a1.048,1.048,0,1,1-1.048-1.048,1.048,1.048,0,0,1,1.048,1.048" transform="translate(-159.314 -51.08)"/>
      <path id="パス_153" data-name="パス 153" class="cls-3" d="M174.215,69.734a1.048,1.048,0,1,1-1.048-1.048,1.048,1.048,0,0,1,1.048,1.048" transform="translate(-160.506 -51.08)"/>
      <path id="パス_154" data-name="パス 154" class="cls-3" d="M183.016,69.734a1.048,1.048,0,1,1-1.048-1.048,1.048,1.048,0,0,1,1.048,1.048" transform="translate(-161.699 -51.08)"/>
      <path id="パス_155" data-name="パス 155" class="cls-3" d="M156.613,78.645a1.048,1.048,0,1,1-1.048-1.048,1.048,1.048,0,0,1,1.048,1.048" transform="translate(-158.121 -52.287)"/>
      <path id="パス_156" data-name="パス 156" class="cls-3" d="M165.414,78.645a1.048,1.048,0,1,1-1.048-1.048,1.048,1.048,0,0,1,1.048,1.048" transform="translate(-159.314 -52.287)"/>
      <path id="パス_157" data-name="パス 157" class="cls-3" d="M174.215,78.645a1.048,1.048,0,1,1-1.048-1.048,1.048,1.048,0,0,1,1.048,1.048" transform="translate(-160.506 -52.287)"/>
      <path id="パス_158" data-name="パス 158" class="cls-3" d="M183.016,78.645a1.048,1.048,0,1,1-1.048-1.048,1.048,1.048,0,0,1,1.048,1.048" transform="translate(-161.699 -52.287)"/>
      <path id="パス_159" data-name="パス 159" class="cls-3" d="M161.068,56.367a1.048,1.048,0,1,1-1.048-1.048,1.048,1.048,0,0,1,1.048,1.048" transform="translate(-158.725 -49.268)"/>
      <path id="パス_160" data-name="パス 160" class="cls-3" d="M169.869,56.367a1.048,1.048,0,1,1-1.048-1.048,1.048,1.048,0,0,1,1.048,1.048" transform="translate(-159.917 -49.268)"/>
      <path id="パス_161" data-name="パス 161" class="cls-3" d="M178.67,56.367a1.048,1.048,0,1,1-1.048-1.048,1.048,1.048,0,0,1,1.048,1.048" transform="translate(-161.11 -49.268)"/>
      <path id="パス_162" data-name="パス 162" class="cls-3" d="M187.47,56.367a1.048,1.048,0,1,1-1.048-1.048,1.048,1.048,0,0,1,1.048,1.048" transform="translate(-162.302 -49.268)"/>
      <path id="パス_163" data-name="パス 163" class="cls-3" d="M161.068,65.278a1.048,1.048,0,1,1-1.048-1.048,1.048,1.048,0,0,1,1.048,1.048" transform="translate(-158.725 -50.476)"/>
      <path id="パス_164" data-name="パス 164" class="cls-3" d="M169.869,65.278a1.048,1.048,0,1,1-1.048-1.048,1.048,1.048,0,0,1,1.048,1.048" transform="translate(-159.917 -50.476)"/>
      <path id="パス_165" data-name="パス 165" class="cls-3" d="M178.67,65.278a1.048,1.048,0,1,1-1.048-1.048,1.048,1.048,0,0,1,1.048,1.048" transform="translate(-161.11 -50.476)"/>
      <path id="パス_166" data-name="パス 166" class="cls-3" d="M187.47,65.278a1.048,1.048,0,1,1-1.048-1.048,1.048,1.048,0,0,1,1.048,1.048" transform="translate(-162.302 -50.476)"/>
      <path id="パス_167" data-name="パス 167" class="cls-3" d="M161.068,74.189a1.048,1.048,0,1,1-1.048-1.048,1.048,1.048,0,0,1,1.048,1.048" transform="translate(-158.725 -51.683)"/>
      <path id="パス_168" data-name="パス 168" class="cls-3" d="M169.869,74.189a1.048,1.048,0,1,1-1.048-1.048,1.048,1.048,0,0,1,1.048,1.048" transform="translate(-159.917 -51.683)"/>
      <path id="パス_169" data-name="パス 169" class="cls-3" d="M178.67,74.189a1.048,1.048,0,1,1-1.048-1.048,1.048,1.048,0,0,1,1.048,1.048" transform="translate(-161.11 -51.683)"/>
      <path id="パス_170" data-name="パス 170" class="cls-3" d="M187.47,74.189a1.048,1.048,0,1,1-1.048-1.048,1.048,1.048,0,0,1,1.048,1.048" transform="translate(-162.302 -51.683)"/>
      <path id="パス_171" data-name="パス 171" class="cls-3" d="M161.068,83.1a1.048,1.048,0,1,1-1.048-1.048,1.048,1.048,0,0,1,1.048,1.048" transform="translate(-158.725 -52.89)"/>
      <path id="パス_172" data-name="パス 172" class="cls-3" d="M169.869,83.1a1.048,1.048,0,1,1-1.048-1.048,1.048,1.048,0,0,1,1.048,1.048" transform="translate(-159.917 -52.89)"/>
      <path id="パス_173" data-name="パス 173" class="cls-3" d="M178.67,83.1a1.048,1.048,0,1,1-1.048-1.048A1.048,1.048,0,0,1,178.67,83.1" transform="translate(-161.11 -52.89)"/>
      <path id="パス_174" data-name="パス 174" class="cls-3" d="M187.47,83.1a1.048,1.048,0,1,1-1.048-1.048A1.048,1.048,0,0,1,187.47,83.1" transform="translate(-162.302 -52.89)"/>
      <path id="パス_175" data-name="パス 175" class="cls-3" d="M191.817,51.913a1.048,1.048,0,1,1-1.048-1.048,1.048,1.048,0,0,1,1.048,1.048" transform="translate(-162.891 -48.665)"/>
      <path id="パス_176" data-name="パス 176" class="cls-3" d="M191.817,60.823a1.048,1.048,0,1,1-1.048-1.048,1.048,1.048,0,0,1,1.048,1.048" transform="translate(-162.891 -49.872)"/>
      <path id="パス_177" data-name="パス 177" class="cls-3" d="M191.817,69.734a1.048,1.048,0,1,1-1.048-1.048,1.048,1.048,0,0,1,1.048,1.048" transform="translate(-162.891 -51.08)"/>
      <path id="パス_178" data-name="パス 178" class="cls-3" d="M191.817,78.645a1.048,1.048,0,1,1-1.048-1.048,1.048,1.048,0,0,1,1.048,1.048" transform="translate(-162.891 -52.287)"/>
      <path id="パス_179" data-name="パス 179" class="cls-3" d="M196.271,56.367a1.048,1.048,0,1,1-1.048-1.048,1.048,1.048,0,0,1,1.048,1.048" transform="translate(-163.495 -49.268)"/>
      <path id="パス_180" data-name="パス 180" class="cls-3" d="M196.271,65.278a1.048,1.048,0,1,1-1.048-1.048,1.048,1.048,0,0,1,1.048,1.048" transform="translate(-163.495 -50.476)"/>
      <path id="パス_181" data-name="パス 181" class="cls-3" d="M196.271,74.189a1.048,1.048,0,1,1-1.048-1.048,1.048,1.048,0,0,1,1.048,1.048" transform="translate(-163.495 -51.683)"/>
      <path id="パス_182" data-name="パス 182" class="cls-3" d="M196.271,83.1a1.048,1.048,0,1,1-1.048-1.048,1.048,1.048,0,0,1,1.048,1.048" transform="translate(-163.495 -52.89)"/>
      <path id="パス_183" data-name="パス 183" class="cls-3" d="M156.613,87.551a1.048,1.048,0,1,1-1.048-1.048,1.048,1.048,0,0,1,1.048,1.048" transform="translate(-158.121 -53.494)"/>
      <path id="パス_184" data-name="パス 184" class="cls-3" d="M165.414,87.551a1.048,1.048,0,1,1-1.048-1.048,1.048,1.048,0,0,1,1.048,1.048" transform="translate(-159.314 -53.494)"/>
      <path id="パス_185" data-name="パス 185" class="cls-3" d="M174.215,87.551a1.048,1.048,0,1,1-1.048-1.048,1.048,1.048,0,0,1,1.048,1.048" transform="translate(-160.506 -53.494)"/>
      <path id="パス_186" data-name="パス 186" class="cls-3" d="M183.016,87.551a1.048,1.048,0,1,1-1.048-1.048,1.048,1.048,0,0,1,1.048,1.048" transform="translate(-161.699 -53.494)"/>
      <path id="パス_187" data-name="パス 187" class="cls-3" d="M161.068,92.006a1.048,1.048,0,1,1-1.048-1.048,1.048,1.048,0,0,1,1.048,1.048" transform="translate(-158.725 -54.097)"/>
      <path id="パス_188" data-name="パス 188" class="cls-3" d="M169.869,92.006a1.048,1.048,0,1,1-1.048-1.048,1.048,1.048,0,0,1,1.048,1.048" transform="translate(-159.917 -54.097)"/>
      <path id="パス_189" data-name="パス 189" class="cls-3" d="M178.67,92.006a1.048,1.048,0,1,1-1.048-1.048,1.048,1.048,0,0,1,1.048,1.048" transform="translate(-161.11 -54.097)"/>
      <path id="パス_190" data-name="パス 190" class="cls-3" d="M187.47,92.006a1.048,1.048,0,1,1-1.048-1.048,1.048,1.048,0,0,1,1.048,1.048" transform="translate(-162.302 -54.097)"/>
      <path id="パス_191" data-name="パス 191" class="cls-3" d="M191.817,87.551a1.048,1.048,0,1,1-1.048-1.048,1.048,1.048,0,0,1,1.048,1.048" transform="translate(-162.891 -53.494)"/>
      <path id="パス_192" data-name="パス 192" class="cls-3" d="M196.271,92.006a1.048,1.048,0,1,1-1.048-1.048,1.048,1.048,0,0,1,1.048,1.048" transform="translate(-163.495 -54.097)"/>
      <path id="パス_193" data-name="パス 193" class="cls-3" d="M156.613,96.457a1.048,1.048,0,1,1-1.048-1.048,1.048,1.048,0,0,1,1.048,1.048" transform="translate(-158.121 -54.7)"/>
      <path id="パス_194" data-name="パス 194" class="cls-3" d="M165.414,96.457a1.048,1.048,0,1,1-1.048-1.048,1.048,1.048,0,0,1,1.048,1.048" transform="translate(-159.314 -54.7)"/>
      <path id="パス_195" data-name="パス 195" class="cls-3" d="M174.215,96.457a1.048,1.048,0,1,1-1.048-1.048,1.048,1.048,0,0,1,1.048,1.048" transform="translate(-160.506 -54.7)"/>
      <path id="パス_196" data-name="パス 196" class="cls-3" d="M183.016,96.457a1.048,1.048,0,1,1-1.048-1.048,1.048,1.048,0,0,1,1.048,1.048" transform="translate(-161.699 -54.7)"/>
      <path id="パス_197" data-name="パス 197" class="cls-3" d="M161.068,100.912a1.048,1.048,0,1,1-1.048-1.048,1.048,1.048,0,0,1,1.048,1.048" transform="translate(-158.725 -55.304)"/>
      <path id="パス_198" data-name="パス 198" class="cls-3" d="M169.869,100.912a1.048,1.048,0,1,1-1.048-1.048,1.048,1.048,0,0,1,1.048,1.048" transform="translate(-159.917 -55.304)"/>
      <path id="パス_199" data-name="パス 199" class="cls-3" d="M178.67,100.912a1.048,1.048,0,1,1-1.048-1.048,1.048,1.048,0,0,1,1.048,1.048" transform="translate(-161.11 -55.304)"/>
      <path id="パス_200" data-name="パス 200" class="cls-3" d="M187.47,100.912a1.048,1.048,0,1,1-1.048-1.048,1.048,1.048,0,0,1,1.048,1.048" transform="translate(-162.302 -55.304)"/>
      <path id="パス_201" data-name="パス 201" class="cls-3" d="M191.817,96.457a1.048,1.048,0,1,1-1.048-1.048,1.048,1.048,0,0,1,1.048,1.048" transform="translate(-162.891 -54.7)"/>
      <path id="パス_202" data-name="パス 202" class="cls-3" d="M196.271,100.912a1.048,1.048,0,1,1-1.048-1.048,1.048,1.048,0,0,1,1.048,1.048" transform="translate(-163.495 -55.304)"/>
    </g>
  </g>
  <g id="グループ_14" data-name="グループ 14">
    <g id="グループ_13" data-name="グループ 13" class="cls-2">
      <rect id="長方形_4" data-name="長方形 4" class="cls-4" width="4.356" height="42.421" transform="matrix(0.574, -0.819, 0.819, 0.574, 131.67, 32.877)"/>
      <path id="パス_204" data-name="パス 204" class="cls-3" d="M186.911,62.567a.9.9,0,0,1-.516-.163L151.649,38.066a.9.9,0,0,1-.221-1.255l2.5-3.569a.9.9,0,0,1,1.256-.221l34.745,24.338a.9.9,0,0,1,.221,1.256l-2.5,3.569a.9.9,0,0,1-.74.384m-33.489-25.46,33.269,23.3,1.466-2.092-33.27-23.3Z" transform="translate(-20.496 -4.452)"/>
      <rect id="長方形_5" data-name="長方形 5" class="cls-3" width="22.944" height="9.172" transform="translate(130.197 42.972) rotate(-54.99)"/>
      <path id="パス_205" data-name="パス 205" class="cls-3" d="M184.9,39.318h-5.82a.751.751,0,1,1,0-1.5h5.82a.751.751,0,1,1,0,1.5" transform="translate(-24.162 -5.124)"/>
      <path id="パス_206" data-name="パス 206" class="cls-3" d="M194.4,39.318h-5.821a.751.751,0,1,1,0-1.5H194.4a.751.751,0,1,1,0,1.5" transform="translate(-25.45 -5.124)"/>
      <path id="パス_207" data-name="パス 207" class="cls-3" d="M178.116,33.951a.752.752,0,0,1-.257-1.458l5.469-1.99a.751.751,0,1,1,.514,1.412l-5.469,1.99a.742.742,0,0,1-.257.046" transform="translate(-24.032 -4.127)"/>
      <path id="パス_208" data-name="パス 208" class="cls-3" d="M187.05,30.7a.752.752,0,0,1-.257-1.458l5.47-1.99a.751.751,0,1,1,.514,1.412l-5.47,1.99a.742.742,0,0,1-.257.046" transform="translate(-25.243 -3.686)"/>
      <path id="パス_209" data-name="パス 209" class="cls-3" d="M175.486,29.255A.752.752,0,0,1,175,27.928l4.459-3.741a.751.751,0,0,1,.966,1.151l-4.458,3.741a.749.749,0,0,1-.483.176" transform="translate(-23.676 -3.253)"/>
      <path id="パス_210" data-name="パス 210" class="cls-3" d="M182.769,23.143a.752.752,0,0,1-.483-1.327l4.459-3.741a.751.751,0,0,1,.966,1.151l-4.458,3.741a.75.75,0,0,1-.483.176" transform="translate(-24.663 -2.425)"/>
      <path id="パス_211" data-name="パス 211" class="cls-3" d="M171.5,25.8a.752.752,0,0,1-.65-1.127l2.91-5.04a.752.752,0,0,1,1.3.751l-2.91,5.04a.751.751,0,0,1-.652.376" transform="translate(-23.136 -2.609)"/>
      <path id="パス_212" data-name="パス 212" class="cls-3" d="M176.255,17.562a.752.752,0,0,1-.65-1.127l2.911-5.04a.752.752,0,0,1,1.3.751l-2.911,5.04a.751.751,0,0,1-.652.376" transform="translate(-23.78 -1.493)"/>
      <path id="パス_213" data-name="パス 213" class="cls-3" d="M166.646,23.991a.682.682,0,0,1-.131-.012.749.749,0,0,1-.609-.87l1.011-5.732a.751.751,0,1,1,1.479.26l-1.011,5.733a.751.751,0,0,1-.738.621" transform="translate(-22.478 -2.27)"/>
      <path id="パス_214" data-name="パス 214" class="cls-3" d="M168.3,14.628a.739.739,0,0,1-.131-.011.751.751,0,0,1-.609-.871l1.01-5.732a.751.751,0,0,1,1.479.26l-1.011,5.733a.751.751,0,0,1-.738.621" transform="translate(-22.702 -1.002)"/>
      <path id="パス_215" data-name="パス 215" class="cls-3" d="M161.343,24.057a.751.751,0,0,1-.738-.621L159.594,17.7a.751.751,0,1,1,1.479-.261l1.01,5.732a.75.75,0,0,1-.74.882" transform="translate(-21.623 -2.279)"/>
      <path id="パス_216" data-name="パス 216" class="cls-3" d="M159.692,14.7a.751.751,0,0,1-.738-.621l-1.011-5.733a.751.751,0,1,1,1.479-.26l1.01,5.732a.751.751,0,0,1-.609.871.74.74,0,0,1-.131.011" transform="translate(-21.399 -1.011)"/>
      <path id="パス_217" data-name="パス 217" class="cls-3" d="M156.236,25.988a.751.751,0,0,1-.652-.376l-2.911-5.04a.752.752,0,0,1,1.3-.751l2.911,5.04a.752.752,0,0,1-.65,1.127" transform="translate(-20.673 -2.635)"/>
      <path id="パス_218" data-name="パス 218" class="cls-3" d="M151.482,17.754a.751.751,0,0,1-.652-.376l-2.91-5.04a.752.752,0,0,1,1.3-.751l2.91,5.04a.752.752,0,0,1-.65,1.127" transform="translate(-20.029 -1.519)"/>
      <path id="パス_219" data-name="パス 219" class="cls-3" d="M152.094,29.55a.749.749,0,0,1-.483-.176l-4.458-3.741a.751.751,0,1,1,.966-1.151l4.459,3.741a.752.752,0,0,1-.483,1.327" transform="translate(-19.902 -3.293)"/>
      <path id="パス_220" data-name="パス 220" class="cls-3" d="M144.811,23.438a.75.75,0,0,1-.483-.176l-4.458-3.741a.751.751,0,0,1,.966-1.151l4.459,3.741a.752.752,0,0,1-.483,1.327" transform="translate(-18.916 -2.465)"/>
      <path id="パス_221" data-name="パス 221" class="cls-3" d="M149.422,34.313a.742.742,0,0,1-.257-.046l-5.47-1.99a.751.751,0,1,1,.514-1.412l5.47,1.99a.752.752,0,0,1-.257,1.458" transform="translate(-19.403 -4.176)"/>
      <path id="パス_222" data-name="パス 222" class="cls-3" d="M140.488,31.06a.742.742,0,0,1-.257-.046l-5.469-1.99a.751.751,0,1,1,.514-1.412l5.469,1.99a.752.752,0,0,1-.257,1.458" transform="translate(-18.193 -3.735)"/>
      <line id="線_4" data-name="線 4" class="cls-4" x1="6.709" y1="0.857" transform="translate(0.902 34.588)"/>
      <path id="パス_223" data-name="パス 223" class="cls-3" d="M7.613,41.626a.856.856,0,0,1-.115-.008l-6.71-.857a.9.9,0,1,1,.228-1.788l6.709.857a.9.9,0,0,1-.112,1.8" transform="translate(0 -5.28)"/>
      <line id="線_5" data-name="線 5" class="cls-4" x1="6.709" y1="0.857" transform="translate(25.255 24.845)"/>
      <path id="パス_224" data-name="パス 224" class="cls-3" d="M35.782,30.355a.857.857,0,0,1-.115-.008l-6.71-.857a.9.9,0,1,1,.228-1.788l6.709.857a.9.9,0,0,1-.112,1.8" transform="translate(-3.817 -3.753)"/>
      <line id="線_6" data-name="線 6" class="cls-4" x1="6.709" y1="0.857" transform="translate(0.902 72.634)"/>
      <path id="パス_225" data-name="パス 225" class="cls-3" d="M7.613,85.635a.876.876,0,0,1-.116-.008l-6.71-.857a.9.9,0,0,1,.229-1.788l6.71.857a.9.9,0,0,1-.113,1.8" transform="translate(0 -11.243)"/>
      <line id="線_7" data-name="線 7" class="cls-4" x1="6.709" y1="0.857" transform="translate(0.902 77.869)"/>
      <path id="パス_226" data-name="パス 226" class="cls-3" d="M7.613,91.69a.868.868,0,0,1-.115-.008l-6.71-.856a.9.9,0,0,1,.228-1.788l6.709.856a.9.9,0,0,1-.112,1.8" transform="translate(0 -12.063)"/>
      <line id="線_8" data-name="線 8" class="cls-4" x1="6.709" y1="0.857" transform="translate(0.902 115.92)"/>
      <path id="パス_227" data-name="パス 227" class="cls-3" d="M7.613,135.706A.879.879,0,0,1,7.5,135.7l-6.71-.857a.9.9,0,0,1,.229-1.788l6.71.857a.9.9,0,0,1-.113,1.8" transform="translate(0 -18.027)"/>
      <line id="線_9" data-name="線 9" class="cls-4" x1="6.709" y1="0.857" transform="translate(162.889 123.126)"/>
      <path id="パス_228" data-name="パス 228" class="cls-3" d="M194.988,144.041a.866.866,0,0,1-.115-.008l-6.71-.856a.9.9,0,1,1,.228-1.788l6.71.856a.9.9,0,0,1-.113,1.8" transform="translate(-25.389 -19.157)"/>
      <line id="線_10" data-name="線 10" class="cls-4" x1="6.709" y1="0.857" transform="translate(162.889 85.083)"/>
      <path id="パス_229" data-name="パス 229" class="cls-3" d="M194.988,100.035a.866.866,0,0,1-.115-.008l-6.71-.856a.9.9,0,1,1,.228-1.788l6.71.856a.9.9,0,0,1-.113,1.8" transform="translate(-25.389 -13.194)"/>
      <line id="線_11" data-name="線 11" class="cls-4" x1="6.709" y1="0.857" transform="translate(162.889 79.855)"/>
      <path id="パス_230" data-name="パス 230" class="cls-3" d="M194.988,93.988a.866.866,0,0,1-.115-.008l-6.71-.857a.9.9,0,1,1,.228-1.788l6.71.857a.9.9,0,0,1-.113,1.8" transform="translate(-25.389 -12.375)"/>
      <line id="線_12" data-name="線 12" class="cls-4" x1="6.709" y1="0.857" transform="translate(162.889 41.78)"/>
      <path id="パス_231" data-name="パス 231" class="cls-3" d="M194.988,49.945a.866.866,0,0,1-.115-.008l-6.71-.857a.9.9,0,1,1,.228-1.788l6.71.857a.9.9,0,0,1-.113,1.8" transform="translate(-25.389 -6.407)"/>
      <path id="パス_232" data-name="パス 232" class="cls-3" d="M18.687,174.794a.894.894,0,0,1-.531-.174,19.289,19.289,0,0,0-5.205-1.951c-5-1.427-11.226-3.2-10.09-8.991,1.55-7.907,22.36-4.808,24.726-4.428a.9.9,0,1,1-.285,1.779c-8.278-1.324-21.754-1.684-22.671,2.995-.758,3.863,3.176,5.3,8.816,6.911a20.04,20.04,0,0,1,5.773,2.23.9.9,0,0,1-.533,1.63" transform="translate(-0.369 -21.454)"/>
      <path id="パス_233" data-name="パス 233" class="cls-4" d="M47.808,182.819c-.463,4.51-6.9,5.535-14.623,4.741s-13.817-3.1-13.354-7.615,7.1-7.522,14.827-6.728,13.613,5.092,13.15,9.6" transform="translate(-2.684 -23.453)"/>
      <path id="パス_234" data-name="パス 234" class="cls-3" d="M37.5,188.566a44.69,44.69,0,0,1-4.545-.252c-9.6-.986-14.627-4.042-14.159-8.6.523-5.081,7.472-8.391,15.816-7.533a20.935,20.935,0,0,1,10.085,3.576c2.753,2.011,4.127,4.5,3.869,7.015-.178,1.737-1.233,4.038-5.247,5.138a22.314,22.314,0,0,1-5.82.661m-5.372-14.714c-6.115,0-11.178,2.536-11.539,6.043-.489,4.766,8.614,6.222,12.55,6.626a27.989,27.989,0,0,0,9.7-.354c2.466-.675,3.751-1.847,3.929-3.582.19-1.849-.925-3.758-3.139-5.375a19.125,19.125,0,0,0-9.206-3.239,22.649,22.649,0,0,0-2.3-.118" transform="translate(-2.542 -23.311)"/>
      <path id="パス_235" data-name="パス 235" class="cls-3" d="M26.614,186.667a.705.705,0,0,1-.073,0,.9.9,0,0,1-.826-.972,14.318,14.318,0,0,1,13.267-12.547.9.9,0,0,1,.191,1.794c-4.519.481-7.853,2.464-9.909,5.892a12.951,12.951,0,0,0-1.752,5.007.9.9,0,0,1-.9.828" transform="translate(-3.484 -23.46)"/>
      <path id="パス_236" data-name="パス 236" class="cls-3" d="M30.193,178.053a.927.927,0,0,1-.245-.034,19.645,19.645,0,0,0-7.774-.461.9.9,0,0,1-.354-1.768,21.194,21.194,0,0,1,8.618.493.9.9,0,0,1-.245,1.77" transform="translate(-2.858 -23.783)"/>
      <path id="パス_237" data-name="パス 237" class="cls-4" d="M57.894,9.365A6.329,6.329,0,0,0,47.525,4.483a6.323,6.323,0,0,0-11.248-.014A6.329,6.329,0,1,0,31.63,15.632l-.025,16.952h.06c.265,1.386,4.824,2.495,10.427,2.5S52.256,34,52.524,32.611h.043L52.593,15.6a6.327,6.327,0,0,0,5.3-6.231" transform="translate(-3.509 -0.141)"/>
      <path id="パス_238" data-name="パス 238" class="cls-3" d="M41.976,35.848H41.95c-1.054,0-10.022-.1-11.21-2.9a.862.862,0,0,1-.176-.5l.024-16.177a7.231,7.231,0,0,1,1.5-14.306h.01a7.232,7.232,0,0,1,3.779,1.072A7.2,7.2,0,0,1,41.755,0h.011A7.2,7.2,0,0,1,47.65,3.047a7.24,7.24,0,0,1,3.772-1.062h.01a7.228,7.228,0,0,1,1.921,14.2l-.023,16.292a.894.894,0,0,1-.177.533c-1.242,2.749-10.008,2.842-11.175,2.842m-9.611-3.72a.7.7,0,0,1,.043.146c.315.611,3.782,1.764,9.543,1.771h.055c5.727,0,9.177-1.138,9.5-1.777q.008-.039.018-.075l.026-16.738a.9.9,0,0,1,.754-.889,5.425,5.425,0,0,0-.877-10.779h-.007A5.432,5.432,0,0,0,47.96,5.036a.9.9,0,0,1-1.377-.282A5.409,5.409,0,0,0,41.763,1.8h-.008a5.411,5.411,0,0,0-4.819,2.938.9.9,0,0,1-1.378.278,5.431,5.431,0,0,0-3.465-1.258h-.009a5.427,5.427,0,0,0-.512,10.83.9.9,0,0,1,.817.9Zm25.388-22.9h0Z" transform="translate(-3.368 0)"/>
      <path id="パス_239" data-name="パス 239" class="cls-3" d="M38.107,31.5h0a.9.9,0,0,1-.9-.9l.01-7.681a.9.9,0,0,1,.9-.9h0a.9.9,0,0,1,.9.9l-.01,7.681a.9.9,0,0,1-.9.9" transform="translate(-5.041 -2.983)"/>
      <path id="パス_240" data-name="パス 240" class="cls-3" d="M44.571,31.509h0a.9.9,0,0,1-.9-.9l.01-7.681a.9.9,0,0,1,.9-.9h0a.9.9,0,0,1,.9.9l-.01,7.681a.9.9,0,0,1-.9.9" transform="translate(-5.917 -2.984)"/>
      <path id="パス_241" data-name="パス 241" class="cls-3" d="M51.207,31.517h0a.9.9,0,0,1-.9-.9l.01-7.681a.9.9,0,0,1,.9-.9h0a.9.9,0,0,1,.9.9l-.01,7.681a.9.9,0,0,1-.9.9" transform="translate(-6.816 -2.985)"/>
      <path id="パス_242" data-name="パス 242" class="cls-4" d="M72.2,23.726s1.5-5.6,8.476-9.231" transform="translate(-9.783 -1.964)"/>
      <path id="パス_243" data-name="パス 243" class="cls-3" d="M72.059,24.485a.9.9,0,0,1-.871-1.133c.065-.245,1.687-6.026,8.931-9.8a.9.9,0,0,1,.833,1.6c-6.505,3.387-8.009,8.616-8.023,8.668a.9.9,0,0,1-.87.664" transform="translate(-9.642 -1.823)"/>
      <path id="パス_244" data-name="パス 244" class="cls-4" d="M84.933,12.669a24.49,24.49,0,0,1,3.452-1.2" transform="translate(-11.508 -1.554)"/>
      <path id="パス_245" data-name="パス 245" class="cls-3" d="M84.793,13.429a.9.9,0,0,1-.361-1.728,25.22,25.22,0,0,1,3.614-1.255.9.9,0,1,1,.4,1.758,23.79,23.79,0,0,0-3.292,1.15.894.894,0,0,1-.359.075" transform="translate(-11.367 -1.412)"/>
      <path id="パス_246" data-name="パス 246" class="cls-4" d="M67.74,20.091s1.662-6.2,9.388-10.224" transform="translate(-9.179 -1.337)"/>
      <path id="パス_247" data-name="パス 247" class="cls-3" d="M67.6,20.849a.9.9,0,0,1-.871-1.134c.073-.269,1.858-6.632,9.842-10.789a.9.9,0,1,1,.833,1.6c-7.245,3.773-8.918,9.6-8.934,9.66a.9.9,0,0,1-.87.665" transform="translate(-9.037 -1.195)"/>
      <path id="パス_248" data-name="パス 248" class="cls-4" d="M81.842,7.844a27.179,27.179,0,0,1,3.824-1.331" transform="translate(-11.089 -0.882)"/>
      <path id="パス_249" data-name="パス 249" class="cls-3" d="M81.7,8.6a.9.9,0,0,1-.36-1.728,27.86,27.86,0,0,1,3.984-1.385.9.9,0,0,1,.4,1.759A26.446,26.446,0,0,0,82.06,8.529.894.894,0,0,1,81.7,8.6" transform="translate(-10.948 -0.741)"/>
      <path id="パス_250" data-name="パス 250" class="cls-3" d="M48.613,149.674a1.668,1.668,0,0,0-1.9,1.669,2.057,2.057,0,0,0,.536,1.354l-9.909-1.216v1.589l8.277,1.016c-.136,3.635-1.747,5.232-6.414,8.1l-.132.081,1.076,1.35.111-.068c4.772-2.942,7.02-4.859,7.02-9.706v-1.114a2.2,2.2,0,0,0,1.337.7,1.621,1.621,0,0,0,1.886-1.621,2.267,2.267,0,0,0-1.886-2.134m0,2.761a1,1,0,0,1-.858-.964.759.759,0,0,1,.858-.769,1.076,1.076,0,0,1,.875.982.768.768,0,0,1-.875.75" transform="translate(-5.059 -20.278)"/>
      <path id="パス_251" data-name="パス 251" class="cls-3" d="M40.073,163.831l-1.306-1.641.309-.189c4.557-2.8,6.143-4.345,6.32-7.781l-8.27-1.016v-1.96l9.693,1.19a2.16,2.16,0,0,1-.32-1.119,1.843,1.843,0,0,1,.621-1.4,1.884,1.884,0,0,1,1.487-.449,2.458,2.458,0,0,1,2.047,2.316,1.789,1.789,0,0,1-.6,1.363,1.866,1.866,0,0,1-1.495.439,2.337,2.337,0,0,1-1.131-.467v.7c0,4.941-2.276,6.884-7.108,9.861Zm-.761-1.544.845,1.059c4.693-2.894,6.9-4.785,6.9-9.531v-.979l-9.57-1.175v1.218l8.284,1.017-.007.169c-.137,3.684-1.812,5.363-6.457,8.222m8.054-9.727.015.016a2.009,2.009,0,0,0,1.225.642,1.514,1.514,0,0,0,1.207-.349,1.428,1.428,0,0,0,.473-1.088,2.071,2.071,0,0,0-1.725-1.951,1.5,1.5,0,0,0-1.2.36,1.481,1.481,0,0,0-.5,1.126,1.871,1.871,0,0,0,.491,1.232Zm1.316.038a.958.958,0,0,1-.121-.008,1.189,1.189,0,0,1-1.019-1.145.965.965,0,0,1,.32-.724.929.929,0,0,1,.744-.228,1.259,1.259,0,0,1,1.037,1.165.933.933,0,0,1-.316.7.971.971,0,0,1-.645.243m-.076-.373a.612.612,0,0,0,.477-.145.56.56,0,0,0,.192-.423.891.891,0,0,0-.714-.8.575.575,0,0,0-.456.137.59.59,0,0,0-.2.45.822.822,0,0,0,.7.781" transform="translate(-5.03 -20.25)"/>
      <path id="パス_252" data-name="パス 252" class="cls-3" d="M53.758,153.821v10.863L64.439,166V155.132Zm1.573,9.582v-7.9l7.535.925v7.9Z" transform="translate(-7.284 -20.842)"/>
      <path id="パス_253" data-name="パス 253" class="cls-3" d="M64.594,166.17l-11.048-1.356V153.58l11.048,1.356Zm-10.681-1.682,10.314,1.266V155.262L53.913,154Zm9.108.016-7.9-.97v-8.269l7.9.97Zm-7.535-1.3,7.168.881V156.56l-7.168-.881Z" transform="translate(-7.255 -20.81)"/>
      <path id="パス_254" data-name="パス 254" class="cls-3" d="M74.478,155.7l-4.548-.558v1.589l4.548.558Z" transform="translate(-9.475 -21.02)"/>
      <path id="パス_255" data-name="パス 255" class="cls-3" d="M74.632,157.459l-4.916-.6V154.9l4.916.6Zm-4.549-.928,4.182.514v-1.218l-4.182-.514Z" transform="translate(-9.446 -20.988)"/>
      <path id="パス_256" data-name="パス 256" class="cls-3" d="M79.814,155.93l-1.242-.152v2.845l1.242.153Z" transform="translate(-10.646 -21.107)"/>
      <path id="パス_257" data-name="パス 257" class="cls-3" d="M79.969,158.95l-1.61-.2v-3.216l1.61.2Zm-1.241-.523.874.108V156.06l-.874-.107Z" transform="translate(-10.617 -21.075)"/>
      <path id="パス_258" data-name="パス 258" class="cls-3" d="M79.109,159.787c0,.008-.35.772-.807,1.594l-.132.25c-1.609,3.027-2.772,5.213-6.445,4.762l-1.356-.167v1.508l1.356.166c4.778.587,6.274-2.264,8.006-5.567l.047-.09v0c.182-.358.779-1.609.779-1.609l.061-.128-1.448-.852Z" transform="translate(-9.535 -21.632)"/>
      <path id="パス_259" data-name="パス 259" class="cls-3" d="M72.911,168.12a10.177,10.177,0,0,1-1.236-.08l-1.518-.186v-1.878l1.562.192c3.549.44,4.627-1.594,6.26-4.665l.132-.251c.458-.827.8-1.573.8-1.58l.148-.325,1.769,1.04-.132.28s-.6,1.255-.781,1.615l-.049.093c-1.605,3.062-3.012,5.745-6.954,5.745m-2.387-.591,1.195.147c4.657.574,6.121-2.229,7.82-5.471l.06-.113c.179-.354.671-1.388.753-1.557l-1.128-.663c-.094.208-.408.868-.789,1.556l-.131.247c-1.644,3.091-2.835,5.323-6.629,4.859l-1.151-.141Z" transform="translate(-9.506 -21.591)"/>
      <path id="パス_260" data-name="パス 260" class="cls-3" d="M80.962,156.09v2.846l1.242.152v-2.846Z" transform="translate(-10.97 -21.15)"/>
      <path id="パス_261" data-name="パス 261" class="cls-3" d="M82.36,159.263l-1.61-.2V155.85l1.61.2Zm-1.242-.522.875.107v-2.474l-.875-.108Z" transform="translate(-10.941 -21.117)"/>
      <path id="パス_262" data-name="パス 262" class="cls-3" d="M74.478,159.347l-4.548-.558v1.541l4.548.558Z" transform="translate(-9.475 -21.515)"/>
      <path id="パス_263" data-name="パス 263" class="cls-3" d="M74.632,161.062l-4.916-.6v-1.911l4.916.6Zm-4.549-.928,4.182.513v-1.17l-4.182-.514Z" transform="translate(-9.446 -21.483)"/>
      <path id="パス_264" data-name="パス 264" class="cls-3" d="M90.451,168.583v-4.762l3.192.392v-1.325l-7.88-.968v1.326l3.192.392V168.4l-4.157-.51v1.342l9.811,1.2v-1.342Z" transform="translate(-11.49 -21.939)"/>
      <path id="パス_265" data-name="パス 265" class="cls-3" d="M94.764,170.61l-10.179-1.249v-1.713l4.157.51v-4.391l-3.193-.392v-1.7l8.248,1.012v1.7L90.606,164v4.391l4.157.511Zm-9.811-1.575L94.4,170.2v-.971l-4.157-.511v-5.133l3.192.392v-.956l-7.513-.922v.955l3.193.392v5.133l-4.157-.51Z" transform="translate(-11.461 -21.907)"/>
      <path id="パス_266" data-name="パス 266" class="cls-3" d="M104.277,160.284a9.064,9.064,0,0,0,.206-2.32v-.15l-1.623-.2v.15c0,2.166,0,3.6-3.938,5.924l-.126.074.943,1.346.118-.068c2.106-1.221,3.123-2.1,3.838-3.32l3.789.465c-.135,2.847-2.256,5.008-7.5,7.662l-.133.067.9,1.4.12-.061c5.928-2.964,8.236-5.516,8.236-9.1v-1.274Z" transform="translate(-13.386 -21.356)"/>
      <path id="パス_267" data-name="パス 267" class="cls-3" d="M100.647,171.519l-1.1-1.709.316-.16c5.084-2.574,7.178-4.647,7.385-7.337l-3.5-.43a9.656,9.656,0,0,1-3.842,3.282l-.263.154-1.155-1.648.3-.175c3.848-2.272,3.848-3.661,3.848-5.765v-.358l1.99.244v.314a9.941,9.941,0,0,1-.165,2.163l4.794.588v1.437c0,3.668-2.338,6.266-8.338,9.265Zm-.57-1.566.7,1.088c5.835-2.921,8.107-5.425,8.107-8.923v-1.111l-4.878-.6.05-.2a8.81,8.81,0,0,0,.2-2.265L103,157.789c0,2.189-.035,3.653-3.984,6l.732,1.044c2.069-1.2,3.049-2.05,3.743-3.237l.061-.1,4.079.5-.009.169c-.137,2.919-2.255,5.107-7.547,7.794" transform="translate(-13.345 -21.323)"/>
      <path id="パス_268" data-name="パス 268" class="cls-3" d="M123.112,168.31A62.278,62.278,0,0,0,117,164.052v-4.916l-1.573-.193v13.822l1.573.193v-7.3a54.431,54.431,0,0,1,5.217,3.863l.125.108.9-1.22Z" transform="translate(-15.64 -21.536)"/>
      <path id="パス_269" data-name="パス 269" class="cls-3" d="M117.152,173.133l-1.941-.238V158.7l1.941.238v4.973a63.035,63.035,0,0,1,6.045,4.217l.268.208-1.124,1.522-.275-.234a51.81,51.81,0,0,0-4.914-3.658Zm-1.573-.564,1.205.149v-7.439l.287.194a54.405,54.405,0,0,1,5.208,3.855l.677-.916a62.311,62.311,0,0,0-6.084-4.235l-.088-.054v-4.855l-1.205-.149Z" transform="translate(-15.611 -21.504)"/>
      <path id="パス_270" data-name="パス 270" class="cls-3" d="M88.02,113.123l3.261,3.05L88.5,128.184a3.573,3.573,0,0,1-4.135,3.6l-6.654-.817v-2.33l6.654.817a1.476,1.476,0,0,0,1.718-1.508l2.785-10.933-1.777-1.675-13.013-1.6v-2.33Z" transform="translate(-10.037 -15.096)"/>
      <path id="パス_271" data-name="パス 271" class="cls-3" d="M84.82,132.116a4.413,4.413,0,0,1-.561-.035l-6.977-.856v-3.071l7.066.868a1.182,1.182,0,0,0,.935-.264,1.149,1.149,0,0,0,.37-.879l.012-.091L88.4,117.066l-1.531-1.443L73.65,114v-3.07l14.477,1.777,3.5,3.276L88.8,128.2a3.858,3.858,0,0,1-1.305,2.925,3.979,3.979,0,0,1-2.671.988m-6.8-1.541,6.331.776A3.327,3.327,0,0,0,87,130.577a3.222,3.222,0,0,0,1.066-2.458l2.747-11.888L87.8,113.409l-13.414-1.648v1.589l12.81,1.573,2.022,1.905-2.827,11.1a1.869,1.869,0,0,1-.619,1.382,1.9,1.9,0,0,1-1.512.443l-6.241-.767Z" transform="translate(-9.979 -15.031)"/>
      <path id="パス_272" data-name="パス 272" class="cls-3" d="M94.412,113.333l-2-.246-.025-4.347,2.006.246Z" transform="translate(-12.517 -14.734)"/>
      <path id="パス_273" data-name="パス 273" class="cls-3" d="M94.724,113.684l-2.74-.338-.029-5.088,2.742.338Zm-2.009-.988,1.269.156-.02-3.606-1.27-.156Z" transform="translate(-12.459 -14.669)"/>
      <path id="パス_274" data-name="パス 274" class="cls-3" d="M98.589,113.874l-1.974-.242-.024-4.348,1.973.242Z" transform="translate(-13.088 -14.808)"/>
      <path id="パス_275" data-name="パス 275" class="cls-3" d="M98.9,114.224l-2.71-.333-.028-5.088,2.708.334Zm-1.978-.983,1.237.152-.021-3.607-1.236-.151Z" transform="translate(-13.03 -14.742)"/>
      <path id="パス_276" data-name="パス 276" class="cls-3" d="M100.289,126.527l-.152-6.718,12.608-6.949v2.862l-10.326,5.889.121,3.547,10.2,7.923v2.862Z" transform="translate(-13.568 -15.292)"/>
      <path id="パス_277" data-name="パス 277" class="cls-3" d="M113.053,136.585l-13.187-9.969-.16-7.119,13.347-7.356v3.7l-10.318,5.885.108,3.153,10.21,7.927Zm-12.459-10.34,11.725,8.863v-1.943l-10.2-7.917-.136-3.942,10.334-5.892v-2.027l-11.869,6.541Z" transform="translate(-13.51 -15.195)"/>
      <path id="パス_278" data-name="パス 278" class="cls-3" d="M125.869,125.454v2.912l-1.921,1.307-2.1-2.878V115.41l2.271.278v10.6l.175.226Zm4.1,12.237-6.057-.743v-2.271l6.057.743a2.383,2.383,0,0,0,2.737-2.4l.145-16.841,2.33.286-.146,16.811a4.452,4.452,0,0,1-1.484,3.371,4.526,4.526,0,0,1-3.582,1.045" transform="translate(-16.51 -15.638)"/>
      <path id="パス_279" data-name="パス 279" class="cls-3" d="M130.537,138.032a5.378,5.378,0,0,1-.673-.042l-6.379-.783V134.2l6.469.794a2.068,2.068,0,0,0,1.652-.488,2.029,2.029,0,0,0,.673-1.548l.149-17.256,3.065.376-.15,17.141a4.73,4.73,0,0,1-4.8,4.818m-6.318-1.475,5.734.7a4.152,4.152,0,0,0,3.295-.956,4.1,4.1,0,0,0,1.359-3.094l.143-16.487-1.6-.2-.142,16.429a2.757,2.757,0,0,1-.921,2.1,2.838,2.838,0,0,1-2.229.666l-5.644-.693Zm-.417-6.445-2.376-3.263V114.929l3.006.37v10.575l1.746-1.176v3.8Zm-1.641-3.5,1.817,2.494,1.466-1V126.08l-1.285.865-.463-.6v-10.4l-1.536-.189Z" transform="translate(-16.453 -15.572)"/>
      <path id="パス_280" data-name="パス 280" class="cls-3" d="M41.816,126.607,28.5,124.972v-8.993l-5.528-.593v-2.3l5.528.592v-5.459l-4.254-.436v-2.3l16.207,1.674v2.3l-9.522-.969v5.431L41.96,115.1v2.3L30.934,116.22v6.752l10.882,1.337Z" transform="translate(-3.113 -14.293)"/>
      <path id="パス_281" data-name="パス 281" class="cls-3" d="M42.126,126.958l-14.049-1.725v-8.988l-5.528-.593v-3.037l5.528.592v-4.718l-4.254-.437v-3.038l16.943,1.75V109.8l-9.523-.968v4.694l11.027,1.181v3.038l-11.027-1.181v6.018l10.882,1.335Zm-13.313-2.375,12.578,1.544v-1.559l-10.882-1.336v-7.487l11.028,1.182v-1.559l-11.028-1.181V108.02l9.523.968v-1.56l-15.472-1.6v1.558l4.254.437v6.2l-5.528-.591v1.557l5.528.594Z" transform="translate(-3.055 -14.229)"/>
      <path id="パス_282" data-name="パス 282" class="cls-3" d="M58.767,125.074c-1.111.156-3.787.51-8.17.987v2.225c6.409-.69,9.3-1.129,9.424-1.147l.611-.093,5.507-16.383-2.434-.277Z" transform="translate(-6.856 -14.957)"/>
      <path id="パス_283" data-name="パス 283" class="cls-3" d="M50.171,128.633v-2.965l.329-.035c4.182-.454,6.817-.8,7.933-.954l4.961-14.754,3.182.361L60.85,127.313l-.832.126c-.308.048-3.19.478-9.44,1.15Zm.736-2.3v1.486c5.952-.645,8.7-1.056,9-1.1l.389-.059,5.291-15.74-1.687-.193-4.916,14.622-.226.031c-1.16.163-3.7.5-7.852.954" transform="translate(-6.798 -14.894)"/>
      <path id="パス_284" data-name="パス 284" class="cls-3" d="M95.825,64.9l3.289,3.075L96.3,80.091a3.6,3.6,0,0,1-4.169,3.627l-6.709-.824V80.546l6.709.824a1.489,1.489,0,0,0,1.733-1.52l2.808-11.025-1.791-1.687L81.763,65.526V63.177Z" transform="translate(-11.079 -8.56)"/>
      <path id="パス_285" data-name="パス 285" class="cls-3" d="M92.6,84.054a4.633,4.633,0,0,1-.565-.035L85,83.155v-3.09l7.123.874a1.191,1.191,0,0,0,.945-.266,1.158,1.158,0,0,0,.375-.888l.011-.091L96.21,68.879l-1.547-1.456L81.338,65.786V62.7l14.594,1.791,3.531,3.3L96.606,80.109a3.888,3.888,0,0,1-1.315,2.949,4.012,4.012,0,0,1-2.693,1m-6.862-1.548,6.387.784a3.366,3.366,0,0,0,2.68-.782,3.251,3.251,0,0,0,1.076-2.481l2.771-11.987L95.6,65.189,82.073,63.528v1.608l12.919,1.586,2.037,1.919-2.85,11.192a1.886,1.886,0,0,1-.622,1.392,1.916,1.916,0,0,1-1.522.444l-6.3-.773Z" transform="translate(-11.021 -8.495)"/>
      <path id="パス_286" data-name="パス 286" class="cls-3" d="M105.027,78.174l-.15-6.665,12.509-6.894v2.841L107.141,73.3l.12,3.519,10.124,7.861v2.84Z" transform="translate(-14.21 -8.755)"/>
      <path id="パス_287" data-name="パス 287" class="cls-3" d="M117.694,88.158l-13.089-9.9-.159-7.066,13.249-7.3v3.675l-10.237,5.838.107,3.126,10.13,7.865ZM105.332,77.891l11.627,8.789V84.76L106.841,76.9l-.134-3.914,10.252-5.847v-2l-11.769,6.486Z" transform="translate(-14.152 -8.658)"/>
      <path id="パス_288" data-name="パス 288" class="cls-10" d="M34.251,62.678v2.4l-7.7-.945L33.816,74l-3.01-.37-5.441-7.4v8.8l-2.314-.284V66.157l-5.356,5.864-3.01-.37,7.353-8.076L14.078,62.6V60.2l8.973,1.1V57.6l-6.628-.814v-2.4l6.628.813V51.656l2.314.284v3.55l6.628.813v2.4l-6.628-.814v3.7Z" transform="translate(-1.908 -6.999)"/>
      <path id="パス_289" data-name="パス 289" class="cls-10" d="M25.675,75.376,22.625,75V67.039l-4.844,5.305-3.9-.481,7.353-8.075-7.577-.931V59.721l8.972,1.1v-2.96L16,57.048V53.91l6.628.814V51.176l3.05.374V55.1l6.628.814v3.137l-6.628-.815V61.2l8.886,1.091v3.136L27.3,64.533,34.56,74.4l-4.013-.494-4.872-6.627Zm-2.314-1.024,1.579.194v-9.5l6.012,8.177,2.007.247L25.694,63.6l8.132,1V62.938l-8.886-1.091V57.4l6.629.815V56.564l-6.629-.814V52.2l-1.579-.194v3.549l-6.628-.814V56.4l6.628.814v4.441l-8.973-1.1v1.656l8.342,1.024-7.353,8.076,2.116.259,5.867-6.422Z" transform="translate(-1.85 -6.934)"/>
      <path id="パス_290" data-name="パス 290" class="cls-10" d="M61.637,67.389v2.4l-7.785-.956,7.264,8.992-3.125-.385L52.376,70.5v8.585L50.089,78.8V70.37l-5.123,5.468L41.9,75.462,48.7,68.2l-7.9-.971v-2.4l4.6.564-1.33-4.5,2.4.295,1.36,4.5,2.257.277V60.208l-8.017-.984v-2.4l8.017.984V55.263l2.287.281v2.548l7.988.981v2.4l-7.988-.98v5.764l2.229.273,1.563-4.146,2.46.3-1.534,4.149Z" transform="translate(-5.528 -7.488)"/>
      <path id="パス_291" data-name="パス 291" class="cls-10" d="M52.685,79.434l-3.022-.372V71.235l-4.614,4.926-3.972-.488,6.8-7.264-7.506-.922V64.35l4.457.546L43.5,60.4l3.2.392,1.359,4.5,1.607.2V60.468l-8.016-.985V56.347l8.016.984V54.782l3.022.372V57.7l7.988.981V61.82l-7.988-.98v5.022l1.619.2,1.564-4.145,3.207.393-1.534,4.15L61.947,67v3.137l-7.3-.9,7.264,8.992-4.175-.513-5.055-6.247ZM50.4,78.412l1.55.191V69.395l6.177,7.631,2.075.255-7.264-8.992,8.275,1.017V67.649l-4.681-.575,1.533-4.15-1.712-.209-1.563,4.145-2.839-.349v-6.5l7.99.98V59.333l-7.99-.981V55.8l-1.55-.191v2.549l-8.017-.984v1.656l8.017.984v6.5l-2.909-.356-1.359-4.5-1.608-.2,1.33,4.5-4.745-.582v1.656l8.3,1.018-6.8,7.264,2.166.266L50.4,69.375Z" transform="translate(-5.471 -7.423)"/>
      <path id="パス_292" data-name="パス 292" class="cls-3" d="M146.626,68.075l3.478.507-.418,16.5-2.668-.39Zm.13,23.257V87.2l3.218.469V91.8Z" transform="translate(-19.867 -9.224)"/>
      <path id="パス_293" data-name="パス 293" class="cls-3" d="M74.259,74.892l1.136,1.263v.319l2.384-.5v-.872l1.311.162v1.877l-3.7.771v2.9l-1.312-.162V78.19l-.5.106-1.824,2.376v.486a.682.682,0,0,0,.576.674l6.4.787V83.96l-6.4-.786A2.214,2.214,0,0,1,70.483,81v-.989l2.3-3,1.3-.26V76.58l-.463-.509-1.472-.181-2.528,3.295-1.632-.2,3.152-4.106.288-2.329L68.595,72.2V70.894l2.992.367.144-1.206,1.328.163-.144,1.206,4,.491v1.307l-4.16-.51-.239,1.966Z" transform="translate(-9.212 -9.492)"/>
      <path id="パス_294" data-name="パス 294" class="cls-3" d="M78.913,84.193l-6.675-.82a2.466,2.466,0,0,1-2.071-2.416V79.885l2.41-3.142,1.091-.219-.24-.265-1.242-.152L69.657,79.4l-2.2-.27,3.372-4.393.25-2.019-2.8-.345v-1.8l3.023.371.144-1.206,1.814.223-.144,1.207,3.973.487v1.8L72.9,72.942l-.18,1.479,1.592.2,1.26,1.4v.112l1.893-.393v-.95l1.8.221V77.3l-3.7.771v2.977l-1.8-.221V78.45l-.112.024-1.719,2.238v.4a.437.437,0,0,0,.36.432l6.616.812Zm-8.256-4.142v.906a1.963,1.963,0,0,0,1.641,1.93l6.124.752v-.847l-6.184-.76a.926.926,0,0,1-.792-.918v-.57l1.93-2.511.88-.189v2.55l.821.1V77.673l3.7-.771V75.441l-.822-.1v.794l-2.874.6v-.526l-1.011-1.125-1.9-.233.3-2.453L76.6,72.9v-.813l-4.028-.494.144-1.207-.841-.1-.144,1.206-2.961-.364v.814l2.86.351L71.3,74.931,68.371,78.75l1.068.131,2.528-3.294,1.7.208.59.647v.463l-1.4.282Z" transform="translate(-9.141 -9.449)"/>
      <path id="パス_295" data-name="パス 295" class="cls-3" d="M137.357,76.136l2.562,3.39V86.96a2.927,2.927,0,0,1-3.3,3.027l-10.11-1.242-.626-1.36V84.13l1.367-2.4,4.641.57,2.364,5.1,2.364.29a.906.906,0,0,0,1.024-.948v-6.6l-1.4-1.844-7.916-.972-5.268,6.16V79.695l7.916-9.236v-.925l-6.322-.777V66.428l8.6,1.056v4.09l-3.132,3.675Zm-9.4,10.489,3.7.454-1.2-2.654-2.107-.258-.4.756Z" transform="translate(-16.674 -9.001)"/>
      <path id="パス_296" data-name="パス 296" class="cls-3" d="M136.95,90.314a3.7,3.7,0,0,1-.435-.027L126.2,89.021l-.745-1.7V83.968l1.535-2.7,5.088.623,2.364,5.1,2.161.266a.521.521,0,0,0,.423-.123.6.6,0,0,0,.19-.462V80.2L135.99,78.58l-7.566-.929-5.787,6.766V79.494l7.917-9.236v-.465l-6.323-.776V65.947l9.335,1.146v4.55L130.789,74.9l6.71.824,2.73,3.612v7.557a3.474,3.474,0,0,1-1.132,2.614,3.2,3.2,0,0,1-2.147.8M126.7,88.34l9.906,1.217a2.514,2.514,0,0,0,2.006-.6,2.7,2.7,0,0,0,.884-2.064v-7.31L137.1,76.418l-7.757-.953,3.487-4.092v-3.63l-7.865-.966v1.588l6.322.777v1.386l-7.916,9.237v2.66l4.75-5.554,8.267,1.015,1.563,2.066v6.721a1.328,1.328,0,0,1-.437,1.012,1.262,1.262,0,0,1-1,.3l-2.567-.315-2.364-5.1-4.2-.516-1.2,2.1V87.24Zm5.509-.882-4.673-.573.042-2.2.518-.981,2.564.315Zm-3.939-1.223,2.731.335-.841-1.871-1.651-.2-.239.452Z" transform="translate(-16.617 -8.936)"/>
    </g>
  </g>
</svg>
