<svg xmlns="http://www.w3.org/2000/svg" xmlns:xlink="http://www.w3.org/1999/xlink" width="549.635" height="350.583" viewBox="0 0 549.635 350.583">
  <defs>
    <style>
      .cls-1, .cls-7 {
        fill: none;
      }

      .cls-2, .cls-4 {
        clip-path: url(#clip-path);
      }

      .cls-3 {
        fill: #fff;
      }

      .cls-4 {
        isolation: isolate;
      }

      .cls-5 {
        fill: #ff0;
      }

      .cls-6 {
        fill: #56421d;
      }

      .cls-7 {
        stroke: #56421d;
        stroke-width: 1.417px;
      }

      .cls-8 {
        fill: #1aadec;
      }
    </style>
    <clipPath id="clip-path">
      <rect id="長方形_244" data-name="長方形 244" class="cls-1" width="475.115" height="281.521"/>
    </clipPath>
  </defs>
  <g id="グループ_170" data-name="グループ 170" transform="translate(-142 -125)">
    <g id="グループ_166" data-name="グループ 166" transform="translate(142 125)">
      <g id="グループ_165" data-name="グループ 165" class="cls-2">
        <path id="パス_443" data-name="パス 443" class="cls-3" d="M462.29,155.8a38.7,38.7,0,0,0-47.217-61.062A49.275,49.275,0,0,0,348.8,51.02a28.155,28.155,0,0,0-55.169,3.155c-.081.6-.139,1.2-.181,1.794a38.695,38.695,0,0,0-63.094-2.815A59.834,59.834,0,0,0,111.616,51.7c-.266,1.95-.431,3.888-.507,5.813a38.717,38.717,0,0,0-54.388,47.531A56.3,56.3,0,1,0,67.735,216.485a28.156,28.156,0,0,0,52.078,17.058,49.273,49.273,0,0,0,80.462,15.129,38.717,38.717,0,0,0,71.268,8.218,49.261,49.261,0,0,0,91.464-17.949c.074-.538.124-1.073.18-1.609a38.706,38.706,0,0,0,67.63-34.853A28.154,28.154,0,1,0,462.29,155.8" transform="translate(0 0)"/>
      </g>
    </g>
    <g id="グループ_169" data-name="グループ 169" transform="translate(142 125)">
      <g id="グループ_168" data-name="グループ 168" class="cls-4">
        <path id="パス_444" data-name="パス 444" class="cls-5" d="M462.29,155.8a38.7,38.7,0,0,0-47.217-61.062A49.275,49.275,0,0,0,348.8,51.02a28.155,28.155,0,0,0-55.169,3.155c-.081.6-.139,1.2-.181,1.794a38.695,38.695,0,0,0-63.094-2.815A59.834,59.834,0,0,0,111.616,51.7c-.266,1.95-.431,3.888-.507,5.813a38.717,38.717,0,0,0-54.388,47.531A56.3,56.3,0,1,0,67.735,216.485a28.156,28.156,0,0,0,52.078,17.058,49.273,49.273,0,0,0,80.462,15.129,38.717,38.717,0,0,0,71.268,8.218,49.261,49.261,0,0,0,91.464-17.949c.074-.538.124-1.073.18-1.609a38.706,38.706,0,0,0,67.63-34.853A28.154,28.154,0,1,0,462.29,155.8" transform="translate(0 0)"/>
      </g>
    </g>
    <path id="パス_445" data-name="パス 445" class="cls-6" d="M214.1,119.2c5.246-.74,6.281-.887,16.035-3.326,15.445-3.917,20.766-4.656,25.643-4.656,23.647,0,27.416,18.031,27.416,24.756,0,4.286-1.331,17.44-18.1,25.125-7.168,3.251-18.992,5.764-27.933,5.616a73.3,73.3,0,0,0-4.729-14.262,51.311,51.311,0,0,0,6.059.369c13.228,0,30.594-3.547,30.594-16.923,0-6.577-4.36-12.192-14.41-12.192-2.292,0-7.611.147-19.213,4.064-1.183.443-7.834,2.735-16.627,6.577Zm55.274-18.476a37.7,37.7,0,0,1,5.913,7.686,56.675,56.675,0,0,0-6.06,3.768,51.218,51.218,0,0,0-5.468-7.538Zm9.9-.739a40.542,40.542,0,0,1,5.468,7.538c-3.695,2.513-4.139,2.734-5.468,3.77a41.357,41.357,0,0,0-5.395-7.76Z" transform="translate(195.135 149.814)"/>
    <path id="パス_446" data-name="パス 446" class="cls-6" d="M323.233,109.684a1.633,1.633,0,0,1,.74,1.256.95.95,0,0,1-1.035.961,4.659,4.659,0,0,1-1.551-.3c-3.4,3.029-25.274,20.987-26.012,21.652-.592.443-1.331,1.108-1.331,1.7,0,.739.3.886,2.66,2.364,1.182.739,19.214,13.081,28.3,23.722a80.3,80.3,0,0,0-10.421,10.714c-6.354-8.349-20.763-20.987-32-28.672-4.8-3.325-6.281-4.507-6.281-7.463,0-2.735,1.034-3.843,9.31-10.568,3.547-2.808,19.14-15.888,25.717-24.533Z" transform="translate(210.573 149.947)"/>
    <path id="パス_447" data-name="パス 447" class="cls-6" d="M341.845,105.223c.962.221,1.626.443,1.626,1.256,0,.739-.886,1.256-1.478,1.553-2.292,5.468-3.326,12.784-3.326,20.691a29.171,29.171,0,0,0,.371,4.95c.443-.813,2.66-5.542,3.99-8.35a42.337,42.337,0,0,0,7.389,6.06c-3.695,5.911-7.168,12.563-8.055,18.7l-11.972.96a78.159,78.159,0,0,1-4.211-26.086c0-6.577.592-10.863,2.218-19.14.37-1.921.442-2.438.59-3.472Zm33.4-2.513c.739,0,1.626.074,1.626,1.035,0,.739-.444,1.108-1.183,1.551.813,8.424,1.331,16.923,1.331,25.347,0,8.572,0,26.9-23.352,39.978a48.74,48.74,0,0,0-10.641-9.532c20.322-9.016,20.322-24.461,20.322-32.515,0-6.429-.886-18.4-2.882-26.455Z" transform="translate(222.95 150.344)"/>
    <path id="パス_448" data-name="パス 448" class="cls-6" d="M241.26,162.446a18.572,18.572,0,0,0,2.586-.226l4.349,3.525a6.954,6.954,0,0,0-1.238,1.986c-3.747,9.145-4.535,10.981-7.271,14.656-3.185,4.235-6.9,7.308-13.868,11.169a22.479,22.479,0,0,0-4.647-4.572c8.509-4.087,14.28-7.91,18.966-20.991H217.347v-5.547Z" transform="translate(195.94 165.26)"/>
    <path id="パス_449" data-name="パス 449" class="cls-6" d="M261.24,185.363h10.2v5.06H245.873v-5.06h9.894V173.444h-7.158V168.2h20.014v5.247H261.24Z" transform="translate(203.02 166.742)"/>
    <path id="パス_450" data-name="パス 450" class="cls-6" d="M299.193,162.768a6.163,6.163,0,0,0,2.1-.337l4.161,3.823c-.376.524-.487.711-1.349,1.948a85.315,85.315,0,0,1-10.083,12.369,18.792,18.792,0,0,0-4.31-4.123,40.254,40.254,0,0,0,7.008-8.021H271.643v-5.66Zm-9.07,7.122c.262,0,.674.037.674.449,0,.374-.487.563-.674.638a36.845,36.845,0,0,1-1.95,11.207,23.479,23.479,0,0,1-9.408,11.094,31.094,31.094,0,0,0-5.247-3.973c5.247-3,10.908-7.085,10.234-19.791Z" transform="translate(209.416 165.312)"/>
    <path id="パス_451" data-name="パス 451" class="cls-3" d="M413.779,65.177c-175.624-50.721-293.5-.325-293.5-.325L137.57,106.5s106.363-44.089,259.022,0Z" transform="translate(171.85 135.56)"/>
    <path id="パス_452" data-name="パス 452" class="cls-7" d="M120.362,65.091s120.478-49.94,293.4,0" transform="translate(171.871 135.646)"/>
    <path id="パス_453" data-name="パス 453" class="cls-7" d="M134.13,97.683s106.365-44.089,259.024,0" transform="translate(175.288 144.38)"/>
    <path id="パス_454" data-name="パス 454" class="cls-7" d="M135.562,102.081s104.9-43.48,255.451,0" transform="translate(175.644 145.538)"/>
    <path id="パス_455" data-name="パス 455" class="cls-6" d="M142.618,71.234l-.609-2.786,9.969-2.181-.961-4.4,3.113-.476c.266-.035.454-.007.487.145.042.2-.172.357-.349.487l.781,3.57,4.746-1.037.609,2.786-4.746,1.038,2.028,9.274c.471,2.154-.473,3.159-4.356,3.963a8.6,8.6,0,0,0-1.775-2.9,9.945,9.945,0,0,0,1.925-.171c1.132-.247,1.032-.7.775-1.88L153.2,71.84a23.636,23.636,0,0,1-6.861,8.891,8.524,8.524,0,0,0-2.5-1.938,20.107,20.107,0,0,0,7.357-9.434Z" transform="translate(177.243 140.233)"/>
    <path id="パス_456" data-name="パス 456" class="cls-6" d="M165.684,59.1a24.54,24.54,0,0,1,6.357,2.9,20.554,20.554,0,0,0-1.437,2.838,22.287,22.287,0,0,0-6.371-2.855Zm.819,15.731a26.367,26.367,0,0,0,14.707-14.51,13.219,13.219,0,0,0,2.315,2.282c-1.093,2.424-4.278,9.3-14.1,14.645-.01.226.009.494-.3.543-.155.024-.313-.132-.456-.315Z" transform="translate(182.759 139.666)"/>
    <path id="パス_457" data-name="パス 457" class="cls-6" d="M201.183,60.477a6.66,6.66,0,0,0,1.869-.381l1.988,1.13c-.308.746-1.58,4.049-1.876,4.7-2.208,4.983-4.879,7.254-9.105,9.409a12.268,12.268,0,0,0-2.3-2.243c3.29-1.414,7.393-3.69,9.089-9.809l-13.935,1.341-.265-2.752Zm.543-5.315.26,2.707L189.161,59.1,188.9,56.4Z" transform="translate(188.322 138.689)"/>
    <path id="パス_458" data-name="パス 458" class="cls-6" d="M220.881,73.2l-3.207.131-.436-10.575a39.149,39.149,0,0,1-6.674,3.686,9.9,9.9,0,0,0-2.379-2.579A31.1,31.1,0,0,0,223.21,52.836l2.755,1.938c.14.106.21.192.215.3.009.2-.212.3-.389.306a1.258,1.258,0,0,1-.4-.05,36.1,36.1,0,0,1-5.033,5.069Z" transform="translate(193.667 138.112)"/>
    <path id="パス_459" data-name="パス 459" class="cls-6" d="M233.378,53.5a24.548,24.548,0,0,1,5.8,3.9,20.637,20.637,0,0,0-1.879,2.565,22.272,22.272,0,0,0-5.818-3.853Zm-1.756,15.648a26.371,26.371,0,0,0,16.869-11.914,13.192,13.192,0,0,0,1.91,2.629c-1.474,2.212-5.733,8.473-16.292,12.144-.047.222-.071.489-.383.486-.156,0-.288-.181-.4-.383Z" transform="translate(199.447 138.278)"/>
    <path id="パス_460" data-name="パス 460" class="cls-6" d="M272.773,57.811c-5.559-.371-10.782,3.882-11.036,7.952-.163,2.6,1.555,4.407,6.248,5.059a16.474,16.474,0,0,0-1.611,3.271c-3.334-.969-7.951-3.2-7.635-8.249.187-2.981,2.037-5.433,5.161-7.539a96.571,96.571,0,0,0-10.231.768l-.2-3.608a12.5,12.5,0,0,0,1.443.157c1.513.095,10.812.3,17.483-1.028Zm-3.938,3.349c.288.376,1.321,1.735,1.785,2.524a16.776,16.776,0,0,0-1.57,1.2,19.918,19.918,0,0,0-1.737-2.587Zm2.238-1.513a15.542,15.542,0,0,1,1.877,2.485,11.2,11.2,0,0,0-1.525,1.177,17.814,17.814,0,0,0-1.8-2.636Z" transform="translate(204.905 138.549)"/>
    <path id="パス_461" data-name="パス 461" class="cls-6" d="M281.552,62.271l.281-2.481,5.67.639L288,56l2.64.454c.155.017.439.095.408.359-.014.134-.161.23-.492.393l-.4,3.522,5.871.66-.281,2.481-5.028-.567a29.642,29.642,0,0,0,5.009,8.3,10.642,10.642,0,0,0-2.117,1.871,26.083,26.083,0,0,1-4.005-7.854l-.567,5.028,2.57.29-.282,2.5-2.57-.29-.391,3.477-2.659-.3.392-3.479-2.525-.285.282-2.5,2.525.285.537-4.762a26.135,26.135,0,0,1-5.765,6.372,7.346,7.346,0,0,0-1.56-1.68L279,75.554l-2.7-.3,1.192-10.587a13.826,13.826,0,0,1-1.437,1.408,6.217,6.217,0,0,0-1.708-2.166,24.946,24.946,0,0,0,6.286-8.8l2.557,1.186a.482.482,0,0,1,.311.438c-.039.332-.548.275-.657.241-.132.186-.246.4-1.228,2.149-.285.528-.61,1.03-.987,1.594.4.223.545.33.529.486-.026.221-.117.233-.579.361l-.929,8.239a27.9,27.9,0,0,0,6.885-6.962Z" transform="translate(210.087 138.675)"/>
    <path id="パス_462" data-name="パス 462" class="cls-6" d="M298.636,71.079c.173.05.437.092.406.291-.03.176-.282.2-.377.232a26.254,26.254,0,0,1-.985,4.243A13.133,13.133,0,0,0,296,75.367a21.173,21.173,0,0,0,1.228-4.632Zm8.092-8.37-.154.945a10.5,10.5,0,0,0,5.722-4.216l2.132.776c.235.082.371.218.346.372s-.241.232-.516.255c.518,1.258,2.36,3.117,4.629,4.435a6.542,6.542,0,0,0-1.847,1.912,10.125,10.125,0,0,1-.981-.77l-.2,1.211-2.42-.394-.161.99,4.114.67-.917,5.631-3.7-.6a10.771,10.771,0,0,0,3.8,4.819,7.3,7.3,0,0,0-1.9,1.835,12.7,12.7,0,0,1-3.618-4.969,11.531,11.531,0,0,1-5.653,3.663,7.427,7.427,0,0,0-1.343-2.3,7.558,7.558,0,0,0,5.527-3.572l-3.454-.562.916-5.632,3.849.627.161-.99-2.573-.418.146-.9c-.443.222-.735.354-1.1.5a6.621,6.621,0,0,0-1.068-1.755l-.046.286-1.981-.322-.2,1.254,1.978.322-.3,1.87-1.981-.322-.217,1.341,2.64.431c-.461,2.409-1.287,6.655-2.969,8.39-.789.82-1.676.721-3.344.563a11.277,11.277,0,0,0-.518-2.5c.346.1.99.3,1.321.349.572.094,1.342.218,2.211-2.35a4.619,4.619,0,0,0-.791.144,13.814,13.814,0,0,0-.126-2.55l1.06-.121c.055.483.135,1.106.152,1.56a14.2,14.2,0,0,0,.423-1.918l-3.8-.619-.1.594-2.2-.358,1.985-12.187,8.49,1.383-.343,2.111-2.86-.466-.2,1.233ZM300.3,71.145a35.4,35.4,0,0,1-.286,3.7c-.231.03-1.1.114-1.384.181a25.9,25.9,0,0,0,.479-3.919Zm1.379-2.778.218-1.342-1.387-.226-.217,1.342Zm-.024,2.773A14.83,14.83,0,0,1,301.773,74a3.629,3.629,0,0,0-1.076.1,13.482,13.482,0,0,0-.044-2.919Zm.547-5.985.2-1.254-1.385-.226-.2,1.254Zm.5-3.1.2-1.232-1.385-.226-.2,1.232Zm7.6,9.343a.974.974,0,0,0,.065-.26l.212-1.3L309,69.581l-.253,1.561Zm4.686-6.034a15.468,15.468,0,0,1-2.265-2.875,15.866,15.866,0,0,1-2.551,2.091Zm-2.033,4.863-.255,1.561,1.76.287.255-1.563Z" transform="translate(215.459 139.426)"/>
    <path id="パス_463" data-name="パス 463" class="cls-6" d="M327.886,77.958l-.721,3.425-3.314-.7.72-3.424Zm2.787-13.782-1.12,5.321-2.01,6.3-1.766-.372.679-6.575,1.12-5.321Z" transform="translate(222.372 140.766)"/>
    <path id="パス_464" data-name="パス 464" class="cls-6" d="M181.9,183.845c24.685-3.868,31.966-21.386,31.966-33.558,0-3.414,0-23.321-23.775-26.279-1.706,33.9-17.633,71.213-32.877,71.213-9.556,0-26.506-13.992-26.506-37.427,0-26.164,22.07-52.33,55.515-52.33,27.189,0,48.12,17.177,48.12,44.595,0,8.645-1.366,23.206-17.176,38.564-8.419,8.305-17.861,11.489-23.777,13.424a140.671,140.671,0,0,0-11.489-18.2m-32.421-26.051c0,8.077,3.868,14.22,6.257,14.22,4.094,0,12.855-22.867,13.992-45.163-8.76,3.185-20.249,17.4-20.249,30.942" transform="translate(174.439 151.174)"/>
    <path id="パス_465" data-name="パス 465" class="cls-6" d="M60.819,98.636a145.906,145.906,0,0,0,15.417,5.06c.588-1.648,2.942-8.473,3.53-9.886-10-2.235-14.357-4-17.417-5.295l4.236-19.183a133.88,133.88,0,0,0,19.771,6.59c2.47-6.237,6-15.18,7.178-18.711l21.536,7.414c1.058.353,2.118.824,2.118,1.882,0,1.413-1.176,1.766-4,2.589-1.177,1.766-2.118,3.178-5.767,10.357,3.53.235,6.708.471,10.944.471a67.687,67.687,0,0,0,8.238-.471,101.842,101.842,0,0,0-5.061,19.417,149.68,149.68,0,0,1-21.3-1.529c-1.176,2.942-2.589,6.59-3.883,10a187.08,187.08,0,0,0,20.359,1.53c2.118,0,3.53-.119,4.943-.236a160.49,160.49,0,0,0-5.061,19.418,203.5,203.5,0,0,1-26.007-2.235,44.821,44.821,0,0,0-1.058,8.709c0,11.768,13.062,12.356,18.24,12.356,5.65,0,22.6-.705,22.6-15.769,0-5.884-3.177-11.532-6.825-17.417a131.991,131.991,0,0,0,18.947-6.825c3.764,6,9.061,15.182,9.061,26.36,0,22.714-20.947,32.717-42.955,32.717-35.422,0-39.188-21.655-39.188-29.657a67.2,67.2,0,0,1,1.765-14.122c-9.414-2.237-12.121-3.3-15.18-4.472Z" transform="translate(155.896 139.198)"/>
    <path id="パス_466" data-name="パス 466" class="cls-6" d="M30.513,120.46h6.245v5.257H31.232a22.8,22.8,0,0,0,5.526,4.493,17.562,17.562,0,0,0-3.594,4.672,20.958,20.958,0,0,1-2.651-2.651v7.638H24.626v-7.5c-2.292,3.595-3.189,4.449-4,5.211A19.524,19.524,0,0,0,16,134.3a34.352,34.352,0,0,0,6.515-8.581H17.348V120.46h7.278v-2.785H17.078v-5.257h3.46a21.668,21.668,0,0,0-.854-3.638l3.55-.9H17.348v-5.211h7.145V98.31l6.739.494a.588.588,0,0,1,.539.584c0,.584-.629.719-1.078.854v2.426h6.065v5.211H32.445l2.561.54c.315.045.719.225.719.583,0,.494-.674.539-.944.539-.135.674-.359,1.483-.764,2.876h2.919v5.257H31.411a.481.481,0,0,1,.09.268c0,.359-.584.494-.989.539Zm-5.3-12.58a23.262,23.262,0,0,1,1.032,4.538H28.4a45.921,45.921,0,0,0,1.167-4.538Zm12.624,17.613V99.658h18.78v25.835H51.809v8.177c0,.359,0,.944.809.944,1.168,0,1.392-.944,1.573-3.954a22.087,22.087,0,0,0,5.031,2.606c-.449,2.966-1.033,6.6-4.269,6.6H49.562c-1.438,0-3.774-.494-3.774-3.235v-8.715a2.887,2.887,0,0,1-.719.18c-.27.9-2.6,8.67-8.9,12.265a24.284,24.284,0,0,0-5.346-4.043c5.705-1.752,7.907-6.7,8.671-10.828Zm7.952,1.348v-1.348H41.564Zm4.628-21.97H43.945v1.977h6.471Zm-6.469,8.491h6.471V111.43H43.947Zm0,6.649h6.471v-2.067H43.947Z" transform="translate(145.971 149.398)"/>
    <path id="パス_467" data-name="パス 467" class="cls-6" d="M73.2,151v6.111H56.216v12.4c0,2.876-.27,6.291-10.919,6.02-.493-4.223-1.482-5.8-2.156-6.829,1.437.09,2.292.18,3.144.18,3.056,0,3.056-.359,3.056-2.921v-8.85H31.684V151H49.341V144.35l3.46.358a17.256,17.256,0,0,0,3.683-3.234H36.177V135.5H65.6l3.235,3.324A49.056,49.056,0,0,1,56.216,150.37V151Z" transform="translate(149.863 158.628)"/>
    <path id="パス_468" data-name="パス 468" class="cls-3" d="M268.753,248.337a18.056,18.056,0,0,1,22.028-28.487A22.986,22.986,0,0,1,321.7,199.457a13.135,13.135,0,0,1,25.737,1.472c.039.28.065.558.085.836a18.052,18.052,0,0,1,29.435-1.313,27.914,27.914,0,0,1,55.393-.676c.125.909.2,1.814.237,2.711A18.062,18.062,0,0,1,457.96,224.66a26.267,26.267,0,1,1-5.138,51.989,13.135,13.135,0,0,1-24.3,7.957,22.987,22.987,0,0,1-37.538,7.058,18.062,18.062,0,0,1-33.248,3.833,22.982,22.982,0,0,1-42.67-8.373c-.035-.251-.057-.5-.084-.751a18.057,18.057,0,0,1-31.551-16.259,13.135,13.135,0,1,1-14.682-21.778" transform="translate(207.214 168.594)"/>
    <path id="パス_469" data-name="パス 469" class="cls-8" d="M298.654,223.315h-9.2V216h9.2Zm0,31.393h-9.2V226.494h9.2Z" transform="translate(213.837 178.605)"/>
    <path id="パス_470" data-name="パス 470" class="cls-8" d="M310.513,224.617l.192,3.274c1.4-1.685,3.611-4.334,9.437-4.334,7.173,0,10.687,3.948,10.687,10.256V252.83h-8.569V236.172c0-3.707-2.118-5.778-5.73-5.778a5.622,5.622,0,0,0-5.825,5.923V252.83h-8.619V224.617Z" transform="translate(216.971 180.481)"/>
    <path id="パス_471" data-name="パス 471" class="cls-8" d="M371.814,214.868c.386,0,.82.144.82.625,0,.578-.627.866-1.253,1.107-.1.723-.145.915-.288,1.781h11.121v6.308h-6.836a22.15,22.15,0,0,0,6.836,4.189,27.274,27.274,0,0,0-3.418,3.852h4.573v6.5h-2.647v13.529c0,3.419-.241,6.645-10.5,6.212a15.105,15.105,0,0,0-1.156-5.586h-6.788v2.937h-6.789V240.915H370.66V251.7c2.214.047,2.262-.433,2.262-2.408V239.23H352.892v-6.5h5.538a23.961,23.961,0,0,0-3.467-2.89v1.975h-4.381V241.83c1.3-.529,2.455-.962,3.756-1.636-.241,2.359-.241,4.381-.241,4.814a11.589,11.589,0,0,0,.192,2.649c-3.37,1.636-10.449,4.381-13.1,5.343-.241,1.011-.336,1.4-.866,1.4a.858.858,0,0,1-.723-.77l-1.493-7.752c1.685-.384,2.841-.721,4.478-1.252V231.816h-3.564v-7.175h3.564v-9.63l8.041.433c.914.049,1.2.145,1.2.627,0,.529-.577.819-1.252,1.107v7.463h3.178v-6.26h9.34a22.062,22.062,0,0,0,.241-4.044Zm-16.852,13.913a16.471,16.471,0,0,0,5.73-4.092h-5.73Zm19.259,3.949a24.483,24.483,0,0,1-6.115-6.26,20.578,20.578,0,0,1-6.164,6.26Zm-11.94,15.406h2.408v-2.551h-2.408Z" transform="translate(225.911 178.193)"/>
    <path id="パス_472" data-name="パス 472" class="cls-8" d="M404.4,231.172h12.9v7.655h-4.189a44.048,44.048,0,0,1,6.26,7.7c-.627.433-4.285,3.082-4.478,3.274h7.319v7.7H377.819v-7.7H395.73V238.827h-12.9v-7.655h12.9v-8.186H379.649v-7.608h40.878v7.608H404.4Zm5.682,7.655H404.4V249.8h7.03a39.714,39.714,0,0,0-5.921-7.655Z" transform="translate(235.766 178.452)"/>
    <rect id="長方形_246" data-name="長方形 246" class="cls-1" width="549.635" height="350.582" transform="translate(142 125)"/>
    <rect id="長方形_247" data-name="長方形 247" class="cls-1" width="549.635" height="350.582" transform="translate(142 125)"/>
  </g>
</svg>
